<?xml version="1.0" encoding="utf-8"?>
<!-- Generator: Adobe Illustrator 19.2.1, SVG Export Plug-In . SVG Version: 6.00 Build 0)  -->
<svg version="1.1" id="Layer_1" xmlns="http://www.w3.org/2000/svg" xmlns:xlink="http://www.w3.org/1999/xlink" x="0px" y="0px"
	 viewBox="0 0 130 130" style="enable-background:new 0 0 130 130;" xml:space="preserve">
<style type="text/css">
	.st0{fill:none;}
	.st1{fill:#4D4D4D;}
</style>
<rect class="st0" width="130" height="130"/>
<g>
	<path class="st1" d="M110.2,54.8c-1.4-1-3.3-0.7-4.3,0.7l-41.7,57.8c0,0.1-0.1,0.1-0.1,0.2c-0.1,0.1-0.1,0.2-0.2,0.3
		c-0.2,0.1-0.4,0.3-0.5,0.5c-8,9.6-22.1,11.4-32.2,4.1c-10.4-7.5-13-21.8-5.9-32.5c0.1-0.2,0.2-0.4,0.3-0.6l51.2-71
		c5.7-7.7,16.7-9.4,24.5-3.8c7.6,5.5,9.6,16,4.5,23.9c-1.2,1.8-32.1,44.6-42.3,58.7l-3.3,4.5c-0.2,0.2-0.4,0.4-0.5,0.6l-0.2,0.3
		l-0.2,0.3c-1.7,2.4-4.3,4-7.2,4.4c-2.9,0.5-5.8-0.2-8.2-1.9c-4.8-3.5-6-10.4-2.5-15.3c0.1-0.2,0.2-0.4,0.3-0.6l35.7-49.6
		c1-1.4,0.7-3.3-0.7-4.3c-1.4-1-3.3-0.7-4.3,0.7L36.7,81.9c-0.2,0.3-0.3,0.5-0.5,0.8c0,0,0,0.1-0.1,0.1c-5,7.6-3.2,18,4.2,23.4
		c3.7,2.7,8.3,3.8,12.8,3c4.5-0.7,8.5-3.2,11.3-7.1l0.2-0.3c0.1-0.1,0.1-0.1,0.2-0.2l40.9-56.8c2.8-3.8,4.3-5.9,5-7.3l0.1,0.1
		c6.9-10.7,4.2-24.8-6-32.2c-10.5-7.6-25.3-5.3-33.1,5.2L20.6,81.7c-0.4,0.6-0.8,1-0.9,1.5c-8.3,13.4-4.9,30.9,7.9,40.1
		c5.3,3.8,11.4,5.6,17.5,5.6c8.3,0,16.5-3.4,22.4-10c0.2-0.1,0.3-0.2,0.4-0.3c0,0,0.9-0.9,1.5-2l41.6-57.6
		C111.9,57.8,111.6,55.8,110.2,54.8z"/>
</g>
</svg>
