<?xml version="1.0" encoding="utf-8"?>
<!-- Generator: Adobe Illustrator 19.2.1, SVG Export Plug-In . SVG Version: 6.00 Build 0)  -->
<svg version="1.1" id="Layer_1" xmlns="http://www.w3.org/2000/svg" xmlns:xlink="http://www.w3.org/1999/xlink" x="0px" y="0px"
	 viewBox="0 0 130 130" style="enable-background:new 0 0 130 130;" xml:space="preserve">
<style type="text/css">
	.st0{fill:none;}
	.st1{fill:#4D4D4D;}
</style>
<rect class="st0" width="130" height="130"/>
<g>
	<path class="st1" d="M129,47.7c-0.1-11.9-3.5-19.8-10.3-23.6c-7.2-4-15.8-2-21.7,0.3c2.2,2.2,4.1,4.9,5.8,8
		c3.9-1.2,8.2-1.8,11.3-0.1c4.4,2.5,5.4,9.7,5.4,15.4c0,3.9-1.3,14.7-4.6,25.1c-0.8-1.3-1.9-2.4-3.1-3.3l1.6,13.9
		c0.2,1.9,0.4,3.8,0.6,5.6c0,0.4,0.1,0.9,0.1,1.3c0.1,1.4,0.2,2.7,0.2,4c0.3,8.8-0.6,16.1-4.1,21.7h1.7c5.4,0,9.5-1.5,9.2-6.9
		l-2.9-19.9C127,74,129,52.5,129,47.7z"/>
	<path class="st1" d="M16,95.6c0-1.8,0.1-3.8,0.3-5.7c0,0,0-0.1,0-0.1c0.2-2,0.4-4.1,0.6-6.2l1.3-11.3c-1,0.6-1.9,1.4-2.7,2.4
		c-3.7-10.9-5.1-22.7-5.1-26.8c0-5.6,1-12.9,5.4-15.4c3.1-1.8,7.7-1.1,11.6,0.2c1.7-3.1,3.6-5.8,5.8-8c-5.9-2.3-14.7-4.5-22-0.4
		C4.5,27.9,1.1,35.9,1,47.7C1,52.5,3,74,11.8,89.4l-3.2,19.9c-0.3,5.3,3.8,9.7,9.2,9.7h4.5C17.2,113.3,15.7,105.4,16,95.6z"/>
	<path class="st1" d="M110.9,83.8l-2.7-23C104.7,34.1,96.1,21.3,80,19c-4.2-9.8-9-14.8-14.1-14.8c0,0,0,0-0.1,0
		c-7.5,0.1-13,10.7-14.9,14.7c-16.5,2.1-25.2,14.9-28.7,42l-2.7,23c-1.8,15-1.6,26.5,4.9,33.8c4.9,5.5,13.3,8.2,25.5,8.2h30.6
		c12.2,0,20.6-2.7,25.5-8.2C112.5,110.3,112.6,98.8,110.9,83.8z M55.9,18.6c-0.2,0-0.3,0-0.4,0c2.3-4.4,6.2-10,10.4-10.1
		c0,0,0,0,0,0c3.2,0,6.6,3.5,9.7,10.1c-0.4,0-0.7,0-1.1,0L55.9,18.6L55.9,18.6z"/>
</g>
</svg>
