<?xml version="1.0" encoding="utf-8"?>
<!-- Generator: Adobe Illustrator 19.2.1, SVG Export Plug-In . SVG Version: 6.00 Build 0)  -->
<svg version="1.1" id="Layer_1" xmlns="http://www.w3.org/2000/svg" xmlns:xlink="http://www.w3.org/1999/xlink" x="0px" y="0px"
	 viewBox="0 0 130 130" style="enable-background:new 0 0 130 130;" xml:space="preserve">
<style type="text/css">
	.st0{fill:none;}
	.st1{fill:#4D4D4D;}
</style>
<rect class="st0" width="130" height="130"/>
<g>
	<path class="st1" d="M103.8,26H88c-0.1,0.9-0.3,1.8-0.5,2.8c-0.1,0.3-0.2,0.6-0.4,0.8c-0.1,1.2-0.3,2.3-0.5,3.3
		c0,0.1,0.1,0.2,0.1,0.4c0,1.7-1.4,3.1-3.1,3.1c-1.7,0-3.1-1.4-3.1-3.1c0-0.9,0.4-1.7,1-2.3c0.2-1,0.3-2,0.3-3c0-0.7-0.1-1.4-0.1-2
		H48.3c-0.1,0.7-0.1,1.3-0.1,2c0,1.1,0.2,2.3,0.4,3.5c0.4,0.5,0.6,1.1,0.6,1.8c0,1.7-1.4,3.1-3.1,3.1c-1.7,0-3.1-1.4-3.1-3.1
		c0-0.4,0.1-0.8,0.2-1.2c-0.1-0.8-0.3-1.6-0.3-2.5c-0.2-0.3-0.3-0.5-0.4-0.8c-0.2-0.9-0.4-1.9-0.5-2.8H26.2l-3.3,103h84.2L103.8,26z
		"/>
	<g>
		<path class="st1" d="M65,1c12.2,0,22.2,9.9,22.2,22.1c0,1.8-0.2,3.6-0.7,5.4c-0.2,1-1.2,1.5-2.2,1.3c-0.9-0.2-1.5-1.2-1.3-2.2
			c0.4-1.5,0.6-3,0.6-4.5c0-10.2-8.4-18.6-18.6-18.6s-18.6,8.3-18.6,18.6c0,1.5,0.2,3,0.6,4.5c0.2,1-0.3,1.9-1.3,2.2
			c-1,0.2-1.9-0.3-2.2-1.3c-0.5-1.8-0.7-3.6-0.7-5.4C42.8,10.9,52.8,1,65,1z"/>
	</g>
	<g>
		<path class="st1" d="M65,6.9c11.7,0,21.2,9.5,21.2,21.1c0,1.7-0.2,3.4-0.7,5.1c-0.2,0.9-1.2,1.5-2.1,1.2c-0.9-0.2-1.5-1.2-1.2-2.1
			c0.4-1.5,0.6-2.9,0.6-4.3c0-9.8-8-17.7-17.8-17.7c-9.8,0-17.8,7.9-17.8,17.7c0,1.4,0.2,2.9,0.6,4.3c0.2,0.9-0.3,1.8-1.2,2.1
			c-0.9,0.2-1.8-0.3-2.1-1.2c-0.4-1.7-0.7-3.5-0.7-5.1C43.8,16.4,53.3,6.9,65,6.9z"/>
	</g>
</g>
</svg>
