<?xml version="1.0" encoding="utf-8"?>
<!-- Generator: Adobe Illustrator 19.2.1, SVG Export Plug-In . SVG Version: 6.00 Build 0)  -->
<svg version="1.1" id="Layer_1" xmlns="http://www.w3.org/2000/svg" xmlns:xlink="http://www.w3.org/1999/xlink" x="0px" y="0px"
	 viewBox="0 0 130 130" style="enable-background:new 0 0 130 130;" xml:space="preserve">
<style type="text/css">
	.st0{fill:none;}
	.st1{fill:#424242;}
	.st2{fill:#303030;}
	.st3{fill:#636363;}
	.st4{fill:#4D4D4D;}
</style>
<rect class="st0" width="130" height="130"/>
<g>
	<g>
		<rect x="14.4" y="1" class="st1" width="101.4" height="28.5"/>
		<polygon class="st2" points="24.9,7.4 14.3,1.1 14.3,17.9 22,14.2 		"/>
		<polygon class="st3" points="10.7,20.5 24.9,7.4 24.9,28.9 		"/>
		<polygon class="st2" points="105.1,7.4 115.7,1.1 115.7,17.9 108.1,14.2 		"/>
		<polygon class="st3" points="119.3,20.5 105.1,7.4 105.1,28.9 		"/>
	</g>
	<path class="st4" d="M119.3,20.5H10.7L8.2,129l113.6,0L119.3,20.5z M96.5,43.9c0,17.3-14.2,31.4-31.6,31.4
		c-17.4,0-31.6-14.1-31.6-31.4c0-1,0.1-2.1,0.2-3.2c-1.1-0.9-1.8-2.3-1.8-3.8c0-2.8,2.3-5.1,5.1-5.1c2.8,0,5.1,2.3,5.1,5.1
		c0,2.2-1.5,4.1-3.5,4.8c-0.1,0.7-0.1,1.5-0.1,2.2c0,14.6,11.9,26.4,26.5,26.4c14.6,0,26.5-11.8,26.5-26.4c0-0.7-0.1-1.4-0.1-2.2
		c-2-0.7-3.4-2.6-3.4-4.8c0-2.8,2.3-5.1,5.1-5.1c2.8,0,5.1,2.3,5.1,5.1c0,1.5-0.7,2.9-1.8,3.8C96.5,41.8,96.5,42.9,96.5,43.9z"/>
</g>
</svg>
