<?xml version="1.0" encoding="utf-8"?>
<!-- Generator: Adobe Illustrator 19.2.1, SVG Export Plug-In . SVG Version: 6.00 Build 0)  -->
<svg version="1.1" id="Layer_1" xmlns="http://www.w3.org/2000/svg" xmlns:xlink="http://www.w3.org/1999/xlink" x="0px" y="0px"
	 viewBox="0 0 130 130" style="enable-background:new 0 0 130 130;" xml:space="preserve">
<style type="text/css">
	.st0{fill:none;}
	.st1{fill:#4D4D4D;}
</style>
<rect class="st0" width="130" height="130"/>
<g>
	<path class="st1" d="M65,1C29.7,1,1,29.7,1,65c0,35.3,28.7,64,64,64s64-28.7,64-64C129,29.7,100.3,1,65,1z M120.4,53.3
		c1.4,0,2.5,1.1,2.5,2.5s-1.1,2.5-2.5,2.5s-2.5-1.1-2.5-2.5S119.1,53.3,120.4,53.3z M109.7,34.8c1.4,0,2.5,1.1,2.5,2.5
		s-1.1,2.5-2.5,2.5s-2.5-1.1-2.5-2.5S108.4,34.8,109.7,34.8z M108.9,48c1.4,0,2.5,1.1,2.5,2.5s-1.1,2.5-2.5,2.5
		c-1.4,0-2.5-1.1-2.5-2.5C106.4,49.1,107.5,48,108.9,48z M97.4,24.5c1.4,0,2.5,1.1,2.5,2.5c0,1.4-1.1,2.5-2.5,2.5
		c-1.4,0-2.5-1.1-2.5-2.5C94.9,25.6,96,24.5,97.4,24.5z M95.3,70.6c1.4,0,2.5,1.1,2.5,2.5c0,1.4-1.1,2.5-2.5,2.5
		c-1.4,0-2.5-1.1-2.5-2.5C92.8,71.7,93.9,70.6,95.3,70.6z M94.9,83c1.4,0,2.5,1.1,2.5,2.5c0,1.4-1.1,2.5-2.5,2.5
		c-1.4,0-2.5-1.1-2.5-2.5C92.4,84.1,93.5,83,94.9,83z M86.3,12.3c1.4,0,2.5,1.1,2.5,2.5c0,1.4-1.1,2.5-2.5,2.5
		c-1.4,0-2.5-1.1-2.5-2.5C83.8,13.4,84.9,12.3,86.3,12.3z M80.5,23.7c1.4,0,2.5,1.1,2.5,2.5c0,1.4-1.1,2.5-2.5,2.5S78,27.5,78,26.2
		C78,24.8,79.1,23.7,80.5,23.7z M78.3,35.2c1.4,0,2.5,1.1,2.5,2.5c0,1.4-1.1,2.5-2.5,2.5c-1.4,0-2.5-1.1-2.5-2.5
		C75.9,36.3,77,35.2,78.3,35.2z M68.6,13c1.4,0,2.5,1.1,2.5,2.5c0,1.4-1.1,2.5-2.5,2.5s-2.5-1.1-2.5-2.5C66.1,14.1,67.2,13,68.6,13z
		 M62.4,32.3c0,1.4-1.1,2.5-2.5,2.5s-2.5-1.1-2.5-2.5c0-1.4,1.1-2.5,2.5-2.5S62.4,31,62.4,32.3z M59.1,20c0,1.4-1.1,2.5-2.5,2.5
		c-1.4,0-2.5-1.1-2.5-2.5s1.1-2.5,2.5-2.5C58,17.5,59.1,18.6,59.1,20z M55.5,8c1.4,0,2.5,1.1,2.5,2.5c0,1.4-1.1,2.5-2.5,2.5
		c-1.4,0-2.5-1.1-2.5-2.5C53.1,9.1,54.2,8,55.5,8z M44.3,26.2c1.4,0,2.5,1.1,2.5,2.5c0,1.4-1.1,2.5-2.5,2.5c-1.4,0-2.5-1.1-2.5-2.5
		C41.8,27.3,42.9,26.2,44.3,26.2z M35.1,16c1.4,0,2.5,1.1,2.5,2.5c0,1.4-1.1,2.5-2.5,2.5c-1.4,0-2.5-1.1-2.5-2.5
		C32.6,17.1,33.7,16,35.1,16z M31.5,58.3c1.4,0,2.5,1.1,2.5,2.5c0,1.4-1.1,2.5-2.5,2.5c-1.4,0-2.5-1.1-2.5-2.5S30.1,58.3,31.5,58.3z
		 M26.6,52.5c0-1.4,1.1-2.5,2.5-2.5c1.4,0,2.5,1.1,2.5,2.5c0,1.4-1.1,2.5-2.5,2.5C27.7,55,26.6,53.9,26.6,52.5z M30.3,34.8
		c1.4,0,2.5,1.1,2.5,2.5c0,1.4-1.1,2.5-2.5,2.5c-1.4,0-2.5-1.1-2.5-2.5C27.8,35.9,28.9,34.8,30.3,34.8z M25.9,24.4
		c1.4,0,2.5,1.1,2.5,2.5s-1.1,2.5-2.5,2.5c-1.4,0-2.5-1.1-2.5-2.5S24.5,24.4,25.9,24.4z M19.9,60.8c0,1.4-1.1,2.5-2.5,2.5
		s-2.5-1.1-2.5-2.5c0-1.4,1.1-2.5,2.5-2.5S19.9,59.5,19.9,60.8z M16.3,37.7c1.4,0,2.5,1.1,2.5,2.5s-1.1,2.5-2.5,2.5
		c-1.4,0-2.5-1.1-2.5-2.5S14.9,37.7,16.3,37.7z M6.8,60.7c0-1.4,1.1-2.5,2.5-2.5c1.4,0,2.5,1.1,2.5,2.5c0,1.4-1.1,2.5-2.5,2.5
		C7.9,63.2,6.8,62.1,6.8,60.7z M10.9,78c-1.4,0-2.5-1.1-2.5-2.5c0-1.4,1.1-2.5,2.5-2.5c1.4,0,2.5,1.1,2.5,2.5
		C13.4,76.9,12.3,78,10.9,78z M13,48.4c0-1.4,1.1-2.5,2.5-2.5s2.5,1.1,2.5,2.5c0,1.4-1.1,2.5-2.5,2.5S13,49.8,13,48.4z M14.1,85.8
		c0-1.4,1.1-2.5,2.5-2.5c1.4,0,2.5,1.1,2.5,2.5s-1.1,2.5-2.5,2.5C15.2,88.2,14.1,87.1,14.1,85.8z M20,101.7c-1.4,0-2.5-1.1-2.5-2.5
		c0-1.4,1.1-2.5,2.5-2.5c1.4,0,2.5,1.1,2.5,2.5C22.4,100.6,21.3,101.7,20,101.7z M20.8,71.8c0-1.4,1.1-2.5,2.5-2.5
		c1.4,0,2.5,1.1,2.5,2.5c0,1.4-1.1,2.5-2.5,2.5C21.9,74.3,20.8,73.2,20.8,71.8z M24.9,85.8c0-1.4,1.1-2.5,2.5-2.5
		c1.4,0,2.5,1.1,2.5,2.5s-1.1,2.5-2.5,2.5C26,88.3,24.9,87.2,24.9,85.8z M29.8,105.1c-1.4,0-2.5-1.1-2.5-2.5c0-1.4,1.1-2.5,2.5-2.5
		s2.5,1.1,2.5,2.5C32.3,104,31.2,105.1,29.8,105.1z M35.2,73.9c1.4,0,2.5,1.1,2.5,2.5c0,1.4-1.1,2.5-2.5,2.5c-1.4,0-2.5-1.1-2.5-2.5
		C32.7,75,33.9,73.9,35.2,73.9z M35.2,112.8c-1.4,0-2.5-1.1-2.5-2.5c0-1.4,1.1-2.5,2.5-2.5c1.4,0,2.5,1.1,2.5,2.5
		C37.7,111.7,36.6,112.8,35.2,112.8z M35.9,98.7c-1.4,0-2.4-1.2-2.4-2.5c0-1.4,1.2-2.4,2.5-2.4c1.4,0,2.4,1.2,2.4,2.5
		C38.4,97.6,37.3,98.7,35.9,98.7z M38.9,41c0-1.4,1.1-2.5,2.5-2.5c1.4,0,2.5,1.1,2.5,2.5s-1.1,2.5-2.5,2.5
		C40,43.4,38.9,42.3,38.9,41z M42.8,103.3c0-1.4,1.1-2.5,2.5-2.5c1.4,0,2.5,1.1,2.5,2.5c0,1.4-1.1,2.5-2.5,2.5
		C43.9,105.8,42.8,104.7,42.8,103.3z M46.7,118.8c-1.4,0-2.5-1.1-2.5-2.5s1.1-2.5,2.5-2.5c1.4,0,2.5,1.1,2.5,2.5
		S48.1,118.8,46.7,118.8z M54.2,97.4c0-1.4,1.1-2.5,2.5-2.5c1.4,0,2.5,1.1,2.5,2.5s-1.1,2.5-2.5,2.5C55.3,99.8,54.2,98.7,54.2,97.4z
		 M57.9,118.4c-1.4,0-2.5-1.1-2.5-2.5c0-1.4,1.1-2.5,2.5-2.5s2.5,1.1,2.5,2.5C60.3,117.3,59.2,118.4,57.9,118.4z M66.5,108.1
		c-1.4,0-2.5-1.1-2.5-2.5c0-1.4,1.1-2.5,2.5-2.5c1.4,0,2.5,1.1,2.5,2.5C69,107,67.9,108.1,66.5,108.1z M71.2,121.6
		c-1.4,0-2.5-1.1-2.5-2.5c0-1.4,1.1-2.5,2.5-2.5c1.4,0,2.5,1.1,2.5,2.5C73.6,120.5,72.5,121.6,71.2,121.6z M80.5,111
		c-1.4,0-2.5-1.1-2.5-2.5s1.1-2.5,2.5-2.5c1.4,0,2.5,1.1,2.5,2.5S81.9,111,80.5,111z M80.7,99c-1.4,0-2.5-1.1-2.5-2.5
		c0-1.4,1.1-2.5,2.5-2.5c1.4,0,2.5,1.1,2.5,2.5C83.2,97.9,82.1,99,80.7,99z M65,89.5c-13.5,0-24.5-11-24.5-24.5
		c0-13.5,11-24.5,24.5-24.5s24.5,11,24.5,24.5C89.5,78.5,78.5,89.5,65,89.5z M92.3,114.4c-1.4,0-2.5-1.1-2.5-2.5s1.1-2.5,2.5-2.5
		c1.4,0,2.5,1.1,2.5,2.5S93.7,114.4,92.3,114.4z M95.3,104.8c-1.4,0-2.5-1.1-2.5-2.5s1.1-2.5,2.5-2.5c1.4,0,2.5,1.1,2.5,2.5
		S96.7,104.8,95.3,104.8z M96.1,59.9c-1.4,0-2.5-1.1-2.5-2.5c0-1.4,1.1-2.5,2.5-2.5c1.4,0,2.5,1.1,2.5,2.5
		C98.6,58.8,97.5,59.9,96.1,59.9z M98.6,45.9c-1.4,0-2.5-1.1-2.5-2.5c0-1.4,1.1-2.5,2.5-2.5c1.4,0,2.5,1.1,2.5,2.5
		C101.1,44.8,100,45.9,98.6,45.9z M104.8,107.5c-1.4,0-2.5-1.1-2.5-2.5c0-1.4,1.1-2.5,2.5-2.5c1.4,0,2.5,1.1,2.5,2.5
		C107.3,106.3,106.2,107.5,104.8,107.5z M106,97.8c-1.4,0-2.5-1.1-2.5-2.5c0-1.4,1.1-2.5,2.5-2.5c1.4,0,2.5,1.1,2.5,2.5
		C108.5,96.7,107.4,97.8,106,97.8z M106.4,71c0-1.4,1.1-2.5,2.5-2.5s2.5,1.1,2.5,2.5c0,1.4-1.1,2.5-2.5,2.5S106.4,72.4,106.4,71z
		 M111.8,83.4c-1.4,0-2.5-1.1-2.5-2.5c0-1.4,1.1-2.5,2.5-2.5c1.4,0,2.5,1.1,2.5,2.5C114.3,82.3,113.1,83.4,111.8,83.4z M118,93.3
		c-1.4,0-2.5-1.1-2.5-2.5s1.1-2.5,2.5-2.5c1.4,0,2.5,1.1,2.5,2.5S119.3,93.3,118,93.3z M121.7,72.7c-1.4,0-2.5-1.1-2.5-2.5
		s1.1-2.5,2.5-2.5c1.4,0,2.5,1.1,2.5,2.5S123,72.7,121.7,72.7z"/>
</g>
</svg>
