<?xml version="1.0" encoding="utf-8"?>
<!-- Generator: Adobe Illustrator 19.2.1, SVG Export Plug-In . SVG Version: 6.00 Build 0)  -->
<svg version="1.1" id="Layer_1" xmlns="http://www.w3.org/2000/svg" xmlns:xlink="http://www.w3.org/1999/xlink" x="0px" y="0px"
	 viewBox="0 0 130 130" style="enable-background:new 0 0 130 130;" xml:space="preserve">
<style type="text/css">
	.st0{fill:none;}
	.st1{fill:#4D4D4D;}
</style>
<rect class="st0" width="130" height="130"/>
<g>
	<path class="st1" d="M66,65.5c-0.6,0-1.2-0.1-1.8-0.3c-1.3-0.5-2.4-1.5-3-2.8c-0.6-1.3-0.7-2.8-0.2-4.1l16.7-46.7
		c0.8-2.1,2.8-3.6,5-3.6c0.2,0,0.5,0,0.7,0.1c-0.1,0-0.2-0.1-0.2-0.1c-3.1-1.1-6.4,0.5-7.5,3.6L58.9,58.2c-1.1,3.1,0.5,6.4,3.6,7.5
		c0.6,0.2,1.3,0.3,2,0.3c1,0,2-0.3,2.9-0.8C66.9,65.4,66.5,65.5,66,65.5z"/>
	<g>
		<polygon class="st1" points="76.1,47.6 116.6,47.6 125.4,54 73.8,54 73.4,55.2 128.3,55.2 128.2,54.6 116.9,46.4 76.5,46.4 		"/>
		<polygon class="st1" points="62.5,54 4.6,54 13.5,47.6 64.7,47.6 65.2,46.4 13.1,46.4 1.6,54.8 2.2,55.2 62,55.2 		"/>
	</g>
	<path class="st1" d="M119.7,62.9H70.5c-1,1.6-2.6,2.6-4.5,2.6c-0.6,0-1.2-0.1-1.8-0.3c-1.2-0.4-2.1-1.2-2.7-2.3H11.3
		c-1.8,0-3.1,1.5-2.8,3.3l8.3,52.9c0.3,1.8,2,3.3,3.9,3.3h89.6c1.8,0,3.6-1.5,3.9-3.3l8.3-52.9C122.8,64.4,121.5,62.9,119.7,62.9z
		 M20.3,90.1L18.1,76c-0.2-1.3,0.7-2.5,2-2.7c1.3-0.2,2.5,0.7,2.7,2l2.2,14.1c0.2,1.3-0.7,2.5-2,2.7c-0.1,0-0.2,0-0.4,0
		C21.5,92,20.5,91.2,20.3,90.1z M27,115.8c-0.1,0-0.2,0-0.4,0c-1.1,0-2.1-0.8-2.3-2l-2-12.8c-0.2-1.3,0.7-2.5,2-2.7
		c1.3-0.2,2.5,0.7,2.7,2l2,12.8C29.1,114.4,28.3,115.6,27,115.8z M29.8,90l-1.7-14.1c-0.2-1.3,0.8-2.5,2-2.6
		c1.3-0.1,2.5,0.8,2.6,2.1l1.7,14.1c0.2,1.3-0.8,2.5-2,2.6c-0.1,0-0.2,0-0.3,0C31,92,30,91.2,29.8,90z M35.5,115.8
		c-0.1,0-0.2,0-0.3,0c-1.2,0-2.2-0.9-2.3-2.1L31.4,101c-0.2-1.3,0.8-2.5,2-2.6c1.3-0.2,2.5,0.8,2.6,2l1.6,12.8
		C37.7,114.5,36.8,115.7,35.5,115.8z M39.4,89.9l-1.2-14.1c-0.1-1.3,0.8-2.4,2.1-2.5c1.3-0.1,2.4,0.8,2.5,2.1L44,89.5
		c0.1,1.3-0.8,2.4-2.1,2.5c-0.1,0-0.1,0-0.2,0C40.5,92,39.5,91.1,39.4,89.9z M44.1,115.8c-0.1,0-0.1,0-0.2,0c-1.2,0-2.2-0.9-2.3-2.1
		l-1.1-12.8c-0.1-1.3,0.8-2.4,2.1-2.5c1.3-0.1,2.4,0.8,2.5,2.1l1.1,12.8C46.4,114.6,45.4,115.7,44.1,115.8z M48.1,75.7
		c-0.1-1.3,0.9-2.4,2.2-2.5c1.3-0.1,2.4,0.9,2.5,2.2l0.7,14.1c0.1,1.3-0.9,2.4-2.2,2.5c0,0-0.1,0-0.1,0c-1.2,0-2.3-1-2.3-2.2
		L48.1,75.7z M52.7,115.8c0,0-0.1,0-0.1,0c-1.2,0-2.3-1-2.3-2.2l-0.7-12.8c-0.1-1.3,0.9-2.4,2.2-2.5c1.3-0.1,2.4,0.9,2.5,2.2
		l0.7,12.8C55,114.6,54,115.8,52.7,115.8z M58.2,75.6c0-1.3,1-2.4,2.3-2.4c1.3,0,2.4,1,2.4,2.3l0.2,14.1c0,1.3-1,2.4-2.3,2.4
		c0,0,0,0,0,0c-1.3,0-2.3-1-2.3-2.3L58.2,75.6z M61.3,115.8C61.2,115.8,61.2,115.8,61.3,115.8c-1.3,0-2.4-1-2.4-2.3l-0.2-12.8
		c0-1.3,1-2.4,2.3-2.4c0,0,0,0,0,0c1.3,0,2.3,1,2.3,2.3l0.2,12.8C63.6,114.7,62.5,115.8,61.3,115.8z M72.2,113.5
		c0,1.3-1.1,2.3-2.3,2.3c0,0,0,0,0,0c-1.3,0-2.3-1.1-2.3-2.4l0.2-12.8c0-1.3,1.1-2.3,2.3-2.3c0,0,0,0,0,0c1.3,0,2.3,1.1,2.3,2.4
		L72.2,113.5z M72.7,89.7c0,1.3-1.1,2.3-2.3,2.3c0,0,0,0,0,0c-1.3,0-2.3-1.1-2.3-2.4l0.2-14.1c0-1.3,1.1-2.4,2.4-2.3
		c1.3,0,2.3,1.1,2.3,2.4L72.7,89.7z M80.9,113.6c-0.1,1.3-1.1,2.2-2.3,2.2c0,0-0.1,0-0.1,0c-1.3-0.1-2.3-1.2-2.2-2.5l0.7-12.8
		c0.1-1.3,1.1-2.3,2.5-2.2c1.3,0.1,2.3,1.2,2.2,2.5L80.9,113.6z M82.2,89.8c-0.1,1.2-1.1,2.2-2.3,2.2c0,0-0.1,0-0.1,0
		c-1.3-0.1-2.3-1.2-2.2-2.5l0.7-14.1c0.1-1.3,1.1-2.3,2.5-2.2c1.3,0.1,2.3,1.2,2.2,2.5L82.2,89.8z M89.5,113.7
		c-0.1,1.2-1.1,2.1-2.3,2.1c-0.1,0-0.1,0-0.2,0c-1.3-0.1-2.2-1.2-2.1-2.5l1.1-12.8c0.1-1.3,1.2-2.3,2.5-2.1c1.3,0.1,2.3,1.3,2.1,2.5
		L89.5,113.7z M91.7,89.9c-0.1,1.2-1.1,2.1-2.3,2.1c-0.1,0-0.1,0-0.2,0c-1.3-0.1-2.3-1.2-2.1-2.5l1.2-14.1c0.1-1.3,1.2-2.3,2.5-2.1
		c1.3,0.1,2.2,1.2,2.1,2.5L91.7,89.9z M98.1,113.8c-0.1,1.2-1.2,2.1-2.3,2.1c-0.1,0-0.2,0-0.3,0c-1.3-0.2-2.2-1.3-2-2.6l1.6-12.8
		c0.2-1.3,1.3-2.2,2.6-2c1.3,0.2,2.2,1.3,2,2.6L98.1,113.8z M98.9,92c-0.1,0-0.2,0-0.3,0c-1.3-0.2-2.2-1.3-2-2.6l1.7-14.1
		c0.2-1.3,1.3-2.2,2.6-2.1c1.3,0.2,2.2,1.3,2,2.6L101.3,90C101.1,91.2,100.1,92,98.9,92z M106.8,113.8c-0.2,1.2-1.2,2-2.3,2
		c-0.1,0-0.2,0-0.4,0c-1.3-0.2-2.2-1.4-2-2.7l2-12.8c0.2-1.3,1.4-2.2,2.7-2c1.3,0.2,2.2,1.4,2,2.7L106.8,113.8z M110.8,90.1
		c-0.2,1.2-1.2,2-2.3,2c-0.1,0-0.2,0-0.4,0c-1.3-0.2-2.2-1.4-2-2.7l2.2-14.1c0.2-1.3,1.4-2.1,2.7-2c1.3,0.2,2.2,1.4,1.9,2.7
		L110.8,90.1z"/>
	<path class="st1" d="M127.3,54.4H73.7L71,61.9c-0.8,2.1-2.8,3.6-5,3.6c-0.6,0-1.2-0.1-1.8-0.3c-1.3-0.5-2.4-1.5-3-2.8
		c-0.6-1.3-0.7-2.8-0.2-4.1l1.4-3.9H2.7C1.7,54.4,1,55.1,1,56v9.6c0,0.9,0.7,1.7,1.7,1.7h124.7c0.9,0,1.7-0.7,1.7-1.7V56
		C129,55.1,128.3,54.4,127.3,54.4z"/>
	<path class="st1" d="M66,64.8c-0.5,0-1.1-0.1-1.6-0.3c-2.4-0.9-3.7-3.6-2.8-6l16.7-46.7c0.9-2.4,3.5-3.7,6-2.8
		c2.4,0.9,3.7,3.6,2.8,6L70.4,61.7C69.7,63.6,67.9,64.8,66,64.8z"/>
</g>
</svg>
