<?xml version="1.0" encoding="utf-8"?>
<!-- Generator: Adobe Illustrator 19.2.1, SVG Export Plug-In . SVG Version: 6.00 Build 0)  -->
<svg version="1.1" id="Layer_1" xmlns="http://www.w3.org/2000/svg" xmlns:xlink="http://www.w3.org/1999/xlink" x="0px" y="0px"
	 viewBox="0 0 130 130" style="enable-background:new 0 0 130 130;" xml:space="preserve">
<style type="text/css">
	.st0{fill:none;}
	.st1{fill:#4D4D4D;}
</style>
<rect class="st0" width="130" height="130"/>
<g>
	<g>
		<path class="st1" d="M66,65.3c-0.6,0-1.2-0.1-1.8-0.3c-1.3-0.5-2.4-1.5-3-2.8c-0.6-1.3-0.7-2.8-0.2-4.1l16.7-46.7
			c0.8-2.1,2.8-3.6,5-3.6c0.2,0,0.5,0,0.7,0.1c-0.1,0-0.2-0.1-0.2-0.1c-3.1-1.1-6.4,0.5-7.5,3.6L58.9,58.1c-1.1,3.1,0.5,6.4,3.6,7.5
			c0.6,0.2,1.3,0.3,2,0.3c1,0,2-0.3,2.9-0.8C66.9,65.3,66.5,65.3,66,65.3z"/>
		<g>
			<polygon class="st1" points="76.1,47.5 116.6,47.5 125.4,53.9 73.8,53.9 73.4,55.1 128.3,55.1 128.2,54.5 116.9,46.3 76.5,46.3 
							"/>
			<polygon class="st1" points="62.5,53.9 4.6,53.9 13.5,47.5 64.7,47.5 65.2,46.3 13.1,46.3 1.6,54.6 2.2,55.1 62,55.1 			"/>
		</g>
		<path class="st1" d="M127.3,54.2H73.7L71,61.8c-0.8,2.1-2.8,3.6-5,3.6c-0.6,0-1.2-0.1-1.8-0.3c-1.3-0.5-2.4-1.5-3-2.8
			c-0.6-1.3-0.7-2.8-0.2-4.1l1.4-3.9H2.7C1.7,54.2,1,55,1,55.9v9.6c0,0.9,0.7,1.7,1.7,1.7h124.7c0.9,0,1.7-0.7,1.7-1.7v-9.6
			C129,55,128.3,54.2,127.3,54.2z"/>
		<path class="st1" d="M66,64.7c-0.5,0-1.1-0.1-1.6-0.3c-2.4-0.9-3.7-3.6-2.8-6l16.7-46.7c0.9-2.4,3.5-3.7,6-2.8
			c2.4,0.9,3.7,3.6,2.8,6L70.4,61.6C69.7,63.5,67.9,64.7,66,64.7z"/>
	</g>
	<g>
		<path class="st1" d="M88.4,115.3c-0.4,0.2-0.8,0.4-1.2,0.4c-0.1,0-0.1,0-0.2,0c-1.3-0.1-2.2-1.2-2.1-2.5l1.1-12.8
			c0.1-1.3,1.2-2.3,2.5-2.1c0.4,0,0.7,0.1,1,0.3c1.8-3.2,4.4-5.8,7.6-7.6c-0.3-0.5-0.5-1-0.4-1.7l1.7-14.1c0.2-1.3,1.3-2.2,2.6-2.1
			c1.3,0.2,2.2,1.3,2,2.6l-1.6,13.5c1.6-0.4,3.2-0.7,4.9-0.7l2.1-13.4c0.2-1.3,1.4-2.1,2.7-2c1.3,0.2,2.2,1.4,1.9,2.7L110.9,89
			c2.7,0.6,5.2,1.8,7.4,3.5l4.1-26.4c0.3-1.8-1-3.3-2.8-3.3H70.5c-1,1.6-2.6,2.6-4.5,2.6c-0.6,0-1.2-0.1-1.8-0.3
			c-1.2-0.4-2.1-1.2-2.7-2.3H11.3c-1.8,0-3.1,1.5-2.8,3.3l8.3,52.9c0.3,1.8,2,3.3,3.9,3.3h72.4C91.1,120.3,89.5,117.9,88.4,115.3z
			 M88.3,75.3c0.1-1.3,1.2-2.3,2.5-2.1c1.3,0.1,2.2,1.2,2.1,2.5l-1.2,14.1c-0.1,1.2-1.1,2.1-2.3,2.1c-0.1,0-0.1,0-0.2,0
			c-1.3-0.1-2.3-1.2-2.1-2.5L88.3,75.3z M20.3,89.9l-2.2-14.1c-0.2-1.3,0.7-2.5,2-2.7c1.3-0.2,2.5,0.7,2.7,2l2.2,14.1
			c0.2,1.3-0.7,2.5-2,2.7c-0.1,0-0.2,0-0.4,0C21.5,91.9,20.5,91.1,20.3,89.9z M27,115.7c-0.1,0-0.2,0-0.4,0c-1.1,0-2.1-0.8-2.3-2
			l-2-12.8c-0.2-1.3,0.7-2.5,2-2.7c1.3-0.2,2.5,0.7,2.7,2l2,12.8C29.1,114.3,28.3,115.5,27,115.7z M29.8,89.9l-1.7-14.1
			c-0.2-1.3,0.8-2.5,2-2.6c1.3-0.1,2.5,0.8,2.6,2.1l1.7,14.1c0.2,1.3-0.8,2.5-2,2.6c-0.1,0-0.2,0-0.3,0C31,91.9,30,91,29.8,89.9z
			 M35.5,115.7c-0.1,0-0.2,0-0.3,0c-1.2,0-2.2-0.9-2.3-2.1l-1.6-12.8c-0.2-1.3,0.8-2.5,2-2.6c1.3-0.2,2.5,0.8,2.6,2l1.6,12.8
			C37.7,114.4,36.8,115.5,35.5,115.7z M39.4,89.8l-1.2-14.1c-0.1-1.3,0.8-2.4,2.1-2.5c1.3-0.1,2.4,0.8,2.5,2.1L44,89.4
			c0.1,1.3-0.8,2.4-2.1,2.5c-0.1,0-0.1,0-0.2,0C40.5,91.9,39.5,91,39.4,89.8z M44.1,115.7c-0.1,0-0.1,0-0.2,0
			c-1.2,0-2.2-0.9-2.3-2.1l-1.1-12.8c-0.1-1.3,0.8-2.4,2.1-2.5c1.3-0.1,2.4,0.8,2.5,2.1l1.1,12.8C46.4,114.5,45.4,115.6,44.1,115.7z
			 M48.1,75.6c-0.1-1.3,0.9-2.4,2.2-2.5c1.3-0.1,2.4,0.9,2.5,2.2l0.7,14.1c0.1,1.3-0.9,2.4-2.2,2.5c0,0-0.1,0-0.1,0
			c-1.2,0-2.3-1-2.3-2.2L48.1,75.6z M52.7,115.7c0,0-0.1,0-0.1,0c-1.2,0-2.3-1-2.3-2.2l-0.7-12.8c-0.1-1.3,0.9-2.4,2.2-2.5
			c1.3-0.1,2.4,0.9,2.5,2.2l0.7,12.8C55,114.5,54,115.6,52.7,115.7z M58.2,75.5c0-1.3,1-2.4,2.3-2.4c1.3,0,2.4,1,2.4,2.3l0.2,14.1
			c0,1.3-1,2.4-2.3,2.4c0,0,0,0,0,0c-1.3,0-2.3-1-2.3-2.3L58.2,75.5z M61.3,115.7C61.2,115.7,61.2,115.7,61.3,115.7
			c-1.3,0-2.4-1-2.4-2.3l-0.2-12.8c0-1.3,1-2.4,2.3-2.4c0,0,0,0,0,0c1.3,0,2.3,1,2.3,2.3l0.2,12.8C63.6,114.6,62.5,115.7,61.3,115.7
			z M72.2,113.4c0,1.3-1.1,2.3-2.3,2.3c0,0,0,0,0,0c-1.3,0-2.3-1.1-2.3-2.4l0.2-12.8c0-1.3,1.1-2.3,2.3-2.3c0,0,0,0,0,0
			c1.3,0,2.3,1.1,2.3,2.4L72.2,113.4z M72.7,89.6c0,1.3-1.1,2.3-2.3,2.3c0,0,0,0,0,0c-1.3,0-2.3-1.1-2.3-2.4l0.2-14.1
			c0-1.3,1.1-2.4,2.4-2.3c1.3,0,2.3,1.1,2.3,2.4L72.7,89.6z M80.9,113.5c-0.1,1.3-1.1,2.2-2.3,2.2c0,0-0.1,0-0.1,0
			c-1.3-0.1-2.3-1.2-2.2-2.5l0.7-12.8c0.1-1.3,1.1-2.3,2.5-2.2c1.3,0.1,2.3,1.2,2.2,2.5L80.9,113.5z M82.2,89.7
			c-0.1,1.2-1.1,2.2-2.3,2.2c0,0-0.1,0-0.1,0c-1.3-0.1-2.3-1.2-2.2-2.5l0.7-14.1c0.1-1.3,1.1-2.3,2.5-2.2c1.3,0.1,2.3,1.2,2.2,2.5
			L82.2,89.7z"/>
		<path class="st1" d="M106.5,93.6c-8,0-14.4,6.5-14.4,14.4c0,7.9,6.5,14.4,14.4,14.4c8,0,14.4-6.5,14.4-14.4
			C121,100.1,114.5,93.6,106.5,93.6z M112,109h-4.5v4.5c0,0.6-0.6,1.1-1.1,1.1c-0.6,0-1.1-0.5-1.1-1.1V109h-4.5
			c-0.6,0-1.1-0.6-1.1-1.1c0-0.6,0.6-1.1,1.1-1.1h4.5v-4.5c0-0.6,0.6-1.1,1.1-1.1c0.6,0,1.1,0.6,1.1,1.1v4.5h4.5
			c0.6,0,1.1,0.6,1.1,1.1C113.1,108.5,112.6,109,112,109z"/>
	</g>
</g>
</svg>
