<?xml version="1.0" encoding="utf-8"?>
<!-- Generator: Adobe Illustrator 19.2.1, SVG Export Plug-In . SVG Version: 6.00 Build 0)  -->
<svg version="1.1" id="Layer_1" xmlns="http://www.w3.org/2000/svg" xmlns:xlink="http://www.w3.org/1999/xlink" x="0px" y="0px"
	 viewBox="0 0 130 130" style="enable-background:new 0 0 130 130;" xml:space="preserve">
<style type="text/css">
	.st0{fill:none;}
	.st1{fill:#4D4D4D;}
</style>
<rect class="st0" width="130" height="130"/>
<g>
	<path class="st1" d="M122.8,44h-7.6v-5.4c0-6.8-5.6-12.3-12.4-12.3H13.4C6.6,26.3,1,31.8,1,38.6v52.9c0,6.8,5.6,12.3,12.4,12.3
		h89.4c6.8,0,12.4-5.5,12.4-12.3V86h7.6c3.4,0,6.2-2.8,6.2-6.2V50.2C129,46.8,126.2,44,122.8,44z M101.6,88.1c0,3.4-2.8,6.2-6.2,6.2
		H17.7c-3.4,0-6.1-2.8-6.1-6.2V41.9c0-3.4,2.8-6.2,6.1-6.2h77.7c3.4,0,6.2,2.8,6.2,6.2L101.6,88.1L101.6,88.1z"/>
	<path class="st1" d="M56.3,46.2H45.7c-2,0-3.7,1.7-3.7,3.7v30.2c0,2,1.7,3.7,3.7,3.7h10.6c2.1,0,3.7-1.7,3.7-3.7V49.9
		C60,47.8,58.3,46.2,56.3,46.2z"/>
	<path class="st1" d="M78.2,46.2H67.7c-2,0-3.7,1.7-3.7,3.7v30.2c0,2,1.7,3.7,3.7,3.7h10.6c2.1,0,3.7-1.7,3.7-3.7V49.9
		C81.9,47.8,80.3,46.2,78.2,46.2z"/>
	<path class="st1" d="M34.3,46.2H23.8c-2,0-3.7,1.7-3.7,3.7v30.2c0,2,1.7,3.7,3.7,3.7h10.6c2.1,0,3.7-1.7,3.7-3.7V49.9
		C38.1,47.8,36.4,46.2,34.3,46.2z"/>
</g>
</svg>
