<?xml version="1.0" encoding="utf-8"?>
<!-- Generator: Adobe Illustrator 19.2.1, SVG Export Plug-In . SVG Version: 6.00 Build 0)  -->
<svg version="1.1" id="Layer_1" xmlns="http://www.w3.org/2000/svg" xmlns:xlink="http://www.w3.org/1999/xlink" x="0px" y="0px"
	 viewBox="0 0 130 130" style="enable-background:new 0 0 130 130;" xml:space="preserve">
<style type="text/css">
	.st0{fill:none;}
	.st1{fill:#4D4D4D;}
</style>
<rect class="st0" width="130" height="130"/>
<g id="Shape_153_2_">
	<path class="st1" d="M84.2,33H58.6c-7.1,0-12.8,5.7-12.8,12.8c0,7.1,5.7,12.8,12.8,12.8h25.6C90.1,58.6,97,68.4,97,81
		c0,12.3-11.5,22.4-25.6,22.4H58.6C44.5,103.4,33,91.9,33,77.8v-64C33,6.7,27.3,1,20.2,1S7.4,6.7,7.4,13.8v64
		c0,28.2,23,51.2,51.2,51.2h12.8c28.2,0,51.2-21.5,51.2-48C122.6,54.5,105.4,33,84.2,33z"/>
</g>
</svg>
