<?xml version="1.0" encoding="utf-8"?>
<!-- Generator: Adobe Illustrator 19.2.1, SVG Export Plug-In . SVG Version: 6.00 Build 0)  -->
<svg version="1.1" id="Layer_1" xmlns="http://www.w3.org/2000/svg" xmlns:xlink="http://www.w3.org/1999/xlink" x="0px" y="0px"
	 viewBox="0 0 130 130" style="enable-background:new 0 0 130 130;" xml:space="preserve">
<style type="text/css">
	.st0{fill:none;}
	.st1{fill:#4C4C4C;}
</style>
<rect class="st0" width="130" height="130"/>
<g id="Shape_21_copy_2_">
	<path class="st1" d="M54,62.1c2.7-1.4,4.7-2.9,6.1-4.5c2.5-3,3.7-6.8,3.7-11.7c0-4.7-1.2-8.8-3.6-12.2c-4.1-5.5-10.9-8.3-20.6-8.5
		H1v79.6h35.9c4,0,7.8-0.4,11.2-1.1c3.5-0.7,6.5-2,9-4c2.3-1.7,4.1-3.8,5.6-6.2c2.4-3.7,3.5-8,3.5-12.7c0-4.6-1-8.5-3.1-11.7
		C61.1,65.9,58,63.6,54,62.1z M19.4,39h14.8c3.8,0,6.9,0.4,9.4,1.2c2.9,1.2,4.3,3.6,4.3,7.3c0,3.3-1.1,5.7-3.2,7c-2.2,1.3-5,2-8.4,2
		H19.4V39z M44.3,89.6c-1.9,0.9-4.6,1.4-8.1,1.4H19.4V69.8h17.1c3.4,0,6.1,0.5,8,1.3c3.4,1.5,5.1,4.4,5.1,8.5
		C49.5,84.5,47.7,87.8,44.3,89.6z M128.5,66.7c-0.7-4.5-2.2-8.4-4.5-11.8c-2.6-3.8-5.9-6.7-9.9-8.4c-4-1.8-8.5-2.7-13.4-2.7
		c-8.4,0-15.2,2.6-20.4,7.9C75,57,72.4,64.5,72.4,74.4c0,10.5,2.9,18.2,8.7,22.8c5.8,4.7,12.5,7,20.1,7c9.2,0,16.3-2.8,21.5-8.3
		c3.3-3.5,5.1-6.9,5.5-10.3H113c-0.9,1.7-1.9,3-3.1,3.9c-2.1,1.8-4.9,2.6-8.3,2.6c-3.2,0-6-0.7-8.2-2.1c-3.7-2.3-5.7-6.3-6-12H129
		C129.1,73.1,128.9,69.3,128.5,66.7z M87.8,68.2c0.5-3.7,1.9-6.7,4-8.8c2.1-2.2,5.1-3.3,8.9-3.3c3.5,0,6.5,1,8.8,3.1
		c2.4,2,3.7,5.1,4,9H87.8z M116.6,28.5H84.5v8h32.1L116.6,28.5L116.6,28.5z"/>
</g>
</svg>
