<?xml version="1.0" encoding="utf-8"?>
<!-- Generator: Adobe Illustrator 19.2.1, SVG Export Plug-In . SVG Version: 6.00 Build 0)  -->
<svg version="1.1" id="Layer_1" xmlns="http://www.w3.org/2000/svg" xmlns:xlink="http://www.w3.org/1999/xlink" x="0px" y="0px"
	 viewBox="0 0 130 130" style="enable-background:new 0 0 130 130;" xml:space="preserve">
<style type="text/css">
	.st0{fill:none;}
	.st1{fill:#4D4D4D;}
</style>
<rect class="st0" width="130" height="130"/>
<g>
	<g>
		<path class="st1" d="M63.5,87.7c-4.4,0-8-3.6-8-8s3.6-8,8-8s8,3.6,8,8S67.9,87.7,63.5,87.7z M63.5,74c-3.1,0-5.7,2.6-5.7,5.7
			s2.6,5.7,5.7,5.7c3.1,0,5.7-2.6,5.7-5.7S66.7,74,63.5,74z"/>
	</g>
	<g>
		<path class="st1" d="M63.4,80.9c-0.1,0-0.2,0-0.3,0c-0.4-0.1-0.6-0.5-0.5-0.8L65.8,69c0.1-0.4,0.5-0.6,0.8-0.5
			c0.4,0.1,0.6,0.5,0.5,0.8l-3.2,11.1C63.8,80.7,63.6,80.9,63.4,80.9z"/>
	</g>
	<path class="st1" d="M70.7,69.6c0.1,0.3,0,0.5-0.3,0.4l-7.6-0.8c-0.3,0-0.4-0.2-0.2-0.5l0.4-0.6c0.2-0.2,0.6-0.4,0.9-0.4l5.7,0.6
		c0.3,0,0.7,0.3,0.8,0.5L70.7,69.6z"/>
	<path class="st1" d="M128.9,71.3c-2.3-8.4-10.7-14.3-20.4-14.3c-3.7,0-7.2,0.9-10.2,2.4l-4.9-9.1l1.9-1l2.9,5.4
		c0.2,0.4,0.5,0.8,0.9,0.9c0.2,0.1,0.4,0.1,0.6,0.1c0.2,0,0.4,0,0.7-0.1c0,0,2-0.9,4.1-1.8c1.2-0.5,2.1-1,2.8-1.3
		c1.6-0.7,2.1-1,2.2-2c0-0.2,0-0.3,0-0.5c0-0.7,0-4.1,0.1-7.2c0-0.4-0.2-0.9-0.5-1.2c-0.3-0.3-0.7-0.5-1.2-0.5H93.7
		c-0.5,0-1.1,0.3-1.4,0.7c-0.3,0.5-0.4,1-0.2,1.5l2.3,4.4l-2,1l-1.7-3.1c-3.5-6.3-1.7-10.4-1.6-10.6c0.1-0.2,0.1-0.4,0.1-0.6
		c0.2-0.3,0.3-0.6,0.3-0.9c0-1.1-0.9-1.9-1.9-1.9H77.1c-1.1,0-1.9,0.9-1.9,1.9c0,1.1,0.9,1.9,1.9,1.9h9.2c-0.4,2.1-0.6,5.9,1.9,10.8
		c-18.4-5.3-42,0.2-44.2,0.7l-3.7-6.6H47c1.6,0,2.9-1.3,2.9-2.9c0-1.6-1.3-2.9-2.9-2.9H29c-1.6,0-2.9,1.3-2.9,2.9
		c0,1.6,1.3,2.9,2.9,2.9h8l4.8,8.7l-8.1,11.2c-3.5-2.2-7.7-3.5-12.3-3.5c-9.7,0-18.1,5.9-20.4,14.3c-0.2,0.8,0.2,1.6,1,1.8
		c0.4,0.1,0.7,0,1-0.1c-0.6,1.9-0.9,3.9-0.9,5.9c0,10.7,8.7,19.3,19.3,19.3c10,0,18.2-7.6,19.2-17.4h16.1c-0.1-0.4-0.1-0.8-0.1-1.2
		c0-0.6,0.1-1.1,0.2-1.6H40.8c-0.1-1.8-0.4-3.5-0.9-5.1c0.2,0.1,0.4,0.2,0.6,0.2c0.1,0,0.3,0,0.4-0.1c0.8-0.2,1.2-1,1-1.8
		c-1-3.6-3.1-6.7-5.9-9.1L43.4,52L57.2,77c0.4-1,1-1.8,1.8-2.5L45.3,49.7c4.8-1.1,27.8-5.6,44.3,0.1c0.1,0,0.2,0,0.3,0l1.9,3.5
		L67.4,74.1c0.8,0.5,1.4,1.2,1.9,2l23.9-20.2l2.6,4.8c-3.8,2.5-6.6,6.2-7.8,10.6c-0.2,0.8,0.2,1.6,1,1.8c0.1,0,0.3,0.1,0.4,0.1
		c0.2,0,0.5-0.1,0.7-0.2c-0.6,1.9-1,3.9-1,6c0,10.7,8.7,19.3,19.3,19.3c10.7,0,19.3-8.7,19.3-19.3c0-2.1-0.3-4-0.9-5.9
		c0.3,0.1,0.6,0.2,0.9,0.1C128.7,72.9,129.2,72.1,128.9,71.3z M21.5,94.3c-8.5,0-15.4-6.9-15.4-15.4S13,63.5,21.5,63.5
		c3.1,0,5.9,0.9,8.3,2.4l-6.6,9c-0.5-0.2-1.1-0.4-1.7-0.4c-2.4,0-4.3,1.9-4.3,4.3c0,2.4,1.9,4.3,4.3,4.3c1.7,0,3.1-1,3.8-2.4h11.4
		C35.8,88.5,29.3,94.3,21.5,94.3z M36.9,78.1H25.7c-0.1-0.4-0.2-0.8-0.5-1.2l6.7-9.2C34.8,70.3,36.7,74,36.9,78.1z M108.6,94.3
		c-8.5,0-15.4-6.9-15.4-15.4c0-5,2.4-9.4,6-12.2l8.9,16.3c0.3,0.5,0.7,0.7,1.2,0.7c0.2,0,0.5-0.1,0.7-0.2c0.7-0.4,0.9-1.2,0.6-1.9
		l-9-16.5c2.1-1.1,4.5-1.7,7.1-1.7c8.5,0,15.4,6.9,15.4,15.4S117.1,94.3,108.6,94.3z"/>
</g>
</svg>
