<?xml version="1.0" encoding="utf-8"?>
<!-- Generator: Adobe Illustrator 19.2.1, SVG Export Plug-In . SVG Version: 6.00 Build 0)  -->
<svg version="1.1" id="Layer_1" xmlns="http://www.w3.org/2000/svg" xmlns:xlink="http://www.w3.org/1999/xlink" x="0px" y="0px"
	 viewBox="0 0 130 130" style="enable-background:new 0 0 130 130;" xml:space="preserve">
<style type="text/css">
	.st0{fill:none;}
	.st1{fill:#4C4C4C;}
</style>
<rect class="st0" width="130" height="130"/>
<g id="Shape_9_2_">
	<path class="st1" d="M128.4,54.2l-1.1-2.2l-1.8-1.4c-2.4-1.8-14.2,0.1-17.4-2.8c-2.3-2.1-2.6-5.8-3.3-10.9
		c-1.3-9.9-2.1-10.4-3.6-13.7C95.5,11.2,80.4,2.2,69.9,1H41.6C19.4,1,1.2,19.2,1.2,41.5v47.2c0,22.2,18.2,40.4,40.4,40.4h46.4
		c22.2,0,40.3-18.2,40.4-40.4l0.3-32.7L128.4,54.2z M42.2,34h22.4c4.3,0,7.7,3.5,7.7,7.7c0,4.2-3.5,7.7-7.7,7.7H42.2
		c-4.3,0-7.7-3.5-7.7-7.7C34.4,37.5,37.9,34,42.2,34z M87.7,95.7H42.2c-4.3,0-7.7-3.5-7.7-7.7c0-4.2,3.5-7.7,7.7-7.7h45.5
		c4.2,0,7.7,3.4,7.7,7.7C95.4,92.2,91.9,95.7,87.7,95.7z"/>
</g>
</svg>
