<?xml version="1.0" encoding="utf-8"?>
<!-- Generator: Adobe Illustrator 19.2.1, SVG Export Plug-In . SVG Version: 6.00 Build 0)  -->
<svg version="1.1" id="Layer_1" xmlns="http://www.w3.org/2000/svg" xmlns:xlink="http://www.w3.org/1999/xlink" x="0px" y="0px"
	 viewBox="0 0 130 130" style="enable-background:new 0 0 130 130;" xml:space="preserve">
<style type="text/css">
	.st0{fill:none;}
	.st1{fill:#4D4D4D;}
</style>
<rect class="st0" width="130" height="130"/>
<path class="st1" d="M70.6,65l23.6-23.6c0.7-0.7,1.1-1.7,1.1-2.6c0-1-0.4-1.9-1.1-2.6L69.3,11.2V4.7c0-2.1-1.7-3.7-3.7-3.7
	c-2.1,0-3.7,1.7-3.7,3.7v52.3L41.1,36.4c-1.5-1.5-3.8-1.5-5.3,0c-1.5,1.5-1.5,3.8,0,5.3L59.1,65L35.8,88.3c-1.5,1.5-1.5,3.8,0,5.3
	c0.7,0.7,1.7,1.1,2.6,1.1c1,0,1.9-0.4,2.6-1.1L61.8,73v52.3c0,2.1,1.7,3.7,3.7,3.7c2.1,0,3.7-1.7,3.7-3.7v-6.5l24.9-24.9
	c0.7-0.7,1.1-1.7,1.1-2.6c0-1-0.4-1.9-1.1-2.6L70.6,65z M69.3,21.8l17,17l-17,17V21.8z M69.3,108.2V74.2l17,17L69.3,108.2z"/>
</svg>
