<?xml version="1.0" encoding="utf-8"?>
<!-- Generator: Adobe Illustrator 19.2.1, SVG Export Plug-In . SVG Version: 6.00 Build 0)  -->
<svg version="1.1" id="Layer_1" xmlns="http://www.w3.org/2000/svg" xmlns:xlink="http://www.w3.org/1999/xlink" x="0px" y="0px"
	 viewBox="0 0 130 130" style="enable-background:new 0 0 130 130;" xml:space="preserve">
<style type="text/css">
	.st0{fill:none;}
	.st1{fill:#4D4D4D;}
	.st2{fill:#FFFFFF;}
</style>
<rect class="st0" width="130" height="130"/>
<g>
	<path class="st1" d="M113.2,67.1H16.8c-0.9,0-1.7,0.7-1.7,1.7v58.6c0,0.9,0.7,1.7,1.7,1.7h96.4c0.9,0,1.7-0.7,1.7-1.7V68.7
		C114.9,67.8,114.1,67.1,113.2,67.1z"/>
	<path class="st1" d="M121.5,39.7H8.5c-0.9,0-1.7,0.7-1.7,1.7v22.2c0,0.9,0.7,1.7,1.7,1.7h113c0.9,0,1.7-0.7,1.7-1.7V41.3
		C123.2,40.4,122.4,39.7,121.5,39.7z"/>
	<g>
		<path class="st1" d="M88.2,7.8c-1.6-1-3.2-1.5-4.9-1.5c-8.8,0-14.1,14.8-16.8,24.8C61.9,19.8,52.5,1,41.4,1
			c-2.2,0-4.2,0.7-6.2,2.1c-4.7,3.3-6.4,8.1-4.7,13.5c2.8,9.1,15.2,18.9,26,23.4h14.6c0.3-0.3,0.7-0.5,1.1-0.8
			c10.1-7.4,20.9-16.1,20.6-24C92.8,13.1,91.9,10.2,88.2,7.8z M35.3,15c-1-3.3-0.1-5.8,2.8-7.9C39.2,6.4,40.3,6,41.4,6
			c7.8,0,17.1,17.7,22,30.9C53.6,34.8,38.1,24.1,35.3,15z M71.1,33.7c2.7-10.7,7.5-22.4,12.3-22.4c0.7,0,1.4,0.2,2.2,0.7
			c2,1.3,2.3,2.4,2.3,3.2C88,20.7,77.3,29.1,71.1,33.7z"/>
	</g>
	<g>
		<rect x="54.6" y="39.7" class="st2" width="18.7" height="89.3"/>
	</g>
</g>
</svg>
