<?xml version="1.0" encoding="utf-8"?>
<!-- Generator: Adobe Illustrator 19.2.1, SVG Export Plug-In . SVG Version: 6.00 Build 0)  -->
<svg version="1.1" id="Layer_1" xmlns="http://www.w3.org/2000/svg" xmlns:xlink="http://www.w3.org/1999/xlink" x="0px" y="0px"
	 viewBox="0 0 130 130" style="enable-background:new 0 0 130 130;" xml:space="preserve">
<style type="text/css">
	.st0{fill:none;}
	.st1{fill:#4D4D4D;}
</style>
<rect class="st0" width="130" height="130"/>
<g>
	<path class="st1" d="M8.7,45.2v72.2h112.7V45.2H8.7z M79.4,65.4H50.6c-1.7,0-3-1.3-3-3c0-1.7,1.3-3,3-3h28.7c1.7,0,3,1.3,3,3
		C82.3,64.1,81,65.4,79.4,65.4z"/>
	<path class="st1" d="M4.2,12.6C2.4,12.6,1,14,1,15.8v22.9c0,1.8,1.4,3.2,3.2,3.2h121.6c1.8,0,3.2-1.4,3.2-3.2V15.8
		c0-1.8-1.4-3.2-3.2-3.2L4.2,12.6L4.2,12.6z"/>
</g>
</svg>
