<?xml version="1.0" encoding="utf-8"?>
<!-- Generator: Adobe Illustrator 19.2.1, SVG Export Plug-In . SVG Version: 6.00 Build 0)  -->
<svg version="1.1" id="Layer_1" xmlns="http://www.w3.org/2000/svg" xmlns:xlink="http://www.w3.org/1999/xlink" x="0px" y="0px"
	 viewBox="0 0 130 130" style="enable-background:new 0 0 130 130;" xml:space="preserve">
<style type="text/css">
	.st0{fill:none;}
	.st1{fill:#4D4D4D;}
	.st2{fill:#FFFFFF;}
</style>
<rect class="st0" width="130" height="130"/>
<g>
	<g>
		<path class="st1" d="M1,39.9v77.1c0,1.6,1.3,2.9,2.9,2.9h122.2c1.6,0,2.9-1.3,2.9-2.9V39.9C129,39.5,1,39.5,1,39.9z"/>
	</g>
	<g>
		<path class="st1" d="M118.2,12c-0.4-1.1-1.5-1.8-2.7-1.8H14.6c-1.2,0-2.3,0.7-2.7,1.8L1,39.9c-0.1,0.3,128.1,0.3,128,0L118.2,12z"
			/>
	</g>
	<g>
		<polygon class="st2" points="83.3,39.9 49,39.9 49,71.9 66.1,63.6 83.3,71.9 		"/>
	</g>
	<g>
		<polygon class="st2" points="76.1,10.2 56.2,10.2 49,39.9 83.3,39.9 		"/>
	</g>
</g>
</svg>
