<?xml version="1.0" encoding="utf-8"?>
<!-- Generator: Adobe Illustrator 19.2.1, SVG Export Plug-In . SVG Version: 6.00 Build 0)  -->
<svg version="1.1" id="Layer_1" xmlns="http://www.w3.org/2000/svg" xmlns:xlink="http://www.w3.org/1999/xlink" x="0px" y="0px"
	 viewBox="0 0 130 130" style="enable-background:new 0 0 130 130;" xml:space="preserve">
<style type="text/css">
	.st0{fill:none;}
	.st1{fill:#4D4D4D;}
</style>
<rect class="st0" width="130" height="130"/>
<g>
	<path class="st1" d="M121.9,97.2H8.1c-0.8,0-1.5-0.1-2.2-0.3v4.9h117.4V97C122.9,97.1,122.4,97.2,121.9,97.2z"/>
	<g>
		<path class="st1" d="M122.8,81.2c-0.6,2.6-2.3,5.8-5.4,9.7c-1,1.3-2.1,1.9-3.4,1.9c-2.4,0-4.5-2.3-6.3-4.1
			c-0.4-0.4-0.7-0.8-1.1-1.1c-0.7-0.7-1.3-1.3-1.8-1.8c-1.4-1.5-1.8-1.9-2.9-1.9c-0.7,0-1.7,0.2-3.3,0.8c-2.2,0.8-3.5,2.5-4.9,4.3
			c-1.5,2-3.1,4-5.7,4.8c-0.7,0.2-1.5,0.3-2.2,0.3c-3.5,0-6.2-2.5-8.7-5c-0.8-0.7-1.5-1.4-2.2-2c-3.6-3.1-6.9-4.6-9.9-4.6
			c-1.3,0-2.5,0.3-3.7,0.9c-1.6,0.8-2.5,2.4-3.4,3.9c-1.4,2.2-2.8,4.5-6.1,4.5c-0.3,0-0.6,0-1-0.1c-2.5-0.3-5.4-2.2-8.5-4.3
			c-3.4-2.3-6.9-4.6-9.8-4.6c-2.1,0-3.7,1.3-4.9,4c-1.7,3.6-3.5,5.9-7.6,5.9c-1,0-2.2-0.1-3.6-0.4c-5.6-1.2-6.6-5.7-7.6-10.2
			c-0.1-0.4-0.2-0.7-0.2-1.1H8.1c-3.9,0-7.1,3-7.1,6.7v2c0,3.7,3.2,6.6,7.1,6.6h113.8c3.9,0,7.1-3,7.1-6.6v-2
			C129,84.4,126.3,81.6,122.8,81.2z"/>
	</g>
	<g>
		<path class="st1" d="M122,77.7c-0.3-0.9-0.7-1.7-1-2.5h-0.1H9.1H8.8c-0.6,1.8,0,3.2,0.3,4.4c1.3,5.2,1.5,10.7,7.6,12
			c1.3,0.3,2.5,0.4,3.5,0.4c3.4,0,5.1-1.7,6.9-5.4c1.5-3.2,3.4-4.4,5.6-4.4c5.8,0,13.2,8.2,18.3,8.9c0.3,0,0.6,0.1,0.9,0.1
			c5.1,0,5.1-6.2,9.2-8.4c1.3-0.7,2.7-1,4.1-1c3.8,0,7.6,2.4,10.4,4.8c3.2,2.7,6.3,6.9,10.4,6.9c0.6,0,1.3-0.1,2-0.3
			c4.8-1.5,5.8-7.5,10.6-9.2c1.6-0.6,2.7-0.8,3.5-0.8c1.9,0,2.6,1.4,5.2,4c1.9,1.8,4.3,4.9,6.8,4.9c0.9,0,1.9-0.5,2.8-1.6
			C119.9,86.6,123.4,81.3,122,77.7z"/>
	</g>
	<g>
		<rect x="8.7" y="65.2" class="st1" width="112.5" height="9.2"/>
	</g>
	<g>
		<path class="st1" d="M6.3,102.3L6.3,102.3l0,3.8c0,4.2,3.5,7.7,7.7,7.7h101.3c4.2,0,7.7-3.5,7.7-7.7v-3.8H6.3z"/>
	</g>
	<path class="st1" d="M65,16.2c-30.5,0-55.7,21-60.1,48.3h120.1C120.7,37.1,95.5,16.2,65,16.2z M18.5,51.9c-1,0-1.8-0.8-1.8-1.8
		c0-1,0.8-1.8,1.8-1.8s1.8,0.8,1.8,1.8C20.2,51.1,19.5,51.9,18.5,51.9z M26.5,39.8c0-1,0.8-1.8,1.8-1.8s1.8,0.8,1.8,1.8
		c0,1-0.8,1.8-1.8,1.8S26.5,40.8,26.5,39.8z M31.2,58.4c-1,0-1.8-0.8-1.8-1.8c0-1,0.8-1.8,1.8-1.8c1,0,1.8,0.8,1.8,1.8
		C33,57.6,32.2,58.4,31.2,58.4z M41.4,50.4c-1,0-1.8-0.8-1.8-1.8c0-1,0.8-1.8,1.8-1.8c1,0,1.8,0.8,1.8,1.8
		C43.2,49.6,42.4,50.4,41.4,50.4z M42.4,32.1c-1,0-1.8-0.8-1.8-1.8c0-1,0.8-1.8,1.8-1.8c1,0,1.8,0.8,1.8,1.8
		C44.2,31.3,43.4,32.1,42.4,32.1z M56.5,21.1c0-1,0.8-1.8,1.8-1.8c1,0,1.8,0.8,1.8,1.8c0,1-0.8,1.8-1.8,1.8
		C57.3,22.9,56.5,22.1,56.5,21.1z M59.1,38.4c-1,0-1.8-0.8-1.8-1.8c0-1,0.8-1.8,1.8-1.8c1,0,1.8,0.8,1.8,1.8
		C60.9,37.6,60.1,38.4,59.1,38.4z M64,56.8c-1,0-1.8-0.8-1.8-1.8c0-1,0.8-1.8,1.8-1.8c1,0,1.8,0.8,1.8,1.8C65.8,56,65,56.8,64,56.8z
		 M70.6,27.8c-1,0-1.8-0.8-1.8-1.8c0-1,0.8-1.8,1.8-1.8c1,0,1.8,0.8,1.8,1.8C72.3,27,71.5,27.8,70.6,27.8z M75.5,43.7
		c-1,0-1.8-0.8-1.8-1.8c0-1,0.8-1.8,1.8-1.8c1,0,1.8,0.8,1.8,1.8C77.2,42.9,76.4,43.7,75.5,43.7z M83.6,30.1c-1,0-1.8-0.8-1.8-1.8
		c0-1,0.8-1.8,1.8-1.8c1,0,1.8,0.8,1.8,1.8C85.4,29.3,84.6,30.1,83.6,30.1z M90.3,57.6c-1,0-1.8-0.8-1.8-1.8c0-1,0.8-1.8,1.8-1.8
		c1,0,1.8,0.8,1.8,1.8C92.1,56.8,91.3,57.6,90.3,57.6z M93.8,45.5c-1,0-1.8-0.8-1.8-1.8c0-1,0.8-1.8,1.8-1.8c1,0,1.8,0.8,1.8,1.8
		C95.6,44.7,94.8,45.5,93.8,45.5z M96.1,33c-1,0-1.8-0.8-1.8-1.8c0-1,0.8-1.8,1.8-1.8c1,0,1.8,0.8,1.8,1.8
		C97.9,32.2,97.1,33,96.1,33z M104,44.8c-1,0-1.8-0.8-1.8-1.8c0-1,0.8-1.8,1.8-1.8c1,0,1.8,0.8,1.8,1.8
		C105.7,44,104.9,44.8,104,44.8z M114.4,52c-1,0-1.8-0.8-1.8-1.8c0-1,0.8-1.8,1.8-1.8c1,0,1.8,0.8,1.8,1.8
		C116.2,51.2,115.4,52,114.4,52z"/>
</g>
</svg>
