<?xml version="1.0" encoding="utf-8"?>
<!-- Generator: Adobe Illustrator 19.2.1, SVG Export Plug-In . SVG Version: 6.00 Build 0)  -->
<svg version="1.1" id="Layer_1" xmlns="http://www.w3.org/2000/svg" xmlns:xlink="http://www.w3.org/1999/xlink" x="0px" y="0px"
	 viewBox="0 0 130 130" style="enable-background:new 0 0 130 130;" xml:space="preserve">
<style type="text/css">
	.st0{fill:none;}
	.st1{fill:#4D4D4D;}
</style>
<rect class="st0" width="130" height="130"/>
<path class="st1" d="M107.3,27.6c-0.6,0-1.3,0-1.9,0.1c0.8-2.1,1.3-4.3,1.3-6.7c0-9.8-7.9-17.7-17.7-17.7c-7.7,0-14.2,4.9-16.7,11.8
	C69.3,6.9,61.4,1,52.1,1c-11.9,0-21.6,9.7-21.6,21.6c0,0.9,0.1,1.8,0.2,2.6c-1.7-0.4-3.5-0.7-5.3-0.7c-12.8,0-23.2,11-23.2,24.6
	c0,9.2,4.8,17.2,11.9,21.4L25.8,129h8.9L24.1,70.1h7.5L42.2,129h4.5l-5.3-58.9h7.4l5.3,58.9h4.6V70.1H66V129h4.6l5.3-58.9h7.4
	L78,129h4.5L93,70.1h7.5L90,129h8.8l11.8-58.9c9.7-1.7,17.1-10.5,17.1-21.1C127.7,37.2,118.6,27.6,107.3,27.6z M17.5,61.1
	c-3.1,0-5.7-2.5-5.7-5.7s2.5-5.6,5.7-5.6c3.1,0,5.7,2.5,5.7,5.6S20.6,61.1,17.5,61.1z M48.8,39.4c-4.1,0-7.4-3.3-7.4-7.4
	s3.3-7.4,7.4-7.4c4.1,0,7.4,3.3,7.4,7.4S52.9,39.4,48.8,39.4z M72.9,28.3c0,0.1,0.1,0.1,0.1,0.2h-0.2C72.9,28.4,72.9,28.4,72.9,28.3
	z M70.1,57.7c-3.8,0-7-3.1-7-7c0-3.8,3.1-7,7-7c3.8,0,7,3.1,7,7C77.1,54.5,74,57.7,70.1,57.7z M90.6,28.1c-3.1,0-5.7-2.5-5.7-5.7
	c0-3.1,2.5-5.7,5.7-5.7c3.1,0,5.7,2.5,5.7,5.7C96.2,25.6,93.7,28.1,90.6,28.1z M109.3,63.8c-2.9,0-5.2-2.3-5.2-5.2
	c0-2.9,2.3-5.2,5.2-5.2c2.9,0,5.2,2.3,5.2,5.2C114.5,61.4,112.2,63.8,109.3,63.8z"/>
</svg>
