<?xml version="1.0" encoding="utf-8"?>
<!-- Generator: Adobe Illustrator 19.2.1, SVG Export Plug-In . SVG Version: 6.00 Build 0)  -->
<svg version="1.1" id="Layer_1" xmlns="http://www.w3.org/2000/svg" xmlns:xlink="http://www.w3.org/1999/xlink" x="0px" y="0px"
	 viewBox="0 0 130 130" style="enable-background:new 0 0 130 130;" xml:space="preserve">
<style type="text/css">
	.st0{fill:none;}
	.st1{fill:#4D4D4D;}
</style>
<rect class="st0" width="130" height="130"/>
<path class="st1" d="M17,1v128h96V1H17z M27.4,11.3h75.1v23.8H27.4V11.3z M41,120.4H27.4v-13.5H41V120.4z M41,100H27.4V86.4H41V100z
	 M41,79.5H27.4V65.9H41V79.5z M41,58.9H27.4V45.4H41V58.9z M61.5,120.4H48v-13.5h13.5V120.4z M61.5,100H48V86.4h13.5V100z
	 M61.5,79.5H48V65.9h13.5V79.5z M61.5,58.9H48V45.4h13.5V58.9z M82,120.4H68.5v-13.5H82V120.4z M82,100H68.5V86.4H82V100z M82,79.5
	H68.5V65.9H82V79.5z M82,58.9H68.5V45.4H82V58.9z M102.6,120.4H89v-34h13.5V120.4z M102.6,79.5H89V65.9h13.5V79.5z M102.6,58.9H89
	V45.4h13.5V58.9z"/>
</svg>
