<?xml version="1.0" encoding="utf-8"?>
<!-- Generator: Adobe Illustrator 19.2.1, SVG Export Plug-In . SVG Version: 6.00 Build 0)  -->
<svg version="1.1" id="Layer_1" xmlns="http://www.w3.org/2000/svg" xmlns:xlink="http://www.w3.org/1999/xlink" x="0px" y="0px"
	 viewBox="0 0 130 130" style="enable-background:new 0 0 130 130;" xml:space="preserve">
<style type="text/css">
	.st0{fill:none;}
	.st1{fill:#4D4D4D;}
</style>
<rect class="st0" width="130" height="130"/>
<g>
	<path class="st1" d="M30.9,1L30.9,1L30.9,1c-2.1,0.1-3.8,1.5-3.8,3.1V20c0,1.6,1.6,2.9,3.7,3l-0.3,0l0.3,0c2.3,0,4.1-1.4,4.1-3.1
		v-16C35,2.4,33.1,1,30.9,1z M53,1L53,1L53,1c-2.1,0.1-3.8,1.5-3.8,3.1V20c0,1.6,1.7,2.9,3.7,3l-0.3,0l0.3,0c2.3,0,4.1-1.4,4.1-3.1
		v-16C57.1,2.4,55.3,1,53,1z M76.7,1L76.7,1L76.7,1c-2.1,0.1-3.8,1.5-3.8,3.1V20c0,1.6,1.6,2.9,3.7,3l-0.3,0l0.3,0
		c2.3,0,4.1-1.4,4.1-3.1v-16C80.8,2.4,79,1,76.7,1z M98.8,1L98.8,1L98.8,1C96.7,1.1,95,2.5,95,4.1V20c0,1.6,1.6,2.9,3.7,3l-0.3,0
		l0.3,0c2.3,0,4.1-1.4,4.1-3.1v-16C102.9,2.4,101.1,1,98.8,1z"/>
	<path class="st1" d="M104.5,8.9v9c0.8,1.1,1.9,2.2,1.9,3.6c0,3.7-3,6.8-6.8,6.8c-3.8,0-6.8-3-6.8-6.8c0-1.6-0.4-3,0.6-4.2V9
		L82.4,8.9v8.8c0.8,1.1,1,2.4,1,3.8c0,3.7-3,6.8-6.8,6.8c-3.8,0-6.8-3-6.8-6.8c0-1.6,0.6-3.1,1.5-4.2V8.9L58.7,8.9v8.8
		c0.8,1.1,1.7,2.4,1.7,3.8c0,3.7-3,6.8-6.8,6.8c-3.8,0-6.8-3-6.8-6.8c0-1.6-0.1-3,0.9-4.2V8.9l-11.1,0v8.8c0.8,1.1,0.8,2.4,0.8,3.8
		c0,3.7-3.1,6.8-6.8,6.8s-6.8-3-6.8-6.8c0-1.6,0.6-3.1,1.5-4.2V8.9h-0.2C14.9,8.8,6.6,17,6.6,27l-0.1,83.7
		c0,10.1,8.2,18.2,18.4,18.2l80,0.1c10.2,0,18.4-8.1,18.4-18.2l0.1-83.5C123.5,17.2,115,9,104.5,8.9z M110.9,110.7
		c0,3.4-2.7,6.1-6.1,6.1l-79.7-0.1c-2.2,0-3.7-1.1-4.3-1.8c-0.7-0.7-1.8-2.1-1.8-4.3L19.1,47c0-3.4,2.8-6.1,6.1-6.1l79.7,0.1
		c2.2,0,3.7,1.1,4.3,1.8c0.7,0.7,1.8,2.1,1.8,4.3L110.9,110.7z"/>
	<path class="st1" d="M78.6,80.6c-1.7-2.1-3.9-3.4-6.6-4c4.6-2.5,6.9-5.9,6.9-10.2c0-3-1.1-5.7-3.4-8c-2.7-2.9-6.4-4.4-10.9-4.4
		c-2.6,0-5.1,0.5-7.2,1.5c-2.1,1-3.8,2.4-5,4.1c-1.2,1.8-2.1,4.1-2.7,7l8.5,1.4c0.2-2.1,0.9-3.7,2-4.8c1.1-1.1,2.5-1.6,4-1.6
		c1.6,0,2.9,0.5,3.8,1.5c1,1,1.5,2.3,1.5,3.9c0,1.9-0.7,3.4-2,4.6c-1.3,1.2-3.2,1.7-5.7,1.6l-1,7.5c1.6-0.4,3.1-0.7,4.3-0.7
		c1.8,0,3.3,0.7,4.6,2c1.2,1.4,1.9,3.2,1.9,5.5c0,2.5-0.7,4.4-2,5.9c-1.3,1.4-2.9,2.2-4.8,2.2c-1.8,0-3.3-0.6-4.5-1.8
		c-1.3-1.2-2-3-2.3-5.2l-9,1.1c0.5,4.1,2.1,7.4,5,9.9c2.9,2.5,6.5,3.8,10.9,3.8c4.6,0,8.5-1.5,11.6-4.5c3.1-3,4.6-6.6,4.6-10.8
		C81,85.2,80.2,82.7,78.6,80.6z"/>
</g>
</svg>
