<?xml version="1.0" encoding="utf-8"?>
<!-- Generator: Adobe Illustrator 19.2.1, SVG Export Plug-In . SVG Version: 6.00 Build 0)  -->
<svg version="1.1" id="Layer_1" xmlns="http://www.w3.org/2000/svg" xmlns:xlink="http://www.w3.org/1999/xlink" x="0px" y="0px"
	 viewBox="0 0 130 130" style="enable-background:new 0 0 130 130;" xml:space="preserve">
<style type="text/css">
	.st0{fill:none;}
	.st1{fill:#4D4D4D;}
</style>
<rect class="st0" width="130" height="130"/>
<path class="st1" d="M72.6,20.3V4.1c0-1.6,1.6-3,3.8-3.1c0,0,0,0-0.1,0c0,0,0.1,0,0.1,0c2.3,0,4.1,1.4,4.1,3.1v16.2
	c0,1.7-1.8,3.1-4.1,3.1c-0.1,0-0.2,0-0.3,0c0.1,0,0.2,0,0.3,0C74.2,23.2,72.6,21.9,72.6,20.3z M99.2,23.4c-0.1,0-0.2,0-0.3,0
	C99,23.4,99.2,23.4,99.2,23.4c2.3,0,4.2-1.3,4.2-3.1V4.1c0-1.7-1.9-3.1-4.1-3.1c0,0-0.1,0-0.1,0c0,0,0,0,0.1,0
	c-2.1,0.1-3.8,1.5-3.8,3.1v16.2C95.5,21.9,97.1,23.2,99.2,23.4z M30.5,23.4c-0.1,0-0.2,0-0.3,0C30.3,23.4,30.4,23.4,30.5,23.4
	c2.3,0,4.2-1.3,4.2-3.1V4.1c0-1.7-1.8-3.1-4.1-3.1c0,0-0.1,0-0.1,0c0,0,0,0,0,0c-2.1,0.1-3.8,1.5-3.8,3.1v16.2
	C26.8,21.9,28.4,23.2,30.5,23.4z M53.4,23.4c-0.1,0-0.2,0-0.3,0C53.2,23.4,53.3,23.4,53.4,23.4c2.3,0,4.2-1.3,4.2-3.1V4.1
	c0-1.7-1.8-3.1-4.1-3.1c0,0,0,0-0.1,0c0,0,0,0,0.1,0c-2.1,0.1-3.8,1.5-3.8,3.1v16.2C49.7,21.9,51.3,23.2,53.4,23.4z M123.2,76.4
	L123.2,76.4l0,34c0,5-2,9.7-5.5,13.3c-3.5,3.5-8.3,5.3-13.2,5.3c0,0,0,0,0,0H77.2H77h-0.4h-0.4h-0.4l0,0l-50.7,0
	c-10.1,0-18.3-8.2-18.3-18.4l0-6.2h81.7c-1.3,6.7-4.4,16.4-11.2,23.4c5.1-4,10.6-9.6,16.4-15.7l0.9-0.9c7.6-7.9,20.7-22.3,26.7-33
	c-2.6,3.2-8.3,9.5-15.5,12.8c-10.1,4.6-16.2,5.7-16.2,5.7s-0.1,1.8-0.5,4.6H6.8l0.1-74.7c0-10.1,8.2-18.3,18.4-18.3h0.2v8.4
	c-0.9,1.2-1.5,2.6-1.5,4.3c0,3.7,3,6.8,6.8,6.8c3.8,0,6.8-3,6.8-6.8c0-1.5-0.4-2.8-1.2-3.9V8.4l12.1,0v8.4c-1,1.2-1.5,2.6-1.5,4.2
	c0,3.7,3,6.8,6.8,6.8c3.8,0,6.8-3,6.8-6.8c0-1.4-0.4-2.8-1.2-3.9V8.4l12.1,0v8.4c-0.9,1.2-1.5,2.6-1.5,4.3c0,3.7,3,6.8,6.8,6.8
	c3.7,0,6.8-3,6.8-6.8c0-1.5-0.5-2.8-1.2-3.9V8.4l12.1,0v8.3c-0.9,1.2-1.5,2.6-1.5,4.3c0,3.7,3,6.8,6.8,6.8c3.8,0,6.8-3,6.8-6.8
	c0-1.5-0.5-2.8-1.2-3.9V8.5c10.1,0.1,18.2,8.3,18.2,18.4L123.2,76.4z M81,78.3c0-2.9-0.8-5.4-2.5-7.5c-1.6-2.1-3.9-3.4-6.6-4
	c4.6-2.5,6.9-5.9,6.9-10.1c0-3-1.1-5.7-3.4-8c-2.7-2.9-6.4-4.3-10.9-4.3c-2.7,0-5.1,0.5-7.2,1.5c-2.1,1-3.8,2.4-5,4.1
	c-1.2,1.8-2.1,4.1-2.7,7l8.5,1.4c0.2-2.1,0.9-3.7,2-4.8c1.1-1.1,2.5-1.6,4-1.6c1.6,0,2.9,0.5,3.8,1.4c1,1,1.5,2.3,1.5,3.9
	c0,1.9-0.7,3.4-2,4.6c-1.3,1.2-3.2,1.7-5.7,1.6l-1,7.5c1.6-0.4,3.1-0.7,4.2-0.7c1.8,0,3.3,0.7,4.6,2c1.2,1.4,1.9,3.2,1.9,5.5
	c0,2.5-0.7,4.4-2,5.9c-1.3,1.4-2.9,2.2-4.8,2.2c-1.8,0-3.3-0.6-4.5-1.8c-1.3-1.2-2-3-2.3-5.2L49,79.9c0.5,4.1,2.1,7.4,5,9.9
	c2.9,2.5,6.5,3.8,10.9,3.8c4.6,0,8.5-1.5,11.5-4.5C79.5,86.1,81,82.5,81,78.3z M122.3,110.4V78c-5.9,10.8-19.4,25.7-27.2,33.8
	l-0.9,0.9c-5.7,5.9-11.1,11.5-16.1,15.5h26.2c0,0,0,0,0,0c4.8,0,9.3-1.8,12.6-5.2C120.4,119.7,122.3,115.2,122.3,110.4z"/>
</svg>
