<?xml version="1.0" encoding="utf-8"?>
<!-- Generator: Adobe Illustrator 19.2.1, SVG Export Plug-In . SVG Version: 6.00 Build 0)  -->
<svg version="1.1" id="Layer_1" xmlns="http://www.w3.org/2000/svg" xmlns:xlink="http://www.w3.org/1999/xlink" x="0px" y="0px"
	 viewBox="0 0 130 130" style="enable-background:new 0 0 130 130;" xml:space="preserve">
<style type="text/css">
	.st0{fill:none;}
	.st1{fill:#4D4D4D;}
</style>
<rect class="st0" width="130" height="130"/>
<path class="st1" d="M65,1.2C29.6,1.2,1,29.8,1,65c0,35.2,28.6,63.8,64,63.8c35.3,0,64-28.6,64-63.8C129,29.8,100.3,1.2,65,1.2z
	 M65,20.2c7.8,0,14.1,6.3,14.1,14c0,7.8-6.3,14-14.1,14c-7.8,0-14.1-6.3-14.1-14C50.9,26.5,57.2,20.2,65,20.2z M19.9,54.7
	c1.2-7.6,8.4-12.9,16.1-11.7c7.7,1.2,12.9,8.4,11.7,16.1c-1.2,7.7-8.4,12.9-16.1,11.7C23.9,69.6,18.7,62.4,19.9,54.7z M58.4,98.7
	c-4.2,6.5-13,8.3-19.5,4.1c-6.5-4.2-8.4-12.9-4.1-19.4c4.2-6.5,12.9-8.3,19.4-4.1C60.7,83.5,62.6,92.2,58.4,98.7z M57.5,64.8
	c0-4.1,3.3-7.4,7.5-7.4c4.1,0,7.5,3.3,7.5,7.4s-3.3,7.4-7.5,7.4C60.9,72.2,57.5,68.9,57.5,64.8z M93.9,100.4
	c-5.2,5.8-14.1,6.2-19.9,1.1c-5.8-5.2-6.2-14.1-1-19.8c5.2-5.8,14.1-6.2,19.9-1C98.6,85.8,99.1,94.7,93.9,100.4z M101.9,69.8
	c-7.1,3.2-15.4,0-18.6-7.1c-3.1-7.1,0-15.4,7.2-18.5c7.1-3.2,15.4,0,18.6,7.1C112.2,58.3,109,66.6,101.9,69.8z"/>
</svg>
