<?xml version="1.0" encoding="utf-8"?>
<!-- Generator: Adobe Illustrator 19.2.1, SVG Export Plug-In . SVG Version: 6.00 Build 0)  -->
<svg version="1.1" id="Layer_1" xmlns="http://www.w3.org/2000/svg" xmlns:xlink="http://www.w3.org/1999/xlink" x="0px" y="0px"
	 viewBox="0 0 130 130" style="enable-background:new 0 0 130 130;" xml:space="preserve">
<style type="text/css">
	.st0{fill:none;}
	.st1{fill:#4D4D4D;}
</style>
<rect class="st0" width="130" height="130"/>
<g>
	<path class="st1" d="M42,14.8H17.5c-1.7,0-3.2,1.4-3.2,3.1v8.2h30.7V18C45.1,16.2,43.7,14.8,42,14.8z"/>
	<path class="st1" d="M125.2,28.5H4.8c-2.1,0-3.8,1.7-3.8,3.8v79c0,2.1,1.7,3.8,3.8,3.8h120.3c2.1,0,3.8-1.7,3.8-3.8v-79
		C129,30.3,127.3,28.5,125.2,28.5z M65,105.5c-18.2,0-33-14.7-33-32.9c0-18.2,14.8-32.9,33-32.9c18.2,0,33,14.7,33,32.9
		C98,90.8,83.2,105.5,65,105.5z"/>
	<path class="st1" d="M65,51.4c-11.8,0-21.3,9.5-21.3,21.3c0,11.7,9.6,21.3,21.3,21.3c11.8,0,21.3-9.5,21.3-21.3
		C86.3,60.9,76.8,51.4,65,51.4z"/>
</g>
</svg>
