<?xml version="1.0" encoding="utf-8"?>
<!-- Generator: Adobe Illustrator 19.2.1, SVG Export Plug-In . SVG Version: 6.00 Build 0)  -->
<svg version="1.1" id="Layer_1" xmlns="http://www.w3.org/2000/svg" xmlns:xlink="http://www.w3.org/1999/xlink" x="0px" y="0px"
	 viewBox="0 0 130 130" style="enable-background:new 0 0 130 130;" xml:space="preserve">
<style type="text/css">
	.st0{fill:none;}
	.st1{fill:#4D4D4D;}
</style>
<rect class="st0" width="130" height="130"/>
<g>
	<path class="st1" d="M89.8,53.4H4.5C2.6,53.4,1,55,1,57v53.8c0,1.9,1.6,3.5,3.5,3.5h85.3c1.9,0,3.5-1.6,3.5-3.5V57
		C93.3,55,91.7,53.4,89.8,53.4z"/>
	<path class="st1" d="M27.5,15.7c-8.5,0-15.4,6.8-15.4,15.2c0,8.3,6.8,15.1,15.4,15.1c8.5,0,15.3-6.8,15.3-15.1
		C42.8,22.5,35.9,15.7,27.5,15.7z M123.2,55.2l-15.9,4c-3.2,0.8-5.8,4.2-5.8,7.4v16.8c0,3.3,2.7,6.6,5.8,7.4l15.9,4
		c3.2,0.8,5.8-1.2,5.8-4.5V59.6C129,56.4,126.4,54.4,123.2,55.2z M67.2,15.7c-8.5,0-15.3,6.8-15.3,15.2c0,8.3,6.9,15.1,15.3,15.1
		c8.5,0,15.4-6.8,15.4-15.1C82.5,22.5,75.7,15.7,67.2,15.7z"/>
</g>
</svg>
