<?xml version="1.0" encoding="utf-8"?>
<!-- Generator: Adobe Illustrator 19.2.1, SVG Export Plug-In . SVG Version: 6.00 Build 0)  -->
<svg version="1.1" id="Layer_1" xmlns="http://www.w3.org/2000/svg" xmlns:xlink="http://www.w3.org/1999/xlink" x="0px" y="0px"
	 viewBox="0 0 130 130" style="enable-background:new 0 0 130 130;" xml:space="preserve">
<style type="text/css">
	.st0{fill:none;}
	.st1{fill:#4D4D4D;}
</style>
<rect class="st0" width="130" height="130"/>
<g>
	<g>
		<path class="st1" d="M17.2,110.1c1.3,0.8,2.8,1.3,4.3,1.3c1.5,0,3.1-0.5,4.3-1.3c2.6-1.6,4.5-4.5,5.3-8.1H11.9
			C12.7,105.5,14.7,108.5,17.2,110.1z M98.8,101.9c0.8,3.6,2.7,6.5,5.3,8.1c1.3,0.8,2.8,1.3,4.3,1.3c1.6,0,3.1-0.5,4.4-1.3
			c2.5-1.6,4.5-4.5,5.3-8.1H98.8z"/>
	</g>
	<path class="st1" d="M119.9,54L109,28.4c-2.5-5.9-8.2-9.8-14.7-9.8H35.7c-6.5,0-12.2,3.8-14.7,9.7L10.1,54C4.7,56.4,1,61.8,1,68
		v32.7h128V68C129,61.8,125.3,56.4,119.9,54z M30.2,33c0.9-2.3,3.1-3.8,5.6-3.8h58.3c2.5,0,4.7,1.5,5.6,3.8l8.5,20.3H21.7L30.2,33z
		 M21.3,79.3c-3.5,0-6.4-2.9-6.4-6.4c0-3.6,2.9-6.4,6.4-6.4c3.6,0,6.5,2.9,6.5,6.4C27.7,76.5,24.9,79.3,21.3,79.3z M108.7,79.3
		c-3.6,0-6.5-2.9-6.5-6.4c0-3.6,2.9-6.4,6.5-6.4c3.6,0,6.4,2.9,6.4,6.4C115.1,76.5,112.3,79.3,108.7,79.3z"/>
</g>
</svg>
