<?xml version="1.0" encoding="utf-8"?>
<!-- Generator: Adobe Illustrator 19.2.1, SVG Export Plug-In . SVG Version: 6.00 Build 0)  -->
<svg version="1.1" id="Layer_1" xmlns="http://www.w3.org/2000/svg" xmlns:xlink="http://www.w3.org/1999/xlink" x="0px" y="0px"
	 viewBox="0 0 130 130" style="enable-background:new 0 0 130 130;" xml:space="preserve">
<style type="text/css">
	.st0{fill:none;}
	.st1{fill:#4D4D4D;}
</style>
<rect class="st0" width="130" height="130"/>
<g>
	<g>
		<path class="st1" d="M57,88c-4,0-7.2,3.2-7.2,7.1c0,4,3.2,7.2,7.2,7.2c4,0,7.2-3.2,7.2-7.2C64.1,91.2,60.9,88,57,88z M98.3,88
			c-3.9,0-7.2,3.2-7.2,7.1c0,4,3.2,7.2,7.2,7.2c3.9,0,7.2-3.2,7.2-7.2C105.5,91.2,102.3,88,98.3,88z"/>
	</g>
	<g>
		<path class="st1" d="M118,57.9c-8.2,0-14.9-6.7-14.9-14.8c0-1.9,0.4-3.7,1-5.4H32.8l-6.3-10h-21c-2.5,0-4.5,2-4.5,4.5v1.7
			c0,2.5,2,4.5,4.5,4.5h13.7c-0.3,0.5-0.3,1.2,0.1,1.9L43.1,80c0.9,1.5,3,2.7,4.8,2.7H104c1.7,0,3.7-1.3,4.5-2.9l10.3-22
			C118.6,57.9,118.3,57.9,118,57.9z M93.9,48.5c0-1.7,1.4-3.2,3.1-3.2h1.2c1.7,0,3.2,1.4,3.2,3.2v0.7c0,1.7-1.4,3.2-3.2,3.2H97
			c-1.7,0-3.1-1.4-3.1-3.2L93.9,48.5L93.9,48.5z M82.4,48.5c0-1.7,1.4-3.2,3.1-3.2h1.2c1.7,0,3.2,1.4,3.2,3.2v0.7
			c0,1.7-1.4,3.2-3.2,3.2h-1.2c-1.7,0-3.1-1.4-3.1-3.2V48.5z M71,48.5c0-1.7,1.4-3.2,3.1-3.2h1.2c1.7,0,3.2,1.4,3.2,3.2v0.7
			c0,1.7-1.4,3.2-3.2,3.2h-1.2c-1.7,0-3.1-1.4-3.1-3.2V48.5z M59.5,48.5c0-1.7,1.4-3.2,3.2-3.2h1.2c1.7,0,3.2,1.4,3.2,3.2v0.7
			c0,1.7-1.4,3.2-3.2,3.2h-1.2c-1.7,0-3.2-1.4-3.2-3.2V48.5z M48,48.5c0-1.7,1.4-3.2,3.2-3.2h1.2c1.7,0,3.2,1.4,3.2,3.2v0.7
			c0,1.7-1.4,3.2-3.2,3.2h-1.2c-1.7,0-3.2-1.4-3.2-3.2C48,49.2,48,48.5,48,48.5z M39.7,52.4c-1.7,0-3.2-1.4-3.2-3.2v-0.7
			c0-1.7,1.4-3.2,3.2-3.2h1.2c1.7,0,3.1,1.4,3.1,3.2v0.7c0,1.7-1.4,3.2-3.1,3.2H39.7z M46.7,63.5h-1.2c-1.7,0-3.2-1.4-3.2-3.2v-0.7
			c0-1.7,1.4-3.2,3.2-3.2h1.2c1.7,0,3.2,1.4,3.2,3.2v0.7C49.9,62,48.5,63.5,46.7,63.5z M55.5,71.9c0,1.7-1.4,3.2-3.2,3.2h-1.2
			c-1.7,0-3.2-1.4-3.2-3.2v-0.7c0-1.7,1.4-3.2,3.2-3.2h1.2c1.7,0,3.2,1.4,3.2,3.2V71.9z M57,63.5c-1.7,0-3.2-1.4-3.2-3.2v-0.7
			c0-1.7,1.4-3.2,3.2-3.2h1.2c1.7,0,3.2,1.4,3.2,3.2v0.7c0,1.7-1.4,3.2-3.2,3.2H57z M67,71.9c0,1.7-1.4,3.2-3.2,3.2h-1.2
			c-1.7,0-3.2-1.4-3.2-3.2v-0.7c0-1.7,1.4-3.2,3.2-3.2h1.2c1.7,0,3.2,1.4,3.2,3.2V71.9z M68.5,63.5c-1.7,0-3.2-1.4-3.2-3.2v-0.7
			c0-1.7,1.4-3.2,3.2-3.2h1.2c1.7,0,3.2,1.4,3.2,3.2v0.7c0,1.7-1.4,3.2-3.2,3.2H68.5z M78.5,71.9c0,1.7-1.4,3.2-3.2,3.2h-1.2
			c-1.7,0-3.1-1.4-3.1-3.2v-0.7c0-1.7,1.4-3.2,3.1-3.2h1.2c1.7,0,3.2,1.4,3.2,3.2V71.9z M79.9,63.5c-1.7,0-3.2-1.4-3.2-3.2v-0.7
			c0-1.7,1.4-3.2,3.2-3.2h1.2c1.7,0,3.2,1.4,3.2,3.2v0.7c0,1.7-1.4,3.2-3.2,3.2H79.9z M89.9,71.9c0,1.7-1.4,3.2-3.2,3.2h-1.2
			c-1.7,0-3.1-1.4-3.1-3.2v-0.7c0-1.7,1.4-3.2,3.1-3.2h1.2c1.7,0,3.2,1.4,3.2,3.2V71.9z M91.4,63.5c-1.7,0-3.2-1.4-3.2-3.2v-0.7
			c0-1.7,1.4-3.2,3.2-3.2h1.2c1.7,0,3.2,1.4,3.2,3.2v0.7c0,1.7-1.4,3.2-3.2,3.2H91.4z M101.4,71.9c0,1.7-1.4,3.2-3.2,3.2H97
			c-1.7,0-3.1-1.4-3.1-3.2v-0.7c0-1.7,1.4-3.2,3.1-3.2h1.2c1.7,0,3.2,1.4,3.2,3.2L101.4,71.9L101.4,71.9z M107.2,60.3
			c0,1.7-1.4,3.2-3.1,3.2h-1.2c-1.7,0-3.2-1.4-3.2-3.2v-0.7c0-1.7,1.4-3.2,3.2-3.2h1.2c1.7,0,3.1,1.4,3.1,3.2V60.3z"/>
		<path class="st1" d="M118,32.1c-6.1,0-11,4.9-11,11c0,6,4.9,11,11,11c6,0,11-4.9,11-11C129,37,124.1,32.1,118,32.1z M122.2,43.8
			h-3.4v3.4c0,0.4-0.4,0.9-0.9,0.9s-0.9-0.4-0.9-0.9v-3.4h-3.4c-0.4,0-0.9-0.4-0.9-0.9s0.4-0.9,0.9-0.9h3.4v-3.4
			c0-0.4,0.4-0.9,0.9-0.9s0.9,0.4,0.9,0.9v3.4h3.4c0.4,0,0.9,0.4,0.9,0.9S122.6,43.8,122.2,43.8z"/>
	</g>
</g>
</svg>
