<?xml version="1.0" encoding="utf-8"?>
<!-- Generator: Adobe Illustrator 19.2.1, SVG Export Plug-In . SVG Version: 6.00 Build 0)  -->
<svg version="1.1" id="Layer_1" xmlns="http://www.w3.org/2000/svg" xmlns:xlink="http://www.w3.org/1999/xlink" x="0px" y="0px"
	 viewBox="0 0 130 130" style="enable-background:new 0 0 130 130;" xml:space="preserve">
<style type="text/css">
	.st0{fill:none;}
	.st1{fill:#4D4D4D;}
</style>
<rect class="st0" width="130" height="130"/>
<g>
	<path class="st1" d="M126.9,37.3H33.3l-6.4-10.1H5.6c-2.5,0-4.6,2.1-4.6,4.6v1.7C1,36,3.1,38,5.6,38h13.9c-0.3,0.5-0.3,1.2,0.2,2
		l24.1,40.2c0.9,1.5,3.1,2.7,4.8,2.7h57c1.8,0,3.8-1.3,4.6-2.9l18.6-39.9C129.5,38.6,128.7,37.3,126.9,37.3z M95.2,48.3
		c0-1.8,1.4-3.2,3.2-3.2h1.2c1.8,0,3.2,1.4,3.2,3.2V49c0,1.8-1.4,3.2-3.2,3.2h-1.2c-1.8,0-3.2-1.4-3.2-3.2V48.3z M83.6,48.3
		c0-1.8,1.4-3.2,3.2-3.2H88c1.8,0,3.2,1.4,3.2,3.2V49c0,1.8-1.4,3.2-3.2,3.2h-1.2c-1.8,0-3.2-1.4-3.2-3.2V48.3z M72,48.3
		c0-1.8,1.4-3.2,3.2-3.2h1.2c1.8,0,3.2,1.4,3.2,3.2V49c0,1.8-1.4,3.2-3.2,3.2h-1.2c-1.8,0-3.2-1.4-3.2-3.2V48.3z M60.3,48.3
		c0-1.8,1.4-3.2,3.2-3.2h1.2c1.8,0,3.2,1.4,3.2,3.2V49c0,1.8-1.4,3.2-3.2,3.2h-1.2c-1.8,0-3.2-1.4-3.2-3.2V48.3z M48.7,48.3
		c0-1.8,1.5-3.2,3.2-3.2h1.2c1.8,0,3.2,1.4,3.2,3.2V49c0,1.8-1.4,3.2-3.2,3.2h-1.2c-1.8,0-3.2-1.4-3.2-3.2V48.3z M40.3,52.2
		c-1.8,0-3.2-1.4-3.2-3.2v-0.7c0-1.8,1.4-3.2,3.2-3.2h1.2c1.8,0,3.2,1.4,3.2,3.2V49c0,1.8-1.4,3.2-3.2,3.2H40.3z M47.4,63.5h-1.2
		c-1.8,0-3.2-1.4-3.2-3.2v-0.7c0-1.8,1.4-3.2,3.2-3.2h1.2c1.8,0,3.2,1.4,3.2,3.2v0.7C50.6,62,49.1,63.5,47.4,63.5z M56.3,72
		c0,1.8-1.4,3.2-3.2,3.2h-1.2c-1.8,0-3.2-1.4-3.2-3.2v-0.7c0-1.8,1.5-3.2,3.2-3.2h1.2c1.8,0,3.2,1.4,3.2,3.2V72z M57.8,63.5
		c-1.8,0-3.2-1.4-3.2-3.2v-0.7c0-1.8,1.4-3.2,3.2-3.2H59c1.8,0,3.2,1.4,3.2,3.2v0.7c0,1.8-1.4,3.2-3.2,3.2H57.8z M67.9,72
		c0,1.8-1.4,3.2-3.2,3.2h-1.2c-1.8,0-3.2-1.4-3.2-3.2v-0.7c0-1.8,1.4-3.2,3.2-3.2h1.2c1.8,0,3.2,1.4,3.2,3.2V72z M69.4,63.5
		c-1.8,0-3.2-1.4-3.2-3.2v-0.7c0-1.8,1.4-3.2,3.2-3.2h1.2c1.8,0,3.2,1.4,3.2,3.2v0.7c0,1.8-1.4,3.2-3.2,3.2H69.4z M79.6,72
		c0,1.8-1.4,3.2-3.2,3.2h-1.2c-1.8,0-3.2-1.4-3.2-3.2v-0.7c0-1.8,1.4-3.2,3.2-3.2h1.2c1.8,0,3.2,1.4,3.2,3.2V72z M81.1,63.5
		c-1.8,0-3.2-1.4-3.2-3.2v-0.7c0-1.8,1.4-3.2,3.2-3.2h1.2c1.8,0,3.2,1.4,3.2,3.2v0.7c0,1.8-1.4,3.2-3.2,3.2H81.1z M91.2,72
		c0,1.8-1.4,3.2-3.2,3.2h-1.2c-1.8,0-3.2-1.4-3.2-3.2v-0.7c0-1.8,1.4-3.2,3.2-3.2H88c1.8,0,3.2,1.4,3.2,3.2V72z M92.7,63.5
		c-1.8,0-3.2-1.4-3.2-3.2v-0.7c0-1.8,1.4-3.2,3.2-3.2h1.2c1.8,0,3.2,1.4,3.2,3.2v0.7c0,1.8-1.4,3.2-3.2,3.2H92.7z M102.8,72
		c0,1.8-1.4,3.2-3.2,3.2h-1.2c-1.8,0-3.2-1.4-3.2-3.2v-0.7c0-1.8,1.4-3.2,3.2-3.2h1.2c1.8,0,3.2,1.4,3.2,3.2V72z M108.7,60.2
		c0,1.8-1.4,3.2-3.2,3.2h-1.2c-1.8,0-3.2-1.4-3.2-3.2v-0.7c0-1.8,1.4-3.2,3.2-3.2h1.2c1.8,0,3.2,1.4,3.2,3.2V60.2z M114.5,49
		c0,1.8-1.4,3.2-3.2,3.2h-1.2c-1.8,0-3.2-1.4-3.2-3.2v-0.7c0-1.8,1.4-3.2,3.2-3.2h1.2c1.8,0,3.2,1.4,3.2,3.2V49z"/>
	<g>
		<path class="st1" d="M57.8,88.3c-4,0-7.3,3.3-7.3,7.3c0,4,3.2,7.3,7.3,7.3c4,0,7.3-3.2,7.3-7.3C65,91.6,61.8,88.3,57.8,88.3z
			 M99.7,88.3c-4,0-7.3,3.3-7.3,7.3c0,4,3.2,7.3,7.3,7.3c4,0,7.3-3.2,7.3-7.3C107,91.6,103.7,88.3,99.7,88.3z"/>
	</g>
</g>
</svg>
