<?xml version="1.0" encoding="utf-8"?>
<!-- Generator: Adobe Illustrator 19.2.1, SVG Export Plug-In . SVG Version: 6.00 Build 0)  -->
<svg version="1.1" id="Layer_1" xmlns="http://www.w3.org/2000/svg" xmlns:xlink="http://www.w3.org/1999/xlink" x="0px" y="0px"
	 viewBox="0 0 130 130" style="enable-background:new 0 0 130 130;" xml:space="preserve">
<style type="text/css">
	.st0{fill:none;}
	.st1{fill:#4D4D4D;}
</style>
<rect class="st0" width="130" height="130"/>
<g>
	<path class="st1" d="M80,10.5H50c-5.2,0-9.4,4.2-9.4,9.4v9.7h9v-9.7c0-0.2,0.2-0.4,0.4-0.4H80c0.2,0,0.4,0.2,0.4,0.4v9.7h9v-9.7
		C89.4,14.7,85.2,10.5,80,10.5z"/>
	<g>
		<g>
			<path class="st1" d="M15.4,28.9H3.9c-1.6,0-2.9,1.3-2.9,2.9v84.9c0,1.6,1.3,2.9,2.9,2.9h11.5V28.9z"/>
			<rect x="26.9" y="28.9" class="st1" width="76.2" height="90.6"/>
		</g>
		<path class="st1" d="M126.1,28.9h-11.5v90.6h11.5c1.6,0,2.9-1.3,2.9-2.9V31.8C129,30.2,127.7,28.9,126.1,28.9z"/>
	</g>
</g>
</svg>
