<?xml version="1.0" encoding="utf-8"?>
<!-- Generator: Adobe Illustrator 19.2.1, SVG Export Plug-In . SVG Version: 6.00 Build 0)  -->
<svg version="1.1" id="Layer_1" xmlns="http://www.w3.org/2000/svg" xmlns:xlink="http://www.w3.org/1999/xlink" x="0px" y="0px"
	 viewBox="0 0 130 130" style="enable-background:new 0 0 130 130;" xml:space="preserve">
<style type="text/css">
	.st0{fill:none;}
	.st1{fill:#4D4D4D;}
</style>
<rect class="st0" width="130" height="130"/>
<g>
	<g>
		<g>
			<path class="st1" d="M46.8,22.4l-2.3,4.7c-0.1,0.2,0,0.5,0.3,0.7c0.3,0.1,0.6,0.1,0.7-0.2l2.6-5.3C48.1,22.4,46.8,22.4,46.8,22.4
				z"/>
			<path class="st1" d="M47.6,22.4l-2.5,5.1c0,0,0,0.1,0.1,0.1c0.1,0.1,0.2,0,0.2,0l2.6-5.2L47.6,22.4L47.6,22.4z"/>
		</g>
		<g>
			<path class="st1" d="M85.6,27.1L83,22h-1.3l2.8,5.6c0.1,0.2,0.4,0.3,0.7,0.2C85.6,27.7,85.7,27.3,85.6,27.1z"/>
			<path class="st1" d="M82.2,22h-0.4l2.8,5.6c0,0,0.1,0,0.2,0c0.1,0,0.1-0.1,0.1-0.1L82.2,22z"/>
		</g>
		<path class="st1" d="M84.5,21.6c0,2.1-8.7-1.3-19.4-1.1c-10.7,0.1-19.4,3.6-19.4,1.6c0-3.5,8.6-5.9,19.4-6.1
			C75.7,15.9,84.4,18.2,84.5,21.6z"/>
	</g>
	<g>
		<g>
			<path class="st1" d="M17.2,26H7.3C3.8,26,1,28.8,1,32.3v75.4c0,3.5,2.8,6.3,6.3,6.3h9.9C17.2,114,17.2,26,17.2,26z"/>
			<path class="st1" d="M122.7,26h-9.9v88h9.9c3.5,0,6.3-2.8,6.3-6.3V32.3C129,28.8,126.2,26,122.7,26z"/>
		</g>
		<path class="st1" d="M29,26v88H101V26H29z M81.6,37l0.5,0.3c0.4,0.2,0.8,0.3,1.3,0.3c0.1,0,0.2,0,0.3,0c0.3,0,0.6-0.2,0.8-0.3
			l0.1-0.1c0.1-0.1,0.3-0.2,0.4-0.3l0.3-0.2l0.4,0.1c0.1,0.1,0.3,0.1,0.4,0.1l0.2,0.1c0.2,0.1,0.4,0.1,0.6,0.1c0.1,0,0.2,0,0.3,0
			c0.5-0.1,1-0.3,1.5-0.7l0.4-0.4l3.8,2.8l-0.3,0.5c-0.3,0.5-0.6,1.4-0.6,1.8c0,0.6,0.3,1,0.7,1.5c0.2,0.4,0.5,0.7,0.7,1.2
			c0.7,1.6,0.5,3.4-0.5,4.6c-0.8,1-2,1.3-3,1.6c-0.3,0.1-0.6,0.2-0.9,0.3c-0.4,0.1-0.7,0.4-1,0.8l0,0.1c-0.1,0.2-0.3,0.3-0.5,0.3
			l0,0l-0.1,0c-0.2,0-0.4-0.1-0.5-0.2l0,0l-0.1-0.1c-0.3-0.3-0.7-0.4-1.2-0.5c-0.2,0-0.4,0-0.6,0l-0.5,0c-1.1,0-2.2-0.1-3.1-0.8
			c-1.2-0.9-1.9-2.5-1.7-4.3c0.1-0.5,0.2-0.9,0.3-1.3c0.2-0.6,0.4-1.1,0.2-1.7c-0.1-0.4-0.7-1.2-1.1-1.6l-0.4-0.4L81.6,37z
			 M50.3,94.1l-2.4,3.2l-0.5,0.6l-2.8,3.6l-0.5,0.6l-2.4,3.2c-0.5,0.6-1.3,0.7-2,0.2l-5.1-3.9c-0.6-0.5-0.8-1.4-0.3-2l2.4-3.2
			l0.2-0.3l0.2-0.3l2.8-3.6l0.2-0.3l0.2-0.3l2.4-3.2c0.5-0.6,1.3-0.7,2-0.2l5.1,3.9C50.6,92.6,50.8,93.5,50.3,94.1z M46.2,72.7
			c-3.7,1.5-7.9-0.4-9.4-4.1c-1.5-3.7,0.4-7.9,4.1-9.4c3.7-1.5,7.9,0.4,9.4,4.1C51.7,67.1,49.9,71.2,46.2,72.7z M55.3,37.6
			c0-3.1,2.5-5.6,5.6-5.6c3.1,0,5.6,2.5,5.6,5.6c0,3.1-2.5,5.6-5.6,5.6C57.8,43.2,55.3,40.7,55.3,37.6z M64.8,69
			c-0.1-0.4,0.1-0.8,0.5-1.2l8.5-8.8l0,0c0.4-0.3,0.8-0.5,1.3-0.3c0.4,0.1,0.8,0.5,0.9,0.9l0,0l2.8,11.9c0.2,0.5,0.1,0.9-0.2,1.2
			c-0.3,0.3-0.8,0.4-1.3,0.3l-11.5-3.2C65.2,69.7,64.8,69.4,64.8,69z M78.8,106.1l-13.1-6.5l4-8.1l12.7,6.3l0.4,0.2L78.8,106.1z
			 M94.6,86.4c0,1.3-1.2,2.3-2.6,2.3h-5.4c-1.4,0-2.6-1-2.6-2.3v-7.5c0-1.3,1.2-2.3,2.6-2.3H92c1.4,0,2.6,1,2.6,2.3V86.4z"/>
	</g>
</g>
</svg>
