<?xml version="1.0" encoding="utf-8"?>
<!-- Generator: Adobe Illustrator 19.2.1, SVG Export Plug-In . SVG Version: 6.00 Build 0)  -->
<svg version="1.1" id="Layer_1" xmlns="http://www.w3.org/2000/svg" xmlns:xlink="http://www.w3.org/1999/xlink" x="0px" y="0px"
	 viewBox="0 0 130 130" style="enable-background:new 0 0 130 130;" xml:space="preserve">
<style type="text/css">
	.st0{fill:none;}
	.st1{fill:#4D4D4D;}
</style>
<rect class="st0" width="130" height="130"/>
<g>
	<g>
		<g>
			<path class="st1" d="M93.3,35.4H39.5c-1.4,0-2.6-1.2-2.6-2.6V7.6c0-1.4,1.2-2.6,2.6-2.6h53.8c1.4,0,2.6,1.2,2.6,2.6v25.2
				C95.9,34.2,94.7,35.4,93.3,35.4z M40.2,32.1h52.3V8.3H40.2V32.1z"/>
		</g>
	</g>
	<rect x="61.2" y="34.6" class="st1" width="10.9" height="10.5"/>
	<path class="st1" d="M109.6,44.3H22.5L1.1,102.6v9.1h127.7v-8.6L109.6,44.3z M60.4,55.4c0-1,0.9-1.9,2-1.9h40.1
		c1,0,2.1,0.8,2.4,1.8l3.9,12.8c0.3,1-0.3,1.8-1.3,1.8H61.6c-1,0-1.8-0.8-1.8-1.9L60.4,55.4z M59.5,74.9c0-0.5,0.5-0.9,1-0.9h5.8
		c0.5,0,0.9,0.4,0.9,0.9l0,4.7c0,0.5-0.4,0.9-0.9,0.9h-6.1c-0.5,0-0.9-0.4-0.9-0.9L59.5,74.9z M51.2,78.4c-0.1,1-1,1.9-2.1,1.9H20.9
		c-1,0-1.6-0.8-1.3-1.8l7-22.8c0.3-1,1.4-1.8,2.4-1.8h22.7c1,0,1.8,0.8,1.7,1.9L51.2,78.4z M66.5,93.7h-6.8c-0.5,0-0.9-0.4-0.9-0.9
		l0.2-4.7c0-0.5,0.5-0.9,1-0.9h6.5c0.5,0,0.9,0.4,1,0.9l0,4.7C67.4,93.3,67,93.7,66.5,93.7z M74.3,79.6l-0.3-4.7
		c0-0.5,0.4-0.9,0.9-0.9h5.8c0.5,0,1,0.4,1,0.9l0.5,4.7c0.1,0.5-0.3,0.9-0.8,0.9h-6.1C74.8,80.5,74.4,80.1,74.3,79.6z M82.9,93.7
		h-6.8c-0.5,0-1-0.4-1-0.9l-0.3-4.7c0-0.5,0.4-0.9,0.9-0.9h6.5c0.5,0,1,0.4,1,0.9l0.5,4.7C83.8,93.3,83.4,93.7,82.9,93.7z
		 M89.3,79.6l-0.7-4.7c-0.1-0.5,0.3-0.9,0.8-0.9h5.8c0.5,0,1,0.4,1.1,0.9l1,4.8c0.1,0.5-0.2,0.9-0.7,0.9h-6.1
		C89.9,80.5,89.4,80.1,89.3,79.6z M99.3,93.7h-6.8c-0.5,0-1-0.4-1.1-0.9l-0.7-4.7c-0.1-0.5,0.3-0.9,0.8-0.9h6.5c0.5,0,1,0.4,1.1,0.9
		l1,4.8C100.1,93.3,99.8,93.7,99.3,93.7z M104.3,79.6l-1.2-4.8c-0.1-0.5,0.2-0.9,0.7-0.9h5.8c0.5,0,1.1,0.4,1.2,0.9l1.5,4.8
		c0.1,0.5-0.2,0.9-0.7,0.9h-6.1C105,80.5,104.4,80.1,104.3,79.6z M115.6,93.7h-6.8c-0.5,0-1-0.4-1.2-0.9l-1.2-4.8
		c-0.1-0.5,0.2-0.9,0.7-0.9h6.5c0.5,0,1.1,0.4,1.2,0.9l1.5,4.8C116.5,93.3,116.2,93.7,115.6,93.7z"/>
	<path class="st1" d="M129,102.9H1v17.4c0,2.6,2.1,4.7,4.7,4.7h118.6c2.6,0,4.7-2.1,4.7-4.7L129,102.9z M74.1,116H51.3
		c-0.9,0-1.7-0.7-1.7-1.7s0.7-1.7,1.7-1.7h22.8c0.9,0,1.7,0.7,1.7,1.7S75.1,116,74.1,116z"/>
</g>
</svg>
