<?xml version="1.0" encoding="utf-8"?>
<!-- Generator: Adobe Illustrator 19.2.1, SVG Export Plug-In . SVG Version: 6.00 Build 0)  -->
<svg version="1.1" id="Layer_1" xmlns="http://www.w3.org/2000/svg" xmlns:xlink="http://www.w3.org/1999/xlink" x="0px" y="0px"
	 viewBox="0 0 130 130" style="enable-background:new 0 0 130 130;" xml:space="preserve">
<style type="text/css">
	.st0{fill:none;}
	.st1{fill:#4D4D4D;}
</style>
<rect class="st0" width="130" height="130"/>
<g>
	<g>
		<path class="st1" d="M113.8,11.9H16.2h-4.3v4.3v63.7v4.3h4.3h97.6h4.3v-4.3V16.2v-4.3C118.1,11.9,113.8,11.9,113.8,11.9z
			 M113.8,79.9H16.2V16.2h97.6C113.8,16.2,113.8,79.9,113.8,79.9z"/>
	</g>
	<path class="st1" d="M4.9,17.5l120.1,0c2.2,0,3.9-1.8,3.9-4c0-2.2-1.8-4-3.9-4L4.9,9.5c-2.2,0-3.9,1.8-3.9,4
		C1,15.7,2.8,17.5,4.9,17.5z M125.1,79.9L5,79.9C2.8,79.9,1,81.7,1,84C1,86.2,2.8,88,5,88l120.1,0c2.2,0,3.9-1.8,3.9-4.1
		C129,81.7,127.2,79.9,125.1,79.9z"/>
	<g>
		<path class="st1" d="M48.8,93.3l-20.7,20.5c-1.5,1.5-1.6,4,0,5.6c0.8,0.8,1.8,1.2,2.8,1.2c1,0,2-0.4,2.8-1.1l20.7-20.5
			c1.5-1.5,1.6-4,0-5.6C52.9,91.8,50.4,91.7,48.8,93.3z"/>
		<path class="st1" d="M80.5,93.3l20.7,20.5c1.5,1.5,1.6,4,0,5.6c-0.8,0.8-1.8,1.2-2.8,1.2c-1,0-2-0.4-2.8-1.1L75,98.9
			c-1.5-1.5-1.6-4,0-5.6C76.5,91.8,79,91.7,80.5,93.3z"/>
	</g>
	<path class="st1" d="M88.1,34.8c-1,0.1-2-0.9-2-1.9l0-1.6L71.5,47.4c-0.4,0.4-0.9,0.6-1.4,0.6c-0.5,0-1-0.2-1.4-0.6L51.5,30.6
		l-17,15.6c-0.8,0.7-2,0.7-2.8-0.1c-0.7-0.8-0.7-2,0.1-2.8l18.3-16.8c0.8-0.7,1.9-0.7,2.7,0L70,43.3l13.3-14.7l-1.6,0.1
		c-1.1,0.1-2-0.7-2.1-1.8c-0.1-1.1,0.7-2,1.8-2.1l6.5-0.6l0.2,0c0.5,0,0.9,0.2,1.3,0.5c0.4,0.4,0.6,0.9,0.6,1.4l0.1,6.6
		C90.1,33.9,89.2,34.8,88.1,34.8z"/>
	<path class="st1" d="M37.8,72.3c0,0.6-0.5,1-1,1h-4.2c-0.5,0-1-0.5-1-1V58.4c0-0.5,0.5-1,1-1h4.2c0.5,0,1,0.5,1,1V72.3z"/>
	<path class="st1" d="M46.9,72.3c0,0.6-0.5,1-1,1h-4.2c-0.6,0-1-0.5-1-1V51.6c0-0.6,0.5-1,1-1h4.2c0.5,0,1,0.5,1,1
		C46.9,51.6,46.9,72.3,46.9,72.3z"/>
	<path class="st1" d="M56,72.3c0,0.6-0.5,1-1,1h-4.2c-0.5,0-1-0.5-1-1v-29c0-0.5,0.5-1,1-1H55c0.5,0,1,0.5,1,1V72.3z"/>
	<path class="st1" d="M65.1,72.3c0,0.6-0.5,1-1,1h-4.2c-0.6,0-1-0.5-1-1V52.4c0-0.5,0.5-1,1-1h4.2c0.6,0,1,0.5,1,1V72.3z"/>
	<path class="st1" d="M74.2,72.3c0,0.6-0.4,1-1,1H69c-0.6,0-1-0.5-1-1V58.4c0-0.5,0.4-1,1-1h4.2c0.6,0,1,0.5,1,1V72.3z"/>
	<path class="st1" d="M83.3,72.3c0,0.6-0.5,1-1,1h-4.2c-0.6,0-1-0.5-1-1V51.4c0-0.5,0.4-1,1-1h4.2c0.6,0,1,0.5,1,1V72.3z"/>
	<path class="st1" d="M92.4,72.3c0,0.6-0.4,1-1,1h-4.2c-0.5,0-1-0.5-1-1V46.2c0-0.5,0.4-1,1-1h4.2c0.6,0,1,0.5,1,1V72.3z"/>
</g>
</svg>
