<?xml version="1.0" encoding="utf-8"?>
<!-- Generator: Adobe Illustrator 19.2.1, SVG Export Plug-In . SVG Version: 6.00 Build 0)  -->
<svg version="1.1" id="Layer_1" xmlns="http://www.w3.org/2000/svg" xmlns:xlink="http://www.w3.org/1999/xlink" x="0px" y="0px"
	 viewBox="0 0 130 130" style="enable-background:new 0 0 130 130;" xml:space="preserve">
<style type="text/css">
	.st0{fill:none;}
	.st1{fill:#4D4D4D;}
</style>
<rect class="st0" width="130" height="130"/>
<g>
	<path class="st1" d="M104.8,44.1c-1.5,0.1-2.8-1.2-2.8-2.7l0-2.3L81.3,62c-0.5,0.6-1.2,0.9-2,0.9c-0.7,0-1.5-0.3-2-0.8l-24.4-24
		L28.8,60.2c-1.1,1-2.9,1-3.9-0.2c-1-1.1-1-2.9,0.2-3.9l26-23.9c1.1-1,2.8-1,3.8,0.1l24.2,23.8l18.8-20.8l-2.3,0.2
		c-1.5,0.1-2.9-1-3-2.5c-0.1-1.5,1-2.9,2.5-3l9.3-0.8l0.2,0c0.7,0,1.3,0.3,1.9,0.7c0.6,0.5,0.9,1.3,0.9,2l0.1,9.3
		C107.6,42.8,106.4,44.1,104.8,44.1z"/>
	<path class="st1" d="M33.5,110.2c0,0.8-0.6,1.4-1.4,1.4h-6c-0.8,0-1.4-0.6-1.4-1.4V77.6c0-0.8,0.6-1.4,1.4-1.4h6
		c0.8,0,1.4,0.6,1.4,1.4V110.2z"/>
	<path class="st1" d="M46.4,110.2c0,0.8-0.6,1.4-1.4,1.4h-6c-0.8,0-1.4-0.6-1.4-1.4V68c0-0.8,0.6-1.4,1.4-1.4h6
		c0.8,0,1.4,0.6,1.4,1.4V110.2z"/>
	<path class="st1" d="M59.3,110.2c0,0.8-0.6,1.4-1.4,1.4h-6c-0.8,0-1.4-0.6-1.4-1.4v-54c0-0.8,0.6-1.4,1.4-1.4h6
		c0.8,0,1.4,0.6,1.4,1.4V110.2z"/>
	<path class="st1" d="M72.2,110.2c0,0.8-0.6,1.4-1.4,1.4h-6c-0.8,0-1.4-0.6-1.4-1.4V69.1c0-0.8,0.6-1.4,1.4-1.4h6
		c0.8,0,1.4,0.6,1.4,1.4V110.2z"/>
	<path class="st1" d="M85.1,110.2c0,0.8-0.6,1.4-1.4,1.4h-6c-0.8,0-1.4-0.6-1.4-1.4V77.6c0-0.8,0.6-1.4,1.4-1.4h6
		c0.8,0,1.4,0.6,1.4,1.4V110.2z"/>
	<path class="st1" d="M98,110.2c0,0.8-0.6,1.4-1.4,1.4h-6c-0.8,0-1.4-0.6-1.4-1.4V67.7c0-0.8,0.6-1.4,1.4-1.4h6
		c0.8,0,1.4,0.6,1.4,1.4V110.2z"/>
	<path class="st1" d="M110.9,110.2c0,0.8-0.6,1.4-1.4,1.4h-6c-0.8,0-1.4-0.6-1.4-1.4v-50c0-0.8,0.6-1.4,1.4-1.4h6
		c0.8,0,1.4,0.6,1.4,1.4V110.2z"/>
	<path class="st1" d="M9.7,110.4V15.3c0-2.4-1.9-4.3-4.3-4.3c-2.4,0-4.3,1.9-4.3,4.3v99.5c0,2.4,1.9,4.3,4.3,4.3h119.3
		c2.4,0,4.3-1.9,4.3-4.3c0-2.4-1.9-4.3-4.3-4.3L9.7,110.4L9.7,110.4z"/>
</g>
</svg>
