<?xml version="1.0" encoding="utf-8"?>
<!-- Generator: Adobe Illustrator 19.2.1, SVG Export Plug-In . SVG Version: 6.00 Build 0)  -->
<svg version="1.1" id="Layer_1" xmlns="http://www.w3.org/2000/svg" xmlns:xlink="http://www.w3.org/1999/xlink" x="0px" y="0px"
	 viewBox="0 0 130 130" style="enable-background:new 0 0 130 130;" xml:space="preserve">
<style type="text/css">
	.st0{fill:none;}
	.st1{fill:#4D4D4D;}
</style>
<rect class="st0" width="130" height="130"/>
<g>
	<path class="st1" d="M12,31H2.9C1.8,31,1,31.7,1,32.6c0,0.9,0.8,1.6,1.9,1.6H12c1,0,1.9-0.7,1.9-1.6C13.9,31.7,13.1,31,12,31z
		 M12,56.9H2.9c-1.1,0-1.9,0.7-1.9,1.6c0,0.9,0.8,1.6,1.9,1.6H12c1,0,1.9-0.7,1.9-1.6C13.9,57.6,13.1,56.9,12,56.9z M12,81.2H2.9
		c-1.1,0-1.9,0.7-1.9,1.6c0,0.9,0.8,1.6,1.9,1.6H12c1,0,1.9-0.7,1.9-1.6C13.9,81.9,13.1,81.2,12,81.2z M12,5H2.9C1.8,5,1,5.8,1,6.7
		c0,0.9,0.8,1.6,1.9,1.6H12c1,0,1.9-0.7,1.9-1.6C13.9,5.8,13.1,5,12,5z M12,105.5H2.9c-1.1,0-1.9,0.7-1.9,1.6c0,0.9,0.8,1.6,1.9,1.6
		H12c1,0,1.9-0.7,1.9-1.6C13.9,106.2,13.1,105.5,12,105.5z M120.9,116.9c-0.9,0-1.6,0.8-1.6,1.7v8c0,0.9,0.7,1.7,1.6,1.7
		c0.9,0,1.6-0.8,1.6-1.7v-8C122.5,117.6,121.8,116.9,120.9,116.9z M20.4,116.9c-0.9,0-1.6,0.8-1.6,1.7v8c0,0.9,0.7,1.7,1.6,1.7
		c0.9,0,1.6-0.8,1.6-1.7v-8C22,117.6,21.3,116.9,20.4,116.9z M123.9,103.9H25.6l-0.3-97c0-2.8-1.8-5.1-4.6-5.1
		c-2.8,0-5.1,2.3-5.1,5.1v101.6c0,2.8,2.3,5.1,5.1,5.1h103.2c2.8,0,5.1-2.3,5.1-5.1C129,105.7,126.7,103.9,123.9,103.9z M96.6,116.9
		c-0.9,0-1.6,0.8-1.6,1.7v8c0,0.9,0.7,1.7,1.6,1.7c0.9,0,1.6-0.8,1.6-1.7v-8C98.2,117.6,97.5,116.9,96.6,116.9z M70.7,116.9
		c-0.9,0-1.6,0.8-1.6,1.7v8c0,0.9,0.7,1.7,1.6,1.7s1.6-0.8,1.6-1.7v-8C72.3,117.6,71.6,116.9,70.7,116.9z M46.3,116.9
		c-0.9,0-1.6,0.8-1.6,1.7v8c0,0.9,0.7,1.7,1.6,1.7c0.9,0,1.6-0.8,1.6-1.7v-8C48,117.6,47.2,116.9,46.3,116.9z"/>
	<g>
		<polygon class="st1" points="44.6,88.6 39.1,83.5 68.8,51.6 104.9,50.4 115.4,10.8 122.7,12.7 110.8,57.8 72.2,59.1 		"/>
	</g>
	<path class="st1" d="M49.9,84c1.3,4.5-1.3,9.3-5.9,10.6c-4.5,1.3-9.3-1.3-10.6-5.9c-1.3-4.5,1.3-9.3,5.9-10.6
		C43.9,76.8,48.6,79.4,49.9,84z"/>
	<path class="st1" d="M78.8,53.1c1.3,4.5-1.3,9.3-5.9,10.6c-4.5,1.3-9.3-1.3-10.6-5.9c-1.3-4.5,1.3-9.3,5.9-10.6
		C72.8,46,77.5,48.6,78.8,53.1z"/>
	<path class="st1" d="M115.9,51.4c1.3,4.5-1.3,9.3-5.9,10.6c-4.5,1.3-9.3-1.3-10.6-5.9c-1.3-4.5,1.3-9.3,5.9-10.6
		C109.8,44.2,114.6,46.9,115.9,51.4z"/>
	<path class="st1" d="M127.3,9.4c1.3,4.5-1.3,9.3-5.9,10.6c-4.5,1.3-9.3-1.3-10.6-5.9c-1.3-4.5,1.3-9.3,5.9-10.6
		C121.3,2.3,126,4.9,127.3,9.4z"/>
</g>
</svg>
