<?xml version="1.0" encoding="utf-8"?>
<!-- Generator: Adobe Illustrator 19.2.1, SVG Export Plug-In . SVG Version: 6.00 Build 0)  -->
<svg version="1.1" id="Layer_1" xmlns="http://www.w3.org/2000/svg" xmlns:xlink="http://www.w3.org/1999/xlink" x="0px" y="0px"
	 viewBox="0 0 130 130" style="enable-background:new 0 0 130 130;" xml:space="preserve">
<style type="text/css">
	.st0{fill:none;}
	.st1{fill:#4D4D4D;}
</style>
<rect class="st0" width="130" height="130"/>
<g>
	<path class="st1" d="M120.1,29c-2.2,0.2-4.1-1.8-4.1-4.1l0-3.4L85.3,55.5c-0.7,0.8-1.8,1.3-2.9,1.3c-1.1,0-2.2-0.4-3-1.2l-36-35.4
		L7.8,52.9c-1.7,1.5-4.2,1.4-5.8-0.3c-1.5-1.7-1.4-4.3,0.3-5.8l38.4-35.3c1.6-1.5,4.1-1.4,5.6,0.1l35.7,35.2l27.8-30.7l-3.4,0.3
		c-2.2,0.2-4.2-1.5-4.4-3.7c-0.2-2.3,1.5-4.2,3.7-4.4l13.7-1.2l0.3,0c1,0,2,0.4,2.8,1.1c0.8,0.8,1.3,1.9,1.3,3l0.1,13.8
		C124.1,27.2,122.3,29,120.1,29z"/>
	<path class="st1" d="M14.7,120.9c0,1.2-0.9,2.1-2.1,2.1H3.7c-1.2,0-2.1-0.9-2.1-2.1V75.6c0-1.1,0.9-2.1,2.1-2.1h8.9
		c1.2,0,2.1,0.9,2.1,2.1L14.7,120.9L14.7,120.9z"/>
	<path class="st1" d="M33.7,120.9c0,1.2-0.9,2.1-2.1,2.1h-8.9c-1.2,0-2.1-0.9-2.1-2.1V61.4c0-1.2,0.9-2.1,2.1-2.1h8.9
		c1.1,0,2.1,0.9,2.1,2.1V120.9z"/>
	<path class="st1" d="M52.8,120.9c0,1.2-0.9,2.1-2.1,2.1h-8.9c-1.1,0-2.1-0.9-2.1-2.1V44c0-1.2,0.9-2.1,2.1-2.1h8.9
		c1.2,0,2.1,0.9,2.1,2.1V120.9z"/>
	<path class="st1" d="M71.9,120.9c0,1.2-0.9,2.1-2.1,2.1h-8.9c-1.2,0-2.1-0.9-2.1-2.1V63.1c0-1.1,0.9-2.1,2.1-2.1h8.9
		c1.2,0,2.1,0.9,2.1,2.1V120.9z"/>
	<path class="st1" d="M90.9,120.9c0,1.2-0.9,2.1-2.1,2.1h-8.9c-1.2,0-2.1-0.9-2.1-2.1V75.6c0-1.1,0.9-2.1,2.1-2.1h8.9
		c1.2,0,2.1,0.9,2.1,2.1V120.9z"/>
	<path class="st1" d="M110,120.9c0,1.2-0.9,2.1-2.1,2.1H99c-1.2,0-2.1-0.9-2.1-2.1v-60c0-1.2,0.9-2.1,2.1-2.1h8.9
		c1.2,0,2.1,0.9,2.1,2.1V120.9z"/>
	<path class="st1" d="M129,120.9c0,1.2-0.9,2.1-2.1,2.1H118c-1.2,0-2.1-0.9-2.1-2.1V50c0-1.2,0.9-2.1,2.1-2.1h8.9
		c1.2,0,2.1,0.9,2.1,2.1V120.9z"/>
</g>
</svg>
