<?xml version="1.0" encoding="utf-8"?>
<!-- Generator: Adobe Illustrator 19.2.1, SVG Export Plug-In . SVG Version: 6.00 Build 0)  -->
<svg version="1.1" id="Layer_1" xmlns="http://www.w3.org/2000/svg" xmlns:xlink="http://www.w3.org/1999/xlink" x="0px" y="0px"
	 viewBox="0 0 130 130" style="enable-background:new 0 0 130 130;" xml:space="preserve">
<style type="text/css">
	.st0{fill:none;}
	.st1{fill:#4D4D4D;}
</style>
<rect class="st0" width="130" height="130"/>
<g>
	<path class="st1" d="M124.6,35.2c-2.3-0.2-4.3,1.9-4.3,4.2l0,3.5L88.5,7.7c-0.8-0.9-1.9-1.4-3-1.4c-1.1,0-2.3,0.4-3.1,1.2L45,44.3
		L8.1,10.4c-1.7-1.6-4.4-1.5-6,0.3c-1.6,1.7-1.5,4.4,0.3,6l39.8,36.6c1.7,1.5,4.2,1.5,5.8-0.1l37.1-36.5L114,48.6l-3.5-0.3
		c-2.3-0.2-4.4,1.5-4.6,3.9c-0.2,2.3,1.5,4.4,3.9,4.6L124,58l0.4,0c1.1,0,2.1-0.4,2.9-1.1c0.9-0.8,1.4-1.9,1.4-3.1l0.2-14.3
		C128.8,37.1,126.9,35.2,124.6,35.2z"/>
	<path class="st1" d="M54,121.5c0,1.2-1,2.2-2.2,2.2h-9.2c-1.2,0-2.2-1-2.2-2.2v-48c0-1.2,1-2.2,2.2-2.2h9.2c1.2,0,2.2,1,2.2,2.2
		V121.5z"/>
	<path class="st1" d="M91.5,121.5c0,1.2-1,2.2-2.2,2.2h-9.2c-1.2,0-2.2-1-2.2-2.2V43.9c0-1.2,1-2.2,2.2-2.2h9.2c1.2,0,2.2,1,2.2,2.2
		V121.5z"/>
	<path class="st1" d="M16.5,121.5c0,1.2-1,2.2-2.2,2.2H5.1c-1.2,0-2.2-1-2.2-2.2V47.7c0-1.2,1-2.2,2.2-2.2h9.2c1.2,0,2.2,1,2.2,2.2
		V121.5z"/>
	<path class="st1" d="M129,121.5c0,1.2-1,2.2-2.2,2.2h-9.2c-1.2,0-2.2-1-2.2-2.2V78c0-1.2,1-2.2,2.2-2.2h9.2c1.2,0,2.2,1,2.2,2.2
		V121.5z"/>
	<path class="st1" d="M110.3,121.5c0,1.2-1,2.2-2.2,2.2h-9.2c-1.2,0-2.2-1-2.2-2.2V73.7c0-1.2,1-2.2,2.2-2.2h9.2
		c1.2,0,2.2,1,2.2,2.2V121.5z"/>
	<path class="st1" d="M35.2,121.5c0,1.2-1,2.2-2.2,2.2h-9.2c-1.2,0-2.2-1-2.2-2.2V65.2c0-1.2,1-2.2,2.2-2.2h9.2c1.2,0,2.2,1,2.2,2.2
		V121.5z"/>
	<path class="st1" d="M72.8,121.5c0,1.2-1,2.2-2.2,2.2h-9.2c-1.2,0-2.2-1-2.2-2.2V60.8c0-1.2,1-2.2,2.2-2.2h9.2c1.2,0,2.2,1,2.2,2.2
		V121.5z"/>
</g>
</svg>
