<?xml version="1.0" encoding="utf-8"?>
<!-- Generator: Adobe Illustrator 19.2.1, SVG Export Plug-In . SVG Version: 6.00 Build 0)  -->
<svg version="1.1" id="Layer_1" xmlns="http://www.w3.org/2000/svg" xmlns:xlink="http://www.w3.org/1999/xlink" x="0px" y="0px"
	 viewBox="0 0 130 130" style="enable-background:new 0 0 130 130;" xml:space="preserve">
<style type="text/css">
	.st0{fill:none;}
	.st1{fill:#4D4D4D;}
</style>
<rect class="st0" width="130" height="130"/>
<g>
	<g>
		<path class="st1" d="M113.8,11.9H16.2h-4.3v4.3v63.7v4.3h4.3h97.6h4.3v-4.3V16.2v-4.3C118.1,11.9,113.8,11.9,113.8,11.9z
			 M113.8,79.9H16.2V16.2h97.6C113.8,16.2,113.8,79.9,113.8,79.9z"/>
	</g>
	<path class="st1" d="M4.9,17.5l120.1,0c2.2,0,3.9-1.8,3.9-4c0-2.2-1.8-4-3.9-4L4.9,9.4c-2.2,0-3.9,1.8-3.9,4
		C1,15.7,2.8,17.5,4.9,17.5z M125.1,79.9L5,79.9C2.8,79.9,1,81.7,1,84C1,86.2,2.8,88,5,88l120.1,0c2.2,0,3.9-1.8,3.9-4.1
		C129,81.7,127.2,79.9,125.1,79.9z"/>
	<g>
		<path class="st1" d="M48.8,93.3l-20.7,20.5c-1.5,1.5-1.6,4,0,5.6c0.8,0.8,1.8,1.2,2.8,1.2c1,0,2-0.4,2.8-1.1l20.7-20.5
			c1.5-1.5,1.6-4,0-5.6C52.9,91.8,50.4,91.7,48.8,93.3z"/>
		<path class="st1" d="M81.2,93.3c-1.5-1.5-4-1.5-5.6,0c-1.5,1.5-1.5,4,0,5.6l20.7,20.5c0.8,0.8,1.8,1.1,2.8,1.1c1,0,2-0.4,2.8-1.2
			c1.5-1.5,1.5-4,0-5.6L81.2,93.3z"/>
	</g>
	<g>
		<path class="st1" d="M27.4,69.6L25,67.4l23.8-26.2c0.4-0.4,1-0.6,1.5-0.5l23.5,4.5L99.6,28l1.8,2.7L75.1,48.3
			c-0.4,0.2-0.8,0.3-1.2,0.2l-23.3-4.5L27.4,69.6z"/>
	</g>
	<path class="st1" d="M30.9,68.5c0,2.6-2.1,4.6-4.6,4.6c-2.6,0-4.6-2.1-4.6-4.6c0-2.5,2.1-4.6,4.6-4.6C28.8,63.9,30.9,66,30.9,68.5z
		"/>
	<circle class="st1" cx="50.1" cy="42.4" r="4.6"/>
	<circle class="st1" cx="75.3" cy="45.7" r="4.6"/>
	<circle class="st1" cx="100.4" cy="29.8" r="4.6"/>
</g>
</svg>
