<?xml version="1.0" encoding="utf-8"?>
<!-- Generator: Adobe Illustrator 19.2.1, SVG Export Plug-In . SVG Version: 6.00 Build 0)  -->
<svg version="1.1" id="Layer_1" xmlns="http://www.w3.org/2000/svg" xmlns:xlink="http://www.w3.org/1999/xlink" x="0px" y="0px"
	 viewBox="0 0 130 130" style="enable-background:new 0 0 130 130;" xml:space="preserve">
<style type="text/css">
	.st0{fill:none;}
	.st1{fill:#4D4D4D;}
</style>
<rect class="st0" width="130" height="130"/>
<g>
	<g>
		<path class="st1" d="M12,56.9H2.9c-1,0-1.9,0.7-1.9,1.6c0,0.9,0.9,1.6,1.9,1.6H12c1,0,1.9-0.7,1.9-1.6
			C13.9,57.6,13.1,56.9,12,56.9z M12,31H2.9c-1,0-1.9,0.7-1.9,1.6c0,0.9,0.9,1.6,1.9,1.6H12c1,0,1.9-0.7,1.9-1.6
			C13.9,31.7,13.1,31,12,31z M12,81.2H2.9c-1,0-1.9,0.7-1.9,1.6s0.9,1.6,1.9,1.6H12c1,0,1.9-0.7,1.9-1.6S13.1,81.2,12,81.2z
			 M12,105.5H2.9c-1,0-1.9,0.7-1.9,1.6c0,0.9,0.9,1.6,1.9,1.6H12c1,0,1.9-0.7,1.9-1.6C13.9,106.2,13.1,105.5,12,105.5z M20.4,116.9
			c-0.9,0-1.6,0.8-1.6,1.7v8c0,0.9,0.7,1.7,1.6,1.7c0.9,0,1.6-0.8,1.6-1.7v-8C22,117.6,21.3,116.9,20.4,116.9z M12,5H2.9
			C1.9,5,1,5.8,1,6.7c0,0.9,0.9,1.6,1.9,1.6H12c1,0,1.9-0.7,1.9-1.6C13.9,5.8,13.1,5,12,5z M46.3,116.9c-0.9,0-1.6,0.8-1.6,1.7v8
			c0,0.9,0.7,1.7,1.6,1.7c0.9,0,1.6-0.8,1.6-1.7v-8C48,117.6,47.2,116.9,46.3,116.9z M120.9,116.9c-0.9,0-1.6,0.8-1.6,1.7v8
			c0,0.9,0.7,1.7,1.6,1.7c0.9,0,1.6-0.8,1.6-1.7v-8C122.5,117.6,121.8,116.9,120.9,116.9z M123.9,103.9H25.6l-0.3-97
			c0-2.8-1.8-5.1-4.6-5.1c-2.8,0-5.1,2.3-5.1,5.1v101.6c0,2.8,2.3,5.1,5.1,5.1h103.2c2.8,0,5.1-2.3,5.1-5.1
			C129,105.7,126.7,103.9,123.9,103.9z M70.7,116.9c-0.9,0-1.6,0.8-1.6,1.7v8c0,0.9,0.7,1.7,1.6,1.7c0.9,0,1.6-0.8,1.6-1.7v-8
			C72.3,117.6,71.6,116.9,70.7,116.9z M96.6,116.9c-0.9,0-1.6,0.8-1.6,1.7v8c0,0.9,0.7,1.7,1.6,1.7c0.9,0,1.6-0.8,1.6-1.7v-8
			C98.2,117.6,97.5,116.9,96.6,116.9z"/>
	</g>
	<path class="st1" d="M124.3,31.2l-10.7-11.6c-1-1-2.3-1.6-3.7-1.6c-1.6,0.1-2.8,0.6-3.7,1.6L95.5,31.3c-1.9,2.1-1.8,5.3,0.3,7.2
		c1,0.9,2.2,1.4,3.4,1.4c1.4,0,2.7-0.6,3.7-1.6l0.8-0.9c-3.3,11.8-12.6,11.9-26.3,12c-7.4,0-15.1,0.1-21.9,2.4
		c-19,4.8-19,24.1-19,35.7c0,2.8,2.3,5.1,5.1,5.1c2.8,0,5.1-2.3,5.1-5.1c0-13.4,0.8-23.1,11.7-25.8c5.6-1.9,12.5-1.9,19.1-2
		c14.9-0.1,33.1-0.3,36.9-24.1l2.5,2.7c1.9,2.1,5.1,2.2,7.2,0.2C126.1,36.5,126.2,33.3,124.3,31.2z"/>
</g>
</svg>
