<?xml version="1.0" encoding="utf-8"?>
<!-- Generator: Adobe Illustrator 19.2.1, SVG Export Plug-In . SVG Version: 6.00 Build 0)  -->
<svg version="1.1" id="Layer_1" xmlns="http://www.w3.org/2000/svg" xmlns:xlink="http://www.w3.org/1999/xlink" x="0px" y="0px"
	 viewBox="0 0 130 130" style="enable-background:new 0 0 130 130;" xml:space="preserve">
<metadata><?xpacket begin="﻿" id="W5M0MpCehiHzreSzNTczkc9d"?>
<x:xmpmeta xmlns:x="adobe:ns:meta/" x:xmptk="Adobe XMP Core 5.6-c111 79.158366, 2015/09/25-01:12:00        ">
   <rdf:RDF xmlns:rdf="http://www.w3.org/1999/02/22-rdf-syntax-ns#">
      <rdf:Description rdf:about=""/>
   </rdf:RDF>
</x:xmpmeta>
                                                                                                    
                                                                                                    
                                                                                                    
                                                                                                    
                                                                                                    
                                                                                                    
                                                                                                    
                                                                                                    
                                                                                                    
                                                                                                    
                                                                                                    
                                                                                                    
                                                                                                    
                                                                                                    
                                                                                                    
                                                                                                    
                                                                                                    
                                                                                                    
                                                                                                    
                                                                                                    
                           
<?xpacket end="w"?></metadata>
<style type="text/css">
	.st0{fill:none;}
	.st1{fill:#4D4D4D;}
</style>
<rect class="st0" width="130" height="130"/>
<g>
	<g>
		<path class="st1" d="M7.6,41.2L128,18.3l-2.7-14.6L63.1,15.5l16.4,11.3L68,28.9L51.8,17.6L40,19.9L56.2,31l-11.4,2.1L28.7,22
			l-11.6,2.2l16,11l-11.4,2.1l-15.9-11l-2.7,0.5L1,27.1L3.4,42l-0.1,78.4c0,3.2,2.6,5.9,5.9,5.9h113.9c3.2,0,5.9-2.6,5.9-5.9V41.2
			H7.6z M109,7l16.4,11.3L114,20.4L97.5,9.1L109,7z M74.8,13.3l11.4-2.1l16.4,11.3l-11.4,2.1L74.8,13.3z M104.1,42L90,55.9H78.4
			l14.1-14L104.1,42L104.1,42z M80.5,42L66.4,56H54.8l14.1-14H80.5z M56.9,42L42.8,56H31.2l14.1-14H56.9z M22.2,42h11.6L19.7,56H8.1
			L22.2,42z M127.6,106.1H5.6v-0.6h122V106.1z M127.6,69.7H73.9V87h53.7v0.6H5.6V87h30.3V69.7H5.6v-0.6h122V69.7z M113.5,55.9h-11.6
			L116,42h11.6L113.5,55.9z"/>
		<rect x="36.4" y="69.7" class="st1" width="36.9" height="17.3"/>
	</g>
	<g>
		<rect x="36.4" y="69.7" class="st1" width="36.9" height="17.3"/>
	</g>
</g>
</svg>
