<?xml version="1.0" encoding="utf-8"?>
<!-- Generator: Adobe Illustrator 19.2.1, SVG Export Plug-In . SVG Version: 6.00 Build 0)  -->
<svg version="1.1" id="Layer_1" xmlns="http://www.w3.org/2000/svg" xmlns:xlink="http://www.w3.org/1999/xlink" x="0px" y="0px"
	 viewBox="0 0 130 130" style="enable-background:new 0 0 130 130;" xml:space="preserve">
<style type="text/css">
	.st0{fill:none;}
	.st1{fill:#4D4D4D;}
</style>
<rect class="st0" width="130" height="130"/>
<g>
	<path class="st1" d="M65,1C29.7,1,1,29.7,1,65c0,35.3,28.7,64,64,64s64-28.7,64-64C129,29.7,100.3,1,65,1z M65,121.3
		C33.9,121.3,8.7,96.1,8.7,65C8.7,33.9,33.9,8.7,65,8.7s56.3,25.3,56.3,56.3C121.3,96.1,96.1,121.3,65,121.3z"/>
	<path class="st1" d="M58,63.4h-21c-0.9,0-1.6,0.7-1.6,1.6c0,0.9,0.7,1.6,1.6,1.6h21c0.9,0,1.6-0.7,1.6-1.6
		C59.6,64.1,58.9,63.4,58,63.4z"/>
	<path class="st1" d="M65,23.1c-0.9,0-1.6,0.7-1.6,1.6v37.1c0,0.9,0.7,1.6,1.6,1.6c0.9,0,1.6-0.7,1.6-1.6V24.7
		C66.6,23.8,65.9,23.1,65,23.1z"/>
	<path class="st1" d="M65,55.7c-4.7,0-8.5,3.8-8.5,8.4s3.8,8.4,8.5,8.4s8.4-3.8,8.4-8.4S69.7,55.7,65,55.7z"/>
	<rect x="63.4" y="8.5" class="st1" width="3.2" height="9.7"/>
	<rect x="63.4" y="111.7" class="st1" width="3.2" height="9.7"/>
	<rect x="111.7" y="63.4" class="st1" width="9.7" height="3.2"/>
	<rect x="8.4" y="63.4" class="st1" width="9.7" height="3.2"/>
</g>
</svg>
