<?xml version="1.0" encoding="utf-8"?>
<!-- Generator: Adobe Illustrator 19.2.1, SVG Export Plug-In . SVG Version: 6.00 Build 0)  -->
<svg version="1.1" id="Layer_1" xmlns="http://www.w3.org/2000/svg" xmlns:xlink="http://www.w3.org/1999/xlink" x="0px" y="0px"
	 viewBox="0 0 130 130" style="enable-background:new 0 0 130 130;" xml:space="preserve">
<style type="text/css">
	.st0{fill:none;}
	.st1{fill:#4D4D4D;}
</style>
<rect class="st0" width="130" height="130"/>
<g>
	<path class="st1" d="M26,123c-1.2,1.8-0.7,4.2,1,5.4c0.7,0.5,1.4,0.7,2.2,0.7c1.2,0,2.5-0.6,3.2-1.7l5.3-7.8
		c-2.3-1.2-4.4-2.7-6.5-4.2L26,123z M104,123l-5.2-7.6c-2.1,1.5-4.2,3-6.5,4.2l5.2,7.8c0.7,1.1,2,1.7,3.2,1.7c0.7,0,1.5-0.2,2.2-0.7
		C104.7,127.1,105.2,124.7,104,123z"/>
	<path class="st1" d="M65,13.6c-29.9,0-54.2,24.3-54.2,54.2S35.1,122,65,122s54.2-24.3,54.2-54.2S94.9,13.6,65,13.6z M65,115.5
		c-26.3,0-47.7-21.4-47.7-47.7c0-26.3,21.4-47.7,47.7-47.7c26.3,0,47.7,21.4,47.7,47.7C112.7,94.1,91.3,115.5,65,115.5z"/>
	<path class="st1" d="M88.9,66.4H71.1c-0.8,0-1.4,0.6-1.4,1.4c0,0.8,0.6,1.4,1.4,1.4h17.8c0.8,0,1.4-0.6,1.4-1.4
		C90.2,67,89.6,66.4,88.9,66.4z"/>
	<path class="st1" d="M65,32.2c-0.8,0-1.4,0.6-1.4,1.4V65c0,0.8,0.6,1.4,1.4,1.4c0.8,0,1.4-0.6,1.4-1.4V33.6
		C66.4,32.9,65.8,32.2,65,32.2z"/>
	<path class="st1" d="M65,59.9c-3.9,0-7.2,3.2-7.2,7.2c0,3.9,3.2,7.2,7.2,7.2s7.2-3.2,7.2-7.2C72.2,63.1,68.9,59.9,65,59.9z"/>
	<rect x="63.6" y="19.9" class="st1" width="2.7" height="8.2"/>
	<rect x="63.6" y="107.4" class="st1" width="2.7" height="8.2"/>
	<rect x="60.9" y="66.4" class="st1" width="8.2" height="2.7"/>
	<rect x="17.3" y="66.4" class="st1" width="8.2" height="2.7"/>
	<rect x="104.5" y="66.4" class="st1" width="8.2" height="2.7"/>
	<path class="st1" d="M103,3.8c-8.1-4.5-18.2-3.3-26.9,2.4l39,21.8C115.3,17.6,111.1,8.3,103,3.8z M27,3.8
		c-8.1,4.5-12.4,13.8-12.1,24.2l39-21.8C45.3,0.5,35.2-0.8,27,3.8z"/>
</g>
</svg>
