<?xml version="1.0" encoding="utf-8"?>
<!-- Generator: Adobe Illustrator 19.2.1, SVG Export Plug-In . SVG Version: 6.00 Build 0)  -->
<svg version="1.1" id="Layer_1" xmlns="http://www.w3.org/2000/svg" xmlns:xlink="http://www.w3.org/1999/xlink" x="0px" y="0px"
	 viewBox="0 0 130 130" style="enable-background:new 0 0 130 130;" xml:space="preserve">
<style type="text/css">
	.st0{fill:none;}
	.st1{fill:#4D4D4D;}
</style>
<rect class="st0" width="130" height="130"/>
<g>
	<polygon class="st1" points="53.6,71.2 52.7,70.3 52.7,70.4 53.6,71.2 53.6,129 76.4,129 76.4,71.2 77.3,70.4 77.3,70.3 76.4,71.2 
			"/>
	<path class="st1" d="M75.3,41.9c0-0.4,0-0.8,0-1c-3.5-2.1-4.7-9.7-4.8-9.8v0v0v-7.5h-0.7c0,0,0,0,0-1.4C66.5,18.5,65,1,65,1
		s-1.5,17.5-4.9,21.3c0,1.4,0,1.4,0,1.4h-0.7v7.5v0v0c0,0.1-1.2,7.8-4.8,9.8c0,0.2,0,0.5,0,1H65H75.3z M67.3,25.8
		c0-0.3,0.3-0.6,0.6-0.6c0.3,0,0.6,0.3,0.6,0.6v4.9h-1.1V25.8z M65.8,25.8c0-0.3,0.3-0.6,0.6-0.6c0.3,0,0.6,0.3,0.6,0.6v4.9h-1.1
		V25.8z M62.7,30.6h-1.2v-4.9c0-0.3,0.3-0.6,0.6-0.6c0.3,0,0.6,0.3,0.6,0.6V30.6z M64.2,30.6H63v-4.9c0-0.3,0.3-0.6,0.6-0.6
		c0.3,0,0.6,0.3,0.6,0.6V30.6z M64.4,25.8c0-0.3,0.3-0.6,0.6-0.6c0.3,0,0.6,0.3,0.6,0.6v4.9h-1.2V25.8z"/>
	<path class="st1" d="M75.3,48.2c0,0,0-3.4,0-5.6H65H54.7c0,2.2,0,5.6,0,5.6h-2v22.1h24.5V48.2H75.3z M68.2,45.1
		c0-0.4,0.4-0.8,0.8-0.8c0.4,0,0.8,0.4,0.8,0.8v3.1h-1.6C68.2,48.2,68.2,45.1,68.2,45.1z M66.2,45.1c0-0.4,0.4-0.8,0.8-0.8
		c0.4,0,0.8,0.4,0.8,0.8v3.1h-1.6V45.1z M64.2,45.1c0-0.4,0.4-0.8,0.8-0.8s0.8,0.4,0.8,0.8v3.1h-1.6V45.1z M62.2,45.1
		c0-0.4,0.4-0.8,0.8-0.8c0.4,0,0.8,0.4,0.8,0.8v3.1h-1.6V45.1z M60.3,45.1c0-0.4,0.4-0.8,0.8-0.8c0.4,0,0.8,0.4,0.8,0.8v3.1h-1.6
		V45.1z M58.3,45.1c0-0.4,0.4-0.8,0.8-0.8c0.4,0,0.8,0.4,0.8,0.8v3.1h-1.6C58.3,48.2,58.3,45.1,58.3,45.1z M65,65.9
		c-3.3,0-5.9-2.6-5.9-5.9c0-3.3,2.6-5.9,5.9-5.9c3.3,0,5.9,2.6,5.9,5.9C70.9,63.3,68.3,65.9,65,65.9z M71.7,48.2h-1.6v-3.1
		c0-0.4,0.4-0.8,0.8-0.8s0.8,0.4,0.8,0.8C71.7,45.1,71.7,48.2,71.7,48.2z"/>
</g>
</svg>
