<?xml version="1.0" encoding="utf-8"?>
<!-- Generator: Adobe Illustrator 19.2.1, SVG Export Plug-In . SVG Version: 6.00 Build 0)  -->
<svg version="1.1" id="Layer_1" xmlns="http://www.w3.org/2000/svg" xmlns:xlink="http://www.w3.org/1999/xlink" x="0px" y="0px"
	 viewBox="0 0 130 130" style="enable-background:new 0 0 130 130;" xml:space="preserve">
<style type="text/css">
	.st0{fill:none;}
	.st1{fill:#4D4D4D;}
</style>
<rect class="st0" width="130" height="130"/>
<path class="st1" d="M112.9,57.5c0.1-0.8,0.1-1.6,0.1-2.5c0-17.3-14-31.3-31.3-31.3c-11.6,0-21.8,6.4-27.2,15.8
	c-4-3.3-9.2-5.3-14.9-5.3c-12.9,0-23.4,10.5-23.4,23.4l0,0.2C7.3,61.5,1,70.6,1,81.2c0,13.9,10.7,25.1,23.8,25.1h80.4
	c13.1,0,23.8-11.2,23.8-25.1C129,70.2,122.3,60.9,112.9,57.5z M60.7,93.4l-7.4,1.9c-1.2,0.3-1.6-0.3-1.1-1.4l2-3.6
	c-6.3-4-10.2-10.9-10.2-18.6c0-8.7,5.1-16.6,13-20.2c0.3-0.1,0.5-0.2,0.8-0.2c0.7,0,1.4,0.4,1.7,1.1c0.4,1,0,2.1-1,2.5
	c-6.5,3-10.8,9.5-10.8,16.7c0,6.2,3.1,11.9,8.2,15.2l1.9-3.5c0.6-1,1.4-1,1.7,0.2l2.4,7.2C62.5,91.9,61.9,93.1,60.7,93.4z
	 M74.2,92.9c-0.3,0.1-0.5,0.2-0.8,0.2c-0.7,0-1.4-0.4-1.7-1.1c-0.4-1,0-2.1,1-2.5c6.5-3,10.8-9.5,10.8-16.7c0-6.2-3.1-11.9-8.2-15.2
	l-1.9,3.5c-0.6,1-1.3,1-1.7-0.2l-2.4-7.2c-0.4-1.1,0.3-2.3,1.4-2.6l7.4-1.9c1.2-0.3,1.6,0.3,1.1,1.4l-2,3.6
	c6.3,4,10.2,10.9,10.2,18.6C87.2,81.4,82.1,89.4,74.2,92.9z"/>
</svg>
