<?xml version="1.0" encoding="utf-8"?>
<!-- Generator: Adobe Illustrator 19.2.1, SVG Export Plug-In . SVG Version: 6.00 Build 0)  -->
<svg version="1.1" id="Layer_1" xmlns="http://www.w3.org/2000/svg" xmlns:xlink="http://www.w3.org/1999/xlink" x="0px" y="0px"
	 viewBox="0 0 130 130" style="enable-background:new 0 0 130 130;" xml:space="preserve">
<style type="text/css">
	.st0{fill:none;}
	.st1{fill:#4D4D4D;}
</style>
<rect class="st0" width="130" height="130"/>
<g>
	<path class="st1" d="M112.9,57.5c0.1-0.8,0.1-1.7,0.1-2.5c0-17.3-14-31.3-31.3-31.3c-11.6,0-21.8,6.4-27.2,15.8
		c-4.1-3.3-9.2-5.3-14.9-5.3c-12.9,0-23.4,10.5-23.4,23.4l0,0.2C7.3,61.5,1,70.6,1,81.2c0,13.9,10.7,25.1,23.8,25.1h80.4
		c13.1,0,23.8-11.2,23.8-25.1C129,70.2,122.3,60.9,112.9,57.5z"/>
</g>
</svg>
