<?xml version="1.0" encoding="utf-8"?>
<!-- Generator: Adobe Illustrator 19.2.1, SVG Export Plug-In . SVG Version: 6.00 Build 0)  -->
<svg version="1.1" id="Layer_1" xmlns="http://www.w3.org/2000/svg" xmlns:xlink="http://www.w3.org/1999/xlink" x="0px" y="0px"
	 viewBox="0 0 130 130" style="enable-background:new 0 0 130 130;" xml:space="preserve">
<style type="text/css">
	.st0{fill:none;}
	.st1{fill:#4D4D4D;}
</style>
<rect class="st0" width="130" height="130"/>
<g>
	<g>
		<g>
			<path class="st1" d="M4.1,16.7v87.9c0,3.4,2.8,6.3,6.3,6.3H40c3.4,0,6.3-2.8,6.3-6.3V16.7h3.1v93.6c0,5.2-4.2,9.4-9.4,9.4H10.4
				c-5.2,0-9.4-4.2-9.4-9.4V16.7H4.1z"/>
			<path class="st1" d="M40,109.3c2.6,0,4.7-2.1,4.7-4.7V49.4h-39v55.3c0,2.6,2.1,4.7,4.7,4.7L40,109.3L40,109.3z"/>
		</g>
		<g>
			<path class="st1" d="M128.9,31.3c-1-12.5-12-21.9-24.5-20.8c-12.5,1-21.9,12-20.8,24.5c1,12.5,12,21.9,24.5,20.8
				C120.6,54.8,129.9,43.8,128.9,31.3z M119.5,19.9c0.6,0,1.3,0.2,1.8,0.9l3.8,7.4c0.4,1.3-0.4,2.5-1.8,2.6l-12.3,1
				c-1.4,0.1-1.8-0.7-0.9-1.7l8-9.4C118.5,20.2,119,19.9,119.5,19.9z M93.9,18.1l7.4-3.8c0.2-0.1,0.3-0.1,0.5-0.1
				c1.1-0.1,2,0.7,2.1,1.9l1,12.3c0.1,0.8-0.2,1.3-0.6,1.4c-0.3,0-0.7-0.1-1.1-0.5l-9.4-8C92.7,20.4,92.7,19,93.9,18.1z M89.4,23.3
				c0.4-0.7,1-1.1,1.6-1.1c0.5,0,1,0.1,1.5,0.5l9.4,8c1.1,0.9,0.8,1.7-0.6,1.8l-12.3,1c-1.4,0.1-2.4-0.9-2.2-2.3L89.4,23.3z
				 M93,46.4c-0.6,0.1-1.3-0.2-1.8-0.9l-3.8-7.4c-0.4-1.3,0.4-2.5,1.8-2.6l12.3-1c1.4-0.1,1.8,0.7,0.9,1.7l-8,9.4
				C94,46.1,93.5,46.3,93,46.4z M104.9,52.5c-0.2,0-0.3,0-0.5,0l-8-2.6c-1.2-0.6-1.5-2-0.6-3.1l8-9.4c0.3-0.4,0.7-0.6,1-0.6
				c0.5,0,0.8,0.4,0.9,1.2l1,12.3C106.8,51.5,106,52.4,104.9,52.5z M106.8,28.3l-1-12.3c-0.1-1.2,0.7-2.1,1.8-2.2c0.2,0,0.3,0,0.5,0
				l8,2.6c1.2,0.6,1.5,2,0.6,3.1l-8,9.4c-0.4,0.4-0.7,0.6-1,0.6C107.2,29.5,106.9,29.1,106.8,28.3z M118.6,48.1l-7.4,3.8
				c-0.2,0.1-0.4,0.1-0.5,0.1c-1.1,0.1-2-0.7-2.1-1.9l-1-12.3c-0.1-0.8,0.2-1.3,0.7-1.4c0.3,0,0.7,0.1,1.1,0.5l9.4,8
				C119.8,45.9,119.7,47.3,118.6,48.1z M123,42.9c-0.4,0.7-1,1.1-1.6,1.1c-0.5,0-1-0.1-1.5-0.5l-9.4-8c-1.1-0.9-0.8-1.7,0.6-1.8
				l12.3-1c1.4-0.1,2.4,0.9,2.2,2.3L123,42.9z"/>
			<path class="st1" d="M72.6,74.1l33.7-41H31.4l33.7,41l1.3,39.1l-16.7,6.4H88l-16.7-6.4L72.6,74.1z M48,46.3h41.6
				c0,0-15.7,20.4-20.8,20.4C63.7,66.7,48,46.3,48,46.3z"/>
		</g>
	</g>
</g>
</svg>
