<?xml version="1.0" encoding="utf-8"?>
<!-- Generator: Adobe Illustrator 19.2.1, SVG Export Plug-In . SVG Version: 6.00 Build 0)  -->
<svg version="1.1" id="Layer_1" xmlns="http://www.w3.org/2000/svg" xmlns:xlink="http://www.w3.org/1999/xlink" x="0px" y="0px"
	 viewBox="0 0 130 130" style="enable-background:new 0 0 130 130;" xml:space="preserve">
<style type="text/css">
	.st0{fill:none;}
	.st1{fill:#4D4D4D;}
</style>
<rect class="st0" width="130" height="130"/>
<g>
	<path class="st1" d="M65.3,1C30,0.8,1.2,29.3,1,64.7s28.3,64.2,63.7,64.3c35.3,0.2,64.1-28.3,64.3-63.7C129.2,30,100.7,1.2,65.3,1z
		 M65.3,117.2C36.5,117.4,13,94.1,12.8,65.3C12.6,36.5,35.9,13,64.7,12.8c28.8-0.2,52.3,23.1,52.5,51.9
		C117.4,93.5,94.1,117,65.3,117.2z"/>
	<g>
		<g>
			<g>
				<path class="st1" d="M67.4,102.4l-0.2,0c-0.1-1.1-1.1-2.2-2.3-2.2c-0.7,0-1.3,0.3-1.3,1.1c0,1.6,4.4,1.7,4.4,4.4
					c0,1.5-1.3,2.5-2.7,2.5c-0.6,0-1-0.1-1.6-0.4c-0.1,0-0.3-0.1-0.4-0.1c-0.3,0-0.5,0.2-0.6,0.5h-0.2l0-3h0.2
					c0.2,1.3,1.2,2.6,2.6,2.6c0.7,0,1.5-0.4,1.4-1.2c0-1.9-4.3-1.8-4.3-4.5c0-1.4,1.2-2.3,2.5-2.3c0.6,0,1,0.1,1.5,0.4
					c0.2,0.1,0.4,0.2,0.5,0.2c0.3,0,0.4-0.3,0.4-0.6h0.2L67.4,102.4z"/>
			</g>
		</g>
		<g>
			<g>
				<path class="st1" d="M22,59.5c0,0.6,0.6,0.7,1.2,1l7.2,2.7v0.2L25,65.5l5.5,2.3l0,0.2l-7.1,2.9c-0.7,0.3-1.3,0.5-1.3,1.1h-0.2
					l0-3.7h0.2c0,0.3,0.1,0.7,0.5,0.7c0.2,0,0.5-0.1,0.7-0.2l4.3-1.8l-3.2-1.3l-1.1,0.4c-0.8,0.3-1.2,0.5-1.2,1.3h-0.2l0-4.1H22
					c0,0.4,0,0.9,0.5,0.9c0.2,0,0.5-0.1,0.7-0.2l4.2-1.6l-3.5-1.3c-0.3-0.1-0.9-0.4-1.3-0.4c-0.5,0-0.6,0.4-0.6,0.8h-0.2l0-2.2
					C21.8,59.5,22,59.5,22,59.5z"/>
			</g>
		</g>
		<g>
			<g>
				<path class="st1" d="M67,26.5L67,26.5l0-3.7c0-0.7-0.3-1-1.1-1l0-0.2l2.7,0v0.2c-0.8,0-1.1,0.3-1.1,1l0,6.9h-0.2l-5.4-6.5h0
					l0,5.2c0,0.7,0.3,1,1.1,1l0,0.2l-2.7,0v-0.2c0.8,0,1.1-0.3,1.1-1l0-5.8c-0.4-0.5-0.6-0.7-1.2-0.7v-0.2l2.8,0L67,26.5z"/>
			</g>
		</g>
		<g>
			<g>
				<path class="st1" d="M104.8,64.7c0,1.7,1,1.8,2.3,2v0.3l-5.1,0l0-0.3c1.3-0.2,2.3-0.4,2.3-2.1l-2.6,0c-1.2,0-1.5,0-1.5,1
					c0,1.4,0,3.1,2.5,3.8l0,0.3l-3-0.4l0-8.3l0.3,0c0,1.4,0.4,1.4,1.6,1.4l6,0c1.2,0,1.6,0,1.5-1.4h0.3l0,8l-2.8,0v-0.3
					c2.1-0.4,2.3-1.4,2.3-3.3l0-0.8L104.8,64.7z"/>
			</g>
		</g>
		<g>
			<path class="st1" d="M48.9,65.5c0-8.9,7.1-16.1,15.9-16.1l0,0c8.9-0.1,16.1,7.1,16.1,15.9l0,0C81,74.2,73.9,81.4,65,81.5l0,0
				C56.2,81.5,49,74.4,48.9,65.5L48.9,65.5z M49.8,65.5c0.1,8.4,6.9,15.2,15.3,15.1l0,0c8.4-0.1,15.1-6.9,15.1-15.3l0,0
				c-0.1-8.4-6.9-15.1-15.3-15.1l0,0C56.5,50.3,49.7,57.1,49.8,65.5L49.8,65.5z"/>
			<path class="st1" d="M64.8,49.4c2.1,0,4.1,0.4,6,1.2l-6-18.8L59,50.6C60.8,49.8,62.7,49.4,64.8,49.4z"/>
			<path class="st1" d="M54,54.2c0.8-0.8,1.6-1.3,2.6-1.7l-8.9-4.6l4.7,8.8C52.7,55.8,53.3,55,54,54.2z"/>
			<path class="st1" d="M76.4,76.2c-0.8,0.8-1.6,1.3-2.6,1.7l8.9,4.6l-4.7-8.8C77.7,74.7,77.1,75.5,76.4,76.2z"/>
			<path class="st1" d="M53.9,76.7c-0.8-0.8-1.3-1.6-1.7-2.5L47.6,83l8.8-4.7C55.5,78,54.7,77.5,53.9,76.7z"/>
			<path class="st1" d="M75.9,54.3c0.8,0.8,1.3,1.6,1.7,2.6l4.6-8.9l-8.8,4.7C74.4,53,75.2,53.6,75.9,54.3z"/>
			<path class="st1" d="M65.2,81.4c-2.1,0-4.1-0.4-6-1.2l6,18.8l5.7-18.8C69.1,81,67.2,81.4,65.2,81.4z"/>
			<path class="st1" d="M49.4,65.6c0-2.1,0.4-4.1,1.2-6l-18.8,6l18.8,5.7C49.8,69.6,49.4,67.7,49.4,65.6z"/>
			<path class="st1" d="M80.6,65.2c0,2.1-0.4,4.1-1.2,6l18.8-6l-18.8-5.7C80.2,61.3,80.6,63.2,80.6,65.2z"/>
		</g>
		<polygon class="st1" points="63.3,117.3 65.3,110.3 67.4,117.2 		"/>
		<polygon class="st1" points="66.8,12.7 64.8,19.7 62.7,12.8 		"/>
		<polygon class="st1" points="12.6,63.7 19.6,65.7 12.6,67.8 		"/>
		<polygon class="st1" points="117.5,66.9 110.5,64.9 117.5,62.8 		"/>
	</g>
	<g>
		<path class="st1" d="M61.6,67.8C60,66,60.2,63.2,62,61.6c1.8-1.6,4.6-1.4,6.2,0.4c1.6,1.8,1.4,4.6-0.4,6.2l1,1.2l32.7-36.6
			L61,60.4v0L28.3,97l40.6-27.6l-1-1.2C66,69.8,63.2,69.6,61.6,67.8z"/>
		<polygon class="st1" points="67.8,68.2 67.4,67.7 67.4,67.7 67.4,67.7 67.8,68.2 67.8,68.2 		"/>
		<path class="st1" d="M67.1,63c-0.5-0.6-1.3-1-2.2-1c-0.7,0-1.4,0.3-1.9,0.7c-0.6,0.5-0.9,1.2-1,2c0,0.8,0.2,1.5,0.7,2.1
			c1,1.1,2.9,1.3,4.1,0.3l-3-3.4l3,3.4c0.6-0.5,0.9-1.2,1-2C67.8,64.3,67.6,63.6,67.1,63z"/>
		<polygon class="st1" points="66.8,67.1 66.8,67.1 66.8,67.1 67.1,67.4 67.1,67.4 		"/>
	</g>
</g>
</svg>
