<?xml version="1.0" encoding="utf-8"?>
<!-- Generator: Adobe Illustrator 19.2.1, SVG Export Plug-In . SVG Version: 6.00 Build 0)  -->
<svg version="1.1" id="Layer_1" xmlns="http://www.w3.org/2000/svg" xmlns:xlink="http://www.w3.org/1999/xlink" x="0px" y="0px"
	 viewBox="0 0 130 130" style="enable-background:new 0 0 130 130;" xml:space="preserve">
<style type="text/css">
	.st0{fill:none;}
	.st1{fill:#4D4D4D;}
</style>
<rect class="st0" width="130" height="130"/>
<g>
	<path class="st1" d="M123.8,102.6h-14.9V26.9l6.9-6.9c2-2,2-5.4,0-7.4c-2-2-5.3-2-7.4,0l-6.7,6.8H27V8.2c0-2.9-2.3-5.2-5.2-5.2
		s-5.2,2.3-5.2,5.2v11.2H6.2c-2.9,0-5.2,2.3-5.2,5.2c0,2.9,2.3,5.2,5.2,5.2h10.3v78c0,2.9,2.3,5.2,5.2,5.2h76.7v8.7
		c0,2.9,2.3,5.2,5.2,5.2c2.9,0,5.2-2.3,5.2-5.2v-8.7h14.9c2.9,0,5.2-2.3,5.2-5.2C129,105,126.7,102.6,123.8,102.6z M27,29.9h64.2
		L27,94.5V29.9z M98.4,102.6H33.6l64.9-65.2V102.6z"/>
</g>
</svg>
