<?xml version="1.0" encoding="utf-8"?>
<!-- Generator: Adobe Illustrator 19.2.1, SVG Export Plug-In . SVG Version: 6.00 Build 0)  -->
<svg version="1.1" id="Layer_1" xmlns="http://www.w3.org/2000/svg" xmlns:xlink="http://www.w3.org/1999/xlink" x="0px" y="0px"
	 viewBox="0 0 130 130" style="enable-background:new 0 0 130 130;" xml:space="preserve">
<style type="text/css">
	.st0{fill:none;}
	.st1{fill:#4D4D4D;}
</style>
<rect class="st0" width="130" height="130"/>
<g>
	<path class="st1" d="M107.2,94.8c-9.7,6-24.8,9.7-42.1,9.7c-17.2,0-32.2-3.7-41.9-9.6l-0.5,0c-3.6,2.6-7.7,6.6-7.7,11.7
		C15,118.8,37.9,129,65,129s50.1-10.2,50.1-22.3C115.1,101.5,111,97.4,107.2,94.8z"/>
	<path class="st1" d="M107.2,67c-9.7,6-24.8,9.7-42.1,9.7c-17.2,0-32.2-3.7-41.9-9.6h-0.5c-3.6,2.6-7.7,6.6-7.7,11.7
		C15,91,37.9,101.2,65,101.2s50.1-10.2,50.1-22.3C115.1,73.7,110.9,69.6,107.2,67z"/>
	<path class="st1" d="M107.2,39.2c-9.7,6-24.8,9.7-42.1,9.7c-17.3,0-32.4-3.8-42.1-9.7c-3.7,2.6-7.9,6.7-7.9,11.9
		C15,63.2,37.9,73.4,65,73.4s50.1-10.2,50.1-22.3C115.1,45.9,111,41.8,107.2,39.2z"/>
	<path class="st1" d="M65,1C37.9,1,15,11.2,15,23.3S37.9,45.6,65,45.6s50.1-10.2,50.1-22.3S92.2,1,65,1z"/>
	<path class="st1" d="M12,75.9c0.7-2.8,2.3-5.6,4.8-8.1v-5.6c-2.4-2.5-4.1-5.2-4.8-8V75.9z M12,48.1c0.7-2.8,2.3-5.5,4.8-8.1v-5.6
		c-2.4-2.5-4.1-5.2-4.8-8V48.1z M12,103.7c0.7-2.8,2.3-5.6,4.8-8.1V90c-2.4-2.5-4.1-5.2-4.8-8V103.7z M113.2,67.7
		c2.4,2.4,4,5.1,4.8,7.8V54.4c-0.7,2.8-2.4,5.4-4.8,7.9V67.7z M113.2,95.5c2.4,2.4,4,5.1,4.8,7.8V82.2c-0.7,2.8-2.4,5.4-4.8,7.9
		V95.5z M113.2,34.5v5.4c2.4,2.5,4,5.1,4.8,7.8V26.6C117.2,29.4,115.6,32.1,113.2,34.5z"/>
</g>
</svg>
