<?xml version="1.0" encoding="utf-8"?>
<!-- Generator: Adobe Illustrator 19.2.1, SVG Export Plug-In . SVG Version: 6.00 Build 0)  -->
<svg version="1.1" id="Layer_1" xmlns="http://www.w3.org/2000/svg" xmlns:xlink="http://www.w3.org/1999/xlink" x="0px" y="0px"
	 viewBox="0 0 130 130" style="enable-background:new 0 0 130 130;" xml:space="preserve">
<style type="text/css">
	.st0{fill:none;}
	.st1{fill:#4D4D4D;}
</style>
<rect class="st0" width="130" height="130"/>
<g>
	<path class="st1" d="M124.8,30.5H5.2c-2.3,0-4.2,1.9-4.2,4.2v86.7c0,2.3,1.9,4.2,4.2,4.2h119.6c2.3,0,4.2-1.9,4.2-4.2V34.7
		C129,32.4,127.1,30.5,124.8,30.5z"/>
	<path class="st1" d="M21.1,12.5h91c2.1,0,3.7-1.8,3.7-4.1c0-2.3-1.7-4.1-3.7-4.1h-91c-2.1,0-3.8,1.8-3.8,4.1
		C17.4,10.7,19.1,12.5,21.1,12.5z M120.4,17.4H11.3c-2,0-3.7,1.8-3.7,4.1c0,2.3,1.7,4.1,3.7,4.1h109.1c2,0,3.7-1.8,3.7-4.1
		C124.1,19.2,122.4,17.4,120.4,17.4z"/>
</g>
</svg>
