<?xml version="1.0" encoding="utf-8"?>
<!-- Generator: Adobe Illustrator 19.2.1, SVG Export Plug-In . SVG Version: 6.00 Build 0)  -->
<svg version="1.1" id="Layer_1" xmlns="http://www.w3.org/2000/svg" xmlns:xlink="http://www.w3.org/1999/xlink" x="0px" y="0px"
	 viewBox="0 0 130 130" style="enable-background:new 0 0 130 130;" xml:space="preserve">
<style type="text/css">
	.st0{fill:none;}
	.st1{fill:#4D4D4D;}
</style>
<rect class="st0" width="130" height="130"/>
<g>
	<path class="st1" d="M125,34.1H23.1c-2.2,0-4,1.8-4,4v73.3c0,2.2,1.8,4,4,4H125c2.2,0,4-1.8,4-4V38.1C129,35.9,127.2,34.1,125,34.1
		z"/>
	<path class="st1" d="M106.9,14.6H5c-2.2,0-4,1.8-4,4v73.3c0,2.2,1.8,4,4,4H15V35.2c0-2.2,1.8-4,4-4h91.9V18.6
		C110.9,16.4,109.1,14.6,106.9,14.6z"/>
</g>
</svg>
