<?xml version="1.0" encoding="utf-8"?>
<!-- Generator: Adobe Illustrator 19.2.1, SVG Export Plug-In . SVG Version: 6.00 Build 0)  -->
<svg version="1.1" id="Layer_1" xmlns="http://www.w3.org/2000/svg" xmlns:xlink="http://www.w3.org/1999/xlink" x="0px" y="0px"
	 viewBox="0 0 130 130" style="enable-background:new 0 0 130 130;" xml:space="preserve">
<style type="text/css">
	.st0{fill:none;}
	.st1{fill:#4C4C4C;}
</style>
<rect class="st0" width="130" height="130"/>
<g id="Shape_22_copy_2_">
	<path class="st1" d="M74.9,54.1c-5.4-1-11.6-1.3-18.1-0.2l13.6,27.6L129,64.6c0,0-21.3-33.4-84.7-22.6c-0.4,0.1-0.7,0.1-1.1,0.2
		L37,29.6l-18.3,2.1L26.2,47c-38.5,15.9-21.4,53.4-21.4,53.4l58.8-16.9L47.4,50.7c29-8.3,53.2,8.7,53.2,8.7l-19.9,5.4L74.9,54.1z
		 M20.7,80.9c0,0-5.7-12.5,10.8-23.2l8.8,17.9L20.7,80.9z"/>
</g>
</svg>
