<?xml version="1.0" encoding="utf-8"?>
<!-- Generator: Adobe Illustrator 19.2.1, SVG Export Plug-In . SVG Version: 6.00 Build 0)  -->
<svg version="1.1" id="Layer_1" xmlns="http://www.w3.org/2000/svg" xmlns:xlink="http://www.w3.org/1999/xlink" x="0px" y="0px"
	 viewBox="0 0 130 130" style="enable-background:new 0 0 130 130;" xml:space="preserve">
<style type="text/css">
	.st0{fill:none;}
	.st1{fill:#4C4C4C;}
</style>
<rect class="st0" width="130" height="130"/>
<g id="Digg_icon_2_">
	<path class="st1" d="M20.2,43.3H1v42.1h32c0,0,0-8.6,0-19.2c0-17,0-39,0-39H20.2V43.3z M20.2,71.3h-6.4V55.5h6.4V71.3z M38.9,85.4
		h11.6V44.6H38.9V85.4z M97.2,41.7v41.8h19.1V90H97.2v12.9H129V41.7C129,41.7,97.2,41.7,97.2,41.7z M116.2,71.3h-6.4V55.5h6.4V71.3z
		 M59.1,83.6h19.1V90H59.1v12.9h31.8V41.7H59.1V83.6z M71.4,55.5h6.4v15.8h-6.4V55.5z M38.9,35.9h11.6v-8.8H38.9V35.9z"/>
</g>
</svg>
