<?xml version="1.0" encoding="utf-8"?>
<!-- Generator: Adobe Illustrator 19.2.1, SVG Export Plug-In . SVG Version: 6.00 Build 0)  -->
<svg version="1.1" id="Layer_1" xmlns="http://www.w3.org/2000/svg" xmlns:xlink="http://www.w3.org/1999/xlink" x="0px" y="0px"
	 viewBox="0 0 130 130" style="enable-background:new 0 0 130 130;" xml:space="preserve">
<style type="text/css">
	.st0{fill:none;}
	.st1{fill:#4D4D4D;}
</style>
<rect class="st0" width="130" height="130"/>
<path class="st1" d="M65,14.1c-28.1,0-50.9,22.8-50.9,50.9c0,28.1,22.8,50.9,50.9,50.9c28.1,0,50.9-22.8,50.9-50.9
	C115.9,36.9,93.1,14.1,65,14.1z M73.9,87.6c-1.5,1.4-3.4,2.3-5.7,2.7v3.5h-6.4v-3.7c-3-0.8-5.3-2.6-7-5.4c-1.4-2.4-2.2-5.2-2.4-8.4
	l7.3-0.5c0.3,3,1.1,5.1,2.3,6.3c0.9,1,2,1.5,3.1,1.4c1.7-0.1,3-0.9,4-2.4c0.5-0.8,0.8-1.9,0.8-3.3c0-2.1-0.9-4.1-2.8-6.2
	c-1.5-1.4-3.8-3.5-6.8-6.4c-2.3-2.2-4-4.3-5.1-6.1c-1.3-2.3-2-4.8-2-7.5c0-2.6,0.6-5,1.8-7.1c1.5-2.7,3.7-4.3,6.7-5.1v-3.3h6.4v3.3
	c2,0.4,3.7,1.3,5.1,2.6c2.4,2.2,3.7,5.1,3.9,8.6l-7.3,1.3c-0.2-2-0.8-3.6-1.8-4.9c-0.6-0.8-1.6-1.2-3-1.2c-1.4,0-2.4,0.6-3.2,1.8
	c-0.6,1-0.9,2.2-0.9,3.7c0,2.3,1,4.7,3,7.1c0.7,0.9,1.8,1.9,3.3,3.2c1.8,1.4,2.9,2.5,3.5,3.1c1.9,1.9,3.3,3.8,4.3,5.5
	c1.5,2.6,2.2,5,2.3,7.2C77.6,81.8,76.4,85.2,73.9,87.6z M65,1C29.7,1,1,29.7,1,65c0,35.3,28.7,64,64,64c35.3,0,64-28.7,64-64
	C129,29.7,100.3,1,65,1z M65,120c-30.3,0-55-24.7-55-55c0-30.3,24.7-55,55-55c30.3,0,55,24.7,55,55C120,95.3,95.3,120,65,120z"/>
</svg>
