<?xml version="1.0" encoding="utf-8"?>
<!-- Generator: Adobe Illustrator 19.2.1, SVG Export Plug-In . SVG Version: 6.00 Build 0)  -->
<svg version="1.1" id="Layer_1" xmlns="http://www.w3.org/2000/svg" xmlns:xlink="http://www.w3.org/1999/xlink" x="0px" y="0px"
	 viewBox="0 0 130 130" style="enable-background:new 0 0 130 130;" xml:space="preserve">
<style type="text/css">
	.st0{fill:none;}
	.st1{fill:#4D4D4D;}
</style>
<rect class="st0" width="130" height="130"/>
<g>
	<g>
		<rect x="60.2" y="14" class="st1" width="7.8" height="18"/>
		<rect x="31.2" y="14" class="st1" width="7.8" height="18"/>
		<rect x="16.7" y="14" class="st1" width="7.8" height="18"/>
		<rect x="45.7" y="14" class="st1" width="7.8" height="18"/>
		<path class="st1" d="M94.9,14h-5.6v18h5.6c1.4,0,2.6-1.1,2.6-2.5V16.5C97.4,15.1,96.3,14,94.9,14z"/>
		<path class="st1" d="M10,14H4.4c-1.4,0-2.5,1.1-2.5,2.5v12.9C1.9,30.9,3,32,4.4,32H10V14z"/>
		<rect x="74.7" y="14" class="st1" width="7.8" height="18"/>
	</g>
	<g>
		<path class="st1" d="M72.7,43v-8.3h-7.8v13.9C67.3,46.4,69.9,44.5,72.7,43z"/>
		<path class="st1" d="M102.1,38.9v-1.7c0-1.4-1.2-2.5-2.6-2.5h-5.6v3.3C96.7,38,99.5,38.3,102.1,38.9z"/>
		<path class="st1" d="M87.2,38.3v-3.6h-7.8v5.4C81.9,39.2,84.5,38.6,87.2,38.3z"/>
		<path class="st1" d="M6.5,37.2v12.9c0,1.4,1.1,2.5,2.5,2.5h5.6v-18H9.1C7.7,34.6,6.5,35.8,6.5,37.2z"/>
		<rect x="50.4" y="34.6" class="st1" width="7.8" height="18"/>
		<rect x="35.9" y="34.6" class="st1" width="7.8" height="18"/>
		<rect x="21.4" y="34.6" class="st1" width="7.8" height="18"/>
	</g>
	<g>
		<rect x="17.1" y="55.3" class="st1" width="7.8" height="18"/>
		<path class="st1" d="M2.3,57.8v12.9c0,1.4,1.1,2.5,2.5,2.5h5.6v-18H4.8C3.4,55.3,2.3,56.4,2.3,57.8z"/>
		<rect x="31.6" y="55.3" class="st1" width="7.8" height="18"/>
		<path class="st1" d="M54,64v-8.7h-7.8v18h5.3C51.9,70.1,52.8,67,54,64z"/>
	</g>
	<g>
		<path class="st1" d="M8.9,78.5v12.9c0,1.4,1.1,2.5,2.5,2.5h5.6v-18h-5.6C10.1,75.9,8.9,77.1,8.9,78.5z"/>
		<rect x="23.8" y="75.9" class="st1" width="7.8" height="18"/>
		<rect x="38.3" y="75.9" class="st1" width="7.8" height="18"/>
	</g>
	<g>
		<rect x="30.4" y="96.6" class="st1" width="7.8" height="18"/>
		<path class="st1" d="M1,99.1v12.9c0,1.4,1.1,2.5,2.5,2.5h5.6v-18H3.5C2.1,96.6,1,97.7,1,99.1z"/>
		<rect x="15.9" y="96.6" class="st1" width="7.8" height="18"/>
		<rect x="44.9" y="96.6" class="st1" width="7.8" height="18"/>
		<path class="st1" d="M59.4,105.1v9.5h7.8V113C64.2,110.7,61.6,108.1,59.4,105.1z"/>
	</g>
	<g>
		<path class="st1" d="M92.8,51.1C77,51.1,64.1,64,64.1,79.8c0,15.9,12.9,28.8,28.8,28.8c15.9,0,28.8-12.9,28.8-28.8
			C121.6,64,108.7,51.1,92.8,51.1z M99.2,96c-1.1,1-2.4,1.7-4.1,2v2.5h-4.6v-2.7c-2.2-0.6-3.8-1.8-5-3.9c-1-1.7-1.6-3.7-1.7-6
			l5.2-0.4c0.2,2.1,0.8,3.7,1.6,4.6c0.7,0.7,1.4,1,2.2,1c1.2,0,2.1-0.6,2.9-1.8c0.4-0.6,0.5-1.4,0.5-2.4c0-1.5-0.7-3-2-4.5
			c-1.1-1-2.7-2.5-4.9-4.6c-1.7-1.6-2.9-3.1-3.6-4.4c-0.9-1.7-1.4-3.4-1.4-5.4c0-1.9,0.4-3.6,1.3-5.1c1.1-1.9,2.7-3.1,4.8-3.6v-2.3
			h4.6v2.3c1.5,0.3,2.7,0.9,3.6,1.8c1.7,1.6,2.6,3.6,2.8,6.2l-5.2,0.9c-0.2-1.5-0.6-2.6-1.3-3.5c-0.5-0.6-1.2-0.9-2.1-0.9
			c-1,0-1.8,0.4-2.3,1.3c-0.4,0.7-0.6,1.6-0.6,2.7c0,1.7,0.7,3.3,2.1,5.1c0.5,0.6,1.3,1.4,2.4,2.3c1.3,1,2.1,1.8,2.5,2.2
			c1.3,1.4,2.4,2.7,3.1,4c1.1,1.9,1.6,3.6,1.6,5.2C101.9,91.9,101,94.3,99.2,96z"/>
		<path class="st1" d="M92.8,43.7c-20,0-36.2,16.2-36.2,36.2c0,20,16.2,36.2,36.2,36.2c20,0,36.2-16.2,36.2-36.2
			C129,59.9,112.8,43.7,92.8,43.7z M92.8,110.9c-17.1,0-31.1-13.9-31.1-31.1s13.9-31.1,31.1-31.1c17.1,0,31.1,13.9,31.1,31.1
			S110,110.9,92.8,110.9z"/>
	</g>
</g>
</svg>
