<?xml version="1.0" encoding="utf-8"?>
<!-- Generator: Adobe Illustrator 19.2.1, SVG Export Plug-In . SVG Version: 6.00 Build 0)  -->
<svg version="1.1" id="Layer_1" xmlns="http://www.w3.org/2000/svg" xmlns:xlink="http://www.w3.org/1999/xlink" x="0px" y="0px"
	 viewBox="0 0 130 130" style="enable-background:new 0 0 130 130;" xml:space="preserve">
<style type="text/css">
	.st0{fill:none;}
	.st1{fill:#4D4D4D;}
</style>
<rect class="st0" width="130" height="130"/>
<path class="st1" d="M57.2,83v7.3c0,1-0.4,1.3-1.1,1.3c-0.7,0-1.1-0.4-1.1-1.3V83c0-1,0.4-1.3,1.1-1.3C56.8,81.7,57.2,82,57.2,83z
	 M44.7,104.9h-1.2v9.6h1.2c0.7,0,1.1-0.3,1.1-1.3v-7C45.8,105.3,45.4,104.9,44.7,104.9z M48.5,81.8h-1.2v9.6h1.2
	c0.7,0,1.1-0.3,1.1-1.3v-7C49.6,82.2,49.2,81.8,48.5,81.8z M74.9,91.6c0.7,0,1.1-0.4,1.1-1.3V83c0-1-0.4-1.3-1.1-1.3
	c-0.7,0-1.1,0.4-1.1,1.3v7.3C73.8,91.2,74.2,91.6,74.9,91.6z M48.4,62v-2c0-1-0.4-1.3-1-1.3h-1v4.6h1C48.1,63.3,48.4,63,48.4,62z
	 M68.2,59.2l-1,6.8h2L68.2,59.2z M77.7,104.9h-1v4.1h0.8c0.8,0,1.3-0.3,1.3-1.4v-1.3C78.8,105.3,78.5,104.9,77.7,104.9z M97.6,52.9
	v68.5c0,4.2-3.4,7.5-7.5,7.5H39.9c-4.2,0-7.6-3.4-7.6-7.5V45.2V33.6C32.4,15.6,47,1,65,1c13.9,0,25.7,8.7,30.4,20.9
	c0.1,0.3,0.2,0.6,0.3,0.9c0.4,1,0.6,2.1,0.6,3.3c0,5.6-4.6,10.2-10.2,10.2c-4.2,0-7.8-2.5-9.4-6.2c-0.1-0.6-0.3-1.1-0.5-1.6
	C74.4,24.1,70.1,21,65,21c-6.7,0-12.1,5.4-12.1,12.1c0,6.7,5.4,12.1,12.1,12.1h24.8C94.1,45.2,97.6,48.6,97.6,52.9z M80.2,70.3h5.8
	v-1.9h-3.6v-3.9h2.9v-1.9h-2.9v-3.8h3.6v-1.9h-5.8C80.2,56.8,80.2,70.3,80.2,70.3z M81.1,81.8v11.5h2.1V81.8h2.2v-1.9h-6.5v1.9H81.1
	z M72.6,67.1c0,2.2,1.1,3.4,3.2,3.4c2.1,0,3.1-1.2,3.1-3.4c0-3.8-4.1-4.4-4.1-7.1c0-1,0.4-1.3,1.1-1.3c0.7,0,1.1,0.4,1.1,1.3v0.6h2
	v-0.4c0-2.2-1.1-3.4-3.1-3.4c-2.1,0-3.1,1.2-3.1,3.4c0,3.8,4.1,4.4,4.1,7.1c0,1-0.4,1.3-1.1,1.3c-0.7,0-1.1-0.3-1.1-1.3v-1h-2
	L72.6,67.1L72.6,67.1z M71.7,83.1v7c0,2.2,1.1,3.4,3.2,3.4c2.1,0,3.2-1.2,3.2-3.4v-7c0-2.2-1.1-3.4-3.2-3.4
	C72.8,79.8,71.7,81,71.7,83.1z M64.6,70.3h1.9l0.4-2.4h2.6l0.4,2.4H72l-2.2-13.5h-3.1L64.6,70.3z M68.5,79.9V88l-2.2-8.1h-2.7v13.5
	h1.9v-9.7l2.6,9.7h2.2V79.9H68.5z M58.1,70.3h5.8v-1.9h-3.7v-3.9h2.9v-1.9h-2.9v-3.8h3.7v-1.9h-5.8V70.3z M51.5,70.3h5.6v-1.9h-3.5
	V56.8h-2.1L51.5,70.3L51.5,70.3z M44.3,70.3h2.1v-5.1h1c2.1,0,3.2-1.2,3.2-3.3v-1.7c0-2.2-1-3.3-3.2-3.3h-3.1V70.3z M47.9,106.3
	c0-2.2-1-3.3-3.2-3.3h-3.3v13.5h3.3c2.1,0,3.2-1.2,3.2-3.3V106.3z M51.4,103h-2.1v13.5h2.1V103z M51.7,83.2c0-2.2-1-3.3-3.2-3.3
	h-3.3v13.5h3.3c2.1,0,3.2-1.2,3.2-3.3C51.7,90,51.7,83.2,51.7,83.2z M58.9,113.2c0-3.8-4.1-4.4-4.1-7.1c0-1,0.4-1.3,1.1-1.3
	c0.7,0,1.1,0.4,1.1,1.3v0.6h2v-0.4c0-2.2-1.1-3.4-3.1-3.4c-2.1,0-3.1,1.2-3.1,3.4c0,3.8,4.1,4.4,4.1,7.1c0,1-0.4,1.3-1.1,1.3
	c-0.7,0-1.1-0.3-1.1-1.3v-1h-2v0.8c0,2.2,1.1,3.4,3.2,3.4C57.8,116.6,58.9,115.4,58.9,113.2z M59.3,83.1c0-2.2-1.1-3.4-3.2-3.4
	c-2.1,0-3.2,1.2-3.2,3.4v7c0,2.2,1.1,3.4,3.2,3.4c2.1,0,3.2-1.2,3.2-3.4V83.1z M66,103h-6.5v1.9h2.2v11.5h2.1v-11.5H66L66,103
	L66,103z M73.2,103h-2v10.4c0,1-0.4,1.3-1.1,1.3c-0.7,0-1.1-0.3-1.1-1.3V103h-2.1v10.2c0,2.2,1.1,3.4,3.1,3.4c2.1,0,3.2-1.2,3.2-3.4
	V103z M81.2,116.5c-0.2-0.5-0.2-1-0.2-1.6v-2.1c0-1.4-0.3-2.4-1.4-2.9c0.9-0.4,1.4-1.3,1.4-2.7v-1.1c0-2.1-0.9-3.1-3.1-3.1h-3.2
	v13.5h2.1V111h0.7c1,0,1.4,0.5,1.4,1.7v2.1c0,1.1,0.1,1.3,0.2,1.7L81.2,116.5L81.2,116.5z M88.9,112.2c0-1.4-0.4-2.4-1.6-2.9
	c0.9-0.4,1.4-1.3,1.4-2.7v-0.5c0-2.1-0.9-3.1-3.1-3.1h-3.2v13.5h3.3c2.1,0,3.2-1.1,3.2-3.2V112.2z M86.5,107.1v-0.8
	c0-1-0.3-1.4-1.1-1.4h-1v3.6h0.8C86.1,108.5,86.5,108.1,86.5,107.1z M85.4,110.4h-0.9v4.1h1.2c0.7,0,1.1-0.3,1.1-1.3V112
	C86.8,110.8,86.3,110.4,85.4,110.4z"/>
</svg>
