<?xml version="1.0" encoding="utf-8"?>
<!-- Generator: Adobe Illustrator 19.2.1, SVG Export Plug-In . SVG Version: 6.00 Build 0)  -->
<svg version="1.1" id="Layer_1" xmlns="http://www.w3.org/2000/svg" xmlns:xlink="http://www.w3.org/1999/xlink" x="0px" y="0px"
	 viewBox="0 0 130 130" style="enable-background:new 0 0 130 130;" xml:space="preserve">
<style type="text/css">
	.st0{fill:none;}
	.st1{fill:#4D4D4D;}
</style>
<rect class="st0" width="130" height="130"/>
<g>
	<g>
		<path class="st1" d="M21.8,61c0,1.3-1.1,2.4-2.4,2.4c-1.3,0-2.4-1.1-2.4-2.4c0-1.3,1.1-2.4,2.4-2.4C20.7,58.6,21.8,59.7,21.8,61z"
			/>
	</g>
	<g>
		<path class="st1" d="M29.9,28.5c0,1.3-1.1,2.4-2.4,2.4c-1.3,0-2.4-1.1-2.4-2.4s1.1-2.4,2.4-2.4C28.8,26.2,29.9,27.2,29.9,28.5z"/>
	</g>
	<g>
		<path class="st1" d="M34.1,38.4c0,1.3-1.1,2.4-2.4,2.4c-1.3,0-2.4-1.1-2.4-2.4c0-1.3,1.1-2.4,2.4-2.4
			C33.1,36.1,34.1,37.1,34.1,38.4z"/>
	</g>
	<g>
		<path class="st1" d="M35.3,60.9c0,1.3-1.1,2.4-2.4,2.4c-1.3,0-2.4-1.1-2.4-2.4c0-1.3,1.1-2.4,2.4-2.4
			C34.2,58.5,35.3,59.6,35.3,60.9z"/>
	</g>
	<g>
		<path class="st1" d="M19.9,49.1c0,1.3-1.1,2.4-2.4,2.4c-1.3,0-2.4-1.1-2.4-2.4s1.1-2.4,2.4-2.4C18.9,46.7,19.9,47.8,19.9,49.1z"/>
	</g>
	<g>
		<path class="st1" d="M20.7,41.2c0,1.3-1.1,2.4-2.4,2.4c-1.3,0-2.4-1.1-2.4-2.4s1.1-2.4,2.4-2.4C19.6,38.8,20.7,39.9,20.7,41.2z"/>
	</g>
	<g>
		<path class="st1" d="M14,60.9c0,1.3-1.1,2.4-2.4,2.4c-1.3,0-2.4-1.1-2.4-2.4c0-1.3,1.1-2.4,2.4-2.4C12.9,58.5,14,59.6,14,60.9z"/>
	</g>
	<g>
		<path class="st1" d="M32.9,53c0,1.3-1.1,2.4-2.4,2.4c-1.3,0-2.4-1.1-2.4-2.4c0-1.3,1.1-2.4,2.4-2.4C31.9,50.7,32.9,51.7,32.9,53z"
			/>
	</g>
	<g>
		<path class="st1" d="M99.6,44.4c0,1.3-1.1,2.4-2.4,2.4c-1.3,0-2.4-1.1-2.4-2.4c0-1.3,1.1-2.4,2.4-2.4C98.5,42,99.6,43,99.6,44.4z"
			/>
	</g>
	<g>
		<path class="st1" d="M87.8,16.9c0,1.3-1.1,2.4-2.4,2.4c-1.3,0-2.4-1.1-2.4-2.4c0-1.3,1.1-2.4,2.4-2.4
			C86.7,14.6,87.8,15.6,87.8,16.9z"/>
	</g>
	<g>
		<path class="st1" d="M61.8,34c0,1.3-1.1,2.4-2.4,2.4c-1.3,0-2.4-1.1-2.4-2.4s1.1-2.4,2.4-2.4C60.8,31.7,61.8,32.7,61.8,34z"/>
	</g>
	<g>
		<path class="st1" d="M44.8,42c0,1.3-1.1,2.4-2.4,2.4c-1.3,0-2.4-1.1-2.4-2.4c0-1.3,1.1-2.4,2.4-2.4C43.7,39.6,44.8,40.7,44.8,42z"
			/>
	</g>
	<g>
		<path class="st1" d="M109.4,51.1c0,1.3-1.1,2.4-2.4,2.4c-1.3,0-2.4-1.1-2.4-2.4s1.1-2.4,2.4-2.4C108.4,48.7,109.4,49.7,109.4,51.1
			z"/>
	</g>
	<g>
		<path class="st1" d="M59.3,21.9c0,1.3-1.1,2.4-2.4,2.4c-1.3,0-2.4-1.1-2.4-2.4s1.1-2.4,2.4-2.4C58.3,19.5,59.3,20.6,59.3,21.9z"/>
	</g>
	<g>
		<path class="st1" d="M65,1C29.7,1,1,29.7,1,65c0,35.3,28.7,64,64,64c35.3,0,64-28.7,64-64C129,29.7,100.3,1,65,1z M13.2,77.5
			c-1.3,0-2.4-1.1-2.4-2.4c0-1.3,1.1-2.4,2.4-2.4c1.3,0,2.4,1.1,2.4,2.4C15.6,76.4,14.5,77.5,13.2,77.5z M16.2,84.9
			c0-1.3,1.1-2.4,2.4-2.4c1.3,0,2.4,1.1,2.4,2.4s-1.1,2.4-2.4,2.4C17.3,87.3,16.2,86.2,16.2,84.9z M21.9,100.1
			c-1.3,0-2.4-1.1-2.4-2.4c0-1.3,1.1-2.4,2.4-2.4c1.3,0,2.4,1.1,2.4,2.4C24.2,99.1,23.2,100.1,21.9,100.1z M22.7,71.6
			c0-1.3,1.1-2.4,2.4-2.4c1.3,0,2.4,1.1,2.4,2.4c0,1.3-1.1,2.4-2.4,2.4C23.7,73.9,22.7,72.9,22.7,71.6z M26.6,85
			c0-1.3,1.1-2.4,2.4-2.4c1.3,0,2.4,1.1,2.4,2.4c0,1.3-1.1,2.4-2.4,2.4C27.7,87.3,26.6,86.3,26.6,85z M31.3,103.4
			c-1.3,0-2.4-1.1-2.4-2.4c0-1.3,1.1-2.4,2.4-2.4c1.3,0,2.4,1.1,2.4,2.4C33.7,102.4,32.6,103.4,31.3,103.4z M36.5,110.8
			c-1.3,0-2.4-1.1-2.4-2.4c0-1.3,1.1-2.4,2.4-2.4c1.3,0,2.4,1.1,2.4,2.4C38.8,109.7,37.8,110.8,36.5,110.8z M34.1,75.9
			c0-1.3,1.1-2.4,2.4-2.4c1.3,0,2.4,1.1,2.4,2.4c0,1.3-1.1,2.4-2.4,2.4C35.2,78.3,34.1,77.2,34.1,75.9z M37.1,97.2
			c-1.3,0-2.3-1.1-2.3-2.4c0-1.3,1.1-2.3,2.4-2.3s2.3,1.1,2.3,2.4S38.4,97.3,37.1,97.2z M43.7,101.7c0-1.3,1.1-2.4,2.4-2.4
			c1.3,0,2.4,1.1,2.4,2.4c0,1.3-1.1,2.4-2.4,2.4C44.8,104,43.7,103,43.7,101.7z M47.5,116.5c-1.3,0-2.4-1.1-2.4-2.4s1.1-2.4,2.4-2.4
			c1.3,0,2.4,1.1,2.4,2.4C49.9,115.4,48.8,116.5,47.5,116.5z M54.6,96c0-1.3,1.1-2.4,2.4-2.4c1.3,0,2.4,1.1,2.4,2.4
			s-1.1,2.4-2.4,2.4C55.7,98.4,54.6,97.3,54.6,96z M58.2,116.1c-1.3,0-2.4-1.1-2.4-2.4c0-1.3,1.1-2.4,2.4-2.4c1.3,0,2.4,1.1,2.4,2.4
			C60.5,115,59.5,116.1,58.2,116.1z M66.4,106.3c-1.3,0-2.4-1.1-2.4-2.4c0-1.3,1.1-2.4,2.4-2.4c1.3,0,2.4,1.1,2.4,2.4
			C68.8,105.2,67.7,106.3,66.4,106.3z M70.9,119.2c-1.3,0-2.4-1.1-2.4-2.4c0-1.3,1.1-2.4,2.4-2.4c1.3,0,2.4,1.1,2.4,2.4
			C73.3,118.1,72.2,119.2,70.9,119.2z M79.8,109c-1.3,0-2.4-1.1-2.4-2.4s1.1-2.4,2.4-2.4c1.3,0,2.4,1.1,2.4,2.4
			C82.2,108,81.2,109,79.8,109z M80,97.6c-1.3,0-2.4-1.1-2.4-2.4c0-1.3,1.1-2.4,2.4-2.4c1.3,0,2.4,1.1,2.4,2.4
			C82.4,96.5,81.3,97.6,80,97.6z M65,85.8c-11.4,0-20.8-9.3-20.8-20.8S53.6,44.2,65,44.2c11.4,0,20.8,9.3,20.8,20.8
			S76.4,85.8,65,85.8z M91.2,112.3c-1.3,0-2.4-1.1-2.4-2.4s1.1-2.4,2.4-2.4c1.3,0,2.4,1.1,2.4,2.4C93.6,111.3,92.5,112.3,91.2,112.3
			z M93.6,82.2c1.3,0,2.4,1.1,2.4,2.4s-1.1,2.4-2.4,2.4c-1.3,0-2.4-1.1-2.4-2.4S92.3,82.2,93.6,82.2z M91.7,72.7
			c0-1.3,1.1-2.4,2.4-2.4c1.3,0,2.4,1.1,2.4,2.4c0,1.3-1.1,2.4-2.4,2.4C92.7,75.1,91.7,74,91.7,72.7z M94,103.1
			c-1.3,0-2.4-1.1-2.4-2.4s1.1-2.4,2.4-2.4c1.3,0,2.4,1.1,2.4,2.4C96.4,102,95.3,103.1,94,103.1z M88.3,67.5
			c0.1-0.8,0.1-1.7,0.1-2.5c0-12.9-10.5-23.5-23.5-23.5c-12.9,0-23.5,10.5-23.5,23.5c0,2,0.3,4,0.8,5.9c-6.2-2.3-14.5-3.4-23.9-3
			c-4.7,0.2-9.8,1.7-14.4,3.6c-0.2-2.1-0.3-4.3-0.3-6.5C3.7,31.1,31.1,3.7,65,3.7c31,0,56.6,23,60.7,52.8c-7.3,2.9-14.6,9.7-20.9,12
			C99.4,70.4,93.6,69,88.3,67.5z M103.2,105.7c-1.3,0-2.4-1.1-2.4-2.4c0-1.3,1.1-2.4,2.4-2.4c1.3,0,2.4,1.1,2.4,2.4
			C105.5,104.6,104.5,105.7,103.2,105.7z M104.3,96.4c-1.3,0-2.4-1.1-2.4-2.4c0-1.3,1.1-2.4,2.4-2.4c1.3,0,2.4,1.1,2.4,2.4
			C106.7,95.3,105.6,96.4,104.3,96.4z M104.7,70.8c0-1.3,1.1-2.4,2.4-2.4c1.3,0,2.4,1.1,2.4,2.4c0,1.3-1.1,2.4-2.4,2.4
			C105.7,73.1,104.7,72.1,104.7,70.8z M109.8,82.6c-1.3,0-2.4-1.1-2.4-2.4c0-1.3,1.1-2.4,2.4-2.4c1.3,0,2.4,1.1,2.4,2.4
			C112.2,81.5,111.1,82.6,109.8,82.6z M115.7,92.1c-1.3,0-2.4-1.1-2.4-2.4s1.1-2.4,2.4-2.4c1.3,0,2.4,1.1,2.4,2.4
			C118.1,91,117,92.1,115.7,92.1z M119.3,72.3c-1.3,0-2.4-1.1-2.4-2.4s1.1-2.4,2.4-2.4c1.3,0,2.4,1.1,2.4,2.4
			C121.6,71.3,120.6,72.3,119.3,72.3z"/>
	</g>
	<g>
		<path class="st1" d="M47.5,30.2c0,1.3-1.1,2.4-2.4,2.4c-1.3,0-2.4-1.1-2.4-2.4s1.1-2.4,2.4-2.4C46.5,27.8,47.5,28.9,47.5,30.2z"/>
	</g>
	<g>
		<path class="st1" d="M38.7,20.5c0,1.3-1.1,2.4-2.4,2.4c-1.3,0-2.4-1.1-2.4-2.4c0-1.3,1.1-2.4,2.4-2.4
			C37.6,18.1,38.7,19.2,38.7,20.5z"/>
	</g>
	<g>
		<path class="st1" d="M58.3,12.8c0,1.3-1.1,2.4-2.4,2.4c-1.3,0-2.4-1.1-2.4-2.4s1.1-2.4,2.4-2.4C57.2,10.4,58.3,11.5,58.3,12.8z"/>
	</g>
	<g>
		<path class="st1" d="M70.8,17.5c0,1.3-1.1,2.4-2.4,2.4c-1.3,0-2.4-1.1-2.4-2.4c0-1.3,1.1-2.4,2.4-2.4
			C69.7,15.2,70.8,16.2,70.8,17.5z"/>
	</g>
	<g>
		<path class="st1" d="M82.2,27.8c0,1.3-1.1,2.4-2.4,2.4c-1.3,0-2.4-1.1-2.4-2.4s1.1-2.4,2.4-2.4C81.2,25.4,82.2,26.5,82.2,27.8z"/>
	</g>
	<g>
		<path class="st1" d="M98.4,28.6c0,1.3-1.1,2.4-2.4,2.4c-1.3,0-2.4-1.1-2.4-2.4c0-1.3,1.1-2.4,2.4-2.4
			C97.3,26.2,98.4,27.3,98.4,28.6z"/>
	</g>
	<g>
		<path class="st1" d="M80.1,39c0,1.3-1.1,2.4-2.4,2.4c-1.3,0-2.4-1.1-2.4-2.4c0-1.3,1.1-2.4,2.4-2.4C79.1,36.6,80.1,37.7,80.1,39z"
			/>
	</g>
	<g>
		<path class="st1" d="M110.2,38.4c0,1.3-1.1,2.4-2.4,2.4c-1.3,0-2.4-1.1-2.4-2.4s1.1-2.4,2.4-2.4C109.1,36.1,110.2,37.1,110.2,38.4
			z"/>
	</g>
	<g>
		<path class="st1" d="M97.2,57.8c0,1.3-1.1,2.4-2.4,2.4c-1.3,0-2.4-1.1-2.4-2.4c0-1.3,1.1-2.4,2.4-2.4
			C96.1,55.4,97.2,56.5,97.2,57.8z"/>
	</g>
	<g>
		<path class="st1" d="M120.5,56.2c0,1.3-1.1,2.4-2.4,2.4c-1.3,0-2.4-1.1-2.4-2.4s1.1-2.4,2.4-2.4C119.4,53.8,120.5,54.9,120.5,56.2
			z"/>
	</g>
</g>
</svg>
