<?xml version="1.0" encoding="utf-8"?>
<!-- Generator: Adobe Illustrator 19.2.1, SVG Export Plug-In . SVG Version: 6.00 Build 0)  -->
<svg version="1.1" id="Layer_1" xmlns="http://www.w3.org/2000/svg" xmlns:xlink="http://www.w3.org/1999/xlink" x="0px" y="0px"
	 viewBox="0 0 130 130" style="enable-background:new 0 0 130 130;" xml:space="preserve">
<style type="text/css">
	.st0{fill:none;}
	.st1{fill:#4D4D4D;}
</style>
<rect class="st0" width="130" height="130"/>
<g id="icon_copy_5_2_">
	<path class="st1" d="M65.3,1C30.1,1,1.5,29.1,1.5,64.2c0,35.1,28.6,64.8,63.7,64.8c35.1,0,63.2-29.7,63.2-64.8
		C128.5,29.1,100.4,1,65.3,1z M107.9,29.3c7.6,9.3,12.2,21.6,12.3,34.4c-1.8-0.4-20.3-4-38.4-1.8c-0.4-0.9-0.8-1.9-1.2-2.8
		c-1.1-2.7-2.3-5.3-3.6-7.9C97.1,43.1,106.8,30.9,107.9,29.3z M65.3,9.3c13.8,0,27,5.2,36.6,13.7c-1,1.4-9.7,12.9-29.1,20.2
		C63.9,26.8,54,13.4,52.5,11.4C56.6,10.4,60.9,9.3,65.3,9.3z M41.6,14.5c1.4,2,11.7,16,20.7,32c-25.5,6.8-47.9,6.7-50.3,6.6
		C15.5,36.2,26.4,21.7,41.6,14.5z M10.8,64.3c0-0.6,0-1.1,0-1.7c2.4,0,28.8,0.4,55.9-7.7c1.6,3,3,6.1,4.4,9.2
		c-0.7,0.2-1.4,0.4-2.1,0.6c-28.1,9.1-43,33.8-44.2,35.9C16.1,91,10.8,78.3,10.8,64.3z M65.3,120.3c-12.6,0-24.2-5.9-33.4-13.1
		c1-2,12-23.3,42.7-34c0.1,0,0.2-0.1,0.4-0.1c7.6,19.9,10.8,36.5,11.6,41.3C80,117.2,72.8,120.3,65.3,120.3z M95.7,109.4
		c-0.6-3.3-3.5-19.2-10.6-38.8c17.1-2.7,32,1.7,33.9,2.3C116.6,88.1,107.9,101.2,95.7,109.4z"/>
</g>
</svg>
