<?xml version="1.0" encoding="utf-8"?>
<!-- Generator: Adobe Illustrator 19.2.1, SVG Export Plug-In . SVG Version: 6.00 Build 0)  -->
<svg version="1.1" id="Layer_1" xmlns="http://www.w3.org/2000/svg" xmlns:xlink="http://www.w3.org/1999/xlink" x="0px" y="0px"
	 viewBox="0 0 130 130" style="enable-background:new 0 0 130 130;" xml:space="preserve">
<style type="text/css">
	.st0{fill:none;}
	.st1{fill:#4D4D4D;}
</style>
<rect class="st0" width="130" height="130"/>
<g>
	<g>
		<path class="st1" d="M30.1,50.3l8.6,68.8l0.2,1.8h1.8h41.2h1.8l0.2-1.8l8.6-68.8C92.6,50.3,30.1,50.3,30.1,50.3z M37.9,96.5
			l-3.5-27.7h53.8l-3.5,27.7H37.9z"/>
	</g>
	<path class="st1" d="M81.5,122.1H81H41.6h-0.5H39l0.2,2.2l0.2,2.3l0,0.1l0,0.1c0.2,1.3,1.3,2.2,2.6,2.2h38.6c1.3,0,2.4-1,2.6-2.2
		l0-0.1l0-0.1l0.2-2.3l0.2-2.2C83.7,122.1,81.5,122.1,81.5,122.1z"/>
	<path class="st1" d="M96.4,40.7c1.4,0,2.6,1.2,2.6,2.6v3.8c0,1.5-1.2,2.6-2.6,2.6H26.3c-1.4,0-2.6-1.2-2.6-2.6v-3.8
		c0-1.5,1.2-2.6,2.6-2.6H96.4"/>
	<path class="st1" d="M106.1,2.6c-0.6-1.4-2.2-2-3.6-1.4l-36,16.2l-9.8,28.5h5.7l8.4-24.5l33.9-15.2C106.1,5.6,106.8,4,106.1,2.6z"
		/>
</g>
</svg>
