<?xml version="1.0" encoding="utf-8"?>
<!-- Generator: Adobe Illustrator 19.2.1, SVG Export Plug-In . SVG Version: 6.00 Build 0)  -->
<svg version="1.1" id="Layer_1" xmlns="http://www.w3.org/2000/svg" xmlns:xlink="http://www.w3.org/1999/xlink" x="0px" y="0px"
	 viewBox="0 0 130 130" style="enable-background:new 0 0 130 130;" xml:space="preserve">
<style type="text/css">
	.st0{fill:none;}
	.st1{fill:#4D4D4D;}
</style>
<rect class="st0" width="130" height="130"/>
<g>
	<g>
		<path class="st1" d="M92.3,128.2c-0.1,0.4-0.5,0.8-0.9,0.8H38.6c-0.4,0-0.8-0.3-0.9-0.8l-0.3-3.2H38h54h0.7L92.3,128.2z"/>
	</g>
	<path class="st1" d="M24.4,23.7l12.4,98.7h56.5l12.4-98.7C105.7,23.7,24.4,23.7,24.4,23.7z M65,91.4c-11.3,0-20.4-9.1-20.4-20.4
		c0-11.3,9.1-20.4,20.4-20.4c11.3,0,20.4,9.1,20.4,20.4C85.4,82.3,76.3,91.4,65,91.4z"/>
	<g>
		<path class="st1" d="M108.7,7.2L108.5,4c0-1.7-1.4-3-3-3H24.6c-1.7,0-3,1.4-3,3l-0.3,3.1H108.7z"/>
	</g>
	<path class="st1" d="M111.1,8.1c1.9,0,3.5,1.6,3.5,3.5v11.2h-3.5H18.9h-3.5V11.5c0-1.9,1.6-3.5,3.5-3.5L111.1,8.1"/>
</g>
</svg>
