<?xml version="1.0" encoding="utf-8"?>
<!-- Generator: Adobe Illustrator 19.2.1, SVG Export Plug-In . SVG Version: 6.00 Build 0)  -->
<svg version="1.1" id="Layer_1" xmlns="http://www.w3.org/2000/svg" xmlns:xlink="http://www.w3.org/1999/xlink" x="0px" y="0px"
	 viewBox="0 0 130 130" style="enable-background:new 0 0 130 130;" xml:space="preserve">
<style type="text/css">
	.st0{fill:none;}
	.st1{fill:#4D4D4D;}
</style>
<rect class="st0" width="130" height="130"/>
<g>
	<path class="st1" d="M99.6,1.7c-1.3-1.1-3.3-1-4.4,0.3L75.4,25.2c-0.9,0.2-1.8,0.5-2.6,0.9c-1.5-1.5-3.5-2.4-5.8-2.4
		c-1.7,0-3.3,0.5-4.6,1.4c-1.6-0.9-3.5-1.4-5.5-1.4c-3.4,0-6.4,1.4-8.6,3.7c-0.8-0.3-1.7-0.5-2.6-0.5c-3.4,0-6.4,2.1-7.6,5.1
		c-3,1.2-5.1,4.2-5.1,7.6c0,0.4,0.1,0.8,0.1,1.1c-2.2,2.4-3.5,5.7-3.5,9.3c0,0.3,0,0.6,0,0.9c-0.4,0.9-0.4,1.9-0.1,2.8l3.6,10.5
		l7.7,61.2c0.2,1.9,1.9,3.4,3.8,3.4H84c2,0,3.6-1.5,3.8-3.4l7.6-61.1l3.6-10.4c0.2-0.5,0.3-1,0.3-1.5c0-0.9-0.3-1.8-0.9-2.4
		c0,0,0,0,0,0c0-3.3-1.3-6.2-3.4-8.4c0.2-0.6,0.3-1.3,0.3-2c0-3.2-1.9-6-4.6-7.4c-1.3-2-3.5-3.4-6-3.6c-0.7-0.8-1.4-1.5-2.3-2.1
		L99.9,6.2C101.1,4.8,100.9,2.9,99.6,1.7z M95.5,52.6l-3.8,11L84,125.1H44.7L37,63.5l-3.8-10.9L95.5,52.6L95.5,52.6z"/>
	<polygon class="st1" points="39.9,71.1 46.4,122.7 82.3,122.7 88.7,71.1 	"/>
</g>
</svg>
