<?xml version="1.0" encoding="utf-8"?>
<!-- Generator: Adobe Illustrator 19.2.1, SVG Export Plug-In . SVG Version: 6.00 Build 0)  -->
<svg version="1.1" id="Layer_1" xmlns="http://www.w3.org/2000/svg" xmlns:xlink="http://www.w3.org/1999/xlink" x="0px" y="0px"
	 viewBox="0 0 130 130" style="enable-background:new 0 0 130 130;" xml:space="preserve">
<style type="text/css">
	.st0{fill:none;}
	.st1{fill:#4D4D4D;}
	.st2{fill:#FFFFFF;}
</style>
<rect class="st0" width="130" height="130"/>
<g>
	<g>
		<path class="st1" d="M67.6,22.2c0-1.6,1.1-2.6,1.1-2.6v-3.3l-0.6-0.9v-2l-2.4-2.8l-0.2-7.2L66.1,3V2.2L65,1l-1.1,1.2V3l0.5,0.5
			l-0.2,7.2l-2.4,2.8v2l-0.7,0.9v3.3c0,0,1.1,1,1.1,2.6C62.3,23.8,65,98,34.1,129h12.4c0,0,3.3-15.4,18.6-15.4
			c15.3,0,18.6,15.4,18.6,15.4h12.4C65,98,67.7,23.8,67.6,22.2z M65,103.9c0,0-1.4,0-7.5,0c1.7-2.5,3.8-19.1,3.8-19.1h7.2
			c0,0,2.1,16.6,3.8,19.1C66.4,103.9,65,103.9,65,103.9z"/>
		<rect x="47.3" y="101.5" class="st1" width="35.3" height="0.4"/>
		<g>
			<path class="st2" d="M58.3,102c0-0.1,0.1-0.3,0.1-0.4h-7.7c-0.1,0.1-0.1,0.3-0.2,0.4H58.3z"/>
			<path class="st2" d="M79.3,101.5h-7.7c0,0.1,0.1,0.3,0.1,0.4h7.8C79.4,101.8,79.3,101.7,79.3,101.5z"/>
		</g>
		<path class="st1" d="M47,105.3c0,0,0.9,0.4,0.9,1.5h34.3c0-1.2,0.9-1.5,0.9-1.5H47z"/>
		<path class="st2" d="M80.8,105.3H49.2c-0.2,0.5-0.4,1-0.7,1.5h32.9C81.2,106.4,81,105.9,80.8,105.3z"/>
		<rect x="47.9" y="102" class="st1" width="0.4" height="3.4"/>
		<rect x="51.6" y="102" class="st2" width="0.4" height="3.4"/>
		<rect x="55.4" y="102" class="st2" width="0.4" height="3.4"/>
		<rect x="74.2" y="102" class="st2" width="0.4" height="3.4"/>
		<rect x="78" y="102" class="st2" width="0.4" height="3.4"/>
		<rect x="81.7" y="102" class="st1" width="0.4" height="3.4"/>
		<g>
			<path class="st1" d="M73.2,76.9H56.8l-1.6,0.5v0.4c1,0.1,1.3,1.6,1.3,1.6h17c0,0,0.3-1.5,1.3-1.6v-0.4L73.2,76.9z"/>
			<path class="st2" d="M57.1,77.8v1.6h0.3v-1.6C57.3,77.8,57.2,77.8,57.1,77.8z"/>
			<path class="st2" d="M72.5,77.8c-3.9,0-11,0-14.9,0c-0.1,0.5-0.2,1-0.3,1.6h15.6C72.7,78.8,72.6,78.3,72.5,77.8z"/>
			<g>
				<path class="st1" d="M57.2,79.3h0.2v-0.9C57.3,78.7,57.3,79,57.2,79.3z"/>
				<g>
					<rect x="58.6" y="77.8" class="st1" width="0.3" height="1.6"/>
					<rect x="60.2" y="77.8" class="st1" width="0.3" height="1.6"/>
					<rect x="61.7" y="77.8" class="st1" width="0.3" height="1.6"/>
					<rect x="63.3" y="77.8" class="st1" width="0.3" height="1.6"/>
					<rect x="64.8" y="77.8" class="st1" width="0.3" height="1.6"/>
					<rect x="66.4" y="77.8" class="st1" width="0.3" height="1.6"/>
					<rect x="67.9" y="77.8" class="st1" width="0.3" height="1.6"/>
					<rect x="69.5" y="77.8" class="st1" width="0.3" height="1.6"/>
					<rect x="71.1" y="77.8" class="st1" width="0.3" height="1.6"/>
				</g>
			</g>
		</g>
	</g>
	<path class="st1" d="M59.2,102h0.4v3.4h-0.4V102z M62.9,105.3h0.4V102h-0.4V105.3z M66.7,105.3h0.4V102h-0.4V105.3z M70.4,102v3.4
		h0.4V102H70.4z"/>
	<g>
		<path class="st2" d="M70.8,103.9c-0.1,0-0.3,0-0.4,0v1.4h0.4V103.9z"/>
		<path class="st2" d="M67.1,103.9c-0.1,0-0.3,0-0.4,0v1.4h0.4V103.9z"/>
		<path class="st2" d="M62.9,103.9v1.4h0.4v-1.4C63.2,103.9,63.1,103.9,62.9,103.9z"/>
		<path class="st2" d="M59.6,103.9c-0.1,0-0.3,0-0.4,0v1.4h0.4V103.9z"/>
	</g>
	<path class="st2" d="M72.3,76.9H57.7c-0.1,0.3-0.1,0.6-0.2,0.9h14.9C72.4,77.5,72.3,77.2,72.3,76.9z"/>
	<rect x="55.2" y="77.4" class="st1" width="19.6" height="0.4"/>
	<rect x="72.6" y="77.8" class="st2" width="0.3" height="1.6"/>
	<path class="st1" d="M72.6,79.3h0.2c-0.1-0.3-0.1-0.6-0.2-0.9V79.3z"/>
</g>
</svg>
