<?xml version="1.0" encoding="utf-8"?>
<!-- Generator: Adobe Illustrator 19.2.1, SVG Export Plug-In . SVG Version: 6.00 Build 0)  -->
<svg version="1.1" id="Layer_1" xmlns="http://www.w3.org/2000/svg" xmlns:xlink="http://www.w3.org/1999/xlink" x="0px" y="0px"
	 viewBox="0 0 130 130" style="enable-background:new 0 0 130 130;" xml:space="preserve">
<style type="text/css">
	.st0{fill:none;}
	.st1{fill:#4D4D4D;}
</style>
<rect class="st0" width="130" height="130"/>
<g>
	<path class="st1" d="M128.9,25c0-0.1-0.1-0.3-0.1-0.4c0-0.1-0.1-0.2-0.1-0.3c-6.8,8.8-18.4,22.8-33.7,34.3
		c15.8,15.4,27.8,34,34,44.5V25.2C129,25.1,129,25,128.9,25z"/>
	<path class="st1" d="M65,71c28-9,52.4-34.6,63-47.4c0,0-0.1,0-0.1-0.1c0,0-0.1,0-0.1,0c-0.1-0.1-0.3-0.1-0.4-0.1
		c-0.1,0-0.3-0.1-0.4-0.1c-0.1,0-0.1,0-0.2,0H3.3c-0.1,0-0.1,0-0.2,0c-0.1,0-0.3,0-0.4,0.1c-0.2,0-0.3,0.1-0.5,0.1c0,0-0.1,0-0.1,0
		c0,0-0.1,0-0.1,0.1C12.5,36.2,37,62,65,71z"/>
	<path class="st1" d="M93.4,59.7c-8.3,6-17.6,11.2-27.8,14.4L65,74.3l-0.6-0.2c-10.2-3.2-19.5-8.4-27.8-14.3
		C19.8,76,7.3,95.9,1.5,105.9c0.4,0.5,1,0.8,1.8,0.8h123.5c0.7,0,1.3-0.3,1.8-0.8C122.7,95.9,110.2,76,93.4,59.7z"/>
	<path class="st1" d="M35.1,58.6C19.7,47.2,8.1,33.1,1.3,24.3c-0.1,0.1-0.1,0.2-0.2,0.3c0,0.1-0.1,0.3-0.1,0.4C1,25,1,25.1,1,25.2
		v77.9C7.2,92.5,19.3,74,35.1,58.6z"/>
</g>
</svg>
