<?xml version="1.0" encoding="utf-8"?>
<!-- Generator: Adobe Illustrator 19.2.1, SVG Export Plug-In . SVG Version: 6.00 Build 0)  -->
<svg version="1.1" id="Layer_1" xmlns="http://www.w3.org/2000/svg" xmlns:xlink="http://www.w3.org/1999/xlink" x="0px" y="0px"
	 viewBox="0 0 130 130" style="enable-background:new 0 0 130 130;" xml:space="preserve">
<style type="text/css">
	.st0{fill:none;}
	.st1{fill:#4D4D4D;}
	.st2{fill:#FFFFFF;}
</style>
<rect class="st0" width="130" height="130"/>
<g>
	<path class="st1" d="M121.8,49C113.5,38.6,90.9,12.1,65,3.7C36.2,13.1,11.8,44,6,51.9H124C123.4,51.1,122.7,50.2,121.8,49z"/>
	<g>
		<path class="st1" d="M121.8,126.5c-7.4-9.4-25.1-29.9-46.2-41.2c0.4-0.5,0.9-1,1.3-1.4c21.2,11.6,38.9,32.1,46.4,41.5
			c0.4,0.5,0.8,1,1.2,1.5V53.2c0-0.1,0-0.1-0.1-0.2c0-0.1,0-0.2-0.1-0.4c0-0.1-0.1-0.2-0.2-0.3c-0.1-0.1-0.1-0.2-0.2-0.3
			c-0.1-0.1-0.2-0.2-0.3-0.3c-0.1,0-0.1-0.1-0.2-0.1c0,0-0.1,0-0.1,0c-0.1-0.1-0.3-0.1-0.4-0.1c-0.1,0-0.3-0.1-0.4-0.1
			c-0.1,0-0.1,0-0.1,0H7.6c-0.1,0-0.1,0-0.2,0c-0.1,0-0.3,0-0.4,0.1c-0.2,0-0.3,0.1-0.4,0.1c0,0-0.1,0-0.1,0c-0.1,0-0.1,0.1-0.2,0.1
			C6.2,51.9,6.1,51.9,6,52c-0.1,0.1-0.2,0.2-0.2,0.3c-0.1,0.1-0.1,0.2-0.2,0.3c0,0.1-0.1,0.2-0.1,0.4c0,0.1,0,0.1,0,0.2v74
			c0,0.1,0.1,0.3,0.1,0.4c4.7-6.3,23.6-30.5,47.6-43.5c0.4,0.5,0.9,1,1.3,1.4C30.5,98.3,11.4,122.9,7,128.9c0.2,0.1,0.4,0.1,0.6,0.1
			h114.8c0.4,0,0.8-0.1,1.1-0.3C123,128,122.5,127.3,121.8,126.5z"/>
		<path class="st2" d="M53.9,85.9c3.7-1.9,7.5-3.6,11.4-4.9c3.9,1.3,7.6,3,11.3,4.9c9.9-10.8,24.6-24.3,41.1-31.3
			c0-8.8,0-15.9,0-16.2c0-0.7,0.1-0.9-0.1-1.4l-35-34.7l-63.9,0c-3.3,0-6.1,2.7-6.1,6.1v45.8C29.2,61.3,44,75,53.9,85.9z"/>
		<g>
			<g>
				<path class="st1" d="M13.9,72.6h-2.5V8.3c0-4,3.3-7.3,7.3-7.3l64.4,0l35.6,35.2l0.1,0.2c0.2,0.6,0.2,1,0.2,1.4l0,0.4v34.1h-2.5
					l0-34.6c0-0.1,0-0.2,0-0.3L82,3.5l-63.4,0c-2.7,0-4.8,2.2-4.8,4.8L13.9,72.6L13.9,72.6z"/>
			</g>
		</g>
	</g>
	<path class="st1" d="M82.6,2.1l0.6,25.2c0,5.5,4.6,9.9,10.1,9.9l24.3-0.1L82.6,2.1z"/>
	<path class="st1" d="M75,26.5H25.2c-1,0-1.9-0.8-1.9-1.9c0-1,0.8-1.9,1.9-1.9H75c1,0,1.9,0.8,1.9,1.9C76.9,25.7,76,26.5,75,26.5z"
		/>
	<path class="st1" d="M75,41.8H25.2c-1,0-1.9-0.8-1.9-1.9c0-1,0.8-1.9,1.9-1.9H75c1,0,1.9,0.8,1.9,1.9C76.9,41,76,41.8,75,41.8z"/>
	<path class="st1" d="M101.3,57.1H28.8c-1,0-1.9-0.8-1.9-1.9c0-1,0.8-1.9,1.9-1.9h72.5c1,0,1.9,0.8,1.9,1.9
		C103.2,56.2,102.3,57.1,101.3,57.1z"/>
	<path class="st1" d="M81.9,72.4H48.2c-1,0-1.9-0.8-1.9-1.9c0-1,0.8-1.9,1.9-1.9h33.7c1,0,1.9,0.8,1.9,1.9
		C83.8,71.5,83,72.4,81.9,72.4z"/>
</g>
</svg>
