<?xml version="1.0" encoding="utf-8"?>
<!-- Generator: Adobe Illustrator 19.2.1, SVG Export Plug-In . SVG Version: 6.00 Build 0)  -->
<svg version="1.1" id="Layer_1" xmlns="http://www.w3.org/2000/svg" xmlns:xlink="http://www.w3.org/1999/xlink" x="0px" y="0px"
	 viewBox="0 0 130 130" style="enable-background:new 0 0 130 130;" xml:space="preserve">
<style type="text/css">
	.st0{fill:none;}
	.st1{fill:#4D4D4D;}
</style>
<rect class="st0" width="130" height="130"/>
<g>
	<g>
		<path class="st1" d="M60.9,68.6c26.3-8.5,49.1-32.7,58.7-44.4c0,0,0,0,0,0c-0.1-0.1-0.3-0.1-0.4-0.1c-0.1,0-0.3-0.1-0.4-0.1
			c0,0-0.1,0-0.1,0H3.1c-0.1,0-0.1,0-0.1,0c-0.1,0-0.3,0-0.4,0.1c-0.1,0-0.3,0.1-0.4,0.1c0,0,0,0,0,0C11.6,35.7,34.6,60.1,60.9,68.6
			z"/>
		<path class="st1" d="M1.4,24.7c0,0.1-0.1,0.1-0.1,0.2c-0.1,0.1-0.1,0.2-0.2,0.3c0,0.1-0.1,0.2-0.1,0.4c0,0.1,0,0.1,0,0.2v73.5
			c5.6-9.5,17-27.4,32.2-42.2C18.6,46.2,7.6,32.8,1.4,24.7z"/>
		<path class="st1" d="M99.8,72c-3.8-4.7-8.1-9.5-12.6-13.9c-7.7,5.6-16.3,10.4-25.8,13.3l-0.6,0.2l-0.6-0.2
			c-9.4-3-18-7.7-25.7-13.3C18.7,73.5,6.9,92.5,1.7,101.5c0.4,0.3,0.9,0.5,1.4,0.5H96c-3-3.6-4.9-8.2-4.9-13.3
			C91.1,81.9,94.6,75.7,99.8,72z"/>
		<path class="st1" d="M120.6,25.2c0-0.1-0.1-0.2-0.2-0.3c0-0.1-0.1-0.1-0.1-0.1c-6.2,8.1-17.1,21.5-31.7,32.3
			c4.6,4.5,8.8,9.3,12.7,14c3.1-1.8,6.6-2.8,10.4-2.8c3.2,0,6.3,0.8,9,2.1V25.8c0-0.1,0-0.1,0-0.2C120.6,25.4,120.6,25.3,120.6,25.2
			z"/>
	</g>
	<path class="st1" d="M111.7,71.5c-9.6,0-17.3,7.8-17.3,17.3c0,9.5,7.8,17.3,17.3,17.3c9.5,0,17.3-7.8,17.3-17.3
		C129,79.3,121.2,71.5,111.7,71.5z M118.3,90h-5.4v5.4c0,0.7-0.7,1.3-1.4,1.3c-0.7,0-1.3-0.7-1.3-1.3V90h-5.4
		c-0.7,0-1.4-0.7-1.4-1.4c0-0.7,0.7-1.3,1.4-1.3h5.4v-5.4c0-0.7,0.7-1.3,1.3-1.3c0.7,0,1.4,0.7,1.4,1.3v5.4h5.4
		c0.7,0,1.3,0.7,1.3,1.3C119.6,89.3,119,90,118.3,90z"/>
</g>
</svg>
