<?xml version="1.0" encoding="utf-8"?>
<!-- Generator: Adobe Illustrator 19.2.1, SVG Export Plug-In . SVG Version: 6.00 Build 0)  -->
<svg version="1.1" id="Layer_1" xmlns="http://www.w3.org/2000/svg" xmlns:xlink="http://www.w3.org/1999/xlink" x="0px" y="0px"
	 viewBox="0 0 130 130" style="enable-background:new 0 0 130 130;" xml:space="preserve">
<style type="text/css">
	.st0{fill:none;}
	.st1{fill:#4D4D4D;}
</style>
<rect class="st0" width="130" height="130"/>
<g>
	<path class="st1" d="M126.1,99.1h-16.3c-1.6,0-2.9,1.3-2.9,2.9v16.2c0,1.6,1.3,2.9,2.9,2.9h16.3c1.6,0,2.9-1.3,2.9-2.9v-16.2
		C129,100.4,127.7,99.1,126.1,99.1z M126.1,69h-16.3c-1.6,0-2.9,1.3-2.9,2.9v16.3c0,1.6,1.3,2.9,2.9,2.9h16.3c1.6,0,2.9-1.3,2.9-2.9
		V71.8C129,70.3,127.7,69,126.1,69z M126.1,39.7h-16.3c-1.6,0-2.9,1.2-2.9,2.8v15.8c0,1.5,1.3,2.8,2.9,2.8h16.3
		c1.6,0,2.9-1.2,2.9-2.8V42.4C129,40.9,127.7,39.7,126.1,39.7z"/>
	<path class="st1" d="M90.1,98.9H73.9c-1.6,0-2.9,1.3-2.9,2.9v16.3c0,1.6,1.3,2.9,2.9,2.9h16.2c1.6,0,2.9-1.3,2.9-2.9v-16.3
		C93,100.2,91.7,98.9,90.1,98.9z M90.1,69H73.9c-1.6,0-2.9,1.3-2.9,2.9v16.3c0,1.6,1.3,2.9,2.9,2.9h16.2c1.6,0,2.9-1.3,2.9-2.9V71.9
		C93,70.3,91.7,69,90.1,69z M90.1,9H73.9c-1.6,0-2.9,1.3-2.9,2.9v16.4c0,1.6,1.3,2.9,2.9,2.9h16.2c1.6,0,2.9-1.3,2.9-2.9V11.9
		C93,10.3,91.7,9,90.1,9z M90.1,39H73.9c-1.6,0-2.9,1.3-2.9,2.8v15.9c0,1.5,1.3,2.8,2.9,2.8h16.2c1.6,0,2.9-1.3,2.9-2.8V41.8
		C93,40.2,91.7,39,90.1,39z"/>
	<path class="st1" d="M56.1,69H39.8c-1.6,0-2.9,1.3-2.9,2.9v16.3c0,1.6,1.3,2.9,2.9,2.9h16.3c1.6,0,2.9-1.3,2.9-2.9V71.8
		C59,70.3,57.7,69,56.1,69z M56.1,99H39.8c-1.6,0-2.9,1.3-2.9,2.9v16.3c0,1.6,1.3,2.9,2.9,2.9h16.3c1.6,0,2.9-1.3,2.9-2.9v-16.3
		C59,100.3,57.7,99,56.1,99z"/>
	<path class="st1" d="M20.1,98.9H3.9c-1.6,0-2.9,1.3-2.9,2.9v16.3c0,1.6,1.3,2.9,2.9,2.9h16.3c1.6,0,2.9-1.3,2.9-2.9v-16.3
		C23,100.2,21.7,98.9,20.1,98.9z M20.1,9H3.9C2.3,9,1,10.3,1,11.9v16.4c0,1.6,1.3,2.9,2.9,2.9h16.3c1.6,0,2.9-1.3,2.9-2.9V11.9
		C23,10.3,21.7,9,20.1,9z M20.1,69H3.9C2.3,69,1,70.3,1,71.9v16.3C1,89.7,2.3,91,3.9,91h16.3c1.6,0,2.9-1.3,2.9-2.9V71.9
		C23,70.3,21.7,69,20.1,69z M20.1,39H3.9C2.3,39,1,40.3,1,41.9v16.3C1,59.7,2.3,61,3.9,61h16.3c1.6,0,2.9-1.3,2.9-2.9V41.9
		C23,40.3,21.7,39,20.1,39z"/>
</g>
</svg>
