<?xml version="1.0" encoding="utf-8"?>
<!-- Generator: Adobe Illustrator 19.2.1, SVG Export Plug-In . SVG Version: 6.00 Build 0)  -->
<svg version="1.1" id="Layer_1" xmlns="http://www.w3.org/2000/svg" xmlns:xlink="http://www.w3.org/1999/xlink" x="0px" y="0px"
	 viewBox="0 0 130 130" style="enable-background:new 0 0 130 130;" xml:space="preserve">
<style type="text/css">
	.st0{fill:none;}
	.st1{fill:#4D4D4D;}
</style>
<rect class="st0" width="130" height="130"/>
<g>
	<path class="st1" d="M65,14.1c-28.1,0-50.9,22.8-50.9,50.9c0,28.1,22.8,50.9,50.9,50.9s50.9-22.8,50.9-50.9
		C115.9,36.9,93.1,14.1,65,14.1z M66.3,91.5c-6.3,0-11.9-2.4-15.7-6.9c-2.9-3.3-4.9-7.7-5.6-13.3h-4.8v-3.8h4.4c0-0.4,0-0.8,0-1.2
		c0-1.2,0.1-2.4,0.2-3.5h-4.6V59h5.1c0.9-5.4,3.3-9.9,6.4-13.1c3.9-4.1,9-6.4,15.3-6.4c4.6,0,8.1,1.3,10.3,2.5l-1.5,5.1
		c-1.9-1.2-5.2-2.2-8.7-2.2c-4.2,0-7.6,1.5-10.2,4.3c-2.3,2.2-3.9,5.7-4.7,9.8h21.6v3.9H51.5c-0.1,1-0.2,2.2-0.2,3.3
		c0,0.5,0,0.8,0,1.4h22.5v3.8H51.9c0.6,4.5,2.2,7.8,4.3,10.1c2.9,3,6.7,4.5,10.9,4.5c4.1,0,7.7-1.5,9.4-2.6l1.3,4.9
		C75.5,89.9,71.4,91.5,66.3,91.5z"/>
	<path class="st1" d="M65,1C29.7,1,1,29.7,1,65c0,35.3,28.7,64,64,64s64-28.7,64-64C129,29.7,100.3,1,65,1z M65,120
		c-30.3,0-55-24.7-55-55c0-30.3,24.7-55,55-55c30.3,0,55,24.7,55,55C120,95.3,95.3,120,65,120z"/>
</g>
</svg>
