<?xml version="1.0" encoding="utf-8"?>
<!-- Generator: Adobe Illustrator 19.2.1, SVG Export Plug-In . SVG Version: 6.00 Build 0)  -->
<svg version="1.1" id="Layer_1" xmlns="http://www.w3.org/2000/svg" xmlns:xlink="http://www.w3.org/1999/xlink" x="0px" y="0px"
	 viewBox="0 0 130 130" style="enable-background:new 0 0 130 130;" xml:space="preserve">
<style type="text/css">
	.st0{fill:none;}
	.st1{fill:#4D4D4D;}
</style>
<rect class="st0" width="130" height="130"/>
<g>
	<path class="st1" d="M1.2,92.9C0.5,92.9,1.8,93.3,1.2,92.9L1.2,92.9z"/>
	<path class="st1" d="M125.5,21.7H38.6c-1.9,0-3.6,1.6-3.6,3.5v13.6H8.7l0-0.1l-0.2,0.1H3c-0.5,0-0.9,0.1-1.3,0.3l4.1,6.6l12,20.2
		L6.4,85.1l-0.2,0l-5,7.9L35,93.5v11.3c0,1.9,1.6,3.5,3.6,3.5h86.9c1.9,0,3.5-1.6,3.5-3.5V25.2C129,23.3,127.4,21.7,125.5,21.7z
		 M35,85.3H13.2l11.4-19.3l0.2-0.1l-0.1-0.1l0.1-0.1l-0.1-0.1l-11-18.5H35V85.3z M51.7,99.4c0,1.9-1.6,3.5-3.6,3.5h-2.7
		c-2,0-3.6-1.6-3.6-3.5v-3.4c0-1.9,1.6-3.5,3.6-3.5h2.7c2,0,3.6,1.6,3.6,3.5V99.4z M53.2,35.4c0,2.1-1.8,3.9-3.9,3.9h-2.9
		c-2.1,0-3.9-1.7-3.9-3.9v-3.7c0-2.1,1.8-3.9,3.9-3.9h2.9c2.1,0,3.9,1.7,3.9,3.9V35.4z M68.8,99.4c0,1.9-1.6,3.5-3.5,3.5h-2.7
		c-2,0-3.6-1.6-3.6-3.5v-3.4c0-1.9,1.6-3.5,3.6-3.5h2.7c1.9,0,3.5,1.6,3.5,3.5V99.4z M69.8,35.4c0,2.1-1.7,3.9-3.9,3.9H63
		c-2.1,0-3.9-1.7-3.9-3.9v-3.7c0-2.1,1.8-3.9,3.9-3.9h2.9c2.1,0,3.9,1.7,3.9,3.9V35.4z M85.9,99.4c0,1.9-1.6,3.5-3.6,3.5h-2.6
		c-2,0-3.6-1.6-3.6-3.5v-3.4c0-1.9,1.6-3.5,3.6-3.5h2.6c2,0,3.6,1.6,3.6,3.5V99.4z M86.4,35.4c0,2.1-1.8,3.9-3.9,3.9h-2.9
		c-2.1,0-3.9-1.7-3.9-3.9v-3.7c0-2.1,1.7-3.9,3.9-3.9h2.9c2.1,0,3.9,1.7,3.9,3.9V35.4z M103.1,99.4c0,1.9-1.6,3.5-3.6,3.5h-2.7
		c-1.9,0-3.6-1.6-3.6-3.5v-3.4c0-1.9,1.6-3.5,3.6-3.5h2.7c2,0,3.6,1.6,3.6,3.5V99.4z M103.1,35.4c0,2.1-1.7,3.9-3.9,3.9h-2.9
		c-2.1,0-3.9-1.7-3.9-3.9v-3.7c0-2.1,1.8-3.9,3.9-3.9h2.9c2.1,0,3.9,1.7,3.9,3.9V35.4z M119.4,99.4c0,1.9-1.6,3.5-3.6,3.5h-2.7
		c-1.9,0-3.6-1.6-3.6-3.5v-3.4c0-1.9,1.6-3.5,3.6-3.5h2.7c2,0,3.6,1.6,3.6,3.5V99.4z M119.4,35.4c0,2.1-1.8,3.9-3.9,3.9h-2.9
		c-2.1,0-3.9-1.7-3.9-3.9v-3.7c0-2.1,1.7-3.9,3.9-3.9h2.9c2.1,0,3.9,1.7,3.9,3.9V35.4z"/>
</g>
</svg>
