<?xml version="1.0" encoding="utf-8"?>
<!-- Generator: Adobe Illustrator 19.2.1, SVG Export Plug-In . SVG Version: 6.00 Build 0)  -->
<svg version="1.1" id="Layer_1" xmlns="http://www.w3.org/2000/svg" xmlns:xlink="http://www.w3.org/1999/xlink" x="0px" y="0px"
	 viewBox="0 0 130 130" style="enable-background:new 0 0 130 130;" xml:space="preserve">
<style type="text/css">
	.st0{fill:none;}
	.st1{fill:#4D4D4D;}
</style>
<rect class="st0" width="130" height="130"/>
<g>
	<g>
		<g>
			<g>
				<path class="st1" d="M40.1,65.4c-2.7-5.9-2-11.8,2.2-18c1.7-2.6,4.4-5.9,7-9c1.9-2.2,3.7-4.5,5.2-6.4c-0.4-3.5-3.3-7.3-7.4-8.6
					l0.1,0.1c2,1.6,2.7,5.4,2.4,7.6c-0.9,5-6.3,9.4-9.5,13.5c-3.4,4.4-6,8.9-5.5,14.1c0.4,4.5,2.5,8.2,6.2,11.8
					c4.5,4.3,11.1,6.8,17.7,8.1C49,75.7,42.8,71.3,40.1,65.4z"/>
				<path class="st1" d="M93.2,51.3c-1.7-2.4-2.8-3.8-5.4-6.6c-1.6-1.8-4-4.2-4.7-6.6c-0.6-1.9-0.6-4.2,0.7-5.9
					c-1,0.7-4.8,3.3-5.3,7.2c0.9,1.2,1.9,2.4,3,3.6c4.4,5.1,9.5,10.9,7.9,19.2c-1.8,9.3-10,14-16.4,16.3c6-1.2,11.7-3.7,16.1-7.3
					C94.3,66.9,98.4,58.9,93.2,51.3z"/>
			</g>
		</g>
		<path class="st1" d="M97.8,84.2c-1.2-2.3-4-3.1-6.3-1.9l-55,29.2c-0.4,0.2-0.8,0.5-1.2,0.7c-4.1,3.1-5,8.9-1.9,13
			c3.1,4.1,8.9,5,13,1.9l50-37.1C98.3,88.7,98.9,86.2,97.8,84.2z M41.7,127.6c-2.3,1.4-5.8-0.2-7.9-3.6c-2-3.4-1.8-7.2,0.4-8.6
			c2.3-1.4,5.8,0.2,7.9,3.6C44.2,122.4,44,126.3,41.7,127.6z"/>
		<path class="st1" d="M94.6,112.2c-0.4-0.3-0.8-0.5-1.2-0.7l-55-29.2c-2.3-1.2-5.1-0.3-6.3,1.9c-1.1,2.1-0.5,4.6,1.3,5.9l50,37.1
			c4.1,3.1,9.9,2.2,13-1.9C99.6,121.1,98.7,115.3,94.6,112.2z M95.3,123.7c-2,3.3-5.5,4.9-7.7,3.5c-2.3-1.4-2.4-5.2-0.4-8.5
			c2-3.3,5.5-4.9,7.7-3.5C97.2,116.6,97.4,120.4,95.3,123.7z"/>
	</g>
	<path class="st1" d="M80.7,43.7c-1.4-1.6-2.8-3.2-3.9-4.8c-2.4-3.4-1.6-6.8-0.9-9.8c0.4-1.9,0.9-3.7,0.5-5.4c-0.5-2.5-2-4.7-4-6
		c1.2,3,0.5,7-2.7,9.3L66.9,29l2.1-2.6c1.7-2.2,1.8-4.3,0.1-7c-1.1-1.8-3-3.3-5-4.9c-2.5-2-5-4.1-6-6.7C57.2,5.4,57.6,3,59.2,1
		c-3.3,2.4-5.4,5.8-5.3,9.1c0.1,2.5,1,4.9,2.1,7.4c1.5,3.6,3,7.3,1.6,11.3c-0.7,2.1-4,6.1-7.5,10.2c-2.6,3.1-5.2,6.3-7,8.9
		c-4,6-4.6,11.4-2.1,17c2.2,4.9,7,8.7,14,11.4c-2.7-2-4.7-4.6-5-7.5c-0.4-3.7,0.7-7,4-9.3c-1.4,1.1-2.1,3.2-1.6,4.9
		c0.5,1.8,2.2,3.2,4.7,2.6c2.9-0.7,3.4-3.6,1.5-5.8c-1.8-2.1-4.5-3.9-4.9-6.6c-0.5-2.7,1.3-5.6,3.9-7c-2,2.2,1.2,8.6,4.9,9
		c-2.8-2.6-3.7-5.3-3.7-8.3c0.1-4.3,4.1-11.1,10.4-14.1c-4.6,5-1.8,10,2.2,14.5c2.8,3.1,6.9,8,8.8,11.6c3.1,5.9,0.3,12.1-4.5,15.9
		c5.4-2.6,11-6.9,12.4-14.2C89.9,54.3,85.2,48.9,80.7,43.7z"/>
</g>
</svg>
