<?xml version="1.0" encoding="utf-8"?>
<!-- Generator: Adobe Illustrator 19.2.1, SVG Export Plug-In . SVG Version: 6.00 Build 0)  -->
<svg version="1.1" id="Layer_1" xmlns="http://www.w3.org/2000/svg" xmlns:xlink="http://www.w3.org/1999/xlink" x="0px" y="0px"
	 viewBox="0 0 130 130" style="enable-background:new 0 0 130 130;" xml:space="preserve">
<style type="text/css">
	.st0{fill:none;}
	.st1{fill:#4D4D4D;}
</style>
<rect class="st0" width="130" height="130"/>
<g>
	<g>
		<path class="st1" d="M19,1c-1.9,0-3.4,1.5-3.4,3.3v121.3c0,1.9,1.5,3.3,3.4,3.3c1.8,0,3.3-1.5,3.3-3.3V4.3C22.3,2.5,20.8,1,19,1z"
			/>
	</g>
	<g>
		<path class="st1" d="M76.8,16.7c0,0,5.6-24.4-50.4-1.8v58.9c0,0,50.4-27.9,50.4,2c0,0,31.1-10.5,37.6-9V8.7
			C114.4,8.7,85.9,12.1,76.8,16.7z"/>
	</g>
</g>
</svg>
