<?xml version="1.0" encoding="utf-8"?>
<!-- Generator: Adobe Illustrator 19.2.1, SVG Export Plug-In . SVG Version: 6.00 Build 0)  -->
<svg version="1.1" id="Layer_1" xmlns="http://www.w3.org/2000/svg" xmlns:xlink="http://www.w3.org/1999/xlink" x="0px" y="0px"
	 viewBox="0 0 130 130" style="enable-background:new 0 0 130 130;" xml:space="preserve">
<style type="text/css">
	.st0{fill:none;}
	.st1{fill:#4D4D4D;}
</style>
<rect class="st0" width="130" height="130"/>
<g>
	<path class="st1" d="M107.9,28.6c0,0-46.4,0-59.3,0c-4.7,0-2.6-10.6-8.8-10.6c-5.2,0-22.7,0-22.7,0c-2.2,0-3.9,1.7-4,3.9v19.1h98.8
		v-8.3C111.9,30.4,110.1,28.6,107.9,28.6z"/>
	<path class="st1" d="M87.1,93.3c0-12.7,10.4-23.1,23.1-23.1c4.3,0,8.3,1.2,11.8,3.2l3.4-28.5H1l7,57.7c0.4,2.4,2,4.6,4.5,4.6h79.4
		C88.9,103.4,87.1,98.5,87.1,93.3z"/>
	<path class="st1" d="M110.2,74.5c-10.4,0-18.8,8.4-18.8,18.8s8.4,18.8,18.8,18.8c10.4,0,18.8-8.4,18.8-18.8S120.6,74.5,110.2,74.5z
		 M118.5,93.4c-0.3,0.3-0.7,0.5-1.1,0.5c-0.4,0-0.8-0.2-1.1-0.5l-4.6-4.7l0,13.9c0,0.9-0.7,1.6-1.5,1.6c-0.8,0-1.5-0.7-1.5-1.6l0-14
		l-4.6,4.8c-0.6,0.6-1.6,0.6-2.2,0c-0.6-0.6-0.6-1.6,0-2.2l7.3-7.4c0.6-0.6,1.6-0.6,2.2,0l7.2,7.4C119.1,91.8,119.1,92.8,118.5,93.4
		z"/>
</g>
</svg>
