<?xml version="1.0" encoding="utf-8"?>
<!-- Generator: Adobe Illustrator 19.2.1, SVG Export Plug-In . SVG Version: 6.00 Build 0)  -->
<svg version="1.1" id="Layer_1" xmlns="http://www.w3.org/2000/svg" xmlns:xlink="http://www.w3.org/1999/xlink" x="0px" y="0px"
	 viewBox="0 0 130 130" style="enable-background:new 0 0 130 130;" xml:space="preserve">
<style type="text/css">
	.st0{fill:none;}
	.st1{fill:#4D4D4D;}
	.st2{fill:#FFFFFF;}
</style>
<rect class="st0" width="130" height="130"/>
<g>
	<g>
		<path class="st1" d="M102.9,39.4L66.5,1.2c0-0.1-0.1-0.1-0.1-0.1l-0.1-0.1v0c0,0,0,0,0,0L20.1,1C17.3,1,15,3.3,15,6.1v108.2
			c0,2.8,2.3,5.1,5.1,5.1h56.6l7-7c-1.4-2.6-2.1-5.4-2.1-8.3c0-9.9,8-17.9,17.9-17.9c1.3,0,2.5,0.1,3.7,0.4c0-21,0-46.3,0-46.8
			C103.1,39.6,103,39.5,102.9,39.4z"/>
		<path class="st1" d="M99.4,88.4c-8.6,0-15.6,7-15.6,15.6c0,3.1,0.9,6.1,2.7,8.7l-10.9,10.9c-0.6,0.6-0.9,1.4-0.9,2.2
			c0,0.8,0.3,1.6,0.9,2.2c0.6,0.6,1.4,0.9,2.2,0.9c0.8,0,1.6-0.3,2.2-0.9l11-11c2.5,1.6,5.4,2.5,8.4,2.5c8.6,0,15.6-7,15.6-15.6
			C115,95.4,108,88.4,99.4,88.4z M99.4,113.2c-5.1,0-9.3-4.2-9.3-9.3c0-5.1,4.2-9.3,9.3-9.3c5.1,0,9.3,4.2,9.3,9.3
			C108.7,109.1,104.6,113.2,99.4,113.2z"/>
	</g>
	<path class="st2" d="M68.4,6.1l29.9,31.3h-19c-5.2,0-10.9-3.7-10.9-8.8L68.4,6.1"/>
</g>
</svg>
