<?xml version="1.0" encoding="utf-8"?>
<!-- Generator: Adobe Illustrator 19.2.1, SVG Export Plug-In . SVG Version: 6.00 Build 0)  -->
<svg version="1.1" id="Layer_1" xmlns="http://www.w3.org/2000/svg" xmlns:xlink="http://www.w3.org/1999/xlink" x="0px" y="0px"
	 viewBox="0 0 130 130" style="enable-background:new 0 0 130 130;" xml:space="preserve">
<style type="text/css">
	.st0{fill:none;}
	.st1{fill:#4D4D4D;}
	.st2{fill:#A1A1A1;}
	.st3{fill:#C3C3C3;}
	.st4{fill:#ECECEC;}
	.st5{fill:#F7F7F7;}
	.st6{fill:#6D6D6D;}
	.st7{fill:#FFFFFF;}
</style>
<rect class="st0" width="130" height="130"/>
<g>
	<g>
		<path class="st1" d="M96.1,1H47.2H46l0,0.1L10.4,38.2l-0.9,0.9c-0.1,0.1-0.2,0.2-0.3,0.3L9,39.7H9c-0.3,0.4-0.4,0.9-0.4,1.3
			c0,0.9,0,79.2,0,79.2c0,2.9,2.4,5.4,5.4,5.4h64.2c-4.3-4.1-7-9.8-7-16.1c0-12.3,10-22.3,22.4-22.3c2.8,0,5.4,0.5,7.8,1.4V6.4
			C101.5,3.4,99.1,1,96.1,1z M59,39.9c0-0.7,0.5-1.2,1.1-1.2h4.1c0.6,0,1.1,0.5,1.1,1.2v3.9c0,0.7-0.5,1.2-1.1,1.2h-4.1
			c-0.6,0-1.1-0.5-1.1-1.2C59,43.9,59,39.9,59,39.9z M27.4,61.1c0-0.7,0.5-1.2,1.1-1.2h27.4c0.6,0,1.1,0.5,1.1,1.2V65
			c0,0.7-0.5,1.2-1.1,1.2H28.5c-0.6,0-1.1-0.5-1.1-1.2L27.4,61.1L27.4,61.1z M27.4,82.2c0-0.6,0.5-1.2,1.1-1.2h27.4
			c0.6,0,1.1,0.5,1.1,1.2v3.9c0,0.7-0.5,1.2-1.1,1.2H28.5c-0.6,0-1.1-0.5-1.1-1.2L27.4,82.2L27.4,82.2z M65.4,109.3
			c0,0.7-0.5,1.2-1.1,1.2H28.5c-0.6,0-1.1-0.5-1.1-1.2v-3.9c0-0.7,0.5-1.2,1.1-1.2h35.9c0.6,0,1.1,0.5,1.1,1.2V109.3z M78,22.8
			c0,0.6-0.5,1.2-1.1,1.2H60.1c-0.6,0-1.1-0.5-1.1-1.2v-3.9c0-0.6,0.5-1.2,1.1-1.2h16.8c0.6,0,1.1,0.5,1.1,1.2V22.8z"/>
		<g>
			<g>
				<path class="st2" d="M104,15.5c-6.3-3.7-12.5-5.6-16.5-5.3l-26.1,45L91.1,72l25.7-44.8C115.1,23.6,110.3,19.2,104,15.5z"/>
			</g>
			<g>
				<path class="st3" d="M105.3,16.2c-3.4-2-6.8-3.4-9.8-4.3L67.2,61.3L80,68.6l28.7-50.2C107.6,17.7,106.5,17,105.3,16.2z"/>
			</g>
			<g>
				<path class="st4" d="M87.5,10.2L61.6,55l2.7,1l6.9,5.4L99.1,13C94.6,11,90.5,10,87.5,10.2z"/>
			</g>
			<g>
				<path class="st5" d="M81.2,66.5c-2.8-6-9.6-5.9-9.6-5.9c-1.9-4.3-5.8-6.7-10.1-5.5c-0.1,0.5-0.4,31.3,0.1,31.5l29.4-14.6
					C86.5,65.3,81.2,66.5,81.2,66.5z"/>
			</g>
			<g>
				<path class="st6" d="M61.7,86.5l7.1-3.5c-1.5-1.5-4-3.4-7.3-4C61.5,83.3,61.6,86.4,61.7,86.5z"/>
			</g>
			<g>
				<path class="st6" d="M109.4,5.8c-9.8-5.7-15.3-6.3-18.3-1.1c-0.2,0.3-1.5,2.2-3,4.6c4-0.3,10.2,1.6,16.4,5.2
					c6.3,3.7,11,8.2,12.8,11.8c1.5-2.6,2.6-4.4,2.8-4.7C123.4,16,120,11.9,109.4,5.8z"/>
			</g>
		</g>
		<path class="st1" d="M93.6,89.9c-10.8,0-19.6,8.8-19.6,19.6c0,10.8,8.8,19.6,19.6,19.6c10.8,0,19.6-8.8,19.6-19.6
			C113.2,98.7,104.4,89.9,93.6,89.9z M101.1,110.8H95v6.1c0,0.8-0.8,1.5-1.5,1.5c-0.8,0-1.5-0.7-1.5-1.5v-6.1h-6.1
			c-0.8,0-1.5-0.8-1.5-1.5s0.8-1.5,1.5-1.5h6.1v-6.1c0-0.8,0.8-1.5,1.5-1.5c0.8,0,1.5,0.7,1.5,1.5v6.1h6.1c0.8,0,1.5,0.8,1.5,1.5
			S101.9,110.8,101.1,110.8z"/>
	</g>
	<path class="st7" d="M44,6.3l0,22.5c0,5-5.8,8.8-11,8.8H13.9L44,6.3"/>
</g>
</svg>
