<?xml version="1.0" encoding="utf-8"?>
<!-- Generator: Adobe Illustrator 19.2.1, SVG Export Plug-In . SVG Version: 6.00 Build 0)  -->
<svg version="1.1" id="Layer_1" xmlns="http://www.w3.org/2000/svg" xmlns:xlink="http://www.w3.org/1999/xlink" x="0px" y="0px"
	 viewBox="0 0 130 130" style="enable-background:new 0 0 130 130;" xml:space="preserve">
<style type="text/css">
	.st0{fill:none;}
	.st1{fill:#4D4D4D;}
	.st2{fill:#FFFFFF;}
</style>
<rect class="st0" width="130" height="130"/>
<g>
	<g>
		<path class="st1" d="M104.3,41.2l-38.2-40c0-0.1-0.1-0.1-0.1-0.1l-0.1-0.1v0c0,0,0,0,0,0L17.5,1c-2.9,0-5.3,2.4-5.3,5.3v113.3
			c0,2.9,2.4,5.3,5.3,5.3h61.4c0-0.4-0.1-0.7-0.1-1.1v-17.4c0-3.2,2-6,4.8-7.3c1.2-7,7.6-13.9,16.2-13.9c1.7,0,3.2,0.3,4.7,0.7
			c0-20.9,0-44,0-44.5C104.5,41.4,104.4,41.3,104.3,41.2z"/>
		<path class="st1" d="M113.3,101.4L113.3,101.4c-0.2-6.2-6-13.1-13.6-13.1c-7.6,0-13.4,6.9-13.5,13.1c0,0,0.1,0,0.1,0
			c-0.3,0-0.6,0-0.6,0.1c-2.4,0.5-4.2,2.5-4.2,5v17.4c0,2.8,2.3,5.1,5.2,5.1h25.8c2.9,0,5.2-2.3,5.2-5.1v-17.4
			C117.9,103.9,115.9,101.7,113.3,101.4z M101,115.7v4.6c0,0.7-0.6,1.2-1.2,1.2c-0.7,0-1.2-0.5-1.2-1.2v-4.6
			c-1.3-0.5-2.2-1.7-2.2-3.1c0-1.8,1.5-3.3,3.4-3.3c1.9,0,3.4,1.5,3.4,3.3C103.2,114,102.3,115.2,101,115.7z M90.8,101.3
			c0.1-4.3,4-9,9-9c5,0,8.9,4.7,9,9L90.8,101.3z"/>
	</g>
	<path class="st2" d="M68.1,6.4l31.3,32.8H79.5c-5.4,0-11.4-3.9-11.4-9.2L68.1,6.4"/>
</g>
</svg>
