<?xml version="1.0" encoding="utf-8"?>
<!-- Generator: Adobe Illustrator 19.2.1, SVG Export Plug-In . SVG Version: 6.00 Build 0)  -->
<svg version="1.1" id="Layer_1" xmlns="http://www.w3.org/2000/svg" xmlns:xlink="http://www.w3.org/1999/xlink" x="0px" y="0px"
	 viewBox="0 0 130 130" style="enable-background:new 0 0 130 130;" xml:space="preserve">
<style type="text/css">
	.st0{fill:none;}
	.st1{fill:#4D4D4D;}
	.st2{fill:#FFFFFF;}
</style>
<rect class="st0" width="130" height="130"/>
<g>
	<g>
		<path class="st1" d="M99.4,89.2c-11,0-19.9,8.9-19.9,19.9c0,11,8.9,19.9,19.9,19.9c11,0,19.9-8.9,19.9-19.9
			C119.3,98.2,110.4,89.2,99.4,89.2z M108.2,111.8l-7.7,7.8c-0.6,0.6-1.7,0.6-2.3,0l-7.7-7.9c-0.6-0.6-0.6-1.7,0-2.4
			c0.3-0.3,0.7-0.5,1.1-0.5c0.4,0,0.8,0.2,1.2,0.5l4.9,5l0-14.8c0-0.9,0.7-1.7,1.6-1.7c0.9,0,1.6,0.7,1.6,1.7l0,14.8l4.9-5
			c0.6-0.6,1.7-0.6,2.3,0C108.8,110.1,108.8,111.2,108.2,111.8z"/>
		<path class="st1" d="M103.6,41.5L65.1,1.3c0-0.1-0.1-0.1-0.1-0.1L65,1.1v0c0,0,0,0,0,0L16.1,1c-3,0-5.4,2.4-5.4,5.4v114.2
			c0,3,2.4,5.4,5.4,5.4h66.4c-4.3-4.3-7-10.3-7-16.9c0-13.2,10.7-23.8,23.9-23.8c1.5,0,3,0.2,4.4,0.4c0-20.8,0-43.4,0-43.9
			C103.8,41.7,103.7,41.6,103.6,41.5z M28.4,20.6c0-0.7,0.5-1.2,1.1-1.2h23.4c0.6,0,1.1,0.5,1.1,1.2v2.7c0,0.7-0.5,1.2-1.1,1.2H29.5
			c-0.6,0-1.1-0.5-1.1-1.2C28.4,23.3,28.4,20.6,28.4,20.6z M28.4,42c0-0.7,0.5-1.2,1.1-1.2h23.4c0.6,0,1.1,0.5,1.1,1.2v2.7
			c0,0.7-0.5,1.2-1.1,1.2H29.5c-0.6,0-1.1-0.5-1.1-1.2C28.4,44.7,28.4,42,28.4,42z M66.8,111c0,0.7-0.5,1.2-1.1,1.2H29.4
			c-0.6,0-1.1-0.5-1.1-1.2v-2.7c0-0.7,0.5-1.2,1.1-1.2h36.3c0.6,0,1.1,0.5,1.1,1.2L66.8,111L66.8,111z M75.4,87.5
			c0,0.7-0.5,1.2-1.1,1.2H29.4c-0.6,0-1.1-0.5-1.1-1.2v-2.7c0-0.7,0.5-1.2,1.1-1.2h44.9c0.6,0,1.1,0.5,1.1,1.2L75.4,87.5L75.4,87.5z
			 M86.1,66.1c0,0.7-0.5,1.2-1.1,1.2H29.4c-0.6,0-1.1-0.5-1.1-1.2v-2.7c0-0.7,0.5-1.2,1.1-1.2H85c0.6,0,1.1,0.5,1.1,1.2
			C86.1,63.4,86.1,66.1,86.1,66.1z"/>
	</g>
	<path class="st2" d="M67.1,6.4l31.6,33.1H78.7c-5.4,0-11.5-4-11.5-9.3L67.1,6.4"/>
</g>
</svg>
