<?xml version="1.0" encoding="utf-8"?>
<!-- Generator: Adobe Illustrator 19.2.1, SVG Export Plug-In . SVG Version: 6.00 Build 0)  -->
<svg version="1.1" id="Layer_1" xmlns="http://www.w3.org/2000/svg" xmlns:xlink="http://www.w3.org/1999/xlink" x="0px" y="0px"
	 viewBox="0 0 130 130" style="enable-background:new 0 0 130 130;" xml:space="preserve">
<style type="text/css">
	.st0{fill:none;}
	.st1{fill:#4D4D4D;}
	.st2{fill:#FFFFFF;}
</style>
<rect class="st0" width="130" height="130"/>
<g>
	<path class="st1" d="M99.4,89.2c-11,0-19.9,8.9-19.9,19.9c0,11,8.9,19.9,19.9,19.9c11,0,19.9-8.9,19.9-19.9
		C119.3,98.2,110.4,89.2,99.4,89.2z M109.7,110.8H87.8c-1.1,0-2.2-0.9-2.2-1.9c0-0.9,1.1-1.9,2.2-1.9h21.9c1.1,0,2.2,0.9,2.2,1.9
		C111.8,109.8,110.8,110.8,109.7,110.8z"/>
	<path class="st1" d="M103.6,41.5L65.1,1.3c0-0.1-0.1-0.1-0.1-0.1L65,1.1v0c0,0,0,0,0,0L16.1,1c-3,0-5.4,2.4-5.4,5.4v114.2
		c0,3,2.4,5.4,5.4,5.4h66.4c-4.3-4.3-7-10.3-7-16.9c0-13.2,10.7-23.9,23.9-23.9c1.5,0,3,0.2,4.4,0.4c0-20.8,0-43.4,0-43.9
		C103.8,41.7,103.7,41.6,103.6,41.5z M28.5,20.7c0-0.7,0.5-1.2,1.1-1.2H53c0.6,0,1.1,0.5,1.1,1.2v2.7c0,0.7-0.5,1.2-1.1,1.2H29.6
		c-0.6,0-1.1-0.5-1.1-1.2V20.7z M28.5,42c0-0.7,0.5-1.2,1.1-1.2H53c0.6,0,1.1,0.5,1.1,1.2v2.7c0,0.7-0.5,1.2-1.1,1.2H29.6
		c-0.6,0-1.1-0.5-1.1-1.2V42z M66.9,111c0,0.7-0.5,1.2-1.1,1.2H29.5c-0.6,0-1.1-0.5-1.1-1.2v-2.7c0-0.7,0.5-1.2,1.1-1.2h36.3
		c0.6,0,1.1,0.5,1.1,1.2V111z M75.5,87.5c0,0.7-0.5,1.2-1.1,1.2H29.5c-0.6,0-1.1-0.5-1.1-1.2v-2.7c0-0.7,0.5-1.2,1.1-1.2h44.9
		c0.6,0,1.1,0.5,1.1,1.2V87.5z M86.2,66.1c0,0.7-0.5,1.2-1.1,1.2H29.5c-0.6,0-1.1-0.5-1.1-1.2v-2.7c0-0.7,0.5-1.2,1.1-1.2h55.6
		c0.6,0,1.1,0.5,1.1,1.2V66.1z"/>
	<path class="st2" d="M67.1,6.4l31.6,33.1H78.7c-5.4,0-11.5-4-11.5-9.3L67.1,6.4"/>
</g>
</svg>
