<?xml version="1.0" encoding="utf-8"?>
<!-- Generator: Adobe Illustrator 19.2.1, SVG Export Plug-In . SVG Version: 6.00 Build 0)  -->
<svg version="1.1" id="Layer_1" xmlns="http://www.w3.org/2000/svg" xmlns:xlink="http://www.w3.org/1999/xlink" x="0px" y="0px"
	 viewBox="0 0 130 130" style="enable-background:new 0 0 130 130;" xml:space="preserve">
<style type="text/css">
	.st0{fill:none;}
	.st1{fill:#4D4D4D;}
	.st2{fill:#FFFFFF;}
</style>
<rect class="st0" width="130" height="130"/>
<g>
	<path class="st1" d="M112.3,40.8L112.3,40.8l-0.2-0.3c-0.1-0.1-0.2-0.2-0.3-0.3l-0.9-0.9L74.4,1.1l0-0.1h-1.2H22.8
		c-3,0-5.5,2.5-5.5,5.5v117c0,3,2.5,5.5,5.5,5.5h84.3c3,0,5.5-2.5,5.5-5.5c0,0,0-80.4,0-81.3C112.7,41.7,112.6,41.2,112.3,40.8z
		 M34.6,20.9c0-0.7,0.5-1.2,1.1-1.2h23.8c0.6,0,1.1,0.5,1.1,1.2v2.7c0,0.7-0.5,1.2-1.1,1.2H35.8c-0.6,0-1.1-0.5-1.1-1.2L34.6,20.9
		L34.6,20.9z M34.6,42.6c0-0.7,0.5-1.2,1.1-1.2h23.8c0.6,0,1.1,0.6,1.1,1.2v2.8c0,0.7-0.5,1.2-1.1,1.2H35.8c-0.6,0-1.1-0.6-1.1-1.2
		L34.6,42.6L34.6,42.6z M93.2,112.6c0,0.7-0.5,1.2-1.1,1.2H35.7c-0.6,0-1.1-0.6-1.1-1.2v-2.8c0-0.7,0.5-1.2,1.1-1.2h56.3
		c0.6,0,1.1,0.6,1.1,1.2C93.2,109.8,93.2,112.6,93.2,112.6z M93.2,88.7c0,0.7-0.5,1.2-1.1,1.2H35.7c-0.6,0-1.1-0.5-1.1-1.2V86
		c0-0.7,0.5-1.2,1.1-1.2h56.3c0.6,0,1.1,0.5,1.1,1.2C93.2,86,93.2,88.7,93.2,88.7z M93.2,67c0,0.7-0.5,1.2-1.1,1.2H35.7
		c-0.6,0-1.1-0.6-1.1-1.2v-2.8c0-0.7,0.5-1.2,1.1-1.2h56.3c0.6,0,1.1,0.6,1.1,1.2C93.2,64.3,93.2,67,93.2,67z"/>
	<path class="st2" d="M76.4,6.4l30.9,32.2H87.7c-5.3,0-11.3-3.9-11.3-9L76.4,6.4"/>
</g>
</svg>
