<?xml version="1.0" encoding="utf-8"?>
<!-- Generator: Adobe Illustrator 19.2.1, SVG Export Plug-In . SVG Version: 6.00 Build 0)  -->
<svg version="1.1" id="Layer_1" xmlns="http://www.w3.org/2000/svg" xmlns:xlink="http://www.w3.org/1999/xlink" x="0px" y="0px"
	 viewBox="0 0 130 130" style="enable-background:new 0 0 130 130;" xml:space="preserve">
<style type="text/css">
	.st0{fill:none;}
	.st1{fill:#4D4D4D;}
	.st2{fill:#FFFFFF;}
	.st3{fill:#A1A1A1;}
	.st4{fill:#C3C3C3;}
	.st5{fill:#ECECEC;}
	.st6{fill:#F7F7F7;}
	.st7{fill:#6D6D6D;}
</style>
<rect class="st0" width="130" height="130"/>
<g>
	<path class="st1" d="M97,1H46.7h-1.2l0,0.1L8.9,39.2L8,40.2c-0.1,0.1-0.2,0.2-0.3,0.3l-0.3,0.3h0.1c-0.3,0.5-0.4,0.9-0.4,1.4
		c0,1,0,81.3,0,81.3c0,3,2.5,5.5,5.5,5.5H97c3,0,5.5-2.5,5.5-5.5V6.5C102.5,3.5,100,1,97,1z M58.9,19.4c0-0.7,0.5-1.2,1.1-1.2h17.3
		c0.6,0,1.1,0.5,1.1,1.2v4c0,0.7-0.5,1.2-1.1,1.2H60c-0.6,0-1.1-0.5-1.1-1.2C58.9,23.4,58.9,19.4,58.9,19.4z M58.9,41
		c0-0.7,0.5-1.2,1.1-1.2h4.2c0.6,0,1.1,0.6,1.1,1.2v4.1c0,0.7-0.5,1.2-1.1,1.2H60c-0.6,0-1.1-0.6-1.1-1.2V41z M26.4,62.7
		c0-0.7,0.5-1.2,1.1-1.2h28.2c0.6,0,1.1,0.6,1.1,1.2v4.1c0,0.7-0.5,1.2-1.1,1.2H27.5c-0.6,0-1.1-0.6-1.1-1.2
		C26.4,66.8,26.4,62.7,26.4,62.7z M26.4,84.4c0-0.7,0.5-1.2,1.1-1.2h28.2c0.6,0,1.1,0.5,1.1,1.2v4c0,0.7-0.5,1.2-1.1,1.2H27.5
		c-0.6,0-1.1-0.5-1.1-1.2C26.4,88.4,26.4,84.4,26.4,84.4z M84.9,112.3c0,0.7-0.5,1.2-1.1,1.2H27.5c-0.6,0-1.1-0.6-1.1-1.2v-4.1
		c0-0.7,0.5-1.2,1.1-1.2h56.3c0.6,0,1.1,0.6,1.1,1.2L84.9,112.3L84.9,112.3z"/>
	<path class="st2" d="M43.4,6.4l0,23.2c0,5.2-6,9-11.3,9H12.5L43.4,6.4"/>
	<g>
		<g>
			<path class="st3" d="M105.1,15.9c-6.5-3.8-12.9-5.7-17-5.4L61.4,56.7l30.4,17.2l26.4-46C116.4,24.2,111.6,19.7,105.1,15.9z"/>
		</g>
		<g>
			<path class="st4" d="M106.4,16.7c-3.5-2-7-3.5-10.1-4.4l-29,50.7l13.1,7.6l29.5-51.6C108.8,18.2,107.6,17.4,106.4,16.7z"/>
		</g>
		<g>
			<path class="st5" d="M88.2,10.5l-26.6,46l2.7,1.1l7.1,5.5l28.7-49.7C95.4,11.3,91.2,10.3,88.2,10.5z"/>
		</g>
		<g>
			<path class="st6" d="M81.7,68.3c-2.9-6.2-9.8-6.1-9.8-6.1c-1.9-4.4-5.9-6.8-10.3-5.7c-0.1,0.5-0.4,32.1,0.1,32.3l30.2-15
				C87.1,67.1,81.7,68.3,81.7,68.3z"/>
		</g>
		<g>
			<path class="st7" d="M61.6,88.8l7.3-3.6c-1.5-1.6-4.1-3.5-7.5-4.1C61.4,85.5,61.5,88.8,61.6,88.8z"/>
		</g>
		<g>
			<path class="st7" d="M110.6,5.9c-10.1-5.8-15.7-6.4-18.8-1.1c-0.2,0.3-1.5,2.3-3.1,4.7c4.1-0.3,10.4,1.6,16.9,5.4
				c6.5,3.8,11.3,8.4,13.1,12.1c1.6-2.7,2.7-4.5,2.9-4.9C125,16.4,121.5,12.2,110.6,5.9z"/>
		</g>
	</g>
</g>
</svg>
