<?xml version="1.0" encoding="utf-8"?>
<!-- Generator: Adobe Illustrator 19.2.1, SVG Export Plug-In . SVG Version: 6.00 Build 0)  -->
<svg version="1.1" id="Layer_1" xmlns="http://www.w3.org/2000/svg" xmlns:xlink="http://www.w3.org/1999/xlink" x="0px" y="0px"
	 viewBox="0 0 130 130" style="enable-background:new 0 0 130 130;" xml:space="preserve">
<style type="text/css">
	.st0{fill:none;}
	.st1{fill:#4D4D4D;}
	.st2{fill:#FFFFFF;}
</style>
<rect class="st0" width="130" height="130"/>
<g>
	<g>
		<g>
			<path class="st1" d="M117.4,35.2L84.7,1v0.1c0,0,0,0,0,0V1H42.6c-2.5,0-4.6,2.1-4.6,4.6v6.1h21.9c1.3,0,2.5,0.6,3.2,1.5
				l33.3,34.9c1.3,1,1.9,2.3,1.9,3.7v35.3c0.2,0,0.4,0,0.7,0c7.9,0,14.8,4.1,18.9,10.2c0-16.8,0-60.9,0-61.5
				C117.9,35.6,117.7,35.4,117.4,35.2z"/>
			<path class="st1" d="M94.2,87.6c0-17.6,0-35.3,0-35.8c0-0.1-0.2-0.3-0.6-0.6L59.9,16V16c0,0,0,0,0,0v-0.1H16.3
				c-2.6,0-4.8,2.1-4.8,4.8v101.4c0,2.6,2.2,4.8,4.8,4.8h68.2c-4.9-4.1-8.1-10.3-8.1-17.3C76.4,98.8,84,89.8,94.2,87.6z"/>
		</g>
		<path class="st1" d="M99,90.2c-10.7,0-19.5,8.7-19.5,19.4S88.3,129,99,129c10.7,0,19.4-8.7,19.4-19.4S109.7,90.2,99,90.2z
			 M106.6,112l-6.7,6.9c-0.6,0.6-1.4,0.6-2,0l-6.7-6.9c-0.6-0.6-0.6-1.5,0-2.1c0.3-0.3,0.6-0.4,1-0.4c0.4,0,0.7,0.1,1,0.4l4.3,4.4
			l0-12.9c0-0.8,0.6-1.5,1.4-1.5c0.8,0,1.4,0.7,1.4,1.5l0,12.9l4.3-4.4c0.6-0.6,1.5-0.6,2,0C107.2,110.5,107.2,111.4,106.6,112z"/>
	</g>
	<path class="st2" d="M62,21.2l27.3,28.5H72c-4.7,0-10-3.4-10-8L62,21.2"/>
	<path class="st2" d="M86.8,6.3L113,33.6H96.4c-4.5,0-9.6-3.3-9.6-7.7L86.8,6.3"/>
</g>
</svg>
