<?xml version="1.0" encoding="utf-8"?>
<!-- Generator: Adobe Illustrator 19.2.1, SVG Export Plug-In . SVG Version: 6.00 Build 0)  -->
<svg version="1.1" id="Layer_1" xmlns="http://www.w3.org/2000/svg" xmlns:xlink="http://www.w3.org/1999/xlink" x="0px" y="0px"
	 viewBox="0 0 130 130" style="enable-background:new 0 0 130 130;" xml:space="preserve">
<style type="text/css">
	.st0{fill:none;}
	.st1{fill:#4D4D4D;}
	.st2{fill:#FFFFFF;}
</style>
<rect class="st0" width="130" height="130"/>
<g>
	<path class="st1" d="M112.7,40.1L75.8,1.3c0,0-0.1-0.1-0.1-0.1l0,0v0c0,0-0.1-0.1-0.1-0.1L73.1,1H22.8c-3,0-5.5,2.5-5.5,5.5v117
		c0,3,2.5,5.5,5.5,5.5h84.3c3,0,5.5-2.5,5.5-5.5c0,0,0-82.3,0-83.3C112.7,40.1,112.6,40.1,112.7,40.1
		C112.6,40.1,112.7,40.1,112.7,40.1z"/>
	<path class="st2" d="M77.9,6.6l29.8,31.3H88.8c-5.1,0-10.8-3.7-10.8-8.7L77.9,6.6"/>
</g>
</svg>
