<?xml version="1.0" encoding="utf-8"?>
<!-- Generator: Adobe Illustrator 19.2.1, SVG Export Plug-In . SVG Version: 6.00 Build 0)  -->
<svg version="1.1" id="Layer_1" xmlns="http://www.w3.org/2000/svg" xmlns:xlink="http://www.w3.org/1999/xlink" x="0px" y="0px"
	 viewBox="0 0 130 130" style="enable-background:new 0 0 130 130;" xml:space="preserve">
<style type="text/css">
	.st0{fill:none;}
	.st1{fill:#4D4D4D;}
	.st2{fill:#FFFFFF;}
</style>
<rect class="st0" width="130" height="130"/>
<g>
	<g>
		<path class="st1" d="M99.4,89.2c-11,0-19.9,8.9-19.9,19.9c0,11,8.9,19.9,19.9,19.9c11,0,19.9-8.9,19.9-19.9
			C119.3,98.2,110.4,89.2,99.4,89.2z M96.4,122.2l-4.6,1.2c-0.7,0.2-1-0.2-0.7-0.8l1.2-2.2c-3.9-2.5-6.3-6.8-6.3-11.5
			c0-5.4,3.2-10.3,8.1-12.5c0.2-0.1,0.3-0.1,0.5-0.1c0.5,0,0.9,0.3,1.1,0.7c0.3,0.6,0,1.3-0.6,1.6c-4,1.8-6.7,5.9-6.7,10.3
			c0,3.9,1.9,7.4,5.1,9.4l1.2-2.2c0.4-0.7,0.8-0.6,1.1,0.1l1.5,4.5C97.5,121.3,97.1,122,96.4,122.2z M104.7,121.9
			c-0.2,0.1-0.3,0.1-0.5,0.1c-0.5,0-0.9-0.3-1.1-0.7c-0.3-0.6,0-1.3,0.6-1.6c4-1.8,6.7-5.9,6.7-10.3c0-3.9-1.9-7.4-5.1-9.4l-1.2,2.2
			c-0.4,0.6-0.8,0.6-1.1-0.1l-1.5-4.5c-0.2-0.7,0.2-1.4,0.9-1.6l4.6-1.2c0.7-0.2,1,0.2,0.7,0.8l-1.2,2.2c3.9,2.5,6.3,6.8,6.3,11.5
			C112.7,114.8,109.6,119.7,104.7,121.9z"/>
		<path class="st1" d="M103.6,41.5L65.1,1.3c0-0.1-0.1-0.1-0.1-0.1L65,1.1v0c0,0,0,0,0,0L16.1,1c-3,0-5.4,2.4-5.4,5.4v114.2
			c0,3,2.4,5.4,5.4,5.4h66.4c-4.3-4.3-7-10.3-7-16.9c0-13.2,10.7-23.8,23.9-23.8c1.5,0,3,0.2,4.4,0.4c0-20.8,0-43.4,0-43.9
			C103.8,41.7,103.7,41.6,103.6,41.5z M28.6,20.6c0-0.7,0.5-1.2,1.1-1.2h23.4c0.6,0,1.1,0.5,1.1,1.2v2.7c0,0.7-0.5,1.2-1.1,1.2H29.7
			c-0.6,0-1.1-0.5-1.1-1.2V20.6z M28.6,42c0-0.7,0.5-1.2,1.1-1.2h23.4c0.6,0,1.1,0.5,1.1,1.2v2.7c0,0.7-0.5,1.2-1.1,1.2H29.7
			c-0.6,0-1.1-0.5-1.1-1.2V42z M67.1,111c0,0.7-0.5,1.2-1.1,1.2H29.7c-0.6,0-1.1-0.5-1.1-1.2v-2.7c0-0.7,0.5-1.2,1.1-1.2H66
			c0.6,0,1.1,0.5,1.1,1.2L67.1,111L67.1,111z M75.7,87.5c0,0.7-0.5,1.2-1.1,1.2H29.7c-0.6,0-1.1-0.5-1.1-1.2v-2.7
			c0-0.7,0.5-1.2,1.1-1.2h44.9c0.6,0,1.1,0.5,1.1,1.2L75.7,87.5L75.7,87.5z M86.4,66.1c0,0.7-0.5,1.2-1.1,1.2H29.7
			c-0.6,0-1.1-0.5-1.1-1.2v-2.7c0-0.7,0.5-1.2,1.1-1.2h55.6c0.6,0,1.1,0.5,1.1,1.2C86.4,63.4,86.4,66.1,86.4,66.1z"/>
	</g>
	<path class="st2" d="M67.1,6.4l31.6,33.1H78.7c-5.4,0-11.5-4-11.5-9.3L67.1,6.4"/>
</g>
</svg>
