<?xml version="1.0" encoding="utf-8"?>
<!-- Generator: Adobe Illustrator 19.2.1, SVG Export Plug-In . SVG Version: 6.00 Build 0)  -->
<svg version="1.1" id="Layer_1" xmlns="http://www.w3.org/2000/svg" xmlns:xlink="http://www.w3.org/1999/xlink" x="0px" y="0px"
	 viewBox="0 0 130 130" style="enable-background:new 0 0 130 130;" xml:space="preserve">
<style type="text/css">
	.st0{fill:none;}
	.st1{fill:#4D4D4D;}
	.st2{fill:#FFFFFF;}
</style>
<rect class="st0" width="130" height="130"/>
<g>
	<g>
		<path class="st1" d="M104.3,41.2l-38.2-40c0-0.1-0.1-0.1-0.1-0.1l-0.1-0.1v0c0,0,0,0,0,0L17.4,1c-2.9,0-5.3,2.4-5.3,5.3v113.4
			c0,2.9,2.4,5.3,5.3,5.3h61.4c-0.1-0.4-0.1-0.7-0.1-1.1v-17.3c0-3,1.6-5.6,4.1-7.1c1.2-7.7,8-15.4,17.1-15.4c1.5,0,3.1,0.2,4.5,0.7
			c0-20.6,0-42.8,0-43.3C104.5,41.4,104.4,41.3,104.3,41.2z M30.1,20.5c0-0.7,0.5-1.2,1.1-1.2h23.3c0.6,0,1.1,0.5,1.1,1.2v2.6
			c0,0.7-0.5,1.2-1.1,1.2H31.2c-0.6,0-1.1-0.5-1.1-1.2L30.1,20.5L30.1,20.5z M30.1,41.7c0-0.7,0.5-1.2,1.1-1.2h23.3
			c0.6,0,1.1,0.5,1.1,1.2v2.7c0,0.7-0.5,1.2-1.1,1.2H31.2c-0.6,0-1.1-0.5-1.1-1.2L30.1,41.7L30.1,41.7z M68.3,110.2
			c0,0.7-0.5,1.2-1.1,1.2h-36c-0.6,0-1.1-0.5-1.1-1.2v-2.7c0-0.7,0.5-1.2,1.1-1.2h36c0.6,0,1.1,0.5,1.1,1.2V110.2z M76.8,86.8
			c0,0.7-0.5,1.2-1.1,1.2H31.2c-0.6,0-1.1-0.5-1.1-1.2v-2.6c0-0.7,0.5-1.2,1.1-1.2h44.5c0.6,0,1.1,0.5,1.1,1.2
			C76.8,84.2,76.8,86.8,76.8,86.8z M87.4,65.6c0,0.7-0.5,1.2-1.1,1.2H31.2c-0.6,0-1.1-0.5-1.1-1.2V63c0-0.7,0.5-1.2,1.1-1.2h55.1
			c0.6,0,1.1,0.5,1.1,1.2V65.6z"/>
		<path class="st1" d="M113.4,101.6l-22.9-0.1c0.2-4.7,4.2-9.8,9.4-9.8c2.8,0,4.9,1.4,6.1,2.6c0.9,0.9,2.3,0.9,3.2,0
			c0.9-0.9,0.9-2.3,0-3.1c-2.6-2.5-5.9-3.9-9.3-3.9c-8,0-13.9,7.7-14.1,14.4c0,0,0.1,0,0.1,0c-2.3,0.5-4,2.5-4,4.9v17.3
			c0,2.8,2.3,5.1,5.2,5.1h25.7c2.8,0,5.2-2.3,5.2-5.1v-17.3C117.9,104,116,101.9,113.4,101.6z M101.2,115.7v4.6
			c0,0.7-0.5,1.2-1.2,1.2s-1.2-0.5-1.2-1.2v-4.6c-1.3-0.5-2.1-1.7-2.1-3.1c0-1.8,1.5-3.3,3.4-3.3c1.9,0,3.4,1.5,3.4,3.3
			C103.3,114.1,102.4,115.3,101.2,115.7z"/>
	</g>
	<path class="st2" d="M68.1,6.4l31.4,32.8H79.5c-5.4,0-11.4-3.9-11.4-9.2L68.1,6.4"/>
</g>
</svg>
