<?xml version="1.0" encoding="utf-8"?>
<!-- Generator: Adobe Illustrator 19.2.1, SVG Export Plug-In . SVG Version: 6.00 Build 0)  -->
<svg version="1.1" id="Layer_1" xmlns="http://www.w3.org/2000/svg" xmlns:xlink="http://www.w3.org/1999/xlink" x="0px" y="0px"
	 viewBox="0 0 130 130" style="enable-background:new 0 0 130 130;" xml:space="preserve">
<style type="text/css">
	.st0{fill:none;}
	.st1{fill:#4D4D4D;}
	.st2{fill:#FFFFFF;}
</style>
<rect class="st0" width="130" height="130"/>
<g>
	<path class="st1" d="M102.9,39.4L66.5,1.2c0-0.1-0.1-0.1-0.1-0.1l-0.1-0.1v0c0,0,0,0,0,0L20.1,1C17.3,1,15,3.3,15,6.1v108.2
		c0,2.8,2.3,5.1,5.1,5.1h56.6l7-7c-1.4-2.6-2.1-5.4-2.1-8.3c0-9.9,8-17.9,17.9-17.9c1.3,0,2.5,0.1,3.7,0.4c0-21,0-46.3,0-46.8
		C103.1,39.6,103,39.5,102.9,39.4z M32.2,19.6c0-0.6,0.5-1.1,1.1-1.1h22.2c0.6,0,1.1,0.5,1.1,1.1v2.5c0,0.6-0.5,1.1-1.1,1.1H33.2
		c-0.6,0-1.1-0.5-1.1-1.1V19.6z M32.2,39.8c0-0.6,0.5-1.1,1.1-1.1h22.2c0.6,0,1.1,0.5,1.1,1.1v2.6c0,0.6-0.5,1.1-1.1,1.1H33.2
		c-0.6,0-1.1-0.5-1.1-1.1V39.8z M68.6,105.2c0,0.6-0.5,1.1-1,1.1H33.2c-0.6,0-1-0.5-1-1.1v-2.6c0-0.6,0.5-1.1,1-1.1h34.4
		c0.6,0,1,0.5,1,1.1V105.2z M76.7,82.9c0,0.6-0.5,1.1-1,1.1H33.2c-0.6,0-1-0.5-1-1.1v-2.5c0-0.6,0.5-1.1,1-1.1h42.5
		c0.6,0,1,0.5,1,1.1L76.7,82.9L76.7,82.9z M86.8,62.7c0,0.6-0.5,1.1-1,1.1H33.2c-0.6,0-1-0.5-1-1.1v-2.6c0-0.6,0.5-1.1,1-1.1h52.6
		c0.6,0,1,0.5,1,1.1L86.8,62.7L86.8,62.7z"/>
	<path class="st2" d="M68.4,6.1l29.9,31.3h-19c-5.2,0-10.9-3.7-10.9-8.8L68.4,6.1"/>
	<g>
		<g>
			<path class="st1" d="M76.1,124.1l11.4-11.4c-1.8-2.5-2.9-5.5-2.9-8.8c0-8.2,6.7-14.8,14.8-14.8s14.8,6.7,14.8,14.8
				c0,8.2-6.7,14.8-14.8,14.8c-3.2,0-6.1-1-8.5-2.7l-11.4,11.4c-0.5,0.5-1.1,0.7-1.7,0.7c-0.6,0-1.2-0.2-1.7-0.7
				C75.2,126.6,75.2,125.1,76.1,124.1z M99.4,114c5.5,0,10-4.5,10-10c0-5.5-4.5-10-10-10c-5.5,0-10,4.5-10,10
				C89.4,109.5,93.9,114,99.4,114z"/>
			<path class="st1" d="M77.8,129c-0.8,0-1.6-0.3-2.2-0.9c-0.6-0.6-0.9-1.4-0.9-2.2s0.3-1.6,0.9-2.2l10.9-10.9
				c-1.7-2.6-2.7-5.6-2.7-8.7c0-8.6,7-15.6,15.6-15.6c8.6,0,15.6,7,15.6,15.6s-7,15.6-15.6,15.6c-3,0-5.9-0.9-8.4-2.5l-11,11
				C79.5,128.7,78.7,129,77.8,129z M99.4,89.9c-7.8,0-14.1,6.3-14.1,14.1c0,3,0.9,5.9,2.7,8.3l0.4,0.5l-11.9,11.9
				c-0.3,0.3-0.5,0.7-0.5,1.2s0.2,0.9,0.5,1.2c0.6,0.6,1.7,0.6,2.3,0l11.9-11.9l0.5,0.4c2.4,1.7,5.2,2.6,8.1,2.6
				c7.8,0,14.1-6.3,14.1-14.1C113.5,96.2,107.2,89.9,99.4,89.9z M99.4,114.8c-5.9,0-10.8-4.8-10.8-10.8s4.8-10.8,10.8-10.8
				c5.9,0,10.8,4.8,10.8,10.8S105.4,114.8,99.4,114.8z M99.4,94.7c-5.1,0-9.3,4.2-9.3,9.3s4.2,9.3,9.3,9.3c5.1,0,9.3-4.2,9.3-9.3
				S104.6,94.7,99.4,94.7z"/>
		</g>
	</g>
</g>
</svg>
