<?xml version="1.0" encoding="utf-8"?>
<!-- Generator: Adobe Illustrator 19.2.1, SVG Export Plug-In . SVG Version: 6.00 Build 0)  -->
<svg version="1.1" id="Layer_1" xmlns="http://www.w3.org/2000/svg" xmlns:xlink="http://www.w3.org/1999/xlink" x="0px" y="0px"
	 viewBox="0 0 130 130" style="enable-background:new 0 0 130 130;" xml:space="preserve">
<style type="text/css">
	.st0{fill:none;}
	.st1{fill:#4D4D4D;}
</style>
<rect class="st0" width="130" height="130"/>
<g>
	<g>
		<path class="st1" d="M122.9,105.9l-21.3-14.3V102H71.9v7.8h29.7v10.4L122.9,105.9z M20.8,94.2H7.1l6.9,11.7l-6.9,11.7h13.7
			l4.6-7.8h28.8V102H25.4L20.8,94.2z"/>
	</g>
	<g>
		<path class="st1" d="M64.5,86.6l-2.1,0c0,0-1.8-0.1-3.6-0.3v38.3c0,2.5,2,4.5,4.4,4.5c2.5,0,4.4-2,4.4-4.5V86.5
			C66.6,86.5,65.6,86.6,64.5,86.6z"/>
	</g>
	<g>
		<path class="st1" d="M96.8,32.8c-0.2-0.8-0.4-2-0.5-2h12.6l-4.1-4.5c-1.2-1.2-3.2-3.2-5.2-4.2c0.2-0.4,0.4-0.9,0.6-1.2
			c1.7-3.2,3.2-6.3,1.9-8.5c-0.4-0.6-1.3-1.6-3.1-1.6c-1.1,0-2.1,0.3-2.9,0.7c-0.1-0.5,1.4-6.2,1-6.7c-0.6-0.8-2.5,0.5-3.2,1.4
			C93.6,6,92.4,8.3,92.2,8C91.8,7.2,91,3.1,90,2.1C89.7,1.9,88.9,1,87.6,1c-2.3,0-2.6,5.6-2.7,6.4c-0.1,0.4-0.2,1.2-0.6,1.3
			c-0.7,0-1.1-0.5-1.9-1.9c-0.7-1.1-5.7-5.6-7.6-5.6c-0.9,0-1.9,0.4-2.7,1.1c-1.7,1.7,2.2,6.9,2.2,8.5V11c-2.4,0.4-5-0.3-5.6,1.2
			c-0.4,1,1.8,3.8,2.2,4.8c-0.5,0-0.8,0-1.1,0c-2,0-5.9,0.3-6,0.7c-0.5,1.9,4.3,4,5.5,4.8c1.2,0.8,3.2,2.1,4.3,3.6
			c-0.6,3.2-3.4,15.8-14.1,15.8c-5.2,0-10.6-2.1-15.8-4.2c-4.9-1.9-9.5-3.7-13.7-3.7c-3.9,0-6.9,1.8-9.6,4.6
			c-19.9,21.1-2.1,39.2-2.1,39.2l1.9-9.5c1.1,6.1,4.6,13.5,8.3,13.5c2.3,0,3.2-2.3,4.5-5.6c0.6-1.6,2.2-5.9,3.2-6.2
			c0,0,0.3,0.1,1,0.7C42.1,76,47.4,81.2,55,83.2c1.8,0.5,7.3,0.8,7.3,0.8l2.2,0c13.5,0,26.1-5.1,26.5-42c0.6,0,1.1,0.2,1.6,1.2
			c0.8,1.7,2.3,2.7,4,2.7c2,0,3.8-1.4,4.5-3.5C101.4,41.2,102.3,37.3,96.8,32.8z"/>
	</g>
</g>
</svg>
