<?xml version="1.0" encoding="utf-8"?>
<!-- Generator: Adobe Illustrator 19.2.1, SVG Export Plug-In . SVG Version: 6.00 Build 0)  -->
<svg version="1.1" id="Layer_1" xmlns="http://www.w3.org/2000/svg" xmlns:xlink="http://www.w3.org/1999/xlink" x="0px" y="0px"
	 viewBox="0 0 130 130" style="enable-background:new 0 0 130 130;" xml:space="preserve">
<style type="text/css">
	.st0{fill:none;}
	.st1{fill:#4D4D4D;}
</style>
<rect class="st0" width="130" height="130"/>
<g>
	<g>
		<path class="st1" d="M108.2,15.1c0.5,0.3,0,108.6,0,108.6H97.6c-1.2,0-1.8,1.8-1.8,3c0,1.2,1,2.2,2.2,2.2h23.7
			c1.2,0,2.2-1,2.2-2.2c0-1.2-0.6-3-1.7-3h-10.5V15.1H108.2z"/>
	</g>
	<path class="st1" d="M109.9,1c-3.9,0-7.1,3.2-7.1,7.2c0,3.9,3.2,7.1,7.1,7.1c3.9,0,7.1-3.2,7.1-7.1C117.1,4.2,113.9,1,109.9,1z"/>
	<path class="st1" d="M99,13.9c0-0.1-0.1-0.1-0.1-0.1c-1.6-4.1-3.8-6.7-6.7-6.7c-0.4,0-0.9,0.1-1.3,0.2l-64.8,5.3
		C15.1,13.7,6.1,23.7,6.1,34.9v3.3c0,11.1,9,21.1,20.2,22.3L91,65.8c0.4,0.1,0.8,0.2,1.3,0.2c3.1,0,5.4-3,7-7.6l9.1-12.5V28.2
		L99,13.9z M91.9,11.6l0.6,0c0.9,0.4,2.4,2.9,3.5,7.6l-5.6-5.6C91,12.5,91.5,11.9,91.9,11.6z M26.5,56c-8.9-0.9-16.2-8.9-16.2-17.9
		v-3.3c0-9,7.2-17,16.1-17.8l7.3-0.6c-7.7,15.8-4.7,30.1,0,40.2L26.5,56z M38.9,57.1c-5.1-9.8-9.1-24.5-0.1-40.8
		c0-0.1,0.1-0.2,0.1-0.2l18.4-1.5c-8,17.3-5.1,33-0.3,44.1L38.9,57.1z M86.2,61L62,59c-5.1-10.7-8.9-26.7,0.1-44.4
		c0.1-0.2,0.2-0.4,0.3-0.5l23.8-2C83.3,17.7,82,27.3,82,36.5C82,45.7,83.3,55.3,86.2,61z M95.4,57.4c0,0.1-0.1,0.1-0.1,0.2
		c-1,2.8-2,4.3-2.7,4.6l-0.6,0c-0.6-0.4-1.4-1.6-2.2-3.7l6.7-5.3C96.2,54.7,95.8,56.2,95.4,57.4z M97.4,45.9l-9.1,7.2
		c-1-4.1-1.7-9.7-1.7-16.6c0-8,1-14.2,2.2-18.4l8.6,8.6c0.3,2.9,0.5,6.1,0.5,9.8C97.9,40,97.7,43.1,97.4,45.9z M102.1,42.1
		c0.1-1.9,0.2-3.7,0.2-5.6c0-1.7,0-3.3-0.1-5l5.9,5.9L102.1,42.1z"/>
</g>
</svg>
