<?xml version="1.0" encoding="utf-8"?>
<!-- Generator: Adobe Illustrator 19.2.1, SVG Export Plug-In . SVG Version: 6.00 Build 0)  -->
<svg version="1.1" id="Layer_1" xmlns="http://www.w3.org/2000/svg" xmlns:xlink="http://www.w3.org/1999/xlink" x="0px" y="0px"
	 viewBox="0 0 130 130" style="enable-background:new 0 0 130 130;" xml:space="preserve">
<style type="text/css">
	.st0{fill:none;}
	.st1{fill:#4D4D4D;}
</style>
<rect class="st0" width="130" height="130"/>
<g>
	<g>
		<path class="st1" d="M127.2,32.1c0-7.9-6.4-14.4-14.2-14.4c-7.8,0-14.2,6.5-14.2,14.4c0,1.5,1.2,2.6,2.6,2.6s2.6-1.2,2.6-2.6
			c0-5,4-9.1,9-9.1c5,0,9,4.1,9,9.1c0,9.3-8.2,10-9,10.1H3.6c-1.4,0-2.6,1.2-2.6,2.6c0,1.5,1.2,2.6,2.6,2.6l109.6,0
			C118,47.2,127.2,43.7,127.2,32.1z M114.7,54.5H17.6c-1.4,0-2.6,1.2-2.6,2.6c0,1.5,1.2,2.6,2.6,2.6h97c0.4,0,9.2,0.5,9.2,10.1
			c0,5-4.1,9.1-9.1,9.1c-5,0-9.1-4.1-9.1-9.1c0-1.5-1.2-2.6-2.6-2.6c-1.4,0-2.6,1.2-2.6,2.6c0,7.9,6.4,14.4,14.3,14.4
			c7.9,0,14.3-6.5,14.3-14.4C129,58.2,119.7,54.7,114.7,54.5z"/>
	</g>
	<g>
		<path class="st1" d="M56.8,86h-4.6l15-15.4c1.3-1.3,1.2-3.4-0.1-4.7c-1.3-1.3-3.4-1.2-4.7,0.1L42,87c-0.9,0.9-1.2,2.4-0.7,3.6
			c0.5,1.2,1.7,2,3,2h4.5l-14.1,14.1c-1.3,1.3-1.3,3.4,0,4.6c0.6,0.6,1.5,1,2.3,1c0.9,0,1.7-0.3,2.3-1l19.7-19.7
			c0.9-0.9,1.2-2.4,0.7-3.6C59.3,86.8,58.1,86,56.8,86z M45.1,67.3c-1.3-1.3-3.4-1.3-4.7,0L24.8,82.9c-1.3,1.3-1.3,3.4,0,4.7
			c0.6,0.6,1.5,1,2.3,1c0.8,0,1.7-0.3,2.3-1l15.6-15.6C46.4,70.6,46.4,68.6,45.1,67.3z M87.5,67.3c-1.3-1.3-3.4-1.3-4.7,0L67.2,82.9
			c-1.3,1.3-1.3,3.4,0,4.6c0.6,0.6,1.5,1,2.3,1c0.8,0,1.7-0.3,2.3-1l15.6-15.6C88.8,70.6,88.8,68.5,87.5,67.3z"/>
	</g>
	<g>
		<path class="st1" d="M86.1,26.4H10.6c-1.4,0-2.6,1.2-2.6,2.6c0,1.5,1.2,2.6,2.6,2.6h75.5c1.4,0,2.6-1.2,2.6-2.6
			C88.7,27.6,87.5,26.4,86.1,26.4z"/>
	</g>
</g>
</svg>
