<?xml version="1.0" encoding="utf-8"?>
<!-- Generator: Adobe Illustrator 19.2.1, SVG Export Plug-In . SVG Version: 6.00 Build 0)  -->
<svg version="1.1" id="Layer_1" xmlns="http://www.w3.org/2000/svg" xmlns:xlink="http://www.w3.org/1999/xlink" x="0px" y="0px"
	 viewBox="0 0 130 130" style="enable-background:new 0 0 130 130;" xml:space="preserve">
<style type="text/css">
	.st0{fill:none;}
	.st1{fill:#4D4D4D;}
</style>
<rect class="st0" width="130" height="130"/>
<g>
	<g>
		<path class="st1" d="M96,88.4l-1.9-0.9l1.2-0.4c0.4-0.1,0.5-0.5,0.4-0.8c-0.1-0.4-0.5-0.5-0.8-0.4l-2.4,0.8l-1-0.5l2.4-0.8
			c0.4-0.1,0.5-0.5,0.4-0.9c-0.1-0.3-0.5-0.5-0.8-0.4l-3.7,1.2l-2.2-1.1l2.1-1.4l3.8,0.8c0,0,0.1,0,0.1,0c0.3,0,0.6-0.2,0.7-0.5
			c0.1-0.4-0.2-0.7-0.5-0.8l-2.5-0.5l1-0.6l2.5,0.5c0,0,0.1,0,0.1,0c0.3,0,0.6-0.2,0.7-0.5c0.1-0.4-0.2-0.7-0.5-0.8L93.7,80l1.7-1.1
			c0.3-0.2,0.4-0.6,0.2-0.9c-0.2-0.3-0.6-0.4-0.9-0.2L93,78.9l0.2-1.2c0.1-0.4-0.2-0.7-0.5-0.8c-0.4-0.1-0.7,0.2-0.8,0.5l-0.5,2.5
			l-1,0.6l0.5-2.5c0.1-0.4-0.2-0.7-0.5-0.8c-0.4-0.1-0.7,0.2-0.8,0.5l-0.8,3.8l-2,1.3v-2.4l2.7-2.7c0.3-0.3,0.3-0.7,0-0.9
			c-0.3-0.3-0.7-0.3-0.9,0l-1.8,1.8v-1.1l1.8-1.8c0.3-0.3,0.3-0.7,0-0.9c-0.3-0.3-0.7-0.3-0.9,0l-0.9,0.9v-2.1
			c0-0.4-0.3-0.7-0.7-0.7c-0.4,0-0.7,0.3-0.7,0.7v2.1l-0.9-0.9c-0.3-0.3-0.7-0.3-0.9,0c-0.3,0.3-0.3,0.7,0,0.9l1.8,1.8v1.1l-1.8-1.8
			c-0.3-0.3-0.7-0.3-0.9,0c-0.3,0.3-0.3,0.7,0,0.9l2.7,2.7v2.5l-2.3-1.2l-1.2-3.7c-0.1-0.4-0.5-0.5-0.8-0.4
			c-0.4,0.1-0.5,0.5-0.4,0.8l0.8,2.4l-1-0.5l-0.8-2.4c-0.1-0.4-0.5-0.5-0.8-0.4c-0.4,0.1-0.5,0.5-0.4,0.8l0.4,1.2l-1.8-0.9
			c-0.3-0.2-0.7,0-0.9,0.3c-0.2,0.3,0,0.7,0.3,0.9l1.8,0.9l-1.2,0.4c-0.4,0.1-0.5,0.5-0.4,0.8c0.1,0.3,0.4,0.5,0.6,0.5
			c0.1,0,0.1,0,0.2,0l2.4-0.8l1,0.5l-2.4,0.8c-0.4,0.1-0.5,0.5-0.4,0.8c0.1,0.3,0.4,0.5,0.6,0.5c0.1,0,0.1,0,0.2,0l3.6-1.2l2.2,1.1
			l-2.1,1.4l-3.8-0.8c-0.4-0.1-0.7,0.2-0.8,0.5c-0.1,0.4,0.2,0.7,0.5,0.8l2.5,0.5l-1,0.6l-2.5-0.5c-0.4-0.1-0.7,0.2-0.8,0.5
			c-0.1,0.4,0.1,0.7,0.5,0.8l1.2,0.3L77,89.5c-0.3,0.2-0.4,0.6-0.2,0.9c0.1,0.2,0.3,0.3,0.6,0.3c0.1,0,0.3,0,0.4-0.1l1.7-1.1
			l-0.2,1.2c-0.1,0.4,0.2,0.7,0.5,0.8c0,0,0.1,0,0.1,0c0.3,0,0.6-0.2,0.7-0.5l0.5-2.5l1-0.6l-0.5,2.5C81.4,90.6,81.7,91,82,91
			c0,0,0.1,0,0.1,0c0.3,0,0.6-0.2,0.7-0.5l0.8-3.8l2-1.3v2.4l-2.7,2.7c-0.3,0.3-0.3,0.7,0,1c0.3,0.3,0.7,0.3,0.9,0l1.8-1.8v1.1
			l-1.8,1.8c-0.3,0.3-0.3,0.7,0,0.9c0.3,0.3,0.7,0.3,0.9,0l0.9-0.9v2.1c0,0.4,0.3,0.7,0.7,0.7c0.4,0,0.7-0.3,0.7-0.7v-2.1l0.9,0.9
			c0.1,0.1,0.3,0.2,0.5,0.2c0.2,0,0.3-0.1,0.5-0.2c0.3-0.3,0.3-0.7,0-0.9l-1.8-1.8v-1.1l1.8,1.8c0.1,0.1,0.3,0.2,0.5,0.2
			c0.2,0,0.4-0.1,0.5-0.2c0.3-0.3,0.3-0.7,0-1l-2.7-2.7v-2.6l2.3,1.2l1.2,3.7c0.1,0.3,0.4,0.5,0.6,0.5c0.1,0,0.1,0,0.2,0
			c0.4-0.1,0.6-0.5,0.4-0.8l-0.8-2.4l1,0.5l0.8,2.4c0.1,0.3,0.4,0.5,0.6,0.5c0.1,0,0.1,0,0.2,0c0.4-0.1,0.5-0.5,0.4-0.8l-0.4-1.2
			l1.9,0.9c0.1,0,0.2,0.1,0.3,0.1c0.2,0,0.5-0.1,0.6-0.4C96.5,89,96.4,88.6,96,88.4z M56.2,70.4l1.2,0.6l-0.6,0.2
			c-0.3,0.1-0.5,0.5-0.4,0.8c0.1,0.3,0.4,0.5,0.6,0.5c0.1,0,0.1,0,0.2,0l1.9-0.6l0.5,0.3L58,72.7c-0.3,0.1-0.5,0.5-0.4,0.9
			c0.1,0.3,0.4,0.5,0.6,0.5c0.1,0,0.1,0,0.2,0l2.9-1l1.5,0.8l-1.4,0.9l-3-0.6c-0.4-0.1-0.7,0.2-0.8,0.5c-0.1,0.4,0.2,0.7,0.5,0.8
			l1.7,0.4l-0.5,0.3l-2-0.4c-0.4-0.1-0.7,0.2-0.8,0.5c-0.1,0.4,0.2,0.7,0.5,0.8l0.7,0.1l-1.1,0.8c-0.3,0.2-0.4,0.6-0.2,0.9
			c0.1,0.2,0.3,0.3,0.6,0.3c0.1,0,0.3,0,0.4-0.1l1.1-0.8l-0.1,0.6c-0.1,0.4,0.2,0.7,0.5,0.8c0,0,0.1,0,0.1,0c0.3,0,0.6-0.2,0.7-0.5
			l0.4-2l0.5-0.3l-0.3,1.7c-0.1,0.4,0.2,0.7,0.5,0.8c0,0,0.1,0,0.1,0c0.1,0,0.2-0.1,0.3-0.1c0,0.1,0,0.3,0.2,0.4
			c0.1,0.1,0.3,0.2,0.5,0.2c0.2,0,0.3-0.1,0.5-0.2l1.2-1.2v0.6l-1.4,1.4c-0.3,0.3-0.3,0.7,0,0.9c0.3,0.3,0.7,0.3,0.9,0l0.5-0.5v1.4
			c0,0.4,0.3,0.7,0.7,0.7c0.4,0,0.7-0.3,0.7-0.7V81l0.5,0.5c0.1,0.1,0.3,0.2,0.5,0.2c0.2,0,0.3-0.1,0.5-0.2c0.3-0.3,0.3-0.7,0-0.9
			l-1.4-1.4v-0.6l1.2,1.2c0.3,0.3,0.7,0.3,0.9,0c0.3-0.3,0.3-0.7,0-0.9l-2.2-2.1v-1.8l1.6,0.8l0.9,2.9c0.1,0.3,0.4,0.5,0.6,0.5
			c0.1,0,0.1,0,0.2,0c0.4-0.1,0.5-0.5,0.4-0.8l-0.5-1.6l0.5,0.3l0.6,1.9c0.1,0.3,0.4,0.5,0.6,0.5c0.1,0,0.1,0,0.2,0
			c0.3-0.1,0.5-0.5,0.4-0.8l-0.2-0.6l1.2,0.6c0.1,0,0.2,0.1,0.3,0.1c0.2,0,0.5-0.1,0.6-0.4c0.2-0.3,0-0.7-0.3-0.9L71,76.4l0.6-0.2
			c0.4-0.1,0.5-0.5,0.4-0.8c-0.1-0.4-0.5-0.5-0.8-0.4l-1.9,0.6l-0.5-0.3l1.6-0.5c0.3-0.1,0.5-0.5,0.4-0.9c-0.1-0.3-0.5-0.5-0.8-0.4
			l-2.9,1l-1.5-0.8l1.4-1l3,0.6c0,0,0.1,0,0.1,0c0.3,0,0.6-0.2,0.7-0.5c0.1-0.4-0.2-0.7-0.5-0.8l-1.7-0.3l0.5-0.3l2,0.4
			c0,0,0.1,0,0.1,0c0.3,0,0.6-0.2,0.7-0.5c0.1-0.4-0.2-0.7-0.5-0.8l-0.7-0.1l1.1-0.8c0.3-0.2,0.4-0.6,0.2-0.9
			c-0.2-0.3-0.6-0.4-0.9-0.2l-1.1,0.8l0.1-0.6c0.1-0.4-0.2-0.7-0.5-0.8c-0.4-0.1-0.7,0.2-0.8,0.5l-0.4,2l-0.5,0.3l0.3-1.7
			c0.1-0.4-0.2-0.7-0.5-0.8c-0.2,0-0.3,0-0.4,0.1c0-0.1-0.1-0.3-0.2-0.4c-0.3-0.3-0.7-0.3-0.9,0L64.9,69v-0.6l1.4-1.4
			c0.3-0.3,0.3-0.7,0-0.9c-0.3-0.3-0.7-0.3-0.9,0l-0.5,0.5v-1.4c0-0.4-0.3-0.7-0.7-0.7c-0.4,0-0.7,0.3-0.7,0.7v1.4L63.1,66
			c-0.3-0.3-0.7-0.3-0.9,0c-0.3,0.3-0.3,0.7,0,0.9l1.4,1.4V69l-1.2-1.2c-0.3-0.3-0.7-0.3-1,0c-0.3,0.3-0.3,0.7,0,0.9l2.2,2.1v1.8
			l-1.6-0.8L61,68.9c-0.1-0.4-0.5-0.5-0.8-0.4c-0.4,0.1-0.6,0.5-0.4,0.8l0.5,1.6l-0.5-0.3l-0.6-1.9c-0.1-0.4-0.5-0.5-0.8-0.4
			c-0.3,0.1-0.5,0.5-0.4,0.8l0.2,0.6l-1.2-0.6c-0.3-0.2-0.7,0-0.9,0.3C55.8,69.9,55.9,70.3,56.2,70.4z M64.9,70.8l1.9-1.9l-0.5,2.6
			l-1.4,0.9V70.8z M63.5,76.6l-1.9,1.9l0.5-2.6l1.4-0.9V76.6z M48.4,87.3l1,0.5l0.8,2.4c0.1,0.3,0.4,0.5,0.6,0.5c0.1,0,0.1,0,0.2,0
			c0.3-0.1,0.5-0.5,0.4-0.8l-0.4-1.2l1.8,0.9c0.1,0,0.2,0.1,0.3,0.1c0.2,0,0.5-0.1,0.6-0.4c0.2-0.3,0-0.7-0.3-0.9l-1.9-0.9l1.2-0.4
			c0.4-0.1,0.5-0.5,0.4-0.8c-0.1-0.4-0.5-0.5-0.8-0.4L50,86.6l-1-0.5l2.4-0.8c0.4-0.1,0.5-0.5,0.4-0.9c-0.1-0.3-0.5-0.5-0.8-0.4
			l-3.7,1.2l-2.2-1.1l2.1-1.4l3.8,0.8c0,0,0.1,0,0.1,0c0.3,0,0.6-0.2,0.7-0.5c0.1-0.4-0.2-0.7-0.5-0.8l-2.5-0.5l1-0.6l2.5,0.5
			c0,0,0.1,0,0.1,0c0.3,0,0.6-0.2,0.7-0.5c0.1-0.4-0.2-0.7-0.5-0.8L51.3,80l1.7-1.1c0.3-0.2,0.4-0.6,0.2-0.9
			c-0.2-0.3-0.6-0.4-0.9-0.2l-1.7,1.1l0.2-1.2c0.1-0.4-0.2-0.7-0.5-0.8c-0.4-0.1-0.7,0.2-0.8,0.5L49,79.9l-1,0.6l0.5-2.5
			c0.1-0.4-0.2-0.7-0.5-0.8c-0.4-0.1-0.7,0.2-0.8,0.5l-0.8,3.8l-2,1.3v-2.4l2.7-2.7c0.3-0.3,0.3-0.7,0-0.9c-0.3-0.3-0.7-0.3-0.9,0
			l-1.8,1.8v-1.1l1.8-1.8c0.3-0.3,0.3-0.7,0-0.9c-0.3-0.3-0.7-0.3-0.9,0l-0.9,0.9v-2.1c0-0.4-0.3-0.7-0.7-0.7
			c-0.4,0-0.7,0.3-0.7,0.7v2.1l-0.9-0.9c-0.3-0.3-0.7-0.3-0.9,0c-0.3,0.3-0.3,0.7,0,0.9l1.8,1.8v1.1l-1.8-1.8
			c-0.3-0.3-0.7-0.3-0.9,0c-0.3,0.3-0.3,0.7,0,0.9l2.7,2.7v2.5l-2.3-1.1l-1.2-3.7c-0.1-0.3-0.5-0.5-0.8-0.4
			c-0.3,0.1-0.5,0.5-0.4,0.8l0.8,2.4l-1-0.5l-0.8-2.4c-0.1-0.4-0.5-0.5-0.8-0.4c-0.4,0.1-0.5,0.5-0.4,0.8l0.4,1.2l-1.9-0.9
			c-0.3-0.2-0.7,0-0.9,0.3c-0.2,0.3,0,0.7,0.3,0.9l1.8,0.9l-1.2,0.4c-0.4,0.1-0.5,0.5-0.4,0.8c0.1,0.3,0.4,0.5,0.6,0.5
			c0.1,0,0.1,0,0.2,0l2.4-0.8l1,0.5l-2.4,0.8c-0.4,0.1-0.5,0.5-0.4,0.8c0.1,0.3,0.4,0.5,0.6,0.5c0.1,0,0.1,0,0.2,0l3.7-1.2l2.2,1.1
			l-2.1,1.4l-3.8-0.8c-0.4-0.1-0.7,0.2-0.8,0.5c-0.1,0.4,0.2,0.7,0.5,0.8l2.5,0.5l-1,0.6l-2.5-0.5c-0.4-0.1-0.7,0.2-0.8,0.5
			c-0.1,0.4,0.1,0.7,0.5,0.8l1.2,0.3l-1.7,1.1c-0.3,0.2-0.4,0.6-0.2,0.9c0.1,0.2,0.3,0.3,0.6,0.3c0.1,0,0.3,0,0.4-0.1l1.7-1.1
			l-0.2,1.2c-0.1,0.4,0.2,0.7,0.5,0.8c0,0,0.1,0,0.1,0c0.3,0,0.6-0.2,0.7-0.5l0.5-2.5l1-0.6L39,90.3c-0.1,0.4,0.2,0.7,0.5,0.8
			c0,0,0.1,0,0.1,0c0.3,0,0.6-0.2,0.7-0.5l0.8-3.8l2-1.3v2.4l-2.7,2.7c-0.3,0.3-0.3,0.7,0,1c0.1,0.1,0.3,0.2,0.5,0.2
			c0.2,0,0.3-0.1,0.5-0.2l1.8-1.8v1.1l-1.8,1.8c-0.3,0.3-0.3,0.7,0,0.9c0.3,0.3,0.7,0.3,0.9,0l0.9-0.9v2.1c0,0.4,0.3,0.7,0.7,0.7
			c0.4,0,0.7-0.3,0.7-0.7v-2.1l0.9,0.9c0.1,0.1,0.3,0.2,0.5,0.2c0.2,0,0.3-0.1,0.5-0.2c0.3-0.3,0.3-0.7,0-0.9l-1.8-1.8v-1.1l1.8,1.8
			c0.3,0.3,0.7,0.3,0.9,0c0.3-0.3,0.3-0.7,0-1l-2.7-2.7v-2.6l2.3,1.2l1.2,3.7c0.1,0.3,0.4,0.5,0.6,0.5c0.1,0,0.1,0,0.2,0
			c0.4-0.1,0.5-0.5,0.4-0.8L48.4,87.3z M79.8,112.9l-3-1.5l2-0.7c0.5-0.2,0.8-0.7,0.6-1.2c-0.2-0.5-0.7-0.8-1.2-0.6l-3.7,1.2
			l-1.8-0.9l3.9-1.3c0.5-0.2,0.8-0.7,0.6-1.2c-0.2-0.5-0.7-0.8-1.2-0.6l-5.6,1.9l-3.6-1.8L70,104l5.8,1.2c0.1,0,0.1,0,0.2,0
			c0.4,0,0.8-0.3,0.9-0.7c0.1-0.5-0.2-1-0.7-1.1l-4-0.8l1.7-1.1l3.9,0.8c0.1,0,0.1,0,0.2,0c0.4,0,0.8-0.3,0.9-0.7
			c0.1-0.5-0.2-1-0.7-1.1l-2-0.4l2.8-1.9c0.4-0.3,0.6-0.9,0.3-1.3c-0.3-0.4-0.9-0.5-1.3-0.3l-2.8,1.9l0.4-2c0.1-0.5-0.2-1-0.7-1.1
			c-0.5-0.1-1,0.2-1.1,0.7l-0.8,3.9l-1.7,1.1l0.8-4c0.1-0.5-0.2-1-0.7-1.1c-0.5-0.1-1,0.2-1.1,0.7l-1.2,5.8l-3.3,2.1v-3.9l4.2-4.2
			c0.4-0.4,0.4-1,0-1.3c-0.4-0.4-1-0.4-1.3,0l-2.9,2.9v-2l2.8-2.8c0.4-0.4,0.4-1,0-1.3c-0.4-0.4-1-0.4-1.3,0l-1.5,1.5V90
			c0-0.5-0.4-0.9-0.9-0.9c-0.5,0-0.9,0.4-0.9,0.9v3.4L62.4,92c-0.4-0.4-1-0.4-1.3,0c-0.4,0.4-0.4,1,0,1.3l2.8,2.8v2L61,95.2
			c-0.4-0.4-1-0.4-1.3,0c-0.4,0.4-0.4,1,0,1.3l4.2,4.2v4.1l-3.7-1.9l-1.8-5.7c-0.2-0.5-0.7-0.8-1.2-0.6c-0.5,0.2-0.8,0.7-0.6,1.2
			l1.3,3.9l-1.8-0.9l-1.2-3.8c-0.2-0.5-0.7-0.8-1.2-0.6c-0.5,0.2-0.8,0.7-0.6,1.2l0.6,2l-3-1.5c-0.5-0.2-1-0.1-1.3,0.4
			c-0.2,0.5-0.1,1,0.4,1.3l3,1.5l-2,0.7c-0.5,0.2-0.8,0.7-0.6,1.2c0.1,0.4,0.5,0.6,0.9,0.6c0.1,0,0.2,0,0.3,0l3.7-1.3l1.8,0.9
			l-3.9,1.3c-0.5,0.2-0.8,0.7-0.6,1.2c0.1,0.4,0.5,0.6,0.9,0.6c0.1,0,0.2,0,0.3,0l5.6-1.9l3.6,1.8l-3.3,2.2l-5.8-1.2
			c-0.5-0.1-1,0.2-1.1,0.7c-0.1,0.5,0.2,1,0.7,1.1l4,0.8l-1.7,1.1l-3.9-0.8c-0.5-0.1-1,0.2-1.1,0.7c-0.1,0.5,0.2,1,0.7,1.1l2,0.4
			l-2.8,1.9c-0.4,0.3-0.6,0.9-0.3,1.3c0.2,0.3,0.5,0.4,0.8,0.4c0.2,0,0.4-0.1,0.5-0.2l2.8-1.9l-0.4,2c-0.1,0.5,0.2,1,0.7,1.1
			c0.1,0,0.1,0,0.2,0c0.4,0,0.8-0.3,0.9-0.8l0.8-3.9l1.7-1.1l-0.8,4c-0.1,0.5,0.2,1,0.7,1.1c0.1,0,0.1,0,0.2,0
			c0.4,0,0.8-0.3,0.9-0.8l1.2-5.8l3.2-2.1v3.9l-4.2,4.2c-0.4,0.4-0.4,1,0,1.3c0.4,0.4,1,0.4,1.3,0l2.9-2.9v2l-2.8,2.8
			c-0.4,0.4-0.4,1,0,1.3c0.2,0.2,0.4,0.3,0.7,0.3c0.2,0,0.5-0.1,0.7-0.3l1.5-1.5v3.4c0,0.5,0.4,0.9,0.9,0.9c0.5,0,0.9-0.4,0.9-0.9
			v-3.4l1.5,1.5c0.4,0.4,1,0.4,1.3,0c0.4-0.4,0.4-1,0-1.3l-2.8-2.8v-2l2.9,2.9c0.2,0.2,0.4,0.3,0.7,0.3c0.2,0,0.5-0.1,0.7-0.3
			c0.4-0.4,0.4-1,0-1.3l-4.2-4.2v-4.1l3.7,1.9l1.8,5.7c0.1,0.4,0.5,0.7,0.9,0.7c0.1,0,0.2,0,0.3,0c0.5-0.2,0.8-0.7,0.6-1.2l-1.2-3.9
			l1.8,0.9l1.2,3.8c0.1,0.4,0.5,0.6,0.9,0.6c0.1,0,0.2,0,0.3,0c0.5-0.2,0.8-0.7,0.6-1.2l-0.6-2l3,1.5c0.1,0.1,0.3,0.1,0.4,0.1
			c0.3,0,0.7-0.2,0.8-0.5C80.4,113.7,80.2,113.1,79.8,112.9z"/>
	</g>
	<g>
		<path class="st1" d="M113.9,39.6L113.9,39.6c0-18.3-14.9-33.2-33.1-33.2c-10.6,0-20.4,5-26.7,13.5c-4-2.4-8.5-3.6-13.1-3.6
			c-13.4,0-24.4,10.3-25.6,23.6C6.5,44.5,1,53.8,1,64.3c0,15,11.7,27.2,26,27.2h1.3c1.9,0,3.5-1.6,3.5-3.5c0-1.9-1.6-3.5-3.5-3.5H27
			c-10.4,0-19-9-19-20.2c0-8.3,4.9-15.9,12.2-18.8c1.4-0.6,2.2-2.2,2.2-3.5c0-10.3,8.3-18.6,18.6-18.6c4.3,0,8.5,1.5,11.8,4.2
			c0.8,0.7,2,0.9,2.9,0.7c1-0.2,1.9-0.8,2.4-1.7c4.6-8.1,13.3-13.2,22.6-13.2c14.4,0,26.1,11.7,26.1,26.1c0,0.7,0,1.4-0.1,2.1
			c-0.1,1.6,0.8,3.1,2.3,3.6c7.7,2.8,12.8,10.5,12.8,19.1c0,11.1-8.5,20.2-18.9,20.2h-1.3c-1.9,0-3.5,1.6-3.5,3.5
			c0,1.9,1.6,3.5,3.5,3.5h1.3c14.3,0,26-12.2,26-27.2C129,53.6,123.1,44,113.9,39.6z"/>
	</g>
</g>
</svg>
