<?xml version="1.0" encoding="utf-8"?>
<!-- Generator: Adobe Illustrator 19.2.1, SVG Export Plug-In . SVG Version: 6.00 Build 0)  -->
<svg version="1.1" id="Layer_1" xmlns="http://www.w3.org/2000/svg" xmlns:xlink="http://www.w3.org/1999/xlink" x="0px" y="0px"
	 viewBox="0 0 130 130" style="enable-background:new 0 0 130 130;" xml:space="preserve">
<style type="text/css">
	.st0{fill:none;}
	.st1{fill:#4D4D4D;}
</style>
<rect class="st0" width="130" height="130"/>
<g>
	<g>
		<path class="st1" d="M105.9,57.4L105.9,57.4c0-15.3-12.4-27.7-27.7-27.7c-8.8,0-17.1,4.2-22.3,11.3c-3.3-2-7.1-3-10.9-3
			c-11.2,0-20.4,8.6-21.4,19.7C16.1,61.5,11.5,69.2,11.5,78c0,12.5,9.7,22.8,21.7,22.8h1.1c1.6,0,2.9-1.3,2.9-3
			c0-1.6-1.3-2.9-2.9-2.9h-1.1c-8.7,0-15.8-7.6-15.8-16.8c0-6.9,4.1-13.3,10.2-15.7c1.2-0.5,1.8-1.8,1.8-2.9c0-8.6,7-15.5,15.5-15.5
			c3.6,0,7.1,1.3,9.9,3.5c0.7,0.5,1.6,0.8,2.4,0.6c0.9-0.2,1.6-0.7,2-1.4c3.9-6.8,11.1-11,18.9-11c12,0,21.8,9.8,21.8,21.8
			c0,0.6,0,1.2-0.1,1.7c-0.1,1.3,0.7,2.6,1.9,3c6.4,2.3,10.7,8.7,10.7,16c0,9.3-7.1,16.8-15.8,16.8h-1.1c-1.6,0-3,1.3-3,2.9
			c0,1.6,1.3,3,3,3h1.1c12,0,21.7-10.2,21.7-22.8C118.5,69.1,113.5,61.1,105.9,57.4z"/>
	</g>
	<g>
		<path class="st1" d="M65.8,92.1c1.6,0,3.1-0.6,4.2-1.8c1.1-1.1,1.8-2.6,1.8-4.2c0-2-2.9-6.7-4.8-9.8c-0.4-0.7-0.8-1.4-1.2-2
			c-0.4,0.6-0.8,1.3-1.2,2c-1.9,3.1-4.8,7.8-4.8,9.8C59.8,89.4,62.5,92.1,65.8,92.1z M52.6,90.4c-0.4-0.7-0.9-1.4-1.2-2
			c-0.4,0.6-0.8,1.3-1.2,2c-1.9,3.1-4.8,7.8-4.8,9.8c0,3.3,2.7,6,6,6c1.6,0,3.1-0.6,4.2-1.8c1.1-1.1,1.8-2.6,1.8-4.2
			C57.4,98.1,54.5,93.5,52.6,90.4z M81.7,90.8c-0.4-0.7-0.8-1.3-1.2-1.9c-0.4,0.6-0.7,1.2-1.2,1.9c-1.8,2.9-4.5,7.3-4.5,9.2
			c0,3.1,2.5,5.6,5.6,5.6c1.5,0,2.9-0.6,4-1.7c1.1-1.1,1.7-2.5,1.7-4C86.2,98.1,83.5,93.7,81.7,90.8z M65.8,102.2
			c-0.7,1.3-1.6,2.8-2.7,4.5c-2.8,4.6-6.4,10.3-6.4,13.3c0,5,4.1,9.1,9.1,9.1c2.4,0,4.7-0.9,6.4-2.7c1.7-1.7,2.6-4,2.6-6.4
			c0-3-3.5-8.7-6.4-13.3C67.4,104.9,66.5,103.5,65.8,102.2z"/>
	</g>
	<g>
		<path class="st1" d="M43.9,16.2c0.3,0.6,0.8,0.9,1.4,0.9c0.2,0,0.5-0.1,0.7-0.2c0.8-0.4,1.1-1.4,0.7-2.2l-5-9.7
			c-0.4-0.8-1.4-1.1-2.2-0.7c-0.8,0.4-1.1,1.4-0.7,2.2L43.9,16.2z M53.9,15.1L53.9,15.1c0.9,0,1.6-0.7,1.6-1.6l0.3-10.9
			c0-0.9-0.7-1.6-1.6-1.6h0c-0.9,0-1.6,0.7-1.6,1.6l-0.3,10.9C52.3,14.3,53,15.1,53.9,15.1z M35.5,29.5l-10.9-0.3h0
			c-0.9,0-1.6,0.7-1.6,1.6c0,0.9,0.7,1.6,1.6,1.6l10.9,0.3h0c0.9,0,1.6-0.7,1.6-1.6C37.1,30.2,36.4,29.5,35.5,29.5z M62.5,17.7
			c0.3,0.2,0.6,0.3,0.9,0.3c0.5,0,1-0.3,1.4-0.7l5.9-9.1c0.5-0.7,0.3-1.7-0.5-2.2c-0.7-0.5-1.7-0.3-2.2,0.5L62,15.5
			C61.5,16.2,61.7,17.2,62.5,17.7z M39.7,22.5c0.5-0.7,0.3-1.7-0.5-2.2l-9.1-5.9c-0.7-0.5-1.7-0.3-2.2,0.5c-0.5,0.7-0.3,1.7,0.5,2.2
			l9.1,5.9c0.3,0.2,0.6,0.3,0.9,0.3C38.9,23.3,39.4,23,39.7,22.5z M80.7,17.6c-0.4-0.8-1.4-1.1-2.2-0.7l-9.7,5
			c-0.8,0.4-1.1,1.4-0.7,2.2c0.3,0.5,0.8,0.9,1.4,0.9c0.2,0,0.5-0.1,0.7-0.2l9.7-5C80.8,19.3,81.1,18.4,80.7,17.6z M53.9,17.5
			c-3.8-0.1-7.3,1.3-10,3.9c-2.7,2.6-4.3,6.1-4.4,9.8c0,1.8,1.4,3.2,3.1,3.3h0.1c1.7,0,3.2-1.4,3.2-3.1c0.1-2,0.9-3.9,2.4-5.3
			c1.5-1.4,3.4-2.2,5.4-2.1c2.9,0.1,5.4,1.7,6.6,4.3c0.8,1.6,2.7,2.3,4.3,1.5c1.6-0.8,2.3-2.7,1.5-4.3
			C63.9,20.7,59.2,17.6,53.9,17.5z"/>
	</g>
</g>
</svg>
