<?xml version="1.0" encoding="utf-8"?>
<!-- Generator: Adobe Illustrator 19.2.1, SVG Export Plug-In . SVG Version: 6.00 Build 0)  -->
<svg version="1.1" id="Layer_1" xmlns="http://www.w3.org/2000/svg" xmlns:xlink="http://www.w3.org/1999/xlink" x="0px" y="0px"
	 viewBox="0 0 130 130" style="enable-background:new 0 0 130 130;" xml:space="preserve">
<style type="text/css">
	.st0{fill:none;}
	.st1{fill:#4D4D4D;}
</style>
<rect class="st0" width="130" height="130"/>
<g>
	<path class="st1" d="M27.9,1C17.4,1,9,9.5,9,19.9c0,10.4,8.5,18.9,18.9,18.9c10.4,0,18.9-8.5,18.9-18.9C46.8,9.5,38.3,1,27.9,1z
		 M27.9,32.5c-7,0-12.6-5.7-12.6-12.6c0-7,5.7-12.6,12.6-12.6c7,0,12.6,5.7,12.6,12.6C40.5,26.8,34.8,32.5,27.9,32.5z M114.8,116.5
		c-29.2,0-52.9-21.9-52.9-48.9c0-27,23.7-48.9,52.9-48.9c3.5,0,6.3-2.8,6.3-6.3c0-3.5-2.8-6.3-6.3-6.3c-36.1,0-65.4,27.6-65.4,61.4
		c0,33.9,29.4,61.4,65.4,61.4c3.5,0,6.3-2.8,6.3-6.3C121,119.3,118.2,116.5,114.8,116.5z"/>
</g>
</svg>
