<?xml version="1.0" encoding="utf-8"?>
<!-- Generator: Adobe Illustrator 19.2.1, SVG Export Plug-In . SVG Version: 6.00 Build 0)  -->
<svg version="1.1" id="Layer_1" xmlns="http://www.w3.org/2000/svg" xmlns:xlink="http://www.w3.org/1999/xlink" x="0px" y="0px"
	 viewBox="0 0 130 130" style="enable-background:new 0 0 130 130;" xml:space="preserve">
<style type="text/css">
	.st0{fill:none;}
	.st1{fill:#4D4D4D;}
</style>
<rect class="st0" width="130" height="130"/>
<g>
	<g>
		<path class="st1" d="M59.5,89.3h4c0.2-0.5,0.4-1.1,0.8-1.5c0.6-0.6,1.5-1,2.3-1.1c0.4-1.6,1.8-2.8,3.5-2.8s3.1,1.2,3.5,2.8
			c0.9,0.1,1.7,0.4,2.3,1c0.4,0.4,0.7,1,0.9,1.5h3.9c-0.4-0.7-0.6-1.6-0.4-2.4c0.1-0.4,0.2-0.7,0.4-1.1c-0.2-0.6-0.2-1.1-0.1-1.7
			c0.2-0.9,0.7-1.6,1.3-2c0,0,0,0,0-0.1c0,0,0,0,0-0.1c0,0,0-0.1,0-0.1c0,0,0,0,0-0.1c-0.7-0.4-1.3-1-1.5-1.8
			c-0.2-0.6-0.2-1.2-0.1-1.7c-0.2-0.3-0.4-0.7-0.6-1c0-0.1,0-0.2-0.1-0.2c-0.5,0.4-1.2,0.6-1.8,0.7c-0.3,0.3-0.7,0.6-1.2,0.7l-0.1,0
			l-0.1,0c-0.3,0.1-0.6,0.1-0.8,0.1c-0.4,0-0.7-0.1-1.1-0.2c-0.1,0.7-0.4,1.4-0.9,1.9c-0.4,0.4-0.8,0.6-1.2,0.8
			c-0.6,1-1.6,1.7-2.9,1.7S67.3,82,66.7,81c-0.4-0.2-0.9-0.4-1.2-0.8c-0.3-0.3-0.6-0.7-0.7-1.1c-0.2,0-0.4,0.1-0.7,0.1
			c-0.2,0-0.5,0-0.6-0.1c-0.5-0.1-0.9-0.3-1.3-0.6c-0.1,0-0.1,0-0.2,0c-0.6,0-1.2-0.2-1.7-0.5c0,0.2,0,0.3-0.1,0.4
			c-0.2,0.9-0.7,1.6-1.3,2.1c0,0,0,0,0,0c0,0,0,0.1,0,0.1c0,0,0,0.1,0,0.1c0,0,0,0,0,0c0.7,0.4,1.3,1,1.5,1.8
			c0.2,0.6,0.2,1.2,0.1,1.7c0.8,1,1,2.4,0.4,3.5C60.5,88.5,60.1,89,59.5,89.3z"/>
		<path class="st1" d="M112.9,40.5c0.1-0.8,0.1-1.7,0.1-2.5c0-17.3-14-31.3-31.3-31.3c-11.6,0-21.8,6.4-27.2,15.8
			c-4.1-3.3-9.2-5.3-14.9-5.3c-12.9,0-23.4,10.5-23.4,23.4c0,0.1,0,0.2,0,0.2C7.3,44.5,1,53.6,1,64.2c0,13.9,10.7,25.1,23.8,25.1
			h10.7c-0.4-0.7-0.6-1.6-0.4-2.4c0.1-0.4,0.2-0.8,0.4-1.1c-0.2-0.6-0.2-1.1-0.1-1.6c0.2-0.9,0.6-1.6,1.3-2.1c0,0,0,0,0-0.1
			c0,0,0-0.1,0-0.1c0,0,0,0,0-0.1c0,0,0,0,0-0.1c-0.7-0.4-1.3-1-1.5-1.8c-0.2-0.6-0.2-1.2-0.1-1.7c-0.2-0.3-0.4-0.6-0.5-1
			c-0.3-0.8-0.2-1.7,0.2-2.5c0.6-1.1,1.7-1.8,3-1.8c0,0,0.1,0,0.1,0c0.4-0.4,0.9-0.8,1.5-0.9c0.3-0.1,0.6-0.1,1-0.1
			c0.5,0,1,0.1,1.4,0.3c0,0,0.1,0,0.1,0c0.1,0,0.2,0,0.3-0.1c0.1-0.1,0.2-0.2,0.2-0.3c0,0,0,0,0,0c0-0.8,0.4-1.6,0.9-2.2
			c0.4-0.4,1-0.8,1.5-0.9c0.5-1.1,1.7-1.9,3-1.9c1.3,0,2.5,0.8,3,1.9c0.6,0.2,1.1,0.5,1.5,0.9c0.5,0.5,0.8,1.1,0.9,1.8
			c0.4-0.2,0.9-0.3,1.4-0.3c0.2,0,0.4,0,0.6,0.1c0.6,0.1,1.1,0.4,1.6,0.8c0.2,0,0.3,0,0.5,0c0.6,0,1.2,0.2,1.7,0.5
			c0.1-0.6,0.4-1.1,0.8-1.5c-0.4-0.4-0.8-0.9-1-1.4c-0.2-0.5-0.2-1-0.2-1.4c-0.6-1-0.7-2.2-0.2-3.3c0.6-1.1,1.6-1.7,2.8-1.8
			c0.3-0.3,0.8-0.6,1.3-0.7c0.3-0.1,0.6-0.1,1-0.1c0.4,0,0.8,0.1,1.1,0.2c0.1-0.7,0.4-1.4,0.9-1.9c0.3-0.3,0.8-0.6,1.2-0.8
			c0.6-1,1.6-1.7,2.9-1.7s2.3,0.7,2.9,1.7c0.4,0.2,0.9,0.4,1.2,0.8c0.3,0.3,0.6,0.7,0.8,1.1c0.2,0,0.4-0.1,0.7-0.1
			c0.2,0,0.4,0,0.7,0.1c0.5,0.1,0.9,0.3,1.3,0.6c0.1,0,0.1,0,0.2,0c1.1,0,2.1,0.6,2.8,1.5c0.5,0.7,0.7,1.6,0.5,2.5
			c-0.1,0.3-0.2,0.6-0.3,0.8c0.1,0.5,0.1,0.9,0,1.4c-0.1,0.6-0.4,1.1-0.8,1.6c0.4,0.4,0.8,0.9,1,1.5c0.2,0.5,0.2,1,0.2,1.4
			c0.2,0.2,0.3,0.5,0.4,0.8c0,0.1,0.1,0.2,0.1,0.3c0.6-0.4,1.3-0.7,2-0.7c0,0,0.1,0,0.1,0c0.4-0.4,0.9-0.8,1.5-0.9
			c0.3-0.1,0.7-0.1,1-0.1c0.5,0,1,0.1,1.4,0.3c0,0,0.1,0,0.1,0c0.1,0,0.2-0.1,0.3-0.1c0.1-0.1,0.2-0.2,0.3-0.3c0,0,0,0,0,0
			c0-0.8,0.4-1.6,0.9-2.2c0.4-0.4,0.9-0.7,1.5-0.9c0.5-1.1,1.7-1.9,3-1.9c1.3,0,2.5,0.8,3,1.9c0.6,0.2,1.1,0.5,1.5,0.8
			c0.5,0.5,0.8,1.1,0.9,1.8c0.4-0.2,0.9-0.3,1.4-0.3c0.2,0,0.4,0,0.6,0.1c0.6,0.1,1.1,0.4,1.6,0.8c0.2,0,0.3,0,0.5,0
			c1.1,0,2.1,0.5,2.8,1.5c0.7,1.1,0.7,2.5,0,3.5c0.2,0.5,0.2,1.1,0.1,1.7c-0.2,0.8-0.7,1.5-1.3,2c0,0,0,0,0,0.1c0,0,0,0,0,0
			c0,0,0,0.1,0,0.1c0,0,0,0,0,0c0.7,0.4,1.3,1,1.5,1.8c0.2,0.6,0.2,1.2,0.1,1.7c0.3,0.3,0.4,0.7,0.6,1.1c0.3,0.8,0.2,1.7-0.2,2.4
			c-0.3,0.6-0.8,1.1-1.3,1.4h0.4c13.1,0,23.8-11.2,23.8-25.1C129,53.2,122.3,43.9,112.9,40.5z"/>
	</g>
	<g>
		<path class="st1" d="M69.6,60.3c0.4,0,0.7,0.3,0.7,0.7v1.5l0.5-0.5c0.1-0.1,0.3-0.2,0.5-0.2s0.4,0.1,0.5,0.2c0.3,0.3,0.3,0.7,0,1
			l-1.5,1.5v0.6l1.3-1.3c0.1-0.1,0.3-0.2,0.5-0.2c0.2,0,0.4,0.1,0.5,0.2c0.1,0.1,0.2,0.3,0.2,0.4c0.1-0.1,0.2-0.1,0.3-0.1
			c0,0,0.1,0,0.1,0c0.4,0.1,0.6,0.5,0.6,0.8l-0.4,1.8l0.5-0.3l0.4-2.1c0.1-0.3,0.3-0.6,0.7-0.6c0.1,0,0.1,0,0.2,0
			c0.4,0.1,0.6,0.5,0.6,0.8l-0.1,0.7l1.2-0.8c0.1-0.1,0.3-0.1,0.4-0.1c0.2,0,0.5,0.1,0.6,0.3c0.2,0.3,0.1,0.8-0.2,1l-1.2,0.8
			l0.7,0.2c0.4,0.1,0.6,0.5,0.6,0.8c-0.1,0.3-0.4,0.6-0.7,0.6c-0.1,0-0.1,0-0.2,0l-2.1-0.4L74.2,68l1.8,0.4c0.4,0.1,0.6,0.5,0.6,0.8
			c-0.1,0.3-0.4,0.6-0.7,0.6c0,0-0.1,0-0.1,0l-3.2-0.7l-1.5,1l1.6,0.8l3.1-1c0.1,0,0.1,0,0.2,0c0.3,0,0.6,0.2,0.7,0.5
			c0.1,0.4-0.1,0.8-0.4,0.9l-1.7,0.6l0.5,0.3l2-0.7c0.1,0,0.1,0,0.2,0c0.3,0,0.6,0.2,0.7,0.5c0.1,0.4-0.1,0.8-0.5,0.9l-0.7,0.2
			l1.3,0.7c0.4,0.2,0.5,0.6,0.3,1c-0.1,0.2-0.4,0.4-0.6,0.4c-0.1,0-0.2,0-0.3-0.1l-1.3-0.7l0.2,0.7c0.1,0.4-0.1,0.8-0.5,0.9
			c-0.1,0-0.2,0-0.2,0c-0.3,0-0.6-0.2-0.7-0.5l-0.7-2l-0.5-0.3l0.6,1.7c0.1,0.4-0.1,0.8-0.5,0.9c-0.1,0-0.1,0-0.2,0
			c-0.3,0-0.6-0.2-0.7-0.5l-1-3.1l-1.7-0.9v1.9l2.3,2.3c0.3,0.3,0.3,0.7,0,1c-0.1,0.1-0.3,0.2-0.5,0.2c-0.2,0-0.4-0.1-0.5-0.2
			l-1.3-1.3v0.6l1.5,1.5c0.3,0.3,0.3,0.7,0,1c-0.1,0.1-0.3,0.2-0.5,0.2c-0.2,0-0.4-0.1-0.5-0.2l-0.5-0.5v1.5c0,0.4-0.3,0.7-0.7,0.7
			c-0.4,0-0.7-0.3-0.7-0.7v-1.5l-0.5,0.5c-0.1,0.1-0.3,0.2-0.5,0.2c-0.2,0-0.4-0.1-0.5-0.2c-0.3-0.3-0.3-0.7,0-1l1.5-1.5v-0.6
			l-1.3,1.3c-0.1,0.1-0.3,0.2-0.5,0.2c-0.2,0-0.4-0.1-0.5-0.2c-0.1-0.1-0.2-0.3-0.2-0.4c-0.1,0-0.2,0.1-0.3,0.1c0,0-0.1,0-0.1,0
			c-0.4-0.1-0.6-0.4-0.6-0.8l0.4-1.8l-0.5,0.3L64.8,76c-0.1,0.3-0.4,0.6-0.7,0.6c-0.1,0-0.1,0-0.1,0c-0.4-0.1-0.6-0.5-0.6-0.8
			l0.1-0.7l-1.2,0.8c-0.1,0.1-0.3,0.1-0.4,0.1c-0.2,0-0.5-0.1-0.6-0.3c-0.2-0.3-0.1-0.8,0.2-1l1.2-0.8L62,73.7
			c-0.4-0.1-0.6-0.5-0.6-0.8c0.1-0.3,0.4-0.6,0.7-0.6c0,0,0.1,0,0.1,0l2.1,0.4l0.5-0.3L63.1,72c-0.4-0.1-0.6-0.5-0.6-0.8
			c0.1-0.3,0.4-0.6,0.7-0.6c0,0,0.1,0,0.1,0l3.2,0.7l1.5-1l-1.6-0.8l-3.1,1c-0.1,0-0.2,0-0.2,0c-0.3,0-0.6-0.2-0.7-0.5
			c-0.1-0.4,0.1-0.8,0.4-0.9l1.7-0.6l-0.5-0.3l-2,0.7c-0.1,0-0.2,0-0.2,0c-0.3,0-0.6-0.2-0.7-0.5c-0.1-0.4,0.1-0.8,0.4-0.9l0.7-0.2
			l-1.3-0.7c-0.4-0.2-0.5-0.6-0.3-1c0.1-0.2,0.4-0.4,0.6-0.4c0.1,0,0.2,0,0.3,0.1l1.3,0.7l-0.2-0.7c-0.1-0.4,0.1-0.8,0.5-0.9
			c0.1,0,0.1,0,0.2,0c0.3,0,0.6,0.2,0.7,0.5l0.7,2l0.5,0.3l-0.6-1.7c-0.1-0.4,0.1-0.8,0.5-0.9c0.1,0,0.1,0,0.2,0
			c0.3,0,0.6,0.2,0.7,0.5l1,3.1l1.7,0.9v-1.9l-2.3-2.3c-0.3-0.3-0.3-0.7,0-1c0.1-0.1,0.3-0.2,0.5-0.2c0.2,0,0.4,0.1,0.5,0.2l1.3,1.3
			v-0.6L67.3,63c-0.3-0.3-0.3-0.7,0-1c0.1-0.1,0.3-0.2,0.5-0.2c0.2,0,0.4,0.1,0.5,0.2l0.5,0.5v-1.5C68.8,60.7,69.2,60.3,69.6,60.3
			 M70.3,68.9l1.5-1l0.6-2.8l-2,2L70.3,68.9 M66.8,75.3l2-2v-1.7l-1.5,1L66.8,75.3 M93,69.3c0.4,0,0.7,0.3,0.7,0.7v2.2l0.9-0.9
			c0.1-0.1,0.3-0.2,0.5-0.2c0.2,0,0.4,0.1,0.5,0.2c0.3,0.3,0.3,0.7,0,1l-1.9,1.9v1.2l1.9-1.9c0.1-0.1,0.3-0.2,0.5-0.2
			s0.4,0.1,0.5,0.2c0.2,0.2,0.2,0.4,0.2,0.7c-0.1,0.1-0.1,0.2-0.1,0.3c0,0,0,0,0,0l-2.9,2.9V80l2.1-1.4l0.8-4c0,0,0,0,0-0.1
			c0.1-0.1,0.1-0.2,0.1-0.3c0.1-0.2,0.3-0.2,0.5-0.2c0,0,0.1,0,0.1,0c0.4,0.1,0.6,0.5,0.6,0.8l-0.5,2.6l1-0.7l0.5-2.7
			c0.1-0.3,0.4-0.6,0.7-0.6c0,0,0.1,0,0.1,0c0.4,0.1,0.6,0.5,0.6,0.8l-0.3,1.3l1.8-1.2c0.1-0.1,0.3-0.1,0.4-0.1
			c0.2,0,0.5,0.1,0.6,0.3c0.2,0.3,0.1,0.8-0.2,1l-1.8,1.2l1.3,0.3c0.4,0.1,0.6,0.5,0.6,0.8c-0.1,0.3-0.4,0.6-0.7,0.6
			c0,0-0.1,0-0.1,0L99.4,78l-1,0.7l2.6,0.5c0.4,0.1,0.6,0.5,0.6,0.8c-0.1,0.3-0.4,0.6-0.7,0.6c0,0-0.1,0-0.1,0l-4-0.8l-2.2,1.5
			l2.4,1.2l3.9-1.3c0.1,0,0.2,0,0.2,0c0.3,0,0.6,0.2,0.7,0.5c0.1,0.4-0.1,0.8-0.5,0.9l-2.5,0.8l1.1,0.5l2.6-0.9c0.1,0,0.1,0,0.2,0
			c0.3,0,0.6,0.2,0.7,0.5c0.1,0.4-0.1,0.8-0.4,0.9l-1.2,0.4l2,1c0.3,0.2,0.5,0.6,0.3,1c-0.1,0.3-0.4,0.4-0.6,0.4
			c-0.1,0-0.2,0-0.3-0.1l-2-1l0.4,1.2c0.1,0.4-0.1,0.8-0.5,0.9c-0.1,0-0.1,0-0.2,0c-0.3,0-0.6-0.2-0.7-0.5L99,85.2L98,84.6l0.8,2.6
			c0.1,0.4-0.1,0.8-0.5,0.9c-0.1,0-0.1,0-0.2,0c-0.3,0-0.6-0.2-0.7-0.5l-1.2-3.9l-2.4-1.2v2.7l2.9,2.9c0.3,0.3,0.3,0.7,0,1
			c-0.1,0.1-0.3,0.2-0.5,0.2c-0.2,0-0.4-0.1-0.5-0.2l-1.9-1.9v1.2l1.9,1.9c0.3,0.3,0.3,0.7,0,1c-0.1,0.1-0.3,0.2-0.5,0.2
			c-0.2,0-0.4-0.1-0.5-0.2l-0.9-0.9v2.2c0,0.4-0.3,0.7-0.7,0.7c-0.4,0-0.7-0.3-0.7-0.7v-2.2l-0.9,0.9c-0.1,0.1-0.3,0.2-0.5,0.2
			c-0.2,0-0.4-0.1-0.5-0.2c-0.3-0.3-0.3-0.7,0-1l1.9-1.9v-1.2l-1.9,1.9c-0.1,0.1-0.3,0.2-0.5,0.2c-0.2,0-0.4-0.1-0.5-0.2
			c-0.2-0.2-0.2-0.4-0.2-0.7c0.1-0.1,0.1-0.2,0.2-0.3c0,0,0,0,0,0l2.9-2.9v-2.6l-2.1,1.4l-0.8,4c0,0,0,0,0,0
			c-0.1,0.1-0.1,0.2-0.2,0.3c-0.1,0.1-0.3,0.2-0.5,0.2c0,0-0.1,0-0.1,0c-0.4-0.1-0.6-0.5-0.6-0.8l0.5-2.6l-1,0.7L87,88.5
			c-0.1,0.3-0.4,0.6-0.7,0.6c0,0-0.1,0-0.1,0c-0.4-0.1-0.6-0.4-0.6-0.8l0.3-1.3L84,88.2c-0.1,0.1-0.3,0.1-0.4,0.1
			c-0.2,0-0.5-0.1-0.6-0.3c-0.2-0.3-0.1-0.8,0.2-1l1.8-1.2l-1.3-0.3c-0.4-0.1-0.6-0.5-0.5-0.8c0.1-0.3,0.3-0.6,0.7-0.6
			c0.1,0,0.1,0,0.2,0l2.6,0.6l1-0.7l-2.6-0.5c-0.4-0.1-0.6-0.5-0.6-0.9c0.1-0.3,0.4-0.6,0.7-0.6c0,0,0.1,0,0.1,0l4,0.8l2.2-1.5
			l-2.4-1.2l-3.9,1.3c-0.1,0-0.2,0-0.2,0c-0.3,0-0.6-0.2-0.7-0.5c-0.1-0.4,0.1-0.8,0.5-0.9l2.5-0.8l-1.1-0.6l-2.6,0.9
			c-0.1,0-0.2,0-0.2,0c-0.3,0-0.6-0.2-0.7-0.5c-0.1-0.4,0.1-0.8,0.4-0.9l1.2-0.4l-2-1c-0.3-0.2-0.5-0.6-0.3-1
			c0.1-0.3,0.4-0.4,0.6-0.4c0.1,0,0.2,0,0.3,0.1l2,1l-0.4-1.2c-0.1-0.4,0.1-0.8,0.5-0.9c0.1,0,0.1,0,0.2,0c0.3,0,0.6,0.2,0.7,0.5
			l0.8,2.6l1.1,0.6l-0.8-2.6c-0.1-0.4,0.1-0.8,0.5-0.9c0.1,0,0.1,0,0.2,0c0.3,0,0.6,0.2,0.7,0.5l1.3,3.9l2.4,1.2v-2.7l-2.9-2.9
			c-0.3-0.3-0.3-0.7,0-1c0.1-0.1,0.3-0.2,0.5-0.2c0.2,0,0.4,0.1,0.5,0.2l1.9,1.9v-1.2l-1.9-1.9c-0.3-0.3-0.3-0.7,0-1
			c0.1-0.1,0.3-0.2,0.5-0.2c0.2,0,0.4,0.1,0.5,0.2l0.9,0.9V70C92.3,69.6,92.6,69.3,93,69.3 M47.8,69.3c0.4,0,0.7,0.3,0.7,0.7v2.2
			l0.9-0.9c0.1-0.1,0.3-0.2,0.5-0.2s0.4,0.1,0.5,0.2c0.3,0.3,0.3,0.7,0,1l-1.9,1.9v1.2l1.9-1.9c0.1-0.1,0.3-0.2,0.5-0.2
			c0.2,0,0.4,0.1,0.5,0.2c0.2,0.2,0.2,0.5,0.2,0.7c-0.1,0.1-0.1,0.2-0.1,0.3c0,0,0,0,0,0.1l-2.9,2.9V80l2.1-1.4l0.8-4c0,0,0,0,0-0.1
			c0.1-0.1,0.1-0.2,0.1-0.3c0.1-0.2,0.3-0.2,0.5-0.2c0.1,0,0.1,0,0.2,0c0.4,0.1,0.6,0.5,0.6,0.8l-0.5,2.6l1-0.7l0.5-2.7
			c0.1-0.3,0.4-0.6,0.7-0.6c0,0,0.1,0,0.1,0c0.4,0.1,0.6,0.5,0.6,0.8L55,75.7l1.8-1.2c0.1-0.1,0.3-0.1,0.4-0.1
			c0.2,0,0.5,0.1,0.6,0.3c0.2,0.3,0.1,0.8-0.2,1l-1.8,1.2l1.3,0.3c0.4,0.1,0.6,0.5,0.5,0.8c-0.1,0.3-0.4,0.6-0.7,0.6
			c-0.1,0-0.1,0-0.1,0L54.1,78l-1,0.7l2.6,0.5c0.4,0.1,0.6,0.5,0.6,0.8c-0.1,0.3-0.4,0.6-0.7,0.6c-0.1,0-0.1,0-0.2,0l-4-0.8
			l-2.2,1.5l2.4,1.2l3.9-1.3c0.1,0,0.2,0,0.2,0c0.3,0,0.6,0.2,0.7,0.5c0.1,0.4-0.1,0.8-0.5,0.9l-2.5,0.8l1.1,0.5L57,83
			c0.1,0,0.1,0,0.2,0c0.3,0,0.6,0.2,0.7,0.5c0.1,0.4-0.1,0.8-0.4,0.9l-1.2,0.4l2,1c0.3,0.2,0.5,0.6,0.3,1c-0.1,0.3-0.4,0.4-0.6,0.4
			c-0.1,0-0.2,0-0.3-0.1l-2-1l0.4,1.2c0.1,0.4-0.1,0.8-0.5,0.9c-0.1,0-0.1,0-0.2,0c-0.3,0-0.6-0.2-0.7-0.5l-0.8-2.6l-1.1-0.5
			l0.8,2.6c0.1,0.4-0.1,0.8-0.5,0.9c-0.1,0-0.1,0-0.2,0c-0.3,0-0.6-0.2-0.7-0.5l-1.2-3.9l-2.4-1.2v2.7l2.9,2.9c0.3,0.3,0.3,0.7,0,1
			c-0.1,0.1-0.3,0.2-0.5,0.2c-0.2,0-0.4-0.1-0.5-0.2l-1.9-1.9v1.2l1.9,1.9c0.3,0.3,0.3,0.7,0,1c-0.1,0.1-0.3,0.2-0.5,0.2
			s-0.4-0.1-0.5-0.2l-0.9-0.9v2.2c0,0.4-0.3,0.7-0.7,0.7c-0.4,0-0.7-0.3-0.7-0.7v-2.2l-0.9,0.9c-0.1,0.1-0.3,0.2-0.5,0.2
			c-0.2,0-0.4-0.1-0.5-0.2c-0.3-0.3-0.3-0.7,0-1l1.9-1.9v-1.2l-1.9,1.9c-0.1,0.1-0.3,0.2-0.5,0.2c-0.2,0-0.4-0.1-0.5-0.2
			c-0.2-0.2-0.2-0.5-0.2-0.7c0.1-0.1,0.1-0.2,0.1-0.3c0,0,0,0,0,0l2.9-2.9v-2.6l-2.1,1.4l-0.8,4c0,0,0,0,0,0.1
			c-0.1,0.1-0.1,0.2-0.1,0.3c-0.1,0.2-0.3,0.2-0.5,0.2c0,0-0.1,0-0.1,0c-0.4-0.1-0.6-0.5-0.6-0.8l0.5-2.6l-1,0.7l-0.5,2.7
			c-0.1,0.3-0.4,0.6-0.7,0.6c0,0-0.1,0-0.1,0c-0.4-0.1-0.6-0.4-0.6-0.8l0.3-1.3l-1.8,1.2c-0.1,0.1-0.3,0.1-0.4,0.1
			c-0.2,0-0.5-0.1-0.6-0.3c-0.2-0.3-0.1-0.8,0.2-1l1.8-1.2l-1.3-0.3c-0.4-0.1-0.6-0.5-0.5-0.8c0.1-0.3,0.3-0.6,0.7-0.6
			c0,0,0.1,0,0.2,0l2.6,0.6l1-0.7l-2.6-0.5c-0.4-0.1-0.6-0.5-0.6-0.9c0.1-0.3,0.4-0.6,0.7-0.6c0,0,0.1,0,0.1,0l4,0.8l2.2-1.5
			L44,80.2l-3.9,1.3c-0.1,0-0.2,0-0.2,0c-0.3,0-0.6-0.2-0.7-0.5c-0.1-0.4,0.1-0.8,0.5-0.9l2.5-0.8l-1.1-0.6l-2.6,0.9
			c-0.1,0-0.2,0-0.2,0c-0.3,0-0.6-0.2-0.7-0.5c-0.1-0.4,0.1-0.8,0.4-0.9l1.2-0.4l-2-1c-0.4-0.2-0.5-0.6-0.3-1
			c0.1-0.3,0.4-0.4,0.6-0.4c0.1,0,0.2,0,0.3,0.1l2,1l-0.4-1.2c-0.1-0.4,0.1-0.8,0.5-0.9c0.1,0,0.1,0,0.2,0c0.3,0,0.6,0.2,0.7,0.5
			l0.8,2.6l1.1,0.5L42,75.5c-0.1-0.4,0.1-0.8,0.5-0.9c0.1,0,0.2,0,0.2,0c0.3,0,0.6,0.2,0.7,0.5l1.3,3.9l2.4,1.2v-2.7l-2.9-2.9
			c-0.3-0.3-0.3-0.7,0-1c0.1-0.1,0.3-0.2,0.5-0.2c0.2,0,0.4,0.1,0.5,0.2l1.9,1.9v-1.2l-1.9-1.9c-0.3-0.3-0.3-0.7,0-1
			c0.1-0.1,0.3-0.2,0.5-0.2c0.2,0,0.4,0.1,0.5,0.2l0.9,0.9V70C47.1,69.6,47.4,69.3,47.8,69.3 M70.2,86.6c0.6,0,1,0.4,1,1v3.6
			l1.6-1.6c0.2-0.2,0.5-0.3,0.7-0.3c0.3,0,0.5,0.1,0.7,0.3c0.4,0.4,0.4,1,0,1.4l-3,3v2.1l3.1-3.1c0.2-0.2,0.4-0.3,0.7-0.3
			c0.3,0,0.5,0.1,0.7,0.3c0.4,0.4,0.4,1,0,1.4l-4.5,4.5v4.1l3.5-2.3l1.2-6.2c0.1-0.5,0.5-0.8,1-0.8c0.1,0,0.1,0,0.2,0
			c0.5,0.1,0.9,0.6,0.8,1.2L77,99.3l1.8-1.2l0.8-4.1c0.1-0.5,0.5-0.8,1-0.8c0.1,0,0.1,0,0.2,0c0.5,0.1,0.9,0.6,0.8,1.2l-0.4,2.2l3-2
			c0.2-0.1,0.4-0.2,0.5-0.2c0.3,0,0.6,0.2,0.8,0.4c0.3,0.5,0.2,1.1-0.3,1.4l-3,2l2.2,0.5c0.5,0.1,0.9,0.6,0.8,1.2
			c-0.1,0.5-0.5,0.8-1,0.8c-0.1,0-0.1,0-0.2,0l-4.1-0.9l-1.8,1.2l4.3,0.9c0.5,0.1,0.9,0.6,0.8,1.2c-0.1,0.5-0.5,0.8-1,0.8
			c-0.1,0-0.1,0-0.2,0l-6.2-1.3l-3.6,2.3l3.8,1.9l6-2c0.1,0,0.2-0.1,0.3-0.1c0.4,0,0.8,0.3,0.9,0.7c0.2,0.5-0.1,1.1-0.6,1.3
			l-4.1,1.4l1.9,1l4-1.3c0.1,0,0.2-0.1,0.3-0.1c0.4,0,0.8,0.3,0.9,0.7c0.2,0.5-0.1,1.1-0.6,1.3l-2.1,0.7l3.2,1.6
			c0.5,0.2,0.7,0.8,0.4,1.3c-0.2,0.3-0.5,0.5-0.9,0.5c-0.2,0-0.3,0-0.5-0.1l-3.2-1.6l0.7,2.1c0.2,0.5-0.1,1.1-0.6,1.3
			c-0.1,0-0.2,0.1-0.3,0.1c-0.4,0-0.8-0.3-1-0.7l-1.3-4l-1.9-1l1.3,4.1c0.2,0.5-0.1,1.1-0.6,1.3c-0.1,0-0.2,0-0.3,0
			c-0.4,0-0.8-0.3-1-0.7l-1.9-6l-3.9-2v4.4l4.5,4.4c0.4,0.4,0.4,1,0,1.4c-0.2,0.2-0.5,0.3-0.7,0.3c-0.3,0-0.5-0.1-0.7-0.3l-3.1-3.1
			v2.1l3,2.9c0.4,0.4,0.4,1,0,1.4c-0.2,0.2-0.4,0.3-0.7,0.3c-0.3,0-0.5-0.1-0.7-0.3l-1.6-1.6v3.6c0,0.6-0.4,1-1,1c-0.6,0-1-0.4-1-1
			v-3.6l-1.6,1.6c-0.2,0.2-0.4,0.3-0.7,0.3c-0.3,0-0.5-0.1-0.7-0.3c-0.4-0.4-0.4-1,0-1.4l3-2.9v-2.1l-3.1,3.1
			c-0.2,0.2-0.5,0.3-0.7,0.3c-0.3,0-0.5-0.1-0.7-0.3c-0.4-0.4-0.4-1,0-1.4l4.5-4.4v-4.1l-3.5,2.3l-1.2,6.2c-0.1,0.5-0.5,0.8-1,0.8
			c-0.1,0-0.1,0-0.2,0c-0.5-0.1-0.9-0.6-0.8-1.2l0.8-4.3l-1.8,1.2l-0.8,4.1c-0.1,0.5-0.5,0.8-1,0.8c-0.1,0-0.1,0-0.2,0
			c-0.5-0.1-0.9-0.6-0.8-1.2l0.4-2.2l-3,2c-0.2,0.1-0.4,0.2-0.6,0.2c-0.3,0-0.6-0.2-0.8-0.5c-0.3-0.5-0.2-1.1,0.3-1.4l3-2l-2.2-0.5
			c-0.5-0.1-0.9-0.6-0.8-1.2c0.1-0.5,0.5-0.8,1-0.8c0.1,0,0.1,0,0.2,0l4.1,0.9l1.8-1.2l-4.3-0.9c-0.5-0.1-0.9-0.6-0.8-1.2
			c0.1-0.5,0.5-0.8,1-0.8c0.1,0,0.1,0,0.2,0l6.2,1.3l3.6-2.4l-3.8-1.9l-6,2c-0.1,0-0.2,0-0.3,0c-0.4,0-0.8-0.3-0.9-0.7
			c-0.2-0.5,0.1-1.1,0.6-1.3l4.1-1.4l-1.9-1l-4,1.3c-0.1,0-0.2,0-0.3,0c-0.4,0-0.8-0.3-1-0.7c-0.2-0.5,0.1-1.1,0.6-1.3l2.1-0.7
			L54.2,98c-0.5-0.3-0.7-0.9-0.4-1.3c0.2-0.4,0.5-0.6,0.9-0.6c0.2,0,0.3,0,0.5,0.1l3.2,1.6l-0.7-2.1c-0.2-0.5,0.1-1.1,0.6-1.3
			c0.1,0,0.2-0.1,0.3-0.1c0.4,0,0.8,0.3,0.9,0.7l1.3,4l1.9,1l-1.3-4.1c-0.2-0.5,0.1-1.1,0.6-1.3c0.1,0,0.2,0,0.3,0
			c0.4,0,0.8,0.3,0.9,0.7l1.9,6l3.9,2v-4.4l-4.5-4.5c-0.4-0.4-0.4-1,0-1.4c0.2-0.2,0.5-0.3,0.7-0.3c0.3,0,0.5,0.1,0.7,0.3l3.1,3.1
			V94l-3-3c-0.4-0.4-0.4-1,0-1.4c0.2-0.2,0.5-0.3,0.7-0.3c0.3,0,0.5,0.1,0.7,0.3l1.6,1.6v-3.6C69.2,87,69.6,86.6,70.2,86.6"/>
	</g>
</g>
</svg>
