<?xml version="1.0" encoding="utf-8"?>
<!-- Generator: Adobe Illustrator 19.2.1, SVG Export Plug-In . SVG Version: 6.00 Build 0)  -->
<svg version="1.1" id="Layer_1" xmlns="http://www.w3.org/2000/svg" xmlns:xlink="http://www.w3.org/1999/xlink" x="0px" y="0px"
	 viewBox="0 0 130 130" style="enable-background:new 0 0 130 130;" xml:space="preserve">
<style type="text/css">
	.st0{fill:none;}
	.st1{fill:#4D4D4D;}
</style>
<rect class="st0" width="130" height="130"/>
<g>
	<path class="st1" d="M11.6,35.6l19.5,12c0.5,0.3,1.1,0.5,1.6,0.5c1,0,2.1-0.5,2.6-1.5c0.9-1.5,0.5-3.4-1-4.3l-19.5-12
		c-1.5-0.9-3.4-0.5-4.3,1C9.6,32.8,10.1,34.7,11.6,35.6z M44.1,33.1c0.6,1,1.6,1.6,2.7,1.6c0.5,0,1-0.1,1.5-0.4
		c1.5-0.8,2.1-2.7,1.3-4.2L38.6,10c-0.8-1.5-2.7-2.1-4.2-1.2c-1.5,0.8-2.1,2.7-1.2,4.2L44.1,33.1z M30.1,65c0-1.7-1.4-3.1-3.1-3.1
		H4.1C2.4,61.9,1,63.3,1,65c0,1.7,1.4,3.1,3.1,3.1H27C28.7,68.1,30.1,66.7,30.1,65z M34.3,81.7c-0.8-1.5-2.7-2.1-4.2-1.2L10,91.4
		c-1.5,0.8-2.1,2.7-1.2,4.2c0.6,1,1.6,1.6,2.7,1.6c0.5,0,1-0.1,1.5-0.4l20.1-10.9C34.6,85.1,35.2,83.2,34.3,81.7z M95.7,48.3
		c0.6,1,1.6,1.6,2.7,1.6c0.5,0,1-0.1,1.5-0.4L120,38.6c1.5-0.8,2.1-2.7,1.2-4.2c-0.8-1.5-2.7-2.1-4.2-1.2L96.9,44.1
		C95.4,44.9,94.8,46.8,95.7,48.3z M83.3,35.3c0.5,0.3,1.1,0.5,1.6,0.5c1,0,2.1-0.5,2.6-1.5l12-19.5c0.9-1.5,0.4-3.4-1-4.3
		c-1.5-0.9-3.4-0.5-4.3,1L82.3,31C81.4,32.5,81.9,34.4,83.3,35.3z M65,30.1c1.7,0,3.1-1.4,3.1-3.1V4.1C68.1,2.4,66.7,1,65,1
		c-1.7,0-3.1,1.4-3.1,3.1V27C61.9,28.7,63.3,30.1,65,30.1z M118.4,94.4L99,82.3c-1.5-0.9-3.4-0.4-4.3,1c-0.9,1.5-0.4,3.4,1,4.3
		l19.5,12c0.5,0.3,1.1,0.5,1.6,0.5c1,0,2.1-0.5,2.6-1.5C120.4,97.2,119.9,95.3,118.4,94.4z M125.9,61.9H103c-1.7,0-3.1,1.4-3.1,3.1
		c0,1.7,1.4,3.1,3.1,3.1h22.9c1.7,0,3.1-1.4,3.1-3.1C129,63.3,127.6,61.9,125.9,61.9z M85.9,96.9c-0.8-1.5-2.7-2.1-4.2-1.2
		c-1.5,0.8-2.1,2.7-1.2,4.2L91.4,120c0.6,1,1.6,1.6,2.7,1.6c0.5,0,1-0.1,1.5-0.4c1.5-0.8,2.1-2.7,1.3-4.2L85.9,96.9z M46.7,94.7
		c-1.5-0.9-3.4-0.5-4.3,1l-12,19.5c-0.9,1.5-0.4,3.4,1,4.3c0.5,0.3,1.1,0.5,1.6,0.5c1,0,2.1-0.5,2.6-1.5l12-19.5
		C48.6,97.5,48.1,95.6,46.7,94.7z M87.8,65c0-12.6-10.2-22.8-22.8-22.8c-12.6,0-22.8,10.2-22.8,22.8c0,12.6,10.2,22.8,22.8,22.8
		C77.6,87.8,87.8,77.6,87.8,65z M65,99.9c-1.7,0-3.1,1.4-3.1,3.1v22.9c0,1.7,1.4,3.1,3.1,3.1c1.7,0,3.1-1.4,3.1-3.1V103
		C68.1,101.3,66.7,99.9,65,99.9z"/>
</g>
</svg>
