<?xml version="1.0" encoding="utf-8"?>
<!-- Generator: Adobe Illustrator 19.2.1, SVG Export Plug-In . SVG Version: 6.00 Build 0)  -->
<svg version="1.1" id="Layer_1" xmlns="http://www.w3.org/2000/svg" xmlns:xlink="http://www.w3.org/1999/xlink" x="0px" y="0px"
	 viewBox="0 0 130 130" style="enable-background:new 0 0 130 130;" xml:space="preserve">
<style type="text/css">
	.st0{fill:none;}
	.st1{fill:#4D4D4D;}
</style>
<rect class="st0" width="130" height="130"/>
<g>
	<g>
		<path class="st1" d="M127.2,30.6c0-7.9-6.4-14.4-14.2-14.4c-7.8,0-14.2,6.5-14.2,14.4c0,1.5,1.2,2.6,2.6,2.6
			c1.4,0,2.6-1.2,2.6-2.6c0-5,4-9.1,9-9.1s9,4.1,9,9.1c0,9.3-8.2,10-9,10.1H3.6c-1.4,0-2.6,1.2-2.6,2.6C1,44.8,2.2,46,3.6,46
			l109.6,0C118,45.7,127.2,42.3,127.2,30.6z M114.7,53H17.6c-1.4,0-2.6,1.2-2.6,2.6c0,1.5,1.2,2.6,2.6,2.6h97
			c0.4,0,9.2,0.5,9.2,10.1c0,5-4.1,9.1-9.1,9.1c-5,0-9.1-4.1-9.1-9.1c0-1.5-1.2-2.6-2.6-2.6c-1.4,0-2.6,1.2-2.6,2.6
			c0,7.9,6.4,14.4,14.3,14.4c7.9,0,14.3-6.5,14.3-14.4C129,56.7,119.7,53.2,114.7,53z"/>
	</g>
	<g>
		<path class="st1" d="M49,80.2c0.8,0.3,1.7,0.4,2.6,0.3c0.5-0.1,1-0.2,1.5-0.4c1.3-0.6,2.3-1.7,2.8-3c0.6-1.5,0-4.9-0.7-8.5
			L55,68.1c-0.1-0.5-0.2-0.9-0.2-1.3c-0.1-0.3-0.3-0.6-0.6-0.7c-0.3-0.1-0.6-0.1-0.9,0.1c-0.4,0.3-0.9,0.7-1.4,1.1
			c-3,2.3-5.5,4.4-6.1,5.9c-0.5,1.3-0.4,2.8,0.1,4.1C46.6,78.7,47.7,79.7,49,80.2z M39.9,81.2c-0.1-0.3-0.3-0.6-0.6-0.7
			c-0.3-0.1-0.6-0.1-0.9,0.1l-1,0.8c-2.2,1.7-4.1,3.3-4.5,4.5c-0.8,2.2,0.3,4.6,2.4,5.4c0.6,0.2,1.3,0.3,2,0.2
			c0.4-0.1,0.8-0.2,1.2-0.3c1-0.5,1.8-1.3,2.2-2.3c0.4-1.2,0-3.7-0.5-6.4L39.9,81.2z M80,76c-0.2-0.8-0.3-1.5-0.4-2.2
			c-0.1-0.3-0.3-0.6-0.6-0.7c-0.3-0.1-0.6-0.1-0.9,0.1c-0.5,0.4-1.1,0.9-1.8,1.4c-3.7,2.9-7.1,5.7-7.8,7.6c-1.3,3.4,0.5,7.3,3.9,8.6
			c1,0.4,2.1,0.5,3.2,0.4c0.6-0.1,1.3-0.3,1.9-0.5c1.6-0.7,2.8-2.1,3.5-3.7C81.7,85,80.9,80.7,80,76z M74.8,98.2
			c-0.1-0.3-0.3-0.6-0.6-0.7c-0.3-0.1-0.6-0.1-0.9,0.1c-0.2,0.2-0.5,0.4-0.8,0.6l-0.2,0.2c-2.2,1.7-4.1,3.3-4.5,4.5
			c-0.8,2.2,0.3,4.6,2.4,5.4c0.6,0.2,1.3,0.3,2,0.2c0.4-0.1,0.8-0.2,1.2-0.3c1-0.5,1.8-1.3,2.2-2.3c0.4-1.2,0-3.7-0.5-6.4L74.8,98.2
			z M60.7,83.2c-0.1-0.3-0.3-0.6-0.6-0.7c-0.3-0.1-0.7-0.1-0.9,0.2c-1.2,1-2.7,2.2-4.6,3.7c-5.2,4.1-11.1,8.7-12.4,12.2
			c-2.2,5.9,0.8,12.4,6.6,14.6c1.7,0.7,3.6,0.9,5.4,0.6c1.1-0.1,2.2-0.5,3.2-0.9c2.7-1.2,4.8-3.5,5.9-6.3c1.3-3.4-0.2-10.9-1.4-17.4
			C61.3,86.6,61,84.8,60.7,83.2z"/>
	</g>
	<g>
		<path class="st1" d="M86.1,25H10.6C9.2,25,8,26.1,8,27.6c0,1.5,1.2,2.6,2.6,2.6h75.5c1.4,0,2.6-1.2,2.6-2.6
			C88.7,26.1,87.5,25,86.1,25z"/>
	</g>
</g>
</svg>
