<?xml version="1.0" encoding="utf-8"?>
<!-- Generator: Adobe Illustrator 19.2.1, SVG Export Plug-In . SVG Version: 6.00 Build 0)  -->
<svg version="1.1" id="Layer_1" xmlns="http://www.w3.org/2000/svg" xmlns:xlink="http://www.w3.org/1999/xlink" x="0px" y="0px"
	 viewBox="0 0 130 130" style="enable-background:new 0 0 130 130;" xml:space="preserve">
<style type="text/css">
	.st0{fill:none;}
	.st1{fill:#4D4D4D;}
</style>
<rect class="st0" width="130" height="130"/>
<path class="st1" d="M96.9,10.3L96.9,10.3c-1.2-0.8-2.4-1.5-3.7-2.1c-0.5-0.3-1.1-0.5-1.6-0.8c-1-0.5-2-0.9-3-1.4
	c-0.6-0.3-1.2-0.5-1.8-0.7c-1.1-0.4-2.3-0.8-3.4-1.2c-0.4-0.1-0.9-0.3-1.3-0.4c-1.6-0.5-3.2-0.9-4.8-1.2c-0.5-0.1-1-0.2-1.5-0.3
	c-1.3-0.2-2.5-0.4-3.8-0.6c-0.5-0.1-1.1-0.1-1.6-0.2c-1.7-0.1-3.4-0.2-5.2-0.3c0,0-0.1,0-0.1,0v0c0,0,0,0,0,0h0V1h0
	c-1.8,0-3.6,0.1-5.4,0.3c-0.5,0-0.9,0.1-1.4,0.1C56.7,1.6,55.3,1.8,54,2c-0.4,0.1-0.9,0.1-1.3,0.2C51,2.6,49.4,3,47.8,3.5
	c-0.4,0.1-0.8,0.3-1.1,0.4c-1.2,0.4-2.4,0.8-3.6,1.3c-0.6,0.2-1.2,0.5-1.7,0.7c-1,0.4-2.1,0.9-3.1,1.4c-0.5,0.2-1,0.5-1.5,0.7
	c-1.3,0.7-2.5,1.4-3.7,2.1v0C16.8,20,5.7,37.3,4.4,57.2c3.3-3.9,8.2-6.4,13.7-6.4c6.6,0,12.3,3.6,15.4,8.9c0.1,0.1,0.2,0.2,0.2,0.4
	c3-5.5,8.9-9.3,15.6-9.3c4.3,0,9.3,1.7,13,5.2v61.5c0,3.5-2.5,6.4-6,6.4c-1.4,0-2.5,1.1-2.5,2.5c0,1.4,1.1,2.5,2.5,2.5
	c6.3,0,11.1-4.7,11.1-11V56c3.6-2.7,8.9-4.8,13.1-4.8c6.8,0,12.7,3.8,15.7,9.3c0.1-0.1,0.1-0.2,0.2-0.3l0,0c3.1-5.4,8.9-9,15.5-9
	c5.5,0,10.4,2.5,13.7,6.4C124.3,37.6,113.1,20.3,96.9,10.3z"/>
</svg>
