<?xml version="1.0" encoding="utf-8"?>
<!-- Generator: Adobe Illustrator 19.2.1, SVG Export Plug-In . SVG Version: 6.00 Build 0)  -->
<svg version="1.1" id="Layer_1" xmlns="http://www.w3.org/2000/svg" xmlns:xlink="http://www.w3.org/1999/xlink" x="0px" y="0px"
	 viewBox="0 0 130 130" style="enable-background:new 0 0 130 130;" xml:space="preserve">
<style type="text/css">
	.st0{fill:none;}
	.st1{fill:#4D4D4D;}
</style>
<rect class="st0" width="130" height="130"/>
<g>
	<path class="st1" d="M87.2,46.4L87.2,46.4c-0.8-0.5-1.7-1-2.6-1.5c-0.4-0.2-0.7-0.4-1.1-0.5c-0.7-0.3-1.4-0.7-2.1-1
		c-0.4-0.2-0.8-0.3-1.3-0.5c-0.8-0.3-1.6-0.6-2.4-0.8c-0.3-0.1-0.6-0.2-0.9-0.3c-1.1-0.3-2.2-0.6-3.4-0.8c-0.3-0.1-0.7-0.1-1-0.2
		c-0.9-0.2-1.8-0.3-2.7-0.4c-0.4,0-0.7-0.1-1.1-0.1c-1.2-0.1-2.4-0.2-3.6-0.2c0,0-0.1,0-0.1,0v0c0,0,0,0,0,0V40h0
		c-1.3,0-2.5,0.1-3.8,0.2c-0.3,0-0.6,0.1-1,0.1c-1,0.1-1.9,0.2-2.8,0.4c-0.3,0.1-0.6,0.1-0.9,0.2c-1.2,0.2-2.3,0.5-3.4,0.8
		c-0.3,0.1-0.5,0.2-0.8,0.3c-0.9,0.3-1.7,0.6-2.5,0.9c-0.4,0.2-0.8,0.3-1.2,0.5c-0.7,0.3-1.5,0.6-2.2,1c-0.3,0.2-0.7,0.3-1,0.5
		c-0.9,0.5-1.7,0.9-2.6,1.5v0c-11.2,6.9-19,18.9-19.9,32.8c2.3-2.7,5.7-4.4,9.5-4.4c4.6,0,8.6,2.5,10.7,6.2c0.1,0.1,0.1,0.2,0.2,0.2
		c2.1-3.8,6.2-6.5,10.9-6.5c3,0,6.4,1.2,9.1,3.6V121c0,2.4-1.7,4.4-4.2,4.4c-1,0-1.8,0.8-1.8,1.8c0,1,0.8,1.8,1.8,1.8
		c4.4,0,7.8-3.2,7.8-7.6V78.2c2.5-1.9,6.2-3.4,9.1-3.4c4.7,0,8.8,2.6,10.9,6.5c0.1-0.1,0.1-0.2,0.2-0.3c2.2-3.7,6.1-6.2,10.7-6.2
		c3.8,0,7.3,1.7,9.5,4.4C106.2,65.4,98.5,53.4,87.2,46.4z"/>
	<path class="st1" d="M66.9,14.2c1.2,0,2.3-0.5,3.2-1.3c0.8-0.8,1.3-2,1.3-3.2c0-1.5-2.1-5-3.5-7.3c-0.3-0.5-0.6-1-0.9-1.5
		c-0.3,0.5-0.6,1-0.9,1.5c-1.4,2.3-3.5,5.8-3.5,7.3C62.4,12.2,64.4,14.2,66.9,14.2z"/>
	<path class="st1" d="M75.8,34.8c1.2,0,2.3-0.5,3.1-1.3c0.8-0.8,1.3-2,1.3-3.2c0-1.5-2.1-5-3.6-7.3c-0.3-0.5-0.6-1-0.9-1.5
		c-0.3,0.5-0.6,1-0.9,1.5c-1.4,2.3-3.5,5.8-3.5,7.3C71.3,32.8,73.3,34.8,75.8,34.8z"/>
	<path class="st1" d="M58.6,34.8c1.2,0,2.3-0.5,3.2-1.3c0.8-0.8,1.3-2,1.3-3.2c0-1.5-2.1-5-3.5-7.3c-0.3-0.5-0.6-1-0.9-1.5
		c-0.3,0.5-0.6,1-0.9,1.5c-1.4,2.3-3.5,5.8-3.5,7.3C54.1,32.8,56.1,34.8,58.6,34.8z"/>
	<path class="st1" d="M89.7,41.7c2.5,0,4.5-2,4.5-4.5c0-1.5-2.1-5-3.5-7.3c-0.3-0.5-0.6-1-0.9-1.5c-0.3,0.5-0.6,1-0.9,1.5
		c-1.4,2.3-3.6,5.8-3.6,7.3c0,1.2,0.5,2.3,1.3,3.1C87.4,41.3,88.5,41.7,89.7,41.7z"/>
	<path class="st1" d="M105.8,46.1c-0.3-0.5-0.6-1-0.9-1.5c-0.3,0.5-0.6,1-0.9,1.5c-1.4,2.3-3.5,5.8-3.5,7.3c0,1.2,0.5,2.3,1.3,3.2
		c0.8,0.8,2,1.3,3.2,1.3c2.5,0,4.5-2,4.5-4.5C109.3,51.8,107.2,48.4,105.8,46.1z"/>
	<path class="st1" d="M41.1,41.7c1.2,0,2.3-0.5,3.2-1.3c0.8-0.8,1.3-2,1.3-3.1c0-1.5-2.1-5-3.6-7.3c-0.3-0.5-0.6-1-0.9-1.5
		c-0.3,0.5-0.6,1-0.9,1.5c-1.4,2.3-3.5,5.8-3.5,7.3C36.7,39.7,38.7,41.7,41.1,41.7z"/>
	<path class="st1" d="M28.3,56.5c0.8-0.8,1.3-2,1.3-3.2c0-1.5-2.1-5-3.5-7.3c-0.3-0.5-0.6-1-0.9-1.5c-0.3,0.5-0.6,1-0.9,1.5
		c-1.4,2.3-3.5,5.8-3.5,7.3c0,2.5,2,4.5,4.5,4.5C26.3,57.8,27.4,57.3,28.3,56.5z"/>
</g>
</svg>
