<?xml version="1.0" encoding="utf-8"?>
<!-- Generator: Adobe Illustrator 19.2.1, SVG Export Plug-In . SVG Version: 6.00 Build 0)  -->
<svg version="1.1" id="Layer_1" xmlns="http://www.w3.org/2000/svg" xmlns:xlink="http://www.w3.org/1999/xlink" x="0px" y="0px"
	 viewBox="0 0 130 130" style="enable-background:new 0 0 130 130;" xml:space="preserve">
<style type="text/css">
	.st0{fill:none;}
	.st1{fill:#4D4D4D;}
</style>
<rect class="st0" width="130" height="130"/>
<g>
	<path class="st1" d="M122.4,41.5L122.4,41.5c-0.6-1.2-1.3-2.3-1.9-3.4c-0.3-0.4-0.6-0.8-0.9-1.3c-0.6-0.8-1.2-1.7-1.8-2.5
		c-0.3-0.5-0.7-0.9-1.1-1.4c-0.7-0.9-1.4-1.7-2.2-2.6c-0.3-0.3-0.5-0.6-0.8-0.9c-1-1.1-2.1-2.1-3.3-3.1c-0.3-0.3-0.7-0.6-1-0.8
		c-0.9-0.8-1.8-1.5-2.8-2.2c-0.4-0.3-0.8-0.6-1.1-0.8c-1.3-0.9-2.6-1.8-4-2.6c0,0-0.1,0-0.1-0.1h0c0,0,0,0,0,0l0,0l0.1-0.1l0,0
		c0,0,0,0,0,0l0,0c0,0,0,0,0,0c-1.4-0.8-2.8-1.5-4.3-2.2c-0.4-0.2-0.8-0.4-1.3-0.6c-1.1-0.5-2.2-0.9-3.3-1.3
		c-0.4-0.1-0.8-0.3-1.2-0.4c-1.4-0.5-2.9-0.9-4.3-1.3c-0.4-0.1-0.8-0.2-1.2-0.2c-1.1-0.2-2.2-0.5-3.3-0.6c-0.6-0.1-1.1-0.2-1.7-0.2
		c-1-0.1-2.1-0.2-3.1-0.3c-0.5,0-1-0.1-1.5-0.1c-1.3-0.1-2.6-0.1-3.9,0l0,0c-17.2,0.5-33.7,9-43.7,24c4.3-1.6,9.3-1.3,13.6,1.2
		c5.2,3,8,8.4,8,14l0,0c0,0.1,0,0.2,0,0.4c4.9-3,11.2-3.2,16.5-0.2c3.4,1.9,6.5,5.6,7.9,9.9l-27.8,48.2c-1.6,2.8-4.8,3.9-7.6,2.3
		c-1.1-0.6-2.5-0.3-3.1,0.8c-0.6,1.1-0.3,2.5,0.8,3.2c5,2.9,10.8,1.4,13.7-3.6L78.6,64c4.1-0.5,9.1,0.2,12.4,2.1
		c5.3,3.1,8.2,8.7,8.1,14.4c0.1-0.1,0.2-0.1,0.3-0.2l0,0c4.8-2.8,11-3,16.2,0c4.3,2.5,7.1,6.7,7.9,11.2
		C131.5,75.3,130.5,56.7,122.4,41.5z"/>
	<path class="st1" d="M11.6,69.3h45.2c1.2,0,2.2-1,2.2-2.2c0-1.2-1-2.2-2.2-2.2H11.7c-1-0.1-6.2-0.7-6.2-6.8c0-3.4,2.7-6.1,6.1-6.1
		c3.4,0,6.1,2.8,6.1,6.1c0,1.2,1,2.2,2.2,2.2c1.2,0,2.2-1,2.2-2.2c0-5.8-4.7-10.6-10.6-10.6S1,52.2,1,58C1,66.6,7.9,69.1,11.6,69.3z
		"/>
	<path class="st1" d="M19.9,83.1c-1.2,0-2.2,1-2.2,2.2c0,3.4-2.8,6.1-6.1,6.1c-3.4,0-6.1-2.8-6.1-6.1c0-6.2,5.2-6.8,6.1-6.8h25.1
		c1.2,0,2.2-1,2.2-2.2c0-1.2-1-2.2-2.2-2.2l-25.2,0C7.9,74.2,1,76.8,1,85.3c0,5.8,4.7,10.6,10.6,10.6s10.6-4.7,10.6-10.6
		C22.1,84.1,21.1,83.1,19.9,83.1z"/>
</g>
</svg>
