<?xml version="1.0" encoding="utf-8"?>
<!-- Generator: Adobe Illustrator 19.2.1, SVG Export Plug-In . SVG Version: 6.00 Build 0)  -->
<svg version="1.1" id="Layer_1" xmlns="http://www.w3.org/2000/svg" xmlns:xlink="http://www.w3.org/1999/xlink" x="0px" y="0px"
	 viewBox="0 0 130 130" style="enable-background:new 0 0 130 130;" xml:space="preserve">
<style type="text/css">
	.st0{fill:none;}
	.st1{fill:#4D4D4D;}
</style>
<rect class="st0" width="130" height="130"/>
<g>
	<g>
		<path class="st1" d="M113.9,40.4L113.9,40.4c0-18.3-14.9-33.2-33.1-33.2c-10.6,0-20.4,5-26.7,13.5c-4-2.4-8.5-3.6-13.1-3.6
			c-13.4,0-24.4,10.3-25.6,23.6C6.5,45.3,1,54.6,1,65.1c0,15,11.7,27.2,26,27.2h1.3c1.9,0,3.5-1.6,3.5-3.5c0-1.9-1.6-3.5-3.5-3.5H27
			c-10.5,0-19-9-19-20.2c0-8.3,4.9-15.9,12.2-18.8c1.4-0.6,2.2-2.2,2.2-3.5c0-10.3,8.3-18.6,18.6-18.6c4.3,0,8.5,1.5,11.8,4.2
			c0.8,0.7,2,0.9,2.9,0.7c1-0.2,1.9-0.8,2.4-1.7c4.6-8.1,13.3-13.2,22.6-13.2c14.4,0,26.1,11.7,26.1,26.1c0,0.7,0,1.4-0.1,2.1
			c-0.1,1.6,0.8,3.1,2.3,3.6c7.7,2.8,12.8,10.5,12.8,19.1c0,11.1-8.5,20.2-18.9,20.2h-1.3c-1.9,0-3.5,1.6-3.5,3.5
			c0,2,1.6,3.5,3.5,3.5h1.3c14.3,0,26-12.2,26-27.2C129,54.5,123.1,44.9,113.9,40.4z"/>
	</g>
	<g>
		<path class="st1" d="M47.8,84c-0.5-0.8-1-1.5-1.4-2.2c-0.4-0.6-1-0.9-1.7-0.9c-0.7,0-1.4,0.3-1.7,0.9c-0.4,0.7-0.9,1.4-1.4,2.2
			c-3.2,4.9-5.9,9.1-5.9,11.7c0,4.7,4.1,8.4,9.1,8.4c0,0,0,0,0,0c2.4,0,4.7-0.9,6.4-2.5c1.7-1.6,2.7-3.7,2.7-6
			C53.8,93.2,51.1,88.9,47.8,84z M65.1,88.6c2.4,0,4.6-0.9,6.3-2.4c1.7-1.6,2.6-3.6,2.6-5.9c0-2.5-2.6-6.6-5.9-11.5l-1.4-2
			c-0.4-0.5-1-0.9-1.7-0.9h0c-0.7,0-1.4,0.4-1.7,0.9c-0.4,0.7-0.9,1.4-1.4,2.1c-3.2,4.8-5.8,8.9-5.8,11.4
			C56.2,84.9,60.2,88.6,65.1,88.6z M77.1,114.7l-1.9-0.9l1.1-0.3c0.5-0.2,0.8-0.6,0.6-1.1c-0.2-0.5-0.7-0.7-1.2-0.6l-2.8,0.9
			l-0.9-0.4l2.5-0.8c0.5-0.1,0.8-0.6,0.6-1.1c-0.2-0.4-0.7-0.7-1.2-0.5l-4.3,1.3l-2.4-1.1l2.2-1.4l4.4,0.9c0.1,0,0.1,0,0.2,0
			c0.4,0,0.8-0.3,0.9-0.7c0.1-0.5-0.2-0.9-0.7-1l-2.6-0.5l0.8-0.5l2.9,0.6c0.1,0,0.1,0,0.2,0c0.4,0,0.8-0.3,0.9-0.7
			c0.1-0.5-0.2-0.9-0.7-1l-1.1-0.2l1.8-1.1c0.4-0.3,0.6-0.8,0.3-1.2c-0.3-0.4-0.9-0.5-1.3-0.2l-1.8,1.1l0.2-1c0.1-0.5-0.2-0.9-0.7-1
			c-0.5-0.1-1,0.2-1.1,0.7l-0.6,2.7l-0.8,0.5l0.5-2.4c0.1-0.5-0.2-0.9-0.7-1c-0.2,0-0.4,0-0.6,0.1c0-0.2-0.1-0.4-0.2-0.5
			c-0.4-0.3-1-0.3-1.3,0l-1.9,1.7v-0.9l2.1-1.9c0.4-0.3,0.4-0.9,0-1.2c-0.4-0.3-1-0.3-1.3,0l-0.8,0.7v-2c0-0.5-0.4-0.9-0.9-0.9
			s-0.9,0.4-0.9,0.9v2l-0.8-0.7c-0.4-0.3-1-0.3-1.3,0c-0.4,0.3-0.4,0.9,0,1.2l2.1,1.9v0.9l-1.9-1.7c-0.4-0.3-1-0.3-1.3,0
			c-0.4,0.3-0.4,0.9,0,1.2l3.2,2.9v2.5l-2.5-1.2l-1.4-4c-0.2-0.4-0.7-0.7-1.2-0.6c-0.5,0.1-0.8,0.6-0.6,1.1l0.8,2.3l-0.9-0.4
			l-0.9-2.6c-0.2-0.5-0.7-0.7-1.2-0.6c-0.5,0.2-0.8,0.6-0.6,1.1l0.3,1l-1.9-0.9c-0.5-0.2-1,0-1.3,0.4c-0.2,0.4-0.1,0.9,0.4,1.2
			l1.9,0.9l-1.1,0.3c-0.5,0.2-0.8,0.6-0.6,1.1c0.1,0.4,0.5,0.6,0.9,0.6c0.1,0,0.2,0,0.3,0l2.8-0.9l0.9,0.4l-2.5,0.8
			c-0.5,0.2-0.8,0.6-0.6,1.1c0.1,0.4,0.5,0.6,0.9,0.6c0.1,0,0.2,0,0.3,0l4.3-1.3l2.4,1.1l-2.2,1.4l-4.4-0.9c-0.5-0.1-1,0.2-1.1,0.7
			c-0.1,0.5,0.2,0.9,0.7,1l2.6,0.5l-0.8,0.5l-2.9-0.6c-0.5-0.1-1,0.2-1.1,0.7c-0.1,0.5,0.2,0.9,0.7,1l1.1,0.2l-1.8,1.1
			c-0.4,0.3-0.6,0.8-0.3,1.2c0.2,0.3,0.5,0.4,0.8,0.4c0.2,0,0.4,0,0.5-0.1l1.8-1.1l-0.2,1c-0.1,0.5,0.2,0.9,0.7,1c0.1,0,0.1,0,0.2,0
			c0.4,0,0.8-0.3,0.9-0.7l0.6-2.7l0.8-0.5l-0.5,2.4c-0.1,0.5,0.2,0.9,0.7,1c0.1,0,0.1,0,0.2,0c0.2,0,0.3-0.1,0.4-0.1
			c0,0.2,0.1,0.4,0.3,0.6c0.2,0.2,0.4,0.3,0.7,0.3s0.5-0.1,0.7-0.2l1.9-1.7v0.9l-2.1,1.9c-0.4,0.3-0.4,0.9,0,1.2
			c0.4,0.3,1,0.3,1.3,0l0.8-0.7v2c0,0.5,0.4,0.9,0.9,0.9s0.9-0.4,0.9-0.9v-2l0.8,0.7c0.2,0.2,0.4,0.3,0.7,0.3c0.2,0,0.5-0.1,0.7-0.3
			c0.4-0.3,0.4-0.9,0-1.2l-2.1-1.9v-0.9l1.9,1.7c0.4,0.3,1,0.3,1.3,0c0.4-0.3,0.4-0.9,0-1.2l-3.2-2.9v-2.6l2.4,1.2l1.4,4
			c0.1,0.4,0.5,0.6,0.9,0.6c0.1,0,0.2,0,0.3,0c0.5-0.1,0.8-0.6,0.6-1.1l-0.8-2.3l0.9,0.4l0.9,2.6c0.1,0.4,0.5,0.6,0.9,0.6
			c0.1,0,0.2,0,0.3,0c0.5-0.1,0.8-0.6,0.6-1.1l-0.3-1l1.9,0.9c0.1,0.1,0.3,0.1,0.4,0.1c0.3,0,0.7-0.2,0.8-0.5
			C77.8,115.5,77.6,114.9,77.1,114.7z M64.5,114.2l-2.9,2.7l0.8-3.7l2.1-1.3V114.2z M66.4,106.2l2.9-2.7l-0.8,3.7l-2.1,1.3V106.2z
			 M88.8,84.5l-1.4-2.1c-0.4-0.6-1-0.9-1.7-0.9c-0.7,0-1.4,0.3-1.7,0.9c-0.4,0.6-0.9,1.3-1.4,2c-3.1,4.6-5.6,8.6-5.6,11
			c0,4.4,3.9,8,8.7,8c2.3,0,4.5-0.8,6.1-2.4c1.6-1.5,2.5-3.5,2.5-5.7C94.4,93.1,91.9,89.1,88.8,84.5z"/>
	</g>
</g>
</svg>
