<?xml version="1.0" encoding="utf-8"?>
<!-- Generator: Adobe Illustrator 19.2.1, SVG Export Plug-In . SVG Version: 6.00 Build 0)  -->
<svg version="1.1" id="Layer_1" xmlns="http://www.w3.org/2000/svg" xmlns:xlink="http://www.w3.org/1999/xlink" x="0px" y="0px"
	 viewBox="0 0 130 130" style="enable-background:new 0 0 130 130;" xml:space="preserve">
<style type="text/css">
	.st0{fill:none;}
	.st1{fill:#4D4D4D;}
</style>
<rect class="st0" width="130" height="130"/>
<g>
	<g>
		<g>
			<path class="st1" d="M127.2,27.9c0-7.9-6.4-14.4-14.2-14.4c-7.8,0-14.2,6.5-14.2,14.4c0,1.5,1.2,2.6,2.6,2.6s2.6-1.2,2.6-2.6
				c0-5,4-9.1,9-9.1c5,0,9,4.1,9,9.1c0,9.3-8.2,10-9,10.1H3.6C2.2,38,1,39.2,1,40.7c0,1.5,1.2,2.6,2.6,2.6l109.6,0
				C118,43.1,127.2,39.6,127.2,27.9z M114.7,50.4H17.6c-1.4,0-2.6,1.2-2.6,2.6c0,1.5,1.2,2.6,2.6,2.6h97c0.4,0,9.2,0.5,9.2,10.1
				c0,5-4.1,9.1-9.1,9.1c-5,0-9.1-4.1-9.1-9.1c0-1.5-1.2-2.6-2.6-2.6c-1.4,0-2.6,1.2-2.6,2.6c0,7.9,6.4,14.4,14.3,14.4
				c7.9,0,14.3-6.5,14.3-14.4C129,54.1,119.7,50.6,114.7,50.4z"/>
		</g>
		<g>
			<path class="st1" d="M86.1,22.3H10.6c-1.4,0-2.6,1.2-2.6,2.6c0,1.5,1.2,2.6,2.6,2.6h75.5c1.4,0,2.6-1.2,2.6-2.6
				C88.7,23.5,87.5,22.3,86.1,22.3z"/>
		</g>
	</g>
	<g>
		<path class="st1" d="M92.6,83.9l-1.7-0.9l1.1-0.4c0.3-0.1,0.5-0.5,0.4-0.8c-0.1-0.3-0.5-0.5-0.8-0.4l-2.2,0.7l-0.9-0.5l2.2-0.7
			c0.3-0.1,0.5-0.5,0.4-0.8c-0.1-0.3-0.5-0.5-0.8-0.4L86.9,81l-2.1-1l1.9-1.3l3.5,0.7c0,0,0.1,0,0.1,0c0.3,0,0.5-0.2,0.6-0.5
			c0.1-0.3-0.1-0.7-0.5-0.7l-2.3-0.5l0.9-0.6l2.3,0.5c0,0,0.1,0,0.1,0c0.3,0,0.5-0.2,0.6-0.5c0.1-0.3-0.1-0.7-0.5-0.7l-1.1-0.2
			l1.6-1.1c0.3-0.2,0.4-0.6,0.2-0.9c-0.2-0.3-0.6-0.4-0.9-0.2l-1.6,1.1l0.2-1.1c0.1-0.3-0.1-0.7-0.5-0.7c-0.4-0.1-0.7,0.1-0.7,0.5
			l-0.5,2.3l-0.9,0.6l0.5-2.3c0.1-0.3-0.1-0.7-0.5-0.7c-0.4-0.1-0.7,0.2-0.7,0.5l-0.7,3.5l-1.8,1.2v-2.2l2.5-2.5
			c0.2-0.2,0.2-0.6,0-0.9c-0.2-0.2-0.6-0.2-0.9,0l-1.6,1.6v-1.1l1.7-1.7c0.2-0.2,0.2-0.6,0-0.9c-0.2-0.2-0.6-0.2-0.9,0l-0.8,0.8
			v-1.9c0-0.3-0.3-0.6-0.6-0.6c-0.3,0-0.6,0.3-0.6,0.6v1.9l-0.8-0.8c-0.2-0.2-0.6-0.2-0.9,0c-0.2,0.2-0.2,0.6,0,0.9l1.7,1.7v1.1
			l-1.7-1.6c-0.2-0.2-0.6-0.2-0.9,0c-0.2,0.2-0.2,0.6,0,0.9l2.5,2.5V79L80.9,78l-1.1-3.4c-0.1-0.3-0.4-0.5-0.8-0.4
			c-0.3,0.1-0.5,0.5-0.4,0.8l0.7,2.2l-0.9-0.5l-0.7-2.2c-0.1-0.3-0.5-0.5-0.8-0.4c-0.3,0.1-0.5,0.4-0.4,0.8l0.3,1.1L75.1,75
			c-0.3-0.2-0.7,0-0.8,0.3c-0.2,0.3,0,0.7,0.3,0.8l1.7,0.9l-1.1,0.4c-0.3,0.1-0.5,0.5-0.4,0.8c0.1,0.3,0.3,0.4,0.6,0.4
			c0.1,0,0.1,0,0.2,0l2.2-0.7l0.9,0.5L76.5,79c-0.3,0.1-0.5,0.5-0.4,0.8c0.1,0.3,0.3,0.4,0.6,0.4c0.1,0,0.1,0,0.2,0l3.4-1.1l2.1,1
			l-1.9,1.3L77,80.6c-0.3-0.1-0.7,0.2-0.7,0.5c-0.1,0.3,0.1,0.7,0.5,0.7l2.3,0.5l-0.9,0.6l-2.3-0.5c-0.3-0.1-0.7,0.1-0.7,0.5
			c-0.1,0.3,0.1,0.7,0.5,0.7l1.1,0.2l-1.6,1.1c-0.3,0.2-0.4,0.6-0.2,0.9c0.1,0.2,0.3,0.3,0.5,0.3c0.1,0,0.2,0,0.3-0.1l1.6-1.1
			L77.1,86c-0.1,0.3,0.2,0.7,0.5,0.7c0,0,0.1,0,0.1,0c0.3,0,0.6-0.2,0.6-0.5l0.5-2.3l0.9-0.6l-0.5,2.3c-0.1,0.3,0.1,0.7,0.5,0.7
			c0,0,0.1,0,0.1,0c0.3,0,0.6-0.2,0.6-0.5l0.7-3.5l1.8-1.2v2.2l-2.5,2.5c-0.2,0.2-0.2,0.6,0,0.9c0.2,0.2,0.6,0.2,0.9,0l1.7-1.6v1.1
			l-1.7,1.6c-0.2,0.2-0.2,0.6,0,0.9c0.2,0.2,0.6,0.2,0.9,0l0.8-0.8v1.9c0,0.3,0.3,0.6,0.6,0.6c0.3,0,0.6-0.3,0.6-0.6v-1.9l0.8,0.8
			c0.1,0.1,0.3,0.2,0.4,0.2s0.3-0.1,0.4-0.2c0.2-0.2,0.2-0.6,0-0.9l-1.7-1.6v-1.1l1.6,1.6c0.1,0.1,0.3,0.2,0.4,0.2
			c0.2,0,0.3-0.1,0.4-0.2c0.2-0.2,0.2-0.6,0-0.9l-2.5-2.5V81l2.1,1.1l1.1,3.4c0.1,0.3,0.3,0.4,0.6,0.4c0.1,0,0.1,0,0.2,0
			c0.3-0.1,0.5-0.5,0.4-0.8l-0.7-2.2l0.9,0.5l0.7,2.2c0.1,0.3,0.3,0.4,0.6,0.4c0.1,0,0.1,0,0.2,0c0.3-0.1,0.5-0.5,0.4-0.8l-0.3-1.1
			l1.7,0.9c0.1,0,0.2,0.1,0.3,0.1c0.2,0,0.4-0.1,0.6-0.3C93.1,84.5,92.9,84.1,92.6,83.9z M55.9,67.3l1.1,0.6l-0.6,0.2
			c-0.3,0.1-0.5,0.5-0.4,0.8c0.1,0.3,0.3,0.4,0.6,0.4c0.1,0,0.1,0,0.2,0l1.8-0.6l0.5,0.2l-1.5,0.5c-0.3,0.1-0.5,0.5-0.4,0.8
			c0.1,0.3,0.3,0.4,0.6,0.4c0.1,0,0.1,0,0.2,0l2.7-0.9l1.4,0.7l-1.3,0.9l-2.8-0.6c-0.3-0.1-0.7,0.2-0.7,0.5
			c-0.1,0.3,0.1,0.7,0.5,0.7l1.6,0.3l-0.4,0.3L57,72.2c-0.3-0.1-0.7,0.1-0.7,0.5c-0.1,0.3,0.1,0.7,0.5,0.7l0.6,0.1l-1.1,0.7
			c-0.3,0.2-0.4,0.6-0.2,0.9c0.1,0.2,0.3,0.3,0.5,0.3c0.1,0,0.2,0,0.3-0.1l1-0.7l-0.1,0.6c-0.1,0.3,0.2,0.7,0.5,0.7c0,0,0.1,0,0.1,0
			c0.3,0,0.5-0.2,0.6-0.5l0.4-1.8l0.4-0.3l-0.3,1.6c-0.1,0.3,0.1,0.7,0.5,0.7c0,0,0.1,0,0.1,0c0.1,0,0.2-0.1,0.3-0.1
			c0,0.1,0,0.3,0.1,0.4c0.1,0.1,0.3,0.2,0.4,0.2c0.2,0,0.3-0.1,0.4-0.2l1.1-1.1v0.5l-1.3,1.3c-0.2,0.2-0.2,0.6,0,0.9
			c0.2,0.2,0.6,0.2,0.9,0l0.4-0.4v1.3c0,0.3,0.3,0.6,0.6,0.6c0.3,0,0.6-0.3,0.6-0.6v-1.3l0.4,0.4c0.1,0.1,0.3,0.2,0.4,0.2
			c0.2,0,0.3-0.1,0.4-0.2c0.2-0.2,0.2-0.6,0-0.9l-1.3-1.3v-0.5l1.1,1.1c0.2,0.2,0.6,0.2,0.9,0c0.2-0.3,0.2-0.6,0-0.9l-2-2v-1.7
			l1.5,0.8l0.9,2.7c0.1,0.3,0.3,0.4,0.6,0.4c0.1,0,0.1,0,0.2,0c0.3-0.1,0.5-0.5,0.4-0.8l-0.5-1.5l0.5,0.2l0.6,1.8
			c0.1,0.3,0.3,0.4,0.6,0.4c0.1,0,0.1,0,0.2,0c0.3-0.1,0.5-0.5,0.4-0.8L68.9,74l1.1,0.6c0.1,0,0.2,0.1,0.3,0.1
			c0.2,0,0.4-0.1,0.5-0.3c0.2-0.3,0-0.7-0.3-0.8l-1.1-0.6l0.6-0.2c0.3-0.1,0.5-0.5,0.4-0.8c-0.1-0.3-0.5-0.5-0.8-0.4l-1.8,0.6
			l-0.5-0.2l1.5-0.5c0.3-0.1,0.5-0.5,0.4-0.8c-0.1-0.3-0.5-0.5-0.8-0.4L65.9,71l-1.4-0.7l1.3-0.9l2.8,0.6c0,0,0.1,0,0.1,0
			c0.3,0,0.6-0.2,0.6-0.5c0.1-0.3-0.1-0.7-0.5-0.7l-1.6-0.3l0.4-0.3l1.8,0.4c0,0,0.1,0,0.1,0c0.3,0,0.5-0.2,0.6-0.5
			c0.1-0.3-0.1-0.7-0.5-0.7l-0.6-0.1l1.1-0.7c0.3-0.2,0.4-0.6,0.2-0.9c-0.2-0.3-0.6-0.4-0.9-0.2l-1.1,0.7l0.1-0.6
			c0.1-0.3-0.1-0.7-0.5-0.7c-0.4-0.1-0.7,0.1-0.7,0.5L67,67.1l-0.4,0.3l0.3-1.6c0.1-0.3-0.1-0.7-0.5-0.7c-0.1,0-0.3,0-0.4,0.1
			c0-0.1-0.1-0.3-0.1-0.4c-0.2-0.2-0.6-0.2-0.9,0L63.9,66v-0.5l1.3-1.3c0.2-0.2,0.2-0.6,0-0.9c-0.2-0.2-0.6-0.2-0.9,0l-0.4,0.4v-1.3
			c0-0.3-0.3-0.6-0.6-0.6c-0.3,0-0.6,0.3-0.6,0.6v1.3l-0.4-0.4c-0.2-0.2-0.6-0.2-0.9,0c-0.2,0.2-0.2,0.6,0,0.9l1.3,1.3V66l-1.1-1.1
			c-0.2-0.2-0.6-0.2-0.9,0c-0.2,0.2-0.2,0.6,0,0.9l2,2v1.7l-1.5-0.7l-0.9-2.7c-0.1-0.3-0.5-0.5-0.8-0.4c-0.3,0.1-0.5,0.4-0.4,0.8
			l0.5,1.5l-0.5-0.2l-0.6-1.8c-0.1-0.3-0.5-0.5-0.8-0.4c-0.3,0.1-0.5,0.5-0.4,0.8l0.2,0.6l-1.1-0.6c-0.3-0.2-0.7,0-0.8,0.3
			C55.5,66.8,55.6,67.2,55.9,67.3z M63.9,67.7l1.8-1.7l-0.5,2.4l-1.3,0.8V67.7z M62.6,73.1l-1.7,1.7l0.5-2.4l1.3-0.8L62.6,73.1
			L62.6,73.1z M48.6,82.9l0.9,0.5l0.7,2.2c0.1,0.3,0.3,0.4,0.6,0.4c0.1,0,0.1,0,0.2,0c0.3-0.1,0.5-0.5,0.4-0.8l-0.3-1.1l1.7,0.9
			c0.1,0,0.2,0.1,0.3,0.1c0.2,0,0.4-0.1,0.5-0.3c0.2-0.3,0-0.7-0.3-0.8l-1.7-0.9l1.1-0.4c0.3-0.1,0.5-0.5,0.4-0.8
			c-0.1-0.3-0.5-0.5-0.8-0.4l-2.2,0.7l-0.9-0.5l2.2-0.7c0.3-0.1,0.5-0.5,0.4-0.8c-0.1-0.3-0.5-0.5-0.8-0.4L47.6,81l-2-1l1.9-1.3
			l3.5,0.7c0,0,0.1,0,0.1,0c0.3,0,0.5-0.2,0.6-0.5c0.1-0.3-0.1-0.7-0.5-0.7L49,77.7l0.9-0.6l2.3,0.5c0,0,0.1,0,0.1,0
			c0.3,0,0.5-0.2,0.6-0.5c0.1-0.3-0.1-0.7-0.5-0.7l-1.1-0.2l1.6-1.1c0.3-0.2,0.4-0.6,0.2-0.9c-0.2-0.3-0.6-0.4-0.9-0.2l-1.6,1
			l0.2-1.1c0.1-0.3-0.2-0.7-0.5-0.7c-0.4-0.1-0.7,0.1-0.7,0.5l-0.5,2.3l-0.9,0.6l0.5-2.3c0.1-0.3-0.1-0.7-0.5-0.7
			c-0.4-0.1-0.7,0.2-0.7,0.5l-0.7,3.5L45,78.9v-2.2l2.5-2.5c0.2-0.2,0.2-0.6,0-0.9c-0.2-0.2-0.6-0.2-0.9,0L45,74.9v-1.1l1.7-1.7
			c0.2-0.2,0.2-0.6,0-0.9c-0.2-0.2-0.6-0.2-0.9,0L45,72.1v-1.9c0-0.3-0.3-0.6-0.6-0.6c-0.3,0-0.6,0.3-0.6,0.6v1.9l-0.8-0.8
			c-0.2-0.2-0.6-0.2-0.9,0c-0.2,0.2-0.2,0.6,0,0.9l1.7,1.7v1.1l-1.6-1.6c-0.2-0.2-0.6-0.2-0.9,0c-0.2,0.2-0.2,0.6,0,0.9l2.5,2.5V79
			L41.6,78l-1.1-3.4c-0.1-0.3-0.4-0.5-0.8-0.4c-0.3,0.1-0.5,0.5-0.4,0.8l0.7,2.2l-0.9-0.5l-0.7-2.2c-0.1-0.3-0.4-0.5-0.8-0.4
			c-0.3,0.1-0.5,0.5-0.4,0.8l0.3,1.1L35.9,75c-0.3-0.2-0.7,0-0.8,0.3c-0.2,0.3,0,0.7,0.3,0.8L37,77L36,77.4
			c-0.3,0.1-0.5,0.5-0.4,0.8c0.1,0.3,0.3,0.4,0.6,0.4c0.1,0,0.1,0,0.2,0l2.2-0.7l0.9,0.5L37.3,79c-0.3,0.1-0.5,0.5-0.4,0.8
			c0.1,0.3,0.3,0.4,0.6,0.4c0.1,0,0.1,0,0.2,0l3.4-1.1l2.1,1l-1.9,1.3l-3.5-0.7c-0.3-0.1-0.7,0.2-0.7,0.5c-0.1,0.3,0.1,0.7,0.5,0.7
			l2.3,0.5l-0.9,0.6l-2.3-0.5c-0.3-0.1-0.7,0.1-0.7,0.5c-0.1,0.3,0.1,0.7,0.5,0.7l1.1,0.2l-1.6,1.1c-0.3,0.2-0.4,0.6-0.2,0.9
			c0.1,0.2,0.3,0.3,0.5,0.3c0.1,0,0.2,0,0.3-0.1l1.6-1.1L37.9,86c-0.1,0.3,0.1,0.7,0.5,0.7c0,0,0.1,0,0.1,0c0.3,0,0.5-0.2,0.6-0.5
			l0.5-2.3l0.9-0.6L40,85.6c-0.1,0.3,0.1,0.7,0.5,0.7c0,0,0.1,0,0.1,0c0.3,0,0.6-0.2,0.6-0.5l0.7-3.5l1.8-1.2v2.2l-2.5,2.5
			c-0.2,0.2-0.2,0.6,0,0.9c0.1,0.1,0.3,0.2,0.4,0.2c0.2,0,0.3-0.1,0.4-0.2l1.6-1.6v1.1l-1.7,1.6c-0.2,0.2-0.2,0.6,0,0.9
			c0.2,0.2,0.6,0.2,0.9,0l0.8-0.8v1.9c0,0.3,0.3,0.6,0.6,0.6c0.3,0,0.6-0.3,0.6-0.6v-1.9l0.8,0.8c0.1,0.1,0.3,0.2,0.4,0.2
			s0.3-0.1,0.4-0.2c0.2-0.2,0.2-0.6,0-0.9L45,86.2v-1.1l1.7,1.6c0.2,0.2,0.6,0.2,0.9,0c0.2-0.2,0.2-0.6,0-0.9L45,83.4V81l2.1,1.1
			l1.1,3.4c0.1,0.3,0.3,0.4,0.6,0.4c0.1,0,0.1,0,0.2,0c0.3-0.1,0.5-0.5,0.4-0.8L48.6,82.9z M77.6,106.6l-2.8-1.4l1.8-0.6
			c0.5-0.2,0.7-0.6,0.6-1.1c-0.1-0.4-0.6-0.7-1.1-0.6l-3.5,1.1l-1.6-0.8l3.6-1.2c0.5-0.1,0.7-0.6,0.5-1.1c-0.1-0.4-0.6-0.7-1.1-0.5
			l-5.2,1.7l-3.3-1.7l3.1-2l5.4,1.1c0.1,0,0.1,0,0.2,0c0.4,0,0.8-0.3,0.8-0.7c0.1-0.5-0.2-0.9-0.7-1L70.7,97l1.5-1l3.6,0.7
			c0.1,0,0.1,0,0.2,0c0.4,0,0.8-0.3,0.9-0.7c0.1-0.5-0.2-0.9-0.7-1l-1.9-0.4l2.6-1.7c0.4-0.3,0.5-0.8,0.2-1.2
			c-0.3-0.4-0.8-0.5-1.2-0.2l-2.6,1.7l0.4-1.9c0.1-0.5-0.2-0.9-0.7-1c-0.5-0.1-0.9,0.2-1,0.7l-0.7,3.6l-1.6,1l0.7-3.7
			c0.1-0.5-0.2-0.9-0.7-1c-0.5-0.1-0.9,0.2-1,0.7l-1.1,5.4l-3,2v-3.6l3.9-3.9c0.3-0.3,0.3-0.9,0-1.2c-0.3-0.3-0.9-0.3-1.2,0
			l-2.7,2.7V91l2.6-2.6c0.3-0.3,0.3-0.9,0-1.2s-0.9-0.3-1.2,0l-1.4,1.4v-3.1c0-0.5-0.4-0.9-0.9-0.9c-0.5,0-0.9,0.4-0.9,0.9v3.1
			l-1.4-1.4c-0.3-0.3-0.9-0.3-1.2,0c-0.3,0.3-0.3,0.9,0,1.2l2.6,2.6v1.8l-2.7-2.7c-0.3-0.3-0.9-0.3-1.2,0c-0.3,0.3-0.3,0.9,0,1.2
			l3.9,3.9v3.8l-3.4-1.7l-1.7-5.2c-0.1-0.5-0.6-0.7-1.1-0.6c-0.5,0.1-0.7,0.6-0.6,1.1l1.2,3.6l-1.7-0.8L54.6,92
			c-0.1-0.5-0.6-0.7-1.1-0.6c-0.5,0.1-0.7,0.6-0.6,1.1l0.6,1.8l-2.8-1.4c-0.4-0.2-1,0-1.2,0.4c-0.2,0.4,0,0.9,0.4,1.2l2.8,1.4
			l-1.8,0.6c-0.5,0.2-0.7,0.6-0.6,1.1c0.1,0.4,0.5,0.6,0.8,0.6c0.1,0,0.2,0,0.3,0l3.5-1.2l1.7,0.8L53,99c-0.5,0.2-0.7,0.6-0.6,1.1
			c0.1,0.4,0.5,0.6,0.8,0.6c0.1,0,0.2,0,0.3,0l5.2-1.7l3.3,1.7l-3.1,2l-5.4-1.1c-0.5-0.1-0.9,0.2-1,0.7c-0.1,0.5,0.2,0.9,0.7,1
			l3.7,0.8l-1.5,1l-3.6-0.8c-0.5-0.1-0.9,0.2-1,0.7c-0.1,0.5,0.2,0.9,0.7,1l1.9,0.4l-2.6,1.7c-0.4,0.3-0.5,0.8-0.2,1.2
			c0.2,0.3,0.4,0.4,0.7,0.4c0.2,0,0.3,0,0.5-0.1l2.6-1.7l-0.4,1.9c-0.1,0.5,0.2,0.9,0.7,1c0.1,0,0.1,0,0.2,0c0.4,0,0.8-0.3,0.8-0.7
			l0.7-3.6l1.5-1l-0.7,3.7c-0.1,0.5,0.2,0.9,0.7,1c0.1,0,0.1,0,0.2,0c0.4,0,0.8-0.3,0.9-0.7l1.1-5.4l3-2v3.6l-3.9,3.9
			c-0.3,0.3-0.3,0.9,0,1.2c0.3,0.3,0.9,0.3,1.2,0l2.7-2.7v1.9l-2.6,2.6c-0.3,0.3-0.3,0.9,0,1.2c0.2,0.2,0.4,0.3,0.6,0.3
			s0.4-0.1,0.6-0.2l1.4-1.4v3.1c0,0.5,0.4,0.9,0.9,0.9c0.5,0,0.9-0.4,0.9-0.9v-3.1l1.4,1.4c0.3,0.3,0.9,0.3,1.2,0
			c0.3-0.3,0.3-0.9,0-1.2l-2.6-2.6v-1.9l2.7,2.7c0.2,0.2,0.4,0.2,0.6,0.2c0.2,0,0.4-0.1,0.6-0.3c0.3-0.3,0.3-0.9,0-1.2l-3.9-3.9
			v-3.8l3.4,1.7l1.7,5.2c0.1,0.4,0.5,0.6,0.8,0.6c0.1,0,0.2,0,0.3,0c0.5-0.1,0.7-0.6,0.6-1.1l-1.2-3.6l1.7,0.8l1.1,3.5
			c0.1,0.4,0.5,0.6,0.8,0.6c0.1,0,0.2,0,0.3,0c0.5-0.1,0.7-0.6,0.6-1.1l-0.6-1.8l2.8,1.4c0.1,0.1,0.3,0.1,0.4,0.1
			c0.3,0,0.6-0.2,0.8-0.5C78.2,107.3,78.1,106.8,77.6,106.6z"/>
	</g>
</g>
</svg>
