<?xml version="1.0" encoding="utf-8"?>
<!-- Generator: Adobe Illustrator 19.2.1, SVG Export Plug-In . SVG Version: 6.00 Build 0)  -->
<svg version="1.1" id="Layer_1" xmlns="http://www.w3.org/2000/svg" xmlns:xlink="http://www.w3.org/1999/xlink" x="0px" y="0px"
	 viewBox="0 0 130 130" style="enable-background:new 0 0 130 130;" xml:space="preserve">
<style type="text/css">
	.st0{fill:none;}
	.st1{fill:#4D4D4D;}
</style>
<rect class="st0" width="130" height="130"/>
<g>
	<g>
		<path class="st1" d="M127.2,46.1c0-7.9-6.4-14.4-14.2-14.4c-7.8,0-14.2,6.5-14.2,14.4c0,1.5,1.2,2.6,2.6,2.6s2.6-1.2,2.6-2.6
			c0-5,4-9.1,9-9.1c5,0,9,4.1,9,9.1c0,9.3-8.2,10-9,10.1H3.6c-1.4,0-2.6,1.2-2.6,2.6c0,1.5,1.2,2.6,2.6,2.6l109.6,0
			C118,61.3,127.2,57.8,127.2,46.1z M114.7,68.5H17.6c-1.4,0-2.6,1.2-2.6,2.6c0,1.5,1.2,2.6,2.6,2.6h97c0.4,0,9.2,0.5,9.2,10.1
			c0,5-4.1,9.1-9.1,9.1c-5,0-9.1-4.1-9.1-9.1c0-1.5-1.2-2.6-2.6-2.6c-1.4,0-2.6,1.2-2.6,2.6c0,7.9,6.4,14.4,14.3,14.4
			c7.9,0,14.3-6.5,14.3-14.4C129,72.2,119.7,68.7,114.7,68.5z"/>
	</g>
	<g>
		<path class="st1" d="M72,82.5H35.2c-1.5,0-2.6,1.2-2.6,2.6c0,1.5,1.2,2.6,2.6,2.6H72c1.4,0,2.6-1.2,2.6-2.6
			C74.7,83.7,73.5,82.5,72,82.5z"/>
	</g>
	<g>
		<path class="st1" d="M86.1,40.5H10.6c-1.4,0-2.6,1.2-2.6,2.6c0,1.5,1.2,2.6,2.6,2.6h75.5c1.4,0,2.6-1.2,2.6-2.6
			C88.7,41.6,87.5,40.5,86.1,40.5z"/>
	</g>
</g>
</svg>
