<?xml version="1.0" encoding="utf-8"?>
<!-- Generator: Adobe Illustrator 19.2.1, SVG Export Plug-In . SVG Version: 6.00 Build 0)  -->
<svg version="1.1" id="Layer_1" xmlns="http://www.w3.org/2000/svg" xmlns:xlink="http://www.w3.org/1999/xlink" x="0px" y="0px"
	 viewBox="0 0 130 130" style="enable-background:new 0 0 130 130;" xml:space="preserve">
<style type="text/css">
	.st0{fill:none;}
	.st1{fill:#4D4D4D;}
</style>
<rect class="st0" width="130" height="130"/>
<g>
	<g>
		<path class="st1" d="M125.7,107.7H4.3c-1.8,0-3.3,1.4-3.3,3.1s1.5,3.1,3.3,3.1h121.5c1.8,0,3.3-1.4,3.3-3.1
			C129,109,127.5,107.7,125.7,107.7z M4.3,89.4h121.5c1.8,0,3.3-1.4,3.3-3.1c0-1.7-1.5-3.1-3.3-3.1H4.3c-1.8,0-3.3,1.4-3.3,3.1
			C1,88,2.5,89.4,4.3,89.4z M125.7,95.5H4.3c-1.8,0-3.3,1.4-3.3,3.1c0,1.7,1.5,3.1,3.3,3.1h121.5c1.8,0,3.3-1.4,3.3-3.1
			C129,96.8,127.5,95.5,125.7,95.5z"/>
	</g>
	<g>
		<path class="st1" d="M112.5,48.1C112,30.5,97.2,16.2,79.2,16.2c-10.2,0-19.7,4.6-26,12.3c-3.7-1.9-7.9-2.9-12.2-2.9
			c-13.4,0-24.4,9.9-26,22.8c-8.6,4.7-14,13.8-14,24c0,2.7,2.2,4.8,4.9,4.8c2.7,0,4.9-2.2,4.9-4.8c0-7.2,4.3-13.8,10.7-16.4
			c1.9-0.7,3.1-2.7,3.1-4.7c0-8.9,7.3-16.1,16.3-16.1c3.8,0,7.5,1.3,10.4,3.7c1.1,0.9,2.6,1.3,4,1c1.4-0.3,2.7-1.1,3.4-2.4
			c4.2-7.2,12-11.7,20.4-11.7c13,0,23.5,10.4,23.5,23.1c0,0.6,0,1.2-0.1,1.8c-0.2,2.2,1.1,4.2,3.2,4.9c6.8,2.4,11.3,9.1,11.3,16.6
			c0,2.7,2.2,4.8,4.9,4.8s4.9-2.2,4.9-4.8C127,62,121.3,52.7,112.5,48.1z"/>
	</g>
</g>
</svg>
