<?xml version="1.0" encoding="utf-8"?>
<!-- Generator: Adobe Illustrator 19.2.1, SVG Export Plug-In . SVG Version: 6.00 Build 0)  -->
<svg version="1.1" id="Layer_1" xmlns="http://www.w3.org/2000/svg" xmlns:xlink="http://www.w3.org/1999/xlink" x="0px" y="0px"
	 viewBox="0 0 130 130" style="enable-background:new 0 0 130 130;" xml:space="preserve">
<style type="text/css">
	.st0{fill:none;}
	.st1{fill:#4D4D4D;}
</style>
<rect class="st0" width="130" height="130"/>
<g>
	<path class="st1" d="M122.6,42.4L122.6,42.4c-0.6-1.1-1.2-2.2-1.9-3.2c-0.3-0.4-0.6-0.9-0.9-1.3c-0.5-0.8-1.1-1.6-1.7-2.3
		c-0.3-0.5-0.7-0.9-1.1-1.4c-0.7-0.8-1.4-1.6-2.1-2.4c-0.3-0.3-0.5-0.6-0.8-0.9c-1-1-2-2-3.1-3c-0.3-0.3-0.7-0.5-1-0.8
		c-0.9-0.7-1.8-1.4-2.7-2.1c-0.4-0.3-0.7-0.5-1.1-0.8c-1.2-0.9-2.5-1.7-3.8-2.5c0,0-0.1,0-0.1-0.1l0,0c0,0,0,0,0,0l0,0l0.1-0.1v0
		c-1.4-0.8-2.8-1.5-4.2-2.1c-0.4-0.2-0.8-0.4-1.2-0.5c-1.1-0.5-2.1-0.9-3.2-1.3c-0.4-0.1-0.8-0.3-1.2-0.4c-1.4-0.5-2.8-0.9-4.2-1.2
		c-0.4-0.1-0.7-0.2-1.1-0.2c-1.1-0.2-2.1-0.4-3.2-0.6c-0.5-0.1-1.1-0.2-1.6-0.2c-1-0.1-2-0.2-3-0.3c-0.5,0-0.9-0.1-1.4-0.1
		c-1.2,0-2.5-0.1-3.7,0l0,0c-16.5,0.5-32.4,8.7-42,23.1c4.2-1.5,8.9-1.2,13.1,1.2c5,2.9,7.7,8.1,7.7,13.4c0,0,0,0,0,0
		c0,0.1,0,0.2,0,0.3c4.7-2.8,10.7-3.1,15.8-0.2c3.2,1.9,6.2,5.3,7.6,9.5l-26.8,46.3c-1.5,2.6-4.7,3.7-7.3,2.2
		c-1.1-0.6-2.4-0.2-3,0.8c-0.6,1.1-0.2,2.4,0.8,3c4.8,2.8,10.4,1.3,13.2-3.4l27-46.7c3.9-0.5,8.8,0.2,12,2c5.1,2.9,7.9,8.4,7.8,13.8
		c0.1-0.1,0.2-0.1,0.3-0.2v0c4.7-2.7,10.6-2.9,15.6,0c4.2,2.4,6.8,6.4,7.6,10.8C131.4,74.9,130.5,57,122.6,42.4z M80.7,59.2l-2,3.5
		l0,0L80.7,59.2z"/>
	<path class="st1" d="M13,65.3h33.9c1.2,0,2.1-1,2.1-2.1c0-1.2-1-2.1-2.1-2.1H13c-1.2,0-2.1,1-2.1,2.1C10.9,64.3,11.8,65.3,13,65.3z
		"/>
	<path class="st1" d="M44.2,84.7c0-1.2-1-2.1-2.1-2.1H3.1c-1.2,0-2.1,1-2.1,2.1c0,1.2,1,2.1,2.1,2.1H42
		C43.2,86.9,44.2,85.9,44.2,84.7z"/>
	<path class="st1" d="M25.1,73.9c0,1.2,1,2.1,2.1,2.1h27.2c1.2,0,2.1-1,2.1-2.1c0-1.2-1-2.1-2.1-2.1H27.2
		C26.1,71.8,25.1,72.8,25.1,73.9z"/>
</g>
</svg>
