<?xml version="1.0" encoding="utf-8"?>
<!-- Generator: Adobe Illustrator 19.2.1, SVG Export Plug-In . SVG Version: 6.00 Build 0)  -->
<svg version="1.1" id="Layer_1" xmlns="http://www.w3.org/2000/svg" xmlns:xlink="http://www.w3.org/1999/xlink" x="0px" y="0px"
	 viewBox="0 0 130 130" style="enable-background:new 0 0 130 130;" xml:space="preserve">
<style type="text/css">
	.st0{fill:none;}
	.st1{fill:#4D4D4D;}
</style>
<rect class="st0" width="130" height="130"/>
<g>
	<g>
		<path class="st1" d="M59.1,31.1L59.1,31.1c0.9,0,1.6-0.7,1.6-1.5L61,18.9c0-0.9-0.7-1.6-1.5-1.6h0c-0.9,0-1.6,0.7-1.6,1.5
			l-0.3,10.6C57.6,30.4,58.3,31.1,59.1,31.1z M49.3,32.2c0.3,0.5,0.8,0.9,1.4,0.9c0.2,0,0.5-0.1,0.7-0.2c0.8-0.4,1.1-1.3,0.7-2.1
			l-4.9-9.5c-0.4-0.8-1.3-1.1-2.1-0.7C44.3,21,44,22,44.4,22.7L49.3,32.2z M41.1,45.2l-10.6-0.3h0c-0.9,0-1.6,0.7-1.6,1.5
			c0,0.9,0.7,1.6,1.5,1.6L41,48.3h0c0.9,0,1.6-0.7,1.6-1.5C42.7,45.9,42,45.2,41.1,45.2z M67.5,33.7c0.3,0.2,0.6,0.3,0.9,0.3
			c0.5,0,1-0.3,1.3-0.7l5.8-8.9c0.5-0.7,0.3-1.7-0.5-2.2c-0.7-0.5-1.7-0.3-2.2,0.5l-5.8,8.9C66.6,32.3,66.8,33.2,67.5,33.7z
			 M45.3,38.4c0.5-0.7,0.3-1.7-0.5-2.2l-8.9-5.8c-0.7-0.5-1.7-0.3-2.2,0.5c-0.5,0.7-0.3,1.7,0.5,2.2l8.9,5.8
			c0.3,0.2,0.6,0.3,0.9,0.3C44.4,39.1,45,38.9,45.3,38.4z M85.3,33.6c-0.4-0.8-1.3-1.1-2.1-0.7l-9.5,4.9c-0.8,0.4-1.1,1.3-0.7,2.1
			c0.3,0.5,0.8,0.9,1.4,0.9c0.2,0,0.5-0.1,0.7-0.2l9.5-4.9C85.4,35.3,85.7,34.3,85.3,33.6z M59.1,33.5c-3.7-0.1-7.2,1.3-9.8,3.8
			c-2.7,2.5-4.2,5.9-4.3,9.6c0,1.7,1.3,3.2,3.1,3.2h0.1c1.7,0,3.1-1.4,3.1-3.1c0-2,0.9-3.8,2.3-5.2c1.4-1.4,3.3-2.1,5.3-2.1
			c2.8,0.1,5.3,1.7,6.5,4.2c0.7,1.6,2.6,2.2,4.2,1.5c1.6-0.7,2.2-2.6,1.5-4.2C68.9,36.6,64.3,33.6,59.1,33.5z"/>
	</g>
	<g>
		<path class="st1" d="M118.8,69.9c-1.2-9.6-9.5-17.1-19.4-17.1c-3.1,0-7.7,2-10.3,3.3c4,4.4,6.4,10.1,6.4,16.5c0,0.7,0,1.3-0.1,1.9
			c7.3,2.6,12.5,9.9,12.5,18.5c0,5.9-2.5,11.2-6.5,14.8c0.5,0.4,1.1,0.7,1.7,0.7h6c10.9,0,19.8-9.3,19.8-20.7
			C129,80.3,125.1,73.5,118.8,69.9z"/>
	</g>
	<g>
		<path class="st1" d="M88.4,74.5c0.1-0.6,0.1-1.3,0.1-1.9c0-13.5-11-24.5-24.5-24.5c-9.1,0-17,5-21.2,12.4
			c-3.2-2.6-7.2-4.2-11.6-4.2c-10.1,0-18.3,8.2-18.3,18.3c0,0.1,0,0.1,0,0.2C5.9,77.6,1,84.7,1,93.1c0,10.8,8.3,19.6,18.6,19.6h62.8
			c10.3,0,18.6-8.8,18.6-19.6C101,84.5,95.7,77.2,88.4,74.5z"/>
	</g>
</g>
</svg>
