<?xml version="1.0" encoding="utf-8"?>
<!-- Generator: Adobe Illustrator 19.2.1, SVG Export Plug-In . SVG Version: 6.00 Build 0)  -->
<svg version="1.1" id="Layer_1" xmlns="http://www.w3.org/2000/svg" xmlns:xlink="http://www.w3.org/1999/xlink" x="0px" y="0px"
	 viewBox="0 0 130 130" style="enable-background:new 0 0 130 130;" xml:space="preserve">
<style type="text/css">
	.st0{fill:none;}
	.st1{fill:#4D4D4D;}
</style>
<rect class="st0" width="130" height="130"/>
<g>
	<path class="st1" d="M112.9,44.2c0.1-0.8,0.1-1.7,0.1-2.5c0-17.3-14-31.3-31.3-31.3c-11.6,0-21.8,6.4-27.2,15.8
		c-4.1-3.3-9.2-5.3-14.9-5.3c-12.9,0-23.4,10.5-23.4,23.4c0,0.1,0,0.2,0,0.2C7.3,48.2,1,57.3,1,67.9C1,81.8,11.7,93,24.8,93h10.5
		c3.7-3.8,10.4-7.9,18.5-12.6c2.4-1.4,5.1-3,7.4-4.4l3.8-2.4l0.1,4.5c0.1,2.5,0.2,5.4,0.4,8.6c0.1,2.2,0.2,4.3,0.3,6.3H80
		c-0.4-0.1-0.7-0.3-1.1-0.5c-5.3-2.9-7.4-9.5-4.5-14.9c1.5-2.9,6.9-6.2,13.3-9.9c1-0.6,1.9-1.1,2.8-1.6l3.7-2.2l0.2,4.3
		c0.1,1,0.1,2.1,0.2,3.4c0.4,7.3,0.7,13.6-0.9,16.5c-1.2,2.3-3.3,4-5.7,5h17.1c13.1,0,23.8-11.2,23.8-25.1
		C129,56.9,122.3,47.6,112.9,44.2z M45.6,79.4c-0.9,1.7-2.5,3-4.3,3.6c-0.7,0.2-1.4,0.3-2.1,0.3c-1.2,0-2.4-0.3-3.5-0.9
		c-1.7-0.9-3-2.5-3.6-4.3c-0.6-1.9-0.4-3.9,0.6-5.6c0.9-1.7,3.4-3.4,8-6.1c0.6-0.3,1.1-0.6,1.6-0.9l3.7-2.2l0.2,4.3
		c0,0.6,0.1,1.2,0.1,1.8C46.6,74.6,46.6,77.6,45.6,79.4z M70,65.3c-1.1,2.1-3,3.7-5.4,4.4c-0.9,0.3-1.7,0.4-2.6,0.4
		c-1.5,0-3-0.4-4.3-1.1c-2.1-1.1-3.7-3-4.4-5.4c-0.7-2.3-0.5-4.8,0.7-6.9c1.3-2.4,5.5-5,10.5-7.9l0.7-0.4l1.4-0.9l3.7-2.2l0.2,4.3
		c0,0.8,0.1,1.6,0.1,2.5C71.1,58.1,71.2,62.9,70,65.3z M92.1,54.9c-0.9,1.7-2.5,3-4.3,3.5c-0.7,0.2-1.4,0.3-2.1,0.3
		c-1.2,0-2.4-0.3-3.5-0.9c-3.6-1.9-4.9-6.3-3-9.9c1-1.9,3.9-3.7,7.8-6l0.1-0.1l0,0c0.6-0.3,1.1-0.6,1.6-0.9l3.7-2.2l0.2,4.3
		c0,0.4,0,0.9,0.1,1.4l0,0.4C93,50.2,93,53.2,92.1,54.9z"/>
	<path class="st1" d="M90,43.3c0,0.6,0.1,1.2,0.1,1.9c0.2,2.9,0.4,7.2-0.3,8.6c-0.6,1.1-1.6,1.9-2.8,2.3c-0.5,0.1-0.9,0.2-1.4,0.2
		c-0.8,0-1.5-0.2-2.2-0.6c-2.3-1.2-3.2-4.1-1.9-6.4c0.8-1.4,4.5-3.6,7-5C89,43.9,89.5,43.5,90,43.3"/>
	<path class="st1" d="M68,49.8c0,0.8,0.1,1.6,0.1,2.5c0.2,3.9,0.6,9.8-0.4,11.7c-0.8,1.5-2.2,2.6-3.8,3.1c-0.6,0.2-1.3,0.3-1.9,0.3
		c-1,0-2.1-0.3-3-0.8c-3.1-1.7-4.3-5.6-2.7-8.7c1-1.9,6.1-4.9,9.5-6.9C66.6,50.6,67.3,50.2,68,49.8"/>
	<path class="st1" d="M43.6,67.7c0,0.6,0.1,1.2,0.1,1.9c0.2,2.9,0.4,7.2-0.3,8.6c-0.6,1.1-1.6,1.9-2.8,2.3c-0.5,0.1-0.9,0.2-1.4,0.2
		c-0.8,0-1.5-0.2-2.2-0.6c-2.3-1.2-3.2-4.1-1.9-6.4c0.7-1.4,4.5-3.6,7-5C42.5,68.3,43.1,68,43.6,67.7"/>
	<path class="st1" d="M91.9,68.3c0.1,1,0.1,2.1,0.2,3.3c0.3,5.1,0.8,12.7-0.6,15.2c-1.1,2-2.8,3.4-5,4.1c-0.8,0.2-1.6,0.4-2.4,0.4
		c-1.4,0-2.7-0.3-4-1c-4.1-2.2-5.6-7.3-3.4-11.3c1.3-2.5,7.9-6.3,12.3-8.9C90.1,69.4,91,68.9,91.9,68.3"/>
	<path class="st1" d="M62.5,78.2c0.1,2.5,0.2,5.4,0.4,8.7c0.6,9,1.2,20.3-1.1,24.7c-1.9,3.6-5.1,6.2-9,7.3c-1.5,0.4-2.9,0.7-4.4,0.7
		c-2.5,0-4.9-0.6-7.1-1.8c-7.4-3.9-10.1-13.1-6.2-20.5c2.4-4.4,12.1-10.1,19.9-14.6C57.9,81,60.4,79.5,62.5,78.2"/>
	<path class="st1" d="M80.2,102.6c0,0.6,0.1,1.2,0.1,1.9c0.2,2.9,0.4,7.2-0.3,8.6c-0.6,1.1-1.6,1.9-2.8,2.3
		c-0.5,0.1-0.9,0.2-1.4,0.2c-0.8,0-1.5-0.2-2.2-0.6c-2.3-1.2-3.2-4.1-1.9-6.4c0.8-1.4,4.5-3.6,7-5C79.2,103.2,79.7,102.9,80.2,102.6
		"/>
</g>
</svg>
