<?xml version="1.0" encoding="utf-8"?>
<!-- Generator: Adobe Illustrator 19.2.1, SVG Export Plug-In . SVG Version: 6.00 Build 0)  -->
<svg version="1.1" id="Layer_1" xmlns="http://www.w3.org/2000/svg" xmlns:xlink="http://www.w3.org/1999/xlink" x="0px" y="0px"
	 viewBox="0 0 130 130" style="enable-background:new 0 0 130 130;" xml:space="preserve">
<style type="text/css">
	.st0{fill:none;}
	.st1{fill:#4D4D4D;}
</style>
<rect class="st0" width="130" height="130"/>
<g>
	<path class="st1" d="M73.6,61.5c0-4.8-3.9-8.6-8.6-8.6c-4.8,0-8.6,3.9-8.6,8.6c0,1.1,0.9,2.1,2.1,2.1c1.1,0,2.1-0.9,2.1-2.1
		c0-2.5,2-4.5,4.5-4.5s4.5,2,4.5,4.5c0,4.5-3.8,5-4.5,5h-62c-1.1,0-2.1,0.9-2.1,2.1c0,1.1,0.9,2.1,2.1,2.1h62
		C68,70.5,73.6,68.4,73.6,61.5z M6.4,62.6h42.8c1.1,0,2.1-0.9,2.1-2.1s-0.9-2.1-2.1-2.1H6.4c-1.1,0-2.1,0.9-2.1,2.1
		S5.2,62.6,6.4,62.6z M115.6,56c-0.3-16.5-13.8-29.9-30.5-29.9c-9.4,0-18.3,4.4-24,11.7c-3.5-1.9-7.4-2.9-11.4-2.9
		c-7.9,0-15.3,3.9-19.8,10.5c-1.3,1.9-0.8,4.4,1.1,5.7c1.9,1.3,4.4,0.8,5.7-1.1c2.9-4.3,7.7-6.9,12.9-6.9c3.7,0,7.1,1.2,9.9,3.5
		c0.9,0.8,2.2,1.1,3.4,0.9c1.2-0.2,2.2-1,2.8-2c4-6.9,11.4-11.2,19.3-11.2c12.3,0,22.2,10,22.2,22.2c0,0.6,0,1.2-0.1,1.8
		c-0.1,1.8,1,3.6,2.7,4.2c6.5,2.3,10.8,8.8,10.8,16.1c0,9.4-7.1,17-15.9,17H37.2c-2.3,0-4.1,1.8-4.1,4.1c0,2.3,1.8,4.1,4.1,4.1h67.6
		c13.3,0,24.1-11.3,24.1-25.2C129,69,123.7,60.3,115.6,56z M43.3,83.8c0-1.1-0.9-2.1-2.1-2.1H20.6c-1.1,0-2.1,0.9-2.1,2.1
		c0,1.1,0.9,2.1,2.1,2.1h20.6C42.4,85.8,43.3,84.9,43.3,83.8z M69.5,82.9c0,2.5-2,4.5-4.5,4.5c-2.5,0-4.5-2-4.5-4.5
		c0-1.1-0.9-2.1-2.1-2.1c-1.1,0-2.1,0.9-2.1,2.1c0,4.8,3.9,8.6,8.6,8.6c4.8,0,8.6-3.9,8.6-8.6c0-6.9-5.6-9-8.6-9.2H10.4
		c-1.1,0-2.1,0.9-2.1,2.1s0.9,2.1,2.1,2.1h54.5C65.7,77.9,69.5,78.3,69.5,82.9z"/>
</g>
</svg>
