<?xml version="1.0" encoding="utf-8"?>
<!-- Generator: Adobe Illustrator 19.2.1, SVG Export Plug-In . SVG Version: 6.00 Build 0)  -->
<svg version="1.1" id="Layer_1" xmlns="http://www.w3.org/2000/svg" xmlns:xlink="http://www.w3.org/1999/xlink" x="0px" y="0px"
	 viewBox="0 0 130 130" style="enable-background:new 0 0 130 130;" xml:space="preserve">
<style type="text/css">
	.st0{fill:none;}
	.st1{fill:#4D4D4D;}
</style>
<rect class="st0" width="130" height="130"/>
<g>
	<path class="st1" d="M83,69.1V19.5C83,9.3,74.6,1,64.4,1C54.2,1,45.9,9.3,45.9,19.5v49.9c-8.5,6.2-13.7,16.4-13.7,26.9
		c0,18,14.9,32.7,33.2,32.7c18.2,0,32.4-14.4,32.4-32.7C97.8,84.2,92.5,74.6,83,69.1z M65.4,126.6c-17,0-30.8-13.6-30.8-30.4
		c0-10.2,5.2-19.9,13.7-25.7V19.5c0-8.9,7.2-16.1,16.1-16.1c8.9,0,16.2,7.2,16.2,16.1v51c9.6,5,14.8,14.1,14.8,25.8
		C95.4,113.3,82.2,126.6,65.4,126.6z"/>
	<g>
		<path class="st1" d="M78.1,73.2c-0.6-0.3-1-0.9-1-1.6V52.5c-1.9,0.8-3.7,1.1-5.5,1.1c-3,0-6-0.8-8.7-1.6c-3.7-1-7.3-2-10.7-1v20.6
			c0,0.6-0.3,1.2-0.8,1.5c-7.9,5-12.8,13.9-12.8,23.2c0,14.8,12.1,26.7,27.1,26.7c14.7,0,26.3-11.7,26.3-26.7
			C91.8,88.7,89.4,78.6,78.1,73.2z"/>
	</g>
	<path class="st1" d="M34.5,60.2H40c1,0,1.8-0.7,1.8-1.6c0-0.9-0.8-1.6-1.8-1.6h-5.5c-1,0-1.8,0.7-1.8,1.6
		C32.7,59.5,33.5,60.2,34.5,60.2z"/>
	<path class="st1" d="M40,68.4c1,0,1.8-0.7,1.8-1.6c0-0.9-0.8-1.6-1.8-1.6h-5.5c-1,0-1.8,0.7-1.8,1.6c0,0.9,0.8,1.6,1.8,1.6H40z"/>
	<path class="st1" d="M34.5,35.5H40c1,0,1.8-0.7,1.8-1.6c0-0.9-0.8-1.6-1.8-1.6h-5.5c-1,0-1.8,0.7-1.8,1.6
		C32.7,34.8,33.5,35.5,34.5,35.5z"/>
	<path class="st1" d="M34.5,27.3H40c1,0,1.8-0.7,1.8-1.6c0-0.9-0.8-1.6-1.8-1.6h-5.5c-1,0-1.8,0.7-1.8,1.6
		C32.7,26.6,33.5,27.3,34.5,27.3z"/>
	<path class="st1" d="M34.5,19.1H40c1,0,1.8-0.7,1.8-1.6c0-0.9-0.8-1.6-1.8-1.6h-5.5c-1,0-1.8,0.7-1.8,1.6
		C32.7,18.4,33.5,19.1,34.5,19.1z"/>
	<path class="st1" d="M34.5,43.8H40c1,0,1.8-0.7,1.8-1.6c0-0.9-0.8-1.6-1.8-1.6h-5.5c-1,0-1.8,0.7-1.8,1.6
		C32.7,43,33.5,43.8,34.5,43.8z"/>
	<path class="st1" d="M34.5,52H40c1,0,1.8-0.7,1.8-1.6c0-0.9-0.8-1.6-1.8-1.6h-5.5c-1,0-1.8,0.7-1.8,1.6C32.7,51.2,33.5,52,34.5,52z
		"/>
</g>
</svg>
