<?xml version="1.0" encoding="utf-8"?>
<!-- Generator: Adobe Illustrator 19.2.1, SVG Export Plug-In . SVG Version: 6.00 Build 0)  -->
<svg version="1.1" id="Layer_1" xmlns="http://www.w3.org/2000/svg" xmlns:xlink="http://www.w3.org/1999/xlink" x="0px" y="0px"
	 viewBox="0 0 130 130" style="enable-background:new 0 0 130 130;" xml:space="preserve">
<style type="text/css">
	.st0{fill:none;}
	.st1{fill:#4D4D4D;}
</style>
<rect class="st0" width="130" height="130"/>
<g>
	<g>
		<path class="st1" d="M32.9,91.9c-16.8,0-28.6,5.7-28.6,10.8c0,0.2,0.1,0.4,0.1,0.7c4.2-1.8,9.8-2.9,16.2-2.9
			c13.6,0,23.8,4.9,23.8,11.3c0,0.3,0,0.5-0.1,0.8c10.5-1.8,17.1-6,17.1-9.9C61.5,97.6,49.8,91.9,32.9,91.9z M11.2,119.5
			c-6.7,0-10.2,2.3-10.2,3c0,0.8,3.5,3,10.2,3s10.2-2.3,10.2-3C21.3,121.8,17.8,119.5,11.2,119.5z M57.1,50.6
			c-29,0-48.4,9.9-48.4,19.2c0,1.4,0.5,2.7,1.3,4.1c8.4-5.2,22-8.5,37.7-8.5c23,0,41.7,7.1,45.9,16.9c7.6-3.6,12-8.1,12-12.5
			C105.5,60.5,86,50.6,57.1,50.6z M67.9,4.4c-33.7,0-61,11.6-61,25.8c0,3.1,1.4,6.1,3.8,8.9c7.6-10.3,29-17.5,54.9-17.5
			c28.3,0,51.3,8.6,56.7,20.5c4.3-3.5,6.8-7.5,6.8-11.8C129,16,101.7,4.4,67.9,4.4z"/>
	</g>
	<g>
		<path class="st1" d="M20.6,104.9c-11.9,0-19.4,4.1-19.4,7c0,1.2,1.5,2.7,4.1,4c6.4-1.3,14.6-0.3,18.4,2.9
			c10.1-0.6,16.4-4.2,16.4-6.8C40.1,109,32.5,104.9,20.6,104.9z M65.6,26c-29,0-53.5,9.8-53.5,21.4c0,2.7,1.3,5.2,3.7,7.6
			c9.6-5.4,24.4-8.8,41.3-8.8c22.7,0,41.5,6.1,49.1,14.9c8-3.7,12.8-8.5,12.8-13.7C119,35.8,94.5,26,65.6,26z M47.6,69.8
			c-25.4,0-42.4,8.6-42.4,16.7c0,2,1.1,4.1,3.1,6c5.9-3.1,14.7-5,24.7-5c17.9,0,31.6,5.9,32.8,14c15-2.9,24.2-9.1,24.2-15
			C90,78.4,72.9,69.8,47.6,69.8z"/>
	</g>
</g>
</svg>
