<?xml version="1.0" encoding="utf-8"?>
<!-- Generator: Adobe Illustrator 19.2.1, SVG Export Plug-In . SVG Version: 6.00 Build 0)  -->
<svg version="1.1" id="Layer_1" xmlns="http://www.w3.org/2000/svg" xmlns:xlink="http://www.w3.org/1999/xlink" x="0px" y="0px"
	 viewBox="0 0 130 130" style="enable-background:new 0 0 130 130;" xml:space="preserve">
<style type="text/css">
	.st0{fill:none;}
	.st1{fill:#4D4D4D;}
</style>
<rect class="st0" width="130" height="130"/>
<g>
	<g>
		<path class="st1" d="M112.9,77.2c0.1-0.8,0.1-1.7,0.1-2.5c0-17.3-14-31.3-31.3-31.3c-11.6,0-21.8,6.4-27.2,15.8
			c-4.1-3.3-9.2-5.3-14.9-5.3c-12.9,0-23.4,10.5-23.4,23.4c0,0.1,0,0.2,0,0.2C7.3,81.2,1,90.3,1,101C1,114.8,11.7,126,24.8,126h80.4
			c13.1,0,23.8-11.2,23.8-25.1C129,90,122.3,80.6,112.9,77.2z"/>
	</g>
	<g>
		<path class="st1" d="M52.4,39.6l-13.6-0.3h-0.1c-1.1,0-2,0.9-2,2c0,1.1,0.9,2,2,2.1l13.6,0.3h0.1c1.1,0,2-0.9,2-2
			C54.4,40.6,53.5,39.7,52.4,39.6z M62.8,23c0.4,0.7,1.1,1.1,1.8,1.1c0.3,0,0.6-0.1,0.9-0.2c1-0.5,1.4-1.7,0.9-2.7L60.2,9
			c-0.5-1-1.7-1.4-2.7-0.9c-1,0.5-1.4,1.7-0.9,2.7L62.8,23z M75.4,21.6L75.4,21.6c1.1,0,2-0.9,2.1-2L77.8,6c0-1.1-0.9-2-2-2.1h0
			c-1.1,0-2,0.9-2,2l-0.3,13.6C73.4,20.6,74.3,21.6,75.4,21.6z M86.2,24.9c0.3,0.2,0.7,0.3,1.1,0.3c0.7,0,1.3-0.3,1.7-0.9l7.4-11.4
			c0.6-0.9,0.3-2.2-0.6-2.8c-0.9-0.6-2.2-0.3-2.8,0.6l-7.4,11.4C85,23.1,85.3,24.3,86.2,24.9z M57.7,30.9c0.6-0.9,0.3-2.2-0.6-2.8
			l-11.4-7.4c-0.9-0.6-2.2-0.3-2.8,0.6c-0.6,0.9-0.3,2.2,0.6,2.8l11.4,7.4c0.3,0.2,0.7,0.3,1.1,0.3C56.6,31.9,57.3,31.5,57.7,30.9z
			 M109,24.7c-0.5-1-1.7-1.4-2.7-0.9l-12.1,6.2c-1,0.5-1.4,1.7-0.9,2.7c0.4,0.7,1.1,1.1,1.8,1.1c0.3,0,0.6-0.1,0.9-0.2l12.1-6.2
			C109.1,26.9,109.5,25.7,109,24.7z M75.4,24.6c-4.8-0.1-9.2,1.6-12.6,4.8c-3.4,3.2-5.3,7.6-5.5,12.3c-0.1,2.2,1.7,4.1,3.9,4.1h0.1
			c2.2,0,4-1.7,4-3.9c0.1-2.6,1.1-4.9,3-6.7c1.8-1.8,4.3-2.7,6.8-2.6c3.6,0.1,6.8,2.2,8.3,5.4c0.9,2,3.4,2.9,5.4,1.9
			c2-0.9,2.9-3.3,1.9-5.4C87.9,28.6,82,24.8,75.4,24.6z"/>
	</g>
</g>
</svg>
