<?xml version="1.0" encoding="utf-8"?>
<!-- Generator: Adobe Illustrator 19.2.1, SVG Export Plug-In . SVG Version: 6.00 Build 0)  -->
<svg version="1.1" id="Layer_1" xmlns="http://www.w3.org/2000/svg" xmlns:xlink="http://www.w3.org/1999/xlink" x="0px" y="0px"
	 viewBox="0 0 130 130" style="enable-background:new 0 0 130 130;" xml:space="preserve">
<style type="text/css">
	.st0{fill:none;}
	.st1{fill:#4D4D4D;}
</style>
<rect class="st0" width="130" height="130"/>
<g>
	<g>
		<path class="st1" d="M113.9,41.3L113.9,41.3c0-18.3-14.9-33.2-33.1-33.2c-10.6,0-20.4,5-26.7,13.5c-4-2.4-8.5-3.6-13.1-3.6
			c-13.4,0-24.4,10.3-25.6,23.6C6.5,46.2,1,55.5,1,66c0,15,11.7,27.2,26,27.2h1.3c1.9,0,3.5-1.6,3.5-3.5c0-1.9-1.6-3.5-3.5-3.5H27
			c-10.5,0-19-9-19-20.2c0-8.3,4.9-15.9,12.2-18.8c1.4-0.6,2.2-2.2,2.2-3.5c0-10.3,8.3-18.6,18.6-18.6c4.3,0,8.5,1.5,11.8,4.2
			c0.8,0.7,2,0.9,2.9,0.7c1-0.2,1.9-0.8,2.4-1.7c4.6-8.1,13.3-13.2,22.6-13.2c14.4,0,26.1,11.7,26.1,26.1c0,0.7,0,1.4-0.1,2.1
			c-0.1,1.6,0.8,3.1,2.3,3.6c7.7,2.8,12.9,10.5,12.9,19.1c0,11.1-8.5,20.2-18.9,20.2h-1.3c-1.9,0-3.5,1.6-3.5,3.5
			c0,2,1.6,3.5,3.5,3.5h1.3c14.3,0,26-12.2,26-27.2C129,55.3,123.1,45.7,113.9,41.3z"/>
	</g>
	<g>
		<polygon class="st1" points="88.5,59 59.7,59 49.8,89.6 57.1,89.6 45.3,121.9 77.5,84.5 70.2,84.5 		"/>
	</g>
</g>
</svg>
