<?xml version="1.0" encoding="utf-8"?>
<!-- Generator: Adobe Illustrator 19.2.1, SVG Export Plug-In . SVG Version: 6.00 Build 0)  -->
<svg version="1.1" id="Layer_1" xmlns="http://www.w3.org/2000/svg" xmlns:xlink="http://www.w3.org/1999/xlink" x="0px" y="0px"
	 viewBox="0 0 130 130" style="enable-background:new 0 0 130 130;" xml:space="preserve">
<style type="text/css">
	.st0{fill:none;}
	.st1{fill:#4D4D4D;}
</style>
<rect class="st0" width="130" height="130"/>
<g>
	<path class="st1" d="M21.5,62.8c1.9,1,4,1.2,6.1,0.6c2-0.6,3.7-2,4.7-3.9c1.3-2.4,0.8-9.6,0.5-14.4C32.7,44,32.6,43,32.6,42
		c-0.8,0.5-1.7,1-2.7,1.6C25.7,46,19.5,49.7,18.2,52C16.1,55.9,17.6,60.7,21.5,62.8z M64.4,59.6c-3.5,2.2-7.7,4.7-12.6,7.5
		c-13.1,7.6-29.4,17.2-33.4,24.5c-6.6,12.4-1.9,27.8,10.4,34.4c6,3.2,12.9,3.9,19.3,1.9c6.5-2,11.8-6.3,15-12.3
		c3.9-7.4,2.8-26.2,1.9-41.4C64.8,68.6,64.5,63.8,64.4,59.6z M99.4,21.8c1.9,1,4,1.2,6.1,0.6c2-0.6,3.7-2,4.7-3.9
		c1.3-2.4,0.8-9.6,0.5-14.4C110.6,3,110.5,2,110.5,1c-0.8,0.5-1.7,1-2.7,1.6C103.6,5,97.4,8.7,96.1,11C94,14.9,95.5,19.7,99.4,21.8z
		 M113.9,48.6c-0.1-2-0.2-3.8-0.3-5.5c-1.5,0.9-3.1,1.8-4.8,2.8c-7.3,4.3-18.4,10.7-20.6,14.9c-3.7,6.8-1.1,15.4,5.8,19
		c3.3,1.8,7.1,2.1,10.7,1.1c3.6-1.1,6.6-3.5,8.3-6.8C115.2,69.9,114.5,57,113.9,48.6z M73.5,12c-1.1,0.7-2.4,1.4-3.7,2.2
		c-5.7,3.3-14.2,8.3-15.9,11.5c-2.8,5.3-0.8,11.8,4.4,14.7c2.5,1.4,5.5,1.7,8.2,0.8c2.8-0.8,5-2.7,6.4-5.3
		c1.7-3.2,1.1-13.1,0.7-19.6C73.7,14.7,73.6,13.3,73.5,12z M94,100.5c-0.8,0.5-1.7,1-2.7,1.6c-4.2,2.4-10.4,6.1-11.7,8.4
		c-2.1,3.9-0.6,8.7,3.3,10.8c1.9,1,4,1.2,6.1,0.6c2-0.6,3.7-2,4.7-3.9c1.3-2.4,0.8-9.6,0.5-14.4C94.1,102.5,94,101.5,94,100.5z"/>
</g>
</svg>
