<?xml version="1.0" encoding="utf-8"?>
<!-- Generator: Adobe Illustrator 19.2.1, SVG Export Plug-In . SVG Version: 6.00 Build 0)  -->
<svg version="1.1" id="Layer_1" xmlns="http://www.w3.org/2000/svg" xmlns:xlink="http://www.w3.org/1999/xlink" x="0px" y="0px"
	 viewBox="0 0 130 130" style="enable-background:new 0 0 130 130;" xml:space="preserve">
<style type="text/css">
	.st0{fill:none;}
	.st1{fill:#4D4D4D;}
</style>
<rect class="st0" width="130" height="130"/>
<g>
	<g>
		<path class="st1" d="M70,34.8c-5.1-5.6-12.6-8.1-19.9-6.8c-8.7,1.6-15.5,8.3-17.4,17c-0.4,1.9,0.8,3.8,2.7,4.2
			c0.3,0.1,0.6,0.1,0.9,0.1c1.6-0.1,2.9-1.2,3.3-2.8c1.2-5.9,5.9-10.5,11.8-11.6c5-0.9,10,0.8,13.5,4.6c1.3,1.4,3.5,1.5,4.9,0.2
			C71.2,38.4,71.3,36.2,70,34.8z"/>
	</g>
	<g>
		<path class="st1" d="M80.9,30c-7.5-10.4-20.3-15.6-32.8-13.3c-15.3,2.8-26.7,16.1-27.2,31.7c-0.1,1.9,1.5,3.6,3.4,3.6
			c0.1,0,0.2,0,0.3,0c1.8-0.1,3.3-1.6,3.3-3.4c0.4-12.3,9.4-22.8,21.4-25c9.9-1.8,20,2.3,25.9,10.5c1.1,1.6,3.3,1.9,4.9,0.8
			C81.6,33.8,82,31.6,80.9,30z"/>
	</g>
	<g>
		<path class="st1" d="M92.6,28C83.4,11.4,64.8,2.4,46.1,5.9C22.7,10.1,7,32,10.4,55.7c0.3,1.8,1.8,3.1,3.6,3c0.1,0,0.2,0,0.3,0
			c1.9-0.3,3.2-2.1,3-4c-2.9-19.9,10.3-38.4,30.1-42c15.7-2.9,31.4,4.6,39.1,18.7c0.9,1.7,3.1,2.3,4.7,1.4
			C92.9,31.9,93.5,29.7,92.6,28z"/>
	</g>
	<g>
		<path class="st1" d="M112.9,76c0.1-0.8,0.1-1.7,0.1-2.5c0-17.3-14-31.3-31.3-31.3c-11.6,0-21.8,6.4-27.2,15.8
			c-4.1-3.3-9.2-5.3-14.9-5.3c-12.9,0-23.4,10.5-23.4,23.4c0,0.1,0,0.2,0,0.2C7.3,80,1,89.1,1,99.8c0,13.9,10.7,25.1,23.8,25.1h80.4
			c13.1,0,23.8-11.2,23.8-25.1C129,88.8,122.3,79.4,112.9,76z"/>
	</g>
</g>
</svg>
