<?xml version="1.0" encoding="utf-8"?>
<!-- Generator: Adobe Illustrator 19.2.1, SVG Export Plug-In . SVG Version: 6.00 Build 0)  -->
<svg version="1.1" id="Layer_1" xmlns="http://www.w3.org/2000/svg" xmlns:xlink="http://www.w3.org/1999/xlink" x="0px" y="0px"
	 viewBox="0 0 130 130" style="enable-background:new 0 0 130 130;" xml:space="preserve">
<style type="text/css">
	.st0{fill:none;}
	.st1{fill:#4D4D4D;}
</style>
<rect class="st0" width="130" height="130"/>
<g>
	<path class="st1" d="M58.5,51.2L52.1,1L42,2.2l6.5,48.1C51.7,50.7,55,51,58.5,51.2z"/>
	<path class="st1" d="M39.2,48.7c2,0.4,4.1,0.8,6.2,1.1l-2.7-19.2L39.2,48.7z"/>
	<polygon class="st1" points="58.3,23.7 61.6,51.3 69,15.7 69.5,7 59.3,6.6 	"/>
	<path class="st1" d="M75.5,4.6l-7.7,31.7l-3.2,15.2c0.5,0,0.9,0,1.4,0c3.1,0,6-0.1,8.9-0.3L85.5,6.9L75.5,4.6z"/>
	<path class="st1" d="M78.6,50.8c3.6-0.3,7-0.8,10.1-1.3l-5.6-18.1L78.6,50.8z"/>
	<path class="st1" d="M87.8,11.8l-3.1,14L91.4,49c3.6-0.7,5.6-1.1,8.7-1.9L87.8,11.8z"/>
	<path class="st1" d="M102.9,35.4l-1.7,5.6l1.8,5.2l0.1,0c2.9-0.8,5.4-1.7,7.6-2.5l9.9-27.3L111,13L102.9,35.4z"/>
	<path class="st1" d="M36.2,48.1L41.3,22l-9-1.9l-5.5,25.5C29.6,46.4,32.8,47.3,36.2,48.1z"/>
	<path class="st1" d="M23.3,44.5l3-13.4l-6-21.5l-9.8,2.7L19,42.9C19.9,43.2,23.3,44.5,23.3,44.5z"/>
	<polygon class="st1" points="101,31.3 103.3,5 93.2,4.1 92.2,14.9 99.5,36.1 	"/>
	<path class="st1" d="M9.4,41.9L23.6,129h82.3l14.2-86.4C117.9,43.7,96.3,54,66,54C35.8,54,11.5,42.9,9.4,41.9z"/>
</g>
</svg>
