<?xml version="1.0" encoding="utf-8"?>
<!-- Generator: Adobe Illustrator 19.2.1, SVG Export Plug-In . SVG Version: 6.00 Build 0)  -->
<svg version="1.1" id="Layer_1" xmlns="http://www.w3.org/2000/svg" xmlns:xlink="http://www.w3.org/1999/xlink" x="0px" y="0px"
	 viewBox="0 0 130 130" style="enable-background:new 0 0 130 130;" xml:space="preserve">
<style type="text/css">
	.st0{fill:none;}
	.st1{fill:#4D4D4D;}
	.st2{fill:#FFFFFF;}
</style>
<rect class="st0" width="130" height="130"/>
<g>
	<path class="st1" d="M20.2,1v103.1c0,7.3,6,13.3,13.3,13.3h63c7.3,0,13.3-6,13.3-13.3V1h6.6v108.1c0,11-9,19.9-19.9,19.9h-63
		c-10.9,0-19.9-9-19.9-19.9V1H20.2z"/>
	<path class="st1" d="M96.5,113.5c5.5,0,10-4.5,10-10V34.2H23.6v69.4c0,5.5,4.5,10,10,10L96.5,113.5L96.5,113.5z"/>
	<path class="st2" d="M67.2,84c0.8,2.9-1,5.9-3.9,6.7l-20.5,5.4c-2.9,0.8-5.9-1-6.7-3.9l-5.4-20.5c-0.8-2.9,1-5.9,3.9-6.7l20.5-5.4
		c2.9-0.8,5.9,1,6.7,3.9L67.2,84z"/>
	<path class="st2" d="M89.2,103.9c-0.6,2.9-3.5,4.8-6.5,4.2l-20.8-4.3c-2.9-0.6-4.8-3.5-4.2-6.5L62,76.6c0.6-2.9,3.5-4.9,6.5-4.2
		l20.8,4.3c2.9,0.6,4.8,3.5,4.2,6.5L89.2,103.9z"/>
	<path class="st1" d="M63.3,90.7c2.9-0.8,4.7-3.8,3.9-6.7l-2.8-10.8c-1.2,0.8-2,2-2.3,3.4l-3.2,15.2L63.3,90.7z"/>
</g>
</svg>
