<?xml version="1.0" encoding="utf-8"?>
<!-- Generator: Adobe Illustrator 19.2.1, SVG Export Plug-In . SVG Version: 6.00 Build 0)  -->
<svg version="1.1" id="Layer_1" xmlns="http://www.w3.org/2000/svg" xmlns:xlink="http://www.w3.org/1999/xlink" x="0px" y="0px"
	 viewBox="0 0 130 130" style="enable-background:new 0 0 130 130;" xml:space="preserve">
<style type="text/css">
	.st0{fill:none;}
	.st1{fill:#4D4D4D;}
</style>
<rect class="st0" width="130" height="130"/>
<g>
	<g id="Shape_2_copy_2_2_">
		<path class="st1" d="M21.5,44.6c0,0-1.7-0.3-2.6-0.2c-0.9,0.1-3.1,0.8-5.5,1.4C11,46.4,7.1,47.9,5,49c-2,1.2-1.6,2.9-1.6,2.9
			l1.3,6.5c0,0,0.9,4.3,2.9,0.5c2-3.8-3.6-2.3-2.5-4.7c2.2-4.9,10.5-8.4,15.9-8.9c0.3,0,0.5-0.3,0.5-0.5L21.5,44.6L21.5,44.6z"/>
	</g>
	<g id="Shape_2_copy_3_2_">
		<path class="st1" d="M125.2,49c-2-1.2-6-2.6-8.4-3.2c-2.4-0.6-4.6-1.3-5.5-1.4c-0.9-0.1-2.6,0.2-2.6,0.2v0.3
			c0,0.3,0.2,0.5,0.5,0.5c5.5,0.5,13.8,3.9,15.9,8.9c1.1,2.4-4.5,0.9-2.5,4.7c2,3.8,2.9-0.5,2.9-0.5l1.3-6.5
			C126.9,51.9,127.3,50.2,125.2,49z"/>
	</g>
	<path class="st1" d="M129,64v-9.6c0-2.3-0.3-4.1-3.2-5.7c-2.2-1.2-6.5-2.6-9.9-3.5c-1.9-0.5-4.5-1.3-6.5-0.6
		c2.3-0.3,4.2,0.3,6.3,0.9c3.6,1,8.7,2.7,9.8,3.9c1.6,1.7,1,2.7-2.2,5.1c-3.2,2.4-9.8,2.8-9.8,2.8s-32.6,0.1-36,0.1
		c-3.4,0-5.1,0.7-7.4,2c-2.2,1.2-3.6,1.7-5.1,1.7c-1.5,0-3-0.5-5.1-1.7c-2.3-1.2-3.9-2-7.4-2c-3.4,0-36-0.1-36-0.1S9.9,57,6.7,54.6
		c-3.2-2.4-3.8-3.4-2.2-5.1c1.1-1.2,6.2-2.8,9.8-3.9c2.2-0.6,4-1.2,6.3-0.9c-2-0.7-4.5,0.1-6.5,0.6c-3.4,0.9-7.7,2.3-9.9,3.5
		C1.3,50.3,1,52.1,1,54.4V64c0,0.6-0.5,5.6,7.4,13.5c7.9,7.9,11.5,8.1,20.9,8.1h19.8c6,0,6.7-0.4,9.3-6.9c1.7-4.1,2.3-5.7,3.7-6.6
		c0.7-0.5,1.8-0.7,2.9-0.7c1.1,0,2.2,0.2,2.9,0.7c1.4,0.9,2,2.4,3.7,6.6c2.7,6.5,3.3,6.9,9.3,6.9h19.8c9.4,0,13-0.2,20.9-8.1
		C129.5,69.6,129,64.6,129,64z M55.2,77.5c-1.6,4-1.7,4.7-6,4.7H29.4c-7.6,0-10.6-0.2-15.2-4.2c-0.6-0.5-0.9-1.2-0.9-2V63.7
		c0-1.5,1.3-2.8,2.8-2.7c1,0.1,2.1,0.1,3.2,0.1c6.8,0,25.1,0.1,33.4,0.1C60.6,61.1,57.9,71.1,55.2,77.5z M116.8,76
		c0,0.8-0.3,1.5-1,2c-4.6,3.9-7.6,4.2-15.2,4.2H80.8c-4.3,0-4.4-0.7-6-4.7c-2.6-6.5-5.4-16.4,2.6-16.4c8.3,0,26.6-0.1,33.4-0.1
		c1.1,0,2.2,0,3.2-0.1c1.5-0.1,2.8,1.1,2.8,2.7V76z"/>
</g>
</svg>
