<?xml version="1.0" encoding="utf-8"?>
<!-- Generator: Adobe Illustrator 19.2.1, SVG Export Plug-In . SVG Version: 6.00 Build 0)  -->
<svg version="1.1" id="Layer_1" xmlns="http://www.w3.org/2000/svg" xmlns:xlink="http://www.w3.org/1999/xlink" x="0px" y="0px"
	 viewBox="0 0 130 130" style="enable-background:new 0 0 130 130;" xml:space="preserve">
<style type="text/css">
	.st0{fill:none;}
	.st1{fill:#4D4D4D;}
	.st2{fill:#FFFFFF;}
</style>
<rect class="st0" width="130" height="130"/>
<g>
	<g>
		<path class="st1" d="M102.6,90.8l-4-5.8l-4.8,3.3l2.3,3.4C73.6,105.9,43.4,100,27.8,78C12.3,56,16.7,25.8,37.3,9.2l2,3.6l4.7-3.4
			l-3.3-5.9c-0.4-0.7-1.1-1.2-1.9-1.4c-0.8-0.2-1.7,0-2.3,0.5C11.1,20.5,5,55.9,23.1,81.3c8.8,12.4,21.7,20.2,35.6,22.9
			c0,2.3,0,6.6,0,6.9c0,1.2-0.8,1.7-5.3,3.4l-2.1,0.8c-2,0.8-4,1.6-5.9,2.6c-0.4,0.2-0.7,0.4-1.2,0.7l-0.8,0.5
			c-1.5,1.1-1.8,2.3-1.8,3.2c0,3.4,4.8,4.6,6.3,5.1c2.1,0.6,4.7,1,7.6,1.3c2.3,0.2,4.7,0.4,7.2,0.4l1.4,0l1.4,0
			c2.5,0,4.9-0.2,7.2-0.4c2.9-0.3,5.5-0.7,7.6-1.3c1.6-0.4,6.3-1.7,6.3-5.1c0-0.8-0.3-2.1-1.6-2.9c-0.1-0.1-0.3-0.2-0.4-0.3l-1.8-1
			c-1.9-1.1-4-1.8-5.9-2.6c-0.7-0.3-1.3-0.5-2-0.8c-3.3-1.2-5.4-2.1-5.4-3.4V111c0-0.4,0-3.5,0-5.8c11.2,0,22.6-3.4,32.4-10.4
			C103.2,93.9,103.5,92.1,102.6,90.8z"/>
	</g>
	<g>
		<path class="st1" d="M70.1,1C44.1,1,22.9,22.1,22.9,48.2s21.1,47.2,47.2,47.2s47.2-21.1,47.2-47.2S96.2,1,70.1,1z"/>
	</g>
	<g>
		<path class="st2" d="M91.8,64.5c-1.5-1.7-4-1.4-6-2.3c-2.1-0.9-2.7-2.3-3.9-4.1c-2.6-3.6-7.3-3.8-11.2-5c-2.1-0.6-3.5,0.7-5.3,1.6
			c-0.7,0.3-1.8,0.7-2.6,0.5c-1.4-0.4-0.8-1.4-0.8-2.5c0-1.4-0.4-1.4-1.6-1.8c-0.9-0.3-2-0.7-1.3-1.9c0.4-0.8,1.6-0.9,0.4-1.9
			c-0.9-0.8-1.6-0.1-2.5,0.5c-1.7,1.1-4.1,1.3-3.8-1.5c0.2-1.8,2.4-4.1,3.9-4.9c1.8-0.9,4.3-0.8,5.7,0.6c0.6,0.6,1.1,1.9,1.9,2.3
			c1.4,0.7,0.9-0.9,0.4-1.7c-0.5-0.8-1.5-1.5-1-2.6c0.3-0.8,1.5-1.2,2.2-1.5c1.2-0.7,1.8-1.2,2.2-2.6c0.2-0.8-0.1-2.1,0.5-2.7
			c0.5-0.5,2.1-0.8,2.8-1.3c0.9-0.6,1.5-1.6,2.3-2.3c1.2-1,1.5,0.1,2.8,0c1.5-0.1,1.2-1.1,0.5-2c-0.1-0.1-0.6-0.1-0.7,0
			c0-0.5,1-1.4,0.6-2c-0.4-0.5-1.9,0.1-2.4,0.1c0.1-1.3,1.6-1.2,2.5-1c1.4,0.3,1.7,0.4,2.9-0.3c0.6-0.3,0.5-0.4,1.3-0.5
			c0.5-0.1,0.9,0.5,1.4-0.1c1-1.2-0.7-1.8-1.6-1.7c0-0.6,0.3-1.5,0-2c-0.4-0.6-1.1-0.4-1.4-1.4c-0.1-0.3,0.1-0.8,0-1.1
			c-0.1-0.3-0.4-0.5-0.4-0.8c-0.2-0.8,0-1.5-0.1-2.3c-2.1-0.7-2,1.1-2.7,2.3c-0.8-1.7,0-4.3-2.5-5.1c-2.6-0.8-2.7,3.7-3,5.3
			c-0.2,1,0.1,1.7-0.7,2.7c-0.2,0.2-0.6,0.4-0.7,0.7c-0.3,0.5-0.1,1-0.4,1.4c-0.2,0.4-0.7,1-1.2,1c-0.9,0-0.7-1.2-1-1.9
			c-0.3-0.8-1.2-2.6-1.9-3c-0.7-0.4-1.3,0-2.1,0c-0.2-1,0.4-2.5,0.6-3.6c0.2-1.4,1-2.6,2.2-3.3c1-0.6,2-1,2.4-2.3
			c0.2-0.6-0.2-2.1-0.7-3.8C57.1,5.2,47.4,9.4,39.9,16.2c0.3,2.2,0.5,4.5,0.6,5c0.1,0.5,0.4,0.8,0.5,1.3c0.1,0.7-0.2,1-0.2,1.6
			c-0.6,3.7-2.6,7.7-0.9,11.3c0.4,0.9,1.1,1.5,1.6,2.3c0.6,0.8,0.7,1.8,1.1,2.8c0.6,1.5,1.2,4.7,3,5.3c0.1-1.2-1-2.1-1.2-3.3
			c-0.2-1-0.5-2.5-0.3-3.5c0,0,0.3,0,0.3,0c0.6,1.7,1.5,3.5,2.4,5.1c0.4,0.8,1.1,1.4,1.5,2.2c0.4,0.8-0.1,1.8,0.4,2.5
			c0.9,1.2,4,1.6,5.3,2c1.7,0.4,3.4,1,5.1,1.6c0.8,0.3,0.6,0,1.1,0.7c0.3,0.4,0.5,1,0.7,1.4c0.4,0.8,0.7,1.6,1.6,1.9
			c0.9,0.3,2.1-0.2,2.9,0c1.2,0.3,1.1,1.3,0.7,2.4c-0.6,1.7-2.4,2.8-2.3,4.7c0.1,2.4,2.7,4.2,3.7,6.3c0.4,0.9,0.4,2,1.1,2.8
			c0.8,0.9,1.6,0.8,1.8,2.1c0.6,3.1-0.5,6.6-0.5,9.7c0,2.2-0.5,5.4-0.6,8.2c2.2,0,4.2-0.2,6.3-0.5c1.2-2.4,3.9-4,5.4-6.7
			c1.2-2.2,1.8-4.5,3.9-6.1c1.4-1.1,3.3-1.8,4.4-3.4c1.2-1.6,0.8-3.8,1.9-5.5C92.1,68.8,93.2,66.2,91.8,64.5z"/>
	</g>
</g>
</svg>
