<?xml version="1.0" encoding="utf-8"?>
<!-- Generator: Adobe Illustrator 19.2.1, SVG Export Plug-In . SVG Version: 6.00 Build 0)  -->
<svg version="1.1" id="Layer_1" xmlns="http://www.w3.org/2000/svg" xmlns:xlink="http://www.w3.org/1999/xlink" x="0px" y="0px"
	 viewBox="0 0 130 130" style="enable-background:new 0 0 130 130;" xml:space="preserve">
<style type="text/css">
	.st0{fill:none;}
	.st1{fill:#4D4D4D;}
</style>
<rect class="st0" width="130" height="130"/>
<g>
	<path class="st1" d="M48.3,112.9c0,8.9,7.2,16.1,16.1,16.1c8.9,0,16.1-7.2,16.1-16.1H48.3z"/>
	<path class="st1" d="M105.3,89.6V51.8c0-19.6-14.3-35.9-33.2-39.3l-14.3,0C39,15.8,24.6,32.1,24.6,51.8v37.8L8,102.9l0,7.6h114
		v-7.6L105.3,89.6z"/>
	<path class="st1" d="M68.2,1h-5.4c-3,0-5.4,2.5-5.4,5.6v3.6l16.1,0V6.6C73.6,3.5,71.2,1,68.2,1z"/>
</g>
</svg>
