<?xml version="1.0" encoding="utf-8"?>
<!-- Generator: Adobe Illustrator 19.2.1, SVG Export Plug-In . SVG Version: 6.00 Build 0)  -->
<svg version="1.1" id="Layer_1" xmlns="http://www.w3.org/2000/svg" xmlns:xlink="http://www.w3.org/1999/xlink" x="0px" y="0px"
	 viewBox="0 0 130 130" style="enable-background:new 0 0 130 130;" xml:space="preserve">
<style type="text/css">
	.st0{fill:none;}
	.st1{fill:#4C4C4C;}
</style>
<rect class="st0" width="130" height="130"/>
<g id="Grooveshark_icon_2_">
	<path class="st1" d="M65,1C29.7,1,1,29.7,1,65s28.7,64,64,64s64-28.7,64-64S100.3,1,65,1z M65,13.1c28.5,0,51.6,22.9,51.8,51.3
		c0,0.2,0,0.3,0,0.6c0,9.1-6,15.2-12.1,15.2c-12.3,0-8.9-14.1-24.4-29.5C59.9,30.3,43.7,31.5,43.7,31.5c6.4,27.1-6.1,48.8-18.3,48.8
		c-9.1,0-12.2-9-12.2-15.2l-0.1,0c0,0,0,0,0,0C13.1,36.3,36.4,13.1,65,13.1z"/>
</g>
</svg>
