<?xml version="1.0" encoding="utf-8"?>
<!-- Generator: Adobe Illustrator 19.2.1, SVG Export Plug-In . SVG Version: 6.00 Build 0)  -->
<svg version="1.1" id="Layer_1" xmlns="http://www.w3.org/2000/svg" xmlns:xlink="http://www.w3.org/1999/xlink" x="0px" y="0px"
	 viewBox="0 0 130 130" style="enable-background:new 0 0 130 130;" xml:space="preserve">
<style type="text/css">
	.st0{fill:none;}
	.st1{fill:#4D4D4D;}
	.st2{fill:#FFFFFF;}
</style>
<rect class="st0" width="130" height="130"/>
<g>
	<rect x="108.2" y="11.3" transform="matrix(0.9119 -0.4105 0.4105 0.9119 4.5365 46.0133)" class="st1" width="2.5" height="2.2"/>
	<path class="st1" d="M107,12.4c-0.4,0.2-0.9,0-1.1-0.5l-0.8-1.8c-0.2-0.5-0.1-1,0.3-1.2l4.1-1.9c0.4-0.2,0.9,0,1.1,0.5l0.8,1.8
		c0.2,0.5,0.1,1-0.3,1.2L107,12.4z"/>
	<rect x="98.9" y="15.7" transform="matrix(0.9122 -0.4097 0.4097 0.9122 1.9117 42.5086)" class="st1" width="2.5" height="2.2"/>
	<path class="st1" d="M97.8,16.7c-0.4,0.2-0.9,0-1.1-0.5l-0.8-1.8c-0.2-0.5-0.1-1,0.3-1.2l4.1-1.9c0.4-0.2,0.9,0,1.1,0.5l0.8,1.8
		c0.2,0.5,0.1,1-0.3,1.2L97.8,16.7z"/>
	<rect x="117.5" y="7" transform="matrix(0.9122 -0.4097 0.4097 0.9122 7.107 49.3346)" class="st1" width="2.5" height="2.2"/>
	<path class="st1" d="M62.4,72.6c-1.5,2.2-2.5,7.5,0,9.8c2.5,2.3,5.6,2.3,7.7,0.2c2.5-2.4,4.7-3.2,6.9-1c1.5,1.5,1.5,4.1-0.7,6.2
		c-2.3,2.2-6.5,3.9-9.5,4.9c-3,1-6.7,2.8-8.6,5c-6,7-0.4,14.5-10.3,23.9c-8.5,8.1-24.8,8.4-36.3-3.4c-12.2-12.5-14-27-4.6-37.3
		c5.7-6.2,12-7.4,15.1-8.5c3.1-1.1,8.5-2.4,13.1-7.4c5.4-5.7,6-15.4,11.9-21c2.5-2.3,5.1-2.1,7.2,0c1.9,1.9,1.8,4.3,0.3,6.4
		c-1,1.4-2,2.2-2.9,5c-1,2.8,0.2,7.4,4.7,8.9C59.6,65.6,62.4,72.6,62.4,72.6z"/>
	<polygon class="st1" points="95.1,27.2 43,76.5 52.8,86.3 101.4,33.8 	"/>
	<path class="st2" d="M45.3,66c-2.4,4.5-7.4,10.2-14.7,12.6c-6,2-7.6,7-4.4,10c3,2.8,8.6,8.1,10,13.6c1.2,4.7,0.4,6.7-1.6,9.4
		c-2.9,3.7-1.8,7.6,1.5,9.4c3.6,2,6.5,0.4,8-1.2c6-6.6,4-13,6.9-19.2c2.3-4.8,4.5-8.3,9.9-10.1c2.7-0.9,3.2-3.6-0.2-4.5
		c-7.6-1.8-9.9-16.1-10.2-19.1C50.1,63.8,47.1,62.7,45.3,66z"/>
	<path class="st1" d="M44.5,108.4c-0.8,0.8-2.1,0.8-2.9,0c-0.8-0.8-0.8-2.1,0-2.9c0.8-0.8,2.1-0.8,2.9,0
		C45.3,106.3,45.3,107.6,44.5,108.4z"/>
	<path class="st1" d="M41.7,118.1c-1.2,1.2-3.1,1.2-4.2,0c-1.2-1.2-1.2-3.1,0-4.3c1.2-1.2,3.1-1.2,4.2,0
		C42.9,115.1,42.9,117,41.7,118.1z"/>
	<path class="st1" d="M95.1,27.2c0,0,1.3-4.3,1.6-5.8c0.3-1.4,0.8-2.3,2.8-3.3c2.3-1.1,20-9.3,22-10.1c3-1.2,5.6,0.5,6.9,3.1
		c1.2,2.5,0.9,5.5-2.5,7.5c-3.2,1.9-5.7,0.9-7.3,2.5c-2.7,2.6-0.7,6.9-6,9.3c-4.9,2.2-6.8-0.6-11.1,3.4L95.1,27.2z"/>
	<path class="st2" d="M122.1,13.4c-0.8,0.8-2.1,0.8-2.9,0c-0.8-0.8-0.8-2.1,0-2.9c0.8-0.8,2.1-0.8,2.9,0
		C122.9,11.3,122.9,12.6,122.1,13.4z"/>
	<path class="st2" d="M112.9,18.1c-0.8,0.8-2.1,0.8-2.9,0c-0.8-0.8-0.8-2.1,0-2.9c0.8-0.8,2.1-0.8,2.9,0
		C113.7,16,113.7,17.3,112.9,18.1z"/>
	<path class="st2" d="M104.2,22c-0.8,0.8-2.1,0.8-2.9,0c-0.8-0.8-0.8-2.1,0-2.9c0.8-0.8,2.1-0.8,2.9,0C105,19.9,105,21.2,104.2,22z"
		/>
	<path class="st2" d="M34.1,106.2c0.4-0.4,0.3-1.2-0.2-1.7l-7.1-10.2c-0.5-0.5-1.3-0.6-1.7-0.2L21,98.3c-0.4,0.4-0.3,1.2,0.2,1.7
		l8.6,8.6c0.5,0.5,1.3,0.6,1.7,0.2L34.1,106.2z"/>
	<path class="st1" d="M116.3,8c-0.4,0.2-0.9,0-1.1-0.5l-0.8-1.8c-0.2-0.5-0.1-1,0.3-1.2l4.1-1.9c0.4-0.2,0.9,0,1.1,0.5l0.8,1.8
		c0.2,0.5,0.1,1-0.3,1.2L116.3,8z"/>
	<path class="st2" d="M96.4,28.6L23.7,99.1l-0.5-0.5l72.7-70.5L96.4,28.6z M97.4,29.6l-71.9,71.3l0.5,0.5l71.9-71.3L97.4,29.6z
		 M98.6,30.9l-70.7,72.5l0.5,0.5l70.7-72.5L98.6,30.9z M100.2,32.4l-69.9,73.3l0.5,0.5l69.9-73.3L100.2,32.4z"/>
	<path class="st1" d="M31.8,107.1c-0.4,0.4-1.2,0.4-1.6,0l-7.7-7.7c-0.4-0.4-0.4-1.1,0-1.6l0,0c0.4-0.4,1.1-0.4,1.6,0l7.7,7.7
		C32.3,105.9,32.3,106.7,31.8,107.1L31.8,107.1z"/>
	<g>
		<path class="st1" d="M52.3,75.3c-0.1-0.3-0.2-0.5-0.2-0.8L31.9,94.5c0.2,0.2,0.3,0.4,0.4,0.6L52.3,75.3z"/>
		<path class="st1" d="M54.5,80.4l-18.9,19.8c0.1,0.3,0.2,0.5,0.3,0.8l19-20C54.7,80.9,54.6,80.6,54.5,80.4z"/>
		<path class="st1" d="M53.4,78.3c-0.1-0.2-0.2-0.5-0.3-0.7L33.9,97.2c0.1,0.2,0.3,0.4,0.4,0.6L53.4,78.3z"/>
		<path class="st1" d="M29.9,92.1c0.2,0.2,0.3,0.3,0.5,0.5l21.1-20.4c-0.1-0.3-0.1-0.6-0.2-0.8L29.9,92.1z"/>
	</g>
</g>
</svg>
