<?xml version="1.0" encoding="utf-8"?>
<!-- Generator: Adobe Illustrator 19.2.1, SVG Export Plug-In . SVG Version: 6.00 Build 0)  -->
<svg version="1.1" id="Layer_1" xmlns="http://www.w3.org/2000/svg" xmlns:xlink="http://www.w3.org/1999/xlink" x="0px" y="0px"
	 viewBox="0 0 130 130" style="enable-background:new 0 0 130 130;" xml:space="preserve">
<style type="text/css">
	.st0{fill:none;}
	.st1{fill:#4D4D4D;}
</style>
<rect class="st0" width="130" height="130"/>
<g>
	<path class="st1" d="M51.9,54.8L51.9,54.8c1.3-1.5-0.7-3.6-2.6-5.5v0L29.5,30c-1.6-1.5-3.7-1.4-5.1,0.2l-6.6,7.2l26.7,24.6
		L51.9,54.8z M116,110.2L116,110.2L95.8,91.5c-1.6-1.5-4.2-1.4-5.6,0.2l-6.9,7.2l25.5,24.1l7-7.2C117.5,114,117.5,111.7,116,110.2z
		 M64.8,94.7C59,90.3,52.3,84.3,46.5,77.5c-4.1-4.8-7.8-9.8-4.3-13.5L16.1,39.4C12.5,44.1,5,66.3,41.2,101.2
		c38.2,36.8,61.8,28,65.8,23.6l-25.5-24C78.1,104.4,73.6,101.4,64.8,94.7z"/>
	<path class="st1" d="M40.6,1.1c-1.4-0.3-2.8,0.6-3.2,2l-4.9,21.7c-0.3,1.4,0.6,2.9,2,3.2c0.6,0.1,1.2,0.1,1.7-0.2
		c0.7-0.3,1.2-1,1.4-1.8l4.9-21.7C43,2.8,42.1,1.4,40.6,1.1z M77.3,27.2c-0.7-1.3-2.3-1.8-3.6-1.1L54.1,36.7
		c-1.3,0.7-1.8,2.3-1.1,3.6c0.7,1.3,2.2,1.7,3.5,1.1l0.1,0l19.6-10.6C77.5,30.1,78,28.5,77.3,27.2z M60.8,11.6
		c-1.2-0.9-2.8-0.6-3.7,0.6l-13,18.1c-0.9,1.2-0.6,2.8,0.6,3.7c0.8,0.6,1.9,0.6,2.7,0.2c0.4-0.2,0.7-0.5,1-0.8l12.9-18.1
		C62.2,14.1,62,12.4,60.8,11.6z"/>
</g>
</svg>
