<?xml version="1.0" encoding="utf-8"?>
<!-- Generator: Adobe Illustrator 19.2.1, SVG Export Plug-In . SVG Version: 6.00 Build 0)  -->
<svg version="1.1" id="Layer_1" xmlns="http://www.w3.org/2000/svg" xmlns:xlink="http://www.w3.org/1999/xlink" x="0px" y="0px"
	 viewBox="0 0 130 130" style="enable-background:new 0 0 130 130;" xml:space="preserve">
<style type="text/css">
	.st0{fill:none;}
	.st1{fill:#4D4D4D;}
</style>
<rect class="st0" width="130" height="130"/>
<g>
	<path class="st1" d="M120.6,49.5c0-0.2,0-0.4,0-0.5c-0.1-0.8-0.1-1.6-0.2-2.3c0,0,0-0.1,0-0.1c0,0,0,0.1,0,0.1
		C117.2,20.9,93.5,1,64.8,1C34,1,9,24,9,52.3c0,3.9,0.2,7.7,0.6,11.4c0-0.3-0.1-0.6-0.1-0.9c0.1,0.6,0.1,1.2,0.2,1.8
		c0.1,0.5,0.1,0.9,0.2,1.4c0.2,1.3,0.4,2.6,0.7,3.8h3.3c-0.5-2.2-0.8-4.6-1-7c-0.1-1.1-0.2-2.2-0.2-3.3c0-0.4-0.1-0.9-0.1-1.3
		c-0.1-1.6-0.1-3.1-0.1-4.7c0-25.8,23.5-45.2,52.4-45.2c0.9,0,1.7,0,2.6,0.1c0.3,0,0.6,0,0.9,0.1c0.6,0,1.1,0.1,1.7,0.1
		c0.3,0,0.7,0.1,1,0.1c0.5,0.1,1,0.1,1.5,0.2c0.4,0,0.7,0.1,1.1,0.2C74.1,8.9,74.6,9,75,9c0.4,0.1,0.7,0.1,1.1,0.2
		c0.5,0.1,0.9,0.2,1.4,0.3c0.4,0.1,0.7,0.2,1.1,0.2c0.4,0.1,0.9,0.2,1.3,0.3c0.4,0.1,0.7,0.2,1.1,0.3c0.4,0.1,0.8,0.2,1.3,0.4
		c0.4,0.1,0.7,0.2,1.1,0.3c0.4,0.1,0.8,0.3,1.2,0.4c0.4,0.1,0.7,0.2,1.1,0.4c0.4,0.1,0.8,0.3,1.2,0.5c0.4,0.1,0.7,0.3,1.1,0.4
		c0.4,0.2,0.8,0.3,1.1,0.5c0.4,0.2,0.7,0.3,1,0.5c0.4,0.2,0.7,0.4,1.1,0.5c0.3,0.2,0.7,0.3,1,0.5c0.4,0.2,0.7,0.4,1.1,0.6
		c0.3,0.2,0.7,0.4,1,0.5c0.3,0.2,0.7,0.4,1,0.6c0.3,0.2,0.6,0.4,1,0.6c0.3,0.2,0.5,0.3,0.7,0.5c0.7,0.5,1.4,1,2.1,1.5
		c0.3,0.2,0.5,0.4,0.8,0.6c0.3,0.3,0.7,0.5,1,0.8c0.3,0.2,0.5,0.4,0.8,0.6c0.3,0.3,0.6,0.6,1,0.8c0.2,0.2,0.5,0.4,0.7,0.7
		c0.3,0.3,0.6,0.6,0.9,0.9c0.2,0.2,0.5,0.4,0.7,0.7c0.3,0.3,0.6,0.6,0.9,0.9c0.2,0.2,0.4,0.5,0.6,0.7c0.3,0.3,0.6,0.6,0.8,1
		c0.2,0.2,0.4,0.5,0.6,0.7c0.3,0.3,0.5,0.7,0.8,1c0.2,0.2,0.4,0.5,0.5,0.7c0.3,0.4,0.5,0.7,0.7,1.1c0.2,0.2,0.3,0.5,0.5,0.7
		c0.2,0.4,0.5,0.7,0.7,1.1c0.1,0.2,0.3,0.5,0.4,0.7c0.2,0.4,0.4,0.8,0.7,1.2c0.1,0.2,0.2,0.5,0.4,0.7c0.2,0.4,0.4,0.8,0.6,1.2
		c0.1,0.2,0.2,0.4,0.3,0.7c0.2,0.5,0.4,0.9,0.6,1.4c0.1,0.2,0.1,0.3,0.2,0.5c0.9,2.4,1.7,4.9,2.2,7.4c0,0.1,0.1,0.3,0.1,0.4
		c0.1,0.5,0.2,1.1,0.2,1.6c0.3,1.9,0.4,3.8,0.4,5.7c0,5.7-0.3,11.2-1.3,16.3h3.6c0.9-5.4,1.2-11.3,1.2-17.4
		C120.7,51.4,120.6,50.4,120.6,49.5z"/>
	<path class="st1" d="M8.7,63.9c-0.3-1.8-0.7-6-0.6-8.1C8.2,54,9,53.7,10,53.5c0.8-0.2,1.8-0.3,2.4-0.3c1.3-0.1,1.5,0.8,1.3,1.6
		c-0.3,2.2-0.5,5.6,0,8.3L8.7,63.9z"/>
	<path class="st1" d="M120.7,63.9c0.3-1.8,0.7-6,0.6-8.1c-0.1-1.8-0.9-2.1-1.9-2.3c-0.8-0.2-1.8-0.3-2.4-0.3
		c-1.3-0.1-1.5,0.8-1.3,1.6c0.3,2.2,0.5,5.6,0,8.3L120.7,63.9z"/>
	<path class="st1" d="M99.2,69.2c-0.8,4.2-6.4,32.7-9.2,47.3c-0.9,4.7,1.9,8.3,6.8,8.3c4.1,0,7.2-0.1,7.2-0.1L114.9,68
		c0,0-3.3-1.2-7.8-3C102.7,63.3,100,65,99.2,69.2z"/>
	<path class="st1" d="M125.5,80.6c-0.7-5.3-2.2-10.1-4.3-14.1c0,0,0,0,0,0c0,0-2.9-0.6-3.8-0.7c-0.9-0.2-2.2-0.1-2.5,1.4
		c-0.3,1.3-11.1,57-11.4,58.4c-0.3,1.5,0.5,2.5,1.9,2.8c1.4,0.3,3.6,0.7,3.6,0.7c0,0,0,0,0,0c3.5-3,6.6-6.9,9.3-11.5
		c2.2-3.8,4-8.1,5.3-12.7c0,0,0,0,0,0c0,0,0-0.1,0-0.1c0-0.1,0.1-0.3,0.1-0.4c0.2-0.8,0.4-1.5,0.6-2.3c0,0-0.1,0.1-0.1,0.1
		c0.2-0.8,0.4-1.6,0.6-2.4C126.1,93,126.3,86.5,125.5,80.6z"/>
	<path class="st1" d="M30.8,69.2c0.8,4.2,6.4,32.7,9.2,47.3c0.9,4.7-1.9,8.3-6.8,8.3c-4.1,0-7.2-0.1-7.2-0.1L15.1,68
		c0,0,3.3-1.2,7.8-3C27.3,63.3,30,65,30.8,69.2z"/>
	<path class="st1" d="M4.5,80.6c0.7-5.3,2.2-10.1,4.3-14.1c0,0,0,0,0,0c0,0,2.9-0.6,3.8-0.7c0.9-0.2,2.3-0.1,2.5,1.4
		c0.3,1.3,11.1,57,11.4,58.4c0.3,1.5-0.5,2.5-1.9,2.8c-1.4,0.3-3.6,0.7-3.6,0.7c0,0,0,0,0,0c-3.5-3-6.6-6.9-9.3-11.5
		c-2.2-3.8-4-8.1-5.3-12.7c0,0,0,0,0,0c0,0,0-0.1,0-0.1c0-0.1-0.1-0.3-0.1-0.4c-0.2-0.8-0.4-1.5-0.6-2.3c0,0,0.1,0.1,0.1,0.1
		c-0.2-0.8-0.4-1.6-0.6-2.4C3.9,93,3.7,86.5,4.5,80.6z"/>
</g>
</svg>
