<?xml version="1.0" encoding="utf-8"?>
<!-- Generator: Adobe Illustrator 19.2.1, SVG Export Plug-In . SVG Version: 6.00 Build 0)  -->
<svg version="1.1" id="Layer_1" xmlns="http://www.w3.org/2000/svg" xmlns:xlink="http://www.w3.org/1999/xlink" x="0px" y="0px"
	 viewBox="0 0 130 130" style="enable-background:new 0 0 130 130;" xml:space="preserve">
<style type="text/css">
	.st0{fill:none;}
	.st1{fill:#4D4D4D;}
</style>
<rect class="st0" width="130" height="130"/>
<g>
	<path class="st1" d="M106.3,102.5c-4.5,4.8-11.9,11.6-20.7,14.1c-0.4,0.1-0.8,0.3-1.1,0.6c-1.3-1.3-3-2.1-5-2.1
		c-3.8,0-6.9,3.1-6.9,6.9c0,3.8,3.1,6.9,6.9,6.9c3.1,0,5.7-2,6.6-4.9c0.2,0,0.4,0.1,0.5,0.1c0.3,0,0.7,0,1.1-0.2
		c12.2-3.5,21.6-13,27.5-19.9C115.4,104.1,103.8,101.8,106.3,102.5z"/>
	<path class="st1" d="M65,1C37.1,1,12.7,24.1,12.7,50.5c0,0.1,7.8,0.3,7.8,0C20.5,26.6,44,8.7,65,8.7c21,0,44.5,17.9,44.5,41.8
		c0,0.3,7.8,0.1,7.8,0C117.3,24.1,92.9,1,65,1z"/>
	<path class="st1" d="M20.4,51.6c0.1-0.3,0.2-0.9,0.2-0.9h-7.7l0.1,0.3c-1.4,0-1.6,0.5-1.6,0.5c-2.2,3.3-4,7.3-5.1,11.8
		c-1.3,5-1.8,10.7-1.4,16.6C5.2,85.7,6.6,91.2,8.6,96c1.8,4.3,4.1,8,6.8,10.9l0,0c0,0,1.9-0.1,3.1-0.2c1.2-0.1,2-0.8,2-2l0.2,0
		c4.2,0.5,7-2.3,6.7-6.5c-1-13-2.9-38.3-3.1-42C24.1,53.4,22.8,51.8,20.4,51.6z M123.9,62.5c-1.1-4.5-2.9-8.5-5.1-11.9l-9.4,0.2
		c0,0-3.4,2-3.6,4.7c-0.3,3.8-2.2,29.1-3.1,42.1c-0.2,3.1,3.8,6.3,3.8,6.3l9.6,0.4c2.3-2.8,3.8-5.2,5.4-9c2-4.8,3.4-10.3,3.8-16.2
		C125.7,73.2,125.1,67.6,123.9,62.5z"/>
	<path class="st1" d="M24.3,56.3c-0.2-2.8-1.5-4.5-3.9-4.7c0.1-0.3,0.2-0.9,0.2-0.9h-2c-6.6,23.3,0,48.8,1.7,55
		c0.1-0.3,0.2-0.5,0.2-0.9l0.2,0c4.2,0.5,7-2.3,6.7-6.5C26.5,85.3,24.6,60,24.3,56.3z"/>
	<path class="st1" d="M105.7,55.5c-0.3,3.8-2.2,29.1-3.1,42.1c-0.2,3.1,3.8,6.3,3.8,6.3s1,0.1,2.4,0.1c2.2-8.2,7.7-32.1,3.8-53.2
		l-3.2,0.1C109.3,50.9,105.9,52.8,105.7,55.5z"/>
</g>
</svg>
