<?xml version="1.0" encoding="utf-8"?>
<!-- Generator: Adobe Illustrator 19.2.1, SVG Export Plug-In . SVG Version: 6.00 Build 0)  -->
<svg version="1.1" id="Layer_1" xmlns="http://www.w3.org/2000/svg" xmlns:xlink="http://www.w3.org/1999/xlink" x="0px" y="0px"
	 viewBox="0 0 130 130" style="enable-background:new 0 0 130 130;" xml:space="preserve">
<style type="text/css">
	.st0{fill:none;}
	.st1{fill:#4D4D4D;}
</style>
<rect class="st0" width="130" height="130"/>
<g>
	<path class="st1" d="M65,33.2L23.2,63.4v49.7c0,6.3,5.2,11.5,11.5,11.5h18.7V94.5h23.3v30.1h18.7c6.3,0,11.5-5.2,11.5-11.5V63.4
		L65,33.2z"/>
	<path class="st1" d="M126.6,49.9l-15.4-11.1c-2.6-1.9-23.7-17.1-26.2-18.9l-15.2-11c-2.6-1.9-4.7-3.4-4.7-3.4L65,5.4h0l-0.1,0.1
		c0,0-2.2,1.6-4.7,3.4l-56.8,41c-2.6,1.9-3.2,5.5-1.3,8l2.2,3c1.2,1.7,3.3,2.5,5.3,2.3l55.5-40l0,0h0v0l55.5,40c2,0.2,4-0.5,5.2-2.3
		l2.2-3C129.8,55.4,129.2,51.7,126.6,49.9z"/>
	<path class="st1" d="M106.6,29.9V11.6c0-3.2-2.6-5.7-5.7-5.7h-5.4c-3.2,0-5.7,2.6-5.7,5.7v6.1c0,3.2-2.1,4.2-4.7,2.4L111.2,39
		C108.7,37.2,106.6,33.1,106.6,29.9z"/>
</g>
</svg>
