<?xml version="1.0" encoding="utf-8"?>
<!-- Generator: Adobe Illustrator 19.2.1, SVG Export Plug-In . SVG Version: 6.00 Build 0)  -->
<svg version="1.1" id="Layer_1" xmlns="http://www.w3.org/2000/svg" xmlns:xlink="http://www.w3.org/1999/xlink" x="0px" y="0px"
	 viewBox="0 0 130 130" style="enable-background:new 0 0 130 130;" xml:space="preserve">
<style type="text/css">
	.st0{fill:none;}
	.st1{fill:#4D4D4D;}
</style>
<rect class="st0" width="130" height="130"/>
<g>
	<g>
		<path class="st1" d="M116,56.3L27,99.5c0,0,0,0,0,0c2.3,4.7,7,7.4,11.9,7.4c1.9,0,3.9-0.4,5.7-1.3L109.9,74
			C116.5,70.8,119.2,62.9,116,56.3C116,56.4,116,56.4,116,56.3z"/>
	</g>
	<g>
		<path class="st1" d="M102.1,30.3c-3.2-6.4-11-9-17.5-5.9L19.3,56c-6.5,3.1-9.2,10.9-6.2,17.4L102.1,30.3z"/>
	</g>
	<g>
		<path class="st1" d="M127.7,34.3c-2.3-4.7-7-7.4-11.9-7.4c-1.9,0-3.9,0.4-5.7,1.3L8.4,77.4C1.9,80.6-0.9,88.4,2.3,95
			c2.3,4.7,7,7.4,11.9,7.4c1.9,0,3.9-0.4,5.7-1.3l101.6-49.2C128.1,48.7,130.9,40.8,127.7,34.3z M107.6,52c-2.3,1.1-4.2-0.8-6-2.5
			c-1-1-2.5-2.3-3.1-2c-1.3,0.6-1.9,1-2.6,1.5c-0.7,0.5-1.4,1-2.9,1.7c-0.6,0.3-0.5,2.2-0.5,3.6c0.1,2.4,0.3,5.1-2,6.1
			c-2.3,1.1-4.3-1-6.1-2.7c-1-1-2.6-2.5-3.2-2.2c-0.7,0.3-0.8,1.3-0.8,2.9c-0.1,1.9-0.2,4.2-2.4,5.2c-1.6,0.7-2.5,0.9-3.3,1.1
			c-0.7,0.2-1.4,0.3-2.8,0.9c-2.2,1-4.2-0.8-5.9-2.2c-1-0.9-2.4-2.1-3-1.8c-0.7,0.3-0.6,1.9-0.6,3.3c0,2.1,0.1,4.7-2.1,5.7
			c-2.2,1-4.1-0.6-5.7-1.9c-1.3-1.1-2.3-1.8-2.9-1.6c-0.6,0.3-0.1,3.4,0,4.6c0.4,3.1,0.9,6.3-1.5,7.4c-1.6,0.8-2.6,0.9-3.4,1
			c-0.8,0.1-1.4,0.2-2.7,0.8c-2.3,1.1-4.3-1-6.2-2.8c-1-1-2.6-2.6-3.2-2.3c-0.6,0.3-0.5,2.3-0.4,3.7c0.2,2.5,0.3,5.2-1.9,6.3
			c-0.2,0.1-0.4,0.1-0.6,0.1c-0.5,0-1-0.3-1.2-0.8c-0.3-0.7,0-1.4,0.6-1.8c0.6-0.3,0.5-2.3,0.4-3.7c-0.2-2.5-0.3-5.2,1.9-6.3
			c2.3-1.1,4.3,1,6.2,2.8c1,1,2.6,2.5,3.2,2.3c1.6-0.7,2.6-0.9,3.4-1c0.8-0.1,1.4-0.2,2.7-0.8c0.6-0.3,0.1-3.4,0-4.6
			c-0.4-3.1-0.9-6.3,1.5-7.4c2.2-1,4.1,0.6,5.7,1.9c1.3,1.1,2.3,1.9,2.9,1.6c0.7-0.3,0.6-1.9,0.6-3.3c0-2.1-0.1-4.7,2.1-5.7
			c2.2-1,4.2,0.8,5.9,2.2c1,0.9,2.3,2.1,3,1.8c1.6-0.7,2.5-0.9,3.3-1.1c0.7-0.2,1.4-0.3,2.8-0.9c0.7-0.3,0.8-1.3,0.8-2.9
			c0.1-1.9,0.2-4.2,2.4-5.2c2.3-1,4.3,1,6.1,2.7c1,1,2.6,2.5,3.2,2.2c0.6-0.3,0.5-2.2,0.5-3.6c-0.1-2.4-0.3-5.1,2-6.1
			c1.3-0.6,1.9-1,2.6-1.5c0.7-0.5,1.4-1,2.9-1.7c2.2-1,4.2,0.8,6,2.5c1,1,2.5,2.3,3.1,2c0.7-0.3,1.4,0,1.8,0.6
			C108.5,51,108.2,51.7,107.6,52z"/>
	</g>
</g>
</svg>
