<?xml version="1.0" encoding="utf-8"?>
<!-- Generator: Adobe Illustrator 19.2.1, SVG Export Plug-In . SVG Version: 6.00 Build 0)  -->
<svg version="1.1" id="Layer_1" xmlns="http://www.w3.org/2000/svg" xmlns:xlink="http://www.w3.org/1999/xlink" x="0px" y="0px"
	 viewBox="0 0 130 130" style="enable-background:new 0 0 130 130;" xml:space="preserve">
<style type="text/css">
	.st0{fill:none;}
	.st1{fill:#4D4D4D;}
</style>
<rect class="st0" width="130" height="130"/>
<g>
	<path class="st1" d="M84.4,65H44.9h-3.2l0.9,3.1l16.2,56.5c0.6,2.1,2.2,3.6,4.2,4.2c0.6,0.2,1.1,0.2,1.7,0.2c2.7,0,5.1-1.8,5.9-4.4
		L86.7,68l0.9-3.1C87.6,65,84.4,65,84.4,65z"/>
	<g>
		<path class="st1" d="M94,39.1h4.7h0.7v0.5c0-0.3,0-0.6,0-1c0-10.2-8.3-18.6-18.6-18.6c-10.2,0-18.6,8.3-18.6,18.6
			c0,0.1,0,0.3,0,0.4L94,39.1L94,39.1z"/>
		<g>
			<path class="st1" d="M65,28.4c3.4-5.2,9.2-8.6,15.9-8.6c0.7,0,1.3,0,2,0.1c0-0.2,0-0.4,0-0.6C82.9,9.2,74.7,1,64.7,1
				C54.6,1,46.4,9.2,46.4,19.2c0,0.3,0,0.5,0,0.7c0.9-0.1,1.8-0.2,2.7-0.2C55.8,19.8,61.6,23.2,65,28.4z"/>
		</g>
	</g>
	<g>
		<path class="st1" d="M36.3,64.4c-2.8,0-5.1-2.3-5.1-5.1V39.5H99v19.8c0,2.8-2.3,5.1-5.1,5.1H36.3z"/>
		<g>
			<path class="st1" d="M30.9,39.9v-0.7h0.7h4.7h31.4c0-0.1,0-0.3,0-0.4c0-10.2-8.3-18.6-18.6-18.6c-10.2,0-18.6,8.3-18.6,18.6
				c0,1.1,0.1,2.1,0.3,3.2C30.9,41.8,30.9,39.9,30.9,39.9z"/>
		</g>
	</g>
</g>
</svg>
