<?xml version="1.0" encoding="utf-8"?>
<!-- Generator: Adobe Illustrator 19.2.1, SVG Export Plug-In . SVG Version: 6.00 Build 0)  -->
<svg version="1.1" id="Layer_1" xmlns="http://www.w3.org/2000/svg" xmlns:xlink="http://www.w3.org/1999/xlink" x="0px" y="0px"
	 viewBox="0 0 130 130" style="enable-background:new 0 0 130 130;" xml:space="preserve">
<style type="text/css">
	.st0{fill:none;}
	.st1{fill:#4D4D4D;}
</style>
<rect class="st0" width="130" height="130"/>
<g>
	<g>
		<g>
			<path class="st1" d="M65,129c-4.2,0-7.5-3.4-7.5-7.5V87.3c0-4.2,3.4-7.5,7.5-7.5c4.1,0,7.5,3.4,7.5,7.5v34.2
				C72.5,125.6,69.1,129,65,129z"/>
		</g>
	</g>
	<path class="st1" d="M65,1C46.2,1,30.8,17.8,30.8,38.3v12.6v11.5v28.2c0,5.9,4.8,10.6,10.6,10.6h47.2c5.9,0,10.6-4.8,10.6-10.6
		V62.3V50.8V38.3C99.2,17.8,83.8,1,65,1z M58.3,79.1c0,3.1-2.5,5.6-5.6,5.6c-3.1,0-5.6-2.5-5.6-5.6V35.9c0-3.1,2.5-5.6,5.6-5.6
		c3.1,0,5.6,2.5,5.6,5.6C58.3,35.9,58.3,79.1,58.3,79.1z M82.9,79.1c0,3.1-2.5,5.6-5.6,5.6s-5.6-2.5-5.6-5.6V35.9
		c0-3.1,2.5-5.6,5.6-5.6s5.6,2.5,5.6,5.6V79.1z"/>
</g>
</svg>
