<?xml version="1.0" encoding="utf-8"?>
<!-- Generator: Adobe Illustrator 19.2.1, SVG Export Plug-In . SVG Version: 6.00 Build 0)  -->
<svg version="1.1" id="Layer_1" xmlns="http://www.w3.org/2000/svg" xmlns:xlink="http://www.w3.org/1999/xlink" x="0px" y="0px"
	 viewBox="0 0 130 130" style="enable-background:new 0 0 130 130;" xml:space="preserve">
<style type="text/css">
	.st0{fill:none;}
	.st1{fill:#4D4D4D;}
</style>
<rect class="st0" width="130" height="130"/>
<path class="st1" d="M124.8,19.3H5.2c-2.3,0-4.2,1.9-4.2,4.2v83.1c0,2.3,1.9,4.2,4.2,4.2h119.6c2.3,0,4.2-1.9,4.2-4.2V23.4
	C129,21.1,127.1,19.3,124.8,19.3z M33.8,38.9c6.5,0,11.8,5.3,11.8,11.8c0,6.5-5.3,11.8-11.8,11.8c-6.5,0-11.8-5.3-11.8-11.8
	C22,44.2,27.3,38.9,33.8,38.9z M49.1,91.1H18.7c-1.7,0-2.8-1.4-2.4-3.1c0,0,0.1-0.4,0.2-1.1c1.1-4.5,3.6-13.6,5.2-15.9
	c3.1-4.4,8.4-4.2,8.4-4.2h5.7c0,0,7.2-0.2,9.7,4.4c1.9,2.4,4.7,12.1,5.7,16.2l0.1,0.6C51.9,89.8,50.8,91.1,49.1,91.1z M112.3,82
	c0,0.7-0.6,1.3-1.3,1.3H74.2c-0.7,0-1.3-0.6-1.3-1.3V80c0-0.7,0.6-1.3,1.3-1.3H111c0.7,0,1.3,0.6,1.3,1.3V82z M112.3,66
	c0,0.7-0.6,1.3-1.3,1.3H74.2c-0.7,0-1.3-0.6-1.3-1.3V64c0-0.7,0.6-1.3,1.3-1.3H111c0.7,0,1.3,0.6,1.3,1.3V66z M112.3,50
	c0,0.7-0.6,1.3-1.3,1.3H74.2c-0.7,0-1.3-0.6-1.3-1.3V48c0-0.7,0.6-1.3,1.3-1.3H111c0.7,0,1.3,0.6,1.3,1.3V50z"/>
</svg>
