<?xml version="1.0" encoding="utf-8"?>
<!-- Generator: Adobe Illustrator 19.2.1, SVG Export Plug-In . SVG Version: 6.00 Build 0)  -->
<svg version="1.1" id="Layer_1" xmlns="http://www.w3.org/2000/svg" xmlns:xlink="http://www.w3.org/1999/xlink" x="0px" y="0px"
	 viewBox="0 0 130 130" style="enable-background:new 0 0 130 130;" xml:space="preserve">
<style type="text/css">
	.st0{fill:none;}
	.st1{fill:#4D4D4D;}
</style>
<rect class="st0" width="130" height="130"/>
<g>
	<path class="st1" d="M125.9,65.8l0.2,0c0-0.8-0.2-1.6-0.6-2.3L106,30.1c-0.8-1.3-2.1-2.1-3.6-2.1H76.9v8.8H100l16.9,29H88.2
		c-2.2,0-3.7,2.3-4.3,4.6l-2,8.1c-0.6,2.3-2.8,4.1-5,4.1H53.2c-2.2,0-4.5-1.8-5-4.1l-2-8.1c-0.6-2.3-2.1-4.6-4.3-4.6H13.1l17.1-29
		h7.3h11.8h3.8V28h-3.8H37.5h-9.7c-1.5,0-2.8,0.8-3.6,2.1L4.6,63.5c-0.4,0.7-0.6,1.5-0.6,2.3l0.2,0H3.9l0,58.7
		c0,2.5,1.9,4.5,4.2,4.5h113.7c2.3,0,4.2-2,4.2-4.5l0-58.7H125.9z"/>
	<path class="st1" d="M93.8,41c-2.7-2.7-9.5-2.2-12.2,0.5L70.3,52.9V6.7c0-3.7-1.8-5.7-5.7-5.7c-3.8,0-5.7,1.9-5.7,5.7v46.2L48,41
		c-2.7-2.7-7.1-2.7-9.8,0c-2.7,2.7-2.7,7.1,0,9.7l21.9,21.6c1.2,1.9,3.4,3.2,5.8,3.2c2.4,0,4.5-1.2,5.8-3.1l22-21.7
		C96.5,48.1,96.5,43.7,93.8,41z"/>
</g>
</svg>
