<?xml version="1.0" encoding="utf-8"?>
<!-- Generator: Adobe Illustrator 19.2.1, SVG Export Plug-In . SVG Version: 6.00 Build 0)  -->
<svg version="1.1" id="Layer_1" xmlns="http://www.w3.org/2000/svg" xmlns:xlink="http://www.w3.org/1999/xlink" x="0px" y="0px"
	 viewBox="0 0 130 130" style="enable-background:new 0 0 130 130;" xml:space="preserve">
<style type="text/css">
	.st0{fill:none;}
	.st1{fill:#4D4D4D;}
</style>
<rect class="st0" width="130" height="130"/>
<g>
	<path class="st1" d="M122.3,63.7c-3.7,0-6.7,3-6.7,6.7v5.5H14.2v-5.5c0-3.7-2.8-6.7-6.5-6.7S1,66.7,1,70.3v47.4
		c0,3.7,3,6.7,6.7,6.7h114.5c3.7,0,6.7-3,6.7-6.7V70.3C129,66.7,126,63.7,122.3,63.7z"/>
	<path class="st1" d="M86.9,37.7c-2.1-2.1-5.6-2.1-7.7,0l-9.7,8V10.9c0-2.9-1.5-5.3-4.5-5.3c-3,0-6.2,2.4-6.2,5.3v34.7l-8-8
		c-2.1-2.1-5.6-2.1-7.7,0c-2.1,2.1-2.1,5.6,0,7.7l17.3,17c1,1.5,2.7,2.5,4.6,2.5c1.9,0,3.6-1,4.5-2.4l17.4-17.1
		C89,43.2,89.1,39.8,86.9,37.7z"/>
</g>
</svg>
