<?xml version="1.0" encoding="utf-8"?>
<!-- Generator: Adobe Illustrator 19.2.1, SVG Export Plug-In . SVG Version: 6.00 Build 0)  -->
<svg version="1.1" id="Layer_1" xmlns="http://www.w3.org/2000/svg" xmlns:xlink="http://www.w3.org/1999/xlink" x="0px" y="0px"
	 viewBox="0 0 130 130" style="enable-background:new 0 0 130 130;" xml:space="preserve">
<style type="text/css">
	.st0{fill:none;}
	.st1{fill:#4D4D4D;}
</style>
<rect class="st0" width="130" height="130"/>
<g>
	<path class="st1" d="M115.7,1H4.7C2.6,1,1,2.6,1,4.7v111c0,2,1.6,3.7,3.7,3.7h13.9V112H8.3V8.3H112v10.2h7.3V4.7
		C119.3,2.6,117.7,1,115.7,1z"/>
	<path class="st1" d="M17.9,17.9V129H129V17.9H17.9z M97.6,92.8c0,2.7-2.2,4.9-4.9,4.9H65.3c-2.7,0-4.9-2.2-4.9-4.9
		c0-2.7,2.2-4.9,4.9-4.9H81L50.9,57.8c-1.9-1.9-1.9-5,0-6.9c1.9-1.9,5-1.9,6.9,0L88,81.1l0-15.8c0-2.7,2.2-4.8,4.9-4.8h0
		c2.7,0,4.9,2.2,4.9,4.9L97.6,92.8z"/>
</g>
</svg>
