<?xml version="1.0" encoding="utf-8"?>
<!-- Generator: Adobe Illustrator 19.2.1, SVG Export Plug-In . SVG Version: 6.00 Build 0)  -->
<svg version="1.1" id="Layer_1" xmlns="http://www.w3.org/2000/svg" xmlns:xlink="http://www.w3.org/1999/xlink" x="0px" y="0px"
	 viewBox="0 0 130 130" style="enable-background:new 0 0 130 130;" xml:space="preserve">
<style type="text/css">
	.st0{fill:none;}
	.st1{fill:#4D4D4D;}
</style>
<rect class="st0" width="130" height="130"/>
<g>
	<path class="st1" d="M112.7,26.1H83.7c-3.5,0-6.3,2.8-6.3,6.3s2.8,6.3,6.3,6.3h22.8v77.6H23.6V38.8h22.6c3.5,0,6.3-2.8,6.3-6.3
		s-2.8-6.3-6.3-6.3h-29c-3.5,0-6.3,2.8-6.3,6.3v90.2c0,3.5,2.8,6.3,6.3,6.3h95.5c3.5,0,6.3-2.8,6.3-6.3V32.4
		C119.1,29,116.2,26.1,112.7,26.1z"/>
	<path class="st1" d="M85.9,71.8c-1.6-1.7-4.3-1.7-6,0L69.2,82.4V15.8C69.2,7.7,62.6,1,54.5,1H44c-2.3,0-4.2,1.9-4.2,4.2
		c0,2.3,1.9,4.2,4.2,4.2h10.5c3.5,0,6.3,2.9,6.3,6.4v66.6L50,71.8c-1.6-1.6-4.3-1.6-6,0c-1.6,1.6-1.6,4.3,0,5.9l17,16.8
		c0.6,1.5,2.1,2.6,3.9,2.6c1.8,0,3.3-1.1,3.9-2.7l16.9-16.8C87.5,76.1,87.5,73.5,85.9,71.8z"/>
</g>
</svg>
