<?xml version="1.0" encoding="utf-8"?>
<!-- Generator: Adobe Illustrator 19.2.1, SVG Export Plug-In . SVG Version: 6.00 Build 0)  -->
<svg version="1.1" id="Layer_1" xmlns="http://www.w3.org/2000/svg" xmlns:xlink="http://www.w3.org/1999/xlink" x="0px" y="0px"
	 viewBox="0 0 130 130" style="enable-background:new 0 0 130 130;" xml:space="preserve">
<style type="text/css">
	.st0{fill:none;}
	.st1{fill:#4D4D4D;}
</style>
<rect class="st0" width="130" height="130"/>
<path class="st1" d="M71.2,44C60.5,36.7,51.6,46.8,41,64.5c0,0,17.5-15.7,15.6-7.1c-1.9,8.5-19.4,50.9-20.3,56.1
	c-1.5,8.9,7.7,29.8,37.4,0.3c0,0-5.8,1.8-12.1,2.4c-6.3,0.6-3.4-10.3,3.8-25.9C72.6,74.5,81.9,51.3,71.2,44z M93.7,15.4
	C92.8,6.6,85,0.2,76.2,1.1C67.4,2,60.9,9.8,61.8,18.6c0.9,8.8,8.7,15.2,17.5,14.4C88.2,32.1,94.6,24.2,93.7,15.4z"/>
</svg>
