<?xml version="1.0" encoding="utf-8"?>
<!-- Generator: Adobe Illustrator 19.2.1, SVG Export Plug-In . SVG Version: 6.00 Build 0)  -->
<svg version="1.1" id="Layer_1" xmlns="http://www.w3.org/2000/svg" xmlns:xlink="http://www.w3.org/1999/xlink" x="0px" y="0px"
	 viewBox="0 0 130 130" style="enable-background:new 0 0 130 130;" xml:space="preserve">
<style type="text/css">
	.st0{fill:none;}
	.st1{fill:#4C4C4C;}
</style>
<rect class="st0" width="130" height="130"/>
<g id="Instagram_icon_2_">
	<path class="st1" d="M112.6,1H17.4C8.4,1,1,8.4,1,17.4v95.2c0,9,7.4,16.4,16.4,16.4h95.1c9,0,16.4-7.4,16.4-16.4V17.4
		C129,8.4,121.6,1,112.6,1z M92.4,21.1c0-2.7,2.2-4.9,4.9-4.9h11.6c2.7,0,4.9,2.2,4.9,4.9v11.6c0,2.7-2.2,4.9-4.9,4.9H97.3
		c-2.7,0-4.9-2.2-4.9-4.9L92.4,21.1L92.4,21.1z M65,37.6c15.1,0,27.4,12.3,27.4,27.4c0,15.1-12.3,27.4-27.4,27.4S37.6,80.1,37.6,65
		C37.6,49.8,49.9,37.6,65,37.6z M116.9,111.7c0,2.8-2.3,5.1-5.1,5.1H18.3c-2.8,0-5.1-2.3-5.1-5.1V55.8h13.2c-0.7,2.9-1.1,6-1.1,9.1
		c0,21.9,17.8,39.7,39.7,39.7c21.9,0,39.7-17.8,39.7-39.7c0-3.1-0.4-6.2-1.1-9.1h13.3V111.7z"/>
</g>
</svg>
