<?xml version="1.0" encoding="utf-8"?>
<!-- Generator: Adobe Illustrator 19.2.1, SVG Export Plug-In . SVG Version: 6.00 Build 0)  -->
<svg version="1.1" id="Layer_1" xmlns="http://www.w3.org/2000/svg" xmlns:xlink="http://www.w3.org/1999/xlink" x="0px" y="0px"
	 viewBox="0 0 130 130" style="enable-background:new 0 0 130 130;" xml:space="preserve">
<style type="text/css">
	.st0{fill:none;}
	.st1{fill:#4D4D4D;}
</style>
<rect class="st0" width="130" height="130"/>
<g>
	<path class="st1" d="M101.4,70l-2,1.5c-0.2,9-2.3,24.9-14.8,44.5l3.3,2.2C95,106,101.7,89.1,101.4,70z"/>
	<path class="st1" d="M104.4,62.4C104.4,62.4,104.4,62.4,104.4,62.4c7.4-3.9,18.6-7,21.1,2.7c2.3-5.7,0.2-10.8-3.6-13.3
		c-4.5-12.1-17.2-11.2-20.8-0.5c1.2-11.9-6.1-21.9-13.3-15.2c2,1,4.2,3.5,6.1,6.8c-6.9-5.1-16.4-2.3-19.2,5.9
		c10.8-2.8,16.6,3.6,20.5,9.6C78.1,44.9,68,61.9,70.1,70.1c5.2-6.7,12.5-8.2,18.7-8.1c-5.5,1.8-9.7,8-4.6,22.8
		c2.3-4.1,6.1-14.8,11.9-18.7c0.1,0.5,0.4,1,0.8,1.3c0.1,0.1,0.2,0.1,0.2,0.2c-0.6,1-0.4,2.3,0.5,3.1c0.5,0.5,1.2,0.8,1.9,0.8
		c1.4-0.2,1.6-1,2-1.5c0,0,0.1-0.1,0.1-0.2c0.8,0.1,1.7-0.2,2.3-0.8c0.1-0.1,0.2-0.2,0.2-0.3c7.4,8.9,6.2,17,2.1,23.6
		c13.5-8.3,11-18.3,4.9-24.2c6.6,3.6,12.8,9.7,9.9,18.2C133.5,76.1,124.6,57.4,104.4,62.4z M103.5,60.4c-0.1-0.1-0.1-0.1-0.2-0.2
		c-0.1-0.1-0.3-0.2-0.4-0.3c2.1-4.4,7.5-15.9,15.8-9.5C114,49.4,108,51.9,103.5,60.4z"/>
	<path class="st1" d="M45.2,47.9c0.6,1.9,1.5,3.3,1.8,4.1c0.9,1.9,2.7,4.8,3.9,13.5c1.3,8.7,7.2,12,9.9,12.7c0.5-1.7,1-7.5-1.7-19.1
		c-1.6-6.7-4.4-11.5-7.3-15c0,0,0,0,0,0c0.8,0.6,1.6,1.2,2.4,1.6c1.2-3.2,0.8-6,0.1-8.6c1.8,3.2,1,7.2,0.7,9
		c0.5,0.2,0.9,0.4,1.3,0.5c0.1,0,0.3,0.1,0.4,0.1c0.3-1,0.8-2.8,1-3.8c0.5,2.3,0,3.6-0.1,4.2c1.1,0.5,2.6,1.2,3.8,2.1
		c0.8-1.8,1.3-5.1,1.5-7.1c0.5,2.5-0.3,5.7-0.9,7.5c1.2,1,2.4,2.2,3.4,3.5c2.4,3.4,3.5,4.6,5.9,5.8c3.7-3.3,5-11.9-3.9-17.9
		c-5-3.4-9.5-4.7-13.1-5c-0.2-1.1-0.5-2.1-1-3.1c4.7-1.6,10.1-1.1,10.5,1.8c0.7,4.8,8.2,8.9,9.8,6.3c7.5-15.9-0.6-23.4-9.9-20.5
		c3.9-2.5,7.5-6.2,8.9-9.8C58,8,50.6,20.2,47,29.6c-0.2,0-0.3-0.1-0.5-0.1c0.7-3,1-7.2-0.2-12.9C43.9,4.9,38.9,0.6,29.1,1
		c1.7,4,4.2,9.4,5.5,13.5c0.4,1.3,1.2,3.5,2.1,6c-1.6-0.3-3.2-0.2-4.8,0.4c-1.4-0.9-2.8-1.6-4.4-2.2c-9.2-3.5-13.7-2.8-14.9-2.2
		c0.8,3.4,3.8,11,10.6,12.6c0.6,0.1,1.1,0.3,1.7,0.4c-0.1,0.3-0.2,0.7-0.2,1.1c0.5,0,1.2-0.3,1.9-0.5c4.3,1.5,6.2,3.1,7.4,4
		c0.4,0.3,1.1,0.9,1.9,1.5c-1.5-0.6-3.1-1.2-4.9-1.8c-4.5-1.3-11.6-3-18.3,4.4c-6.7,7.4,1.2,15,3.2,15.9C15.3,48,21.3,43.4,29.3,43
		c0.4,0,0.9-0.1,1.3-0.1c-2.4,1.7-4.4,3.9-5.5,6.6c-2.2,5.9-2.4,13.2,5.5,19.3c2.5-2.8,3-4.5,3.9-11.8c0.5-3.6,0.7-5.7,6.6-10.2
		c0.3-0.3,0.7-0.5,0.9-0.8L45.2,47.9z"/>
	<path class="st1" d="M43.9,52.4c0.3-1.5,0.8-3,1.3-4.5c-0.5-2.5-3.1-2-3.1-2c0,2.3-0.1,4.6-0.6,6.5c-2.2,8.6-5.7,21-8.5,33.9
		c-2,9.4-1.9,23.5-1.6,33.7l6.2-1.4c-1.6-19.7-2.4-27.9,0.4-39.8C39.2,73.6,41.9,61.5,43.9,52.4z"/>
	<path class="st1" d="M128.6,129c-15.8-11.7-38.4-19.1-63.6-19.1S17.1,117.3,1.4,129H128.6z"/>
</g>
</svg>
