<?xml version="1.0" encoding="utf-8"?>
<!-- Generator: Adobe Illustrator 19.2.1, SVG Export Plug-In . SVG Version: 6.00 Build 0)  -->
<svg version="1.1" id="Layer_1" xmlns="http://www.w3.org/2000/svg" xmlns:xlink="http://www.w3.org/1999/xlink" x="0px" y="0px"
	 viewBox="0 0 130 130" style="enable-background:new 0 0 130 130;" xml:space="preserve">
<style type="text/css">
	.st0{fill:none;}
	.st1{fill:#4D4D4D;}
</style>
<rect class="st0" width="130" height="130"/>
<path class="st1" d="M89.8,11.3c-13.7-13.7-35.9-13.7-49.6,0c-13.7,13.6-13.7,35.9,0,49.6c1.4,1.4,2.9,2.7,4.7,3.9
	c0.5,0.3,1,0.6,1.4,0.9c3.8,2.9,6,7.3,6,12.1v38.6c0,7,5.7,12.7,12.7,12.7c3.2,0,6.1-1.1,8.5-3.2l0.6-0.5c2.4-2.4,3.7-5.6,3.7-8.9
	v-0.7l2.1-2.7c0.2-0.3,0.4-1.1,0.4-1.8v-1.7c0-0.8-0.2-1.6-0.4-1.8l-2.1-2.7v-1.3l4.1-2.9c0.2-0.2,0.4-1.1,0.4-1.8v-1.7
	c0-0.7-0.2-1.6-0.4-1.8l-4.1-2.9v-1l2.4-2.7c0.2-0.3,0.4-1.1,0.4-1.8v-1.7c0-0.7-0.2-1.6-0.4-1.8l-2.4-2.7v-2.9
	c0-4.8,2.2-9.2,6-12.1c0.5-0.3,0.9-0.6,1.6-1.1c1.6-1.1,3.1-2.4,4.5-3.8C103.4,47.2,103.4,24.9,89.8,11.3z M73.5,32.2
	c-2.3,2.3-5.3,3.5-8.5,3.5c-3.2,0-6.2-1.3-8.4-3.5c-4.7-4.7-4.7-12.2,0-16.9c4.7-4.7,12.3-4.7,16.9,0C78.1,20,78.1,27.6,73.5,32.2z"
	/>
</svg>
