<?xml version="1.0" encoding="utf-8"?>
<!-- Generator: Adobe Illustrator 19.2.1, SVG Export Plug-In . SVG Version: 6.00 Build 0)  -->
<svg version="1.1" id="Layer_1" xmlns="http://www.w3.org/2000/svg" xmlns:xlink="http://www.w3.org/1999/xlink" x="0px" y="0px"
	 viewBox="0 0 130 130" style="enable-background:new 0 0 130 130;" xml:space="preserve">
<style type="text/css">
	.st0{fill:none;}
	.st1{fill:#4D4D4D;}
</style>
<rect class="st0" width="130" height="130"/>
<g>
	<path class="st1" d="M67.8,38.1c-4.6-13.4-19.2-20.5-32.6-15.9c-13.3,4.6-20.5,19.2-15.9,32.6c0.5,1.4,1,2.7,1.8,4.1
		c0.2,0.3,0.5,0.7,0.6,1.1c1.6,3.1,1.6,6.7,0.1,9.9L1.9,111.1c-2.2,4.6-0.3,10.1,4.3,12.4c0.2,0.1,0.5,0.2,0.7,0.3l0,0
		c0.2,0.1,0.3,0.1,0.5,0.1c0.2,0.1,0.5,0.2,0.7,0.2c0.3,0.1,0.6,0.1,0.9,0.2c0.2,0,0.5,0.1,0.7,0.1c0.3,0,0.7,0,1,0
		c0.2,0,0.4,0,0.6,0c0.5-0.1,1.1-0.1,1.6-0.3l0.5-0.2c2.3-0.8,4.2-2.5,5.3-4.7l0-0.1l0.1,0l0,0l2.7-1.3c0.2-0.1,0.6-0.6,0.8-1.1
		l0.6-1.1c0.2-0.5,0.4-1.1,0.3-1.3l-0.6-2.9l-0.1,0.1l0-0.1l0.2-0.4l3.9-0.7c0.2-0.1,0.6-0.6,0.9-1.1l0.6-1.1
		c0.2-0.5,0.4-1.1,0.3-1.3l-1.9-3.5l0.1-0.2l2.8-1.2c0.2-0.1,0.6-0.6,0.8-1.1l0.6-1.2c0.2-0.5,0.4-1.1,0.3-1.3l-0.8-3l0.8-1.7
		c1.5-3.1,12-21.3,15.4-22c0.4-0.1,0.8-0.1,1.4-0.2c1.4-0.2,2.8-0.6,4.2-1c1.2-0.4,2.3-0.9,3.4-1.5c0.2-0.1,0.4-0.2,0.6-0.3
		c1.1-0.6,2.1-1.2,3.1-2c0,0,0,0,0,0h0C67.6,60.4,71.5,48.8,67.8,38.1z M50.4,46.6c-2.2,0.8-4.6,0.6-6.7-0.4c-2.1-1-3.7-2.8-4.4-5
		c-1.6-4.6,0.9-9.5,5.4-11.1c4.6-1.6,9.5,0.9,11.1,5.4C57.3,40.1,54.9,45.1,50.4,46.6z"/>
	<g>
		<path class="st1" d="M89.2,22c0-0.1-0.1-0.2-0.1-0.3c-2.5-9.2-11-16.1-21-16.1c-9,0-16.7,5.4-20,13.2c-1.1,2.6-1.8,5.5-1.8,8.6
			c0,0.2,0,0.5,0,0.8c0.1,2,0.4,3.9,1,5.7l5.7,2.3c-1.2-2-1.9-4.2-2.2-6.6c-0.1-0.7-0.1-1.4-0.1-2.1c0-2.7,0.6-5.3,1.7-7.5
			c2.8-5.8,8.8-9.9,15.7-9.9c7.6,0,14,4.9,16.4,11.6c0,0,0,0.1,0,0.1c0.6,1.8,1,3.7,1,5.7c0,0.7-0.1,1.5-0.1,2.2c0,0,0,0,0,0.1
			c-0.5,4-2.4,7.7-5.3,10.3c0.6,1.3,1.6,2.4,2.9,3.2c3.3-3.1,5.6-7.2,6.5-11.8c0.1-0.4,0.1-0.9,0.2-1.3c0.1-0.9,0.2-1.8,0.2-2.7
			C89.9,25.5,89.6,23.7,89.2,22z"/>
		<g>
			<path class="st1" d="M87.9,21.8C87.9,21.8,87.9,21.8,87.9,21.8C87.8,21.8,87.8,21.8,87.9,21.8C87.9,21.8,87.9,21.8,87.9,21.8z"/>
		</g>
	</g>
	<path class="st1" d="M127,63c-5.5-22.4-20.6-38.7-36.4-40.9c0,0,0,0.1,0,0.1c0,0.1,0.1,0.2,0.1,0.3c0.4,1.7,0.7,3.5,0.7,5.4
		c0,0.9-0.1,1.8-0.2,2.7c-0.1,0.4-0.1,0.9-0.2,1.3c-0.1,0.4-0.2,0.9-0.3,1.3c0-0.1-0.1-0.1-0.1-0.2c0.5,0.7,1,1.6,1.2,2.6
		c1,3.9-1.5,7.9-5.4,8.9c-3.9,1-7.9-1.5-8.9-5.4c-1-3.9,1.5-7.9,5.4-8.9c0.4-0.1,0.7-0.1,1.1-0.2c0,0,0,0,0-0.1
		c0-0.2,0.1-0.3,0.1-0.5c0.1-0.7,0.1-1.4,0.1-2.1c0-1.8-0.3-3.6-0.8-5.2c-0.8,0.1-1.6,0.2-2.4,0.4c-18.9,4.6-28.8,30.1-22.3,57.1
		c6.6,26.9,27.1,45.1,46,40.5C123.6,115.5,133.5,89.9,127,63z M85.2,97.3l-6.1-30.6l-5.1,1l-0.8-4.2c1.4-0.5,2.7-1.3,3.8-2.5
		c1.1-1.2,1.8-2.5,2.1-3.9l4.2-0.8l7.9,39.7L85.2,97.3z M111.9,89.6c-1.6,2.2-3.7,3.6-6.4,4.1c-2.6,0.5-5.1,0-7.3-1.4
		c-2.2-1.5-3.6-3.5-4.1-6.1l-0.2-1l5.6-1.6l0.4,1.4c0.3,1,0.8,1.7,1.5,2.2c0.8,0.5,1.6,0.7,2.6,0.5c2.7-0.5,3.9-2.1,3.4-4.6
		l-0.5-2.3c-0.8-4.1-3.4-5.7-7.6-4.8l-1-5.1c2.3-0.5,3.9-1.4,4.7-2.9c0.8-1.4,1-3.1,0.6-5.2l-0.2-0.9c-0.5-2.6-1.9-3.7-4.2-3.2
		c-1.3,0.3-2.1,0.9-2.5,2c-0.3,0.8-0.3,1.8-0.1,3l0.2,1L91,65.6l-0.2-0.9c-0.6-2.8-0.3-5.3,0.8-7.3c1.2-2.4,3.3-3.8,6.3-4.4
		c2.8-0.6,5.2-0.1,7.3,1.5c1.9,1.4,3.1,3.4,3.6,5.9l0.3,1.7c0.5,2.5,0.2,4.8-0.9,6.8c-0.5,0.9-1.1,1.7-1.8,2.4c2,0.6,3.6,1.9,5,3.7
		c0.7,0.9,1.2,2.1,1.5,3.6l0.6,3.1C114,84.7,113.5,87.3,111.9,89.6z"/>
</g>
</svg>
