<?xml version="1.0" encoding="utf-8"?>
<!-- Generator: Adobe Illustrator 19.2.1, SVG Export Plug-In . SVG Version: 6.00 Build 0)  -->
<svg version="1.1" id="Layer_1" xmlns="http://www.w3.org/2000/svg" xmlns:xlink="http://www.w3.org/1999/xlink" x="0px" y="0px"
	 viewBox="0 0 130 130" style="enable-background:new 0 0 130 130;" xml:space="preserve">
<style type="text/css">
	.st0{fill:none;}
	.st1{fill:#4D4D4D;}
</style>
<rect class="st0" width="130" height="130"/>
<g>
	<g>
		<path class="st1" d="M119.5,37.3c-1.4-1.3-2.8-2.6-4.4-3.6c-0.2,0.7-1,3-1.9,6.1c0.9,0.7,1.6,1.3,2.3,2c4.1,4,6.8,9.1,7.4,14.3
			c0.7,5.3-0.8,10.1-4.1,13.4c-2.8,2.9-6.8,4.4-11.2,4.4c-5.8,0-11.9-2.7-16.6-7.3c-8.6-8.4-10.1-20.9-3.3-27.8
			c1.1-1.1,2.4-2,3.8-2.8c-0.5-2.4-2.3-4.3-4.7-4.9c-1.5,0.9-2.8,1.9-4,3.1c-9.1,9.3-7.5,25.7,3.7,36.6c5.9,5.8,13.7,9.2,21.2,9.2
			c6.1,0,11.6-2.2,15.5-6.2C132.2,64.7,130.6,48.3,119.5,37.3z"/>
	</g>
	<path class="st1" d="M111.4,27.8c-1.5-1.5-15.6-15.6-17.3-17.3c-1.6-1.6-3.8-1.8-5.5-1.2c-1.5,0.5-41,12.7-41,12.7l-40,40.1
		c-8,8-8.8,20.1-1.8,27.2l27.2,26.8c7,7,18.6,6.3,26.6-1.7l35.1-35.1c-3.5-1.7-6.9-3.9-9.8-6.8c-8.5-8.4-11.8-19.7-9.4-29.2
		c-1.1-1.6-1.7-3.6-1.7-5.7c0-5.6,4.6-10.2,10.2-10.2c5.6,0,10.2,4.6,10.2,10.2c0,5-3.7,9.2-8.5,10.1c-0.8,5.7,1.5,12.4,6.7,17.5
		c2.4,2.4,5.2,4.2,8.2,5.3c3.3-10.4,11.5-36.1,12-37.5C113.2,31.1,112.9,29.4,111.4,27.8z M21,84.3c-0.8,0-1.6-0.3-2.1-0.9
		c-1.2-1.2-1.2-3.1,0-4.3l31.9-31.5c1.2-1.2,3.1-1.2,4.3,0c1.2,1.2,1.2,3.1,0,4.3L23.1,83.4C22.5,84,21.8,84.3,21,84.3z M32.7,93
		c-0.6,0.6-1.4,0.9-2.1,0.9c-0.8,0-1.6-0.3-2.1-0.9c-1.2-1.2-1.2-3.1,0-4.3l31.9-31.5c1.2-1.2,3.1-1.2,4.3,0c1.2,1.2,1.2,3.1,0,4.3
		L32.7,93z M73.8,66.4c1.2,1.2,1.2,3.1,0,4.3l-31.9,31.5c-0.6,0.6-1.4,0.9-2.1,0.9c-0.8,0-1.6-0.3-2.1-0.9c-1.2-1.2-1.2-3.1,0-4.3
		l31.9-31.5C70.7,65.2,72.6,65.2,73.8,66.4z"/>
</g>
</svg>
