<?xml version="1.0" encoding="utf-8"?>
<!-- Generator: Adobe Illustrator 19.2.1, SVG Export Plug-In . SVG Version: 6.00 Build 0)  -->
<svg version="1.1" id="Layer_1" xmlns="http://www.w3.org/2000/svg" xmlns:xlink="http://www.w3.org/1999/xlink" x="0px" y="0px"
	 viewBox="0 0 130 130" style="enable-background:new 0 0 130 130;" xml:space="preserve">
<style type="text/css">
	.st0{fill:none;}
	.st1{fill:#4D4D4D;}
</style>
<rect class="st0" width="130" height="130"/>
<path class="st1" d="M129,94.2c0-0.3-1.2-0.5-1.5-0.5h-4.6h-0.8h-5.6V32c0-0.7-0.3-1.3-0.7-1.8c-0.5-0.5-1.1-0.7-1.8-0.7H16
	c-0.7,0-1.3,0.3-1.8,0.7c-0.5,0.5-0.7,1.1-0.7,1.8v61.7h-11c-0.3,0-1.5,0.2-1.5,0.5v4.5h0c1.7,2.1,3,1.6,3.9,1.7h9.4h1.4l49.3,0
	l50.7,0h9.4c0.9-0.1,2.2,0.3,3.9-1.7h0c0-0.1,0-0.1,0-0.2V94.2z M112.1,89.4H18V34h94V89.4z"/>
</svg>
