<?xml version="1.0" encoding="utf-8"?>
<!-- Generator: Adobe Illustrator 19.2.1, SVG Export Plug-In . SVG Version: 6.00 Build 0)  -->
<svg version="1.1" id="Layer_1" xmlns="http://www.w3.org/2000/svg" xmlns:xlink="http://www.w3.org/1999/xlink" x="0px" y="0px"
	 viewBox="0 0 130 130" style="enable-background:new 0 0 130 130;" xml:space="preserve">
<style type="text/css">
	.st0{fill:none;}
	.st1{fill:#4D4D4D;}
</style>
<rect class="st0" width="130" height="130"/>
<g id="Shape_12_copy_1_">
	<path class="st1" d="M109.6,58.9c-9.8-3.2-16.9-4.4-16.9-12.3c0-5.5,4.3-9.7,10.3-9.7c4.3,0,7.7,1.7,10.8,6l8.2-4.2
		c-4.2-7.4-10.2-11.1-18.5-11.1c-12.8,0-20.6,7.7-20.6,19.2c0,11.8,7.7,16.8,22.6,21.7c8.3,2.8,13.2,4.5,13.2,11.5
		c0,7.2-6.4,12.9-15.8,12.6c-9.6-0.3-12.5-5.6-16-13.4c-5.6-12.7-12-27.7-12.5-28.9c-6.5-15-19.4-23.5-35.2-23.5
		C18.1,26.9,1,43.9,1,65c0,21.1,17.1,38.1,38.1,38.1c11.9,0,22.5-5.4,29.5-13.9l-4.9-11.4c-4.6,8.8-13.9,14.9-24.6,14.9
		c-15.3,0-27.7-12.4-27.7-27.7c0-15.3,12.4-27.7,27.7-27.7c11.3,0,21.3,6.6,25.4,16.5l12.2,27.8l1.4,3.1c4.9,11.5,12,18,25.4,18.1
		c14.5,0,25.6-9.4,25.6-22.3C129,68.1,122.8,63.2,109.6,58.9z"/>
</g>
</svg>
