<?xml version="1.0" encoding="utf-8"?>
<!-- Generator: Adobe Illustrator 19.2.1, SVG Export Plug-In . SVG Version: 6.00 Build 0)  -->
<svg version="1.1" id="Layer_1" xmlns="http://www.w3.org/2000/svg" xmlns:xlink="http://www.w3.org/1999/xlink" x="0px" y="0px"
	 viewBox="0 0 130 130" style="enable-background:new 0 0 130 130;" xml:space="preserve">
<style type="text/css">
	.st0{fill:none;}
	.st1{fill:#4D4D4D;}
</style>
<rect class="st0" width="130" height="130"/>
<path class="st1" d="M128.8,59.8C125.9,24.6,95-1.7,59.8,1.2C24.6,4.1-1.7,35,1.2,70.2c2.9,35.2,33.7,61.5,69,58.6
	C105.4,125.9,131.6,95,128.8,59.8z M102.2,27.8c1.8-0.1,3.6,0.7,4.9,2.4l10.7,20.9c1.2,3.7-1.1,7-4.9,7.3l-34.7,2.8
	c-3.9,0.3-5-1.9-2.5-4.8l22.5-26.5C99.4,28.6,100.8,27.9,102.2,27.8z M30.2,22.9l20.9-10.7c0.5-0.2,1-0.2,1.5-0.3
	c3.1-0.2,5.6,1.9,5.9,5.2l2.8,34.7c0.2,2.4-0.5,3.7-1.8,3.8c-0.8,0.1-1.8-0.4-3-1.3L29.9,31.7C27,29.2,27.1,25.2,30.2,22.9z
	 M10.6,59.8l7.2-22.4c1-1.9,2.7-3,4.5-3.2c1.4-0.1,2.9,0.3,4.2,1.5L53,58.3c3,2.5,2.2,4.8-1.7,5.2l-34.7,2.8
	C12.8,66.6,10,63.7,10.6,59.8z M27.8,102.2c-1.8,0.2-3.6-0.7-4.9-2.4L12.1,78.9c-1.2-3.7,1.1-7,4.9-7.3l34.7-2.8
	c3.9-0.3,5,1.9,2.5,4.8l-22.5,26.5C30.6,101.4,29.2,102.1,27.8,102.2z M61.3,119.5c-0.5,0-1,0-1.5,0l-22.4-7.2
	c-3.5-1.8-4.2-5.7-1.7-8.7L58.3,77c1-1.2,1.9-1.7,2.7-1.8c1.3-0.1,2.2,1.1,2.4,3.5l2.8,34.6C66.5,116.7,64.4,119.2,61.3,119.5z
	 M66.6,51.3l-2.8-34.7c-0.3-3.4,1.9-5.9,5-6.1c0.5,0,1,0,1.5,0l22.4,7.2c3.5,1.8,4.2,5.7,1.7,8.7L71.7,53c-1,1.2-1.9,1.8-2.7,1.8
	C67.7,54.9,66.7,53.7,66.6,51.3z M99.8,107.1l-20.9,10.7c-0.5,0.2-1,0.3-1.5,0.3c-3.1,0.3-5.6-1.9-5.9-5.2l-2.8-34.6
	c-0.2-2.4,0.5-3.7,1.8-3.8c0.8-0.1,1.8,0.4,3,1.3l26.5,22.5C103,100.8,102.9,104.8,99.8,107.1z M119.4,70.2l-7.2,22.4
	c-1,1.9-2.7,3-4.5,3.2c-1.4,0.1-2.9-0.4-4.2-1.5L77,71.7c-3-2.5-2.2-4.8,1.7-5.2l34.7-2.8C117.2,63.4,120,66.3,119.4,70.2z"/>
</svg>
