<?xml version="1.0" encoding="utf-8"?>
<!-- Generator: Adobe Illustrator 19.2.1, SVG Export Plug-In . SVG Version: 6.00 Build 0)  -->
<svg version="1.1" id="Layer_1" xmlns="http://www.w3.org/2000/svg" xmlns:xlink="http://www.w3.org/1999/xlink" x="0px" y="0px"
	 viewBox="0 0 130 130" style="enable-background:new 0 0 130 130;" xml:space="preserve">
<style type="text/css">
	.st0{fill:none;}
	.st1{fill:#4D4D4D;}
</style>
<rect class="st0" width="130" height="130"/>
<g>
	<path class="st1" d="M118,85.4c14.1-2.9,9.2-15.2,4.7-17.2c-3.6-1.6-7.8-1.5-4.9-2.6c2.2-0.9,7.2-2.4,7.2-7.7c0-2.5-0.8-4-1.8-5
		c-2-1.9-5.1-2-5.8-2c0,0-13.6,0-19.9,0c-1.2,0-3.1-1-3.3-2.2c-0.7-3.8-1.4-8.3,2.3-15.6c1.3-2.7,1.4-8.7-0.3-15.3
		c-1.4-5.4-4-10.9-8-15c-0.8-0.6-6.1-4.4-9.9,1.5V20c0,0.1,0,0.3,0,0.4c-0.1,1.1-0.8,6.2-2.8,9.7c-1.2,2.1-6.8,11.1-11.7,18.7
		c-3.2,4.8-6,9-7.4,10.5c-2.7,2.9-7.8,3.3-10.7,3.2l0,55.5c0.9-0.5,6.5,5,20.4,5.2c18.8,0.3,31-2.3,41.2-4.3c1.7-0.4,5.1-1.7,6.8-3
		c1.1-0.8,2.5-1.9,3.2-3.1c0.7-1.2,1.1-2.5,1.1-3.9c0-6.3-4.6-5.9-4.3-7.1c0.2-0.9,0.8-0.9,1.7-1.2c10.7-4.1,5.7-12.8,2.7-13.6
		C116.5,86.5,116.8,85.7,118,85.4z"/>
	<path class="st1" d="M38.3,54.6c-6.9,0-26.2,0-26.2,0S2,53.6,2.7,64.5c0.6,10.9,3.6,53.4,3.6,53.4s0,11.1,11.1,11.1
		c11.2,0,21.9,0,21.9,0s4.1,0.2,4.1-5.1v-5.1l0,0V61.7C43.5,61.7,45.2,54.6,38.3,54.6z"/>
</g>
</svg>
