<?xml version="1.0" encoding="utf-8"?>
<!-- Generator: Adobe Illustrator 19.2.1, SVG Export Plug-In . SVG Version: 6.00 Build 0)  -->
<svg version="1.1" id="Layer_1" xmlns="http://www.w3.org/2000/svg" xmlns:xlink="http://www.w3.org/1999/xlink" x="0px" y="0px"
	 viewBox="0 0 130 130" style="enable-background:new 0 0 130 130;" xml:space="preserve">
<style type="text/css">
	.st0{fill:none;}
	.st1{fill:#4D4D4D;}
</style>
<rect class="st0" width="130" height="130"/>
<g>
	<path class="st1" d="M67.2,74.8L56.7,85.4c0.2,0.9-0.1,2-0.8,2.7l-25.6,25.6c-1.2,1.2-3.1,1.2-4.3,0l-9.7-9.7
		c-1.2-1.2-1.2-3.1,0-4.3L42,74.1c0.7-0.7,1.7-0.9,2.7-0.8l10.6-10.6c-6.9-5.7-17-5.4-23.5,1.1L6.1,89.4c-6.8,6.8-6.8,18,0,24.8
		l9.7,9.7c6.8,6.8,18,6.8,24.8,0l25.6-25.6C72.6,91.9,72.9,81.7,67.2,74.8z"/>
	<path class="st1" d="M93.1,36.9c-2.5-2.5-6.6-2.5-9.1,0l-47,47c-2.5,2.5-2.5,6.6,0,9.1c2.5,2.5,6.6,2.5,9.1,0l47-47
		C95.6,43.5,95.6,39.4,93.1,36.9z"/>
	<path class="st1" d="M123.9,15.7l-9.7-9.7c-6.8-6.8-18-6.8-24.8,0L63.8,31.7c-6.4,6.4-6.7,16.6-1.1,23.5l10.6-10.6
		c-0.2-0.9,0.1-2,0.8-2.7l25.6-25.6c1.2-1.1,3.1-1.1,4.3,0l9.7,9.7c1.1,1.2,1.2,3.1,0,4.3L88,55.9c-0.7,0.7-1.7,0.9-2.7,0.8
		L74.8,67.2c6.9,5.7,17,5.4,23.5-1.1l25.6-25.6C130.7,33.7,130.7,22.6,123.9,15.7z"/>
</g>
</svg>
