<?xml version="1.0" encoding="utf-8"?>
<!-- Generator: Adobe Illustrator 19.2.1, SVG Export Plug-In . SVG Version: 6.00 Build 0)  -->
<svg version="1.1" id="Layer_1" xmlns="http://www.w3.org/2000/svg" xmlns:xlink="http://www.w3.org/1999/xlink" x="0px" y="0px"
	 viewBox="0 0 130 130" style="enable-background:new 0 0 130 130;" xml:space="preserve">
<style type="text/css">
	.st0{fill:none;}
	.st1{fill:#4D4D4D;}
</style>
<rect class="st0" width="130" height="130"/>
<g>
	
		<rect x="68.7" y="54.2" transform="matrix(0.5691 -0.8223 0.8223 0.5691 -37.8175 95.1107)" class="st1" width="6.2" height="58.9"/>
	<rect x="46.7" y="28.3" transform="matrix(0.9237 -0.3831 0.3831 0.9237 -6.378 30.8701)" class="st1" width="55.1" height="6.2"/>
	<path class="st1" d="M106.6,1c-9.3,0-16.8,7.5-16.8,16.8c0,9.3,7.5,16.8,16.8,16.8c9.3,0,16.8-7.5,16.8-16.8
		C123.4,8.5,115.9,1,106.6,1z"/>
	<path class="st1" d="M106.6,88c-11.3,0-20.5,9.2-20.5,20.5c0,11.3,9.2,20.5,20.5,20.5s20.5-9.2,20.5-20.5
		C127.1,97.2,117.9,88,106.6,88z"/>
	<path class="st1" d="M28.3,27.1c-14.1,0-25.5,11.4-25.5,25.5C2.9,66.6,14.3,78,28.3,78c14.1,0,25.5-11.4,25.5-25.5
		C53.8,38.5,42.4,27.1,28.3,27.1z"/>
</g>
</svg>
