<?xml version="1.0" encoding="utf-8"?>
<!-- Generator: Adobe Illustrator 19.2.1, SVG Export Plug-In . SVG Version: 6.00 Build 0)  -->
<svg version="1.1" id="Layer_1" xmlns="http://www.w3.org/2000/svg" xmlns:xlink="http://www.w3.org/1999/xlink" x="0px" y="0px"
	 viewBox="0 0 130 130" style="enable-background:new 0 0 130 130;" xml:space="preserve">
<style type="text/css">
	.st0{fill:none;}
	.st1{fill:#4C4C4C;}
</style>
<rect class="st0" width="130" height="130"/>
<g id="Shape_7_copy_2_">
	<path class="st1" d="M10.4,129h25V41.6h-25V129z M105.7,46.6c-9.3-5.2-23-5.7-32.9-1.1v-3.8h-25V129h25V73.1l10.3-5
		c2.5-1.2,8.1-1.1,10.4,0.2c1.8,1,4.3,5.1,4.3,7.6V129h25V75.9C122.8,64.4,115.6,52.1,105.7,46.6z M22.9,1C14.2,1,7.2,8,7.2,16.6
		c0,8.6,7,15.6,15.6,15.6s15.6-7,15.6-15.6C38.5,8,31.5,1,22.9,1z"/>
</g>
</svg>
