<?xml version="1.0" encoding="utf-8"?>
<!-- Generator: Adobe Illustrator 19.2.1, SVG Export Plug-In . SVG Version: 6.00 Build 0)  -->
<svg version="1.1" id="Layer_1" xmlns="http://www.w3.org/2000/svg" xmlns:xlink="http://www.w3.org/1999/xlink" x="0px" y="0px"
	 viewBox="0 0 130 130" style="enable-background:new 0 0 130 130;" xml:space="preserve">
<style type="text/css">
	.st0{fill:none;}
	.st1{fill:#4D4D4D;}
</style>
<rect class="st0" width="130" height="130"/>
<path class="st1" d="M71.5,7.5c-3,0-5.5,2.5-5.5,5.5c0,3,2.5,5.5,5.5,5.5C97.1,18.5,118,39.4,118,65c0,25.6-20.9,46.5-46.5,46.5
	c-20.7,0-38.6-13.7-44.5-32.9l9.4,5.8c2.6,1.6,6,0.8,7.6-1.8c1.6-2.6,0.8-6-1.8-7.6L22.1,62.6c-2.6-1.6-5.9-0.8-7.6,1.7l-12.7,20
	c-1.6,2.6-0.9,6,1.7,7.6c0.9,0.6,1.9,0.9,3,0.9c1.8,0,3.6-0.9,4.6-2.6l5.3-8.4c7.3,23.8,29.4,40.7,55,40.7
	c31.7,0,57.5-25.8,57.5-57.5C129,33.3,103.2,7.5,71.5,7.5z"/>
</svg>
