<?xml version="1.0" encoding="utf-8"?>
<!-- Generator: Adobe Illustrator 19.2.1, SVG Export Plug-In . SVG Version: 6.00 Build 0)  -->
<svg version="1.1" id="Layer_1" xmlns="http://www.w3.org/2000/svg" xmlns:xlink="http://www.w3.org/1999/xlink" x="0px" y="0px"
	 viewBox="0 0 130 130" style="enable-background:new 0 0 130 130;" xml:space="preserve">
<style type="text/css">
	.st0{fill:none;}
	.st1{fill:#4D4D4D;}
</style>
<rect class="st0" width="130" height="130"/>
<g>
	<path class="st1" d="M65,1C41.1,1,22.8,22.8,22.3,42.5c0,0.3,14.2,0.1,14.2,0C36.9,28.8,49.3,13.9,65,13.9
		c15.7,0,28.1,14.9,28.4,28.6c0,0.1,14.2,0.3,14.2,0C107.2,22.8,88.9,1,65,1z"/>
	<path class="st1" d="M107.9,41.8l-73.1-0.2c0,0-14,0.2-13.9,0.5C13.4,43.6,7.8,50,7.8,57.8v55c0,8.9,7.4,16.2,16.4,16.2h81.6
		c9,0,16.4-7.3,16.4-16.2v-55C122.2,49.6,115.9,42.8,107.9,41.8z M68.9,86.9v14.7c0,2.1-1.7,3.8-3.9,3.8c-2.1,0-3.9-1.7-3.9-3.8
		V86.9c-4-1.5-6.8-5.3-6.8-9.8c0-5.8,4.8-10.5,10.7-10.5c5.9,0,10.7,4.7,10.7,10.5C75.7,81.5,72.9,85.3,68.9,86.9z"/>
</g>
</svg>
