<?xml version="1.0" encoding="utf-8"?>
<!-- Generator: Adobe Illustrator 19.2.1, SVG Export Plug-In . SVG Version: 6.00 Build 0)  -->
<svg version="1.1" id="Layer_1" xmlns="http://www.w3.org/2000/svg" xmlns:xlink="http://www.w3.org/1999/xlink" x="0px" y="0px"
	 viewBox="0 0 130 130" style="enable-background:new 0 0 130 130;" xml:space="preserve">
<style type="text/css">
	.st0{fill:none;}
	.st1{fill:#4D4D4D;}
</style>
<rect class="st0" width="130" height="130"/>
<g>
	<path class="st1" d="M93.4,13.1C85.5,5.3,75.4,1,65,1C40.4,1,22.3,24.5,21.8,45.2c0,0.3,14.3,0,14.3-0.1
		C36.4,30.7,48.9,14.6,65,14.6c8.6,0,14.9,4.4,18.7,8.1c2.7,2.6,7.1,2.6,9.7,0C96.1,20,96.1,15.7,93.4,13.1z"/>
	<path class="st1" d="M106.4,44.9l-70.5-0.2c0,0-13.5,0.2-13.4,0.5c-7.2,1.5-12.7,7.7-12.7,15.2v53.1c0,8.6,7.1,15.6,15.9,15.6h78.8
		c8.7,0,15.9-7,15.9-15.6V60.3C120.3,52.4,114.2,45.8,106.4,44.9z M68.8,88.3v14.2c0,2-1.7,3.7-3.8,3.7c-2.1,0-3.7-1.6-3.7-3.7V88.3
		c-3.9-1.5-6.6-5.1-6.6-9.5c0-5.6,4.6-10.2,10.3-10.2c5.7,0,10.3,4.6,10.3,10.2C75.3,83.2,72.6,86.8,68.8,88.3z"/>
</g>
</svg>
