<?xml version="1.0" encoding="utf-8"?>
<!-- Generator: Adobe Illustrator 19.2.1, SVG Export Plug-In . SVG Version: 6.00 Build 0)  -->
<svg version="1.1" id="Layer_1" xmlns="http://www.w3.org/2000/svg" xmlns:xlink="http://www.w3.org/1999/xlink" x="0px" y="0px"
	 viewBox="0 0 130 130" style="enable-background:new 0 0 130 130;" xml:space="preserve">
<style type="text/css">
	.st0{fill:none;}
	.st1{fill:#4D4D4D;}
</style>
<rect class="st0" width="130" height="130"/>
<g>
	<g>
		<path class="st1" d="M57.8,23.6c-0.8,1.7-1.6,3.5-2,5.8c-1,5.8-1.1,13.9,1.7,18.9c0.3,0.6,1,1,1.6,1c0.3,0,0.6-0.1,0.9-0.2
			c0.9-0.5,1.2-1.6,0.7-2.5c-2.3-4.2-2.1-11.5-1.3-16.5c0.3-1.8,1-3.3,1.7-4.9c0.8-1.7,1.5-3.4,1.9-5.6c1-5.9-1.2-11.9-3.9-17.5
			c-0.4-0.9-1.5-1.3-2.5-0.9c-0.9,0.4-1.3,1.5-0.9,2.5c1.6,3.4,4.6,9.7,3.6,15.3C59.1,20.6,58.5,22,57.8,23.6z"/>
		<path class="st1" d="M44.4,34.5c0.7,0.9,1.3,1.7,1.6,2.7c0.9,3,1,7-0.8,9.2c-0.7,0.8-0.6,2,0.2,2.6c0.3,0.3,0.8,0.4,1.2,0.4
			c0.5,0,1-0.2,1.4-0.6c2.9-3.5,2.7-8.8,1.5-12.7c-0.5-1.6-1.4-2.8-2.2-3.8c-0.7-0.9-1.3-1.7-1.6-2.5c-0.9-2.8,1.8-6.5,3.2-8.5
			c0.6-0.8,0.4-2-0.4-2.6c-0.8-0.6-2-0.4-2.6,0.4c-1.8,2.5-5.2,7.2-3.7,11.8C42.7,32.3,43.6,33.5,44.4,34.5z"/>
		<path class="st1" d="M70.2,34c0.9,0.9,1.8,1.8,2.1,2.8c1,2.8,1.3,6.9-1.2,9.2c-0.8,0.7-0.8,1.9-0.1,2.6c0.4,0.4,0.9,0.6,1.4,0.6
			c0.4,0,0.9-0.2,1.2-0.5c3.9-3.6,3.7-9.2,2.2-13.3c-0.6-1.7-1.8-2.9-2.9-4c-0.9-0.9-1.7-1.7-2-2.6c-1.1-2.8,2.5-6.6,4.3-8.5
			c0.7-0.7,0.7-1.9-0.1-2.6c-0.7-0.7-1.9-0.7-2.6,0.1c-2.4,2.6-7,7.4-5.1,12.3C68.1,31.7,69.2,32.9,70.2,34z"/>
		<path class="st1" d="M98.3,104.6c-13.3,0-24-9.8-24-21.7s10.8-21.7,24-21.7c13.3,0,24.1,9.8,24.1,21.7S111.5,104.6,98.3,104.6z
			 M98.3,68c-9.5,0-17.1,6.7-17.1,14.8c0,8.2,7.7,14.8,17.1,14.8c9.5,0,17.1-6.7,17.1-14.8C115.4,74.7,107.7,68,98.3,68z"/>
		<path class="st1" d="M30.3,110.6h59.4c6.7-4.7,11.1-12.5,11.1-21.3V56.3H19.3v33.1C19.3,98.1,23.7,105.9,30.3,110.6z"/>
	</g>
	<path class="st1" d="M112.4,111.3C104.1,121.7,83.8,129,60,129c-23.8,0-44.1-7.3-52.4-17.7H112.4"/>
</g>
</svg>
