<?xml version="1.0" encoding="utf-8"?>
<!-- Generator: Adobe Illustrator 19.2.1, SVG Export Plug-In . SVG Version: 6.00 Build 0)  -->
<svg version="1.1" id="Layer_1" xmlns="http://www.w3.org/2000/svg" xmlns:xlink="http://www.w3.org/1999/xlink" x="0px" y="0px"
	 viewBox="0 0 130 130" style="enable-background:new 0 0 130 130;" xml:space="preserve">
<style type="text/css">
	.st0{fill:none;}
	.st1{fill:#4D4D4D;}
</style>
<rect class="st0" width="130" height="130"/>
<g>
	<g>
		<path class="st1" d="M72.9,78.8c-0.6-4.3-4.7-7.3-9.1-6.6c-4.4,0.6-7.4,4.6-6.7,8.9l7,47.2c0.1,0.4,0.4,0.7,0.7,0.7
			c0.5,0.1,0.9-0.3,1-0.7l7-47.2C73,80.3,73,79.5,72.9,78.8z"/>
	</g>
	<g>
		<path class="st1" d="M88.6,55.6c-4.2-3-9.3-7.7-9.5-14l0-0.2c0.2-6.3,5.3-10.9,9.5-13.9c6.8-4.9,5.8-8.2,5.8-8.2H35.7
			c0,0-1,3.3,5.8,8.2c4.2,3,9.2,7.6,9.5,13.9l0,0.2c-0.2,6.3-5.3,11-9.5,14c-6.8,4.9-5.8,8.2-5.8,8.2h58.7
			C94.4,63.9,95.4,60.5,88.6,55.6z"/>
	</g>
	<g>
		<path class="st1" d="M89.6,1H40.4c-2.6,0-4.8,2.2-4.8,4.8v13.5c0,2.6,2.2,4.8,4.8,4.8h49.2c2.6,0,4.8-2.2,4.8-4.8V5.8
			C94.4,3.2,92.2,1,89.6,1z M89.6,59H40.4c-2.6,0-4.8,2.2-4.8,4.8v13.5c0,2.6,2.2,4.8,4.8,4.8h49.2c2.6,0,4.8-2.2,4.8-4.8V63.8
			C94.4,61.1,92.2,59,89.6,59z"/>
	</g>
</g>
</svg>
