<?xml version="1.0" encoding="utf-8"?>
<!-- Generator: Adobe Illustrator 19.2.1, SVG Export Plug-In . SVG Version: 6.00 Build 0)  -->
<svg version="1.1" id="Layer_1" xmlns="http://www.w3.org/2000/svg" xmlns:xlink="http://www.w3.org/1999/xlink" x="0px" y="0px"
	 viewBox="0 0 130 130" style="enable-background:new 0 0 130 130;" xml:space="preserve">
<style type="text/css">
	.st0{fill:none;}
	.st1{fill:#4D4D4D;}
	.st2{fill:#FFFFFF;stroke:#4D4D4D;stroke-width:2.3262;stroke-miterlimit:10;}
</style>
<rect class="st0" width="130" height="130"/>
<g>
	<polygon class="st1" points="112.3,43 86.7,35 65,41.8 43.3,35 17.7,43 8.7,129 39.2,121 65,127.8 90.8,121 121.3,129 	"/>
	<g>
		<polygon class="st2" points="108.5,46.1 86.7,39.3 65,46.1 43.3,39.3 21.5,46.1 13.4,123.6 39.2,116.8 65,123.6 90.8,116.8 
			116.6,123.6 		"/>
	</g>
	<polygon class="st2" points="86.7,39.3 65,46.1 65,123.6 90.8,116.8 	"/>
	<polygon class="st2" points="21.5,46.1 13.4,123.6 39.2,116.8 43.3,39.3 	"/>
	<path class="st1" d="M66,1C50.1,1,37.2,13.9,37.2,29.9c0,16,28.8,64.4,28.8,64.4s28.8-48.4,28.8-64.4C94.8,13.9,81.9,1,66,1z
		 M66,36.7c-4.9,0-8.9-4-8.9-8.9c0-4.9,4-8.9,8.9-8.9s8.9,4,8.9,8.9C74.9,32.7,70.9,36.7,66,36.7z"/>
</g>
</svg>
