<?xml version="1.0" encoding="utf-8"?>
<!-- Generator: Adobe Illustrator 19.2.1, SVG Export Plug-In . SVG Version: 6.00 Build 0)  -->
<svg version="1.1" id="Layer_1" xmlns="http://www.w3.org/2000/svg" xmlns:xlink="http://www.w3.org/1999/xlink" x="0px" y="0px"
	 viewBox="0 0 130 130" style="enable-background:new 0 0 130 130;" xml:space="preserve">
<style type="text/css">
	.st0{fill:none;}
	.st1{fill:#4D4D4D;}
	.st2{fill:#FFFFFF;}
</style>
<rect class="st0" width="130" height="130"/>
<g>
	<g>
		<path class="st1" d="M85.2,2.8l-0.9-0.4L82,5.1C76.3,2.5,70,1,63.3,1C38.2,1,17.8,21.3,17.8,46.4c0,41.2,45.4,82.6,45.4,82.6
			s36.1-32.4,43.9-69.1h3.7l0.2-1c0.7-4.1,1.1-8.2,1.1-11.9C112.2,28.3,101.8,11.4,85.2,2.8z"/>
	</g>
	<path class="st2" d="M85,5.5L64.7,28.4c-0.6-0.1-1.1-0.1-1.7-0.1c-7.3,0-13.4,4.7-15.6,11.3H18c-0.1,1.8-0.1,3.7-0.1,5.5
		c0,1.8,0,3.7,0.1,5.6h29.8C50.2,56.7,56.1,61,63,61c3.9,0,7.4-1.3,10.2-3.6h35.6c0.6-3.6,0.9-7.2,0.9-10.5
		C109.7,29.6,100.2,13.8,85,5.5z M63,49.1c-2.5,0-4.4-2-4.4-4.4s2-4.4,4.4-4.4c2.5,0,4.4,2,4.4,4.4C67.4,47.1,65.4,49.1,63,49.1z"/>
</g>
</svg>
