<?xml version="1.0" encoding="utf-8"?>
<!-- Generator: Adobe Illustrator 19.2.1, SVG Export Plug-In . SVG Version: 6.00 Build 0)  -->
<svg version="1.1" id="Layer_1" xmlns="http://www.w3.org/2000/svg" xmlns:xlink="http://www.w3.org/1999/xlink" x="0px" y="0px"
	 viewBox="0 0 130 130" style="enable-background:new 0 0 130 130;" xml:space="preserve">
<style type="text/css">
	.st0{fill:none;}
	.st1{fill:#4D4D4D;}
</style>
<rect class="st0" width="130" height="130"/>
<g>
	<g>
		<path class="st1" d="M87.4,69.2c-1-0.2-2,0.7-2.1,1.8c-0.1,1.2,0.6,2.3,1.6,2.4c22.5,3.5,38.3,12.1,38.3,21.1
			c0,11-24.2,22.7-60.2,22.7c-36,0-60.2-11.8-60.2-22.7c0-9,15.8-17.7,38.4-21.1c1-0.2,1.8-1.2,1.6-2.4c-0.1-1.2-1.1-2-2.1-1.8
			C17.4,73.1,1,83,1,94.6c0,15.2,28.1,27,64,27c35.9,0,64-11.9,64-27C129,83,112.7,73.1,87.4,69.2z M35.1,92.3
			c0,7.6,19.2,9.6,30.5,9.6c11.3,0,30.6-2,30.6-9.6c0-5.3-9.5-7.7-17.5-8.7c-0.9-0.1-1.8,0.7-1.9,1.8c-0.1,1.1,0.6,2.1,1.5,2.2
			c11.3,1.5,14.2,4.2,14.4,4.7c-0.5,2-10.3,5.6-27.1,5.6c-16.8,0-26.5-3.7-27.1-5.5c0.2-0.6,3.2-3.4,14.5-4.9c1-0.1,1.6-1.1,1.5-2.2
			c-0.1-1.1-1-1.9-1.9-1.8C44.7,84.6,35.1,87,35.1,92.3z"/>
	</g>
	<path class="st1" d="M65.8,8.4c-15,0-27.2,13.1-27.2,29.3C38.6,64.3,65.8,91,65.8,91s27.2-26.3,27.2-53.3
		C92.9,21.5,80.8,8.4,65.8,8.4z M65.8,39.5c-4.7,0-8.5-3.8-8.5-8.5c0-4.7,3.8-8.5,8.5-8.5c4.7,0,8.5,3.8,8.5,8.5
		C74.2,35.7,70.4,39.5,65.8,39.5z"/>
</g>
</svg>
