<?xml version="1.0" encoding="utf-8"?>
<!-- Generator: Adobe Illustrator 19.2.1, SVG Export Plug-In . SVG Version: 6.00 Build 0)  -->
<svg version="1.1" id="Layer_1" xmlns="http://www.w3.org/2000/svg" xmlns:xlink="http://www.w3.org/1999/xlink" x="0px" y="0px"
	 viewBox="0 0 130 130" style="enable-background:new 0 0 130 130;" xml:space="preserve">
<style type="text/css">
	.st0{fill:none;}
	.st1{fill:#4D4D4D;}
</style>
<rect class="st0" width="130" height="130"/>
<g>
	<path class="st1" d="M121.1,86.7L98.4,24.6c-0.2-0.5-0.7-0.7-1.2-0.4L17.2,79l8,21l19.5-2.5l0.8,4.3c1.1,5.8,3.7,8.6,8.2,8.8
		l15.8-1.7c6.1-0.9,8.9-3.8,8-8.3l-1.3-7.1l44.2-5.7C121,87.7,121.3,87.2,121.1,86.7z M69.5,104.1l-15.8,1.7c-2,0.1-3.1-1.7-3.6-3.9
		l-0.9-5l22.7-2.9l1.2,6.4C73.4,102.6,71.4,104,69.5,104.1z"/>
	<path class="st1" d="M128.8,85.2l-23.4-64.1c-0.5-1.3-2-2-3.3-1.5c-1.3,0.5-2,2-1.5,3.3L124,87c0.4,1.2,1.7,1.9,2.9,1.7
		c0.1,0,0.3-0.1,0.4-0.1C128.6,88,129.3,86.5,128.8,85.2z M3.6,88.3l-0.3,0.3C3,88.4,2.4,88.3,2,88.5c-0.8,0.3-1.2,1.3-0.9,2.1
		l4.6,11.8c0.3,0.9,1.3,1.3,2.1,1c0.5-0.2,0.9-0.7,1-1.3l13.4-1.7l-7.5-19.6L3.6,88.3z"/>
</g>
</svg>
