<?xml version="1.0" encoding="utf-8"?>
<!-- Generator: Adobe Illustrator 19.2.1, SVG Export Plug-In . SVG Version: 6.00 Build 0)  -->
<svg version="1.1" id="Layer_1" xmlns="http://www.w3.org/2000/svg" xmlns:xlink="http://www.w3.org/1999/xlink" x="0px" y="0px"
	 viewBox="0 0 130 130" style="enable-background:new 0 0 130 130;" xml:space="preserve">
<style type="text/css">
	.st0{fill:none;}
	.st1{fill:#4D4D4D;}
</style>
<rect class="st0" width="130" height="130"/>
<g>
	<path class="st1" d="M106.3,3.6C90.6,27.7,63.4,31,53.1,31.3v0c-0.7,0-1.1,0-1.1,0l0,0.1l-0.2,0l-30.5,2.8c0,0-13.1,0.6-13.1,13.2
		v17.4c0,0-0.3,14.6,12.6,14.6c0,0,15.9,0,15.9,5.3v39.3c0,2.7,2.2,4.9,5,4.9h7.2c2.7,0,5-2.2,5-4.9l0-46.3h0v-2.9
		c38.4,3.4,53.2,27.9,53.2,27.9s3.6,4.4,3.3-0.2L110.4,3C110.4-1.8,106.3,3.6,106.3,3.6z"/>
	<path class="st1" d="M113.2,39.1l0,27.5c5-2.6,8.5-7.8,8.5-13.7C121.8,46.9,118.3,41.8,113.2,39.1z"/>
</g>
</svg>
