<?xml version="1.0" encoding="utf-8"?>
<!-- Generator: Adobe Illustrator 19.2.1, SVG Export Plug-In . SVG Version: 6.00 Build 0)  -->
<svg version="1.1" id="Layer_1" xmlns="http://www.w3.org/2000/svg" xmlns:xlink="http://www.w3.org/1999/xlink" x="0px" y="0px"
	 viewBox="0 0 130 130" style="enable-background:new 0 0 130 130;" xml:space="preserve">
<style type="text/css">
	.st0{fill:none;}
	.st1{fill:#4D4D4D;}
</style>
<rect class="st0" width="130" height="130"/>
<g>
	<path class="st1" d="M66.3,119.3V66.9L90.5,58c-6-15.8-14.2-29.3-18.4-35.8L7,62.3c-5.1,3.3-5.4,7.2-3.7,10.9c1.9,4.1,3,6.3,5,9.9
		c2,3.6,5.4,5.3,10.2,3.3c2.2-0.9,18.7-7.6,35.6-14.6v47.5c-9.3,0.5-16,2-16.2,3.7l0-0.1c0,0.6,0,1.9,0,2.2c0,1.8,9,3.7,23.4,3.7
		c14.4,0,23.4-1.9,23.4-3.7v-2C84.7,121.3,76.9,119.7,66.3,119.3z"/>
	<path class="st1" d="M86.7,4.4c-6.1,3.4-10.8,9-13.1,15.8c4.2,6.4,12.8,20.5,19.1,36.9c2.3,0.6,4.7,1,7.2,1c4.7,0,9.1-1.2,13-3.3
		C107.7,23.9,91.3,8.3,86.7,4.4z M99.8,1c-2.9,0-5.7,0.5-8.4,1.3C97.9,8.2,111.8,23.7,117,52c6.5-5.2,10.6-13.3,10.6-22.4
		C127.7,13.8,115.2,1,99.8,1z"/>
</g>
</svg>
