<?xml version="1.0" encoding="utf-8"?>
<!-- Generator: Adobe Illustrator 19.2.1, SVG Export Plug-In . SVG Version: 6.00 Build 0)  -->
<svg version="1.1" id="Layer_1" xmlns="http://www.w3.org/2000/svg" xmlns:xlink="http://www.w3.org/1999/xlink" x="0px" y="0px"
	 viewBox="0 0 130 130" style="enable-background:new 0 0 130 130;" xml:space="preserve">
<style type="text/css">
	.st0{fill:none;}
	.st1{fill:#4D4D4D;}
</style>
<rect class="st0" width="130" height="130"/>
<g>
	<path class="st1" d="M47.3,124.7c0,2.4,11.2,4.3,25,4.3c13.8,0,25-1.9,25-4.3c0-2.4-11.2-4.3-25-4.3
		C58.5,120.4,47.3,122.4,47.3,124.7z"/>
	<path class="st1" d="M66.7,123.8c0,1.4,9.6,1.4,9.6,0c0-2.2,0-63.9,0-63.9h-9.6C66.7,59.9,66.7,122.4,66.7,123.8z"/>
	<path class="st1" d="M32.8,71.2c-3,3.7-2.3,6.6-0.1,9c2.4,2.6,3.8,3.9,6.1,6.1c2.3,2.2,5.3,2.6,8.4,0c3-2.6,48.6-41.1,48.6-41.1
		L74.2,23.6C74.2,23.6,35.8,67.5,32.8,71.2z"/>
	<path class="st1" d="M96.3,22.7c5.2,5.1,14.7,11.9,18.6,12.3c0,0.1,0,0.2,0,0.3c2.2-3.5,3.5-7.5,3.5-11.9C118.3,11,108.3,1,95.9,1
		c-4.7,0-9.1,1.5-12.7,3.9C86.8,12.4,91.3,17.8,96.3,22.7z"/>
	<path class="st1" d="M92.7,26.4c-5.9-6.1-12.1-13.9-13-18.2c0,0,0-0.1,0-0.1c-3.8,4-6.1,9.4-6.1,15.4c0,12.4,10,22.4,22.4,22.4
		c6.1,0,11.7-2.5,15.7-6.5C106.4,37.6,97.6,31.5,92.7,26.4z"/>
	<path class="st1" d="M69.1,27.3c-0.5,0.4-0.6,1.1-0.2,1.6c2.5,6.8,12.4,17.8,21.7,21.7c0.5,0.3,0.8,0.3,1.5-0.4
		c1.1-1.1,2.5-2.5,4.4-4.5c-9.5-4.3-20.1-14.9-23-23C72.1,24.3,70.5,25.8,69.1,27.3z"/>
	<path class="st1" d="M38.9,122.2c1.9-1.6,3-3.9,3-6.3l0,0c0-2.6-1.2-5.3-3.5-7.7l0,0c-2.5-2.6-3.3-3.3-6.1-6.3l0,0
		c-1.6-1.8-3-4.3-3-6.9l0,0c0-1.9,0.7-3.8,2.6-6l0,0c1.5-1.6,2.8-3.1,4.5-4.8l0,0l0,0c0.6-0.6,0.6-1.5,0-2.1l0,0
		c-0.5-0.6-1.5-0.6-2,0l0,0c-1.7,1.8-3.1,3.2-4.6,4.8l0,0c-2.4,2.6-3.4,5.4-3.4,8l0,0c0,3.7,1.8,6.8,3.8,8.9l0,0
		c2.8,3.1,3.7,3.8,6.1,6.3l0,0c1.9,2,2.7,3.9,2.7,5.6l0,0c0,1.6-0.6,2.9-1.9,4l0,0c-1.3,1.1-3.2,1.8-5.9,1.8l0,0c-0.1,0-0.1,0-0.2,0
		l0,0c-2.7,0-5.2-0.1-7.4-0.1l0,0c-4.5,0-8.1,0-10.6,0.1l0,0c-0.8,0-1.4,0.7-1.4,1.5l0,0c0,0.8,0.6,1.5,1.4,1.5l0,0
		c2.5,0,6.1-0.1,10.6-0.1l0,0c2.3,0,4.7,0,7.4,0.1l0,0c0.1,0,0.2,0,0.2,0l0,0C34.4,124.7,37.1,123.8,38.9,122.2L38.9,122.2z"/>
</g>
</svg>
