<?xml version="1.0" encoding="utf-8"?>
<!-- Generator: Adobe Illustrator 19.2.1, SVG Export Plug-In . SVG Version: 6.00 Build 0)  -->
<svg version="1.1" id="Layer_1" xmlns="http://www.w3.org/2000/svg" xmlns:xlink="http://www.w3.org/1999/xlink" x="0px" y="0px"
	 viewBox="0 0 130 130" style="enable-background:new 0 0 130 130;" xml:space="preserve">
<style type="text/css">
	.st0{fill:none;}
	.st1{fill:#4D4D4D;}
</style>
<rect class="st0" width="130" height="130"/>
<g>
	<path class="st1" d="M103.7,66.2V50.3c0-3.1-2.6-5.7-5.7-5.7c-3.2,0-5.7,2.6-5.7,5.7v15.9C92.3,68.5,87.1,89,65,89
		c-22.7,0-27.3-21.9-27.3-22.8V50.3c0-3.1-2.6-5.7-5.7-5.7c-3.2,0-5.7,2.6-5.7,5.7v15.9c0,11,10.6,30.9,33,33.9v17.5H36.3
		c-3.2,0-5.7,2.6-5.7,5.7c0,3.2,2.6,5.7,5.7,5.7h57.3c3.2,0,5.7-2.6,5.7-5.7c0-3.1-2.6-5.7-5.7-5.7H70.7v-17.5
		C93.2,97.1,103.7,77.1,103.7,66.2z"/>
	<path class="st1" d="M87.3,34.8H76.1c-1,0-1.7-0.8-1.7-1.7c0-1,0.8-1.7,1.7-1.7h11.2l0-3.3H76.1c-1,0-1.7-0.8-1.7-1.7
		s0.8-1.7,1.7-1.7h11.2v-1.4c0-0.6,0-1.3-0.1-1.9H76.1c-1,0-1.7-0.8-1.7-1.7c0-1,0.8-1.7,1.7-1.7h10.5C84.2,8.2,75.4,1,65,1
		C54.5,1,45.8,8.2,43.4,17.9h10.5c1,0,1.7,0.8,1.7,1.7c0,1-0.8,1.7-1.7,1.7H42.8c0,0.6-0.1,1.2-0.1,1.8v1.5h11.2
		c1,0,1.7,0.8,1.7,1.7c0,1-0.8,1.7-1.7,1.7H42.7v3.3h11.2c1,0,1.7,0.8,1.7,1.7c0,1-0.8,1.7-1.7,1.7H42.7v7.5h44.5L87.3,34.8z
		 M87.3,49.8H42.7v11.8c0,12.3,10,22.2,22.3,22.2c12.3,0,22.3-9.9,22.3-22.2L87.3,49.8z"/>
</g>
</svg>
