<?xml version="1.0" encoding="utf-8"?>
<!-- Generator: Adobe Illustrator 19.2.1, SVG Export Plug-In . SVG Version: 6.00 Build 0)  -->
<svg version="1.1" id="Layer_1" xmlns="http://www.w3.org/2000/svg" xmlns:xlink="http://www.w3.org/1999/xlink" x="0px" y="0px"
	 viewBox="0 0 130 130" style="enable-background:new 0 0 130 130;" xml:space="preserve">
<style type="text/css">
	.st0{fill:none;}
	.st1{fill:#4D4D4D;}
</style>
<rect class="st0" width="130" height="130"/>
<g>
	<path class="st1" d="M128.6,54.4c-2.3-0.6-5.7,8.2-13.9,8.2C104.2,62.7,99.2,45,82.8,45c-13,0-17,10.1-17.8,10.1
		c-0.9,0-4.8-10.1-17.8-10.1c-16.4,0-21.3,17.7-31.8,17.7c-8.2,0-11.6-8.8-13.9-8.2C-0.7,55,5.3,85,34,85c18.6,0,29.6-14.5,31-14.5
		c1.4,0,12.4,14.5,31,14.5C124.7,85,130.7,55,128.6,54.4z"/>
</g>
</svg>
