<?xml version="1.0" encoding="utf-8"?>
<!-- Generator: Adobe Illustrator 19.2.1, SVG Export Plug-In . SVG Version: 6.00 Build 0)  -->
<svg version="1.1" id="Layer_1" xmlns="http://www.w3.org/2000/svg" xmlns:xlink="http://www.w3.org/1999/xlink" x="0px" y="0px"
	 viewBox="0 0 130 130" style="enable-background:new 0 0 130 130;" xml:space="preserve">
<style type="text/css">
	.st0{fill:none;}
	.st1{fill:#4C4C4C;}
</style>
<rect class="st0" width="130" height="130"/>
<g id="Myspace_icon_1_">
	<path class="st1" d="M17.8,80.3C8.5,80.3,1,87.8,1,97c0,2.2,0,4.8,0,7.6h33.6c0-3.4,0-6.3,0-7.6C34.6,87.8,27.1,80.3,17.8,80.3z
		 M107.7,68c11.8,0,21.3-9.5,21.3-21.3c0-11.8-9.6-21.3-21.3-21.3c-11.8,0-21.3,9.5-21.3,21.3C86.3,58.5,95.9,68,107.7,68z
		 M17.8,40.7C8.5,40.7,1,48.2,1,57.4c0,9.2,7.5,16.7,16.8,16.7c9.3,0,16.8-7.5,16.8-16.7C34.6,48.2,27.1,40.7,17.8,40.7z
		 M107.7,74.2c-11.8,0-21.3,9.5-21.3,21.3c0,1.5,0,5.1,0,9.1H129c0-3.1,0-6.2,0-9.1C129,83.7,119.4,74.2,107.7,74.2z M60.5,77.3
		c-11,0-19.8,8.9-19.8,19.8c0,2.4,0,5,0,7.5h39.7c0-3.3,0-6.1,0-7.5C80.3,86.2,71.4,77.3,60.5,77.3z M60.5,31.6
		c-11,0-19.8,8.9-19.8,19.8c0,10.9,8.9,19.8,19.8,19.8c11,0,19.8-8.9,19.8-19.8C80.3,40.5,71.4,31.6,60.5,31.6z"/>
</g>
</svg>
