<?xml version="1.0" encoding="utf-8"?>
<!-- Generator: Adobe Illustrator 19.2.1, SVG Export Plug-In . SVG Version: 6.00 Build 0)  -->
<svg version="1.1" id="Layer_1" xmlns="http://www.w3.org/2000/svg" xmlns:xlink="http://www.w3.org/1999/xlink" x="0px" y="0px"
	 viewBox="0 0 130 130" style="enable-background:new 0 0 130 130;" xml:space="preserve">
<style type="text/css">
	.st0{fill:none;}
	.st1{fill:#4D4D4D;}
</style>
<rect class="st0" width="130" height="130"/>
<g>
	<path class="st1" d="M116.1,99.5c-7.2,0-12.9,5.8-12.9,12.9c0,7.1,5.8,12.9,12.9,12.9c7.1,0,12.9-5.8,12.9-12.9
		C129,105.3,123.2,99.5,116.1,99.5z"/>
	<path class="st1" d="M65,99.5c-7.1,0-12.9,5.8-12.9,12.9c0,7.1,5.8,12.9,12.9,12.9c7.1,0,12.9-5.8,12.9-12.9
		C77.9,105.3,72.1,99.5,65,99.5z"/>
	<path class="st1" d="M13.9,99.5C6.8,99.5,1,105.3,1,112.4c0,7.1,5.8,12.9,12.9,12.9c7.1,0,12.9-5.8,12.9-12.9
		C26.9,105.3,21.1,99.5,13.9,99.5z"/>
	<path class="st1" d="M115.7,68H68.1V48.7c0-1.7-1.4-3.2-3.1-3.2c-1.7,0-3.1,1.4-3.1,3.2V68H13.9c-1.7,0-3.2,1.4-3.2,3.2v19
		c0,1.7,1.4,3.2,3.2,3.2c1.7,0,3.1-1.4,3.1-3.2V74.3h44.8v16.2c0,1.7,1.4,3.2,3.1,3.2c1.7,0,3.1-1.4,3.1-3.2V74.3h44.4v15.8
		c0,1.7,1.4,3.2,3.1,3.2c1.7,0,3.2-1.4,3.2-3.2v-19C118.8,69.4,117.4,68,115.7,68z"/>
	<path class="st1" d="M65,4.6c-9.5,0-17.2,7.7-17.2,17.2c0,9.5,7.7,17.3,17.2,17.3c9.5,0,17.2-7.7,17.2-17.3
		C82.2,12.4,74.5,4.6,65,4.6z"/>
</g>
</svg>
