<?xml version="1.0" encoding="utf-8"?>
<!-- Generator: Adobe Illustrator 19.2.1, SVG Export Plug-In . SVG Version: 6.00 Build 0)  -->
<svg version="1.1" id="Layer_1" xmlns="http://www.w3.org/2000/svg" xmlns:xlink="http://www.w3.org/1999/xlink" x="0px" y="0px"
	 viewBox="0 0 130 130" style="enable-background:new 0 0 130 130;" xml:space="preserve">
<style type="text/css">
	.st0{fill:none;}
	.st1{fill:#4D4D4D;}
</style>
<rect class="st0" width="130" height="130"/>
<g>
	<path class="st1" d="M123.3,94.8H94.4c-1.5,0-2.7,1.2-2.7,2.7v28.9c0,1.5,1.2,2.7,2.7,2.7h28.9c1.5,0,2.7-1.2,2.7-2.7V97.5
		C126,96,124.8,94.8,123.3,94.8z"/>
	<path class="st1" d="M35.6,94.8H6.7c-1.5,0-2.7,1.2-2.7,2.7v28.9c0,1.5,1.2,2.7,2.7,2.7h28.9c1.5,0,2.7-1.2,2.7-2.7V97.5
		C38.3,96,37.1,94.8,35.6,94.8z"/>
	<path class="st1" d="M108.8,63.6H68.2V44.4c0-1.7-1.4-3.1-3.1-3.1c-1.7,0-3.1,1.4-3.1,3.1v19.2H21c-1.7,0-3.1,1.4-3.1,3.1v18.9
		c0,1.7,1.4,3.1,3.1,3.1c1.7,0,3.1-1.4,3.1-3.1V69.9h81.6v15.8c0,1.7,1.4,3.1,3.1,3.1c1.7,0,3.1-1.4,3.1-3.1V66.8
		C111.9,65,110.6,63.6,108.8,63.6z"/>
	<path class="st1" d="M50.5,35.2h28.9c1.5,0,2.7-1.2,2.7-2.7V3.7C82,2.2,80.8,1,79.4,1H50.5c-1.5,0-2.7,1.2-2.7,2.7v28.9
		C47.8,34,49,35.2,50.5,35.2z"/>
</g>
</svg>
