<?xml version="1.0" encoding="utf-8"?>
<!-- Generator: Adobe Illustrator 19.2.1, SVG Export Plug-In . SVG Version: 6.00 Build 0)  -->
<svg version="1.1" id="Layer_1" xmlns="http://www.w3.org/2000/svg" xmlns:xlink="http://www.w3.org/1999/xlink" x="0px" y="0px"
	 viewBox="0 0 130 130" style="enable-background:new 0 0 130 130;" xml:space="preserve">
<style type="text/css">
	.st0{fill:none;}
	.st1{fill:#4D4D4D;}
</style>
<rect class="st0" width="130" height="130"/>
<g>
	<path class="st1" d="M126.3,100h-19.7c-1.5,0-2.7,1.2-2.7,2.7v19.7c0,1.5,1.2,2.7,2.7,2.7h19.7c1.5,0,2.7-1.2,2.7-2.7v-19.7
		C129,101.2,127.8,100,126.3,100z"/>
	<path class="st1" d="M75,100H55.2c-1.5,0-2.7,1.2-2.7,2.7v19.7c0,1.5,1.2,2.7,2.7,2.7H75c1.5,0,2.7-1.2,2.7-2.7v-19.7
		C77.7,101.2,76.5,100,75,100z"/>
	<path class="st1" d="M23.4,100H3.7c-1.5,0-2.7,1.2-2.7,2.7v19.7c0,1.5,1.2,2.7,2.7,2.7h19.7c1.5,0,2.7-1.2,2.7-2.7v-19.7
		C26.1,101.2,24.9,100,23.4,100z"/>
	<path class="st1" d="M116.2,68.3H68.3V48.8c0-1.7-1.4-3.1-3.1-3.1c-1.7,0-3.2,1.4-3.2,3.1v19.5H13.8c-1.7,0-3.1,1.4-3.1,3.1v19.1
		c0,1.7,1.4,3.1,3.1,3.1c1.7,0,3.1-1.4,3.1-3.1v-16H62v16.3c0,1.7,1.4,3.2,3.2,3.2c1.7,0,3.1-1.4,3.1-3.2V74.6H113v16
		c0,1.7,1.4,3.1,3.1,3.1c1.7,0,3.2-1.4,3.2-3.1V71.4C119.3,69.7,117.9,68.3,116.2,68.3z"/>
	<path class="st1" d="M50.3,39.5h29.3c1.5,0,2.7-1.2,2.7-2.7V7.6c0-1.5-1.2-2.7-2.7-2.7H50.3c-1.5,0-2.7,1.2-2.7,2.7v29.3
		C47.6,38.3,48.9,39.5,50.3,39.5z"/>
</g>
</svg>
