<?xml version="1.0" encoding="utf-8"?>
<!-- Generator: Adobe Illustrator 19.2.1, SVG Export Plug-In . SVG Version: 6.00 Build 0)  -->
<svg version="1.1" id="Layer_1" xmlns="http://www.w3.org/2000/svg" xmlns:xlink="http://www.w3.org/1999/xlink" x="0px" y="0px"
	 viewBox="0 0 130 130" style="enable-background:new 0 0 130 130;" xml:space="preserve">
<style type="text/css">
	.st0{fill:none;}
	.st1{fill:#A0A0A0;}
	.st2{fill:#B3B3B3;}
	.st3{fill:#BBBBBB;}
	.st4{fill:#F7F7F7;}
	.st5{fill:#424242;}
	.st6{fill:#4C4C4C;}
</style>
<rect class="st0" width="130" height="130"/>
<g>
	<g>
		<path class="st1" d="M104.6,17.8c-7.4-4.3-14.7-6.5-19.3-6.2L54.7,64.3l34.6,19.6l30.1-52.5C117.4,27.3,111.9,22.1,104.6,17.8z"/>
	</g>
	<g>
		<path class="st2" d="M106,18.7c-4-2.3-7.9-4-11.5-5.1l-33,57.8l15,8.6L110,21.2C108.7,20.4,107.4,19.5,106,18.7z"/>
	</g>
	<g>
		<path class="st3" d="M85.2,11.6L54.9,64l3.1,1.2l8.1,6.3l32.7-56.6C93.5,12.5,88.7,11.4,85.2,11.6z"/>
	</g>
	<g>
		<path class="st4" d="M77.9,77.5c-3.3-7-11.2-7-11.2-7c-2.2-5.1-6.8-7.8-11.8-6.5c-0.1,0.6-0.5,36.6,0.1,36.8l34.4-17.1
			C84,76.1,77.9,77.5,77.9,77.5z"/>
	</g>
	<g>
		<path class="st5" d="M55,100.9l8.3-4.1c-1.8-1.8-4.6-4-8.6-4.7C54.7,97.1,54.8,100.8,55,100.9z"/>
	</g>
	<path class="st6" d="M110.8,6.4C99.4-0.2,93-0.9,89.4,5.2c-0.2,0.3-1.7,2.6-3.5,5.4c4.7-0.3,11.9,1.8,19.2,6.1
		c7.4,4.3,12.9,9.6,15,13.8c1.8-3.1,3.1-5.2,3.3-5.6C127.2,18.4,123.2,13.6,110.8,6.4z"/>
	<g>
		<path class="st6" d="M109,69.7c-3.8,0-6.8,3-6.8,6.8v38.9H18.8V31.5h43.7c3.8,0,6.8-3,6.8-6.8c0-3.8-3-6.8-6.8-6.8H12
			c-3.8,0-6.8,3-6.8,6.8v97.5c0,3.8,3,6.8,6.8,6.8h97c3.8,0,6.8-3,6.8-6.8V76.5C115.8,72.8,112.7,69.7,109,69.7z"/>
	</g>
</g>
</svg>
