<?xml version="1.0" encoding="utf-8"?>
<!-- Generator: Adobe Illustrator 19.2.1, SVG Export Plug-In . SVG Version: 6.00 Build 0)  -->
<svg version="1.1" id="Layer_1" xmlns="http://www.w3.org/2000/svg" xmlns:xlink="http://www.w3.org/1999/xlink" x="0px" y="0px"
	 viewBox="0 0 130 130" style="enable-background:new 0 0 130 130;" xml:space="preserve">
<style type="text/css">
	.st0{fill:none;}
	.st1{fill:#4D4D4D;}
</style>
<rect class="st0" width="130" height="130"/>
<path class="st1" d="M119.6,65l9.4-6.7l-10.6-4.6l7.8-8.5l-11.3-2.3l5.8-10l-11.5,0.1l3.6-11l-11.3,2.5l1.3-11.5l-10.5,4.8L91.2,6.2
	L81.9,13L78.4,2l-7.7,8.6L65,0.6l-5.7,10L51.6,2l-3.5,11l-9.3-6.8l-1.1,11.5l-10.5-4.8l1.3,11.5l-11.3-2.5l3.6,11L9.3,32.8l5.8,10
	L3.8,45.1l7.8,8.5L1,58.3l9.4,6.7L1,71.7l10.6,4.6l-7.8,8.5l11.3,2.3l-5.8,10l11.5-0.1l-3.6,11l11.3-2.5l-1.3,11.5l10.5-4.8
	l1.1,11.5l9.3-6.8l3.5,11l7.7-8.6l5.7,10l5.7-10l7.7,8.6l3.5-11l9.3,6.8l1.1-11.5l10.5,4.8l-1.3-11.5l11.3,2.5l-3.6-11l11.5,0.1
	l-5.8-10l11.3-2.3l-7.8-8.5l10.6-4.6L119.6,65z M48.8,82.5h-5.7l-7.2-22.4v22.4h-5.3v-35h5.9l7,23.5V47.5h5.3
	C48.8,47.5,48.8,82.5,48.8,82.5z M68.5,52.8h-9.7v9.5h7.1v5.3h-7.1v9.5h9.7v5.3h-15V47.5h15V52.8z M93.9,82.5h-5l-3-19.2L83,82.5h-5
	l-5.8-34.9h5.5l2.8,18.7L83,47.6h5.5l2.8,18.7l2.6-18.7h5.5L93.9,82.5z"/>
</svg>
