<?xml version="1.0" encoding="utf-8"?>
<!-- Generator: Adobe Illustrator 19.2.1, SVG Export Plug-In . SVG Version: 6.00 Build 0)  -->
<svg version="1.1" id="Layer_1" xmlns="http://www.w3.org/2000/svg" xmlns:xlink="http://www.w3.org/1999/xlink" x="0px" y="0px"
	 viewBox="0 0 130 130" style="enable-background:new 0 0 130 130;" xml:space="preserve">
<style type="text/css">
	.st0{fill:none;}
	.st1{fill:#4C4C4C;}
</style>
<rect class="st0" width="130" height="130"/>
<g id="Shape_15_copy_1_">
	<path class="st1" d="M84.7,72.5c1.4,0.9,3,1.4,4.8,1.4c5,0,9.1-4.1,9.1-9.1c0-5-4.1-9.1-9.1-9.1c-5,0-9.1,4.1-9.1,9.1
		c0,0.4,0,0.7,0.1,1.1l-11.2,8.1V48.9l15.4-11.2c1.4,0.8,3,1.3,4.7,1.3c5,0,9.1-4.1,9.1-9.1c0-5-4.1-9.1-9.1-9.1
		c-5,0-9.1,4.1-9.1,9.1c0,0.4,0,0.8,0.1,1.3l-11.2,8.1V1h-8.8v20.2l-11.2-8.1c0.1-0.5,0.2-1.1,0.2-1.7c0-5-4.1-9.1-9.1-9.1
		s-9.1,4.1-9.1,9.1s4.1,9.1,9.1,9.1c1.6,0,3.1-0.4,4.4-1.1l15.8,11.4V56l-11.2-8.1c0.1-0.5,0.1-1,0.1-1.5c0-5-4.1-9.1-9.1-9.1
		s-9.1,4.1-9.1,9.1c0,5,4.1,9.1,9.1,9.1c1.6,0,3.2-0.4,4.5-1.2l15.7,11.4v26.9l-11.2-8.1c0.1-0.5,0.1-1,0.1-1.5c0-5-4.1-9.1-9.1-9.1
		s-9.1,4.1-9.1,9.1c0,5,4.1,9.1,9.1,9.1c1.6,0,3.2-0.4,4.5-1.2l15.7,11.3V129h0.7h7.8h0.3v-8.9L84.7,109c1.4,0.9,3.1,1.4,4.9,1.4
		c5,0,9.1-4.1,9.1-9.1s-4.1-9.1-9.1-9.1c-5,0-9.1,4.1-9.1,9.1c0,0.4,0,0.7,0.1,1.1l-11.2,8.1V83.7L84.7,72.5z"/>
</g>
</svg>
