<?xml version="1.0" encoding="utf-8"?>
<!-- Generator: Adobe Illustrator 19.2.1, SVG Export Plug-In . SVG Version: 6.00 Build 0)  -->
<svg version="1.1" id="Layer_1" xmlns="http://www.w3.org/2000/svg" xmlns:xlink="http://www.w3.org/1999/xlink" x="0px" y="0px"
	 viewBox="0 0 130 130" style="enable-background:new 0 0 130 130;" xml:space="preserve">
<style type="text/css">
	.st0{fill:none;}
	.st1{fill:#4D4D4D;}
</style>
<rect class="st0" width="130" height="130"/>
<path class="st1" d="M127.2,103.5c-1.3,1.7-3.2,2.7-5.4,2.9L21.8,117.2c-0.3,0-0.6,0.1-0.9,0.1c-4.1,0-7.5-3.1-7.9-7.1l-0.2-1.4
	c-0.1-1.1,0.7-2.1,1.8-2.2c1.1-0.1,2.1,0.7,2.2,1.8l0.2,1.4c0.2,2,1.9,3.5,3.9,3.5c0,0,0.4,0,0.4,0l100.1-10.7c1-0.1,2-0.6,2.6-1.4
	c0.7-0.8,1-1.8,0.9-2.9l-8.1-75.6c-0.1-1.1-0.6-2-1.5-2.7c-0.8-0.6-1.8-1-2.9-0.8l-1.1,0.1c-1.1,0.1-2.1-0.7-2.2-1.8
	c-0.1-1.1,0.7-2.1,1.8-2.2l1.1-0.1c2.1-0.2,4.2,0.4,5.8,1.7c1.7,1.3,2.7,3.3,3,5.4l8.1,75.6C129.2,99.8,128.6,101.9,127.2,103.5z
	 M112.3,94L12.3,104.8c-1.6,0.2-3-1-3.1-2.5L1,26.6c-0.2-1.5,1-3,2.5-3.1l100.1-10.7c0.1,0,0.2,0,0.3,0c1.4,0,2.7,1.1,2.8,2.5
	l8.1,75.6c0.1,0.7-0.1,1.5-0.6,2.1C113.7,93.6,113.1,94,112.3,94z M95.8,66.6l-46,4.9c-0.8,0.1-1.3,0.8-1.3,1.6
	c0.1,0.7,0.7,1.3,1.4,1.3c0,0,0.1,0,0.2,0l46-4.9c0.8-0.1,1.3-0.8,1.3-1.6C97.3,67.1,96.6,66.5,95.8,66.6z M94.1,53.3l-46,4.9
	c-0.8,0.1-1.3,0.8-1.3,1.6c0.1,0.7,0.7,1.3,1.4,1.3c0,0,0.1,0,0.1,0l46-4.9c0.8-0.1,1.3-0.8,1.3-1.6C95.5,53.8,94.9,53.2,94.1,53.3z
	 M89.2,40.2c0.1,0.9-0.1,1.6-0.7,2.4c-0.6,0.7-1.2,1.1-2.1,1.2c-0.9,0.1-1.6-0.1-2.4-0.7c-0.6-0.5-1-1-1.1-1.7
	c-0.1-0.4-0.4-0.8-0.8-1c-0.4-0.2-0.8-0.2-1.2,0l-1,0.5c-0.6,0.3-0.9,1-0.7,1.6c0.4,1.4,1.2,2.7,2.4,3.6c1.3,1,2.8,1.6,4.4,1.6
	c0.3,0,0.6,0,0.8,0c1.9-0.2,3.5-1.1,4.7-2.6c1.2-1.5,1.7-3.3,1.5-5.2c-0.2-1.9-1.1-3.5-2.6-4.7c-1.3-1.1-2.9-1.8-4.5-2.1
	c-0.9-0.3-1.5-0.6-2-1c-0.4-0.3-0.5-0.6-0.6-1.1c-0.1-0.5,0.1-0.8,0.3-1.1c0.3-0.3,0.6-0.5,1.3-0.6c0.4,0,0.6,0.1,0.9,0.3
	c0.2,0.2,0.4,0.3,0.4,0.5c0.2,0.3,0.5,0.6,0.8,0.7c0.4,0.1,0.8,0.1,1.1-0.1l0.9-0.5c0.7-0.4,0.9-1.2,0.6-1.8
	c-0.3-0.7-0.8-1.3-1.5-1.8c-1.2-0.9-2.5-1.3-4-1.2c-1.5,0.2-2.7,0.8-3.7,2c-0.9,1.2-1.3,2.5-1.2,4c0.2,1.5,0.8,2.7,2,3.7
	c1,0.8,2.4,1.4,3.9,1.7c1,0.3,1.9,0.7,2.6,1.3C88.7,38.6,89.1,39.3,89.2,40.2z M52.6,30.8l7.2,18.5c0.2,0.5,0.7,0.9,1.3,0.9
	c0.1,0,0.1,0,0.2,0l1.1-0.1c0.6-0.1,1.1-0.5,1.2-1.1l2.3-8.9l4.2,8.2c0.3,0.5,0.9,0.8,1.4,0.8l1.1-0.1c0.6-0.1,1.2-0.6,1.2-1.2
	l3-19.6c0.1-0.4-0.1-0.9-0.4-1.2c-0.3-0.3-0.7-0.5-1.2-0.4l-1.1,0.1c-0.6,0.1-1.2,0.6-1.2,1.2l-2.1,13.5l-4.1-7.9
	c-0.3-0.5-0.8-0.8-1.4-0.8l-0.6,0.1c-0.6,0.1-1.1,0.5-1.2,1l-2.3,8.6l-5-12.7c-0.2-0.6-0.8-1-1.5-0.9l-1.1,0.1
	c-0.4,0-0.8,0.3-1.1,0.7C52.5,29.9,52.4,30.4,52.6,30.8z M38.7,32l2.1,19c0,0.4,0.2,0.7,0.5,0.9c0.3,0.2,0.6,0.3,0.9,0.3
	c0.1,0,0.1,0,0.2,0l9.5-1.1c0.8-0.1,1.3-0.8,1.2-1.6L53,48.6c0-0.4-0.2-0.7-0.5-0.9c-0.3-0.2-0.7-0.4-1-0.3l-7,0.8L43.9,43l7-0.8
	c0.8-0.1,1.3-0.8,1.3-1.6L52,39.6c0-0.4-0.2-0.7-0.5-0.9c-0.3-0.2-0.7-0.3-1-0.3l-7,0.8L42.9,34l7-0.8c0.8-0.1,1.3-0.8,1.2-1.6
	L51,30.6c0-0.4-0.2-0.7-0.5-1c-0.3-0.2-0.7-0.3-1-0.3l-9.5,1C39.2,30.5,38.6,31.2,38.7,32z M20,53.3c0.1,0.7,0.7,1.3,1.4,1.3
	c0,0,0.1,0,0.1,0l1.1-0.1c0.4,0,0.7-0.2,0.9-0.5c0.2-0.3,0.3-0.7,0.3-1l-1.4-12.9l11.3,12.7c0.3,0.3,0.8,0.5,1.2,0.5l1.7-0.2
	c0.4,0,0.7-0.2,0.9-0.5c0.2-0.3,0.3-0.7,0.3-1l-2.1-19c-0.1-0.8-0.8-1.4-1.6-1.2l-1.1,0.1c-0.8,0.1-1.3,0.8-1.2,1.6l1.5,13.3
	L21.7,33c-0.3-0.3-0.8-0.5-1.2-0.5l-1.4,0.1c-0.8,0.1-1.3,0.8-1.3,1.6L20,53.3z M22.9,82.5c0.2,0.2,0.6,0.3,0.9,0.3
	c0.1,0,0.1,0,0.1,0l19.6-2.1c0.8-0.1,1.3-0.8,1.3-1.6l-2.1-19.6c-0.1-0.8-0.7-1.3-1.6-1.3l-19.6,2.1c-0.4,0-0.7,0.2-0.9,0.5
	c-0.2,0.3-0.3,0.7-0.3,1l2.1,19.6C22.4,81.9,22.6,82.2,22.9,82.5z M98.8,81.4c-0.1-0.8-0.7-1.3-1.6-1.3l-72.4,7.8
	c-0.8,0.1-1.3,0.8-1.3,1.6c0.1,0.7,0.7,1.3,1.4,1.3c0,0,0.1,0,0.2,0L97.6,83C98.3,82.9,98.9,82.2,98.8,81.4z M41.9,78l-1.8-16.8
	L23.3,63l1.8,16.8L41.9,78z"/>
</svg>
