<?xml version="1.0" encoding="utf-8"?>
<!-- Generator: Adobe Illustrator 19.2.1, SVG Export Plug-In . SVG Version: 6.00 Build 0)  -->
<svg version="1.1" id="Layer_1" xmlns="http://www.w3.org/2000/svg" xmlns:xlink="http://www.w3.org/1999/xlink" x="0px" y="0px"
	 viewBox="0 0 130 130" style="enable-background:new 0 0 130 130;" xml:space="preserve">
<style type="text/css">
	.st0{fill:none;}
	.st1{fill:#4D4D4D;}
</style>
<rect class="st0" width="130" height="130"/>
<path class="st1" d="M118.1,1h-75c-4.1,0-7.2,2.6-7.2,6v97.2c-3.2-1.5-7.1-2.4-11.3-2.4c-11,0-20,6.1-20,13.6
	c0,7.5,8.9,13.6,20,13.6s19.9-6.1,19.9-13.6c0-0.2-0.1-0.5-0.1-0.7V43.9h72.3v46.4c-3.2-1.5-7.2-2.5-11.4-2.5c-11,0-20,6.1-20,13.6
	c0,7.5,8.9,13.6,20,13.6c11,0,20-6.1,20-13.6l0-0.2l0-0.1V7C125.3,3.6,122.2,1,118.1,1z M116.8,35.4l-72.3,0V9.5l72.3,0V35.4z"/>
</svg>
