<?xml version="1.0" encoding="utf-8"?>
<!-- Generator: Adobe Illustrator 19.2.1, SVG Export Plug-In . SVG Version: 6.00 Build 0)  -->
<svg version="1.1" id="Layer_1" xmlns="http://www.w3.org/2000/svg" xmlns:xlink="http://www.w3.org/1999/xlink" x="0px" y="0px"
	 viewBox="0 0 130 130" style="enable-background:new 0 0 130 130;" xml:space="preserve">
<style type="text/css">
	.st0{fill:none;}
	.st1{fill:#4D4D4D;}
</style>
<rect class="st0" width="130" height="130"/>
<g>
	<path class="st1" d="M111.7,57.2c-0.4-16.7-2.9-28.1-25.6-37.8c-5.8-2.5-8.7-4.7-8.8-9c-0.1-2.8,0-3.7,0-3.7c0-3.2-2.6-5.8-5.8-5.8
		c-3.2,0-5.8,2.6-5.8,5.8v80.5c-6.7-3.6-16.5-3.5-26.5,0.6c-15.4,6.3-24.8,18.9-19.6,30.7c4.8,10.8,20.5,13.3,34.6,6.7
		c16.2-7.6,23-17.4,23-28.4c0-11.1,0-60.1,0-60.1c4,11.1,30.1,8.1,32.9,21.6C111.8,66.2,111.8,64.2,111.7,57.2z"/>
</g>
</svg>
