<?xml version="1.0" encoding="utf-8"?>
<!-- Generator: Adobe Illustrator 19.2.1, SVG Export Plug-In . SVG Version: 6.00 Build 0)  -->
<svg version="1.1" id="Layer_1" xmlns="http://www.w3.org/2000/svg" xmlns:xlink="http://www.w3.org/1999/xlink" x="0px" y="0px"
	 viewBox="0 0 130 130" style="enable-background:new 0 0 130 130;" xml:space="preserve">
<style type="text/css">
	.st0{fill:none;}
	.st1{fill:#4D4D4D;}
</style>
<rect class="st0" width="130" height="130"/>
<g>
	<path class="st1" d="M88.4,25.1V47c10,6.6,12.7,16.4,12.7,27.4c0,19.9-16.2,36.1-36.1,36.1c-19.9,0-36.1-16.1-36.1-36.1
		c0-11,6.1-20.8,12.8-27.4V25.1C25,33.9,10.4,52.6,10.4,74.4c0,30.2,24.4,54.6,54.6,54.6c30.2,0,54.7-24.4,54.7-54.6
		C119.6,52.6,108.4,33.9,88.4,25.1z"/>
	<path class="st1" d="M65.5,1h-2.8c-5.7,0-9.3,5.1-9.3,10.7v42.8c0,5.7,3.7,9.7,9.3,9.7h2.8c5.7,0,11.2-4,11.2-9.7V11.7
		C76.7,6.1,71.2,1,65.5,1z"/>
</g>
</svg>
