<?xml version="1.0" encoding="utf-8"?>
<!-- Generator: Adobe Illustrator 19.2.1, SVG Export Plug-In . SVG Version: 6.00 Build 0)  -->
<svg version="1.1" id="Layer_1" xmlns="http://www.w3.org/2000/svg" xmlns:xlink="http://www.w3.org/1999/xlink" x="0px" y="0px"
	 viewBox="0 0 130 130" style="enable-background:new 0 0 130 130;" xml:space="preserve">
<style type="text/css">
	.st0{fill:none;}
	.st1{fill:#4D4D4D;}
</style>
<rect class="st0" width="130" height="130"/>
<g>
	<g>
		<g>
			<path class="st1" d="M97,48.2L57.3,16c-0.1-0.1-0.3-0.2-0.4-0.2c0.5-1.3,0.7-2.8,0.4-4.3c-0.8-4-4.7-6.6-8.7-5.8
				c-4,0.8-6.6,4.7-5.8,8.7c0.3,1.6,1.1,2.9,2.3,4c-0.1,0.1-0.2,0.2-0.3,0.3l-24,45c-0.5,1-0.2,2.2,0.8,2.7c0.3,0.2,0.6,0.2,1,0.2
				c0.7,0,1.4-0.4,1.8-1.1l24-45c0.1-0.1,0.1-0.3,0.1-0.5c1,0.2,2,0.2,3,0c1.1-0.2,2.1-0.7,3-1.4c0.1,0.1,0.2,0.2,0.3,0.3l39.6,32.2
				c0.4,0.3,0.8,0.5,1.3,0.5c0.6,0,1.2-0.3,1.6-0.8C98,50.2,97.8,48.9,97,48.2z"/>
		</g>
		<g>
			<path class="st1" d="M50,5.6c-4.7,0-8.5,3.8-8.5,8.5c0,4.7,3.8,8.5,8.5,8.5s8.5-3.8,8.5-8.5C58.4,9.4,54.6,5.6,50,5.6z"/>
		</g>
	</g>
	<g>
		<path class="st1" d="M39.2,83.9c-0.1-0.7-0.5-1.3-1.1-1.7c-0.6-0.4-1.2-0.5-1.9-0.4c-0.7,0.1-1.3,0.5-1.7,1.1
			c-0.4,0.6-0.5,1.2-0.4,2l3.1,16.2c0.1,0.7,0.5,1.3,1.1,1.7c0.6,0.4,1.3,0.5,2,0.4c0.7-0.1,1.3-0.5,1.7-1.1
			c0.4-0.6,0.5-1.2,0.4-1.9L39.2,83.9z"/>
		<path class="st1" d="M57.6,80.9c-0.1-0.8-0.5-1.4-1.1-1.7c-0.6-0.4-1.2-0.5-2-0.4l-2.7,0.5l1.8,9.5l2.7-0.5
			c0.7-0.1,1.3-0.5,1.7-1.1c0.4-0.6,0.5-1.2,0.4-2L57.6,80.9z"/>
		<path class="st1" d="M119.2,52.2L1,76.3l9.8,48.2l118.2-24L119.2,52.2z M45.8,104.7c-1.1,1.6-2.7,2.6-4.6,3c-2,0.4-3.8,0-5.4-1.1
			c-1.6-1.1-2.6-2.7-3-4.6l-3.1-16.2c-0.4-2,0-3.8,1.1-5.4c1.1-1.6,2.7-2.7,4.6-3c2-0.4,3.8,0,5.4,1.1c1.6,1.1,2.7,2.7,3,4.6
			L47,99.2C47.3,101.2,47,103,45.8,104.7z M61.6,89.7c-1.1,1.6-2.6,2.7-4.6,3l-2.6,0.5l2.1,11.1l-4.5,0.9l-5.7-29.6l7-1.3
			c2.2-0.4,4-0.1,5.6,1.1c1.4,1.1,2.4,2.6,2.8,4.7l0.8,4.3C63.1,86.3,62.7,88.1,61.6,89.7z M69.8,101.9l-5.7-29.6l12.7-2.4l0.9,4.5
			l-8.2,1.6L71,84l6-1.1l0.9,4.5l-6,1.2l1.5,8.1l8.2-1.6l0.9,4.5L69.8,101.9z M96.2,96.8L86.4,79L90,98l-4.5,0.9l-5.7-29.6l5-1
			l9.7,18.8l-3.8-19.9l4.5-0.9l5.7,29.6L96.2,96.8z"/>
	</g>
</g>
</svg>
