<?xml version="1.0" encoding="utf-8"?>
<!-- Generator: Adobe Illustrator 19.2.1, SVG Export Plug-In . SVG Version: 6.00 Build 0)  -->
<svg version="1.1" id="Layer_1" xmlns="http://www.w3.org/2000/svg" xmlns:xlink="http://www.w3.org/1999/xlink" x="0px" y="0px"
	 viewBox="0 0 130 130" style="enable-background:new 0 0 130 130;" xml:space="preserve">
<style type="text/css">
	.st0{fill:none;}
	.st1{fill:#4D4D4D;}
</style>
<rect class="st0" width="130" height="130"/>
<g>
	<g>
		<path class="st1" d="M66.3,52.8h-4c-0.1,0-0.3,0-0.4,0H21.2c-3.5,0-6.3-2.8-6.3-6.3V30.1c0-3.5,2.8-6.3,6.3-6.3h2.2
			c1.9,0,3.5-1.5,3.5-3.5s-1.6-3.5-3.5-3.5h-2.2c-7.3,0-13.3,5.9-13.3,13.2v16.3c0,7.3,6,13.2,13.3,13.2h41.2c0.1,0,0.3,0,0.4,0h3.6
			c0.8,0,1.5,0.7,1.5,1.5v12.4c0,1.9,1.5,3.5,3.5,3.5c1.9,0,3.5-1.5,3.5-3.5V61.2C74.8,56.5,71,52.8,66.3,52.8z"/>
	</g>
	<g>
		<path class="st1" d="M108.1,1H43.5c-7.7,0-14,6.3-14,14v13.5c0,7.7,6.3,14,14,14h64.6c7.7,0,14-6.3,14-14V15
			C122.1,7.3,115.8,1,108.1,1z"/>
	</g>
	<g>
		<path class="st1" d="M75.7,78.5h-8.6c-3.4,0-6.2,2.8-6.2,6.2v38.1c0,3.4,2.8,6.2,6.2,6.2h8.6c3.4,0,6.2-2.8,6.2-6.2V84.7
			C81.9,81.3,79.1,78.5,75.7,78.5z"/>
	</g>
</g>
</svg>
