<?xml version="1.0" encoding="utf-8"?>
<!-- Generator: Adobe Illustrator 19.2.1, SVG Export Plug-In . SVG Version: 6.00 Build 0)  -->
<svg version="1.1" id="Layer_1" xmlns="http://www.w3.org/2000/svg" xmlns:xlink="http://www.w3.org/1999/xlink" x="0px" y="0px"
	 viewBox="0 0 130 130" style="enable-background:new 0 0 130 130;" xml:space="preserve">
<style type="text/css">
	.st0{fill:none;}
	.st1{fill:#4D4D4D;}
</style>
<rect class="st0" width="130" height="130"/>
<path class="st1" d="M16.2,1v125.1h0c0,0,0,0,0,0c0,1.6,1.4,2.9,3,2.9h94.5v-5.8V1H16.2z M73.8,25.4c0-2.1,1.1-3.4,3.2-3.4
	c2.1,0,3.2,1.2,3.2,3.4v7c0,2.1-1.1,3.4-3.2,3.4c-2.1,0-3.2-1.2-3.2-3.4V25.4z M80.7,55.7c-1.1,0.9-2.4,1.7-3.8,2.4
	c-0.5-1.4-1-2.7-1.6-3.9c-0.5-1.1-1.1-2-1.7-2.9C76.2,52.3,78.6,53.8,80.7,55.7z M66.2,72.1v-8.9c3.3-0.1,6.4-0.8,9.3-1.9
	c0.9,3.3,1.4,7,1.5,10.8L66.2,72.1L66.2,72.1z M76.9,74.4c-0.1,3.8-0.6,7.5-1.5,10.8c-2.9-1.1-6-1.7-9.3-1.9v-8.9H76.9z M74.8,59.1
	c-2.6,1-5.6,1.7-8.7,1.8V49.7c1.1,0.1,2.2,0.2,3.3,0.4c1.4,1.2,2.6,2.9,3.8,5.1C73.8,56.4,74.4,57.7,74.8,59.1z M57.4,31.5h2v1
	c0,1,0.4,1.3,1.1,1.3c0.7,0,1.1-0.3,1.1-1.3c0-2.8-4.1-3.3-4.1-7.1c0-2.1,1.1-3.4,3.1-3.4s3.1,1.2,3.1,3.4v0.4h-2v-0.5
	c0-1-0.4-1.3-1.1-1.3s-1,0.4-1,1.3c0,2.8,4.1,3.3,4.1,7.1c0,2.1-1.1,3.4-3.1,3.4c-2.1,0-3.1-1.2-3.1-3.4
	C57.4,32.4,57.4,31.5,57.4,31.5z M49.3,55.7c2.1-1.9,4.5-3.4,7.1-4.4c-0.6,0.9-1.2,1.8-1.7,2.9c-0.6,1.2-1.2,2.5-1.6,3.9
	C51.7,57.4,50.4,56.6,49.3,55.7z M52.4,60.3c-1,3.6-1.5,7.6-1.6,11.7h-9.3c0.3-5.7,2.6-10.8,6.2-14.8C49.1,58.5,50.7,59.5,52.4,60.3
	z M49.3,31.5h2v1c0,1,0.4,1.3,1.1,1.3c0.7,0,1.1-0.3,1.1-1.3c0-2.8-4.1-3.3-4.1-7.1c0-2.1,1.1-3.4,3.1-3.4c2,0,3.1,1.2,3.1,3.4v0.4
	h-2v-0.5c0-1-0.4-1.3-1.1-1.3c-0.7,0-1.1,0.4-1.1,1.3c0,2.8,4.1,3.3,4.1,7.1c0,2.1-1.1,3.4-3.1,3.4c-2.1,0-3.1-1.2-3.1-3.4
	C49.3,32.4,49.3,31.5,49.3,31.5z M39.2,27.2c0,2.1-1,3.3-3.1,3.3h-1v5H33V22.2h3.1c2.1,0,3.1,1.2,3.1,3.3
	C39.2,25.5,39.2,27.2,39.2,27.2z M42.5,22.2h3.1l2.1,13.4h-2.1l-0.4-2.4h-2.6l-0.4,2.4h-1.9L42.5,22.2z M41.5,74.4h9.3
	c0.1,4.2,0.7,8.1,1.7,11.7c-1.7,0.8-3.3,1.9-4.8,3.1C44.1,85.2,41.8,80.1,41.5,74.4z M49.3,90.8c1.2-0.9,2.5-1.8,3.8-2.5
	c0.5,1.3,1,2.5,1.6,3.7c0.6,1.2,1.3,2.3,2,3.3C54,94.2,51.5,92.7,49.3,90.8z M63.8,96.7c-1-0.1-1.9-0.2-2.9-0.3
	c-1.5-1.2-3-3-4.2-5.5c-0.6-1.1-1.1-2.3-1.5-3.6c2.6-1,5.5-1.6,8.6-1.8V96.7z M63.8,83.3c-3.2,0.1-6.4,0.8-9.3,1.9
	c-0.9-3.3-1.4-6.9-1.5-10.8h10.8L63.8,83.3L63.8,83.3z M63.8,72.1H53.1c0.1-3.8,0.6-7.5,1.5-10.8c2.9,1.1,6.1,1.8,9.3,1.9L63.8,72.1
	L63.8,72.1z M63.8,60.9c-3.1-0.1-6-0.8-8.7-1.8c0.5-1.4,1-2.6,1.6-3.8c1.1-2.2,2.4-3.9,3.7-5.1c1.1-0.2,2.2-0.3,3.3-0.4
	C63.8,49.7,63.8,60.9,63.8,60.9z M65.8,22.2h3.1c2.1,0,3.1,1.2,3.1,3.3v1.7c0,2.1-1,3.3-3.1,3.3h-1v5h-2.1L65.8,22.2L65.8,22.2z
	 M69,96.4c-0.9,0.2-1.9,0.3-2.9,0.3V85.6c3.1,0.1,6,0.7,8.6,1.8c-0.4,1.3-0.9,2.5-1.5,3.6C72,93.4,70.6,95.2,69,96.4z M73.3,95.3
	c0.7-1,1.4-2.1,2-3.3c0.6-1.1,1.1-2.4,1.6-3.7c1.4,0.7,2.7,1.5,3.8,2.5C78.5,92.7,76,94.2,73.3,95.3z M82.3,89.1
	c-1.5-1.2-3.1-2.2-4.8-3.1c1-3.6,1.6-7.5,1.7-11.7h9.3C88.2,80.1,85.9,85.2,82.3,89.1z M79.2,72.1c-0.1-4.2-0.6-8.2-1.6-11.7
	c1.7-0.8,3.3-1.8,4.7-3c3.6,3.9,5.9,9.1,6.2,14.8L79.2,72.1L79.2,72.1z M86.9,35.6c-0.1-0.3-0.2-0.6-0.2-1.6v-2.1
	c0-1.2-0.4-1.7-1.4-1.7h-0.7v5.5h-2.1V22.2h3.2c2.2,0,3.1,1,3.1,3.1v1c0,1.4-0.4,2.3-1.4,2.7c1,0.4,1.4,1.5,1.4,2.8v2.1
	c0,0.6,0,1.1,0.2,1.6C89,35.6,86.9,35.6,86.9,35.6z M97,24.1h-2.2v11.5h-2.1V24.1h-2.2v-1.9H97C97,22.2,97,24.1,97,24.1z M37.1,25.4
	v2c0,1-0.4,1.3-1,1.3h-1v-4.5h1C36.7,24.1,37.1,24.4,37.1,25.4z M68.9,28.6h-1v-4.5h1c0.7,0,1,0.3,1,1.3v2
	C69.9,28.3,69.6,28.6,68.9,28.6z M86.7,25.5v1.3c0,1.1-0.5,1.4-1.3,1.4h-0.8v-4.1h1C86.4,24.1,86.7,24.5,86.7,25.5z M44.9,31.3h-2
	l1-6.8L44.9,31.3z M75.9,32.5v-7.2c0-1,0.4-1.3,1.1-1.3c0.7,0,1.1,0.4,1.1,1.3v7.2c0,1-0.4,1.3-1.1,1.3
	C76.3,33.8,75.9,33.5,75.9,32.5z"/>
</svg>
