<?xml version="1.0" encoding="utf-8"?>
<!-- Generator: Adobe Illustrator 19.2.1, SVG Export Plug-In . SVG Version: 6.00 Build 0)  -->
<svg version="1.1" id="Layer_1" xmlns="http://www.w3.org/2000/svg" xmlns:xlink="http://www.w3.org/1999/xlink" x="0px" y="0px"
	 viewBox="0 0 130 130" style="enable-background:new 0 0 130 130;" xml:space="preserve">
<style type="text/css">
	.st0{fill:none;}
	.st1{fill:#4D4D4D;}
</style>
<rect class="st0" width="130" height="130"/>
<path class="st1" d="M99.1,1H82.5c-1.8,0-3.3,1.5-3.3,3.4v121.1c0,1.9,1.5,3.4,3.3,3.4h16.6c1.8,0,3.3-1.5,3.3-3.4V4.4
	C102.4,2.5,100.9,1,99.1,1z M47.5,1H30.9c-1.8,0-3.3,1.5-3.3,3.4v121.1c0,1.9,1.5,3.4,3.3,3.4h16.6c1.8,0,3.3-1.5,3.3-3.4V4.4
	C50.8,2.5,49.3,1,47.5,1z"/>
</svg>
