<?xml version="1.0" encoding="utf-8"?>
<!-- Generator: Adobe Illustrator 19.2.1, SVG Export Plug-In . SVG Version: 6.00 Build 0)  -->
<svg version="1.1" id="Layer_1" xmlns="http://www.w3.org/2000/svg" xmlns:xlink="http://www.w3.org/1999/xlink" x="0px" y="0px"
	 viewBox="0 0 130 130" style="enable-background:new 0 0 130 130;" xml:space="preserve">
<style type="text/css">
	.st0{fill:none;}
	.st1{fill:#4D4D4D;}
</style>
<rect class="st0" width="130" height="130"/>
<g>
	<g>
		<path class="st1" d="M42.8,64.9c14.2,0,25.7-11.5,25.7-25.7c0-14.2-11.5-25.7-25.7-25.7S17.1,24.9,17.1,39.1
			C17.1,53.4,28.6,64.9,42.8,64.9z M81.2,120.7l-0.3-1.4c-2.1-9-8.4-30.2-12.4-35.3c-5.5-10.1-21.2-9.6-21.2-9.6H34.8
			c0,0-11.6-0.4-18.3,9.2c-3.6,5.1-9.1,24.8-11.4,34.7c-0.4,1.5-0.5,2.5-0.5,2.5c-0.9,3.7,1.4,6.7,5.2,6.7h66.4
			C79.9,127.3,82.2,124.3,81.2,120.7z"/>
	</g>
	<g>
		<path class="st1" d="M100.2,87.9c9.4,0,16.9-7.6,16.9-16.9c0-9.4-7.6-16.9-16.9-16.9c-9.4,0-16.9,7.6-16.9,16.9
			C83.2,80.3,90.8,87.9,100.2,87.9z M125.4,124.6l-0.2-0.9c-1.4-5.9-5.5-19.8-8.2-23.2c-3.6-6.7-14-6.3-14-6.3h-8.2
			c0,0-7.6-0.3-12,6c-0.2,0.2-0.3,0.6-0.5,0.9c2.6,8.1,4.6,15.9,5.2,18.3l0.3,1.5c0.7,2.9,0.3,5.7-0.9,8.1h35.2
			C124.6,129,126.1,127,125.4,124.6z"/>
	</g>
	<g>
		<path class="st1" d="M88.3,1C76.7,1,66.7,6.5,62.1,14.5c7.6,4.3,12.8,12.4,12.8,21.8c0,2.9-0.5,5.8-1.5,8.4c2.8,1.4,6,2.4,9.3,2.9
			L74.9,57l15.8-9c14.9-1,26.6-11.1,26.6-23.4C117.3,11.5,104.3,1,88.3,1z"/>
	</g>
</g>
</svg>
