<?xml version="1.0" encoding="utf-8"?>
<!-- Generator: Adobe Illustrator 19.2.1, SVG Export Plug-In . SVG Version: 6.00 Build 0)  -->
<svg version="1.1" id="Layer_1" xmlns="http://www.w3.org/2000/svg" xmlns:xlink="http://www.w3.org/1999/xlink" x="0px" y="0px"
	 viewBox="0 0 130 130" style="enable-background:new 0 0 130 130;" xml:space="preserve">
<style type="text/css">
	.st0{fill:none;}
	.st1{fill:#4D4D4D;}
</style>
<rect class="st0" width="130" height="130"/>
<g>
	<g>
		<path class="st1" d="M41.6,60.4c15,0,27.2-12.2,27.2-27.2C68.8,18.2,56.6,6,41.6,6c-15,0-27.2,12.2-27.2,27.2
			C14.4,48.2,26.5,60.4,41.6,60.4z M82.1,119.4l-0.3-1.5C79.7,108.4,73,86,68.7,80.6c-5.8-10.7-22.4-10.2-22.4-10.2H33.1
			c0,0-12.3-0.4-19.3,9.7c-3.7,5.4-9.6,26.2-12,36.6c-0.4,1.6-0.6,2.6-0.6,2.6c-1,3.9,1.5,7,5.5,7h70.1
			C80.7,126.4,83.2,123.2,82.1,119.4z"/>
	</g>
	<g>
		<path class="st1" d="M102.2,82.8c9.9,0,17.9-8,17.9-17.9c0-9.9-8-17.9-17.9-17.9s-17.9,8-17.9,17.9
			C84.3,74.8,92.3,82.8,102.2,82.8z M128.8,121.6l-0.2-1c-1.4-6.2-5.8-21-8.6-24.5c-3.8-7-14.8-6.7-14.8-6.7h-8.7
			c0,0-8.1-0.3-12.7,6.4c-0.2,0.2-0.4,0.6-0.6,1c2.7,8.5,4.9,16.8,5.5,19.3l0.3,1.5c0.7,3,0.4,6-1,8.6h37.2
			C127.9,126.2,129.5,124.2,128.8,121.6z"/>
	</g>
	<path class="st1" d="M100.1,3.6c-9.6,0-17.2,6.6-26.4,17.3c7.9,9.2,14.6,17.3,26.4,17.3c11.8,0,20.4-10.3,26.4-17.1
		C120.4,13.2,111.7,3.6,100.1,3.6z M100.1,31c-5.8,0-10.4-4.5-10.4-10.1c0-5.6,4.7-10.1,10.4-10.1c5.8,0,10.4,4.5,10.4,10.1
		C110.5,26.5,105.9,31,100.1,31z"/>
	<g>
		<path class="st1" d="M100.1,16.3c-2.7,0-4.8,2.1-4.8,4.6c0,2.6,2.1,4.6,4.8,4.6c2.6,0,4.8-2.1,4.8-4.6
			C104.9,18.4,102.8,16.3,100.1,16.3z"/>
	</g>
</g>
</svg>
