<?xml version="1.0" encoding="utf-8"?>
<!-- Generator: Adobe Illustrator 19.2.1, SVG Export Plug-In . SVG Version: 6.00 Build 0)  -->
<svg version="1.1" id="Layer_1" xmlns="http://www.w3.org/2000/svg" xmlns:xlink="http://www.w3.org/1999/xlink" x="0px" y="0px"
	 viewBox="0 0 130 130" style="enable-background:new 0 0 130 130;" xml:space="preserve">
<style type="text/css">
	.st0{fill:none;}
	.st1{fill:#4D4D4D;}
</style>
<rect class="st0" width="130" height="130"/>
<g>
	<g>
		<path class="st1" d="M29.7,49.6c2.7,0,5.2-0.5,7.5-1.5c-2.1-4.1-3.2-8.8-3.2-13.7c0-7.4,2.6-14.2,7-19.5c-3.2-2.3-7-3.7-11.3-3.7
			c-10.6,0-19.2,8.6-19.2,19.2C10.5,41,19.1,49.6,29.7,49.6z M48.9,63.9C44.8,56.3,33,56.7,33,56.7h-9.3c0,0-8.7-0.3-13.7,6.8
			c-2.7,3.8-6.8,18.5-8.5,25.9c-0.3,1.2-0.4,1.8-0.4,1.8c-0.7,2.7,1,5,3.9,5h21.2c2.4-8.2,5.5-17.6,8.2-21.5
			c4.3-6.2,10.1-9,14.8-10.3C49.2,64.2,49,64,48.9,63.9z"/>
	</g>
	<g>
		<path class="st1" d="M128.8,91.3l-0.2-1c-1.6-6.7-6.2-22.5-9.3-26.4c-4.1-7.6-15.9-7.2-15.9-7.2h-9.3c0,0-8.7-0.3-13.7,6.8
			c-0.2,0.3-0.5,0.7-0.7,1.2c5.4,1.5,11.5,4.5,15.1,10.6c2.9,4,6.1,12.9,8.6,20.9H125C127.8,96.3,129.6,94,128.8,91.3z M92.6,48
			c2.3,1,4.9,1.6,7.6,1.6c10.6,0,19.2-8.6,19.2-19.2c0-10.6-8.6-19.2-19.2-19.2c-4.2,0-8.1,1.4-11.3,3.7c4.3,5.3,6.9,12.1,6.9,19.5
			C95.8,39.2,94.6,43.9,92.6,48z"/>
	</g>
	<g>
		<path class="st1" d="M64.9,59.6c14,0,25.3-11.3,25.3-25.3C90.2,20.4,78.9,9,64.9,9c-14,0-25.3,11.3-25.3,25.3
			C39.6,48.3,50.9,59.6,64.9,59.6z M102.6,114.5l-0.3-1.4c-2-8.8-8.2-29.6-12.2-34.7c-5.4-9.9-20.9-9.5-20.9-9.5H57
			c0,0-11.4-0.4-17.9,9c-3.5,5-8.9,24.4-11.2,34.1c-0.4,1.5-0.5,2.4-0.5,2.4c-0.9,3.6,1.4,6.5,5.1,6.5h65.2
			C101.3,121,103.6,118,102.6,114.5z"/>
	</g>
</g>
</svg>
