<?xml version="1.0" encoding="utf-8"?>
<!-- Generator: Adobe Illustrator 19.2.1, SVG Export Plug-In . SVG Version: 6.00 Build 0)  -->
<svg version="1.1" id="Layer_1" xmlns="http://www.w3.org/2000/svg" xmlns:xlink="http://www.w3.org/1999/xlink" x="0px" y="0px"
	 viewBox="0 0 130 130" style="enable-background:new 0 0 130 130;" xml:space="preserve">
<style type="text/css">
	.st0{fill:none;}
	.st1{fill:#4D4D4D;}
</style>
<rect class="st0" width="130" height="130"/>
<g>
	<g>
		<path class="st1" d="M44.3,67c14.1,0,25.5-11.4,25.5-25.5C69.8,27.4,58.4,16,44.3,16c-14.1,0-25.5,11.4-25.5,25.5
			C18.7,55.6,30.2,67,44.3,67z M82.4,122.4l-0.3-1.4c-2.1-8.9-8.3-29.9-12.3-35c-5.5-10-21.1-9.5-21.1-9.5H36.3
			c0,0-11.5-0.4-18.1,9.1c-3.5,5.1-9,24.6-11.3,34.4c-0.4,1.5-0.5,2.4-0.5,2.4c-0.9,3.6,1.4,6.6,5.1,6.6h65.8
			C81.1,129,83.3,126,82.4,122.4z"/>
	</g>
	<g>
		<path class="st1" d="M91.2,1C78.1,1,66.9,7.2,61.7,16.2c8.6,4.8,14.4,14,14.4,24.5c0,3.3-0.6,6.5-1.7,9.4
			c3.2,1.6,6.7,2.7,10.5,3.3L76.1,64l17.8-10.2c16.7-1.1,29.9-12.5,29.9-26.4C123.8,12.9,109.2,1,91.2,1z"/>
	</g>
</g>
</svg>
