<?xml version="1.0" encoding="utf-8"?>
<!-- Generator: Adobe Illustrator 19.2.1, SVG Export Plug-In . SVG Version: 6.00 Build 0)  -->
<svg version="1.1" id="Layer_1" xmlns="http://www.w3.org/2000/svg" xmlns:xlink="http://www.w3.org/1999/xlink" x="0px" y="0px"
	 viewBox="0 0 130 130" style="enable-background:new 0 0 130 130;" xml:space="preserve">
<style type="text/css">
	.st0{fill:none;}
	.st1{fill:#4D4D4D;}
</style>
<rect class="st0" width="130" height="130"/>
<g>
	<g>
		<path class="st1" d="M64.9,58.8c16,0,28.9-12.9,28.9-28.9C93.8,13.9,80.9,1,64.9,1C48.9,1,36,13.9,36,29.9
			C36,45.9,48.9,58.8,64.9,58.8z M108,121.6l-0.3-1.6c-2.3-10.1-9.4-33.9-14-39.7C87.6,69,69.9,69.5,69.9,69.5h-14
			c0,0-13-0.5-20.5,10.3c-4,5.7-10.2,27.8-12.8,39c-0.5,1.7-0.6,2.8-0.6,2.8c-1.1,4.1,1.6,7.5,5.8,7.5h74.5
			C106.5,129,109.1,125.6,108,121.6z"/>
	</g>
</g>
</svg>
