<?xml version="1.0" encoding="utf-8"?>
<!-- Generator: Adobe Illustrator 19.2.1, SVG Export Plug-In . SVG Version: 6.00 Build 0)  -->
<svg version="1.1" id="Layer_1" xmlns="http://www.w3.org/2000/svg" xmlns:xlink="http://www.w3.org/1999/xlink" x="0px" y="0px"
	 viewBox="0 0 130 130" style="enable-background:new 0 0 130 130;" xml:space="preserve">
<style type="text/css">
	.st0{fill:none;}
	.st1{fill:#4D4D4D;}
</style>
<rect class="st0" width="130" height="130"/>
<g>
	<g>
		<path class="st1" d="M44.6,65.4c14.5,0,26.2-11.7,26.2-26.2c0-14.5-11.7-26.2-26.2-26.2c-14.5,0-26.2,11.7-26.2,26.2
			C18.5,53.7,30.2,65.4,44.6,65.4z M83.7,122.3l-0.3-1.4c-2.1-9.1-8.5-30.7-12.7-35.9c-5.6-10.3-21.6-9.8-21.6-9.8H36.5
			c0,0-11.8-0.4-18.6,9.3c-3.6,5.2-9.2,25.2-11.6,35.3c-0.4,1.6-0.6,2.5-0.6,2.5C4.8,126,7.2,129,11,129h67.5
			C82.4,129,84.7,126,83.7,122.3z"/>
	</g>
	<g>
		<path class="st1" d="M85.3,42.2c-3.4,0-6.1,2.2-6.1,4.9c0,2.7,2.7,4.9,6.1,4.9c3.4,0,6.1-2.2,6.1-4.9
			C91.4,44.4,88.7,42.2,85.3,42.2z M101,1C88.1,1,77.6,9.5,77.6,19.9c0,10.5,10.5,19,23.4,19c12.9,0,23.4-8.5,23.4-19
			C124.4,9.5,114,1,101,1z"/>
	</g>
</g>
</svg>
