<?xml version="1.0" encoding="utf-8"?>
<!-- Generator: Adobe Illustrator 19.2.1, SVG Export Plug-In . SVG Version: 6.00 Build 0)  -->
<svg version="1.1" id="Layer_1" xmlns="http://www.w3.org/2000/svg" xmlns:xlink="http://www.w3.org/1999/xlink" x="0px" y="0px"
	 viewBox="0 0 130 130" style="enable-background:new 0 0 130 130;" xml:space="preserve">
<style type="text/css">
	.st0{fill:none;}
	.st1{fill:#4D4D4D;}
	.st2{fill:none;stroke:#4D4D4D;stroke-width:1.3644;stroke-miterlimit:10;}
</style>
<rect class="st0" width="130" height="130"/>
<g>
	<g>
		<polygon class="st1" points="29.3,15 32.6,2.7 78.6,15 83.9,15 32.3,1.2 31.6,1 27.9,15 		"/>
		<polygon class="st1" points="16.9,105.7 5.8,102.8 16.9,61.3 16.9,56 4.3,103.1 4.1,103.7 16.9,107.2 		"/>
		<polygon class="st1" points="113.1,22.8 113.1,24.2 124.2,27.2 113.1,68.7 113.1,74 125.7,26.9 125.9,26.3 		"/>
		<polygon class="st1" points="99.4,120 97.4,127.3 70.1,120 64.8,120 97.7,128.8 98.4,129 100.8,120 		"/>
	</g>
	<g>
		<polygon class="st1" points="113.1,28.7 113.1,52 118.9,30.3 		"/>
		<polygon class="st1" points="62,15 35.7,7.9 33.8,15 		"/>
	</g>
	<g>
		<g>
			<path class="st2" d="M113.8,120.7H16.2V14.3h97.6V120.7z"/>
		</g>
	</g>
	<rect x="21.9" y="20" class="st2" width="86.2" height="77.5"/>
	<polygon class="st1" points="83.2,69.6 68.5,81.2 68.5,97.9 108.2,97.9 108.2,86.4 	"/>
	<polygon class="st1" points="46.8,57.1 21.4,82.2 21.4,97.9 87.6,97.9 	"/>
	<path class="st1" d="M85,31.3c-5.2,0-9.4,4.2-9.4,9.4c0,5.2,4.2,9.4,9.4,9.4c5.2,0,9.4-4.2,9.4-9.4C94.4,35.4,90.2,31.3,85,31.3z"
		/>
</g>
</svg>
