<?xml version="1.0" encoding="utf-8"?>
<!-- Generator: Adobe Illustrator 19.2.1, SVG Export Plug-In . SVG Version: 6.00 Build 0)  -->
<svg version="1.1" id="Layer_1" xmlns="http://www.w3.org/2000/svg" xmlns:xlink="http://www.w3.org/1999/xlink" x="0px" y="0px"
	 viewBox="0 0 130 130" style="enable-background:new 0 0 130 130;" xml:space="preserve">
<style type="text/css">
	.st0{fill:none;}
	.st1{fill:#4D4D4D;}
	.st2{fill:none;stroke:#4D4D4D;stroke-width:1.2422;stroke-miterlimit:10;}
</style>
<rect class="st0" width="130" height="130"/>
<g>
	<g>
		<path class="st1" d="M9.5,67.9L2.3,41.3C2,39.9,2.8,38.4,4.2,38l100.2-26.8c0.2-0.1,0.5-0.1,0.7-0.1c1.2,0,2.3,0.8,2.6,2l5.8,21.6
			l1,0.1c0,0,0.1,0,0.3,0l-5.9-22c-0.6-2.1-2.8-3.3-4.8-2.8L3.9,36.8c-2.1,0.6-3.3,2.7-2.8,4.8l8.3,31V67.9z"/>
		<g>
			<polygon class="st1" points="20.2,108.1 17,95.9 15.7,95.9 18.9,108.1 			"/>
			<path class="st1" d="M128.9,87.3L121.3,59c0,1.2-0.1,2.2-0.1,2.2v2.3l6.5,24.1c0.4,1.4-0.5,2.9-1.9,3.3l-70,18.7v1.3l70.3-18.8
				C128.2,91.5,129.4,89.4,128.9,87.3z"/>
		</g>
	</g>
	<g>
		<path class="st1" d="M109.8,34.5L105.4,18c-0.5-1.8-2.3-2.8-4.1-2.3L30.8,34.5H109.8z"/>
		<path class="st1" d="M123.2,84.5l-1.9-7.2v11.1C122.8,87.8,123.6,86.1,123.2,84.5z"/>
		<path class="st1" d="M9.7,40.2l-0.5,0.1c-1.8,0.5-2.8,2.3-2.3,4.1l2.9,10.8V40.2z"/>
	</g>
	<g>
		<g>
			<path class="st1" d="M117.3,33.9H13.6c-2.5,0-4.6,2-4.6,4.6v77.1c0,2.5,2,4.6,4.6,4.6h103.7c2.5,0,4.6-2,4.6-4.6V38.5
				C121.9,36,119.8,33.9,117.3,33.9z M120.6,115.6c0,1.8-1.5,3.3-3.3,3.3H13.6c-1.8,0-3.3-1.5-3.3-3.3V38.5c0-1.8,1.5-3.3,3.3-3.3
				h103.7c1.8,0,3.3,1.5,3.3,3.3V115.6z"/>
		</g>
	</g>
	<path class="st2" d="M113.2,39.3H17.8c-1.8,0-3.3,1.5-3.3,3.3v54.6l0.2,14c0,1.8,1.5,3.3,3.3,3.3h95.2c1.8,0,3.1-1.2,3.1-3.1
		l0.2-15.1V42.6C116.5,40.8,115,39.3,113.2,39.3z"/>
	<path class="st1" d="M48.2,86.2v29h63.8c4.5,0,5-1.2,5-5v-15l-43.4-29L48.2,86.2z"/>
	<ellipse class="st1" cx="100.7" cy="54.2" rx="8.9" ry="8.9"/>
	<path class="st1" d="M14,96.9v15c0,1.8,1.5,3.3,3.3,3.3h73.9L43.7,67.6L14,96.9z"/>
</g>
</svg>
