<?xml version="1.0" encoding="utf-8"?>
<!-- Generator: Adobe Illustrator 19.2.1, SVG Export Plug-In . SVG Version: 6.00 Build 0)  -->
<svg version="1.1" id="Layer_1" xmlns="http://www.w3.org/2000/svg" xmlns:xlink="http://www.w3.org/1999/xlink" x="0px" y="0px"
	 viewBox="0 0 130 130" style="enable-background:new 0 0 130 130;" xml:space="preserve">
<style type="text/css">
	.st0{fill:none;}
	.st1{fill:#4C4C4C;}
	.st2{fill:#4D4D4D;}
</style>
<rect class="st0" width="130" height="130"/>
<g>
	<g id="Shape_156_2_">
		<path class="st1" d="M5.6,88.8c5.1,12.9,14.5,23.8,26.4,31v-55C29.9,66.7,6.3,88.1,5.6,88.8z"/>
	</g>
	<g id="Shape_160_2_">
		<path class="st1" d="M38.8,92.9c0,1.3,0,29.6,0,30.5c6.5,2.9,13.3,4.7,20.3,5.4h11.7c22.1-2.1,41.8-15.7,51.7-35.9
			C120.2,92.9,40.2,92.9,38.8,92.9z"/>
	</g>
	<g id="Shape_159_2_">
		<path class="st1" d="M98.1,10.5v75.7h27.2c2.4-6.8,3.6-13.9,3.6-21.1C129,42.9,117.2,22.1,98.1,10.5z"/>
	</g>
	<g id="Shape_158_2_">
		<path class="st2" d="M65,1.1c-7.6,0-15.1,1.5-22.3,4.2c1.7,1.5,46.6,42.3,48.7,44.2V6.9C83,3.1,74.2,1.1,65,1.1z"/>
	</g>
	<g id="Shape_157_2_">
		<path class="st2" d="M35.8,8.2C14.3,19.3,1,41,1,65.1c0,5.5,0.8,11.1,2.3,16.6c1.7-1.6,55.6-50.5,56.7-51.5
			C59,29.2,36.6,8.9,35.8,8.2z"/>
	</g>
</g>
</svg>
