<?xml version="1.0" encoding="utf-8"?>
<!-- Generator: Adobe Illustrator 19.2.1, SVG Export Plug-In . SVG Version: 6.00 Build 0)  -->
<svg version="1.1" id="Layer_1" xmlns="http://www.w3.org/2000/svg" xmlns:xlink="http://www.w3.org/1999/xlink" x="0px" y="0px"
	 viewBox="0 0 130 130" style="enable-background:new 0 0 130 130;" xml:space="preserve">
<style type="text/css">
	.st0{fill:none;}
	.st1{fill:#4D4D4D;}
</style>
<rect class="st0" width="130" height="130"/>
<g id="Pinterest_Icon_2_">
	<path class="st1" d="M68,1C32.6,1,14.7,26,14.7,46.9c0,12.7,4.9,23.9,15.3,28.1c1.7,0.7,3.2,0,3.7-1.8c0.3-1.3,1.9-4.6,2.3-5.9
		c0.5-1.8,0.3-2.5-1.1-4.1c-3-3.5-4.9-7.1-4.9-13.5c0-21.3,13.3-36.5,35.9-36.5c20,0,31,12.4,31,28.6c0,21.2-9.5,38.4-23.7,38.4
		c-7.8,0-13.6-5.7-11.8-13.5c2.2-9.3,6.6-19.4,6.6-26.1c0-6-3.3-10.4-10.1-10.4c-8,0-14.4,7.5-14.4,18.4C43.7,55.5,46,59,46,59
		s-8.1,35.3-9.5,41.3c-2.9,11.9-0.4,26.5-0.2,27.9c0.1,0.9,1.3,1.1,1.8,0.4c0.7-0.9,10.2-12.5,13.5-24.1c0.9-3.3,5.2-20.2,5.2-20.2
		c2.6,4.9,10.2,8,18.2,8c24,0,40.3-20.4,40.3-49.2C115.3,21.3,96.5,1,68,1z"/>
</g>
</svg>
