<?xml version="1.0" encoding="utf-8"?>
<!-- Generator: Adobe Illustrator 19.2.1, SVG Export Plug-In . SVG Version: 6.00 Build 0)  -->
<svg version="1.1" id="Layer_1" xmlns="http://www.w3.org/2000/svg" xmlns:xlink="http://www.w3.org/1999/xlink" x="0px" y="0px"
	 viewBox="0 0 130 130" style="enable-background:new 0 0 130 130;" xml:space="preserve">
<style type="text/css">
	.st0{fill:none;}
	.st1{fill:#4D4D4D;}
</style>
<rect class="st0" width="130" height="130"/>
<g>
	<path class="st1" d="M105.5,115.9c0,0-3.8-10.8-8.9-25.8c-1.2,0.4-2.4,0.7-3.7,0.7c-6.1,0-11.1-5-11.1-11.1c0-4.9,3.2-9,7.6-10.5
		c-3.3-9.5-6.7-19.4-9.9-28.6c-0.9,1.1-2.2,1.8-3.8,1.8c-2.8,0-5-2.2-5-5s2.2-5,5-5c0.3,0,0.7,0.1,1,0.1C70.5,14.6,65.9,1,66.2,1
		l-6.2,17.1c3.4,1.9,5.8,5.5,5.8,9.7c0,6.1-5,11.1-11.1,11.1c-0.7,0-1.5-0.1-2.2-0.2l-3.7,10.1c1.7,0.8,3,2.5,3,4.5c0,2.8-2.2,5-5,5
		c-0.5,0-0.9-0.1-1.3-0.2l-6.4,17.6c3.9,1.7,6.7,5.6,6.7,10.1c0,6.1-5,11.1-11.1,11.1c-1.1,0-2.1-0.2-3.1-0.5l-7.1,19.4l-1.9,4.5
		c1.2,0.5,20.6,8.6,45.1,8.6c12.7,0,26.7-2.2,40.2-8.7L105.5,115.9z M43.4,113.1c-2.8,0-5-2.3-5-5s2.2-5,5-5s5,2.2,5,5
		S46.2,113.1,43.4,113.1z M66.2,46.1c6.1,0,11.1,5,11.1,11.1c0,6.1-5,11.1-11.1,11.1s-11.1-5-11.1-11.1
		C55.1,51.1,60.1,46.1,66.2,46.1z M51.6,75.1c0-2.8,2.2-5,5-5s5,2.2,5,5s-2.2,5-5,5S51.6,77.8,51.6,75.1z M65.5,109
		c-6.1,0-11.1-5-11.1-11.1c0-6.1,5-11.1,11.1-11.1s11.1,5,11.1,11.1C76.6,104,71.6,109,65.5,109z M73.7,83.4c-2.8,0-5-2.2-5-5
		s2.2-5,5-5s5,2.2,5,5S76.5,83.4,73.7,83.4z M89,105.9c-2.8,0-5-2.2-5-5s2.3-5,5-5s5,2.2,5,5S91.8,105.9,89,105.9z"/>
</g>
</svg>
