<?xml version="1.0" encoding="utf-8"?>
<!-- Generator: Adobe Illustrator 19.2.1, SVG Export Plug-In . SVG Version: 6.00 Build 0)  -->
<svg version="1.1" id="Layer_1" xmlns="http://www.w3.org/2000/svg" xmlns:xlink="http://www.w3.org/1999/xlink" x="0px" y="0px"
	 viewBox="0 0 130 130" style="enable-background:new 0 0 130 130;" xml:space="preserve">
<style type="text/css">
	.st0{fill:none;}
	.st1{fill:#4D4D4D;}
</style>
<rect class="st0" width="130" height="130"/>
<g>
	<g>
		<path class="st1" d="M64.3,31.3c-19.1,0-34.7,15.6-34.7,34.7c0,19.1,15.6,34.7,34.7,34.7S99,85.1,99,66
			C99,46.9,83.5,31.3,64.3,31.3z"/>
		<path class="st1" d="M64.3,20.2C39,20.2,18.5,40.7,18.5,66c0,25.3,20.5,45.8,45.8,45.8c25.3,0,45.8-20.5,45.8-45.8
			C110.2,40.7,89.6,20.2,64.3,20.2z M64.3,103.1c-20.4,0-37.1-16.6-37.1-37S43.9,29,64.3,29c20.4,0,37.1,16.6,37.1,37.1
			S84.8,103.1,64.3,103.1z"/>
	</g>
	<path class="st1" d="M9.6,52.6c2.1-2.5,2.6-7.5,2.5-11c-0.2-4.7-1.3-13.9-1.3-13.9c-0.1-0.9-0.4-1.7-0.7-1.7s-0.5,0.8-0.5,1.7v10.9
		v1.7c0,0.2-0.1,0.4-0.2,0.5C9.3,40.9,9.2,41,9.1,41c-0.1,0-0.3-0.1-0.4-0.2c-0.1-0.1-0.2-0.3-0.2-0.5v-1.7V27.8
		c0-0.9-0.3-1.7-0.7-1.7c-0.4,0-0.7,0.8-0.7,1.7v10.9v1.7c0,0.2-0.1,0.4-0.2,0.5C6.8,40.9,6.7,41,6.6,41h0h0c-0.1,0-0.3-0.1-0.4-0.2
		C6.1,40.7,6,40.5,6,40.3v-1.7V27.8c0-0.9-0.3-1.7-0.7-1.7c-0.4,0-0.7,0.8-0.7,1.7v10.9v1.7c0,0.2-0.1,0.4-0.2,0.5
		C4.3,40.9,4.2,41,4,41c-0.1,0-0.3-0.1-0.4-0.2c-0.1-0.1-0.2-0.3-0.2-0.5v-1.7V27.8c0-0.9-0.2-1.7-0.5-1.7c-0.3,0-0.6,0.8-0.7,1.7
		c0,0-1,9.2-1.3,13.9c-0.2,3.5,0.4,8.4,2.5,11C7.1,57,2,93.3,2,98.2c0,4.3,2,7.8,4.5,7.8h0h0c2.5,0,4.5-3.5,4.5-7.8
		C11.1,93.3,6,57,9.6,52.6z"/>
	<path class="st1" d="M124.5,66.3c2.5-4.1,5.1-10.4,4.4-21.5c-0.9-15.7-8.9-29.9-10.2-26c-1.3,3.9,0.3,12.7,1,26.5
		c0.5,7.4,0.4,11.2,0.6,16c0,1,0.1,1.8,0.1,2.6c0.1,1,0.2,1.8,0.3,2.5c0.8,11.6-2.7,27.4-2.7,31.5c0,4.4,2.1,8,4.6,8h0h0
		c2.6,0,4.6-3.6,4.6-8C127.2,93.8,123.6,77.8,124.5,66.3z"/>
</g>
</svg>
