<?xml version="1.0" encoding="utf-8"?>
<!-- Generator: Adobe Illustrator 19.2.1, SVG Export Plug-In . SVG Version: 6.00 Build 0)  -->
<svg version="1.1" id="Layer_1" xmlns="http://www.w3.org/2000/svg" xmlns:xlink="http://www.w3.org/1999/xlink" x="0px" y="0px"
	 viewBox="0 0 130 130" style="enable-background:new 0 0 130 130;" xml:space="preserve">
<style type="text/css">
	.st0{fill:none;}
	.st1{fill:#4D4D4D;}
</style>
<rect class="st0" width="130" height="130"/>
<g>
	<g>
		<path class="st1" d="M89.8,96.9l-1,4.6c-0.1,0.3-0.4,0.6-0.7,0.6H43c-0.3,0-0.7-0.3-0.7-0.6l-1.1-4.6
			C41.3,96.9,89.8,96.9,89.8,96.9z"/>
		<circle class="st1" cx="32.4" cy="112.3" r="3.6"/>
		<circle class="st1" cx="43.8" cy="107.4" r="3.6"/>
		<circle class="st1" cx="43" cy="118" r="3.6"/>
		<circle class="st1" cx="95.8" cy="114.7" r="3.6"/>
		<circle class="st1" cx="80.2" cy="110.7" r="3.6"/>
		<circle class="st1" cx="53.6" cy="113.9" r="3.6"/>
		<circle class="st1" cx="66.3" cy="125.4" r="3.6"/>
	</g>
	<g>
		<path class="st1" d="M66.5,24.5c4,0,7.2,3,7,6.6l-3.2,62.3h-9.8L59.3,31C59.2,27.4,62.4,24.5,66.5,24.5"/>
	</g>
	<path class="st1" d="M37.1,32.1c4,0,7.5,3,7.8,6.6l5.3,54.7h-9.8L31,38.7C30.4,35,33.2,32.1,37.1,32.1"/>
	<path class="st1" d="M58.7,32.3c-1.2-2.3-3.8-4-6.8-4c-4,0-7,3-6.7,6.6l5.5,58.5h9.1L58.7,32.3z"/>
	<path class="st1" d="M86.5,30.1c1.2,1.3,1.7,3,1.5,4.8l0,0.2c1.6-2.2,4.3-3.7,7.2-3.7c2,0,3.9,0.8,5.1,2.1c0.2-0.4,0.3-0.8,0.3-1.2
		c0.1-0.8-0.5-1.4-0.4-2.3c0.1-0.6,0.7-1.3,0.8-1.9c0.3-1.4,0-3-0.5-4.3c-0.3-1-0.1-1.4-1.2-2.2c-0.5-0.3-1.5-0.3-1.9-0.6
		c-1.3-1.1-0.2-2.7-2-3.6c-0.8-0.4-2.1,0-2.8-0.4c-1.1-0.6-0.5-0.7-1-1.6c-0.7-1.3-0.1-1-1.4-1.6c-0.6-0.3-1.5-0.2-2.2-0.4
		c-0.7-2.1-0.1-3.4-2.8-3.9c-1.6-0.2-1.8,0.3-2.7-1c-0.7-1,0-1.2-1.2-1.9c-1.7-1.1-2.9-0.5-4-2.5c-0.6-1.1,0.1-1.5-1.6-2
		c-0.8-0.2-1.9,0-2.8,0c-0.9-2.4-4.4-0.1-6.1-0.3c-2.3-0.3-3.3-1-5.4,0.3c-1,0.6-1,1-2.2,1.2c-0.9,0.1-1.4-0.3-2.2,0
		c-1.8,0.7-2.8,2.6-4.6,3.1c-2.2,0.5-2.7-0.1-3.6,2c-0.3,0.8-0.3,1.7-0.9,2.3c-0.8,0.9-0.7,0.3-1.7,0.6c-1,0.3-0.7-0.2-1.7,0.6
		c-0.6,0.5-0.8,1.2-1.4,1.8c-1.3,1.1-3.3,0.7-4.3,2.1c-1.1,1.6,0.4,3-2.1,3.7c-0.1,1.3,0.5,3.9-0.7,4.8c-1.7,1.2-3.5-0.4-3.4,2.6
		c0,0.9,0.3,1.4,0.2,2.3c-0.1,0.9-0.5,1.2-0.4,2.2c0.1,0.6,0.3,1.1,0.6,1.6c1.2-0.9,2.8-1.5,4.5-1.5c2.9,0,5.5,1.4,7,3.5l0-0.1
		c-0.2-1.8,0.4-3.6,1.6-4.9c1.4-1.5,3.4-2.4,5.7-2.4c2.8,0,5.3,1.4,6.8,3.4c0-1.8,0.7-3.5,2-4.8c1.5-1.5,3.6-2.4,5.9-2.4
		c2.3,0,4.4,0.9,5.8,2.4c1.3,1.3,1.9,3.1,1.8,4.9l0,0.2c1.5-2.1,4-3.5,6.9-3.5C83.2,27.7,85.2,28.6,86.5,30.1z"/>
	<path class="st1" d="M71.2,92.8h8l7.4-58.5c0.2-1.4-0.2-2.7-1.1-3.7c-1-1.2-2.7-1.9-4.5-1.9c-3.6,0-6.6,2.6-6.8,5.8L71.2,92.8z"/>
	<path class="st1" d="M95.2,32.1c4,0,6.6,3,5.9,6.6L89.9,93.3h-9.8l7.1-54.7C87.6,35,91.2,32.1,95.2,32.1"/>
</g>
</svg>
