<?xml version="1.0" encoding="utf-8"?>
<!-- Generator: Adobe Illustrator 19.2.1, SVG Export Plug-In . SVG Version: 6.00 Build 0)  -->
<svg version="1.1" id="Layer_1" xmlns="http://www.w3.org/2000/svg" xmlns:xlink="http://www.w3.org/1999/xlink" x="0px" y="0px"
	 viewBox="0 0 130 130" style="enable-background:new 0 0 130 130;" xml:space="preserve">
<style type="text/css">
	.st0{fill:none;}
	.st1{fill:#4D4D4D;}
	.st2{fill:#FFFFFF;stroke:#4D4D4D;stroke-width:1.045;stroke-linecap:round;stroke-linejoin:round;stroke-miterlimit:10;}
</style>
<rect class="st0" width="130" height="130"/>
<g>
	<path class="st1" d="M99,1.7h-64c-1.5,0-2.8,1.2-2.8,2.8v17.3c0,1.5,1.2,2.7,2.8,2.7h64c1.5,0,2.8-1.2,2.8-2.7V4.5
		C101.7,3,100.5,1.7,99,1.7z"/>
	<path class="st1" d="M97.7,80.8H35.6c-2.3,0-4.2,1.8-4.2,4.1v39.3c0,2.3,1.9,4.1,4.2,4.1h51l0.1-0.1v0.1l9-8.8l6.2-6.1V84.9
		C101.9,82.6,100,80.8,97.7,80.8z"/>
	<polygon class="st2" points="86.6,113.2 86.6,127.8 101.5,113.2 	"/>
	<path class="st1" d="M124.9,28.7H5.1c-2.3,0-4.1,1.9-4.1,4.1v69.9c0,2.3,1.9,4.1,4.1,4.1H23c2.3,0,4.1-1.9,4.1-4.1V82.1
		c0-2.3,1.9-4.1,4.1-4.1h67.2c2.3,0,4.1,1.9,4.1,4.1v20.6c0,2.3,1.9,4.1,4.1,4.1h18.1c2.3,0,4.1-1.9,4.1-4.1V32.8
		C129,30.5,127.1,28.7,124.9,28.7z M99,46.3c-1.9,0-3.4-1.5-3.4-3.4c0-1.9,1.5-3.4,3.4-3.4c1.9,0,3.5,1.5,3.5,3.4
		C102.5,44.7,101,46.3,99,46.3z M112.9,46.2c-1.9,0-3.4-1.5-3.4-3.4c0-1.9,1.5-3.4,3.4-3.4s3.4,1.5,3.4,3.4
		C116.3,44.7,114.8,46.2,112.9,46.2z"/>
</g>
</svg>
