<?xml version="1.0" encoding="utf-8"?>
<!-- Generator: Adobe Illustrator 19.2.1, SVG Export Plug-In . SVG Version: 6.00 Build 0)  -->
<svg version="1.1" id="Layer_1" xmlns="http://www.w3.org/2000/svg" xmlns:xlink="http://www.w3.org/1999/xlink" x="0px" y="0px"
	 viewBox="0 0 130 130" style="enable-background:new 0 0 130 130;" xml:space="preserve">
<style type="text/css">
	.st0{fill:none;}
	.st1{fill:#4C4C4C;}
</style>
<rect class="st0" width="130" height="130"/>
<g id="Quora_icon_1_">
	<path class="st1" d="M94.5,107.7c16-10.2,26.7-28.3,26.7-49.1C121.2,26.8,96,1,64.9,1C33.9,1,8.8,26.8,8.8,58.7
		c0,31.9,25.1,56.4,56.1,56.4c4.6,0,9.1,0,13.2-0.4c5.3,9.8,13.6,16.8,30.8,13.5v-9.8C109,118.4,97.8,115.6,94.5,107.7z M93.8,66.3
		c0,9.6-2.7,18.4-7.7,24.8c-6.2-6.7-15-11.7-27.3-11V91c0,0,7.5,0.3,13.2,10.3c-2.5,0-4.8,0.2-7.1,0.2c-15.8,0-28.8-15.3-28.8-35.1
		c0-2.5,0-12.3,0-14.9c0-19.9,13.4-36.5,29.2-36.5c15.8,0,28.4,16.7,28.4,36.5C93.8,54,93.8,63.7,93.8,66.3z"/>
</g>
</svg>
