<?xml version="1.0" encoding="utf-8"?>
<!-- Generator: Adobe Illustrator 19.2.1, SVG Export Plug-In . SVG Version: 6.00 Build 0)  -->
<svg version="1.1" id="Layer_1" xmlns="http://www.w3.org/2000/svg" xmlns:xlink="http://www.w3.org/1999/xlink" x="0px" y="0px"
	 viewBox="0 0 130 130" style="enable-background:new 0 0 130 130;" xml:space="preserve">
<style type="text/css">
	.st0{fill:none;}
	.st1{fill:#4D4D4D;}
</style>
<rect class="st0" width="130" height="130"/>
<path id="svg_2" class="st1" d="M12.1,128.1c0.2-0.5,3.6-13.8,7.5-29.5L26.9,70l2.4-1.9c4.4-3.3,9.9-5.5,14.1-5.6
	c6.4-0.2,12.5,2.8,23.7,11.5c8.2,6.4,12.5,8.9,17.2,9.9c3.6,0.8,3.7,0.8,8.7-0.1c5.5-1,7.6-1.9,11.6-5.1l2.1-1.7l7.6-30.2
	c4.2-16.6,7.6-30.4,7.6-30.7c-0.1-0.3-0.7,0-2.2,1c-5,3.7-10.4,5.8-14.5,5.9c-6.4,0-12-2.6-22.9-11C75,6.4,70.6,3.5,67.3,2.3
	c-7-2.5-14.7-1.3-21.7,3.4c-2.6,1.8-2.7,1.8-2.8,1.1c-0.1-0.4-2-0.8-3.4-0.6C39.1,6.3,8,127.9,8.1,128.6c0,0.1,0.5,0.3,1.1,0.3
	c0.6,0,1.4,0.1,1.8,0.1C11.5,129.1,11.9,128.8,12.1,128.1z M86.7,83.7c-1.3-0.2-3.7-0.9-5.5-1.5l-3.2-1.2l0.4-1.7
	c0.2-0.9,0.9-3.6,1.5-5.9l1.1-4.2l2.9,1.2c2.9,1.2,7,2,8.6,1.7c0.5-0.1,0.9,0,0.9,0.3c0,0.2-0.5,2.9-1.2,5.9
	C90.8,84.3,90.9,84.3,86.7,83.7z M94,72c0-0.1,0.6-2.7,1.4-5.8c0.8-3.1,1.4-5.7,1.4-5.9c0-0.1-1.2-0.3-2.7-0.4
	c-2.8-0.2-4.8-0.7-7.7-1.9c-1-0.4-1.9-0.7-2-0.7c-0.1,0-0.8,2.5-1.6,5.5c-0.8,3-1.5,5.6-1.7,5.9c-0.4,0.5-3.1-1.2-8.1-5
	c-1.7-1.3-3.2-2.4-3.3-2.4c-0.1,0-0.7,2.5-1.5,5.5c-0.8,3-1.5,5.5-1.7,5.6c-0.2,0-1.5-0.8-2.8-1.9s-3.8-2.8-5.5-3.8l-3-1.8l1.3-5
	c0.7-2.8,1.3-5.4,1.4-5.8c0.1-0.7,0.4-0.6,2.5,0.5c1.3,0.7,3.8,2.5,5.7,3.9c1.9,1.4,3.5,2.6,3.5,2.6c0.1,0,0.8-2.7,1.6-6
	c0.8-3.3,1.5-5.9,1.6-5.8s2,1.5,4.3,3.2c2.3,1.7,4.8,3.5,5.7,3.9l1.5,0.8l1.3-5.6c0.7-3.1,1.5-5.8,1.6-6c0.2-0.2,1.3,0,2.4,0.6
	c2.4,1.1,6.5,2,8.7,2c0.8,0,1.5,0.1,1.5,0.2c0,0.1-0.6,2.8-1.4,5.9c-0.8,3.1-1.4,5.7-1.4,5.8c0.1,0.4,4.3-0.6,6.6-1.6
	c1.3-0.6,3.6-1.9,5.2-2.9c1.5-1,2.8-1.8,2.8-1.8c0,0.1-0.7,2.8-1.5,6l-1.5,5.9l-3,2c-1.7,1.1-4,2.5-5.3,3C98.2,71.4,94,72.4,94,72z
	 M29.2,62.5c0.7-2.9,1.5-5.5,1.7-5.8c0.6-0.9,3.7-2.9,6.9-4.4c3.2-1.5,7.7-2.6,7.5-1.7c-0.1,0.3-0.8,2.9-1.5,5.9l-1.4,5.4l-2.7,0.5
	c-2.9,0.5-6.9,2.3-9.8,4.3c-1,0.7-1.9,1.2-1.9,1.2C28,67.8,28.5,65.4,29.2,62.5z M100.4,47.6c-0.2-0.2,0.3-2.9,1.1-5.9
	c0.8-3,1.3-5.6,1.2-5.8c-0.1-0.1-0.5-0.2-0.9-0.1c-1.4,0.3-5.9-0.6-8.6-1.7c-2.9-1.2-2.9-1.2-3.2-0.3c-0.9,3.9-2.7,10.8-2.9,10.9
	c-0.2,0.3-3.9-2.1-7.9-5.2c-1.7-1.3-3.3-2.3-3.4-2.2c-0.2,0.1-0.9,2.7-1.6,5.8c-0.7,3-1.5,5.5-1.7,5.5c-0.2,0-2.2-1.5-4.5-3.2
	c-2.3-1.7-4.8-3.4-5.5-3.8l-1.3-0.7l-0.2,1c-0.1,0.5-0.8,3.2-1.4,5.8c-0.7,2.7-1.2,4.9-1.3,5c-0.1,0.1-1.2-0.3-2.5-0.8
	c-2.5-1.1-6.8-2-8-1.8c-2.1,0.4-2.1-0.1-0.6-6.2c0.8-3.2,1.5-5.9,1.6-6c0-0.1,1.1-0.1,2.3,0c2.8,0.1,5.4,0.7,7.9,1.9
	c1,0.5,2,0.8,2.2,0.8c0.1,0,0.9-2.6,1.7-5.7c0.8-3.1,1.5-5.7,1.5-5.8c0.2-0.4,4.7,2.4,7.9,4.8c1.7,1.3,3.3,2.4,3.5,2.4
	c0.2,0,0.9-2.5,1.7-5.6c0.8-3,1.5-5.6,1.6-5.7c0.1-0.1,1.9,1.1,4,2.7c3.7,2.9,7.2,5.1,7.4,4.7c0.1-0.1,0.7-2.7,1.5-5.7
	c0.8-3,1.4-5.6,1.5-5.7c0.1-0.1,1.3,0.3,2.7,0.9c3.3,1.4,4.4,1.6,7.5,1.8l2.6,0.1l-1.4,5.5c-0.8,3-1.4,5.7-1.3,6
	c0.1,0.4,0.6,0.4,2.9-0.3c3.2-0.9,6.1-2.3,9.2-4.4c1.2-0.8,2.1-1.3,2.2-1.1c0.2,1.1-2.7,11-3.4,11.8
	C111.8,44.2,101.3,48.8,100.4,47.6z M35.4,38.2l1.5-5.9l2.5-1.7c4.1-2.9,11.7-5.7,11.9-4.5c0,0.3-0.5,3-1.3,6l-1.4,5.5l-2.8,0.8
	c-3.5,1-6.5,2.4-9.4,4.4c-1.2,0.8-2.3,1.5-2.3,1.5C34,44.2,34.6,41.5,35.4,38.2z M58.1,26.3c-0.9-0.2-2.5-0.5-3.5-0.5
	c-1-0.1-2.1-0.2-2.4-0.2c-0.4,0-0.1-1.9,0.9-5.7c0.8-3.1,1.6-5.8,1.8-6.1c0.7-1,6.5,0,11,1.9l1.5,0.6l1.4-5.6
	c0.8-3.1,1.6-5.7,1.9-5.8c0.4-0.2,8.6,5.5,10.4,7.1c0.7,0.7,0.7,1.2-0.6,6.3c-0.8,3.1-1.5,5.6-1.6,5.7c-0.1,0.1-2-1.1-4.1-2.8
	c-3.9-3-7.1-5-7.3-4.6c-0.1,0.2-2,7.6-2.8,10.9c-0.2,0.9-0.2,0.9-2.5,0C60.8,27.2,59,26.5,58.1,26.3z M40.2,19.7
	c0-0.1,0.6-2.5,1.3-5.4c1.5-5.9,1.9-6.5,6.3-9c2.8-1.6,9-4,9.6-3.6c0.1,0.1-0.4,2.8-1.2,6.1l-1.5,6L52,14.2
	c-2.7,0.5-8.4,3.1-10.2,4.7C40.9,19.7,40.3,20.1,40.2,19.7z"/>
</svg>
