<?xml version="1.0" encoding="utf-8"?>
<!-- Generator: Adobe Illustrator 19.2.1, SVG Export Plug-In . SVG Version: 6.00 Build 0)  -->
<svg version="1.1" id="Layer_1" xmlns="http://www.w3.org/2000/svg" xmlns:xlink="http://www.w3.org/1999/xlink" x="0px" y="0px"
	 viewBox="0 0 130 130" style="enable-background:new 0 0 130 130;" xml:space="preserve">
<style type="text/css">
	.st0{fill:none;}
	.st1{fill:#4D4D4D;}
</style>
<rect class="st0" width="130" height="130"/>
<g>
	<path class="st1" d="M122.8,39.9H7.2c-2.5,0-4.5,2-4.5,4.5v80.1c0,2.5,2,4.5,4.5,4.5h115.7c2.5,0,4.5-2,4.5-4.5V44.4
		C127.4,41.9,125.3,39.9,122.8,39.9z M105.3,58.1c3.8,0,6.9,3.1,6.9,6.9c0,3.8-3.1,6.9-6.9,6.9c-3.8,0-6.9-3.1-6.9-6.9
		C98.4,61.2,101.5,58.1,105.3,58.1z M69.1,67.3c1.9,0,3.4,1.5,3.4,3.4c0,1.9-1.5,3.4-3.4,3.4c-1.9,0-3.5-1.5-3.5-3.4
		C65.6,68.8,67.2,67.3,69.1,67.3z M59.9,58.1c1.9,0,3.4,1.5,3.4,3.4c0,1.9-1.5,3.4-3.4,3.4c-1.9,0-3.5-1.5-3.5-3.4
		C56.4,59.6,58,58.1,59.9,58.1z M57.6,74.1c1.9,0,3.4,1.5,3.4,3.4c0,1.9-1.5,3.4-3.4,3.4c-1.9,0-3.4-1.5-3.4-3.4
		C54.1,75.7,55.7,74.1,57.6,74.1z M30.1,58.1c1.9,0,3.5,1.5,3.5,3.4c0,1.9-1.6,3.4-3.5,3.4c-1.9,0-3.4-1.5-3.4-3.4
		C26.6,59.6,28.2,58.1,30.1,58.1z M12.8,84.4c0-1.9,1.6-3.4,3.5-3.4c1.9,0,3.4,1.5,3.4,3.4c0,1.9-1.6,3.4-3.4,3.4
		C14.3,87.9,12.8,86.3,12.8,84.4z M20.8,101.7c-1.9,0-3.4-1.5-3.4-3.4c0-1.9,1.5-3.4,3.4-3.4c1.9,0,3.5,1.5,3.5,3.4
		C24.2,100.1,22.7,101.7,20.8,101.7z M20.8,74.1c-1.9,0-3.4-1.5-3.4-3.4c0-1.9,1.5-3.4,3.4-3.4c1.9,0,3.5,1.5,3.5,3.4
		C24.2,72.6,22.7,74.1,20.8,74.1z M30.1,110.8c-1.9,0-3.4-1.5-3.4-3.4s1.5-3.4,3.4-3.4c1.9,0,3.5,1.5,3.5,3.4S32,110.8,30.1,110.8z
		 M32.3,94.7c-1.9,0-3.4-1.5-3.4-3.4c0-1.9,1.5-3.4,3.4-3.4c1.9,0,3.4,1.5,3.4,3.4C35.7,93.2,34.2,94.7,32.3,94.7z M32.3,81
		c-1.9,0-3.4-1.5-3.4-3.4c0-1.9,1.5-3.4,3.4-3.4c1.9,0,3.4,1.5,3.4,3.4C35.7,79.5,34.2,81,32.3,81z M45,115.4
		c-1.9,0-3.4-1.5-3.4-3.4c0-1.9,1.5-3.4,3.4-3.4c1.9,0,3.4,1.5,3.4,3.4C48.4,113.8,46.9,115.4,45,115.4z M45,101.7
		c-1.9,0-3.4-1.5-3.4-3.4c0-1.9,1.5-3.4,3.4-3.4c1.9,0,3.4,1.5,3.4,3.4C48.4,100.1,46.9,101.7,45,101.7z M44.9,87.9
		c-1.9,0-3.4-1.6-3.4-3.4c0-1.9,1.5-3.4,3.4-3.4c1.9,0,3.5,1.5,3.5,3.4C48.4,86.3,46.9,87.9,44.9,87.9z M45,74.1
		c-1.9,0-3.4-1.5-3.4-3.4c0-1.9,1.5-3.4,3.4-3.4c1.9,0,3.4,1.5,3.4,3.4C48.4,72.6,46.9,74.1,45,74.1z M45,60.4
		c-1.9,0-3.4-1.5-3.4-3.4c0-1.9,1.5-3.4,3.4-3.4c1.9,0,3.4,1.5,3.4,3.4C48.4,58.8,46.9,60.4,45,60.4z M54.1,91.1
		c0-1.9,1.6-3.4,3.4-3.4c1.9,0,3.4,1.5,3.4,3.4c0,1.9-1.5,3.4-3.4,3.4C55.7,94.6,54.1,93,54.1,91.1z M60.1,110.8
		c-1.9,0-3.4-1.5-3.4-3.4s1.5-3.4,3.4-3.4c1.9,0,3.4,1.5,3.4,3.4S62,110.8,60.1,110.8z M69.1,101.7c-1.9,0-3.5-1.5-3.5-3.4
		c0-1.9,1.6-3.4,3.5-3.4s3.4,1.5,3.4,3.4C72.5,100.1,71,101.7,69.1,101.7z M73.7,87.9c-1.9,0-3.4-1.6-3.4-3.4c0-1.9,1.6-3.4,3.4-3.4
		c1.9,0,3.4,1.5,3.4,3.4C77.1,86.3,75.6,87.9,73.7,87.9z M115.3,112.7H95.5c-1.3,0-2.3-1-2.3-2.3c0-1.3,1-2.3,2.3-2.3h19.8
		c1.3,0,2.3,1,2.3,2.3C117.6,111.7,116.5,112.7,115.3,112.7z"/>
	<path class="st1" d="M31.2,5.9c0.1-0.4-2.7,3.3-1.8,2.7L95,40.1h7.4L31.2,5.9z"/>
	<ellipse class="st1" cx="29.4" cy="6.2" rx="5.2" ry="5.2"/>
</g>
</svg>
