<?xml version="1.0" encoding="utf-8"?>
<!-- Generator: Adobe Illustrator 19.2.1, SVG Export Plug-In . SVG Version: 6.00 Build 0)  -->
<svg version="1.1" id="Layer_1" xmlns="http://www.w3.org/2000/svg" xmlns:xlink="http://www.w3.org/1999/xlink" x="0px" y="0px"
	 viewBox="0 0 130 130" style="enable-background:new 0 0 130 130;" xml:space="preserve">
<style type="text/css">
	.st0{fill:none;}
	.st1{fill:#4D4D4D;}
</style>
<rect class="st0" width="130" height="130"/>
<g>
	<path class="st1" d="M110.8,19.5l10.9-0.7c3.4-0.2,6-3.1,5.7-6.5c-0.2-3.4-3.2-5.9-6.5-5.8L94.6,8.2c-3.4,0.2-5.9,3.1-5.8,6.5
		l1.4,26.4c0.2,3.3,2.9,5.8,6.1,5.8l0.3,0c3.4-0.2,6-3.1,5.8-6.5L101.9,28c9.4,9.6,14.8,22.5,14.8,36.3c0,20.4-12,39-30.6,47.4
		c-3.1,1.4-4.5,5-3.1,8.1c1,2.3,3.3,3.6,5.6,3.6c0.8,0,1.7-0.2,2.5-0.6c23-10.4,37.8-33.4,37.8-58.6C129,47.3,122.4,31.4,110.8,19.5
		z"/>
	<path class="st1" d="M46.9,10.2c-1.4-3.1-5.1-4.5-8.1-3.1C15.8,17.5,1,40.5,1,65.7c0,17.1,6.6,33,18.2,44.8l-10.9,0.7
		c-3.4,0.2-6,3.1-5.8,6.5c0.2,3.3,2.9,5.8,6.1,5.8l0.4,0l26.4-1.7c3.4-0.2,5.9-3.1,5.7-6.5l-1.4-26.4c-0.2-3.4-3-5.9-6.5-5.8
		c-3.4,0.2-6,3.1-5.8,6.5l0.7,12.4c-9.4-9.6-14.8-22.5-14.8-36.3c0-20.4,12-39,30.6-47.4C47,16.9,48.3,13.3,46.9,10.2z"/>
</g>
</svg>
