<?xml version="1.0" encoding="utf-8"?>
<!-- Generator: Adobe Illustrator 19.2.1, SVG Export Plug-In . SVG Version: 6.00 Build 0)  -->
<svg version="1.1" id="Layer_1" xmlns="http://www.w3.org/2000/svg" xmlns:xlink="http://www.w3.org/1999/xlink" x="0px" y="0px"
	 viewBox="0 0 130 130" style="enable-background:new 0 0 130 130;" xml:space="preserve">
<style type="text/css">
	.st0{fill:none;}
	.st1{fill:#4C4C4C;}
</style>
<rect class="st0" width="130" height="130"/>
<g id="Shape_147_2_">
	<path class="st1" d="M61.7,66.3c-19.4-18.2-54-22.5-54-22.5c-3.9,0-7.1,2.7-7.1,6.6v12.4c0,3.9,3.2,6.6,7.1,6.6
		c0,0,22.3,0.6,35.6,13c17.6,16.4,17.2,39.1,17.2,39.1c0,3.9,1.8,7.1,5.7,7.1h13.7c3.9,0,4.9-3.2,4.9-7.1
		C84.8,121.5,81.5,84.9,61.7,66.3z M19,94c-9.7,0-17.5,7.8-17.5,17.5c0,9.7,7.8,17.5,17.5,17.5c9.7,0,17.5-7.8,17.5-17.5
		C36.5,101.8,28.6,94,19,94z M96.3,41.7C65.9,5,7.7,1,7.7,1C3.8,1,0.6,3.7,0.6,7.6V20c0,3.9,3.2,6.6,7.1,6.6c0,0,41.6,1.3,65,29
		c32.1,33.1,29.7,66.1,29.7,66.1c0,3.9,3.2,7.1,7.1,7.1h13.7c3.9,0,6.2-3.2,6.2-7.1C129.4,121.8,126.5,69.8,96.3,41.7z"/>
</g>
</svg>
