<?xml version="1.0" encoding="utf-8"?>
<!-- Generator: Adobe Illustrator 19.2.1, SVG Export Plug-In . SVG Version: 6.00 Build 0)  -->
<svg version="1.1" id="Layer_1" xmlns="http://www.w3.org/2000/svg" xmlns:xlink="http://www.w3.org/1999/xlink" x="0px" y="0px"
	 viewBox="0 0 130 130" style="enable-background:new 0 0 130 130;" xml:space="preserve">
<style type="text/css">
	.st0{fill:none;}
	.st1{fill:#4D4D4D;}
</style>
<rect class="st0" width="130" height="130"/>
<g>
	<path class="st1" d="M15.7,15.9c0.1,0.1,0.1,0.1,0.2,0.2l98.1,95c0,0,0,0,0,0c0,0,0,0-0.1,0c-0.1,0-10.1,1.3-23.4,1.3
		c-19.6,0-45.9-2.8-59.7-16.2C7.7,73.9,15.5,16.7,15.6,16.1C15.6,16,15.6,16,15.7,15.9 M15.3,13.2c-1.1,0-1.9,0.9-2.1,2.6
		c0,0-8.4,58.7,16,82.3c14.4,14,41.6,16.8,61.4,16.8c13.6,0,23.7-1.4,23.7-1.4c2.8-0.4,3.4-2.2,1.4-4.2l-98.1-95
		C16.8,13.6,16,13.2,15.3,13.2L15.3,13.2z"/>
	<path class="st1" d="M97.2,32.2c-3.5-3.4-9.3-3.4-12.8,0c-3.3,3.2-3.5,8.3-0.6,11.7L49.4,65.7l8.5,8.2l27.4-28.7
		c3.5,2.7,8.7,2.5,11.9-0.7C100.8,41.1,100.8,35.6,97.2,32.2z"/>
	<path class="st1" d="M51.9,126.7l-5.1-11.8c-0.6-1.2-2.1-2.8-3.3-3.4c0,0-14.1-4.6-23.3-17.3c-0.8-1.1-2.4-0.4-2.9,0.9L2.4,126.6
		c-0.5,1.3,0.3,2.4,1.7,2.4h46.3C51.8,129,52.5,128,51.9,126.7z"/>
	<path class="st1" d="M94,15.5c-1.6-0.2-3.2-0.2-4.8,0c-1.5,0.2-2.5,1.5-2.3,2.9c0.2,1.4,1.5,2.5,3,2.3c1.2-0.1,2.4-0.1,3.6,0
		c4.2,0.5,7.9,2.5,10.5,5.7c2.6,3.2,3.8,7.3,3.3,11.4c-0.1,1.2-0.4,2.4-0.8,3.6c-0.5,1.4,0.2,2.9,1.6,3.4c0.9,0.3,1.9,0.1,2.6-0.4
		c0.4-0.3,0.7-0.7,0.8-1.2c0.6-1.5,0.9-3.1,1.1-4.8c0.6-5.5-0.9-11-4.4-15.3C104.6,18.8,99.6,16,94,15.5z M120.1,14
		c-6.1-7.5-14.9-12.1-24.8-12.9C94,1,92.7,1,91.2,1c-1.5,0-2.6,1.2-2.6,2.7c0,1.5,1.3,2.6,2.7,2.6c1.3,0,2.4,0,3.5,0.1
		c8.5,0.7,16,4.6,21.1,10.9c5.1,6.3,7.3,14.4,6.2,22.8c-0.1,1-0.4,2.1-0.6,3.1c-0.3,1.4,0.5,2.9,2,3.2c0.8,0.2,1.7,0,2.3-0.5
		c0.4-0.4,0.8-0.9,0.9-1.4c0.3-1.2,0.5-2.5,0.7-3.7C128.7,31,126.2,21.5,120.1,14z"/>
	<path class="st1" d="M14.6,15.1l-1.5,1.5c-0.9,7-6.6,59.5,16.1,81.4c24.4,23.6,85.1,15.5,85.1,15.5c0.3,0,0.6-0.1,0.8-0.2l1.1-0.9
		C45.1,83.4,14.6,15.1,14.6,15.1z"/>
</g>
</svg>
