<?xml version="1.0" encoding="utf-8"?>
<!-- Generator: Adobe Illustrator 19.2.1, SVG Export Plug-In . SVG Version: 6.00 Build 0)  -->
<svg version="1.1" id="Layer_1" xmlns="http://www.w3.org/2000/svg" xmlns:xlink="http://www.w3.org/1999/xlink" x="0px" y="0px"
	 viewBox="0 0 130 130" style="enable-background:new 0 0 130 130;" xml:space="preserve">
<style type="text/css">
	.st0{fill:none;}
	.st1{fill:#4D4D4D;}
</style>
<rect class="st0" width="130" height="130"/>
<g>
	<path class="st1" d="M113.6,123l-2.9-1.8c-3.2-2-6.2-3.9-8.9-6.2c-8.1-6.9-13.7-16.2-18.6-25.4c-5.2-9.8-10.8-27.9-13.7-44.9
		c4.2-1.4,7.3-5.3,7.3-10c0-5.8-4.8-10.6-10.6-10.6c-5.9,0-10.6,4.7-10.6,10.6c0,4.6,3,8.6,7.2,10c-2.9,17.1-8.2,35-14.1,44.9
		C42.3,100,36.4,108,28.3,114.9c-2.7,2.3-5.7,4.2-8.9,6.2l-2.8,1.8c-1.7,0-3,1.4-3,3c0,1.7,1.4,3,3,3h28.9c1.7,0,3-1.4,3-3
		c0-1.6-1.2-2.8-2.7-3l-0.1-0.8c-0.1-1.1-0.2-2.1-0.2-3.1c0-5.8,2.4-10.2,5.2-13.4c3.3-3.7,8.3-7,15.1-7c3.5,0,6.3,0.9,8.8,2.2
		c2.5,1.3,4.5,2.9,6.2,4.8c2.9,3.3,5.3,7.7,5.3,13.6c0,0.9-0.1,1.9-0.2,2.9l-0.1,0.7c-1.7,0-3,1.4-3,3c0,1.7,1.4,3,3,3h27.6
		c1.7,0,3-1.4,3-3C116.4,124.4,115.1,123.1,113.6,123z M66,93c-2.2,0-4.1-1.8-4.1-4.1c0-2.2,1.8-4.1,4.1-4.1c2.2,0,4.1,1.8,4.1,4.1
		C70,91.2,68.2,93,66,93z M66,79.3c-2.2,0-4.1-1.8-4.1-4.1s1.8-4.1,4.1-4.1c2.2,0,4.1,1.8,4.1,4.1S68.2,79.3,66,79.3z M66,65.7
		c-2.2,0-4.1-1.8-4.1-4.1c0-2.3,1.8-4.1,4.1-4.1c2.2,0,4.1,1.8,4.1,4.1C70,63.8,68.2,65.7,66,65.7z"/>
	<path class="st1" d="M56.1,50.7c-1.2-0.8-2.4-1.7-3.5-2.7c-3.5-3.5-5.5-8.2-5.5-13.1c0-4.9,1.9-9.6,5.5-13.1c1-1,2.2-1.9,3.4-2.6
		c1.5-0.9,1.9-2.9,1-4.4c-0.9-1.5-2.9-1.9-4.3-1c-1.6,1-3.1,2.2-4.5,3.5c-4.7,4.7-7.3,11-7.3,17.6c0,6.7,2.6,12.9,7.3,17.6
		c1.4,1.4,2.9,2.6,4.6,3.6c0.5,0.3,1.1,0.5,1.6,0.5c1.1,0,2.1-0.5,2.7-1.5C58,53.5,57.5,51.6,56.1,50.7z M43.5,63.5
		c-1-0.8-2-1.6-2.9-2.5c-7.3-6.9-11.3-16.1-11.3-25.8c0-9.7,4-18.9,11.3-25.9c0.9-0.9,1.9-1.7,3.2-2.7c1.4-1.1,1.7-3,0.6-4.4
		s-3-1.7-4.4-0.6c-1.4,1.1-2.6,2.1-3.7,3.1C27.7,12.9,23,23.7,23,35.2c0,11.5,4.7,22.3,13.3,30.4c1.1,1,2.2,2,3.4,2.9
		c0.6,0.5,1.2,0.7,1.9,0.7c0.9,0,1.9-0.4,2.5-1.2C45.2,66.6,44.9,64.6,43.5,63.5z M84.8,17.2c-1.4-1.3-2.9-2.5-4.5-3.5
		c-1.5-0.9-3.4-0.5-4.4,1c-0.9,1.5-0.5,3.4,1,4.4c1.2,0.7,2.4,1.6,3.4,2.6c3.5,3.5,5.5,8.2,5.5,13.1c0,4.9-2,9.6-5.5,13.1
		c-1,1-2.2,1.9-3.5,2.7c-1.5,0.9-2,2.9-1,4.3c0.6,1,1.6,1.5,2.7,1.5c0.6,0,1.1-0.1,1.6-0.5c1.7-1,3.2-2.2,4.6-3.6
		c4.7-4.7,7.3-11,7.3-17.6C92.1,28.2,89.5,21.9,84.8,17.2z M96.6,4.8c-1.1-1.1-2.3-2-3.7-3.1c-1.4-1.1-3.4-0.8-4.4,0.6
		c-1.1,1.4-0.8,3.4,0.6,4.4c1.2,0.9,2.2,1.8,3.2,2.7c7.3,6.9,11.3,16.1,11.3,25.9c0,9.7-4,18.9-11.3,25.8c-0.9,0.8-1.9,1.7-2.9,2.5
		c-1.4,1.1-1.6,3.1-0.6,4.4c0.6,0.8,1.5,1.2,2.5,1.2c0.7,0,1.4-0.2,1.9-0.7c1.2-0.9,2.3-1.9,3.4-2.9c8.6-8.1,13.3-18.9,13.3-30.4
		C109.9,23.7,105.2,12.9,96.6,4.8z"/>
</g>
</svg>
