<?xml version="1.0" encoding="utf-8"?>
<!-- Generator: Adobe Illustrator 19.2.1, SVG Export Plug-In . SVG Version: 6.00 Build 0)  -->
<svg version="1.1" id="Layer_1" xmlns="http://www.w3.org/2000/svg" xmlns:xlink="http://www.w3.org/1999/xlink" x="0px" y="0px"
	 viewBox="0 0 130 130" style="enable-background:new 0 0 130 130;" xml:space="preserve">
<style type="text/css">
	.st0{fill:none;}
	.st1{fill:#4D4D4D;}
</style>
<rect class="st0" width="130" height="130"/>
<g>
	<path class="st1" d="M46.9,72l-30.1,30.1l0-17.4c0-4.3-3.5-7.9-7.9-7.9c-4.3,0-7.9,3.5-7.9,7.9l0,36.4c0,0.5,0.1,1,0.2,1.5
		c0,0.2,0.1,0.5,0.2,0.7c0.1,0.3,0.1,0.5,0.2,0.8c0.1,0.3,0.3,0.5,0.4,0.8c0.1,0.2,0.2,0.4,0.3,0.6c0.6,0.9,1.3,1.6,2.2,2.2
		c0.2,0.1,0.4,0.2,0.6,0.3c0.3,0.1,0.5,0.3,0.8,0.4c0.3,0.1,0.5,0.2,0.8,0.2c0.2,0.1,0.4,0.2,0.7,0.2c0.5,0.1,1,0.2,1.5,0.2l36.4,0
		c4.3,0,7.9-3.5,7.9-7.9c0-4.3-3.5-7.9-7.9-7.9l-17.4,0L58,83.1c3.1-3.1,3.1-8.1,0-11.1C54.9,68.9,49.9,68.9,46.9,72z M8.9,53.1
		c4.3,0,7.9-3.5,7.9-7.9V27.9L46.8,58c1.5,1.5,3.6,2.3,5.6,2.3s4-0.8,5.6-2.3c3.1-3.1,3.1-8.1,0-11.1L27.9,16.8h17.4
		c4.4,0,7.9-3.5,7.9-7.9c0-4.4-3.5-7.9-7.9-7.9L8.9,1c-0.5,0-1,0.1-1.5,0.2C7.1,1.2,6.9,1.3,6.7,1.4C6.4,1.5,6.1,1.5,5.9,1.6
		C5.6,1.7,5.4,1.9,5.1,2C4.9,2.1,4.7,2.2,4.5,2.3C3.7,2.9,2.9,3.7,2.3,4.5C2.2,4.7,2.1,4.9,2,5.1C1.9,5.4,1.7,5.6,1.6,5.9
		C1.5,6.1,1.4,6.4,1.4,6.7C1.3,6.9,1.2,7.1,1.2,7.4C1.1,7.9,1,8.4,1,8.9l0,36.4C1,49.6,4.5,53.1,8.9,53.1z M77.6,60.3
		c2,0,4-0.8,5.6-2.3l30.1-30.1v17.4c0,4.3,3.5,7.9,7.9,7.9c4.4,0,7.9-3.5,7.9-7.9l0-36.4c0-0.5,0-1-0.1-1.5c0-0.2-0.1-0.5-0.2-0.7
		c-0.1-0.3-0.1-0.5-0.2-0.8c-0.1-0.3-0.3-0.5-0.4-0.8c-0.1-0.2-0.2-0.4-0.3-0.6c-0.6-0.9-1.3-1.6-2.2-2.2c-0.2-0.1-0.4-0.2-0.6-0.3
		c-0.3-0.1-0.5-0.3-0.8-0.4c-0.3-0.1-0.5-0.2-0.8-0.2c-0.2-0.1-0.5-0.2-0.7-0.2c-0.5-0.1-1-0.2-1.5-0.2L84.7,1
		c-4.3,0-7.9,3.5-7.9,7.9c0,4.3,3.5,7.9,7.9,7.9l17.4,0L72,46.8c-3.1,3.1-3.1,8.1,0,11.1C73.5,59.5,75.6,60.3,77.6,60.3z
		 M121.2,77.5c-4.3,0-7.8,3.5-7.8,7.8v17.1L83.7,72.7c-1.5-1.5-3.5-2.3-5.5-2.3s-4,0.8-5.5,2.3c-3,3-3,8,0,11l29.7,29.7l-17.1,0
		c-4.3,0-7.8,3.5-7.8,7.8c0,4.3,3.5,7.8,7.8,7.8l35.9,0c0.5,0,1-0.1,1.5-0.2c0.2,0,0.4-0.1,0.7-0.2c0.3-0.1,0.5-0.1,0.8-0.2
		c0.3-0.1,0.5-0.3,0.8-0.4c0.2-0.1,0.4-0.2,0.6-0.3c0.9-0.6,1.6-1.3,2.2-2.2c0.1-0.2,0.2-0.4,0.3-0.6c0.1-0.3,0.3-0.5,0.4-0.8
		c0.1-0.3,0.2-0.5,0.2-0.8c0.1-0.2,0.2-0.4,0.2-0.7c0.1-0.5,0.1-1,0.1-1.5l0-35.9C129,81,125.5,77.5,121.2,77.5z"/>
</g>
</svg>
