<?xml version="1.0" encoding="utf-8"?>
<!-- Generator: Adobe Illustrator 19.2.1, SVG Export Plug-In . SVG Version: 6.00 Build 0)  -->
<svg version="1.1" id="Layer_1" xmlns="http://www.w3.org/2000/svg" xmlns:xlink="http://www.w3.org/1999/xlink" x="0px" y="0px"
	 viewBox="0 0 130 130" style="enable-background:new 0 0 130 130;" xml:space="preserve">
<style type="text/css">
	.st0{fill:none;}
	.st1{fill:#4D4D4D;}
</style>
<rect class="st0" width="130" height="130"/>
<g>
	<path class="st1" d="M82.4,60.2c2.1,2.1,3.1,0.4,3.1,0.4c5.1-5.1,17.5-17.4,24.3-24.3c2.4-2.4,3.9-3.9,3.9-3.9s6.4,6.4,9.1,9
		c2.6,2.7,2.5-2.1,2.5-2.1l3.3-35.4c0,0,0.2-2.9-2.5-2.9c-3.8,0-35.5,4.5-35.5,4.5s-4.8,0-1.6,3.2c3.2,3.2,8.3,8.4,8.3,8.4
		s-1.4,1.4-3.5,3.5c-6.6,6.6-19.4,19.4-24.3,24.3c0,0-1.2,1.1,0.3,2.6C71.2,48.9,80.4,58.1,82.4,60.2z M47,69.8
		c-2.1-2.1-3.1-0.4-3.1-0.4c-5.1,5.1-17.5,17.5-24.3,24.3c-2.4,2.4-3.9,4-3.9,4s-6.4-6.4-9-9.1C4,86,4.2,90.7,4.2,90.7l-3.3,35.4
		c0,0-0.2,2.9,2.5,2.9c3.8,0,35.6-4.5,35.6-4.5s4.8,0,1.6-3.2c-3.2-3.2-8.3-8.3-8.3-8.3s1.4-1.4,3.5-3.5C42.3,102.8,55.1,90,60,85.1
		c0,0,1.2-1.1-0.3-2.6C58.3,81,49.1,71.9,47,69.8z M60.7,44.2c-5-5.1-17.4-17.4-24.2-24.3c-2.4-2.4-4-3.9-4-3.9s6.4-6.4,9-9
		c2.6-2.6-2.1-2.5-2.1-2.5L4,1.1c0,0-2.9-0.2-2.9,2.5c0,3.8,4.5,35.6,4.5,35.6s0,4.8,3.2,1.6c3.2-3.2,8.3-8.3,8.3-8.3
		s1.4,1.4,3.5,3.5c6.6,6.6,19.4,19.4,24.3,24.3c0,0,1.1,1.2,2.6-0.3c1.5-1.5,10.7-10.6,12.7-12.7C62.4,45.2,60.7,44.2,60.7,44.2z
		 M124.7,90.8c0,0,0-4.8-3.2-1.6c-3.2,3.2-8.3,8.4-8.3,8.4s-1.4-1.4-3.5-3.5c-6.6-6.6-19.4-19.4-24.3-24.3c0,0-1.1-1.2-2.6,0.3
		C81.2,71.5,72.1,80.6,70,82.7c-2.1,2.1-0.3,3.1-0.3,3.1c5,5.1,17.4,17.5,24.3,24.3c2.4,2.4,3.9,3.9,3.9,3.9s-6.4,6.4-9,9
		c-2.6,2.6,2.1,2.5,2.1,2.5l35.4,3.4c0,0,2.9,0.2,2.9-2.5C129.2,122.6,124.7,90.8,124.7,90.8z"/>
</g>
</svg>
