<?xml version="1.0" encoding="utf-8"?>
<!-- Generator: Adobe Illustrator 19.2.1, SVG Export Plug-In . SVG Version: 6.00 Build 0)  -->
<svg version="1.1" id="Layer_1" xmlns="http://www.w3.org/2000/svg" xmlns:xlink="http://www.w3.org/1999/xlink" x="0px" y="0px"
	 viewBox="0 0 130 130" style="enable-background:new 0 0 130 130;" xml:space="preserve">
<style type="text/css">
	.st0{fill:none;}
	.st1{fill:#4D4D4D;}
</style>
<rect class="st0" width="130" height="130"/>
<g>
	<path class="st1" d="M74.8,50.1c0,0.2,0.1,0.4,0.2,0.6c0.1,0.2,0.1,0.4,0.2,0.6c0.1,0.2,0.2,0.4,0.3,0.6c0.1,0.2,0.2,0.3,0.3,0.5
		c0.5,0.7,1.1,1.3,1.8,1.8c0.1,0.1,0.3,0.2,0.4,0.2c0.2,0.1,0.4,0.3,0.7,0.3c0.2,0.1,0.4,0.1,0.6,0.2c0.2,0.1,0.4,0.1,0.6,0.2
		c0.4,0.1,0.8,0.1,1.2,0.1l0.1,0l34.6,0h0c3.5,0,6.4-2.9,6.4-6.4c0-3.5-2.9-6.4-6.4-6.4l-19.2,0L127,11.9c2.5-2.5,2.5-6.5,0-9
		c-2.5-2.5-6.5-2.5-9,0L87.5,33.4V14.2c0-3.5-2.9-6.4-6.4-6.4c-3.5,0-6.4,2.9-6.4,6.4l0,34.6C74.7,49.2,74.7,49.6,74.8,50.1z
		 M55.2,79.9c0-0.2-0.1-0.4-0.2-0.6c-0.1-0.2-0.1-0.4-0.2-0.6c-0.1-0.2-0.2-0.4-0.3-0.6c-0.1-0.2-0.2-0.3-0.3-0.5
		c-0.5-0.7-1.1-1.3-1.8-1.8c-0.1-0.1-0.3-0.2-0.5-0.3c-0.2-0.1-0.4-0.2-0.6-0.3c-0.2-0.1-0.4-0.1-0.6-0.2c-0.2-0.1-0.4-0.1-0.6-0.2
		c-0.4-0.1-0.8-0.1-1.3-0.1l-34.6,0c-3.5,0-6.4,2.9-6.4,6.4s2.9,6.4,6.4,6.4l19.2,0L3,118.1c-2.5,2.5-2.5,6.5,0,9
		c1.2,1.2,2.9,1.9,4.5,1.9c1.6,0,3.3-0.6,4.5-1.9l30.5-30.5l0,19.2c0,3.5,2.9,6.4,6.4,6.4c3.5,0,6.4-2.9,6.4-6.4l0-34.6
		C55.3,80.8,55.3,80.3,55.2,79.9z M48.9,7.8c-3.5,0-6.4,2.9-6.4,6.4v19.2L12,2.9c-2.5-2.5-6.5-2.5-9,0c-2.5,2.5-2.5,6.5,0,9
		l30.5,30.5l-19.2,0c-3.5,0-6.4,2.9-6.4,6.4c0,3.5,2.9,6.4,6.4,6.4l34.6,0c0,0,0,0,0.1,0c0.4,0,0.8,0,1.2-0.1c0.2,0,0.4-0.1,0.6-0.2
		c0.2-0.1,0.4-0.1,0.6-0.2c0.2-0.1,0.4-0.2,0.7-0.3c0.2-0.1,0.3-0.1,0.4-0.2c0.7-0.5,1.3-1.1,1.8-1.8c0.1-0.1,0.2-0.3,0.2-0.5
		c0.1-0.2,0.2-0.4,0.3-0.6c0.1-0.2,0.1-0.4,0.2-0.6c0.1-0.2,0.1-0.4,0.2-0.6c0.1-0.4,0.1-0.8,0.1-1.2v0l0-34.6
		C55.3,10.7,52.5,7.8,48.9,7.8z M96.5,87.6h19.2c3.5,0,6.4-2.9,6.4-6.4c0-3.5-2.9-6.4-6.4-6.4H81.1c-0.4,0-0.8,0-1.3,0.1
		c-0.2,0-0.4,0.1-0.5,0.2c-0.2,0.1-0.4,0.1-0.6,0.2c-0.2,0.1-0.4,0.2-0.6,0.3c-0.2,0.1-0.3,0.2-0.5,0.3c-0.7,0.5-1.3,1.1-1.8,1.8
		c-0.1,0.2-0.2,0.3-0.3,0.5c-0.1,0.2-0.2,0.4-0.3,0.6c-0.1,0.2-0.1,0.4-0.2,0.7c-0.1,0.2-0.1,0.3-0.2,0.5c-0.1,0.4-0.1,0.8-0.1,1.3
		l0,34.6c0,3.5,2.9,6.4,6.4,6.4c3.5,0,6.4-2.9,6.4-6.4V96.6l30.5,30.5c1.2,1.2,2.9,1.9,4.5,1.9c1.6,0,3.3-0.6,4.5-1.9
		c2.5-2.5,2.5-6.5,0-9L96.5,87.6z"/>
</g>
</svg>
