<?xml version="1.0" encoding="utf-8"?>
<!-- Generator: Adobe Illustrator 19.2.1, SVG Export Plug-In . SVG Version: 6.00 Build 0)  -->
<svg version="1.1" id="Layer_1" xmlns="http://www.w3.org/2000/svg" xmlns:xlink="http://www.w3.org/1999/xlink" x="0px" y="0px"
	 viewBox="0 0 130 130" style="enable-background:new 0 0 130 130;" xml:space="preserve">
<style type="text/css">
	.st0{fill:none;}
	.st1{fill:#4D4D4D;}
</style>
<rect class="st0" width="130" height="130"/>
<g>
	<path class="st1" d="M52.9,74.1c-3.5,0-32.4,4.1-32.4,4.1s-4.4,0-1.5,2.9c2.9,2.9,7.6,7.6,7.6,7.6s-1.3,1.3-3.2,3.2
		c-6,6-17.7,17.7-22.2,22.2c0,0-1.1,1,0.3,2.4c1.4,1.3,9.7,9.7,11.6,11.6c1.9,1.9,2.8,0.3,2.8,0.3c4.6-4.6,15.9-15.9,22.1-22.1
		c2.1-2.2,3.6-3.6,3.6-3.6s5.8,5.8,8.2,8.2c2.4,2.4,2.3-1.9,2.3-1.9l3.1-32.3C55.2,76.7,55.4,74.1,52.9,74.1z M76.6,55.9
		c3.5,0,32.4-4.1,32.4-4.1s4.4,0,1.5-2.9c-2.9-2.9-7.6-7.6-7.6-7.6s1.3-1.3,3.2-3.2c6-6,17.7-17.7,22.2-22.2c0,0,1.1-1-0.3-2.4
		c-1.4-1.3-9.7-9.7-11.6-11.6c-1.9-1.9-2.8-0.3-2.8-0.3C109,6.2,97.7,17.5,91.5,23.7c-2.2,2.2-3.6,3.6-3.6,3.6s-5.8-5.8-8.2-8.2
		c-2.4-2.4-2.3,1.9-2.3,1.9l-3,32.3C74.3,53.3,74.1,55.9,76.6,55.9z M128.6,113.9c-4.6-4.6-15.9-15.9-22.1-22.1
		c-2.2-2.2-3.6-3.6-3.6-3.6s5.8-5.9,8.2-8.3c2.4-2.4-1.9-2.3-1.9-2.3l-32.3-3c0,0-2.6-0.2-2.6,2.3c0,3.5,4.1,32.4,4.1,32.4
		s0,4.4,2.9,1.5c2.9-2.9,7.6-7.6,7.6-7.6s1.3,1.3,3.2,3.2c6,6,17.7,17.7,22.2,22.2c0,0,1,1.1,2.4-0.3c1.4-1.3,9.7-9.7,11.6-11.6
		C130.1,114.8,128.6,113.9,128.6,113.9z M49.1,19.3c-2.9,2.9-7.6,7.6-7.6,7.6s-1.3-1.3-3.2-3.2C32.2,17.7,20.5,6,16,1.5
		c0,0-1-1.1-2.4,0.3C12.3,3.1,4,11.5,2.1,13.4c-1.9,1.9-0.3,2.8-0.3,2.8c4.6,4.6,15.9,15.9,22.1,22.1c2.2,2.2,3.6,3.6,3.6,3.6
		s-5.8,5.8-8.2,8.2c-2.4,2.4,1.9,2.3,1.9,2.3l32.3,3.1c0,0,2.6,0.2,2.6-2.3c0-3.5-4.1-32.4-4.1-32.4S52,16.4,49.1,19.3z"/>
</g>
</svg>
