<?xml version="1.0" encoding="utf-8"?>
<!-- Generator: Adobe Illustrator 19.2.1, SVG Export Plug-In . SVG Version: 6.00 Build 0)  -->
<svg version="1.1" id="Layer_1" xmlns="http://www.w3.org/2000/svg" xmlns:xlink="http://www.w3.org/1999/xlink" x="0px" y="0px"
	 viewBox="0 0 130 130" style="enable-background:new 0 0 130 130;" xml:space="preserve">
<style type="text/css">
	.st0{fill:none;}
	.st1{fill:#4D4D4D;}
</style>
<rect class="st0" width="130" height="130"/>
<path class="st1" d="M105,73.7c-6.7,0-12.8,2.8-17.1,7.2L77.5,66.2l0,0L77,65.5l27.2-39.1C108,21,107.4,14,103,10.9
	c-4.5-3.1-11.2-1.2-15,4.2L64.9,48.2l-23-33.1c-3.8-5.4-10.5-8.7-15-5.6c-4.5,3.1-5,11.5-1.3,16.9l27.2,39.1l-0.5,0.7v0L42.1,80.9
	c-4.4-4.4-10.4-7.2-17.1-7.2c-13.2,0-24,10.8-24,24c0,13.2,10.8,24,24,24c0,0,12.5,0.5,16.9-5.8l15.9-22.8l2.5-3.6l0,0l4.6-6.6h0.2
	l5.5,7.9v0l3.5,5l0,0l14.1,20.3c4.4,6.2,16.9,5.8,16.9,5.8c13.2,0,24-10.8,24-24C129,84.4,118.2,73.7,105,73.7z M25,107.6
	c-5.5,0-9.9-4.4-9.9-9.9c0-5.5,4.4-9.9,9.9-9.9c5.5,0,9.9,4.4,9.9,9.9C34.9,103.1,30.5,107.6,25,107.6z M64.6,70.9
	c-3.1,0-5.6-2.5-5.6-5.6c0-3.1,2.5-5.6,5.6-5.6c3.1,0,5.6,2.5,5.6,5.6C70.3,68.3,67.7,70.9,64.6,70.9z M105.5,107.6
	c-5.5,0-9.9-4.4-9.9-9.9c0-5.5,4.4-9.9,9.9-9.9c5.4,0,9.9,4.4,9.9,9.9C115.4,103.1,111,107.6,105.5,107.6z"/>
</svg>
