<?xml version="1.0" encoding="utf-8"?>
<!-- Generator: Adobe Illustrator 19.2.1, SVG Export Plug-In . SVG Version: 6.00 Build 0)  -->
<svg version="1.1" id="Layer_1" xmlns="http://www.w3.org/2000/svg" xmlns:xlink="http://www.w3.org/1999/xlink" x="0px" y="0px"
	 viewBox="0 0 130 130" style="enable-background:new 0 0 130 130;" xml:space="preserve">
<style type="text/css">
	.st0{fill:none;}
	.st1{fill:#4D4D4D;}
</style>
<rect class="st0" width="130" height="130"/>
<g>
	<g>
		<path class="st1" d="M109.3,70.5c-9.4,0-17.1,7.6-17.1,17.1c0,9.4,7.6,17,17.1,17c9.4,0,17.1-7.6,17.1-17
			C126.4,78.2,118.7,70.5,109.3,70.5z M109.1,94.6c-3.8,0-6.8-3.1-6.8-6.8c0-3.8,3.1-6.8,6.8-6.8s6.8,3.1,6.8,6.8
			C116,91.5,112.9,94.6,109.1,94.6z"/>
		<path class="st1" d="M110,89.1l18.7-3c2-5.2-3.7-21.2-18.7-18.3c-17.8,3.5-20.3,24.8-20.3,24.8L110,89.1z"/>
		<path class="st1" d="M84.5,29.3l-2.6-0.1c-0.3-0.2-0.6-0.3-1-0.3c-1,0-1.9,0.8-1.9,1.9c0,1,0.8,1.9,1.9,1.9c0.4,0,0.7-0.1,1-0.3
			l2.6-0.1C86.6,30.9,84.5,29.3,84.5,29.3z"/>
		<path class="st1" d="M64,56.6c0,0.6-0.4,1-1,1H30.1c-0.5,0-1-0.5-1-1V51c0-0.6,0.4-1,1-1H63c0.5,0,1,0.5,1,1L64,56.6L64,56.6z"/>
		<path class="st1" d="M111.8,59.9c-0.4-0.2-11.2,0-11.2,0c-1.7-11.6-13.9-25.7-13.9-25.7L85,33.4c15,41.2,0.9,50.3-14.1,52
			s-25.2-2.5-22.3-12.9c2.9-10.4,13.7-15,13.7-15l-22-0.4l-12.5,7.5C15.6,64.8,1,74.2,1,87.5h3.3c0.4,9.8,8.4,17.6,18.3,17.6
			c9.9,0,17.9-7.8,18.3-17.6h3.4c5.7,0.4,14.5,1,20.1,1c6.8,0,19-0.5,24.7-1c1.9-6.8,7.1-18.8,20.3-21.4c3.5-0.7,6.5-0.4,9,0.6
			C116.7,63.9,114.6,61.4,111.8,59.9z M11.9,79.4H25c0.4,0,0.7,0.3,0.7,0.7c0,0.4-0.3,0.7-0.7,0.7H11.9c-0.4,0-0.7-0.3-0.7-0.7
			C11.2,79.7,11.5,79.4,11.9,79.4z M9.8,81.6h13.1c0.4,0,0.7,0.3,0.7,0.7c0,0.4-0.3,0.7-0.7,0.7H9.8C9.4,83,9,82.7,9,82.3
			C9,81.9,9.4,81.6,9.8,81.6z M7.6,85.1c-0.4,0-0.7-0.3-0.7-0.7c0-0.4,0.3-0.7,0.7-0.7h13.1c0.4,0,0.7,0.3,0.7,0.7
			c0,0.4-0.3,0.7-0.7,0.7H7.6z M22.4,94.3c-3.9,0-7-3-7.3-6.8h14.5C29.4,91.3,26.2,94.3,22.4,94.3z"/>
	</g>
	<path class="st1" d="M95.6,26.7c-0.6-1.1-1.4-1.7-2.4-1.7c-0.1,0-0.3,0-0.4,0.1l0,0c0,0,0,0,0,0c-0.2,0-0.4,0.1-0.6,0.2
		c-3.9,1.4-7.6,2-7.6,2s-0.9,1.1-0.9,3.2c0,2,1.1,3.3,1.1,3.3l7.6,2v0c0.2,0.1,0.4,0.1,0.6,0.1h0c1.8,0,3.3-2.4,3.3-5.4
		C96.5,29,96.2,27.7,95.6,26.7z M93.2,35.5L93.2,35.5L93.2,35.5C93.1,35.5,93.1,35.5,93.2,35.5c-1.6,0-2.9-2.3-2.8-5.2
		c0-2.8,1.4-5.1,3-5.1c1.6,0,2.9,2.3,2.8,5.2C96.1,33.3,94.7,35.5,93.2,35.5z"/>
</g>
</svg>
