<?xml version="1.0" encoding="utf-8"?>
<!-- Generator: Adobe Illustrator 19.2.1, SVG Export Plug-In . SVG Version: 6.00 Build 0)  -->
<svg version="1.1" id="Layer_1" xmlns="http://www.w3.org/2000/svg" xmlns:xlink="http://www.w3.org/1999/xlink" x="0px" y="0px"
	 viewBox="0 0 130 130" style="enable-background:new 0 0 130 130;" xml:space="preserve">
<style type="text/css">
	.st0{fill:none;}
	.st1{fill:#4D4D4D;}
</style>
<rect class="st0" width="130" height="130"/>
<path class="st1" d="M127.3,12H2.7c-1,0-1.7,0.8-1.7,1.7v84.5c0,1,0.8,1.7,1.7,1.7h48c-0.2,3.7-0.7,10.5-1.6,11.6
	c-1.9,2.1-4.7,4.2-5.2,4.7c-0.1,0.1-0.2,0.2-0.2,0.3h0c0,0-0.2,1.5,0.6,1.5h41.5c0.7,0,0.6-0.8,0.6-1.2c0-0.1,0-0.1,0-0.1
	c0-0.2,0-0.4-0.2-0.5c-0.5-0.4-3.3-2.6-5.2-4.7c-1-1.1-1.5-7.9-1.6-11.6h48c1,0,1.7-0.8,1.7-1.7V13.7C129,12.7,128.2,12,127.3,12z
	 M125.2,95.7H4.8V16.5h120.4C125.2,16.5,125.2,95.7,125.2,95.7z"/>
</svg>
