<?xml version="1.0" encoding="utf-8"?>
<!-- Generator: Adobe Illustrator 19.2.1, SVG Export Plug-In . SVG Version: 6.00 Build 0)  -->
<svg version="1.1" id="Layer_1" xmlns="http://www.w3.org/2000/svg" xmlns:xlink="http://www.w3.org/1999/xlink" x="0px" y="0px"
	 viewBox="0 0 130 130" style="enable-background:new 0 0 130 130;" xml:space="preserve">
<style type="text/css">
	.st0{fill:none;}
	.st1{fill:#4D4D4D;}
</style>
<rect class="st0" width="130" height="130"/>
<path class="st1" d="M125.2,12.1H4.8c-2.1,0-3.8,1.7-3.8,3.8v74v0.4v6.3c0,2.1,1.7,3.8,3.8,3.8h46.7c-0.2,3.6-0.6,10.2-1.6,11.2
	c-1.8,2-4.5,4.1-5.1,4.5c-0.1,0.1-0.2,0.2-0.2,0.3h0c0,0-0.2,1.5,0.6,1.5h40.2c0.7,0,0.6-0.7,0.6-1.2c0-0.1,0-0.1,0-0.1
	c0-0.2,0-0.3-0.2-0.5c-0.5-0.4-3.2-2.5-5.1-4.5c-1-1.1-1.4-7.6-1.6-11.2h46c2.1,0,3.8-1.7,3.8-3.8v-6.3v-0.4v-74
	C129,13.8,127.3,12.1,125.2,12.1z M124.6,85.9H5.6V16.6h119.1V85.9z"/>
</svg>
