<?xml version="1.0" encoding="utf-8"?>
<!-- Generator: Adobe Illustrator 19.2.1, SVG Export Plug-In . SVG Version: 6.00 Build 0)  -->
<svg version="1.1" id="Layer_1" xmlns="http://www.w3.org/2000/svg" xmlns:xlink="http://www.w3.org/1999/xlink" x="0px" y="0px"
	 viewBox="0 0 130 130" style="enable-background:new 0 0 130 130;" xml:space="preserve">
<style type="text/css">
	.st0{fill:none;}
	.st1{fill:#4D4D4D;}
</style>
<rect class="st0" width="130" height="130"/>
<path class="st1" d="M125.2,13.8H4.8c-2.1,0-3.8,1.7-3.8,3.8v80.7c0,2.1,1.7,3.8,3.8,3.8H58c0,2.6,0,5.6-0.2,5.9
	c-0.2,0.4-0.5,1-1.1,1.5c-9.7,0.2-26.6,0.7-31.2,2.3l-0.7,0.8c0,0,16.3,3.7,40.2,3.7c0,0,29.7,0,40.2-3.6l-0.6-1
	c0,0-15.7-1.5-31.1-2c-0.6-0.6-1-1.2-1.2-1.6c-0.1-0.4-0.2-3.3-0.2-6h53c2.1,0,3.8-1.7,3.8-3.8V17.5C129,15.4,127.3,13.8,125.2,13.8
	z M124.4,96.6H5.4V19.4h119.1C124.4,19.4,124.4,96.6,124.4,96.6z"/>
</svg>
