<?xml version="1.0" encoding="utf-8"?>
<!-- Generator: Adobe Illustrator 19.2.1, SVG Export Plug-In . SVG Version: 6.00 Build 0)  -->
<svg version="1.1" id="Layer_1" xmlns="http://www.w3.org/2000/svg" xmlns:xlink="http://www.w3.org/1999/xlink" x="0px" y="0px"
	 viewBox="0 0 130 130" style="enable-background:new 0 0 130 130;" xml:space="preserve">
<style type="text/css">
	.st0{fill:none;}
	.st1{fill:#4D4D4D;}
</style>
<rect class="st0" width="130" height="130"/>
<path class="st1" d="M128.2,96.8l-6.9-72.3c-0.2-1.8-1.2-2.8-3-3.3L6.4,4.2C4.6,3.9,3.4,4.1,2.6,4.8c0,0,0,0,0,0
	C1.1,5.6,1,8.4,1,8.4c0,6.4,1.8,93.6,2,96c0.2,3,3.2,3.4,4.9,3.4c0,0,0,0,0,0l35.7,0.1c-0.1,0.6-1.1,4.7-1.6,7.3
	c0,0.2-1.2,6.3,1.3,7c2.5,0.7,7.7,2.6,8.7,2.9c1,0.3,2.1,0.8,4.9,0.8c1.7,0,24.5-1,27.5-1.1c2.9-0.1,3.4-0.4,3.4-0.4v-0.6
	c0,0,0,0,0,0c-0.1-0.1-0.2-0.2-0.5-0.2c-4.2-0.7-14.4-3.3-15.8-3.5c-3.2-0.6-3-4.4-3-5.4c0-0.8,0.1-2.9,0.2-4.6
	c0.1-0.9,0.1-1.7,0.1-2l57.9,0.2c1.7-0.2,2.3-1,2.3-2.3L128.2,96.8z M10.3,99.7l-2-82.2l-0.2-6.9l108.2,15.1l7.1,75.6L10.3,99.7z"/>
</svg>
