<?xml version="1.0" encoding="utf-8"?>
<!-- Generator: Adobe Illustrator 19.2.1, SVG Export Plug-In . SVG Version: 6.00 Build 0)  -->
<svg version="1.1" id="Layer_1" xmlns="http://www.w3.org/2000/svg" xmlns:xlink="http://www.w3.org/1999/xlink" x="0px" y="0px"
	 viewBox="0 0 130 130" style="enable-background:new 0 0 130 130;" xml:space="preserve">
<style type="text/css">
	.st0{fill:none;}
	.st1{fill:#4D4D4D;}
</style>
<rect class="st0" width="130" height="130"/>
<g>
	<path class="st1" d="M104.4,39.6H79.9c-2.9,0-5.3,2.4-5.3,5.3c0,2.9,2.4,5.3,5.3,5.3h19.2v68.1h-70V50.2h19.1
		c2.9,0,5.3-2.4,5.3-5.3s-2.4-5.3-5.3-5.3H23.8c-2.9,0-5.3,2.4-5.3,5.3v78.8c0,2.9,2.4,5.3,5.3,5.3h80.7c2.9,0,5.3-2.4,5.3-5.3V44.9
		C109.8,42,107.4,39.6,104.4,39.6z"/>
	<path class="st1" d="M110.6,16.2L96.5,2c-1.4-1.4-3.6-1.4-5,0c-1.4,1.4-1.4,3.6,0,4.9l8,8.1H71.1c-6.8,0-12.3,5.5-12.3,12.3v40.4
		c0,1.9,1.6,3.5,3.5,3.5c1.9,0,3.5-1.6,3.5-3.5V27.4c0-2.9,2.4-5.3,5.3-5.3h28.7l-8.3,8.3c-1.4,1.4-1.4,3.6,0,4.9
		c0.7,0.7,1.6,1,2.5,1c0.9,0,1.8-0.3,2.5-1l14.1-14.2C111.9,19.8,111.9,17.6,110.6,16.2z"/>
</g>
</svg>
