<?xml version="1.0" encoding="utf-8"?>
<!-- Generator: Adobe Illustrator 19.2.1, SVG Export Plug-In . SVG Version: 6.00 Build 0)  -->
<svg version="1.1" id="Layer_1" xmlns="http://www.w3.org/2000/svg" xmlns:xlink="http://www.w3.org/1999/xlink" x="0px" y="0px"
	 viewBox="0 0 130 130" style="enable-background:new 0 0 130 130;" xml:space="preserve">
<style type="text/css">
	.st0{fill:none;}
	.st1{fill:#4D4D4D;}
</style>
<rect class="st0" width="130" height="130"/>
<g>
	<path class="st1" d="M107.7,58.1c-3.7,0-6.6,3-6.6,6.6v45.5H14.3V22.9h73c3.7,0,6.6-3,6.6-6.6c0-3.7-3-6.6-6.6-6.6H7.6
		C4,9.6,1,12.6,1,16.2v100.7c0,3.7,3,6.6,6.6,6.6h100.1c3.7,0,6.6-3,6.6-6.6V64.7C114.4,61.1,111.4,58.1,107.7,58.1z"/>
	<path class="st1" d="M127.7,26.3L109.2,7.8c-1.7-1.7-4.5-1.7-6.2,0c-1.7,1.7-1.7,4.5,0,6.2l11,11c-33.1,0.1-55.2,8.6-70.3,51.3
		c-0.8,2.3,0.4,4.8,2.7,5.6c0.5,0.2,1,0.3,1.5,0.3c1.8,0,3.5-1.1,4.2-2.9c13.4-38.2,31.5-45.4,62-45.5l-11,11
		c-1.7,1.7-1.7,4.5,0,6.2c0.9,0.9,2,1.3,3.1,1.3c1.1,0,2.3-0.4,3.1-1.3l18.5-18.5C129.4,30.8,129.4,28,127.7,26.3z"/>
</g>
</svg>
