<?xml version="1.0" encoding="utf-8"?>
<!-- Generator: Adobe Illustrator 19.2.1, SVG Export Plug-In . SVG Version: 6.00 Build 0)  -->
<svg version="1.1" id="Layer_1" xmlns="http://www.w3.org/2000/svg" xmlns:xlink="http://www.w3.org/1999/xlink" x="0px" y="0px"
	 viewBox="0 0 130 130" style="enable-background:new 0 0 130 130;" xml:space="preserve">
<style type="text/css">
	.st0{fill:none;}
	.st1{fill:#4D4D4D;}
</style>
<rect class="st0" width="130" height="130"/>
<g>
	<path class="st1" d="M119.4,72.5l0.2,0c0-0.7-0.2-1.4-0.6-2l-17.4-29.9c-0.7-1.2-1.9-1.9-3.2-1.9H75.2v7.9h21.1l15.1,25.9H85.7
		c-2,0-3.3,2.1-3.8,4.1l-1.8,7.2c-0.5,2-2.5,3.7-4.5,3.7H54.4c-2,0-4-1.7-4.5-3.7l-1.8-7.2c-0.5-2-1.9-4.1-3.8-4.1H18.6l15.3-25.9
		h6.5H51h3.8v-7.9H51H40.4h-8.7c-1.3,0-2.5,0.7-3.2,1.9L11,70.4c-0.4,0.6-0.6,1.3-0.6,2.1l0.2,0h-0.2l0,52.5c0,2.2,1.7,4,3.8,4
		h101.7c2.1,0,3.8-1.8,3.8-4l0-52.5H119.4z"/>
	<path class="st1" d="M38.7,31.9c2.4,2.4,8.5,1.9,10.9-0.5l10.1-10.1v43.9c0,3.4,1.7,5.1,5.1,5.1c3.4,0,5.1-1.7,5.1-5.1V21.3
		l9.8,10.7c2.4,2.4,6.3,2.4,8.7,0c2.4-2.4,2.4-6.3,0-8.7L68.8,3.8c-1.1-1.7-3-2.8-5.2-2.8c-2.1,0-4,1.1-5.1,2.7L38.8,23.2
		C36.4,25.6,36.3,29.5,38.7,31.9z"/>
</g>
</svg>
