<?xml version="1.0" encoding="utf-8"?>
<!-- Generator: Adobe Illustrator 19.2.1, SVG Export Plug-In . SVG Version: 6.00 Build 0)  -->
<svg version="1.1" id="Layer_1" xmlns="http://www.w3.org/2000/svg" xmlns:xlink="http://www.w3.org/1999/xlink" x="0px" y="0px"
	 viewBox="0 0 130 130" style="enable-background:new 0 0 130 130;" xml:space="preserve">
<style type="text/css">
	.st0{fill:none;}
	.st1{fill:#4D4D4D;}
</style>
<rect class="st0" width="130" height="130"/>
<g>
	<path class="st1" d="M112,111.5v10.2H8.3V18h10.2v-7.3H4.7c-2,0-3.7,1.6-3.7,3.7v111c0,2,1.6,3.7,3.7,3.7h111c2,0,3.7-1.6,3.7-3.7
		v-13.9C119.3,111.5,112,111.5,112,111.5z"/>
	<path class="st1" d="M17.9,1v111.1H129V1H17.9z M97.6,64.7c0,2.7-2.2,4.9-4.9,4.9c-2.7,0-4.9-2.2-4.9-4.9V49L57.8,79.1
		c-1.9,1.9-5,1.9-6.9,0c-1.9-1.9-1.9-5,0-6.9l30.2-30.2l-15.8,0c-2.7,0-4.8-2.2-4.8-4.9v0c0-2.7,2.2-4.8,4.9-4.8l27.5,0
		c2.7,0,4.9,2.2,4.9,4.9C97.6,37.2,97.6,64.7,97.6,64.7z"/>
</g>
</svg>
