<?xml version="1.0" encoding="utf-8"?>
<!-- Generator: Adobe Illustrator 19.2.1, SVG Export Plug-In . SVG Version: 6.00 Build 0)  -->
<svg version="1.1" id="Layer_1" xmlns="http://www.w3.org/2000/svg" xmlns:xlink="http://www.w3.org/1999/xlink" x="0px" y="0px"
	 viewBox="0 0 130 130" style="enable-background:new 0 0 130 130;" xml:space="preserve">
<style type="text/css">
	.st0{fill:none;}
	.st1{fill:#4D4D4D;}
</style>
<rect class="st0" width="130" height="130"/>
<g>
	<path class="st1" d="M18.1,7.1c-1.8,0-3.3,1.5-3.3,3.4v28.6c1.1-0.3,2.2-0.4,3.4-0.4c1.1,0,2.2,0.1,3.2,0.4V10.5
		C21.4,8.6,20,7.1,18.1,7.1z M111.9,7.1c-1.8,0-3.3,1.6-3.3,3.5v44c1.1-0.3,2.2-0.4,3.4-0.4c1.1,0,2.2,0.1,3.2,0.4V10.5
		C115.2,8.6,113.7,7.1,111.9,7.1z M64.4,7.1c-1.8,0-3.3,1.5-3.3,3.4v18.6c1.1-0.3,2.2-0.4,3.4-0.4c1.1,0,2.2,0.1,3.2,0.4V10.5
		C67.8,8.6,66.3,7.1,64.4,7.1z"/>
	<path class="st1" d="M14.8,82.1v37.4c0,1.9,1.5,3.4,3.3,3.4c1.8,0,3.3-1.5,3.3-3.4V82.1c-1,0.2-2.1,0.3-3.2,0.3
		C17.1,82.5,15.9,82.3,14.8,82.1z M61.1,72.2v47.3c0,1.9,1.5,3.4,3.3,3.4c1.8,0,3.3-1.5,3.3-3.4V72.2c-1,0.2-2.1,0.4-3.2,0.4
		C63.4,72.6,62.2,72.4,61.1,72.2z M111.9,98c-1.2,0-2.3-0.2-3.4-0.4v22c0,1.9,1.5,3.4,3.3,3.4c1.8,0,3.3-1.5,3.3-3.4V97.6
		C114.1,97.8,113.1,98,111.9,98z"/>
	<path class="st1" d="M112.1,58.9c-9.3,0-16.9,7.6-16.9,16.9c0,9.3,7.6,16.9,16.9,16.9c9.3,0,16.9-7.6,16.9-16.9
		C129,66.5,121.4,58.9,112.1,58.9z"/>
	<path class="st1" d="M65,33.9c-9.3,0-16.9,7.5-16.9,16.9c0,9.3,7.6,16.9,16.9,16.9c9.3,0,16.9-7.6,16.9-16.9
		C81.9,41.4,74.3,33.9,65,33.9z"/>
	<path class="st1" d="M17.9,43.4C8.6,43.4,1,50.9,1,60.2c0,9.3,7.6,16.9,16.9,16.9c9.3,0,16.9-7.6,16.9-16.9
		C34.8,50.9,27.2,43.4,17.9,43.4z"/>
</g>
</svg>
