<?xml version="1.0" encoding="utf-8"?>
<!-- Generator: Adobe Illustrator 19.2.1, SVG Export Plug-In . SVG Version: 6.00 Build 0)  -->
<svg version="1.1" id="Layer_1" xmlns="http://www.w3.org/2000/svg" xmlns:xlink="http://www.w3.org/1999/xlink" x="0px" y="0px"
	 viewBox="0 0 130 130" style="enable-background:new 0 0 130 130;" xml:space="preserve">
<style type="text/css">
	.st0{fill:none;}
	.st1{fill:#4D4D4D;}
</style>
<rect class="st0" width="130" height="130"/>
<g>
	<path class="st1" d="M127.5,36H124c-0.8,0-1.7-0.6-1.9-1.4l-2-4.9c-0.4-0.7-0.3-1.8,0.3-2.4l2.5-2.5c0.6-0.6,0.6-1.5,0-2.1
		l-2.9-2.9c-0.6-0.6-1.5-0.6-2.1,0l-2.5,2.5c-0.6,0.6-1.6,0.7-2.4,0.3l-5-2c-0.8-0.2-1.4-1.1-1.4-1.9v-3.5c0-0.8-0.7-1.5-1.5-1.5
		h-4.1c-0.8,0-1.5,0.7-1.5,1.5v3.5c0,0.8-0.7,1.7-1.4,1.9l-5,2c-0.7,0.4-1.8,0.2-2.4-0.3l-2.5-2.5c-0.6-0.6-1.5-0.6-2.1,0l-2.9,2.9
		c-0.6,0.6-0.6,1.5,0,2.1l2.5,2.5c0.6,0.6,0.7,1.6,0.3,2.4l-2,4.9C84,35.3,83.1,36,82.3,36h-3.5c-0.8,0-1.5,0.7-1.5,1.5v4.1
		c0,0.8,0.7,1.5,1.5,1.5h3.5c0.8,0,1.7,0.6,1.9,1.4l2,4.9c0.4,0.7,0.3,1.8-0.3,2.4l-2.5,2.5c-0.6,0.6-0.6,1.5,0,2.1l2.9,2.9
		c0.6,0.6,1.5,0.6,2.1,0l2.5-2.5c0.6-0.6,1.6-0.7,2.4-0.3l5,2c0.8,0.2,1.4,1.1,1.4,1.9v3.5c0,0.8,0.7,1.5,1.5,1.5h4.1
		c0.8,0,1.5-0.7,1.5-1.5v-3.5c0-0.8,0.6-1.7,1.4-1.9l5-2c0.7-0.4,1.8-0.2,2.4,0.3l2.5,2.5c0.6,0.6,1.5,0.6,2.1,0l2.9-2.9
		c0.6-0.6,0.6-1.5,0-2.1l-2.5-2.5c-0.6-0.6-0.7-1.6-0.3-2.4l2-4.9c0.2-0.8,1.1-1.4,1.9-1.4h3.5c0.8,0,1.5-0.7,1.5-1.5v-4.1
		C129,36.6,128.3,36,127.5,36z M103.1,45.9c-3.6,0-6.5-2.9-6.5-6.5c0-3.6,2.9-6.5,6.5-6.5c3.6,0,6.5,2.9,6.5,6.5
		C109.6,43,106.7,45.9,103.1,45.9z"/>
	<path class="st1" d="M79.8,70.3h-5.5c-1.3,0-2.6-1-3-2.2l-3.2-7.8c-0.6-1.1-0.4-2.8,0.5-3.7l3.9-3.9c0.9-0.9,0.9-2.4,0-3.3L68,44.9
		c-0.9-0.9-2.4-0.9-3.3,0l-3.9,3.9c-0.9,0.9-2.6,1.1-3.7,0.5l-7.8-3.2c-1.2-0.4-2.2-1.7-2.2-3v-5.5c0-1.3-1.1-2.3-2.3-2.3h-6.4
		c-1.3,0-2.3,1-2.3,2.3v5.5c0,1.3-1,2.6-2.2,3l-7.8,3.2c-1.1,0.6-2.8,0.4-3.7-0.5l-3.9-3.9c-0.9-0.9-2.4-0.9-3.3,0l-4.5,4.5
		c-0.9,0.9-0.9,2.4,0,3.3l3.9,3.9c0.9,0.9,1.2,2.6,0.5,3.7l-3.2,7.8c-0.4,1.2-1.7,2.2-3,2.2H3.3C2,70.3,1,71.4,1,72.7V79
		c0,1.3,1,2.3,2.3,2.3h5.6c1.3,0,2.6,1,3,2.2l3.2,7.8c0.6,1.1,0.4,2.8-0.5,3.7L10.6,99c-0.9,0.9-0.9,2.4,0,3.3l4.5,4.5
		c0.9,0.9,2.4,0.9,3.3,0l3.9-3.9c0.9-0.9,2.6-1.1,3.7-0.5l7.8,3.2c1.2,0.4,2.2,1.7,2.2,3v5.5c0,1.3,1,2.3,2.3,2.3h6.4
		c1.3,0,2.3-1.1,2.3-2.3v-5.5c0-1.3,1-2.6,2.2-3l7.8-3.2c1.1-0.6,2.8-0.4,3.7,0.5l3.9,3.9c0.9,0.9,2.4,0.9,3.3,0l4.5-4.5
		c0.9-0.9,0.9-2.4,0-3.3L68.6,95c-0.9-0.9-1.1-2.6-0.5-3.7l3.2-7.8c0.4-1.2,1.7-2.2,3-2.2h5.5c1.3,0,2.3-1.1,2.3-2.3v-6.4
		C82.2,71.4,81.1,70.3,79.8,70.3z M41.6,86c-5.6,0-10.1-4.5-10.1-10.1c0-5.6,4.5-10.1,10.1-10.1c5.6,0,10.1,4.5,10.1,10.1
		C51.7,81.4,47.2,86,41.6,86z"/>
</g>
</svg>
