<?xml version="1.0" encoding="utf-8"?>
<!-- Generator: Adobe Illustrator 19.2.1, SVG Export Plug-In . SVG Version: 6.00 Build 0)  -->
<svg version="1.1" id="Layer_1" xmlns="http://www.w3.org/2000/svg" xmlns:xlink="http://www.w3.org/1999/xlink" x="0px" y="0px"
	 viewBox="0 0 130 130" style="enable-background:new 0 0 130 130;" xml:space="preserve">
<style type="text/css">
	.st0{fill:none;}
	.st1{fill:#4D4D4D;}
</style>
<rect class="st0" width="130" height="130"/>
<path class="st1" d="M125.3,56.3h-8.7c-2,0-4.2-1.6-4.7-3.5l-5-12.2c-1-1.8-0.6-4.4,0.8-5.8l6.2-6.2c1.4-1.4,1.4-3.8,0-5.2l-7.1-7.1
	c-1.4-1.4-3.8-1.4-5.2,0l-6.2,6.2c-1.4,1.4-4.1,1.8-5.8,0.8l-12.2-5c-1.9-0.6-3.5-2.7-3.5-4.7V4.8c0-2-1.7-3.7-3.7-3.7H60
	c-2,0-3.7,1.7-3.7,3.7v8.7c0,2-1.6,4.2-3.5,4.7l-12.2,5c-1.8,1-4.4,0.6-5.8-0.8l-6.2-6.2c-1.4-1.4-3.8-1.4-5.2,0l-7.1,7.1
	c-1.4,1.4-1.4,3.8,0,5.2l6.2,6.2c1.4,1.4,1.8,4.1,0.8,5.8l-5,12.2c-0.6,1.9-2.7,3.5-4.7,3.5H4.7C2.7,56.3,1,58,1,60v10
	c0,2,1.7,3.7,3.7,3.7h8.8c2,0,4.2,1.6,4.7,3.5l5,12.2c1,1.8,0.6,4.4-0.8,5.8l-6.2,6.2c-1.4,1.4-1.4,3.8,0,5.2l7.1,7.1
	c1.4,1.4,3.8,1.4,5.2,0l6.2-6.2c1.4-1.4,4.1-1.8,5.8-0.8l12.2,5c1.9,0.6,3.5,2.7,3.5,4.7v8.7c0,2,1.6,3.7,3.7,3.7H70
	c2,0,3.7-1.7,3.7-3.7v-8.7c0-2,1.6-4.2,3.5-4.7l12.2-5c1.8-1,4.4-0.6,5.8,0.8l6.2,6.2c1.4,1.4,3.8,1.4,5.2,0l7.1-7.1
	c1.4-1.4,1.4-3.8,0-5.2l-6.2-6.2c-1.4-1.4-1.8-4.1-0.8-5.8l5-12.2c0.6-1.9,2.7-3.5,4.7-3.5h8.7c2,0,3.7-1.7,3.7-3.7V60
	C129,58,127.3,56.3,125.3,56.3z M65,81c-8.8,0-16-7.2-16-16s7.2-16,16-16c8.8,0,16,7.2,16,16S73.8,81,65,81z"/>
</svg>
