<?xml version="1.0" encoding="utf-8"?>
<!-- Generator: Adobe Illustrator 19.2.1, SVG Export Plug-In . SVG Version: 6.00 Build 0)  -->
<svg version="1.1" id="Layer_1" xmlns="http://www.w3.org/2000/svg" xmlns:xlink="http://www.w3.org/1999/xlink" x="0px" y="0px"
	 viewBox="0 0 130 130" style="enable-background:new 0 0 130 130;" xml:space="preserve">
<style type="text/css">
	.st0{fill:none;}
	.st1{fill:#4C4C4C;}
</style>
<rect class="st0" width="130" height="130"/>
<g id="ShareThis_icon_2_">
	<path class="st1" d="M106.1,83.2c-5.8,0-11,2.2-15,5.7L46.3,66.8c0.2-1.1,0.3-2.1,0.3-3.2l44.6-22.4c4,3.4,9.1,5.6,14.8,5.6
		c12.7,0,22.9-10.2,22.9-22.8C129,11.2,118.7,1,106.1,1C93.4,1,83.2,11.2,83.2,23.8c0,0.5,0.1,0.9,0.1,1.4L39.6,47.1
		c-4.1-3.9-9.6-6.4-15.8-6.4C11.2,40.7,1,50.9,1,63.5s10.2,22.8,22.8,22.8c5.1,0,9.7-1.7,13.5-4.5l46,23.1c0,0.4-0.1,0.8-0.1,1.1
		c0,12.6,10.3,22.9,22.9,22.9c12.7,0,22.9-10.2,22.9-22.9S118.7,83.2,106.1,83.2z"/>
</g>
</svg>
