<?xml version="1.0" encoding="utf-8"?>
<!-- Generator: Adobe Illustrator 19.2.1, SVG Export Plug-In . SVG Version: 6.00 Build 0)  -->
<svg version="1.1" id="Layer_1" xmlns="http://www.w3.org/2000/svg" xmlns:xlink="http://www.w3.org/1999/xlink" x="0px" y="0px"
	 viewBox="0 0 130 130" style="enable-background:new 0 0 130 130;" xml:space="preserve">
<style type="text/css">
	.st0{fill:none;}
	.st1{fill:#4D4D4D;}
</style>
<rect class="st0" width="130" height="130"/>
<g>
	<path class="st1" d="M66.7,2.7c0,0.9-0.8,1.7-1.7,1.7c-0.9,0-1.7-0.8-1.7-1.7S64.1,1,65,1C65.9,1,66.7,1.8,66.7,2.7z"/>
	<path class="st1" d="M65,15.9c0,0-5.8,0.4-5.8,0.5c0,0.1,5.8,0.5,5.8,0.5s5.8-0.4,5.8-0.5C70.8,16.3,65,15.9,65,15.9z"/>
	<path class="st1" d="M65,9.6c0,0-3.8,0.2-3.8,0.3c0,0.1,3.8,0.3,3.8,0.3s3.8-0.2,3.8-0.3C68.8,9.9,65,9.6,65,9.6z"/>
	<path class="st1" d="M65,2.5c-0.3,0-1.4,17.6-1.4,17.6H65h1.4C66.4,20.2,65.3,2.5,65,2.5z"/>
	<path class="st1" d="M56.8,19.6v11.8h16.3V19.6H56.8z M60.4,29.2h-3l0.4-2h3L60.4,29.2z M66.5,29.2h-3l0-2h3V29.2z M69.6,29.2
		l-0.3-2h3l0.4,2H69.6z"/>
	<polygon class="st1" points="65,33 44.1,33 44.1,35.9 65,35.9 85.9,35.9 85.9,33 	"/>
	<polygon class="st1" points="93.2,35.7 65,35.7 36.8,35.7 35.7,39.2 65,39.2 94.3,39.2 	"/>
	<path class="st1" d="M95.8,39.1H65H34.2l-2.5,9.4l1.2,14L65,53.2l32.1,9.3l1.2-14L95.8,39.1z M89.9,40.4l1.4,2.6h-4l-1.4-2.6H89.9z
		 M82.3,40.4l0.9,2.6h-4l-0.9-2.6H82.3z M74.6,40.4l0.5,2.6h-4l-0.5-2.6H74.6z M63,40.4h4V43h-4L63,40.4z M55.4,40.4h4L58.9,43h-4
		L55.4,40.4z M47.7,40.4h4L50.8,43h-4L47.7,40.4z M40.1,40.4h4L42.7,43h-4L40.1,40.4z M65,45.8H34.2l0.4-1.7H65h30.4l0.4,1.7H65z"/>
	<path class="st1" d="M84.2,25.3H65H45.8l-2.9,6V33h22h22v-1.7L84.2,25.3z M48.2,29.2h-3l1.1-2h3L48.2,29.2z M54.3,29.2h-3l0.7-2h3
		L54.3,29.2z M60.4,29.2h-3l0.4-2h3L60.4,29.2z M66.5,29.2h-3l0-2h3V29.2z M69.6,29.2l-0.3-2h3l0.4,2H69.6z M75.7,29.2l-0.7-2h3
		l0.7,2H75.7z M81.8,29.2l-1.1-2h3l1.1,2H81.8z"/>
	<path class="st1" d="M65,51c-15.8-0.2-41.8,15.6-41.8,15.6l14.7,58.8h54.2l14.7-58.8C106.8,66.6,80.8,50.8,65,51z"/>
	<path class="st1" d="M99.4,129c-3.3,0-5.1-0.9-6.6-1.8c-1.4-0.7-2.5-1.3-4.9-1.3c-2.4,0-3.5,0.6-4.9,1.3c-1.5,0.8-3.3,1.8-6.6,1.8
		c-3.3,0-5.1-0.9-6.6-1.8c-1.4-0.7-2.5-1.3-4.9-1.3c-2.4,0-3.5,0.6-4.9,1.3c-1.5,0.8-3.3,1.8-6.6,1.8c-3.3,0-5.1-0.9-6.6-1.8
		c-1.4-0.7-2.5-1.3-4.9-1.3c-2.4,0-3.5,0.6-4.9,1.3c-1.5,0.8-3.3,1.8-6.6,1.8c-3.3,0-5.1-0.9-6.6-1.8c-1.4-0.7-2.5-1.3-4.9-1.3
		c-1,0-1.8-0.8-1.8-1.8c0-1,0.8-1.8,1.8-1.8c3.3,0,5.1,0.9,6.6,1.8c1.4,0.7,2.5,1.3,4.9,1.3c2.4,0,3.5-0.6,4.9-1.3
		c1.5-0.8,3.3-1.8,6.6-1.8c3.3,0,5.1,0.9,6.6,1.8c1.4,0.7,2.5,1.3,4.9,1.3c2.4,0,3.5-0.6,4.9-1.3c1.5-0.8,3.3-1.8,6.6-1.8
		c3.3,0,5.1,0.9,6.6,1.8c1.4,0.7,2.5,1.3,4.9,1.3c2.4,0,3.5-0.6,4.9-1.3c1.5-0.8,3.3-1.8,6.6-1.8c3.3,0,5.1,0.9,6.6,1.8
		c1.4,0.7,2.5,1.3,4.9,1.3c2.4,0,3.5-0.6,4.9-1.3c1.5-0.8,3.3-1.8,6.6-1.8c1,0,1.8,0.8,1.8,1.8c0,1-0.8,1.8-1.8,1.8
		c-2.4,0-3.5,0.6-4.9,1.3C104.4,128.1,102.7,129,99.4,129z"/>
</g>
</svg>
