<?xml version="1.0" encoding="utf-8"?>
<!-- Generator: Adobe Illustrator 19.2.1, SVG Export Plug-In . SVG Version: 6.00 Build 0)  -->
<svg version="1.1" id="Layer_1" xmlns="http://www.w3.org/2000/svg" xmlns:xlink="http://www.w3.org/1999/xlink" x="0px" y="0px"
	 viewBox="0 0 130 130" style="enable-background:new 0 0 130 130;" xml:space="preserve">
<style type="text/css">
	.st0{fill:none;}
	.st1{fill:#4D4D4D;}
</style>
<rect class="st0" width="130" height="130"/>
<g>
	<path class="st1" d="M42.6,76.9l-0.3,0.3C32.1,87.9,25.3,95,16.7,95h-10C3.6,95,1,97.5,1,100.7c0,3.2,2.6,5.7,5.7,5.7h10
		c13.4,0,22.4-9.4,33.9-21.3l0.3-0.3c2.2-2.3,2.1-5.9-0.2-8.1C48.5,74.5,44.8,74.6,42.6,76.9z M127.2,32.6l-17.5-16.2
		c-2.3-2.1-5.9-2-8.1,0.3c-2.1,2.3-2,5.9,0.3,8.1l7,6.5h-3.9c-9.8,0-21.4,6-35.6,18.3c-2.4,2.1-2.7,5.7-0.6,8.1c1.1,1.3,2.7,2,4.3,2
		c1.3,0,2.7-0.5,3.7-1.4c14.8-12.8,23.5-15.5,28.2-15.5h4.2l-7.5,7.5c-2.2,2.2-2.2,5.8,0,8.1c1.1,1.1,2.6,1.7,4,1.7
		c1.5,0,2.9-0.6,4-1.7l17.5-17.5c1.1-1.1,1.7-2.6,1.7-4.2C129,35.1,128.3,33.6,127.2,32.6z"/>
	<path class="st1" d="M123,89.2l-17.5-17.5c-2.2-2.2-5.8-2.2-8.1,0c-2.2,2.2-2.2,5.8,0,8.1l7.5,7.5h-4.2c-5,0-16.7-3.3-38.7-25.3
		c-2.5-2.5-4.9-5-7.2-7.3C43.5,42.7,34.4,33.3,21,33.3H11c-3.2,0-5.7,2.6-5.7,5.7s2.6,5.7,5.7,5.7h10c8.5,0,15.3,7.1,25.6,17.8
		c2.3,2.4,4.7,4.9,7.3,7.5c19.3,19.3,34.6,28.7,46.8,28.7h3.9l-7,6.5c-2.3,2.1-2.5,5.8-0.3,8.1c1.1,1.2,2.7,1.8,4.2,1.8
		c1.4,0,2.8-0.5,3.9-1.5l17.5-16.1c1.1-1.1,1.8-2.5,1.8-4.1C124.7,91.8,124.1,90.3,123,89.2z"/>
</g>
</svg>
