<?xml version="1.0" encoding="utf-8"?>
<!-- Generator: Adobe Illustrator 19.2.1, SVG Export Plug-In . SVG Version: 6.00 Build 0)  -->
<svg version="1.1" id="Layer_1" xmlns="http://www.w3.org/2000/svg" xmlns:xlink="http://www.w3.org/1999/xlink" x="0px" y="0px"
	 viewBox="0 0 130 130" style="enable-background:new 0 0 130 130;" xml:space="preserve">
<style type="text/css">
	.st0{fill:none;}
	.st1{fill:#4C4C4C;}
</style>
<rect class="st0" width="130" height="130"/>
<g id="Shape_5_copy_2_">
	<path class="st1" d="M122.9,73.2c0.3-2.6,0.6-5.2,0.6-7.9c0-32.3-26.3-58.5-58.8-58.5c-3.2,0-6.4,0.3-9.5,0.8
		C49.7,4,43.1,1.9,36.1,1.9C16.7,1.9,1,17.6,1,37c0,7,2.1,13.6,5.6,19.1c-0.5,3-0.7,6.1-0.7,9.2c0,32.3,26.3,58.5,58.8,58.5
		c3.7,0,7.2-0.4,10.7-1c5.4,3.3,11.7,5.3,18.5,5.3c19.4,0,35.1-15.7,35.1-35.1C129,85.7,126.8,78.9,122.9,73.2z M68.9,97.6
		c-14,0.7-20.6-2.4-26.6-8c-6.7-6.3-4-13.5,1.5-13.9c5.5-0.4,8.8,6.2,11.7,8c2.9,1.8,14,6,19.9-0.7c6.4-7.3-4.3-11.1-12-12.2
		C52.1,69.2,38,63.1,39.1,51.3c1.1-11.9,10.1-17.9,19.5-18.8c12.1-1.1,19.9,1.8,26.1,7.1c7.2,6.1,3.3,13-1.3,13.5
		c-4.6,0.5-9.7-10.1-19.7-10.2c-10.3-0.2-17.3,10.8-4.6,13.9c12.8,3.1,26.5,4.4,31.4,16.1C95.6,84.5,83,96.9,68.9,97.6z"/>
</g>
</svg>
