<?xml version="1.0" encoding="utf-8"?>
<!-- Generator: Adobe Illustrator 19.2.1, SVG Export Plug-In . SVG Version: 6.00 Build 0)  -->
<svg version="1.1" id="Layer_1" xmlns="http://www.w3.org/2000/svg" xmlns:xlink="http://www.w3.org/1999/xlink" x="0px" y="0px"
	 viewBox="0 0 130 130" style="enable-background:new 0 0 130 130;" xml:space="preserve">
<style type="text/css">
	.st0{fill:none;}
	.st1{fill:#4D4D4D;}
</style>
<rect class="st0" width="130" height="130"/>
<path class="st1" d="M89,1H41.6c-5.4,0-9.7,4.3-9.7,9.7v9.6h-0.3c-0.1,0.1-0.2,0.2-0.3,0.3v6c0.1,0.1,0.2,0.2,0.3,0.3h0.3v7h-0.3
	c-0.1,0.1-0.2,0.2-0.3,0.3v4.5c0.1,0.1,0.2,0.2,0.3,0.3h0.3v80.5c0,5.3,4.4,9.7,9.7,9.7H89c5.4,0,9.7-4.3,9.7-9.7V10.7
	C98.7,5.3,94.4,1,89,1z M64.6,8.2c0.9,0,1.7,0.7,1.7,1.7s-0.7,1.7-1.7,1.7c-0.9,0-1.7-0.7-1.7-1.7S63.6,8.2,64.6,8.2z M65.7,123.5
	c-2.6,0-4.7-2.1-4.7-4.7c0-2.6,2.1-4.7,4.7-4.7c2.6,0,4.7,2.1,4.7,4.7C70.3,121.4,68.2,123.5,65.7,123.5z M93.6,108.7
	c0,0.1-0.1,0.2-0.2,0.2H37.1c-0.1,0-0.2-0.1-0.2-0.2v-91c0-0.1,0.1-0.2,0.2-0.2h56.4c0.1,0,0.2,0.1,0.2,0.2L93.6,108.7L93.6,108.7z"
	/>
</svg>
