<?xml version="1.0" encoding="utf-8"?>
<!-- Generator: Adobe Illustrator 19.2.1, SVG Export Plug-In . SVG Version: 6.00 Build 0)  -->
<svg version="1.1" id="Layer_1" xmlns="http://www.w3.org/2000/svg" xmlns:xlink="http://www.w3.org/1999/xlink" x="0px" y="0px"
	 viewBox="0 0 130 130" style="enable-background:new 0 0 130 130;" xml:space="preserve">
<style type="text/css">
	.st0{fill:none;}
	.st1{fill:#4C4C4C;}
</style>
<rect class="st0" width="130" height="130"/>
<g id="SoundCloud_icon_1_">
	<path class="st1" d="M28.4,48.2c-1,0-1.8,0.5-1.8,1.2l-1.3,29.1l1.3,14.2c0,0.7,0.8,1.2,1.8,1.2c1,0,1.8-0.5,1.8-1.2l1.5-14.2
		l-1.5-29.1C30.2,48.7,29.4,48.2,28.4,48.2z M4.1,69.5c-0.6,0-1.2,0.2-1.2,0.5L1,79l1.8,8.7c0,0.3,0.6,0.5,1.2,0.5
		c0.6,0,1.2-0.2,1.2-0.5L7.4,79l-2.1-9C5.2,69.7,4.7,69.5,4.1,69.5z M16.1,55.8c-0.8,0-1.5,0.4-1.5,1L13,78.6L14.6,93
		c0,0.5,0.7,1,1.5,1c0.8,0,1.5-0.4,1.5-1l1.8-14.4l-1.8-21.8C17.6,56.3,16.9,55.8,16.1,55.8z M40.7,48.2c-1.1,0-2,0.6-2,1.4
		l-1.1,29.1l1.1,13.8c0,0.8,0.9,1.4,2,1.4c1.1,0,2-0.6,2-1.4l1.2-13.8l-1.2-29.1C42.7,48.8,41.8,48.2,40.7,48.2z M110.5,61.9
		c-2.3,0-4.4,0.5-6.4,1.3C102.8,48.9,89.3,36,74.1,36c-3.7,0-7.3,0.7-10.5,1.9c-1.2,0.5-1.6,0.9-1.6,1.9V92c0,1,0.8,1.8,1.8,1.9
		c0,0,40.9-0.1,46.7-0.1c9.4,0,18.5-6.1,18.5-16C129,66.5,119.6,61.9,110.5,61.9z M52.7,43.6c-1.2,0-2.3,0.8-2.3,1.7l-0.9,33.4
		c0,0,0.9,13.7,0.9,13.7c0,0.9,1,1.7,2.3,1.7s2.3-0.7,2.3-1.7l1-13.7l-1-33.4C55,44.4,53.9,43.6,52.7,43.6z"/>
</g>
</svg>
