<?xml version="1.0" encoding="utf-8"?>
<!-- Generator: Adobe Illustrator 19.2.1, SVG Export Plug-In . SVG Version: 6.00 Build 0)  -->
<svg version="1.1" id="Layer_1" xmlns="http://www.w3.org/2000/svg" xmlns:xlink="http://www.w3.org/1999/xlink" x="0px" y="0px"
	 viewBox="0 0 130 130" style="enable-background:new 0 0 130 130;" xml:space="preserve">
<style type="text/css">
	.st0{fill:none;}
	.st1{fill:#4D4D4D;}
</style>
<rect class="st0" width="130" height="130"/>
<g>
	<path class="st1" d="M103.8,1H26.2c-5,0-9.1,4.1-9.1,9.1v109.8c0,5,4.1,9.1,9.1,9.1h77.6c5,0,9.1-4.1,9.1-9.1V10.1
		C112.9,5.1,108.8,1,103.8,1z M65,12.4c7.5,0,13.6,6.1,13.6,13.6c0,7.5-6.1,13.6-13.6,13.6c-7.5,0-13.6-6.1-13.6-13.6
		C51.4,18.5,57.5,12.4,65,12.4z M65,118.6c-19.2,0-34.7-15.5-34.7-34.7c0-19.2,15.5-34.7,34.7-34.7c19.2,0,34.7,15.5,34.7,34.7
		C99.7,103,84.2,118.6,65,118.6z"/>
	<circle class="st1" cx="65" cy="26" r="9"/>
	<path class="st1" d="M65,56.2c-15.3,0-27.7,12.4-27.7,27.7c0,15.3,12.4,27.7,27.7,27.7c15.3,0,27.7-12.4,27.7-27.7
		C92.7,68.6,80.3,56.2,65,56.2z M65,96.3c-6.9,0-12.5-5.6-12.5-12.5c0-6.9,5.6-12.5,12.5-12.5c6.9,0,12.5,5.6,12.5,12.5
		C77.5,90.8,71.9,96.3,65,96.3z"/>
</g>
</svg>
