<?xml version="1.0" encoding="utf-8"?>
<!-- Generator: Adobe Illustrator 19.2.1, SVG Export Plug-In . SVG Version: 6.00 Build 0)  -->
<svg version="1.1" id="Layer_1" xmlns="http://www.w3.org/2000/svg" xmlns:xlink="http://www.w3.org/1999/xlink" x="0px" y="0px"
	 viewBox="0 0 130 130" style="enable-background:new 0 0 130 130;" xml:space="preserve">
<style type="text/css">
	.st0{fill:none;}
	.st1{fill:#4D4D4D;}
</style>
<rect class="st0" width="130" height="130"/>
<path class="st1" d="M115.5,38.1c9-18.2-34.6-31.8-44.5-13.2c-6-15.6-45.5-16.1-41.9-0.1C16,14.6-5.3,31.4,5.4,49.2
	C-5.4,59.6,4.9,85.2,24.2,77C30,96.4,64.8,99.2,73.4,92.2c4.9,6.7-8,20.3-15.2,24.9c11.1,0.6,26.8-14.5,32.7-24.4
	c12.7-0.2,24.1-5.7,22.3-18.4C133.2,74.8,134.5,36.5,115.5,38.1z"/>
</svg>
