<?xml version="1.0" encoding="utf-8"?>
<!-- Generator: Adobe Illustrator 19.2.1, SVG Export Plug-In . SVG Version: 6.00 Build 0)  -->
<svg version="1.1" id="Layer_1" xmlns="http://www.w3.org/2000/svg" xmlns:xlink="http://www.w3.org/1999/xlink" x="0px" y="0px"
	 viewBox="0 0 130 130" style="enable-background:new 0 0 130 130;" xml:space="preserve">
<style type="text/css">
	.st0{fill:none;}
	.st1{fill:#4D4D4D;}
</style>
<rect class="st0" width="130" height="130"/>
<g>
	<path class="st1" d="M75.1,89.2c-8.7,0-15.7,5.7-15.7,12.7c0,7,7,12.7,15.7,12.7c8.7,0,15.7-5.7,15.7-12.7
		C90.8,94.9,83.7,89.2,75.1,89.2z"/>
	<path class="st1" d="M47.6,114.7c-4.9,0-8.8,3.2-8.8,7.1c0,4,4,7.1,8.8,7.1c4.9,0,8.8-3.2,8.8-7.1
		C56.5,117.9,52.5,114.7,47.6,114.7z"/>
	<g>
		<path class="st1" d="M68.1,81.4l47.1,0c3.5,0,6.3-2.8,6.3-6.3V7.3c0-3.5-2.8-6.3-6.3-6.3L14.6,1c-3.4,0.1-6.1,2.9-6.1,6.3v67.8
			c0,3.4,2.7,6.2,6.1,6.3l15.2,0.2L68.1,81.4z"/>
	</g>
</g>
</svg>
