<?xml version="1.0" encoding="utf-8"?>
<!-- Generator: Adobe Illustrator 19.2.1, SVG Export Plug-In . SVG Version: 6.00 Build 0)  -->
<svg version="1.1" id="Layer_1" xmlns="http://www.w3.org/2000/svg" xmlns:xlink="http://www.w3.org/1999/xlink" x="0px" y="0px"
	 viewBox="0 0 130 130" style="enable-background:new 0 0 130 130;" xml:space="preserve">
<style type="text/css">
	.st0{fill:none;}
	.st1{fill:#4D4D4D;}
</style>
<rect class="st0" width="130" height="130"/>
<path class="st1" d="M121.8,4.1L8,4.2c-3.9,0.1-7,3.3-7,7.1v76.9c0,3.9,3.1,7,7,7.1h35.2L65,125.9l21.8-30.5h35
	c3.9,0,7.2-3.2,7.2-7.1V11.3C129,7.3,125.8,4.1,121.8,4.1z M34.2,62.6c-5.2,0-9.4-4.2-9.4-9.4c0-5.2,4.2-9.4,9.4-9.4
	s9.4,4.2,9.4,9.4C43.5,58.4,39.3,62.6,34.2,62.6z M65,62.6c-5.2,0-9.4-4.2-9.4-9.4c0-5.2,4.2-9.4,9.4-9.4c5.2,0,9.4,4.2,9.4,9.4
	C74.4,58.4,70.2,62.6,65,62.6z M95.8,62.6c-5.2,0-9.4-4.2-9.4-9.4c0-5.2,4.2-9.4,9.4-9.4c5.2,0,9.4,4.2,9.4,9.4
	C105.2,58.4,101,62.6,95.8,62.6z"/>
</svg>
