<?xml version="1.0" encoding="utf-8"?>
<!-- Generator: Adobe Illustrator 19.2.1, SVG Export Plug-In . SVG Version: 6.00 Build 0)  -->
<svg version="1.1" id="Layer_1" xmlns="http://www.w3.org/2000/svg" xmlns:xlink="http://www.w3.org/1999/xlink" x="0px" y="0px"
	 viewBox="0 0 130 130" style="enable-background:new 0 0 130 130;" xml:space="preserve">
<style type="text/css">
	.st0{fill:none;}
	.st1{fill:#4D4D4D;}
</style>
<rect class="st0" width="130" height="130"/>
<path class="st1" d="M121.1,1L8.7,1C4.9,1.1,1.8,4.2,1.8,8v75.7c0,3.8,3.1,6.9,6.9,7h16.7V129l43.1-38.2l52.6,0c3.9,0,7.1-3.1,7.1-7
	V8C128.2,4.2,125,1,121.1,1z M35.4,58.7c-5.1,0-9.3-4.1-9.3-9.3c0-5.1,4.1-9.3,9.3-9.3c5.1,0,9.3,4.1,9.3,9.3
	C44.7,54.5,40.5,58.7,35.4,58.7z M65.9,58.7c-5.1,0-9.3-4.1-9.3-9.3c0-5.1,4.2-9.3,9.3-9.3c5.1,0,9.3,4.1,9.3,9.3S71,58.7,65.9,58.7
	z M96.3,58.7c-5.1,0-9.3-4.1-9.3-9.3c0-5.1,4.1-9.3,9.3-9.3c5.1,0,9.3,4.1,9.3,9.3C105.6,54.5,101.4,58.7,96.3,58.7z"/>
</svg>
