<?xml version="1.0" encoding="utf-8"?>
<!-- Generator: Adobe Illustrator 19.2.1, SVG Export Plug-In . SVG Version: 6.00 Build 0)  -->
<svg version="1.1" id="Layer_1" xmlns="http://www.w3.org/2000/svg" xmlns:xlink="http://www.w3.org/1999/xlink" x="0px" y="0px"
	 viewBox="0 0 130 130" style="enable-background:new 0 0 130 130;" xml:space="preserve">
<style type="text/css">
	.st0{fill:none;}
	.st1{fill:#4D4D4D;}
</style>
<rect class="st0" width="130" height="130"/>
<path class="st1" d="M68.4,8C30.8,8,1,29.9,1,57.1c0,15.4,9.2,29.1,24.5,38.1c3.5,2,3.9,17.3-15.6,26.6c0,0,27.6,4.4,45.1-17.8
	c4.3,0.6,8.8,1.9,13.4,1.9c37.6,0,60.6-21.7,60.6-48.8C129,29.9,106.1,8,68.4,8z M36.3,66c-4.9,0-8.9-4-8.9-8.9s4-8.9,8.9-8.9
	c4.9,0,8.9,4,8.9,8.9S41.3,66,36.3,66z M65.7,66c-4.9,0-8.9-4-8.9-8.9s4-8.9,8.9-8.9c4.9,0,8.9,4,8.9,8.9S70.6,66,65.7,66z M95.1,66
	c-4.9,0-8.9-4-8.9-8.9s4-8.9,8.9-8.9s8.9,4,8.9,8.9S100,66,95.1,66z"/>
</svg>
