<?xml version="1.0" encoding="utf-8"?>
<!-- Generator: Adobe Illustrator 19.2.1, SVG Export Plug-In . SVG Version: 6.00 Build 0)  -->
<svg version="1.1" id="Layer_1" xmlns="http://www.w3.org/2000/svg" xmlns:xlink="http://www.w3.org/1999/xlink" x="0px" y="0px"
	 viewBox="0 0 130 130" style="enable-background:new 0 0 130 130;" xml:space="preserve">
<style type="text/css">
	.st0{fill:none;}
	.st1{fill:#4D4D4D;}
</style>
<rect class="st0" width="130" height="130"/>
<g>
	<path class="st1" d="M113.8,87.8c9.5-5.6,15.2-14.1,15.2-23.6c0-16.8-18.5-30.5-41.9-30.5c-1.5,0-2.9,0.1-4.3,0.2
		c6.8,6.6,10.6,15.3,10.6,24.8c0,14.4-8.5,26.8-23.4,32.9c5,1.9,10.7,2.9,17.2,2.9c2.9,0,5.6-0.8,8.3-1.2
		c10.9,13.8,28.1,11.1,28.1,11.1C111.4,98.6,111.6,89.1,113.8,87.8z"/>
	<path class="st1" d="M47.1,25.4C21.4,25.4,1,40.5,1,59c0,10.5,6.3,19.9,16.8,26c2.4,1.4,2.6,11.9-10.7,18.2c0,0,18.9,3,30.9-12.2
		c3,0.4,6,1.3,9.2,1.3c25.8,0,41.4-14.8,41.4-33.4C88.6,40.5,72.9,25.4,47.1,25.4z"/>
</g>
</svg>
