<?xml version="1.0" encoding="utf-8"?>
<!-- Generator: Adobe Illustrator 19.2.1, SVG Export Plug-In . SVG Version: 6.00 Build 0)  -->
<svg version="1.1" id="Layer_1" xmlns="http://www.w3.org/2000/svg" xmlns:xlink="http://www.w3.org/1999/xlink" x="0px" y="0px"
	 viewBox="0 0 130 130" style="enable-background:new 0 0 130 130;" xml:space="preserve">
<style type="text/css">
	.st0{fill:none;}
	.st1{fill:#4D4D4D;}
</style>
<rect class="st0" width="130" height="130"/>
<g>
	<path class="st1" d="M42.2,92.1c-8,0-14.6,5.3-14.6,11.8c0,6.5,6.5,11.8,14.6,11.8c8.1,0,14.6-5.3,14.6-11.8
		C56.7,97.3,50.2,92.1,42.2,92.1z"/>
	<path class="st1" d="M65.7,1C34.9,1,9.9,21.2,9.9,46.1c0,24.9,25,45.1,55.8,45.1c30.8,0,55.8-20.2,55.8-45.1
		C121.5,21.2,96.5,1,65.7,1z M40.4,55.8c-4.6,0-8.3-3.7-8.3-8.3c0-4.6,3.7-8.3,8.3-8.3c4.6,0,8.3,3.7,8.3,8.3
		C48.7,52.1,45,55.8,40.4,55.8z M67.6,55.8c-4.6,0-8.3-3.7-8.3-8.3c0-4.6,3.7-8.3,8.3-8.3s8.3,3.7,8.3,8.3
		C75.8,52.1,72.1,55.8,67.6,55.8z M94.7,55.8c-4.6,0-8.3-3.7-8.3-8.3c0-4.6,3.7-8.3,8.3-8.3s8.3,3.7,8.3,8.3
		C102.9,52.1,99.2,55.8,94.7,55.8z"/>
	<path class="st1" d="M16.7,115.7c-4.5,0-8.2,3-8.2,6.6c0,3.7,3.7,6.6,8.2,6.6c4.5,0,8.2-3,8.2-6.6
		C24.9,118.7,21.2,115.7,16.7,115.7z"/>
</g>
</svg>
