<?xml version="1.0" encoding="utf-8"?>
<!-- Generator: Adobe Illustrator 19.2.1, SVG Export Plug-In . SVG Version: 6.00 Build 0)  -->
<svg version="1.1" id="Layer_1" xmlns="http://www.w3.org/2000/svg" xmlns:xlink="http://www.w3.org/1999/xlink" x="0px" y="0px"
	 viewBox="0 0 130 130" style="enable-background:new 0 0 130 130;" xml:space="preserve">
<style type="text/css">
	.st0{fill:none;}
	.st1{fill:#4D4D4D;}
	.st2{fill:#FFFFFF;}
</style>
<rect class="st0" width="130" height="130"/>
<g>
	<g>
		<path class="st1" d="M128.9,65c0,35.3-28.6,64-63.9,64c-35.3,0-63.9-28.7-63.9-64C1.1,29.6,29.7,1,65,1
			C100.3,1,128.9,29.6,128.9,65z"/>
		<path class="st2" d="M66.4,30.6c-1.7,0-3.7,1.3-4.4,2.8l-9.3,19.4c-0.7,1.5-0.7,4,0.1,5.5l11,20.3c0.8,1.5,2.8,2.7,4.5,2.6
			l22.8-0.5c1.7,0,3.7-1.3,4.5-2.8l9.5-18.8c0.8-1.5,0.7-4-0.2-5.4L93.1,33.1c-0.8-1.5-2.9-2.7-4.6-2.6L66.4,30.6z"/>
		<path class="st1" d="M68.5,81.8c-1.7,0-3.7,1.3-4.4,2.9l-8.5,18.1c-0.7,1.5-0.1,3.5,1.3,4.4l16.5,10.2c1.4,0.9,3.8,0.9,5.3,0.1
			l18.1-10.6c1.5-0.9,2.4-2.9,2-4.6l-3.9-18c-0.4-1.7-2-3-3.7-2.9L68.5,81.8z"/>
		<path class="st2" d="M27.6,56.8c-1.7,0.1-3.7,1.4-4.4,2.9L15,76.5c-0.7,1.5-0.6,3.9,0.3,5.4l12.1,19.6c0.9,1.4,3,2.7,4.7,2.8
			l18.7,0.9c1.7,0.1,3.6-1.1,4.4-2.6l8.4-18.1c0.7-1.5,0.6-4-0.2-5.5l-11-20.4c-0.8-1.5-2.8-2.6-4.5-2.6L27.6,56.8z"/>
		<path class="st1" d="M25.3,29.3c-1.4,0.9-2.5,3.1-2.4,4.8L24,53.5c0.1,1.7,1.6,3,3.2,2.9l20.6-1c1.7-0.1,3.7-1.4,4.4-2.9l9.3-19.4
			c0.7-1.5,0.3-3.7-1-4.8l-12.3-11c-1.3-1.1-3.4-1.3-4.8-0.3L25.3,29.3z"/>
		<path class="st1" d="M94,27.7c-1,1.3-1.2,3.6-0.4,5.1l11.8,20.7c0.8,1.5,2.9,2.6,4.6,2.5l10.6-0.5c1.7-0.1,2.9-1.5,2.8-3.2
			L121.2,37c-0.2-1.7-0.6-3.4-0.8-3.8c-0.2-0.4-2-2.2-3.3-3.2l-13.4-9.9c-1.4-0.9-3.4-0.6-4.4,0.7L94,27.7z"/>
		<path class="st1" d="M27.8,107.3c0.4-1.6,0.1-4.2-0.8-5.6L15,82.1c-0.9-1.4-2.9-2.9-4.5-3.3c-1.6-0.4-8.2-1.7-7.7,0.8
			c5.1,22.8,22.8,35.7,22.8,35.7c0.1,0,0.3-1.1,0.7-2.7L27.8,107.3z"/>
		<path class="st2" d="M22.5,59.6c0.7-1.5,1.2-4.2,1.1-5.8l-1.4-19.3c-0.1-1.7-1.4-3-2.7-2.9c-1.4,0.1-9.1,1.2-10.5,3
			c-3.8,5-7.8,18.4-7.8,30.6c0,3.7,0.5,7.9,0.5,7.9c0.2,1.7,1.7,3.4,3.4,3.8l5.4,1.4c1.6,0.4,3.6-0.5,4.3-2L22.5,59.6z"/>
		<path class="st2" d="M56.5,107.4c-1.4-0.9-4-1.7-5.7-1.7l-18.8-0.8c-1.7-0.1-3.4,1-3.7,2.4c-0.3,1.4-1.2,9.4,0.2,10.3
			c0,0,16.1,12.3,38.7,11.4c2-0.1,3.7-1.2,4.5-2.7l2.4-4.4c0.8-1.5,0.3-3.4-1.2-4.3L56.5,107.4z"/>
		<path class="st2" d="M124.7,58.6c-0.5-1.6-2.3-2.9-4-2.8l-10.6,0.6c-1.7,0.1-3.7,1.4-4.4,2.9l-9.4,18.9c-0.8,1.5-1.1,4.1-0.7,5.8
			l4,18.1c0.4,1.6,2,2.8,3.7,2.4l11.3-2.1c1.7-0.3,3.7-1.8,4.5-3.3c0,0,6.3-7.9,9.1-23.3c0.3-1.7,0.2-4.3-0.2-6L124.7,58.6z"/>
		<path class="st2" d="M63.7,4.1c-1.7,0-4.2,0.8-5.5,1.8l-9.8,6.9c-1.2,1.2-1.1,3.1,0.1,4.2L61,28.2c1.3,1.1,3.7,2,5.4,2l22.3-0.3
			c1.7,0,3.9-1.1,5-2.4l5.4-6.9c1.1-1.3,0.9-3.3-0.4-4.4L87.2,6.7c-1.3-1.1-3.7-2.2-5.4-2.5L63.7,4.1z"/>
		<path class="st2" d="M115.1,104.7c1-1.2,0.6-2.2-1-1.8l-11.3,2.3c-1.7,0.3-4.2,1.2-5.7,2l-18.3,10.5c-1.5,0.8-3.3,2.7-4.1,4.2
			l-2.3,4.3c-0.8,1.5-0.4,2.4,1.4,2.1C73.8,128.3,96.7,126.8,115.1,104.7z"/>
		<path class="st2" d="M121.4,34.9c1.8,9.2,2.5,20.4,2.5,20.4s2.5,5.2,4.6,16.7c0.2-2.2,0.4-4.5,0.4-6.8
			C128.9,54.3,126.2,43.9,121.4,34.9z"/>
		<path class="st2" d="M116.4,29.1c1.4,1,1.7,0.6,0.8-0.8C106.2,11.7,88.3,5.4,88.3,5.4c-1.5-0.8-1.8,0.1-0.5,1.2l11,9.5
			c1.3,1.1,3.5,2.7,4.9,3.6L116.4,29.1z"/>
		<path class="st2" d="M43.3,16.7c1.4-0.9,3.5-2.7,4.6-4l9.8-6.8c1.3-1,1.1-2.2-0.5-2.6l-8.8,0.1c-7.7,1.9-24,8.2-35.9,25.2
			C11.7,29.6,12.3,31,14,31c0,0,4.5-0.1,5.7-0.2c1.3,0,3.5-0.8,4.9-1.7L43.3,16.7z"/>
		<path class="st1" d="M58.6,3.1c1.2,0.4,3.5,0.6,5.1,0.3L81.4,4c1.7,0,1.8-0.5,0.1-0.9c0,0-7.4-2.1-16.6-2.1
			c-6.6,0-14.1,1.6-14.1,1.6C49.2,2.9,57.4,2.7,58.6,3.1z"/>
	</g>
</g>
</svg>
