<?xml version="1.0" encoding="utf-8"?>
<!-- Generator: Adobe Illustrator 19.2.1, SVG Export Plug-In . SVG Version: 6.00 Build 0)  -->
<svg version="1.1" id="Layer_1" xmlns="http://www.w3.org/2000/svg" xmlns:xlink="http://www.w3.org/1999/xlink" x="0px" y="0px"
	 viewBox="0 0 130 130" style="enable-background:new 0 0 130 130;" xml:space="preserve">
<style type="text/css">
	.st0{fill:none;}
	.st1{fill:#4D4D4D;}
</style>
<rect class="st0" width="130" height="130"/>
<g>
	<polygon class="st1" points="120.8,1 77.9,58.2 46.4,46.8 82.3,1 	"/>
	<polygon class="st1" points="9.2,1 52.1,58.2 83.6,46.8 47.7,1 	"/>
	<path class="st1" d="M65,41.8c-24.1,0-43.6,19.5-43.6,43.6c0,24.1,19.5,43.6,43.6,43.6s43.6-19.5,43.6-43.6
		C108.6,61.3,89.1,41.8,65,41.8z M65,113.6c-15.5,0-28.2-12.6-28.2-28.2c0-15.5,12.6-28.2,28.2-28.2s28.2,12.6,28.2,28.2
		C93.2,100.9,80.5,113.6,65,113.6z"/>
	<path class="st1" d="M65,62.7c-12.5,0-22.7,10.2-22.7,22.7c0,12.5,10.2,22.7,22.7,22.7s22.7-10.2,22.7-22.7
		C87.7,72.9,77.5,62.7,65,62.7z"/>
</g>
</svg>
