<?xml version="1.0" encoding="utf-8"?>
<!-- Generator: Adobe Illustrator 19.2.1, SVG Export Plug-In . SVG Version: 6.00 Build 0)  -->
<svg version="1.1" id="Layer_1" xmlns="http://www.w3.org/2000/svg" xmlns:xlink="http://www.w3.org/1999/xlink" x="0px" y="0px"
	 viewBox="0 0 130 130" style="enable-background:new 0 0 130 130;" xml:space="preserve">
<style type="text/css">
	.st0{fill:none;}
	.st1{fill:#4D4D4D;}
</style>
<rect class="st0" width="130" height="130"/>
<path class="st1" d="M65,1C29.7,1,1.1,29.7,1.1,65c0,35.3,28.6,64,63.9,64c35.3,0,63.9-28.7,63.9-64C128.9,29.7,100.3,1,65,1z
	 M82.2,54.6c-2.4,3.4-7,4.3-10.4,1.9c-3.4-2.4-4.3-7-1.9-10.4c2.4-3.4,7-4.3,10.4-1.9C83.7,46.6,84.6,51.2,82.2,54.6z M85,27.7
	c-1.9,2.8-5.8,3.5-8.7,1.6c-2.8-2-3.5-5.8-1.6-8.7c1.9-2.8,5.8-3.5,8.7-1.6C86.3,21,87,24.9,85,27.7z M108,41.6
	c-2,2.8-5.8,3.5-8.7,1.6c-2.8-2-3.5-5.8-1.6-8.7c2-2.8,5.8-3.5,8.7-1.6C109.3,34.9,110,38.7,108,41.6z"/>
</svg>
