<?xml version="1.0" encoding="utf-8"?>
<!-- Generator: Adobe Illustrator 19.2.1, SVG Export Plug-In . SVG Version: 6.00 Build 0)  -->
<svg version="1.1" id="Layer_1" xmlns="http://www.w3.org/2000/svg" xmlns:xlink="http://www.w3.org/1999/xlink" x="0px" y="0px"
	 viewBox="0 0 130 130" style="enable-background:new 0 0 130 130;" xml:space="preserve">
<style type="text/css">
	.st0{fill:none;}
	.st1{fill:#4D4D4D;}
</style>
<rect class="st0" width="130" height="130"/>
<g>
	<path class="st1" d="M14.7,33.1c6.5-4.4,14-6.7,22-7.5C42.6,14.1,50.6,5.3,59,1.3c-6.8,0.6-13.6,2.3-20,5.2l-2.9,1.3
		c-4.6,2.3-8.8,5.1-12.8,8.6C20.8,20.1,17.7,25.6,14.7,33.1z"/>
	<path class="st1" d="M60,1.2c1-0.1,2.1-0.1,3.1-0.2C62.1,1,61.1,1.1,60,1.2z"/>
	<path class="st1" d="M5.3,42c2-2.7,4.3-5,6.8-7c2-5.5,4.2-10,6.2-13.6c-6.1,6.5-10.6,14-13.4,21.9C5,42.8,5.1,42.4,5.3,42z"/>
	<path class="st1" d="M62.9,27.7c9.2,2.2,18.3,5.6,26.4,9.7c16.9,8.5,34.6,28.5,36.2,48.2c7.3-21.8,2.9-46.3-13.6-64.1l-2.4-2.4
		c-3.3-3.2-6.8-5.9-10.5-8.3C89.8,11.6,70.9,14.8,62.9,27.7z"/>
	<path class="st1" d="M37.7,25.5c7.6-0.6,15.6,0.1,23.5,1.9c7.7-13.1,25.1-16.9,35.4-18C90.6,6,84.3,3.6,77.7,2.3l-1.9-0.4
		C71.9,1.2,68,1,64.1,1C53.1,4.7,43.9,13.5,37.7,25.5z"/>
	<path class="st1" d="M97.9,10.1c0.3,0.2,0.7,0.4,1,0.6C98.6,10.6,98.2,10.4,97.9,10.1z"/>
	<path class="st1" d="M59.7,30.3c0.2-0.5,0.5-1,0.7-1.4c-8-1.7-16-2.4-23.5-1.7c-5.8,11.9-8.7,26.6-7.7,42.2
		c0.9,13.9,4.9,27,11.5,37.9c5.7,9.5,14,17.3,22.9,21.7c9.6,0.2,19.1-1.6,28-5.7l3-1.5c2.2-1.1,4.3-2.4,6.4-3.9
		C65.5,78.8,51.6,49.3,59.7,30.3z"/>
	<path class="st1" d="M88.6,38.9c-8.2-4.1-17.3-7.5-26.6-9.7c-0.3,0.6-0.6,1.1-0.9,1.7c-7.8,18.4,6,47.3,41.2,86
		c2.8-2,5.4-4.2,7.9-6.7c4.2-4.2,9.8-12.4,10.5-13.9l1.6-3c0.8-1.7,1.6-3.5,2.2-5.2C123.6,68.6,105.4,47.3,88.6,38.9z"/>
	<path class="st1" d="M61.7,128.9c-0.7,0-1.3,0-2-0.1C60.4,128.9,61.1,128.9,61.7,128.9z"/>
	<path class="st1" d="M4.1,84.4c-0.3-1.1-0.7-2.2-0.9-3.3C3.5,82.2,3.8,83.3,4.1,84.4z"/>
	<path class="st1" d="M10.9,38.2c-2.2,2.1-4.2,4.4-6,7.2l-0.7-0.4c-3.1,9.5-4,19.6-2.5,29.5l0.7,3.8c0.2,0.7,0.3,1.5,0.5,2.2
		C4.3,62.6,7.4,48.8,10.9,38.2z"/>
	<path class="st1" d="M39.2,108.2c-6.7-11.1-10.7-24.5-11.7-38.7c-1-15.3,2.4-30.1,8.2-42.2c-8.2,0.9-15.8,3.6-22.2,8.6
		C9.3,47.6,5.4,63.7,4.4,85.1c2.8,8.5,7.3,16.3,13.7,23.3l2.6,2.6c9.4,9.2,20.8,14.7,32.8,16.9l1.9,0.3c1.4,0.2,2.8,0.4,4.3,0.5
		C51.7,124.1,44.4,116.8,39.2,108.2z"/>
</g>
</svg>
