<?xml version="1.0" encoding="utf-8"?>
<!-- Generator: Adobe Illustrator 19.2.1, SVG Export Plug-In . SVG Version: 6.00 Build 0)  -->
<svg version="1.1" id="Layer_1" xmlns="http://www.w3.org/2000/svg" xmlns:xlink="http://www.w3.org/1999/xlink" x="0px" y="0px"
	 viewBox="0 0 130 130" style="enable-background:new 0 0 130 130;" xml:space="preserve">
<style type="text/css">
	.st0{fill:none;}
	.st1{fill:#4D4D4D;}
</style>
<rect class="st0" width="130" height="130"/>
<path class="st1" d="M124.5,41.4C118.2,25.5,106.1,13,90.4,6.3C82.3,2.8,73.8,1,65,1h0C39.4,1,16.3,16.2,6.2,39.6
	c-6.8,15.7-7.1,33-0.8,48.9c6.3,15.9,18.4,28.4,34.2,35.2c8.1,3.5,16.6,5.3,25.4,5.3c25.6,0,48.7-15.2,58.8-38.6
	C130.6,74.7,130.8,57.3,124.5,41.4z M33.6,117.5c-3.4-2-6.5-4.3-9.3-6.8c44,1.4-0.9-58.8-3.6-87.9c1.9-2,3.9-3.9,6-5.6
	C29.7,48.3,72.1,109,33.6,117.5z M109.4,107.2c-1.7,1.8-3.5,3.5-5.4,5.1c-12.6-15.2,5.3-49.7,14.6-77.1c1.7,3.1,3.2,6.3,4.3,9.6
	C113.6,68.5,99.4,96.2,109.4,107.2z"/>
</svg>
