<?xml version="1.0" encoding="utf-8"?>
<!-- Generator: Adobe Illustrator 19.2.1, SVG Export Plug-In . SVG Version: 6.00 Build 0)  -->
<svg version="1.1" id="Layer_1" xmlns="http://www.w3.org/2000/svg" xmlns:xlink="http://www.w3.org/1999/xlink" x="0px" y="0px"
	 viewBox="0 0 130 130" style="enable-background:new 0 0 130 130;" xml:space="preserve">
<style type="text/css">
	.st0{fill:none;}
	.st1{fill:#4D4D4D;}
</style>
<rect class="st0" width="130" height="130"/>
<g>
	<g>
		<path class="st1" d="M65,1C29.7,1,1.1,29.7,1.1,65c0,35.3,28.7,64,63.9,64c35.3,0,64-28.7,64-64C128.9,29.7,100.3,1,65,1z
			 M23.1,109.7C11.2,98.5,3.8,82.6,3.8,65c0-8.8,1.9-17.2,5.2-24.8l99.9-18c10.7,11,17.3,26.1,17.3,42.7c0,9.8-2.3,19.1-6.4,27.3
			L23.1,109.7z"/>
		<g>
			<path class="st1" d="M77.2,62.5c-0.8-4.3-2.4-6.2-4.7-5.8c-2.3,0.4-3,2.8-2.2,7.1l0.4,2.1c0.8,4.3,2.4,6.2,4.7,5.8
				c1.7-0.3,2.5-1.6,2.5-3.9c0-0.8-0.1-1.9-0.4-3.2L77.2,62.5z"/>
			<path class="st1" d="M92.4,59.6C89.3,46.3,76,38.1,62.8,41.2c-13.3,3.1-21.5,16.4-18.4,29.6C47.5,84.1,60.8,92.3,74,89.2
				C87.3,86.1,95.5,72.8,92.4,59.6z M64.8,76.7l-2.7,0.5c-0.4,0.1-0.6-0.1-0.7-0.5l-3.1-16.3l-3.1,1.8c-0.1,0-0.2,0.1-0.3,0.1
				c-0.2,0-0.3,0-0.4-0.3l-0.5-2.7c0-0.2,0-0.3,0.1-0.3l4.3-2.5c0.2-0.1,0.4-0.2,0.6-0.2l1.8-0.4c0.4-0.1,0.6,0.1,0.6,0.4l3.8,19.7
				C65.3,76.4,65.2,76.7,64.8,76.7z M76,74.8c-4.9,0.9-7.9-1.8-9.2-8.2l-0.4-2.1c-1.2-6.4,0.6-10.1,5.5-11c4.9-0.9,7.9,1.8,9.2,8.2
				l0.4,2.1C82.7,70.2,80.9,73.9,76,74.8z"/>
		</g>
	</g>
</g>
</svg>
