<?xml version="1.0" encoding="utf-8"?>
<!-- Generator: Adobe Illustrator 19.2.1, SVG Export Plug-In . SVG Version: 6.00 Build 0)  -->
<svg version="1.1" id="Layer_1" xmlns="http://www.w3.org/2000/svg" xmlns:xlink="http://www.w3.org/1999/xlink" x="0px" y="0px"
	 viewBox="0 0 130 130" style="enable-background:new 0 0 130 130;" xml:space="preserve">
<style type="text/css">
	.st0{fill:none;}
	.st1{fill:#4D4D4D;}
</style>
<rect class="st0" width="130" height="130"/>
<g>
	<path class="st1" d="M119.4,31.4c0.9,1.4,1.7,2.9,2.5,4.3C121.1,34.3,120.3,32.8,119.4,31.4C119.4,31.4,119.4,31.4,119.4,31.4z"/>
	<path class="st1" d="M112.7,107.1c-0.4,0.2-1.5,0.8-2,0.9c-0.5,0.1-1.1,0-1.1-0.6c0-0.7,0.9-1.5,2-1.8c0.8-0.2,1.7-0.5,2.1-0.6
		c0.1-0.4,0.7-0.2,1.2-0.1c-0.2,0.3-0.5,0.6-0.7,0.9c0,0.1,0,0.1,0,0.2c9.2-11.1,14.8-25.4,14.8-40.9c0-10.5-2.6-20.4-7-29.2
		c-0.1-0.1-0.2-0.2-0.3-0.2c-0.4-0.4-1.1-1.5-1.5-1.9c-0.3-0.3-1.2-0.9-1.3-1.6c-0.5,0.2-1.4,0.1-1.7,0.1c-0.5-0.1-1.7-0.1-2.2-0.2
		c-0.5-0.1-1-0.4-0.6-0.8c0.4-0.5,1.6-0.7,2.7-0.4c0.8,0.2,1.8,0.4,2.2,0.5c0,0,0,0,0,0c0,0,0,0,0,0c0,0,0,0,0,0
		C108.1,13.1,87.9,1,65,1C49.1,1,34.5,6.9,23.3,16.5c0.2-0.1,0.4-0.2,0.5-0.1c0.3,0.1,0,0.4-0.3,0.7c-0.3,0.2-1,0.7-1.3,0.9
		c-0.2,0.1-0.7,0.5-1,0.6c0,0.4-0.9,1.2-1.1,1.5c-0.3,0.4-0.9,1.4-1.3,1.8c-0.3,0.4-0.7,0.8-0.8,0.4c0-0.3,0.1-0.7,0.4-1.2
		C7.7,32.6,1.1,48,1.1,65c0,22.7,11.8,42.7,29.7,54c-0.3-0.3-0.8-0.8-1.1-1c-0.2-0.2-0.7-0.6-0.9-1c-0.2,0-0.4-0.1-0.8-0.3
		c-0.7-0.4-1.2-0.7-1.6-1.2c-0.4-0.5-0.1-0.4,0.2-0.3c0.2,0.1,1,0.5,1.2,0.6c0.2,0.1,0.8,0,1.1,0.6c0,0.1,0,0.1,0.1,0.1
		c0.3,0.2,0.8,0.6,1.2,0.9c0.6,0.5,1.2,1.2,1.3,1.7c0.1,0.3-0.1,0.3-0.3,0.2C41,125.4,52.6,129,65,129c19.5,0,36.9-8.7,48.6-22.4
		C113.3,106.8,112.9,107,112.7,107.1z M51.3,71.3c0.2,0.8-0.8,0.8-1.6,0.6c-0.8-0.2-2.6-1-3.3-1.2c-0.5-0.2-1.6-0.6-2.2-1.2
		c-0.3,0.2-1.5,1.2-3.3,1.5c-1.8,0.4-3.3,0.8-4,0.2c-0.6-0.5,0.3-0.9,1-1.2c0.8-0.4,2.6-0.7,3.3-1c0.7-0.3,2.5-1.5,3-0.9
		c0.6,0.1,2.2,0.5,3.6,0.9C49.6,69.3,51.1,70.4,51.3,71.3z M50.6,63.4c0.3,0.7-0.7,0.9-1.5,0.8c-0.8-0.1-2.7-0.7-3.5-0.8
		c-0.5-0.1-1.8-0.4-2.4-0.9c-0.2,0.2-1.4,1.3-3.1,1.9c-1.8,0.6-3.2,1.2-3.9,0.7c-0.7-0.4,0.1-0.9,0.9-1.4c0.7-0.5,2.5-1.1,3.2-1.4
		c0.7-0.3,2.4-1.8,2.9-1.3c0.6,0.1,2.3,0.3,3.7,0.4C48.7,61.7,50.3,62.6,50.6,63.4z M49.5,55.3c0.3,0.7-0.6,0.9-1.4,0.9
		c-0.8,0-2.8-0.5-3.5-0.5c-0.5-0.1-1.9-0.3-2.6-0.8c-0.5,0.7-2,1.2-2.6,1.5c-0.7,0.4-2.3,1.7-3,2.1c-0.7,0.4-1.6,0.8-1.3-0.2
		c0.4-1.2,1.7-2.1,3.3-3.4c1.7-1.4,3.3-1.6,3.3-1.6s0.1,0.1,0.2,0.2c0.7,0,2.3,0.1,3.7,0.1C47.4,53.8,49.1,54.5,49.5,55.3z
		 M46.5,49.5c-0.8,0.1-2.8-0.2-3.5-0.2c-0.5,0-1.9-0.1-2.7-0.5c-0.4,0.7-1.8,1.4-2.2,1.9c-0.6,0.5-1.9,1.9-2.6,2.4
		c-0.7,0.5-1.4,1-1.2,0.1c0.2-1.1,1.3-2.2,2.6-3.6c1.4-1.5,2.9-2,2.9-2s0,0,0,0c0.3,0,2.3-0.2,3.9-0.3c1.8-0.1,3.5,0.4,4,1.2
		C48.2,49.1,47.3,49.4,46.5,49.5z M44.5,42.8c-0.8,0.1-2.8,0-3.5,0.1c-0.6,0-2.1,0-2.8-0.4c-0.3,0.7-1.6,1.5-2.1,2
		c-0.5,0.5-1.8,2.1-2.4,2.6c-0.6,0.5-1.3,1.1-1.2,0.2c0.1-1.1,1.1-2.2,2.4-3.8c1.3-1.6,2.7-2.2,2.7-2.2s0.1,0,0.2,0.1
		c0.5-0.1,2.3-0.3,3.8-0.5c1.8-0.2,3.6,0.1,4.1,0.9C46.2,42.2,45.3,42.6,44.5,42.8z M43,35.3c0.5,0.5-0.3,1-1,1.2
		c-0.8,0.2-2.7,0.4-3.4,0.5c-0.6,0.1-2.2,0.3-2.8-0.1c-0.1,0.8-1.6,1.6-2,2.1c-0.5,0.5-1.7,2-2.3,2.5c-0.6,0.5-1.2,1-1.1,0.2
		c0.1-1,1.1-2.1,2.2-3.6c1.3-1.5,2.6-2.1,2.6-2.1s0,0,0.1,0c0,0,0,0,0,0s2-0.6,3.7-1C40.6,34.5,42.4,34.7,43,35.3z M39.1,30
		c0.5,0.4-0.1,0.9-0.7,1.2c-0.6,0.3-2.2,0.6-2.8,0.8c-0.5,0.2-1.9,0.5-2.4,0.1c0.1,0.7-1.4,1.6-1.8,2c-0.5,0.4-1.5,1.8-2,2.2
		c-0.5,0.4-1.1,0.9-1,0.1c0.1-0.9,1-1.9,2-3.2c1.1-1.4,2.3-1.9,2.3-1.9s0.1,0,0.1,0.1c0.2-0.1,1.7-0.7,2.9-1.2
		C37,29.6,38.5,29.6,39.1,30z M19.6,23.4c-0.5,0.4-1,0.9-0.9,0.3c0.1-0.7,0.8-1.6,1.7-2.7c1-1.2,2-1.8,2-1.8s0.1,0,0.2,0.1
		c0.2-0.1,1-0.7,1.8-1.1c0.8-0.5,1.8-0.8,2.2-0.7c0.3,0.1-0.1,0.5-0.4,0.7c-0.4,0.2-1.4,0.7-1.7,0.9c-0.3,0.2-1.1,0.6-1.5,0.5
		c0.1,0.5-1.2,1.4-1.6,1.8C21,21.8,20.1,23,19.6,23.4z M21.8,25.7c-0.5,0.4-1,0.8-1,0.2c0.1-0.8,0.9-1.6,2-2.8
		c0.8-0.9,1.6-1.4,2-1.6c0,0,0,0,0,0s1.3-0.8,2.3-1.5s2.2-1,2.7-0.8c0.4,0.2-0.1,0.6-0.5,0.9c-0.5,0.3-1.7,0.9-2.2,1.1
		c-0.3,0.2-1.1,0.6-1.7,0.7c0,0,0,0.1,0,0.1c0.1,0.6-1.3,1.4-1.7,1.8C23.3,24.2,22.3,25.4,21.8,25.7z M24,29c0-0.8,0.8-1.8,1.7-3.1
		c1-1.3,2.1-1.9,2.1-1.9s0.1,0,0.2,0c0.3-0.2,1.5-0.7,2.4-1.2c1.2-0.5,2.4-0.7,2.9-0.5c0.4,0.2-0.1,0.6-0.7,0.9
		c-0.5,0.3-1.9,0.7-2.4,0.9c-0.4,0.1-1.4,0.5-1.9,0.5c0.2,0.6-1.2,1.6-1.6,2c-0.4,0.4-1.3,1.7-1.8,2.2C24.4,29.2,23.9,29.7,24,29z
		 M26.1,32.8c0-0.9,0.8-2,1.7-3.4c1-1.5,2.1-2.1,2.1-2.1s0.1,0,0.2,0.1c0.5-0.2,1.7-0.7,2.7-1.1c1.3-0.5,2.8-0.6,3.3-0.2
		c0.4,0.3-0.2,0.8-0.8,1c-0.6,0.3-2.2,0.6-2.8,0.8c-0.4,0.1-1.5,0.4-2.1,0.4c0,0.7-1.2,1.6-1.6,2c-0.4,0.5-1.3,1.9-1.8,2.4
		C26.7,33,26.1,33.5,26.1,32.8z M34,118.5c-0.5-0.3-1.5-1.3-1.9-1.6c-0.3-0.2-1-0.9-1.3-1.4c-0.1,0-0.8,0.2-1.6-0.2
		c-0.9-0.4-1.6-0.7-1.9-1.4c-0.2-0.5,0.2-0.5,0.6-0.4c0.4,0.1,1.3,0.5,1.6,0.6c0.3,0.1,1.1,0,1.4,0.4c0,0,0,0,0,0s1.2,0.9,2.2,1.6
		c1,0.7,1.8,1.8,1.9,2.4C35.1,119,34.5,118.8,34,118.5z M36.8,116.7c-0.5-0.4-1.4-1.5-1.8-1.8c-0.3-0.3-0.9-1-1.2-1.5
		c-0.2,0-0.9,0.1-1.7-0.4c-0.9-0.5-1.7-0.9-1.9-1.6c-0.2-0.6,0.3-0.5,0.7-0.4c0.4,0.1,1.3,0.6,1.7,0.7c0.3,0.1,1.2,0.1,1.5,0.6
		c0.1,0.1,1.2,1,2.2,1.8c1,0.8,1.7,2,1.6,2.7C37.9,117.3,37.2,117.1,36.8,116.7z M40.8,113.8c-0.6-0.4-2-1.6-2.5-1.9
		c-0.4-0.3-1.2-0.9-1.6-1.6c-0.4,0.1-1.2,0.1-2.1-0.2c-1.2-0.5-2.2-0.8-2.6-1.6c-0.3-0.7,0.3-0.6,0.8-0.6c0.5,0,1.8,0.5,2.3,0.6
		c0.5,0.1,1.8-0.1,2,0.5c0.5,0.3,1.7,1,2.7,1.6c1.4,0.8,2.4,2.1,2.5,3C42.2,114.3,41.4,114.1,40.8,113.8z M43.4,110.6
		c-0.7-0.4-2.2-1.7-2.8-2.1c-0.4-0.3-1.3-1-1.8-1.7c-0.4,0.1-1.3,0.2-2.4-0.2c-1.4-0.5-2.5-0.8-2.9-1.7c-0.3-0.7,0.3-0.7,0.9-0.6
		c0.6,0,2,0.6,2.5,0.6c0.5,0.1,1.8-0.1,2.1,0.5c0.6,0.3,1.9,1.1,3.1,1.8c1.5,0.9,2.6,2.3,2.7,3.2C45,111.2,44.1,111,43.4,110.6z
		 M47,105.6c-0.7-0.3-2.3-1.5-2.9-1.9c-0.4-0.2-1.4-0.9-1.9-1.6c-0.1,0-1.5,0.6-3.2,0.3c-1.6-0.3-3-0.4-3.4-1.2
		c-0.4-0.7,0.4-0.8,1.2-0.8c0.7-0.1,2.4,0.2,3,0.2c0.6,0,2.3-0.5,2.7,0.1c0.6,0.3,2,1,3.2,1.6c1.5,0.8,2.8,2.1,2.9,3
		C48.7,106.1,47.8,106,47,105.6z M48.5,99.6c-0.7-0.3-2.3-1.5-2.9-1.9c-0.4-0.2-1.4-0.9-1.9-1.5c-0.2,0.1-1.5,0.6-3.1,0.3
		c-1.6-0.3-3-0.4-3.4-1.2c-0.4-0.7,0.4-0.7,1.2-0.8c0.7-0.1,2.4,0.2,3,0.2c0.6,0,2.4-0.5,2.7,0.2c0.6,0.3,1.9,1,3.1,1.5
		c1.5,0.8,2.8,2.1,2.9,3C50.1,100.1,49.2,100,48.5,99.6z M49.6,93.1c-0.8-0.3-2.5-1.3-3.2-1.6c-0.4-0.2-1.4-0.7-1.9-1.2
		c-0.5,0.2-1.7,0.7-3.2,0.6c-1.8-0.1-3.2-0.1-3.7-0.9c-0.4-0.6,0.4-0.8,1.2-1c0.8-0.2,2.5,0,3.2-0.1c0.7-0.1,2.6-0.8,2.9-0.1
		c0.7,0.3,2,0.7,3.1,1.1c1.7,0.6,3.1,1.8,3.2,2.7C51.4,93.4,50.4,93.4,49.6,93.1z M50.2,86.1c-0.8-0.2-2.6-1.2-3.2-1.4
		c-0.5-0.2-1.5-0.7-2.1-1.3c-0.3,0.2-1.6,1.1-3.4,1.3c-1.9,0.3-3.4,0.6-4-0.1c-0.6-0.5,0.3-0.9,1.1-1.2c0.8-0.3,2.7-0.6,3.4-0.8
		c0.7-0.2,2.5-1.3,3-0.8c0.6,0.2,2.2,0.7,3.5,1.1c1.7,0.5,3.1,1.7,3.3,2.6C52,86.3,51,86.3,50.2,86.1z M50.6,79.4
		c-0.8-0.2-2.6-1-3.3-1.2C46.8,78,45.6,77.5,45,77c-0.3,0.3-1.6,1.1-3.2,1.5c-1.8,0.4-3.3,0.8-4,0.2c-0.6-0.5,0.3-0.9,1-1.2
		c0.8-0.4,2.6-0.7,3.3-1c0.7-0.3,2.7-1.6,3.1-0.8c0,0,0,0,0,0c0.7,0.2,2.2,0.5,3.5,0.9c1.7,0.4,3.2,1.5,3.5,2.4
		C52.4,79.6,51.4,79.6,50.6,79.4z M112.1,35.3c0.5-0.5,1.6-0.8,2.7-0.5c1,0.2,2.2,0.5,2.3,0.6c0.1,0,0.1-0.1,0.1-0.1s1,0.3,1.9,1.4
		c0.8,1.1,1.5,1.8,1.6,2.7c0.1,0.7-0.4,0.3-0.8,0c-0.4-0.3-1.3-1.4-1.6-1.7c-0.3-0.3-1.5-0.9-1.4-1.5c-0.4,0.4-1.5,0.3-1.9,0.3
		c-0.4-0.1-1.7-0.1-2.2-0.2C112.2,36.1,111.7,35.8,112.1,35.3z M109,40.6c0.5-0.6,1.9-1.1,3.2-0.9c1.3,0.1,3,0.3,3,0.3s0,0,0,0
		c0.1,0,0.1-0.1,0.1-0.1s1.1,0.3,2.1,1.6c0.9,1.2,1.7,2.1,1.8,3c0.1,0.8-0.4,0.4-0.9,0c-0.5-0.4-1.4-1.6-1.8-2
		c-0.4-0.3-1.6-1-1.6-1.7c-0.5,0.5-1.8,0.6-2.3,0.6c-0.5,0-2.1,0.1-2.7,0C109.2,41.4,108.6,41.1,109,40.6z M106.9,46.2
		c0.4-0.7,1.9-1.2,3.3-1.2c1.2,0,2.7,0,3.1,0c0.1-0.1,0.1-0.1,0.1-0.1s1.1,0.4,2.2,1.7c1,1.3,1.8,2.2,1.9,3.2c0.1,0.8-0.4,0.4-1-0.1
		c-0.5-0.4-1.5-1.7-1.9-2.1c-0.4-0.4-1.4-1-1.6-1.6c-0.5,0.5-1.8,0.6-2.2,0.7c-0.6,0-2.2,0.3-2.8,0.3
		C107.2,47,106.5,46.7,106.9,46.2z M105.2,52c0.4-0.7,1.8-1.2,3.2-1.3c1.3,0,3-0.1,3.1-0.1c0,0,0,0,0,0s0,0,0,0h0v0
		c0.1,0,1.2,0.4,2.3,1.6c1.1,1.2,2,2.1,2.1,3.1c0.1,0.8-0.4,0.4-1,0c-0.5-0.4-1.6-1.6-2.1-2c-0.4-0.3-1.5-0.9-1.7-1.5
		c-0.6,0.4-1.7,0.6-2.2,0.6c-0.6,0-2.2,0.4-2.8,0.4C105.6,52.8,104.9,52.6,105.2,52z M103.8,57.7c0.3-0.7,1.7-1.3,3.1-1.4
		c1.1-0.1,2.4-0.2,2.9-0.3c0.1-0.2,0.2-0.2,0.2-0.2s1.2,0.1,2.6,1.3c1.3,1.1,2.3,1.9,2.6,2.9c0.2,0.9-0.4,0.5-1,0.2
		c-0.6-0.3-1.9-1.4-2.4-1.8c-0.4-0.3-1.7-0.7-2-1.3c-0.5,0.4-1.7,0.7-2.1,0.8c-0.6,0.1-2.1,0.5-2.8,0.5
		C104.3,58.5,103.5,58.3,103.8,57.7z M102.9,64.3c0.3-0.7,1.6-1.3,3-1.5c1.1-0.1,2.4-0.3,2.9-0.3c0.4-0.5,1.8,0.8,2.3,1.1
		c0.5,0.3,2,0.9,2.5,1.3s1.2,0.9,0.7,1.2c-0.6,0.4-1.7-0.1-3.1-0.7c-1.3-0.5-2.3-1.5-2.5-1.7c-0.5,0.4-1.5,0.7-1.9,0.7
		c-0.6,0.1-2.1,0.6-2.8,0.6C103.4,65.1,102.7,64.9,102.9,64.3z M105.1,68.9c1.2-0.2,2.5-0.5,2.9-0.6c0.4-0.4,1.8,0.7,2.4,0.9
		c0.6,0.3,2.1,0.7,2.7,1.1c0.6,0.4,1.3,0.8,0.8,1.2c-0.6,0.5-1.7,0-3.2-0.4c-1.4-0.4-2.4-1.3-2.6-1.5c-0.5,0.4-1.4,0.8-1.8,0.9
		c-0.5,0.1-2,0.7-2.6,0.8c-0.6,0.1-1.4,0-1.2-0.6C102.6,69.9,103.7,69.1,105.1,68.9z M101.7,76.6c0.2-0.7,1.4-1.4,2.8-1.6
		c1.1-0.1,2.3-0.3,2.8-0.4c0,0,0,0,0,0c0.3-0.6,1.9,0.7,2.4,1c0.6,0.3,2,0.8,2.7,1.2c0.6,0.4,1.3,0.8,0.8,1.2
		c-0.6,0.5-1.7-0.1-3.2-0.6c-1.3-0.5-2.3-1.3-2.6-1.6c-0.5,0.4-1.4,0.7-1.8,0.8c-0.5,0.1-2,0.6-2.6,0.7
		C102.3,77.3,101.5,77.1,101.7,76.6z M101.9,82c0.1-0.7,1.3-1.4,2.6-1.6c1.1-0.2,2.4-0.4,2.8-0.5c0.4-0.4,1.8,0.8,2.4,1
		c0.6,0.3,2.1,0.7,2.7,1.1c0.6,0.4,1.3,0.8,0.9,1.2c-0.5,0.5-1.7,0-3.2-0.5c-1.4-0.5-2.4-1.4-2.7-1.6c-0.5,0.4-1.3,0.7-1.7,0.8
		c-0.5,0.1-2,0.6-2.6,0.7C102.6,82.7,101.8,82.6,101.9,82z M102.4,87.8c0.1-0.7,1.2-1.4,2.5-1.6c0.9-0.1,1.9-0.3,2.5-0.4
		c0.2-0.6,1.8,0.4,2.3,0.6c0.6,0.2,2,0.4,2.6,0.6c0.6,0.3,1.3,0.6,0.9,1c-0.4,0.6-1.5,0.4-2.9,0.1c-1.2-0.2-2.2-0.8-2.5-1.1
		c-0.5,0.4-1.2,0.6-1.6,0.7c-0.5,0.1-1.9,0.7-2.5,0.7C103.1,88.5,102.3,88.4,102.4,87.8z M103.4,93.4c0.1-0.7,1.1-1.5,2.3-1.8
		c1-0.3,2.1-0.6,2.5-0.7c0.3-0.3,1.6,0.3,2.1,0.4c0.5,0.1,1.8,0.2,2.4,0.4c0.6,0.2,1.2,0.4,0.9,1c-0.4,0.6-1.4,0.5-2.7,0.4
		c-1.3-0.1-2.3-0.8-2.5-0.9c-0.4,0.4-1.1,0.8-1.5,0.9c-0.5,0.2-1.7,0.8-2.3,0.9C104.1,94.1,103.3,94.1,103.4,93.4z M104.5,98.7
		c0.1-0.7,1.1-1.5,2.3-1.8c1.1-0.3,2.4-0.6,2.7-0.6c0.4-0.2,1.6,0.4,2,0.6c0.5,0.2,1.8,0.3,2.4,0.5c0.6,0.2,1.2,0.5,0.9,1
		c-0.4,0.6-1.4,0.4-2.7,0.3c-1.4-0.2-2.5-1-2.6-1.1c-0.4,0.4-1.1,0.8-1.5,0.9c-0.5,0.1-1.7,0.7-2.3,0.8
		C105.2,99.4,104.5,99.3,104.5,98.7z M107.4,103.9c0-0.8,0.9-1.6,2.1-1.9c0.9-0.3,2-0.6,2.5-0.7c0.3-0.4,1.3,0.1,1.7,0.2
		c0.4,0.1,1.5-0.1,2,0.1c0.5,0.1,1,0.3,0.7,0.8c-0.3,0.7-1.2,0.7-2.3,0.8c-0.8,0.1-1.6-0.3-1.9-0.5c-0.4,0.5-1.1,0.8-1.4,1
		c-0.5,0.2-1.7,0.9-2.2,1C108.1,104.6,107.4,104.5,107.4,103.9z"/>
</g>
</svg>
