<?xml version="1.0" encoding="utf-8"?>
<!-- Generator: Adobe Illustrator 19.2.1, SVG Export Plug-In . SVG Version: 6.00 Build 0)  -->
<svg version="1.1" id="Layer_1" xmlns="http://www.w3.org/2000/svg" xmlns:xlink="http://www.w3.org/1999/xlink" x="0px" y="0px"
	 viewBox="0 0 130 130" style="enable-background:new 0 0 130 130;" xml:space="preserve">
<style type="text/css">
	.st0{fill:none;}
	.st1{fill:#4D4D4D;}
</style>
<rect class="st0" width="130" height="130"/>
<g>
	<path class="st1" d="M24.6,53c-0.5-3.2-1.1-5.7-1.5-7.4c3.1-2,6.5-3.9,10.3-5.6c1.2,3.1,2.2,6,2.9,8.9c2-0.6,4-1.1,6.1-1.6
		c0,0,0,0,0,0c0.3-1,1.5-2.1,2.7-2.4c0.2-0.1,1.5-0.4,3.5-0.9l0.4-1.4c0.2-0.9,1-1.6,1.8-1.6h0.3c0.7,0,1.2,0.7,1,1.6l-0.2,0.8
		c0.9-0.2,1.9-0.3,2.9-0.5l0.2-1c0.2-0.9,0.9-1.5,1.7-1.5H57c0.7,0,1.2,0.7,1.1,1.5l-0.1,0.6c0.9-0.1,1.9-0.2,2.8-0.3l0.1-1
		c0.1-0.9,0.8-1.6,1.5-1.6h0.3c0.7,0,1.2,0.7,1.2,1.6l-0.1,0.8c0.9-0.1,1.8-0.1,2.8-0.1l0.1-1.3c0-0.9,0.7-1.6,1.4-1.6h0.3
		c0.7,0,1.3,0.7,1.3,1.6l0,1.2c0.9,0,1.8,0,2.8,0l0-1.3c0-0.9,0.6-1.6,1.3-1.6h0.3c0.7,0,1.3,0.7,1.4,1.6l0.1,1.4
		c0.9,0,1.8,0.1,2.8,0.2L78,41c-0.1-0.9,0.4-1.6,1.2-1.6h0.3c0.7,0,1.4,0.7,1.5,1.6l0.2,1.1c0.9,0.1,1.9,0.2,2.8,0.4l-0.1-0.8
		c-0.1-0.9,0.3-1.5,1.1-1.5h0.3c0.7,0,1.5,0.7,1.7,1.5L87,43c1,0.2,2,0.4,2.9,0.6l-0.3-1.1c-0.2-0.9,0.2-1.6,1-1.6h0.3
		c0.7,0,1.5,0.7,1.8,1.6l0.5,1.8c1.1,0.3,2.1,0.5,3.2,0.8c1.2,0.3,2.4,1.5,2.7,2.7c0,0.1,0,0.1,0,0.1c1.3,0.3,2.6,0.7,3.9,1.1
		c-1-5.2-2.2-8.5-2.4-9c0.8,0.3,1.6,0.7,2.5,1.1c-21.6-9.7-43.5-7.7-43.5-7.7C19.4,36.6,3,65.4,3,65.4s0.2-0.3,0.5-0.8
		C7.8,61.5,15,57,24.6,53z"/>
	<path class="st1" d="M110.5,45c1.7,2.5,2.9,5.2,3.7,7.9c4,1.5,8,3.2,12.1,5.2c0.3,0.3,0.6,0.7,0.9,1c-6.3-7.5-13.8-12.9-21.4-16.6
		C107.4,43.2,109,44.1,110.5,45z"/>
	<path class="st1" d="M35.4,82.7c8.6,1.9,17.2,2.9,25.7,2.9c16.9,0,31.1-3.7,42.2-8.2c1.9-11.2,1.1-21-0.1-27.7
		c-1.3-0.4-2.7-0.8-4-1.1c-0.1,0.7-0.8,1.1-1.7,0.8c-1-0.3-2-0.5-3-0.8l0,0.1c0.2,0.9-0.2,1.6-1.1,1.6h-0.3c-0.8,0-1.7-0.7-1.9-1.6
		L91,48c-1-0.2-2.1-0.4-3.1-0.6l0.2,0.8c0.2,0.9-0.4,1.6-1.2,1.6h-0.3c-0.8,0-1.6-0.7-1.8-1.6l-0.2-1.2c-1-0.1-2-0.3-3-0.4l0.1,0.9
		c0.1,0.9-0.5,1.6-1.3,1.6h-0.3c-0.8,0-1.5-0.7-1.6-1.6l-0.1-1.2c-1-0.1-2-0.1-2.9-0.2l0,0.7c0,0.9-0.6,1.6-1.4,1.6h-0.3
		c-0.8,0-1.5-0.7-1.5-1.6l0-0.8c-1,0-2,0-2.9,0l0,0.9c0,0.9-0.7,1.6-1.5,1.6h-0.3c-0.8,0-1.4-0.7-1.4-1.6l0-0.8c-1,0-2,0.1-2.9,0.1
		l-0.1,1.4c-0.1,0.9-0.8,1.6-1.6,1.6h-0.3c-0.8,0-1.4-0.7-1.3-1.6l0.2-1.2c-1,0.1-2,0.2-3,0.3L57,48.1c-0.1,0.9-0.9,1.6-1.8,1.6
		h-0.3c-0.8,0-1.4-0.7-1.2-1.6l0.3-1.3c-1.1,0.1-2.1,0.3-3,0.4l-0.4,1.6c-0.2,0.9-1.1,1.6-1.9,1.6h-0.3c-0.8,0-1.3-0.7-1.1-1.6
		l0.3-1c-2.1,0.4-3.3,0.7-3.4,0.7c-0.2,0-0.4,0.1-0.6,0.1c-0.6,0-1.1-0.3-1.2-0.8c-2,0.5-4,1-5.9,1.6C40.6,64.9,38.1,76,35.4,82.7z"
		/>
	<path class="st1" d="M127.3,59.1c-4.3-2.1-8.5-3.9-12.8-5.6c1.7,6.5,1.3,13.2,0.1,18.7c5.5-3,9.7-5.9,12.4-7.9l0.1,0.1
		c1.3-1.9,1.9-3.1,1.9-3.1C128.4,60.5,127.8,59.8,127.3,59.1z"/>
	<path class="st1" d="M127,64.5c-0.2,0.3-0.5,0.7-0.8,1.1C126.5,65.2,126.8,64.8,127,64.5z"/>
	<path class="st1" d="M112.3,80.2c-1.6,1.3-3.4,2.6-5.3,3.9C108.9,82.8,110.7,81.5,112.3,80.2z"/>
	<path class="st1" d="M114.4,73c-0.6,2.8-1.4,5.3-2.1,7.2c6.7-5.4,11.3-10.9,13.9-14.6C123.5,67.7,119.5,70.3,114.4,73z"/>
	<path class="st1" d="M100.9,87.7c1-3.3,1.8-6.4,2.4-9.5c-11.1,4.5-25.3,8.1-42.1,8.1c-8.6,0-17.3-1-26-3c-1.8,4-3.6,6.3-4,6.8
		c-1.2-0.5-2.4-1-3.6-1.5c19,8.6,37,8.1,37,8.1c18.4-0.3,32.4-5.9,42.6-12.6C105.1,85.3,103.1,86.5,100.9,87.7z"/>
	<path class="st1" d="M103.2,41.2c0.8,0.4,1.6,0.7,2.4,1.1C104.8,41.9,104,41.6,103.2,41.2z"/>
	<path class="st1" d="M23.5,86.7c0.6-2,1-4.1,1.3-6.1c-6.8-2.1-13.7-4.8-20.5-8.1c-0.4-0.4-0.8-0.8-1.2-1.2
		c7.2,3.6,14.5,6.5,21.7,8.8c1.6-10,0.9-19.5-0.2-26.4C14.3,58,6.7,62.9,2.6,66L1,68.7c7.7,9.4,17.1,15.6,26.2,19.8
		C25.9,87.9,24.7,87.3,23.5,86.7z"/>
</g>
</svg>
