<?xml version="1.0" encoding="utf-8"?>
<!-- Generator: Adobe Illustrator 19.2.1, SVG Export Plug-In . SVG Version: 6.00 Build 0)  -->
<svg version="1.1" id="Layer_1" xmlns="http://www.w3.org/2000/svg" xmlns:xlink="http://www.w3.org/1999/xlink" x="0px" y="0px"
	 viewBox="0 0 130 130" style="enable-background:new 0 0 130 130;" xml:space="preserve">
<style type="text/css">
	.st0{fill:none;}
	.st1{fill:#4D4D4D;}
</style>
<rect class="st0" width="130" height="130"/>
<g>
	<g>
		<path class="st1" d="M75.8,29.8c0.6,0.1,1.3,0.2,1.9,0.3C77.1,29.9,76.5,29.8,75.8,29.8z"/>
		<path class="st1" d="M70.1,29.3c0.4,0,0.9,0,1.3,0.1C70.9,29.3,70.5,29.3,70.1,29.3z"/>
		<path class="st1" d="M31.3,41.6c-1.6,11.7-2,29-2,39.3c10.2,4.4,22.4,7.7,35.7,7.7c13.9,0,26.4-3.6,36.6-8.4
			c-0.4-10.3-0.7-27.5-2.2-38.8C71.2,35.4,47.4,38,31.3,41.6z M86.7,48.8c-3.4-1.4-7.4-1.3-9.4-0.8c-12.6,3.1-21.1-0.2-23.3-0.8
			c-2.2-0.6-4.9,0.4-8.9,1.5c-9.7,2.6-13.4-3.3-13.4-3.3c7.4-8,31.8-6.8,35.7-7C93.2,37.7,99,45.2,99,45.2
			C97.4,48.9,90,50.2,86.7,48.8z"/>
		<path class="st1" d="M107.8,39.5c0.9,0.5,1.7,0.9,2.6,1.4C109.6,40.5,108.7,40,107.8,39.5z"/>
		<path class="st1" d="M48.8,30.7c0.9-0.2,1.9-0.3,2.9-0.5C50.7,30.3,49.8,30.5,48.8,30.7z"/>
		<path class="st1" d="M111.1,44.3c1.3,9.1,0.9,22.7,0.6,30.4c10-6.3,16.2-13,17-15.9l0.2,0.1c0,0,0,0,0,0c0,0.1,0.1,0.2,0.1,0.3
			c0-0.1,0-0.1,0-0.2c-0.1-1.4-0.7-2.5-1.6-3.7c-1.8-2.8-4.9-6-9-9.1c0.3,0.2,0.6,0.5,0.9,0.7C116.5,45.9,113.8,45.1,111.1,44.3z"/>
		<path class="st1" d="M61.7,29.2c1.1,0,2.2-0.1,3.3-0.1C63.9,29.1,62.8,29.1,61.7,29.2z"/>
		<path class="st1" d="M52,30.1c0.9-0.1,1.8-0.3,2.7-0.4C53.8,29.9,52.9,30,52,30.1z"/>
		<path class="st1" d="M58.5,29.4c0.8-0.1,1.7-0.1,2.5-0.1C60.1,29.3,59.3,29.3,58.5,29.4z"/>
		<path class="st1" d="M55.2,29.7c0.8-0.1,1.7-0.2,2.5-0.2C56.9,29.5,56.1,29.6,55.2,29.7z"/>
		<path class="st1" d="M20,44c0.1-1,0.3-1.9,0.4-2.8c-4.2,2.4-7.8,4.9-10.7,7.4c0.6-0.5,1.3-1,2-1.6C13.5,46.3,16.3,45.2,20,44z"/>
		<path class="st1" d="M1.3,58.8c0.3,3.4,7.2,10.6,18.2,17.1c-0.3-7.6-0.7-21.6,0.4-31.2c-6.1,2-9.7,3.6-10.3,3.9
			c-4.5,3.7-7.3,7.2-8.3,9.6c-0.1,0.3-0.2,0.6-0.3,0.9c0-0.1,0.1-0.2,0.1-0.3L1.3,58.8z"/>
		<path class="st1" d="M65,89.3c-33.5,0-59.7-19.9-63.8-28.6C1.1,60.2,1,59.6,1,59.2c0,9.6,28.7,41.7,64,41.7
			c35.3,0,64-32.1,64-41.5c0,0.1-0.1,0.3-0.1,0.5C125.3,67.4,99.2,89.3,65,89.3z"/>
		<path class="st1" d="M129,59.2C129,59.2,129,59.2,129,59.2c0,0.1,0,0.2,0,0.2C129,59.3,129,59.3,129,59.2
			C129,59.2,129,59.2,129,59.2z"/>
		<path class="st1" d="M31.4,40.9c16.1-3.6,39.9-6.1,67.9-0.2c-0.3-2-0.6-3.9-1-5.4c3.3,1.2,6.3,2.6,9.2,4.1c-7.6-4-16.9-7.3-27.4-9
			c4.2,0.7,8.1,1.6,11.9,2.8c2.7,2.7,5.1,6.3,4.4,6.1C62.4,28.9,34,39.4,34,39.4c0.4-1.4,3.1-4.5,5.9-6.5c2.9-0.9,5.8-1.6,8.9-2.2
			c-10.8,2.1-20.3,6-28,10.3c3.5-2,7.4-3.9,11.6-5.5C32,37.1,31.7,38.9,31.4,40.9z"/>
		<path class="st1" d="M117.6,45.6c-2.1-1.6-4.5-3.1-7.1-4.6c0.2,0.8,0.3,1.7,0.5,2.6C113.2,44.2,115.4,44.9,117.6,45.6z"/>
		<path class="st1" d="M20.4,41.2C20.4,41.2,20.4,41.2,20.4,41.2c0.1-0.1,0.2-0.1,0.3-0.2C20.6,41.1,20.5,41.2,20.4,41.2z"/>
		<path class="st1" d="M107.5,39.4c0.1,0.1,0.2,0.1,0.3,0.2C107.7,39.5,107.6,39.4,107.5,39.4z"/>
		<path class="st1" d="M110.5,41c0,0-0.1,0-0.1-0.1C110.4,41,110.5,41,110.5,41C110.5,41,110.5,41,110.5,41z"/>
		<path class="st1" d="M19.5,76.3c3.3,1.9,5.8,3.3,9.8,5c0-0.1,0-0.3,0-0.5c-3.5-1.6-6.8-3.2-9.8-5C19.5,76,19.5,76.2,19.5,76.3z"/>
		<path class="st1" d="M101.6,80.5c4-1.8,6.8-3.3,10.1-5.3c0-0.1,0-0.3,0-0.4c-3,1.9-6.4,3.8-10.1,5.5
			C101.6,80.3,101.6,80.4,101.6,80.5z"/>
		<path class="st1" d="M9.5,48.7C9.5,48.7,9.6,48.7,9.5,48.7c0,0,0.1-0.1,0.1-0.1C9.6,48.6,9.6,48.6,9.5,48.7z"/>
		<path class="st1" d="M117.7,45.6C117.6,45.6,117.6,45.6,117.7,45.6c0.2,0.2,0.4,0.3,0.7,0.5C118.1,46,117.9,45.8,117.7,45.6z"/>
		<path class="st1" d="M31.4,40.9C27,41.9,23.1,43,20,44c0,0.2-0.1,0.5-0.1,0.7c3.2-1,7-2.1,11.4-3.1C31.3,41.4,31.4,41.2,31.4,40.9
			z"/>
		<path class="st1" d="M111.1,44.3c0-0.2-0.1-0.5-0.1-0.7c-3.9-1.1-7.8-2.1-11.6-2.9c0,0.2,0.1,0.5,0.1,0.7
			C103.2,42.2,107.1,43.2,111.1,44.3z"/>
		<path class="st1" d="M51.7,30.2c0.1,0,0.2,0,0.3-0.1C51.9,30.1,51.8,30.2,51.7,30.2z"/>
		<path class="st1" d="M48.7,30.7c0,0,0.1,0,0.1,0C48.8,30.7,48.8,30.7,48.7,30.7z"/>
		<path class="st1" d="M71.4,29.3c1.5,0.1,3,0.2,4.5,0.4C74.4,29.6,72.9,29.5,71.4,29.3z"/>
		<path class="st1" d="M65,29.1c1.7,0,3.4,0.1,5,0.2C68.4,29.2,66.7,29.1,65,29.1z"/>
		<path class="st1" d="M77.8,30c0.8,0.1,1.6,0.2,2.4,0.4C79.4,30.3,78.6,30.1,77.8,30z"/>
		<path class="st1" d="M60.9,29.2c0.3,0,0.5,0,0.8,0C61.5,29.2,61.2,29.2,60.9,29.2z"/>
		<path class="st1" d="M54.7,29.8c0.2,0,0.4,0,0.5-0.1C55,29.7,54.9,29.7,54.7,29.8z"/>
		<path class="st1" d="M57.8,29.4c0.2,0,0.5,0,0.7-0.1C58.2,29.4,58,29.4,57.8,29.4z"/>
		<path class="st1" d="M96.9,41.3c-0.4-1.3-1.7-2.7-3-3c-1.2-0.3-2.4-0.6-3.5-0.9l-0.6-2c-0.3-0.9-1.1-1.7-2-1.7h-0.3
			c-0.8,0-1.3,0.8-1.1,1.7l0.3,1.2c-1.1-0.2-2.2-0.5-3.2-0.6l-0.3-1.4c-0.2-0.9-1-1.7-1.8-1.7h-0.3c-0.8,0-1.3,0.8-1.2,1.7l0.1,0.8
			c-1-0.1-2.1-0.3-3.1-0.4l-0.2-1.3c-0.1-0.9-0.9-1.7-1.7-1.7h-0.3c-0.8,0-1.4,0.8-1.3,1.7l0.1,0.9c-1-0.1-2-0.1-3.1-0.2L70.5,33
			c-0.1-0.9-0.7-1.7-1.5-1.7h-0.3c-0.8,0-1.4,0.8-1.4,1.7l0,1.4c-1,0-2,0-3,0l0-1.3c0-0.9-0.6-1.7-1.4-1.7h-0.3
			c-0.8,0-1.5,0.8-1.5,1.7l-0.1,1.4c-1,0-2.1,0.1-3.1,0.2l0.1-0.9c0.1-0.9-0.5-1.7-1.3-1.7h-0.3c-0.8,0-1.5,0.8-1.7,1.7l-0.2,1.1
			c-1.1,0.1-2.1,0.2-3.1,0.3l0.1-0.7c0.2-0.9-0.4-1.7-1.2-1.7h-0.3c-0.8,0-1.6,0.8-1.8,1.7L48,35.7c-1.2,0.2-2.2,0.4-3.2,0.5
			l0.2-0.8c0.2-0.9-0.2-1.7-1.1-1.7h-0.3c-0.8,0-1.7,0.8-2,1.7l-0.4,1.6c-2.2,0.5-3.6,0.9-3.9,1c-1.3,0.3-2.6,1.5-2.9,2.7
			c-0.3,1,0.3,1.6,1.3,1.6c0.2,0,0.4,0,0.6-0.1c0.1,0,1.4-0.4,3.7-0.8l-0.3,1.1c-0.3,0.9,0.3,1.7,1.2,1.7h0.3c0.9,0,1.9-0.8,2.1-1.7
			l0.4-1.7c1-0.2,2.1-0.3,3.4-0.5l-0.3,1.4c-0.2,0.9,0.4,1.7,1.3,1.7h0.3c0.9,0,1.8-0.8,1.9-1.7l0.3-1.8c1-0.1,2.1-0.2,3.3-0.3
			l-0.2,1.3c-0.1,0.9,0.5,1.7,1.4,1.7h0.3c0.9,0,1.7-0.8,1.8-1.7l0.1-1.5c1-0.1,2.1-0.1,3.2-0.1l-0.1,0.9c-0.1,0.9,0.6,1.7,1.5,1.7
			h0.3c0.9,0,1.6-0.8,1.6-1.7l0-1c1,0,2.1,0,3.2,0l0,0.9c0,0.9,0.8,1.7,1.7,1.7h0.3c0.9,0,1.6-0.8,1.5-1.7l0-0.8
			c1.1,0.1,2.1,0.1,3.2,0.2l0.1,1.3c0.1,0.9,0.9,1.7,1.8,1.7h0.3c0.9,0,1.5-0.8,1.4-1.7l-0.1-1c1.1,0.1,2.2,0.3,3.3,0.4l0.2,1.4
			c0.2,0.9,1,1.7,1.9,1.7h0.3c0.9,0,1.5-0.8,1.3-1.7l-0.2-0.8c1.1,0.2,2.3,0.4,3.4,0.7l0.2,1c0.2,0.9,1.2,1.7,2.1,1.7h0.3
			c0.9,0,1.4-0.8,1.2-1.7l0-0.1c1.1,0.3,2.2,0.5,3.3,0.8C96.4,43.4,97.2,42.7,96.9,41.3z"/>
	</g>
</g>
</svg>
