<?xml version="1.0" encoding="utf-8"?>
<!-- Generator: Adobe Illustrator 19.2.1, SVG Export Plug-In . SVG Version: 6.00 Build 0)  -->
<svg version="1.1" id="Layer_1" xmlns="http://www.w3.org/2000/svg" xmlns:xlink="http://www.w3.org/1999/xlink" x="0px" y="0px"
	 viewBox="0 0 130 130" style="enable-background:new 0 0 130 130;" xml:space="preserve">
<style type="text/css">
	.st0{fill:none;}
	.st1{fill:#4D4D4D;}
</style>
<rect class="st0" width="130" height="130"/>
<g>
	<g>
		<path class="st1" d="M127.5,56c2.6-2.7,1.7-5.4-2-6.2l-31.8-6.1c-3.6-0.7-8.1-3.9-9.9-7.1L65,2.7l-18.9,34
			c-1.8,3.2-6.2,6.4-9.9,7.1L4.4,49.9c-3.6,0.7-4.5,3.5-2,6.2l22.1,23.5c2.6,2.7,4.2,7.9,3.8,11.6l-4,31.9c-0.5,3.6,1.9,5.4,5.3,3.8
			l29.3-13.6c3.4-1.6,8.8-1.6,12.2,0l29.3,13.6c3.4,1.6,5.7-0.2,5.3-3.8l-4-31.9c-0.5-3.6,1.2-8.9,3.8-11.6L127.5,56z"/>
	</g>
</g>
</svg>
