<?xml version="1.0" encoding="utf-8"?>
<!-- Generator: Adobe Illustrator 19.2.1, SVG Export Plug-In . SVG Version: 6.00 Build 0)  -->
<svg version="1.1" id="Layer_1" xmlns="http://www.w3.org/2000/svg" xmlns:xlink="http://www.w3.org/1999/xlink" x="0px" y="0px"
	 viewBox="0 0 130 130" style="enable-background:new 0 0 130 130;" xml:space="preserve">
<style type="text/css">
	.st0{fill:none;}
	.st1{fill:#4D4D4D;}
</style>
<rect class="st0" width="130" height="130"/>
<g>
	<g>
		<path class="st1" d="M27.9,8.9L30,6.8c0.8-0.8,0.8-2.2,0-3l-2.2-2.2c-0.8-0.8-2.2-0.8-3,0l-9.2,9.2c-0.8,0.8-0.8,2.2,0,3l2.2,2.2
			c0.8,0.8,2.2,0.8,3,0l2.2-2.2l0.3,0.5l7.4,7.4l6.6-3.5l-9-9L27.9,8.9z"/>
		<path class="st1" d="M114.3,10.8l-9.2-9.2c-0.8-0.8-2.2-0.8-3,0L100,3.8c-0.8,0.8-0.8,2.2,0,3l2.1,2.1l-0.5,0.3l-9,9l6.6,3.5
			l7.4-7.4l0.3-0.5l2.1,2.1c0.8,0.8,2.2,0.8,3,0l2.2-2.2C115.1,13,115.1,11.6,114.3,10.8z"/>
	</g>
	<path class="st1" d="M65,1.8c-2.6,0-4.8,2.1-4.8,4.8v5.8l9.5,0V6.6C69.8,3.9,67.6,1.8,65,1.8z"/>
	<path class="st1" d="M65,8.8c-33.1,0-60.1,27-60.1,60.1C4.9,102,31.9,129,65,129c33.1,0,60.1-27,60.1-60.1
		C125.1,35.8,98.1,8.8,65,8.8z M65,121.8c-29.2,0-52.9-23.7-52.9-52.9C12.1,39.7,35.8,16,65,16c29.2,0,52.9,23.7,52.9,52.9
		C117.9,98.1,94.2,121.8,65,121.8z"/>
	<g>
		<path class="st1" d="M65,29.5c-0.8,0-1.5,0.7-1.5,1.5v34.8c0,0.8,0.7,1.5,1.5,1.5c0.8,0,1.5-0.7,1.5-1.5V31
			C66.5,30.2,65.8,29.5,65,29.5z"/>
		<path class="st1" d="M65,60.2c-4.4,0-7.9,3.6-7.9,7.9c0,4.4,3.6,7.9,7.9,7.9c4.4,0,7.9-3.6,7.9-7.9C72.9,63.8,69.4,60.2,65,60.2z"
			/>
	</g>
</g>
</svg>
