<?xml version="1.0" encoding="utf-8"?>
<!-- Generator: Adobe Illustrator 19.2.1, SVG Export Plug-In . SVG Version: 6.00 Build 0)  -->
<svg version="1.1" id="Layer_1" xmlns="http://www.w3.org/2000/svg" xmlns:xlink="http://www.w3.org/1999/xlink" x="0px" y="0px"
	 viewBox="0 0 130 130" style="enable-background:new 0 0 130 130;" xml:space="preserve">
<style type="text/css">
	.st0{fill:none;}
	.st1{fill:#4D4D4D;}
	.st2{fill:#FFFFFF;stroke:#4D4D4D;stroke-width:0.4422;stroke-miterlimit:10;}
	.st3{fill:#FFFFFF;}
	.st4{fill:#4D4D4D;stroke:#FFFFFF;stroke-width:0.4422;stroke-miterlimit:10;}
</style>
<rect class="st0" width="130" height="130"/>
<g>
	<g>
		<path class="st1" d="M107.7,30.1H28.5c-2.8,0-10.6,0.1-13-0.2c-0.8-0.1-3-0.3-3.3-1.3v80.3c0.2,1.6,6.8,1.5,7.8,1.5h86.2
			c1,0,9,0.3,9.2-1.5V28.6C115,30.2,108.9,30.1,107.7,30.1z M45.6,109.4H19V49.7c0-0.7,0.5-1.3,1.2-1.3h24.2c0.6,0,1.2,0.6,1.2,1.3
			C45.6,49.7,45.6,109.4,45.6,109.4z M104.2,101.7c0,0.4-0.3,0.7-0.7,0.7h-28c-0.4,0-0.7-0.3-0.7-0.7V61.9c0-0.4,0.3-0.7,0.7-0.7h28
			c0.4,0,0.7,0.3,0.7,0.7C104.2,61.9,104.2,101.7,104.2,101.7z"/>
		<g>
			<path class="st2" d="M19.2,41.5c-0.8,1.8-1.7,3.6-2.6,5.6h0v0.1c0,0.1-0.1,0.2-0.1,0.3h0.1v0.2c0,3.6,2.9,6.5,6.5,6.5h0.3
				c3.6,0,6.5-2.9,6.5-6.5v-0.5h0c0.6-1.9,1.3-3.8,1.9-5.6L33,38H20.9L19.2,41.5z"/>
			<path class="st2" d="M44.5,41.5c-0.4,1.8-0.7,3.6-1.1,5.6h-0.2v0.5c0,3.6,2.9,6.5,6.5,6.5H50c3.6,0,6.5-2.9,6.5-6.5v-0.2h0.1
				c0.1-2,0.3-4,0.4-5.9l0.2-3.6H45.2L44.5,41.5z"/>
			<path class="st3" d="M110.3,47.4c0-0.1-0.1-0.2-0.1-0.3v-0.1h0c-0.9-1.9-1.8-3.8-2.6-5.6l-1.7-3.6H93.7l1.2,3.6
				c0.6,1.8,1.2,3.6,1.9,5.6h0v0.5c0,3.6,2.9,6.5,6.5,6.5h0.3c3.6,0,6.5-2.9,6.5-6.5v-0.2L110.3,47.4L110.3,47.4z"/>
			<path class="st3" d="M82.3,41.5L81.6,38H69.4l0.2,3.6c0.1,1.9,0.3,3.8,0.4,5.8h-0.1v0.5c0,3.6,2.9,6.5,6.5,6.5h0.3
				c3.6,0,6.5-2.9,6.5-6.5v-0.4h0.1C83.1,45.4,82.7,43.4,82.3,41.5z"/>
		</g>
		<path class="st4" d="M123.5,47.2c-1.2-1.9-2.3-3.8-3.4-5.6c-1.1-1.8-2.1-3.5-3.2-5.2v0.7c-0.3,1.1-8.5,0.9-9.6,0.9h-1.6l1.7,3.6
			c0.9,1.9,1.8,3.8,2.8,5.9h0v0.2c0,3.6,2.9,6.5,6.5,6.5h0.3c3.6,0,6.5-2.9,6.5-6.5v-0.5C123.7,47.2,123.5,47.2,123.5,47.2z"/>
		<path class="st4" d="M9.8,37.1v-0.7h0c-1,1.7-2.1,3.4-3.2,5.2c-1.1,1.9-2.3,3.8-3.5,5.8h0v0.5c0,3.6,2.9,6.5,6.5,6.5h0.3
			c3.6,0,6.5-2.9,6.5-6.5v-0.5c1-2,1.9-4,2.8-5.8l1.7-3.6h-3C16.8,38,10,38.1,9.8,37.1z"/>
		<path class="st4" d="M69.7,41.6L69.4,38H57.3L57,41.6c-0.1,1.9-0.3,3.8-0.4,5.9h0v0.5c0,3.6,2.9,6.5,6.5,6.5h0.3
			c3.6,0,6.5-2.9,6.5-6.5v-0.5h0C69.9,45.4,69.8,43.5,69.7,41.6z"/>
		<path class="st4" d="M94.9,41.6L93.7,38H81.6l0.7,3.6c0.4,1.9,0.8,3.8,1.2,5.9h0v0.5c0,3.6,2.9,6.5,6.5,6.5h0.3
			c3.6,0,6.5-2.9,6.5-6.5v-0.5h0C96.2,45.4,95.5,43.5,94.9,41.6z"/>
		<path class="st1" d="M119.5,30.9c0-0.2-0.1-0.4-0.3-0.6c-6.2-5-12.3-10.1-18.5-15.1c-0.6-0.5-3.7-0.9-6.9-0.9H33
			c-3.2,0-6.2,0.4-6.9,0.9c-6.2,5-12.4,10.1-18.5,15.1c-0.3,0.2-0.4,0.5-0.3,0.7l0,0v5.6c0.3,1.7,7.4,1.6,8.5,1.6h93.8
			c1.1,0,9.7,0.3,10-1.6L119.5,30.9L119.5,30.9z"/>
		<polygon class="st1" points="115.4,109.4 12.3,109.6 1,115.7 129,115.7 		"/>
	</g>
	<path class="st1" d="M31.8,41.6c-0.6,1.8-1.2,3.7-1.9,5.6h-0.1v0.2c0,0,0,0,0,0h0v0.2c0,3.6,2.9,6.5,6.5,6.5h0.3
		c3.6,0,6.5-2.9,6.5-6.5v-0.3c0.4-2,0.8-3.9,1.2-5.8l0.7-3.6H33L31.8,41.6z"/>
</g>
</svg>
