<?xml version="1.0" encoding="utf-8"?>
<!-- Generator: Adobe Illustrator 19.2.1, SVG Export Plug-In . SVG Version: 6.00 Build 0)  -->
<svg version="1.1" id="Layer_1" xmlns="http://www.w3.org/2000/svg" xmlns:xlink="http://www.w3.org/1999/xlink" x="0px" y="0px"
	 viewBox="0 0 130 130" style="enable-background:new 0 0 130 130;" xml:space="preserve">
<style type="text/css">
	.st0{fill:none;}
	.st1{fill:#4C4C4C;}
</style>
<rect class="st0" width="130" height="130"/>
<g id="Shape_161_1_">
	<path class="st1" d="M107.1,67.5v18.3c0,3.7-3,6.8-6.8,6.8c-3.7,0-6.8-3-6.8-6.8v-18l-13,3.9l-8.7-4.1v17.8
		c0.1,15.7,12.9,28.4,28.6,28.4c15.8,0,28.6-12.8,28.6-28.6c0-0.2,0-17.7,0-17.7H107.1z M71.8,52.7l8.7,4.1l13-3.9v-9
		c-0.5-15.4-13-27.7-28.6-27.7c-15.5,0-28,12.3-28.6,27.6V85c0,3.7-3,6.8-6.8,6.8c-3.7,0-6.8-3-6.8-6.8V67.5H1c0,0,0,17.5,0,17.7
		c0,15.8,12.8,28.6,28.6,28.6c15.7,0,28.4-12.6,28.6-28.2l0-40.8c0-3.7,3-6.8,6.8-6.8c3.7,0,6.8,3,6.8,6.8L71.8,52.7L71.8,52.7z"/>
</g>
</svg>
