<?xml version="1.0" encoding="utf-8"?>
<!-- Generator: Adobe Illustrator 19.2.1, SVG Export Plug-In . SVG Version: 6.00 Build 0)  -->
<svg version="1.1" id="Layer_1" xmlns="http://www.w3.org/2000/svg" xmlns:xlink="http://www.w3.org/1999/xlink" x="0px" y="0px"
	 viewBox="0 0 130 130" style="enable-background:new 0 0 130 130;" xml:space="preserve">
<style type="text/css">
	.st0{fill:none;}
	.st1{fill:#4D4D4D;}
</style>
<rect class="st0" width="130" height="130"/>
<g>
	<g>
		
			<rect x="55.2" y="2.1" transform="matrix(0.9996 -2.909932e-02 2.909932e-02 0.9996 -1.5684 1.6647)" class="st1" width="2.3" height="105.2"/>
		<path class="st1" d="M54.8,1c0,0-39.2,7.4-51.4,40.4c8.5,4.8,35.2,6.5,52.7,6c17.5-0.5,44.1-3.7,52.3-9.1C94.4,6.1,54.8,1,54.8,1z
			"/>
	</g>
	<path class="st1" d="M118.1,68.4l7.7-5.6c0.8-0.6,0.9-1.7,0.4-2.4c-0.6-0.8-1.7-0.9-2.4-0.4l-3.9,2.8l-16.5-5l0.6-0.4
		c0.8-0.5,1-1.6,0.5-2.4c-0.5-0.8-1.6-1-2.4-0.5L37.2,97.3l-8-2.5c-0.5-0.2-1-0.1-1.4,0.2L9,89.1c-0.9-0.3-1.9,0.2-2.2,1.1
		c-0.3,0.9,0.2,1.9,1.1,2.2l5.1,1.6c2.1,2.4,4.2,4.4,6.3,6.1c2.1,1.8,4.2,3.3,6.4,4.6l-16,10.5c-0.8,0.5-1,1.6-0.5,2.4
		c0.3,0.5,0.9,0.8,1.5,0.8c0.3,0,0.7-0.1,1-0.3l17.4-11.5c7.9,4.2,15.6,5.9,21.5,6.6l-17.2,12.6c-0.8,0.6-0.9,1.7-0.4,2.4
		c0.3,0.5,0.9,0.7,1.4,0.7c0.4,0,0.7-0.1,1-0.3l20.6-15.1c3.4,0,5.5-0.2,5.5-0.2h0c3.1-0.3,6.1-1,9.1-2l27.5,8.5
		c0.2,0,0.3,0.1,0.5,0.1c0.7,0,1.4-0.5,1.7-1.2c0.3-0.9-0.2-1.9-1.1-2.2l-6-1.9l-1.1-16.5C104,87.9,113.6,75.1,118.1,68.4z
		 M39,105.8c-0.2-0.2-0.4-0.3-0.6-0.5c-0.7-0.5-1.3-1.1-2-1.8c-0.2-0.1-0.3-0.3-0.5-0.4c-0.2-0.2-0.3-0.3-0.5-0.5l2.3-1.5l12.8,4
		c-3.2,1.1-6.4,1.9-9.6,2.1c0,0,0,0-0.1,0C40.2,106.7,39.6,106.3,39,105.8z M71,92.6l-1-12.7l28.5-18.8C94.2,67.4,84,81.6,71,92.6z
		 M68,81.2l1,13c-4.3,3.4-8.8,6.5-13.5,8.8l-14-4.4L68,81.2z M91.2,114l-15.3-4.8c5-2.4,9.8-5.7,14.3-9.4L91.2,114z"/>
</g>
</svg>
