<?xml version="1.0" encoding="utf-8"?>
<!-- Generator: Adobe Illustrator 19.2.1, SVG Export Plug-In . SVG Version: 6.00 Build 0)  -->
<svg version="1.1" id="Layer_1" xmlns="http://www.w3.org/2000/svg" xmlns:xlink="http://www.w3.org/1999/xlink" x="0px" y="0px"
	 viewBox="0 0 130 130" style="enable-background:new 0 0 130 130;" xml:space="preserve">
<style type="text/css">
	.st0{fill:none;}
	.st1{fill:#4D4D4D;}
</style>
<rect class="st0" width="130" height="130"/>
<path class="st1" d="M123.7,15.8H6.3c-2.9,0-5.3,2.4-5.3,5.3v87.8c0,2.9,2.4,5.3,5.3,5.3h117.4c2.9,0,5.3-2.4,5.3-5.3V21.1
	C129,18.2,126.6,15.8,123.7,15.8z M7,66.5c-0.9,0-1.6-0.7-1.6-1.6c0-0.9,0.7-1.6,1.6-1.6c0.9,0,1.6,0.7,1.6,1.6
	C8.6,65.8,7.9,66.5,7,66.5z M115.5,103.6H12.2V26.4h103.4V103.6z M121.9,67.7c-1.5,0-2.7-1.2-2.7-2.7c0-1.5,1.2-2.7,2.7-2.7
	c1.5,0,2.7,1.2,2.7,2.7C124.6,66.5,123.4,67.7,121.9,67.7z"/>
</svg>
