<?xml version="1.0" encoding="utf-8"?>
<!-- Generator: Adobe Illustrator 19.2.1, SVG Export Plug-In . SVG Version: 6.00 Build 0)  -->
<svg version="1.1" id="Layer_1" xmlns="http://www.w3.org/2000/svg" xmlns:xlink="http://www.w3.org/1999/xlink" x="0px" y="0px"
	 viewBox="0 0 130 130" style="enable-background:new 0 0 130 130;" xml:space="preserve">
<style type="text/css">
	.st0{fill:none;}
	.st1{fill:#4D4D4D;}
</style>
<rect class="st0" width="130" height="130"/>
<path class="st1" d="M108.9,1H21.1c-2.9,0-5.3,2.4-5.3,5.3v117.4c0,2.9,2.4,5.3,5.3,5.3h87.8c2.9,0,5.3-2.4,5.3-5.3V6.3
	C114.2,3.4,111.8,1,108.9,1z M65,5.5c0.9,0,1.6,0.7,1.6,1.6c0,0.9-0.7,1.6-1.6,1.6c-0.9,0-1.6-0.7-1.6-1.6C63.5,6.2,64.2,5.5,65,5.5
	z M65,124.6c-1.5,0-2.7-1.2-2.7-2.7c0-1.5,1.2-2.7,2.7-2.7c1.5,0,2.7,1.2,2.7,2.7C67.7,123.4,66.5,124.6,65,124.6z M103.6,115.5
	H26.4V12.2h77.2V115.5z"/>
</svg>
