<?xml version="1.0" encoding="utf-8"?>
<!-- Generator: Adobe Illustrator 19.2.1, SVG Export Plug-In . SVG Version: 6.00 Build 0)  -->
<svg version="1.1" id="Layer_1" xmlns="http://www.w3.org/2000/svg" xmlns:xlink="http://www.w3.org/1999/xlink" x="0px" y="0px"
	 viewBox="0 0 130 130" style="enable-background:new 0 0 130 130;" xml:space="preserve">
<style type="text/css">
	.st0{fill:none;}
	.st1{fill:#4D4D4D;}
</style>
<rect class="st0" width="130" height="130"/>
<g>
	<g>
		<path class="st1" d="M105,56.7h8.5c-3.5-21.3-20.6-38.1-42-41.3v8.4C88.3,26.8,101.7,39.9,105,56.7z M14.8,56.7h8.5
			c3.2-16.1,15.7-28.8,31.6-32.4v-8.6C34.3,19.5,18.2,36,14.8,56.7z M23.3,73.3h-8.5c3.5,20.5,19.6,36.8,40,40.7v-8.6
			C39,101.8,26.6,89.3,23.3,73.3z M71.5,105.9v8.5c21.3-3.2,38.3-19.8,42-41H105C101.5,89.9,88.2,102.9,71.5,105.9z"/>
	</g>
	<g>
		<path class="st1" d="M63.1,1c-2.6,0-4.6,1.9-4.6,4.2v28.8c0,2.3,2.1,4.2,4.6,4.2c2.6,0,4.6-1.9,4.6-4.2V5.2
			C67.8,2.9,65.7,1,63.1,1z"/>
	</g>
	<g>
		<path class="st1" d="M63.1,91.9c-2.6,0-4.6,1.9-4.6,4.2v28.8c0,2.3,2.1,4.2,4.6,4.2c2.6,0,4.6-1.9,4.6-4.2V96.1
			C67.8,93.8,65.7,91.9,63.1,91.9z"/>
	</g>
	<g>
		<path class="st1" d="M124.8,60.4H96.1c-2.3,0-4.2,2.1-4.2,4.6c0,2.6,1.9,4.6,4.2,4.6h28.8c2.3,0,4.2-2.1,4.2-4.6
			C129,62.4,127.1,60.4,124.8,60.4z"/>
	</g>
	<g>
		<path class="st1" d="M33.9,60.4H5.2C2.9,60.4,1,62.4,1,65c0,2.6,1.9,4.6,4.2,4.6h28.8c2.3,0,4.2-2.1,4.2-4.6
			C38.1,62.4,36.2,60.4,33.9,60.4z"/>
	</g>
	<g>
		<circle class="st1" cx="63.1" cy="65" r="7.9"/>
	</g>
</g>
</svg>
