<?xml version="1.0" encoding="utf-8"?>
<!-- Generator: Adobe Illustrator 19.2.1, SVG Export Plug-In . SVG Version: 6.00 Build 0)  -->
<svg version="1.1" id="Layer_1" xmlns="http://www.w3.org/2000/svg" xmlns:xlink="http://www.w3.org/1999/xlink" x="0px" y="0px"
	 viewBox="0 0 130 130" style="enable-background:new 0 0 130 130;" xml:space="preserve">
<style type="text/css">
	.st0{fill:none;}
	.st1{fill:#4D4D4D;}
</style>
<rect class="st0" width="130" height="130"/>
<g>
	<g>
		<g>
			<g>
				<g>
					<g>
						<path class="st1" d="M127.3,102.8C127.3,102.8,127.4,102.8,127.3,102.8c0.4-0.1,0.7-0.4,0.6-0.7l-0.4-2.9
							c-3.8-29.3-17.6-48.4-28.5-59.4C87.2,28,76.4,23.1,75.9,22.9l-0.7-0.3c-0.2-0.1-0.3-0.1-0.5,0L74,22.9
							c-0.5,0.2-11.3,5.1-23.1,16.9C40,50.7,26.3,69.9,22.5,99.2l-0.3,2.9c0,0.4,0.2,0.7,0.5,0.7c0.3,0.1,0.6-0.2,0.7-0.6l0.3-2.9
							c3.7-28.9,17.2-47.8,28-58.6C63.4,29.1,74,24.3,74.5,24.1l0.5-0.2l0.5,0.2c0.5,0.2,11.1,5,22.8,16.7
							c10.8,10.8,24.4,29.7,28.1,58.6l0.4,2.9C126.7,102.6,127,102.8,127.3,102.8z"/>
						<g>
							<path class="st1" d="M127.8,107.8c0,0,0.1,0,0.1,0c0.7-0.1,1.2-0.7,1.1-1.5l-0.5-4.5c-0.1-0.7-0.6-1.2-1.2-1.2
								c-0.1,0-0.1,0-0.2,0c-0.3,0-0.6,0.2-0.8,0.5c-0.2,0.3-0.3,0.6-0.3,1l0.5,4.5c0.1,0.6,0.5,1.1,1.1,1.1L127.8,107.8z"/>
							<path class="st1" d="M22.5,107.8c0.6-0.1,1-0.5,1.1-1.2l0.5-4.5c0-0.3-0.1-0.7-0.3-1c-0.2-0.3-0.5-0.4-0.8-0.5
								c0,0-0.1,0-0.2,0c-0.6,0-1.1,0.5-1.2,1.2l-0.5,4.5c0,0.3,0.1,0.7,0.3,1c0.2,0.3,0.5,0.4,0.8,0.5c0,0,0.1,0,0.1,0L22.5,107.8z
								"/>
						</g>
					</g>
					<g>
						<path class="st1" d="M3.9,80.5c0.2,0,0.5-0.1,0.6-0.4L5.3,78c10.8-25.8,31-42,43.9-47.7C63.3,24,74.9,23.8,75,23.8
							c0.3,0,0.6-0.3,0.6-0.7s-0.3-0.7-0.6-0.7h0c-0.1,0-11.7,0.1-26.3,6.6C35.6,34.9,15.1,51.2,4.2,77.5l-0.9,2.1
							c-0.1,0.3,0,0.7,0.3,0.9C3.7,80.4,3.8,80.5,3.9,80.5z"/>
						<path class="st1" d="M1.9,85.1c0.5,0.1,1-0.2,1.2-0.7l1.5-3.8c0.1-0.3,0.1-0.6,0-0.9C4.5,79.4,4.3,79.1,4,79c0,0-0.1,0-0.1,0
							c-0.5-0.2-1.1,0.1-1.3,0.7l-1.5,3.8c-0.1,0.3-0.1,0.6,0,0.9c0.1,0.3,0.3,0.5,0.6,0.6c0,0,0.1,0,0.1,0L1.9,85.1z"/>
					</g>
				</g>
			</g>
		</g>
		<g>
			<path class="st1" d="M23,99.1L70.6,29c0.1-0.2,0.4-0.3,0.6-0.1L86.6,38c0.1,0,0.1,0.1,0.1,0.2c0.1,0,0.1,0,0.2,0.1l39.2,50.4
				c-11.4-49.2-50.5-66.5-50.5-66.5S29,20.1,3.8,77.8c13.3,4,18.4,16.8,19.1,21.6C22.9,99.3,22.9,99.2,23,99.1z"/>
			<path class="st1" d="M106.1,68.5c2.6,4.8,5,10.2,6.9,16.3C100.8,83.3,87.7,83,77.2,83h-3.3c-10.1,0-22.8,0.4-34.6,1.7L23.7,99.8
				c-0.1,0.1-0.2,0.1-0.3,0.1c-0.1,0-0.2,0-0.3-0.1c-0.1-0.1-0.1-0.2-0.2-0.3c0,0.2,0.1,0.4,0.1,0.5c18-4.9,47.3-4.7,52.6-4.7
				c5.3,0,34.5-0.2,52.6,4.7c-0.4-2.8-0.8-5.5-1.4-8.1L106.1,68.5z"/>
		</g>
	</g>
	<g>
		<polygon class="st1" points="86.4,39.3 83.4,41.4 122.6,85.8 		"/>
		<polygon class="st1" points="71.2,29.9 26.4,95.8 85.5,38.5 		"/>
	</g>
</g>
</svg>
