<?xml version="1.0" encoding="utf-8"?>
<!-- Generator: Adobe Illustrator 19.2.1, SVG Export Plug-In . SVG Version: 6.00 Build 0)  -->
<svg version="1.1" id="Layer_1" xmlns="http://www.w3.org/2000/svg" xmlns:xlink="http://www.w3.org/1999/xlink" x="0px" y="0px"
	 viewBox="0 0 130 130" style="enable-background:new 0 0 130 130;" xml:space="preserve">
<style type="text/css">
	.st0{fill:none;}
	.st1{fill:#4D4D4D;}
</style>
<rect class="st0" width="130" height="130"/>
<g>
	<polygon class="st1" points="31.6,75.8 23,84.3 43.7,105.1 52.4,96.4 	"/>
	<polygon class="st1" points="113.8,8.6 98.6,22.3 101.1,24.8 40.8,84.9 43.1,87.2 103.4,27.1 105.9,29.6 119.7,14.4 	"/>
	<path class="st1" d="M48.4,32C52.2,23.3,51,13.4,44.6,7c-6.4-6.4-16.3-7.6-25-3.9l14.3,14.3L29.9,28l-10.7,3.9L4.9,17.7
		c-3.7,8.7-2.5,18.5,3.9,24.9c6.5,6.4,16.4,7.6,25.2,3.9l17.7,17.7l14.5-14.5L48.4,32z"/>
	<path class="st1" d="M125.1,87.2c-6.5-6.4-16.4-7.6-25.1-3.9L78.4,61.9L63.9,76.4l21.5,21.4c-3.8,8.7-2.6,18.6,3.9,25.1
		c6.4,6.4,16.3,7.6,25,3.9L100,112.5l4-10.6l10.7-3.9l14.3,14.2C132.7,103.5,131.5,93.6,125.1,87.2z"/>
	<path class="st1" d="M2.1,105.2c-4.2,4.2-4.2,11.1,0,15.3l5.4,5.4c4.2,4.2,11.1,4.2,15.3,0L42,106.7L21.4,86L2.1,105.2z"/>
	<path class="st1" d="M31.9,96.5L5,123.3l2.6,2.5c4.2,4.2,11.1,4.2,15.3,0L42,106.7L31.9,96.5z"/>
</g>
</svg>
