<?xml version="1.0" encoding="utf-8"?>
<!-- Generator: Adobe Illustrator 19.2.1, SVG Export Plug-In . SVG Version: 6.00 Build 0)  -->
<svg version="1.1" id="Layer_1" xmlns="http://www.w3.org/2000/svg" xmlns:xlink="http://www.w3.org/1999/xlink" x="0px" y="0px"
	 viewBox="0 0 130 130" style="enable-background:new 0 0 130 130;" xml:space="preserve">
<style type="text/css">
	.st0{fill:none;}
	.st1{fill:#4D4D4D;}
</style>
<rect class="st0" width="130" height="130"/>
<g>
	<g>
		<path class="st1" d="M50,108.1h30.3c0.5,0,0.7-0.3,0.4-0.7l-0.9-1.5c-0.2-0.4-0.8-0.7-1.3-0.7H51.7c-0.5,0-1.1,0.3-1.3,0.7
			l-0.9,1.5C49.3,107.8,49.5,108.1,50,108.1z M43.5,117.8c-0.2,0.4,0,0.7,0.4,0.7h42.3c0.5,0,0.9,0,0.9,0s-0.2-0.4-0.4-0.8l-0.9-1.5
			c-0.2-0.4-0.8-0.7-1.3-0.7H45.7c-0.5,0-1,0.3-1.3,0.7L43.5,117.8z M91.8,126.7c-0.2-0.4-0.8-0.7-1.3-0.7H39.7
			c-0.5,0-1,0.3-1.3,0.7l-0.9,1.5c-0.2,0.4,0,0.7,0.4,0.7h54.4c0.5,0,0.7-0.3,0.4-0.7L91.8,126.7z M107.9,128.3l-15.4-26.8
			c-0.2-0.4-0.8-0.7-1.3-0.7h-5.3c-0.5,0-0.7,0.3-0.4,0.7l15.4,26.8c0.2,0.4,0.8,0.7,1.3,0.7h5.3C107.9,129,108.1,128.7,107.9,128.3
			z M43.9,100.7h-5.3c-0.5,0-1.1,0.3-1.3,0.7l-15.6,26.8c-0.2,0.4,0,0.7,0.4,0.7h5.3c0.5,0,1.1-0.3,1.3-0.7l15.6-26.8
			C44.6,101,44.4,100.7,43.9,100.7z"/>
	</g>
	<path class="st1" d="M108.9,36.2c-1.1-3.7-8-25.3-8-25.3c-1.1-3.3-3.3-5.7-7.1-7C87.3,1.5,73.9,1,65,1c-8.8,0-22.3,0.5-28.8,2.8
		c-3.8,1.3-6,3.8-7.1,7c0,0-6.9,21.6-8,25.3c-0.1,0.4-0.2,0.9-0.3,1.4c0,0,0,0,0,0c-0.8,4.2-1,11-1,8.3c0,2,0,20.3,0,20.3
		c0,9,2.4,17.5,6.6,24.8h77.3c4.2-7.3,6.6-15.7,6.6-24.8c0,0,0-18.3,0-20.3C110.3,49,110,39.9,108.9,36.2z M33.4,12.3
		c0.7-2.1,2-3.4,4.3-4.2C42,6.5,51.4,5.6,63.5,5.6v27.5H26.8C29.1,25.7,33.4,12.4,33.4,12.3z M35.8,76.5c-3,0-5.4-2.4-5.4-5.4
		c0-3,2.4-5.4,5.4-5.4c3,0,5.4,2.4,5.4,5.4C41.2,74.1,38.8,76.5,35.8,76.5z M82.5,72.2c0,0.5-0.4,0.9-0.9,0.9H48.5
		c-0.5,0-0.9-0.4-0.9-0.9V70c0-0.5,0.4-0.9,0.9-0.9h33.2c0.5,0,0.9,0.4,0.9,0.9L82.5,72.2L82.5,72.2z M94.2,76.5
		c-3,0-5.4-2.4-5.4-5.4c0-3,2.4-5.4,5.4-5.4c3,0,5.4,2.4,5.4,5.4C99.6,74.1,97.2,76.5,94.2,76.5z M66.5,33.1V5.6
		c12.1,0.1,21.5,1,25.8,2.5c2.3,0.8,3.6,2.1,4.3,4.1c0.1,0.2,4.3,13.4,6.6,20.8H66.5z"/>
</g>
</svg>
