<?xml version="1.0" encoding="utf-8"?>
<!-- Generator: Adobe Illustrator 19.2.1, SVG Export Plug-In . SVG Version: 6.00 Build 0)  -->
<svg version="1.1" id="Layer_1" xmlns="http://www.w3.org/2000/svg" xmlns:xlink="http://www.w3.org/1999/xlink" x="0px" y="0px"
	 viewBox="0 0 130 130" style="enable-background:new 0 0 130 130;" xml:space="preserve">
<style type="text/css">
	.st0{fill:none;}
	.st1{fill:#4D4D4D;}
</style>
<rect class="st0" width="130" height="130"/>
<g>
	<path class="st1" d="M23.4,24.8l3.2,90.4c0,7.6,6.2,13.8,13.7,13.8h49.4c7.6,0,13.7-6.2,13.7-13.8l3.2-90.4H23.4z M50.8,96.8
		c0,1.2-1.1,2.2-2.4,2.2c-1.3,0-2.4-1-2.4-2.2V52.1c0-1.2,1.1-2.2,2.4-2.2c1.3,0,2.4,1,2.4,2.2V96.8z M68.1,107.9
		c0,1.2-1.1,2.2-2.4,2.2c-1.3,0-2.4-1-2.4-2.2V42.7c0-1.2,1.1-2.2,2.4-2.2c1.3,0,2.4,1,2.4,2.2V107.9z M84,96.8
		c0,1.2-1.1,2.2-2.4,2.2c-1.3,0-2.4-1-2.4-2.2V52.1c0-1.2,1.1-2.2,2.4-2.2c1.3,0,2.4,1,2.4,2.2V96.8z"/>
	<path class="st1" d="M113.9,18.4H90.5V9.7c0-4.8-3.9-8.7-8.7-8.7H48.1c-4.8,0-8.7,3.9-8.7,8.7v8.7H16.1c-1.8,0-3.2,1.4-3.2,3.2
		s1.4,3.2,3.2,3.2h97.9c1.8,0,3.2-1.4,3.2-3.2S115.7,18.4,113.9,18.4z M84.1,18.4H45.9V9.7c0-1.3,1-2.3,2.3-2.3h33.7
		c1.2,0,2.3,1.1,2.3,2.3V18.4z"/>
</g>
</svg>
