<?xml version="1.0" encoding="utf-8"?>
<!-- Generator: Adobe Illustrator 19.2.1, SVG Export Plug-In . SVG Version: 6.00 Build 0)  -->
<svg version="1.1" id="Layer_1" xmlns="http://www.w3.org/2000/svg" xmlns:xlink="http://www.w3.org/1999/xlink" x="0px" y="0px"
	 viewBox="0 0 130 130" style="enable-background:new 0 0 130 130;" xml:space="preserve">
<style type="text/css">
	.st0{fill:none;}
	.st1{fill:#4C4C4C;}
</style>
<rect class="st0" width="130" height="130"/>
<g id="Shape_155_2_">
	<path class="st1" d="M85.9,108.2c-3.6,0-6.9-0.9-9.7-2.5c-2.1-1.3-4.1-3.4-4.9-5.5c-0.8-2.1-0.7-6.4-0.7-13.8V53.4h29.6V30.6H70.6
		V1H52.4c-0.8,6.6-2.3,12-4.5,16.3c-2.2,4.3-5,7.9-8.6,11c-3.6,3-9.4,5.4-14.4,7v18.1h17.4v44.9c0,5.9,0.6,10.3,1.8,13.4
		c1.2,3.1,3.4,6,6.6,8.7c3.2,2.7,7,4.8,11.5,6.3c4.5,1.5,7.9,2.2,13.8,2.2c5.2,0,9.9-0.5,14.4-1.6c4.4-1,9.4-2.8,14.9-5.4v-20.2
		C98.8,106,92.3,108.2,85.9,108.2z"/>
</g>
</svg>
