<?xml version="1.0" encoding="utf-8"?>
<!-- Generator: Adobe Illustrator 19.2.1, SVG Export Plug-In . SVG Version: 6.00 Build 0)  -->
<svg version="1.1" id="Layer_1" xmlns="http://www.w3.org/2000/svg" xmlns:xlink="http://www.w3.org/1999/xlink" x="0px" y="0px"
	 viewBox="0 0 130 130" style="enable-background:new 0 0 130 130;" xml:space="preserve">
<style type="text/css">
	.st0{fill:none;}
	.st1{fill:#4D4D4D;}
	.st2{fill:#FFFFFF;}
</style>
<rect class="st0" width="130" height="130"/>
<g>
	<path class="st1" d="M83.3,62.5c-1.9-17-17.1-29.2-34.1-27.4C32.3,37,20,52.2,21.9,69.2C23.8,86.2,39,98.4,56,96.6
		C73,94.7,85.2,79.4,83.3,62.5z M53.9,77.4c-6.4,0.7-12.2-3.9-12.9-10.3c-0.7-6.4,3.9-12.2,10.3-12.9c6.4-0.7,12.2,3.9,12.9,10.3
		C64.9,71,60.3,76.7,53.9,77.4z"/>
	<path class="st1" d="M121.2,21H8.8C4.5,21,1,24.5,1,28.8v72.4c0,4.3,3.5,7.8,7.8,7.8h112.4c4.3,0,7.8-3.5,7.8-7.8V28.8
		C129,24.5,125.5,21,121.2,21z M52.6,100.3c-19,0-34.5-15.4-34.5-34.5c0-19,15.4-34.5,34.5-34.5c19,0,34.5,15.4,34.5,34.5
		C87.1,84.9,71.7,100.3,52.6,100.3z M105.8,102.9h-1.6V27.8h1.6V102.9z M117.7,95.9c-1.7,0-3-1.4-3-3c0-1.7,1.4-3,3-3
		c1.7,0,3,1.4,3,3C120.7,94.5,119.4,95.9,117.7,95.9z M117.7,84.6c-1.7,0-3-1.4-3-3c0-1.7,1.4-3,3-3c1.7,0,3,1.4,3,3
		C120.7,83.2,119.4,84.6,117.7,84.6z M117.7,43.9c-2.9,0-5.3-2.4-5.3-5.3c0-2.9,2.4-5.3,5.3-5.3c2.9,0,5.3,2.4,5.3,5.3
		C123,41.5,120.6,43.9,117.7,43.9z"/>
	<path class="st1" d="M61.7,64.8c0.5,5-3.1,9.5-8.1,10c-5,0.6-9.5-3.1-10-8.1c-0.5-5,3.1-9.5,8.1-10C56.6,56.2,61.1,59.8,61.7,64.8z
		"/>
	<path class="st2" d="M94,38c0,3.6-2.9,6.5-6.5,6.5c-3.6,0-6.5-2.9-6.5-6.5s2.9-6.5,6.5-6.5C91.1,31.5,94,34.4,94,38z"/>
	<path class="st2" d="M70.7,77.2c0.7-0.6,1.1-1.1,1.5-1.9l23.2-46.8c0.2-0.4,0-0.9-0.4-1.1l-3-1.5c-0.4-0.2-0.9,0-1.1,0.4l-23.2,47
		L53.8,84.4c-0.4,0.3-0.4,0.8-0.1,1.2l2.1,2.6c0.3,0.4,0.8,0.4,1.2,0.1L70.7,77.2z"/>
</g>
</svg>
