<?xml version="1.0" encoding="utf-8"?>
<!-- Generator: Adobe Illustrator 19.2.1, SVG Export Plug-In . SVG Version: 6.00 Build 0)  -->
<svg version="1.1" id="Layer_1" xmlns="http://www.w3.org/2000/svg" xmlns:xlink="http://www.w3.org/1999/xlink" x="0px" y="0px"
	 viewBox="0 0 130 130" style="enable-background:new 0 0 130 130;" xml:space="preserve">
<style type="text/css">
	.st0{fill:none;}
	.st1{fill:#4C4C4C;}
</style>
<rect class="st0" width="130" height="130"/>
<g id="Shape_164_1_">
	<path class="st1" d="M114.6,27.7c9.2-6,10-14.3,10-14.3c-3,4.1-16.3,6.3-16.3,6.3C97,6.3,79.9,13.4,79.9,13.4
		c-20.1,7.1-17.1,30.4-17.1,30.4c-35-0.5-54-27.4-54-27.4C-1.6,38.4,16,51.7,16,51.7c-3.9,0.4-11-2.7-11-2.7
		C4.8,69.1,25.7,76.2,25.7,76.2c-1.9,0.3-10.9,0.3-10.9,0.3C19.4,93,39,94.6,39,94.6c-19,14.3-38,11.8-38,11.8
		c18.7,14.3,37.3,12.8,49.9,11C82,113,98.6,90.2,98.6,90.2c22-28.3,14.6-52.1,18.2-53.5c0.1,0,0.1-0.1,0.2-0.1
		c3.6-1.7,12-12.3,12-12.3C123,27.7,114.6,27.7,114.6,27.7z"/>
</g>
</svg>
