<?xml version="1.0" encoding="utf-8"?>
<!-- Generator: Adobe Illustrator 19.2.1, SVG Export Plug-In . SVG Version: 6.00 Build 0)  -->
<svg version="1.1" id="Layer_1" xmlns="http://www.w3.org/2000/svg" xmlns:xlink="http://www.w3.org/1999/xlink" x="0px" y="0px"
	 viewBox="0 0 130 130" style="enable-background:new 0 0 130 130;" xml:space="preserve">
<style type="text/css">
	.st0{fill:none;}
	.st1{fill:#4C4C4C;}
</style>
<rect class="st0" width="130" height="130"/>
<g id="T_-_White_copy_3_2_">
	<path class="st1" d="M96.4,95.3H52.9c-1.8,0-2.4-1.1-2.4-3.1V68h45.9c9.3,0,16.8-7.5,16.8-16.8c0-9.3-7.6-16.8-16.8-16.8H50.5V17.8
		C50.5,8.6,42.9,1,33.7,1c-9.3,0-16.8,7.6-16.8,16.8v72.7c0,0.3,0,0.5,0,0.7c0,21.4,12,37.1,36.7,37.8c0.4,0,0.8,0,1.2,0h41.6
		c9.3,0,16.8-7.6,16.8-16.8C113.2,102.9,105.6,95.3,96.4,95.3z"/>
</g>
</svg>
