<?xml version="1.0" encoding="utf-8"?>
<!-- Generator: Adobe Illustrator 19.2.1, SVG Export Plug-In . SVG Version: 6.00 Build 0)  -->
<svg version="1.1" id="Layer_1" xmlns="http://www.w3.org/2000/svg" xmlns:xlink="http://www.w3.org/1999/xlink" x="0px" y="0px"
	 viewBox="0 0 130 130" style="enable-background:new 0 0 130 130;" xml:space="preserve">
<style type="text/css">
	.st0{fill:none;}
	.st1{fill:#4C4C4C;}
</style>
<rect class="st0" width="130" height="130"/>
<g id="Shape_13_copy_1_">
	<path class="st1" d="M74.4,39.2c14.6-8.8,22.4,3.6,14.9,17.5c-7.5,14-14.3,23.1-17.9,23.1c-3.6,0-6.3-9.3-10.4-25.7
		c-4.2-16.9-4.2-47.3-21.8-43.9C22.8,13.6,1,39.5,1,39.5l5.2,6.8c0,0,10.7-8.4,14.3-4.2s17.2,55.2,21.8,64.7
		c4,8.3,14.9,19.2,27,11.4c12-7.8,52-41.9,59.1-82.2C135.5-4.3,80.3,4.1,74.4,39.2z"/>
</g>
</svg>
