<?xml version="1.0" encoding="utf-8"?>
<!-- Generator: Adobe Illustrator 19.2.1, SVG Export Plug-In . SVG Version: 6.00 Build 0)  -->
<svg version="1.1" id="Layer_1" xmlns="http://www.w3.org/2000/svg" xmlns:xlink="http://www.w3.org/1999/xlink" x="0px" y="0px"
	 viewBox="0 0 130 130" style="enable-background:new 0 0 130 130;" xml:space="preserve">
<style type="text/css">
	.st0{fill:none;}
	.st1{fill:#4D4D4D;}
</style>
<rect class="st0" width="130" height="130"/>
<path class="st1" d="M99.3,35.3c-16.4,0-29.7,13.3-29.7,29.7c0,6.4,2.1,12.3,5.5,17.2H55c3.5-4.9,5.5-10.8,5.5-17.2
	c0-16.4-13.3-29.7-29.7-29.7C14.3,35.3,1,48.6,1,65c0,16.2,13,29.3,29.1,29.7l0.2,0h0.2l0.3,0l0.3,0h67.1l0.3,0c0.3,0,0.6,0,0.9,0
	c16.4,0,29.7-13.3,29.7-29.7C129,48.6,115.7,35.3,99.3,35.3z M31,82.2h-0.5C21.1,82,13.5,74.4,13.5,65c0-9.5,7.7-17.2,17.2-17.2
	c9.5,0,17.2,7.7,17.2,17.2C47.9,74.4,40.4,82,31,82.2z M99.3,82.2c-9.5,0-17.2-7.7-17.2-17.2c0-9.5,7.7-17.2,17.2-17.2
	c9.5,0,17.2,7.7,17.2,17.2C116.5,74.5,108.8,82.2,99.3,82.2z"/>
</svg>
