<?xml version="1.0" encoding="utf-8"?>
<!-- Generator: Adobe Illustrator 19.2.1, SVG Export Plug-In . SVG Version: 6.00 Build 0)  -->
<svg version="1.1" id="Layer_1" xmlns="http://www.w3.org/2000/svg" xmlns:xlink="http://www.w3.org/1999/xlink" x="0px" y="0px"
	 viewBox="0 0 130 130" style="enable-background:new 0 0 130 130;" xml:space="preserve">
<style type="text/css">
	.st0{fill:none;}
	.st1{fill:#4D4D4D;}
</style>
<rect class="st0" width="130" height="130"/>
<g>
	<path class="st1" d="M54.4,17.7L30.4,39.2c-1.3,1.2-2.5,2.7-3.7,4.4H8c-3.9,0-7,3.2-7,7.1v28.7c0,3.9,3.2,7,7,7h18.7
		c1.1,1.7,2.3,3.2,3.7,4.4l23.9,21.5c4.8,4.3,8.7,2.6,8.7-3.9V21.5C63.1,15.1,59.2,13.3,54.4,17.7z"/>
	<path class="st1" d="M110.9,65.8l17-17c1.4-1.4,1.6-3.3,0.2-4.7c-1.4-1.4-3.7-1.5-5.1-0.2L106,61L88.7,43.4
		c-1.4-1.4-3.7-1.3-5.1,0.1c-1.4,1.4-1.9,4.1-0.5,5.5l17.5,17.5L83.7,83.4c-1.4,1.4-1.4,3.6,0,5c1.4,1.4,3.4,1.2,4.8-0.2l16.9-16.9
		l17,16.9c1.4,1.4,3.6,1.4,5,0c1.4-1.4,1.5-4.2,0.2-5.5L110.9,65.8z"/>
</g>
</svg>
