<?xml version="1.0" encoding="utf-8"?>
<!-- Generator: Adobe Illustrator 19.2.1, SVG Export Plug-In . SVG Version: 6.00 Build 0)  -->
<svg version="1.1" id="Layer_1" xmlns="http://www.w3.org/2000/svg" xmlns:xlink="http://www.w3.org/1999/xlink" x="0px" y="0px"
	 viewBox="0 0 130 130" style="enable-background:new 0 0 130 130;" xml:space="preserve">
<style type="text/css">
	.st0{fill:none;}
	.st1{fill:#4C4C4C;}
</style>
<rect class="st0" width="130" height="130"/>
<g>
	<g id="Shape_30_2_">
		<g>
			<path class="st1" d="M65,128.2C29.7,128.2,1,99.9,1,65S29.7,1.8,65,1.8c35.3,0,64,28.4,64,63.2S100.3,128.2,65,128.2z M65,4.8
				C31.3,4.8,4,31.8,4,65s27.4,60.2,61,60.2s61-27,61-60.2S98.7,4.8,65,4.8z"/>
		</g>
	</g>
	<path class="st1" d="M9.7,64.2c0,21.6,12.8,40.3,31.3,49.1L14.5,41.9C11.4,48.7,9.7,56.2,9.7,64.2z M66.2,68.9l-16.7,47.6
		c5,1.4,10.2,2.2,15.7,2.2c6.5,0,12.7-1.1,18.4-3.1c-0.1-0.2-0.3-0.5-0.4-0.7L66.2,68.9z M113.9,38c0.2,1.7,0.4,3.6,0.4,5.6
		c0,5.5-1.1,11.8-4.2,19.6l-16.9,48.2c16.5-9.5,27.6-27.1,27.6-47.2C120.7,54.7,118.2,45.7,113.9,38z M102.7,61.4
		c0-6.8-2.5-11.4-4.6-15.1c-2.8-4.5-5.4-8.3-5.4-12.8c0-5,3.9-9.7,9.3-9.7c0.2,0,0.5,0,0.7,0C92.8,15,79.7,9.5,65.2,9.5
		c-19.4,0-36.4,9.8-46.4,24.6c1.3,0,2.5,0.1,3.6,0.1c5.8,0,14.8-0.7,14.8-0.7c3-0.2,3.3,4.2,0.3,4.5c0,0-3,0.3-6.4,0.5l20.2,59.1
		l12.1-35.8l-8.6-23.3c-3-0.2-5.8-0.5-5.8-0.5c-3-0.2-2.6-4.7,0.4-4.5c0,0,9.2,0.7,14.6,0.7c5.8,0,14.8-0.7,14.8-0.7
		c3-0.2,3.3,4.2,0.3,4.5c0,0-3,0.3-6.3,0.5l20.1,58.7l5.5-18.2C101.3,72,102.7,66.1,102.7,61.4z"/>
</g>
</svg>
