<?xml version="1.0" encoding="utf-8"?>
<!-- Generator: Adobe Illustrator 19.2.1, SVG Export Plug-In . SVG Version: 6.00 Build 0)  -->
<svg version="1.1" id="Layer_1" xmlns="http://www.w3.org/2000/svg" xmlns:xlink="http://www.w3.org/1999/xlink" x="0px" y="0px"
	 viewBox="0 0 130 130" style="enable-background:new 0 0 130 130;" xml:space="preserve">
<style type="text/css">
	.st0{fill:none;}
	.st1{fill:#4D4D4D;}
</style>
<rect class="st0" width="130" height="130"/>
<g id="Shape_20_1_">
	<path class="st1" d="M117.7,42.9c0,0,0.1,0,0.1,0l3.6-5.2c-0.1,0-0.1,0-0.2,0l0.4-0.6h-50l1.9,7.9h13.7l-23,20.7
		c-4.7-6.5-15.7-20-23.3-31.1H58v-6l0.2-1.3c-0.1,0-0.1,0-0.2,0v-0.5H1v7.9h16.9c6.6,5.1,31.7,36.5,32.7,39.6
		c0.4,2.9,0.8,20.2-0.4,21.5c-2.5,2.6-13.7,1.9-16.4,2.1l-0.9,5.4c5,0.1,21.1-0.4,26.1-0.4c9.9,0,27.2,0,29.7,0.1l0.3-5.6
		c-2.5-0.4-16.1-0.1-18-0.5c-0.4-2.7-0.9-20.9-0.5-22.8c1.9-5.4,30.5-27.6,33.7-28.4c0.7-0.1,1.8-0.4,3-0.6h9.2L117.7,42.9z
		 M112.4,88.7l7.7,0.6l8.9-34.5c-1.5-0.1-15-1.3-16.8-1.7L112.4,88.7z M111.1,94.2l0,8.4l3.9,0.3l4.2,0.3l1.2-8.2l-4.4-0.2
		L111.1,94.2z"/>
</g>
</svg>
