<?xml version="1.0" encoding="utf-8"?>
<!-- Generator: Adobe Illustrator 19.2.1, SVG Export Plug-In . SVG Version: 6.00 Build 0)  -->
<svg version="1.1" id="Layer_1" xmlns="http://www.w3.org/2000/svg" xmlns:xlink="http://www.w3.org/1999/xlink" x="0px" y="0px"
	 viewBox="0 0 130 130" style="enable-background:new 0 0 130 130;" xml:space="preserve">
<style type="text/css">
	.st0{fill:none;}
	.st1{fill:#4C4C4C;}
</style>
<rect class="st0" width="130" height="130"/>
<g id="Shape_11_copy_2_">
	<path class="st1" d="M28.1,83.8h6.2v30.9h6V83.8h6.2v-5.2H28.1V83.8z M58.8,108.3c-0.5,0.6-1.1,1.1-1.7,1.4
		c-0.6,0.4-1.1,0.6-1.5,0.6c-0.5,0-0.9-0.1-1.1-0.4c-0.2-0.3-0.3-0.7-0.3-1.4V88.1h-5.3v22.3c0,1.6,0.3,2.8,0.9,3.6
		c0.6,0.8,1.5,1.2,2.8,1.2c1,0,2-0.3,3.1-0.9c1.1-0.6,2.1-1.4,3.1-2.5v2.9h5.3V88.1h-5.3L58.8,108.3L58.8,108.3z M78.2,87.7
		c-0.8,0-1.7,0.2-2.5,0.6c-0.8,0.4-1.6,1-2.3,1.9V78.6h-5.4v36.2h5.4v-2c0.7,0.8,1.5,1.4,2.3,1.8c0.8,0.4,1.7,0.6,2.8,0.6
		c1.6,0,2.8-0.5,3.6-1.5c0.8-1,1.3-2.5,1.3-4.3V94.4c0-2.2-0.4-3.8-1.3-5C81.2,88.3,79.9,87.7,78.2,87.7z M77.9,108.5
		c0,0.9-0.2,1.5-0.5,1.8c-0.3,0.4-0.8,0.6-1.4,0.6c-0.4,0-0.9-0.1-1.3-0.3c-0.4-0.2-0.8-0.5-1.3-0.9V93.1c0.4-0.4,0.7-0.6,1.1-0.8
		c0.4-0.2,0.7-0.3,1.1-0.3c0.7,0,1.3,0.2,1.7,0.7c0.4,0.5,0.6,1.2,0.6,2.1L77.9,108.5L77.9,108.5z M94.3,87.4
		c-2.4,0-4.3,0.7-5.8,2.2c-1.5,1.5-2.3,3.4-2.3,5.7v12c0,2.6,0.7,4.6,2.1,6.1s3.2,2.2,5.6,2.2c2.7,0,4.7-0.7,6-2.1
		c1.3-1.4,2-3.5,2-6.2v-1.4h-5.5v1.2c0,1.6-0.2,2.6-0.5,3c-0.4,0.5-1,0.7-1.9,0.7c-0.9,0-1.5-0.3-1.8-0.8c-0.4-0.5-0.5-1.5-0.5-2.9
		v-5h10.2v-6.8c0-2.5-0.6-4.5-2-5.8C98.7,88.1,96.8,87.4,94.3,87.4z M96.4,97.9h-4.7v-2.7c0-1.1,0.2-1.9,0.6-2.4
		c0.4-0.5,1-0.7,1.8-0.7c0.8,0,1.4,0.2,1.8,0.7c0.4,0.5,0.6,1.3,0.6,2.4C96.4,95.2,96.4,97.9,96.4,97.9z M65.5,36.6
		c-0.7,0-1.3,0.2-1.8,0.6c-0.5,0.4-0.7,0.9-0.7,1.6v16c0,0.8,0.2,1.4,0.6,1.9c0.4,0.4,1,0.7,1.8,0.7c0.8,0,1.5-0.2,1.9-0.7
		c0.5-0.5,0.7-1.1,0.7-1.9v-16c0-0.6-0.2-1.2-0.7-1.6C66.9,36.8,66.3,36.6,65.5,36.6z M115.6,14.5H14.4C7,14.5,1,20.5,1,27.9v28.4
		c0,7.4,6,13.4,13.4,13.4h101.2c7.4,0,13.4-6,13.4-13.4V27.9C129,20.5,123,14.5,115.6,14.5z M48.5,45.1v16.5h-6.8V45.9l-8-24h6.8
		l4.4,15.9h0.4l4.2-15.9h6.9L48.5,45.1z M74.3,54.4c0,2.5-0.8,4.5-2.3,5.9c-1.6,1.4-3.7,2.1-6.4,2.1c-2.6,0-4.7-0.7-6.3-2.2
		c-1.6-1.5-2.4-3.5-2.4-6V39c0-2.3,0.8-4.1,2.4-5.4c1.6-1.3,3.8-2,6.5-2c2.5,0,4.5,0.7,6.1,2.1c1.6,1.4,2.4,3.3,2.4,5.5V54.4z
		 M96.3,61.7h-6v-3.2c-1.1,1.2-2.2,2.1-3.4,2.7c-1.2,0.6-2.4,0.9-3.5,0.9c-1.4,0-2.4-0.4-3.1-1.3c-0.7-0.9-1.1-2.2-1.1-3.9V32.3h6
		v22.5c0,0.7,0.1,1.2,0.4,1.5c0.2,0.3,0.7,0.5,1.2,0.5c0.4,0,1-0.2,1.7-0.6c0.7-0.4,1.3-0.9,1.8-1.6V32.3h6L96.3,61.7L96.3,61.7z"/>
</g>
</svg>
