<?xml version="1.0" encoding="utf-8"?>
<!-- Generator: Adobe Illustrator 19.2.1, SVG Export Plug-In . SVG Version: 6.00 Build 0)  -->
<svg version="1.1" id="Layer_1" xmlns="http://www.w3.org/2000/svg" xmlns:xlink="http://www.w3.org/1999/xlink" x="0px" y="0px"
	 viewBox="0 0 130 130" style="enable-background:new 0 0 130 130;" xml:space="preserve">
<style type="text/css">
	.st0{fill:none;}
	.st1{fill:#4C4C4C;}
</style>
<rect class="st0" width="130" height="130"/>
<g id="Zerply_icon_2_">
	<path class="st1" d="M111.9,100.9C87.3,119.5,67.4,86.4,43,85.3c7.5-10.9,25.3-27.1,36-39.9C93.8,27.7,109.5,17,105.4,3.6
		c-9.9,2-48.9,7.1-62.7-2.6c-2.3,4.2-9.7,12.1-7.4,20.1c3.3,7.9,24.9,6.2,35.6,5C53.8,48.2,38,65.5,26.9,77
		c-7.5,7.8-10.3,12.5-9.5,26.2c12-1.6,22.7-0.5,31.8,3.3c13.1,5.5,21,17.1,35.2,21.3C103.8,133.6,116.1,116.7,111.9,100.9z"/>
</g>
</svg>
