<?xml version="1.0" encoding="utf-8"?>
<!-- Generator: Adobe Illustrator 19.2.1, SVG Export Plug-In . SVG Version: 6.00 Build 0)  -->
<svg version="1.1" id="Layer_1" xmlns="http://www.w3.org/2000/svg" xmlns:xlink="http://www.w3.org/1999/xlink" x="0px" y="0px"
	 viewBox="0 0 130 130" style="enable-background:new 0 0 130 130;" xml:space="preserve">
<style type="text/css">
	.st0{fill:none;}
	.st1{fill:#4D4D4D;}
</style>
<rect class="st0" width="130" height="130"/>
<g>
	<path class="st1" d="M124.2,106.5L94.8,75.9c-4.7,7.7-11.2,14-19,18.5l29.2,30.5c2.6,2.7,6.1,4.1,9.6,4.1c3.3,0,6.6-1.2,9.2-3.7
		C129.1,120.2,129.3,111.8,124.2,106.5z"/>
	<path class="st1" d="M49.2,95.2c-26,0-47.1-21.1-47.1-47.1C2.1,22.1,23.2,1,49.2,1s47.1,21.1,47.1,47.1
		C96.3,74,75.2,95.2,49.2,95.2z M49.2,11.5c-20.2,0-36.6,16.4-36.6,36.6c0,20.2,16.4,36.6,36.6,36.6c20.2,0,36.6-16.4,36.6-36.6
		C85.8,27.9,69.4,11.5,49.2,11.5z"/>
	<path class="st1" d="M66.6,44.5H52.7V30.7c0-2-1.6-3.5-3.5-3.5c-2,0-3.5,1.6-3.5,3.5v13.8H31.8c-2,0-3.5,1.6-3.5,3.5
		c0,2,1.6,3.5,3.5,3.5h13.8v13.8c0,2,1.6,3.5,3.5,3.5c2,0,3.5-1.6,3.5-3.5V51.6h13.8c2,0,3.5-1.6,3.5-3.5
		C70.1,46.1,68.5,44.5,66.6,44.5z"/>
</g>
</svg>
