<?xml version="1.0" encoding="utf-8"?>
<!-- Generator: Adobe Illustrator 19.2.1, SVG Export Plug-In . SVG Version: 6.00 Build 0)  -->
<svg version="1.1" id="Layer_1" xmlns="http://www.w3.org/2000/svg" xmlns:xlink="http://www.w3.org/1999/xlink" x="0px" y="0px"
	 viewBox="0 0 130 130" style="enable-background:new 0 0 130 130;" xml:space="preserve">
<metadata><?xpacket begin="﻿" id="W5M0MpCehiHzreSzNTczkc9d"?>
<x:xmpmeta xmlns:x="adobe:ns:meta/" x:xmptk="Adobe XMP Core 5.6-c111 79.158366, 2015/09/25-01:12:00        ">
   <rdf:RDF xmlns:rdf="http://www.w3.org/1999/02/22-rdf-syntax-ns#">
      <rdf:Description rdf:about=""/>
   </rdf:RDF>
</x:xmpmeta>
                                                                                                    
                                                                                                    
                                                                                                    
                                                                                                    
                                                                                                    
                                                                                                    
                                                                                                    
                                                                                                    
                                                                                                    
                                                                                                    
                                                                                                    
                                                                                                    
                                                                                                    
                                                                                                    
                                                                                                    
                                                                                                    
                                                                                                    
                                                                                                    
                                                                                                    
                                                                                                    
                           
<?xpacket end="w"?></metadata>
<style type="text/css">
	.st0{fill:none;}
</style>
<rect class="st0" width="130" height="130"/>
<g id="Shape_26_copy_1_">
	<path d="M117.1,110.5c-7.3-16.3-17.3-27-25.4-33.5c6-0.8,12.9-3.2,22.6-8.7l3-1.6l-1.4-3.4l-7.7-17.5l-1.8-4l-3.8,2.2
		c-0.2,0.2-8.3,4.2-17.5,3.2c10.1-2.6,17.5-11.7,17.5-22.6C102.6,11.5,92.1,1,79,1C66.1,1,55.6,11.5,55.6,24.6
		c0,5.2,1.8,10.1,4.8,14.1c-12.7,8.7-16.3,23-17.3,35.7c-0.4,3.2-0.6,4.2-0.6,4.6c-8.1,16.5-25.4,19-26.2,19.1l-5,0.6l1.8,4.6
		l8.3,22.4l1,3.2l3.4-0.8c25.2-5.2,34.3-16.9,41.5-26.4c17.7,8.9,24.2,23.2,24.2,23.2c0.6,0.8,2,3.6,2,3.6l3.4-2.2l18.5-10.9
		l3.2-1.8L117.1,110.5z"/>
</g>
</svg>
