<?xml version="1.0" encoding="utf-8"?>
<!-- Generator: Adobe Illustrator 16.0.0, SVG Export Plug-In . SVG Version: 6.00 Build 0)  -->
<!DOCTYPE svg PUBLIC "-//W3C//DTD SVG 1.1//EN" "http://www.w3.org/Graphics/SVG/1.1/DTD/svg11.dtd">
<svg version="1.1" id="Layer_1" xmlns="http://www.w3.org/2000/svg" xmlns:xlink="http://www.w3.org/1999/xlink" x="0px" y="0px"
	 width="130px" height="130px" viewBox="0 0 130 130" enable-background="new 0 0 130 130" xml:space="preserve">
<rect fill="none" width="130" height="130"/>
<g>
	<path fill="#4D4D4D" d="M110.245,54.836c-1.378-0.994-3.31-0.679-4.303,0.699l-41.676,57.777c-0.037,0.063-0.074,0.121-0.116,0.185
		c-0.053,0.068-0.121,0.174-0.206,0.29c-0.19,0.143-0.354,0.307-0.512,0.488c-7.955,9.584-22.092,11.379-32.19,4.083
		c-10.373-7.495-12.965-21.77-5.896-32.49c0.121-0.178,0.222-0.362,0.29-0.555l51.247-71.048c5.706-7.715,16.676-9.418,24.457-3.792
		c7.591,5.481,9.555,15.967,4.471,23.875c-1.24,1.773-32.105,44.572-42.288,58.695l-3.258,4.517c-0.2,0.189-0.364,0.406-0.512,0.646
		l-0.163,0.267l-0.164,0.296c-1.721,2.386-4.26,3.959-7.169,4.423c-2.897,0.473-5.817-0.222-8.203-1.942
		c-4.83-3.51-5.976-10.362-2.55-15.271c0.132-0.19,0.243-0.391,0.322-0.599l35.658-49.557c0.992-1.383,0.676-3.311-0.702-4.305
		c-1.388-0.996-3.31-0.681-4.302,0.701L36.742,81.885c-0.179,0.251-0.311,0.488-0.479,0.813c-0.026,0.036-0.043,0.071-0.063,0.11
		c-5.025,7.615-3.178,18.043,4.244,23.436c3.722,2.692,8.271,3.759,12.79,3.04c4.54-0.729,8.51-3.18,11.334-7.113l0.185-0.311
		c0.059-0.071,0.121-0.146,0.175-0.22l40.905-56.751c2.75-3.815,4.275-5.932,5.036-7.256l0.116,0.074
		c6.873-10.667,4.223-24.828-6.028-32.233c-10.5-7.588-25.323-5.299-33.057,5.159L20.647,81.695
		c-0.433,0.572-0.76,1.019-0.935,1.549c-8.277,13.393-4.898,30.853,7.913,40.116c5.263,3.798,11.397,5.641,17.483,5.641
		c8.293,0,16.513-3.415,22.356-9.956c0.152-0.095,0.29-0.203,0.433-0.322c0.011-0.013,0.913-0.862,1.488-1.958l41.561-57.624
		C111.939,57.763,111.628,55.833,110.245,54.836z"/>
</g>
</svg>
