<?xml version="1.0" encoding="utf-8"?>
<!-- Generator: Adobe Illustrator 16.0.0, SVG Export Plug-In . SVG Version: 6.00 Build 0)  -->
<!DOCTYPE svg PUBLIC "-//W3C//DTD SVG 1.1//EN" "http://www.w3.org/Graphics/SVG/1.1/DTD/svg11.dtd">
<svg version="1.1" id="Layer_1" xmlns="http://www.w3.org/2000/svg" xmlns:xlink="http://www.w3.org/1999/xlink" x="0px" y="0px"
	 width="130px" height="130px" viewBox="0 0 130 130" enable-background="new 0 0 130 130" xml:space="preserve">
<rect fill="none" width="130" height="130"/>
<g>
	<path fill="#4D4D4D" d="M129,47.743c-0.074-11.871-3.527-19.801-10.268-23.577c-7.16-4.009-15.847-1.998-21.724,0.299
		c2.197,2.221,4.138,4.89,5.836,8.024c3.865-1.187,8.241-1.776,11.279-0.064c4.413,2.483,5.38,9.732,5.418,15.376
		c0.021,3.895-1.254,14.689-4.573,25.128c-0.792-1.3-1.863-2.426-3.124-3.283l1.634,13.885c0.23,1.938,0.414,3.806,0.566,5.631
		c0.039,0.449,0.061,0.876,0.095,1.32c0.1,1.368,0.182,2.71,0.229,4.014c0.327,8.761-0.621,16.063-4.099,21.742h1.7
		c5.365,0,9.486-1.536,9.152-6.877l-2.916-19.87C126.991,74.027,129.027,52.537,129,47.743z"/>
	<path fill="#4D4D4D" d="M15.983,95.61c0.046-1.845,0.15-3.755,0.306-5.732c0.003-0.038,0.005-0.073,0.01-0.109
		c0.158-2.012,0.368-4.086,0.623-6.236l1.331-11.319c-1.024,0.628-1.938,1.433-2.699,2.358c-3.716-10.929-5.12-22.667-5.095-26.767
		c0.036-5.646,1.003-12.895,5.417-15.378c3.129-1.761,7.677-1.089,11.618,0.167c1.684-3.127,3.614-5.782,5.786-8.004
		c-5.883-2.343-14.731-4.495-22.014-0.422C4.528,27.942,1.074,35.873,1,47.746c-0.029,4.785,1.996,26.241,10.761,41.698
		l-3.219,19.918c-0.328,5.341,3.791,9.715,9.159,9.715h4.505C17.223,113.28,15.738,105.394,15.983,95.61z"/>
	<path fill="#4D4D4D" d="M110.885,83.839l-2.704-22.981c-3.502-26.726-12.058-39.605-28.147-41.89
		C75.81,9.182,71.063,4.169,65.884,4.169c-0.018,0-0.036,0-0.056,0c-7.497,0.054-13.035,10.667-14.878,14.72
		C34.483,20.941,25.763,33.81,22.216,60.875l-2.7,22.963c-1.764,15.006-1.61,26.494,4.875,33.786
		c4.91,5.521,13.252,8.206,25.503,8.206h30.611c12.249,0,20.59-2.683,25.5-8.203C112.489,110.338,112.645,98.847,110.885,83.839z
		 M55.879,18.56c-0.15,0-0.291,0.018-0.442,0.018c2.323-4.395,6.249-10.023,10.419-10.051c0.007,0,0.018,0,0.028,0
		c3.23,0,6.558,3.486,9.733,10.08c-0.37-0.01-0.721-0.046-1.098-0.046H55.879z"/>
</g>
</svg>
