<?xml version="1.0" encoding="utf-8"?>
<!-- Generator: Adobe Illustrator 16.0.0, SVG Export Plug-In . SVG Version: 6.00 Build 0)  -->
<!DOCTYPE svg PUBLIC "-//W3C//DTD SVG 1.1//EN" "http://www.w3.org/Graphics/SVG/1.1/DTD/svg11.dtd">
<svg version="1.1" id="Layer_1" xmlns="http://www.w3.org/2000/svg" xmlns:xlink="http://www.w3.org/1999/xlink" x="0px" y="0px"
	 width="130px" height="130px" viewBox="0 0 130 130" enable-background="new 0 0 130 130" xml:space="preserve">
<rect fill="none" width="130" height="130"/>
<g>
	<path fill="#4D4D4D" d="M103.782,25.954H87.968c-0.121,0.914-0.29,1.839-0.522,2.767c-0.077,0.3-0.202,0.578-0.386,0.844
		c-0.088,1.198-0.257,2.274-0.486,3.298c0.017,0.128,0.075,0.239,0.075,0.37c0,1.711-1.393,3.103-3.104,3.103
		c-1.716,0-3.103-1.392-3.103-3.103c0-0.914,0.408-1.713,1.034-2.281c0.188-0.999,0.314-1.994,0.314-2.968
		c0-0.689-0.054-1.363-0.136-2.03H48.35c-0.082,0.667-0.136,1.341-0.136,2.03c0,1.138,0.155,2.312,0.411,3.492
		c0.357,0.505,0.613,1.09,0.613,1.757c0,1.711-1.392,3.103-3.107,3.103c-1.711,0-3.099-1.392-3.099-3.103
		c0-0.416,0.088-0.807,0.237-1.17c-0.145-0.788-0.261-1.604-0.326-2.496c-0.187-0.266-0.312-0.546-0.389-0.846
		c-0.23-0.925-0.401-1.851-0.522-2.767H26.213L22.912,129h84.176L103.782,25.954z"/>
	<g>
		<path fill="#4D4D4D" d="M65,1c12.224,0,22.175,9.908,22.175,22.098c0,1.754-0.236,3.567-0.69,5.384
			c-0.237,0.952-1.204,1.522-2.156,1.286c-0.947-0.242-1.518-1.203-1.285-2.155c0.387-1.527,0.585-3.05,0.585-4.515
			c0-10.232-8.357-18.555-18.628-18.555s-18.623,8.323-18.623,18.555c0,1.465,0.193,2.987,0.58,4.515
			c0.242,0.952-0.333,1.914-1.285,2.155c-0.952,0.232-1.919-0.333-2.156-1.286c-0.454-1.817-0.686-3.63-0.686-5.384
			C42.83,10.908,52.776,1,65,1z"/>
	</g>
	<g>
		<path fill="#4D4D4D" d="M65.005,6.887c11.668,0,21.165,9.464,21.165,21.098c0,1.677-0.223,3.407-0.657,5.143
			c-0.228,0.909-1.15,1.455-2.055,1.228c-0.908-0.227-1.454-1.15-1.232-2.054c0.372-1.464,0.556-2.919,0.556-4.316
			c0-9.768-7.975-17.709-17.776-17.709c-9.807,0-17.782,7.941-17.782,17.709c0,1.396,0.185,2.852,0.552,4.316
			c0.231,0.904-0.319,1.827-1.228,2.054c-0.904,0.222-1.827-0.319-2.055-1.228c-0.439-1.735-0.662-3.465-0.662-5.143
			C43.83,16.351,53.327,6.887,65.005,6.887z"/>
	</g>
</g>
</svg>
