<?xml version="1.0" encoding="utf-8"?>
<!-- Generator: Adobe Illustrator 16.0.0, SVG Export Plug-In . SVG Version: 6.00 Build 0)  -->
<!DOCTYPE svg PUBLIC "-//W3C//DTD SVG 1.1//EN" "http://www.w3.org/Graphics/SVG/1.1/DTD/svg11.dtd">
<svg version="1.1" id="Layer_1" xmlns="http://www.w3.org/2000/svg" xmlns:xlink="http://www.w3.org/1999/xlink" x="0px" y="0px"
	 width="130px" height="130px" viewBox="0 0 130 130" enable-background="new 0 0 130 130" xml:space="preserve">
<rect fill="none" width="130" height="130"/>
<g>
	<g>
		<rect x="14.407" y="1" fill="#424242" width="101.396" height="28.472"/>
		<polygon fill="#303030" points="24.943,7.428 14.343,1.123 14.343,17.948 22.001,14.164 		"/>
		<polygon fill="#636363" points="10.731,20.463 24.943,7.428 24.943,28.887 		"/>
		<polygon fill="#303030" points="105.132,7.428 115.738,1.123 115.738,17.948 108.08,14.164 		"/>
		<polygon fill="#636363" points="119.269,20.463 105.132,7.428 105.132,28.887 		"/>
	</g>
	<path fill="#4D4D4D" d="M119.269,20.463H10.731L8.211,128.989L121.789,129L119.269,20.463z M96.546,43.924
		c0,17.339-14.153,31.448-31.552,31.448c-17.396,0-31.551-14.109-31.551-31.448c0-1.037,0.092-2.093,0.206-3.155
		c-1.067-0.931-1.752-2.287-1.752-3.815c0-2.812,2.28-5.092,5.092-5.092c2.817,0,5.099,2.28,5.099,5.092
		c0,2.239-1.451,4.114-3.455,4.799c-0.064,0.727-0.143,1.459-0.143,2.172c0,14.562,11.89,26.4,26.504,26.4
		c14.612,0,26.501-11.839,26.501-26.4c0-0.713-0.075-1.445-0.143-2.174c-1.995-0.688-3.443-2.56-3.443-4.796
		c0-2.812,2.281-5.092,5.093-5.092c2.817,0,5.098,2.28,5.098,5.092c0,1.532-0.688,2.89-1.758,3.821
		C96.454,41.833,96.546,42.887,96.546,43.924z"/>
</g>
</svg>
