<?xml version="1.0" encoding="utf-8"?>
<!-- Generator: Adobe Illustrator 16.0.0, SVG Export Plug-In . SVG Version: 6.00 Build 0)  -->
<!DOCTYPE svg PUBLIC "-//W3C//DTD SVG 1.1//EN" "http://www.w3.org/Graphics/SVG/1.1/DTD/svg11.dtd">
<svg version="1.1" id="Layer_1" xmlns="http://www.w3.org/2000/svg" xmlns:xlink="http://www.w3.org/1999/xlink" x="0px" y="0px"
	 width="130px" height="130px" viewBox="0 0 130 130" enable-background="new 0 0 130 130" xml:space="preserve">
<rect fill="none" width="130" height="130"/>
<g>
	<path fill="#4D4D4D" d="M65,1C29.657,1,1,29.651,1,65c0,35.343,28.657,64,64,64c35.343,0,64-28.657,64-64
		C129,29.651,100.343,1,65,1z M120.429,53.325c1.367,0,2.47,1.103,2.47,2.47s-1.103,2.47-2.47,2.47s-2.47-1.103-2.47-2.47
		S119.062,53.325,120.429,53.325z M109.725,34.8c1.367,0,2.47,1.102,2.47,2.469s-1.103,2.469-2.47,2.469s-2.47-1.102-2.47-2.469
		S108.357,34.8,109.725,34.8z M108.903,47.974c1.361,0,2.47,1.102,2.47,2.469c0,1.367-1.108,2.469-2.47,2.469
		c-1.367,0-2.475-1.103-2.475-2.469C106.429,49.076,107.536,47.974,108.903,47.974z M97.378,24.509c1.361,0,2.469,1.108,2.469,2.469
		c0,1.367-1.107,2.475-2.469,2.475c-1.367,0-2.476-1.108-2.476-2.475C94.902,25.617,96.011,24.509,97.378,24.509z M95.316,70.611
		c1.366,0,2.469,1.107,2.469,2.47c0,1.366-1.103,2.475-2.469,2.475c-1.367,0-2.47-1.108-2.47-2.475
		C92.847,71.719,93.949,70.611,95.316,70.611z M94.908,82.964c1.361,0,2.47,1.103,2.47,2.469c0,1.367-1.108,2.47-2.47,2.47
		c-1.367,0-2.475-1.103-2.475-2.47C92.434,84.066,93.541,82.964,94.908,82.964z M86.293,12.338c1.361,0,2.47,1.108,2.47,2.469
		c0,1.367-1.108,2.475-2.47,2.475c-1.367,0-2.475-1.108-2.475-2.475C83.818,13.446,84.926,12.338,86.293,12.338z M80.5,23.688
		c1.367,0,2.469,1.103,2.469,2.469c0,1.367-1.102,2.469-2.469,2.469s-2.47-1.102-2.47-2.469C78.03,24.79,79.133,23.688,80.5,23.688z
		 M78.35,35.18c1.367,0,2.47,1.108,2.47,2.469c0,1.367-1.103,2.475-2.47,2.475c-1.366,0-2.469-1.108-2.469-2.475
		C75.881,36.288,76.983,35.18,78.35,35.18z M68.561,12.983c1.367,0,2.47,1.108,2.47,2.47c0,1.367-1.103,2.475-2.47,2.475
		s-2.469-1.108-2.469-2.475C66.092,14.091,67.193,12.983,68.561,12.983z M62.388,32.33c0,1.367-1.103,2.475-2.47,2.475
		s-2.47-1.108-2.47-2.475c0-1.361,1.103-2.469,2.47-2.469S62.388,30.969,62.388,32.33z M59.091,19.983
		c0,1.367-1.103,2.469-2.469,2.469c-1.367,0-2.47-1.102-2.47-2.469s1.103-2.469,2.47-2.469
		C57.988,17.514,59.091,18.616,59.091,19.983z M55.53,8.028c1.361,0,2.47,1.103,2.47,2.469c0,1.367-1.108,2.47-2.47,2.47
		c-1.367,0-2.475-1.103-2.475-2.47C53.056,9.13,54.163,8.028,55.53,8.028z M44.274,26.157c1.362,0,2.47,1.103,2.47,2.469
		c0,1.367-1.107,2.47-2.47,2.47c-1.366,0-2.475-1.103-2.475-2.47C41.8,27.259,42.908,26.157,44.274,26.157z M35.07,16.042
		c1.367,0,2.469,1.108,2.469,2.469c0,1.367-1.103,2.475-2.469,2.475c-1.367,0-2.469-1.107-2.469-2.475
		C32.601,17.15,33.703,16.042,35.07,16.042z M31.515,58.265c1.361,0,2.469,1.103,2.469,2.469c0,1.367-1.108,2.47-2.469,2.47
		c-1.367,0-2.475-1.103-2.475-2.47C29.04,59.367,30.147,58.265,31.515,58.265z M26.576,52.499c0-1.361,1.103-2.469,2.469-2.469
		c1.367,0,2.47,1.108,2.47,2.469c0,1.368-1.103,2.475-2.47,2.475C27.678,54.974,26.576,53.866,26.576,52.499z M30.28,34.8
		c1.361,0,2.469,1.108,2.469,2.469c0,1.367-1.108,2.475-2.469,2.475c-1.367,0-2.475-1.108-2.475-2.475
		C27.805,35.908,28.913,34.8,30.28,34.8z M25.865,24.448c1.367,0,2.469,1.102,2.469,2.469s-1.103,2.469-2.469,2.469
		c-1.367,0-2.469-1.102-2.469-2.469S24.498,24.448,25.865,24.448z M19.856,60.816c0,1.367-1.102,2.475-2.469,2.475
		s-2.469-1.107-2.469-2.475c0-1.361,1.102-2.47,2.469-2.47S19.856,59.455,19.856,60.816z M16.285,37.683
		c1.362,0,2.47,1.102,2.47,2.469s-1.108,2.469-2.47,2.469c-1.367,0-2.475-1.102-2.475-2.469S14.918,37.683,16.285,37.683z
		 M6.81,60.733c0-1.366,1.108-2.469,2.475-2.469c1.361,0,2.469,1.103,2.469,2.469c0,1.367-1.108,2.47-2.469,2.47
		C7.917,63.203,6.81,62.101,6.81,60.733z M10.933,78.025c-1.367,0-2.475-1.108-2.475-2.476c0-1.361,1.107-2.469,2.475-2.469
		c1.361,0,2.469,1.107,2.469,2.469C13.402,76.917,12.294,78.025,10.933,78.025z M12.989,48.387c0-1.367,1.102-2.469,2.469-2.469
		s2.469,1.103,2.469,2.469c0,1.367-1.102,2.469-2.469,2.469S12.989,49.754,12.989,48.387z M14.08,85.78
		c0-1.367,1.108-2.47,2.475-2.47c1.362,0,2.47,1.103,2.47,2.47s-1.108,2.47-2.47,2.47C15.188,88.25,14.08,87.147,14.08,85.78z
		 M19.956,101.699c-1.367,0-2.47-1.108-2.47-2.476c0-1.361,1.103-2.469,2.47-2.469c1.367,0,2.469,1.107,2.469,2.469
		C22.425,100.591,21.323,101.699,19.956,101.699z M20.81,71.846c0-1.361,1.103-2.469,2.47-2.469c1.367,0,2.469,1.107,2.469,2.469
		c0,1.367-1.103,2.476-2.469,2.476C21.913,74.321,20.81,73.213,20.81,71.846z M24.922,85.841c0-1.367,1.108-2.47,2.475-2.47
		c1.361,0,2.469,1.103,2.469,2.47s-1.108,2.47-2.469,2.47C26.03,88.311,24.922,87.208,24.922,85.841z M29.839,105.139
		c-1.367,0-2.469-1.108-2.469-2.475c0-1.362,1.102-2.47,2.469-2.47s2.469,1.107,2.469,2.47
		C32.308,104.03,31.206,105.139,29.839,105.139z M35.219,73.902c1.367,0,2.469,1.107,2.469,2.469c0,1.367-1.103,2.475-2.469,2.475
		c-1.367,0-2.47-1.107-2.47-2.475C32.749,75.01,33.852,73.902,35.219,73.902z M35.229,112.822c-1.367,0-2.475-1.108-2.475-2.475
		c0-1.361,1.108-2.47,2.475-2.47c1.362,0,2.47,1.108,2.47,2.47C37.699,111.714,36.591,112.822,35.229,112.822z M35.908,98.662
		c-1.367-0.039-2.437-1.174-2.398-2.541c0.039-1.361,1.174-2.437,2.536-2.398c1.367,0.039,2.442,1.175,2.403,2.541
		C38.41,97.631,37.274,98.7,35.908,98.662z M38.923,40.973c0-1.367,1.107-2.469,2.475-2.469c1.361,0,2.47,1.102,2.47,2.469
		s-1.108,2.469-2.47,2.469C40.03,43.442,38.923,42.34,38.923,40.973z M42.809,103.286c0-1.366,1.108-2.469,2.475-2.469
		c1.361,0,2.47,1.103,2.47,2.469c0,1.367-1.108,2.47-2.47,2.47C43.917,105.756,42.809,104.653,42.809,103.286z M46.744,118.775
		c-1.367,0-2.475-1.103-2.475-2.47s1.107-2.469,2.475-2.469c1.361,0,2.47,1.102,2.47,2.469S48.105,118.775,46.744,118.775z
		 M54.152,97.372c0-1.367,1.108-2.47,2.475-2.47c1.361,0,2.47,1.103,2.47,2.47s-1.108,2.47-2.47,2.47
		C55.261,99.842,54.152,98.739,54.152,97.372z M57.856,118.361c-1.367,0-2.47-1.107-2.47-2.475c0-1.361,1.103-2.469,2.47-2.469
		s2.47,1.107,2.47,2.469C60.326,117.254,59.224,118.361,57.856,118.361z M66.505,108.076c-1.367,0-2.475-1.107-2.475-2.475
		c0-1.361,1.107-2.47,2.475-2.47c1.361,0,2.47,1.108,2.47,2.47C68.975,106.969,67.866,108.076,66.505,108.076z M71.157,121.559
		c-1.367,0-2.476-1.107-2.476-2.475c0-1.361,1.108-2.47,2.476-2.47c1.361,0,2.469,1.108,2.469,2.47
		C73.626,120.451,72.519,121.559,71.157,121.559z M80.5,110.954c-1.367,0-2.475-1.103-2.475-2.47s1.107-2.47,2.475-2.47
		c1.361,0,2.469,1.103,2.469,2.47S81.861,110.954,80.5,110.954z M80.688,99.048c-1.367,0-2.47-1.108-2.47-2.475
		c0-1.362,1.103-2.47,2.47-2.47c1.366,0,2.469,1.107,2.469,2.47C83.156,97.939,82.054,99.048,80.688,99.048z M65,89.49
		c-13.505,0-24.49-10.985-24.49-24.49c0-13.504,10.985-24.49,24.49-24.49S89.49,51.496,89.49,65C89.49,78.505,78.505,89.49,65,89.49
		z M92.345,114.404c-1.366,0-2.475-1.103-2.475-2.47s1.108-2.469,2.475-2.469c1.362,0,2.47,1.102,2.47,2.469
		S93.707,114.404,92.345,114.404z M95.321,104.78c-1.366,0-2.475-1.103-2.475-2.47s1.108-2.469,2.475-2.469
		c1.361,0,2.47,1.102,2.47,2.469S96.683,104.78,95.321,104.78z M96.143,59.912c-1.366,0-2.469-1.107-2.469-2.475
		c0-1.361,1.103-2.47,2.469-2.47c1.367,0,2.47,1.108,2.47,2.47C98.612,58.805,97.51,59.912,96.143,59.912z M98.612,45.917
		c-1.367,0-2.475-1.108-2.475-2.475c0-1.361,1.107-2.469,2.475-2.469c1.361,0,2.47,1.108,2.47,2.469
		C101.082,44.81,99.974,45.917,98.612,45.917z M104.847,107.453c-1.367,0-2.476-1.107-2.476-2.475c0-1.361,1.108-2.469,2.476-2.469
		c1.361,0,2.469,1.107,2.469,2.469C107.315,106.346,106.208,107.453,104.847,107.453z M106.021,97.785
		c-1.367,0-2.475-1.107-2.475-2.475c0-1.361,1.107-2.47,2.475-2.47c1.361,0,2.47,1.108,2.47,2.47
		C108.49,96.678,107.382,97.785,106.021,97.785z M106.434,71.02c0-1.362,1.103-2.47,2.47-2.47s2.47,1.107,2.47,2.47
		c0,1.366-1.103,2.475-2.47,2.475S106.434,72.386,106.434,71.02z M111.786,83.377c-1.367,0-2.475-1.107-2.475-2.475
		c0-1.361,1.107-2.47,2.475-2.47c1.361,0,2.47,1.108,2.47,2.47C114.256,82.27,113.147,83.377,111.786,83.377z M117.959,93.255
		c-1.366,0-2.475-1.103-2.475-2.47s1.108-2.47,2.475-2.47c1.362,0,2.47,1.103,2.47,2.47S119.321,93.255,117.959,93.255z
		 M121.663,72.673c-1.366,0-2.475-1.103-2.475-2.47s1.108-2.469,2.475-2.469c1.362,0,2.47,1.102,2.47,2.469
		S123.025,72.673,121.663,72.673z"/>
</g>
</svg>
