<?xml version="1.0" encoding="utf-8"?>
<!-- Generator: Adobe Illustrator 16.0.0, SVG Export Plug-In . SVG Version: 6.00 Build 0)  -->
<!DOCTYPE svg PUBLIC "-//W3C//DTD SVG 1.1//EN" "http://www.w3.org/Graphics/SVG/1.1/DTD/svg11.dtd">
<svg version="1.1" id="Layer_1" xmlns="http://www.w3.org/2000/svg" xmlns:xlink="http://www.w3.org/1999/xlink" x="0px" y="0px"
	 width="130px" height="130px" viewBox="0 0 130 130" enable-background="new 0 0 130 130" xml:space="preserve">
<rect fill="none" width="130" height="130"/>
<g>
	<path fill="#4D4D4D" d="M65.976,65.461c-0.615,0-1.222-0.105-1.806-0.313c-1.349-0.479-2.428-1.46-3.043-2.755
		c-0.612-1.294-0.685-2.75-0.202-4.096L77.594,11.63c0.755-2.125,2.781-3.554,5.04-3.554c0.229,0,0.454,0.028,0.68,0.06
		c-0.08-0.034-0.15-0.083-0.233-0.111c-3.05-1.084-6.417,0.498-7.502,3.554L58.909,58.24c-1.09,3.056,0.503,6.413,3.559,7.507
		c0.649,0.228,1.313,0.337,1.972,0.337c1.046,0,2.039-0.327,2.927-0.841C66.914,65.365,66.455,65.461,65.976,65.461z"/>
	<g>
		<polygon fill="#4D4D4D" points="76.126,47.609 116.554,47.609 125.384,54.006 73.841,54.006 73.42,55.184 128.315,55.184 
			128.211,54.608 116.933,46.432 76.546,46.432 		"/>
		<polygon fill="#4D4D4D" points="62.458,54.006 4.616,54.006 13.451,47.609 64.743,47.609 65.163,46.432 13.067,46.432 
			1.57,54.764 2.173,55.184 62.037,55.184 		"/>
	</g>
	<path fill="#4D4D4D" d="M119.677,62.893H70.481c-0.963,1.551-2.631,2.568-4.506,2.568c-0.615,0-1.222-0.105-1.806-0.313
		c-1.162-0.415-2.106-1.217-2.742-2.254H11.329c-1.836,0-3.087,1.473-2.78,3.285l8.296,52.855c0.301,1.811,2.044,3.284,3.875,3.284
		h89.567c1.826,0,3.569-1.474,3.87-3.284l8.301-52.855C122.754,64.366,121.503,62.893,119.677,62.893z M20.294,90.053l-2.215-14.096
		c-0.197-1.281,0.675-2.48,1.956-2.683c1.276-0.202,2.485,0.675,2.682,1.951l2.216,14.101c0.197,1.276-0.675,2.48-1.956,2.683
		c-0.124,0.021-0.249,0.031-0.368,0.031C21.472,92.04,20.471,91.21,20.294,90.053z M26.977,115.801
		c-0.124,0.016-0.249,0.026-0.368,0.026c-1.137,0-2.133-0.825-2.314-1.987l-2.007-12.778c-0.203-1.286,0.674-2.484,1.955-2.688
		c1.282-0.196,2.48,0.675,2.683,1.956l2.008,12.783C29.135,114.396,28.258,115.599,26.977,115.801z M29.819,89.975l-1.722-14.101
		c-0.156-1.287,0.757-2.454,2.049-2.615c1.271-0.146,2.454,0.763,2.609,2.05l1.723,14.096c0.161,1.292-0.758,2.454-2.044,2.62
		c-0.099,0.005-0.192,0.016-0.285,0.016C30.977,92.04,29.97,91.163,29.819,89.975z M35.547,115.812
		c-0.098,0.011-0.191,0.016-0.29,0.016c-1.167,0-2.185-0.872-2.324-2.064l-1.562-12.784c-0.161-1.286,0.757-2.459,2.044-2.614
		c1.276-0.15,2.459,0.757,2.615,2.044l1.562,12.788C37.747,114.483,36.834,115.656,35.547,115.812z M39.351,89.897l-1.229-14.102
		c-0.109-1.292,0.845-2.434,2.132-2.542c1.328-0.13,2.434,0.846,2.542,2.132l1.229,14.102c0.114,1.292-0.84,2.428-2.132,2.542
		c-0.067,0.005-0.135,0.011-0.202,0.011C40.481,92.04,39.459,91.116,39.351,89.897z M44.118,115.816
		c-0.073,0.006-0.141,0.011-0.208,0.011c-1.203,0-2.23-0.924-2.334-2.143l-1.116-12.789c-0.113-1.291,0.841-2.428,2.133-2.542
		c1.317-0.124,2.428,0.846,2.542,2.138l1.115,12.783C46.364,114.566,45.404,115.702,44.118,115.816z M48.149,75.713
		c-0.073-1.292,0.923-2.402,2.22-2.464c1.267-0.067,2.397,0.923,2.465,2.226l0.736,14.091c0.073,1.297-0.923,2.401-2.22,2.469
		c-0.042,0.006-0.083,0.006-0.125,0.006c-1.24,0-2.277-0.976-2.345-2.226L48.149,75.713z M52.684,115.822
		c-0.036,0.005-0.083,0.005-0.125,0.005c-1.239,0-2.271-0.97-2.34-2.226l-0.669-12.783c-0.067-1.292,0.924-2.402,2.221-2.47
		c1.286-0.067,2.396,0.929,2.464,2.226l0.67,12.783C54.977,114.649,53.98,115.755,52.684,115.822z M58.173,75.635
		c-0.021-1.297,1.012-2.365,2.303-2.392c1.298-0.041,2.371,1.012,2.393,2.309l0.249,14.097c0.021,1.297-1.012,2.365-2.31,2.392
		c-0.015,0-0.03,0-0.041,0c-1.276,0-2.324-1.027-2.345-2.309L58.173,75.635z M61.254,115.827c-0.016,0-0.031,0-0.047,0
		c-1.275,0-2.318-1.027-2.339-2.309l-0.229-12.783c-0.021-1.297,1.012-2.366,2.309-2.387c0.011,0,0.031,0,0.041,0
		c1.276,0,2.324,1.021,2.346,2.309l0.228,12.783C63.584,114.732,62.546,115.801,61.254,115.827z M72.211,113.519
		c-0.025,1.281-1.068,2.309-2.345,2.309c-0.016,0-0.031,0-0.047,0c-1.297-0.026-2.324-1.095-2.303-2.387l0.223-12.783
		c0.021-1.287,1.068-2.309,2.345-2.309c0.016,0,0.026,0,0.042,0c1.297,0.021,2.329,1.09,2.304,2.387L72.211,113.519z M72.652,89.731
		c-0.021,1.281-1.068,2.309-2.345,2.309c-0.011,0-0.031,0-0.047,0c-1.292-0.026-2.329-1.095-2.304-2.392l0.249-14.097
		c0.021-1.297,1.079-2.365,2.387-2.309c1.297,0.026,2.329,1.095,2.309,2.392L72.652,89.731z M80.86,113.602
		c-0.073,1.256-1.105,2.226-2.346,2.226c-0.041,0-0.083,0-0.124-0.005c-1.297-0.067-2.288-1.173-2.221-2.465l0.664-12.783
		c0.072-1.297,1.146-2.288,2.47-2.226c1.292,0.067,2.288,1.178,2.221,2.47L80.86,113.602z M82.188,89.814
		c-0.067,1.25-1.101,2.226-2.34,2.226c-0.042,0-0.083,0-0.125-0.006c-1.292-0.067-2.288-1.172-2.221-2.469l0.737-14.091
		c0.062-1.303,1.131-2.293,2.464-2.226c1.297,0.062,2.288,1.172,2.221,2.464L82.188,89.814z M89.498,113.685
		c-0.104,1.219-1.126,2.143-2.335,2.143c-0.062,0-0.135-0.005-0.207-0.011c-1.292-0.114-2.247-1.25-2.133-2.542l1.11-12.783
		c0.119-1.292,1.225-2.262,2.542-2.138c1.298,0.114,2.252,1.251,2.138,2.542L89.498,113.685z M91.724,89.897
		c-0.108,1.219-1.131,2.143-2.335,2.143c-0.072,0-0.135-0.006-0.207-0.011c-1.297-0.114-2.252-1.25-2.138-2.542l1.229-14.102
		c0.114-1.286,1.235-2.262,2.542-2.132c1.292,0.108,2.247,1.25,2.138,2.542L91.724,89.897z M98.142,113.763
		c-0.146,1.192-1.157,2.064-2.324,2.064c-0.099,0-0.197-0.005-0.291-0.016c-1.286-0.155-2.199-1.328-2.044-2.615l1.562-12.788
		c0.156-1.287,1.339-2.194,2.615-2.044c1.286,0.155,2.199,1.328,2.044,2.614L98.142,113.763z M98.925,92.04
		c-0.099,0-0.192-0.011-0.291-0.016c-1.281-0.156-2.199-1.328-2.044-2.615l1.723-14.101c0.155-1.287,1.328-2.195,2.615-2.05
		c1.286,0.161,2.204,1.334,2.044,2.615l-1.718,14.101C101.109,91.163,100.098,92.04,98.925,92.04z M106.785,113.84
		c-0.188,1.162-1.184,1.987-2.319,1.987c-0.119,0-0.244-0.011-0.368-0.026c-1.282-0.202-2.158-1.405-1.951-2.688l2.003-12.783
		c0.197-1.281,1.405-2.158,2.682-1.956c1.282,0.203,2.158,1.401,1.956,2.688L106.785,113.84z M110.779,90.053
		c-0.176,1.157-1.178,1.987-2.313,1.987c-0.125,0-0.244-0.011-0.368-0.031c-1.282-0.202-2.158-1.406-1.956-2.683l2.21-14.101
		c0.202-1.276,1.411-2.148,2.688-1.951c1.281,0.202,2.153,1.401,1.95,2.683L110.779,90.053z"/>
	<path fill="#4D4D4D" d="M127.34,54.364H73.713l-2.692,7.538c-0.76,2.13-2.786,3.559-5.045,3.559c-0.615,0-1.222-0.105-1.806-0.313
		c-1.349-0.479-2.428-1.46-3.043-2.755c-0.612-1.294-0.685-2.75-0.202-4.096l1.403-3.933H2.665C1.747,54.364,1,55.111,1,56.029
		v9.624c0,0.913,0.747,1.66,1.665,1.66H127.34c0.913,0,1.66-0.747,1.66-1.66v-9.624C129,55.111,128.253,54.364,127.34,54.364z"/>
	<path fill="#4D4D4D" d="M65.976,64.797c-0.529,0-1.059-0.088-1.583-0.274c-2.443-0.872-3.714-3.564-2.843-6.003l16.669-46.667
		c0.867-2.438,3.549-3.709,5.998-2.838c2.443,0.872,3.715,3.554,2.843,6.002L70.396,61.679C69.711,63.599,67.9,64.797,65.976,64.797
		z"/>
</g>
</svg>
