<?xml version="1.0" encoding="utf-8"?>
<!-- Generator: Adobe Illustrator 16.0.0, SVG Export Plug-In . SVG Version: 6.00 Build 0)  -->
<!DOCTYPE svg PUBLIC "-//W3C//DTD SVG 1.1//EN" "http://www.w3.org/Graphics/SVG/1.1/DTD/svg11.dtd">
<svg version="1.1" id="Layer_1" xmlns="http://www.w3.org/2000/svg" xmlns:xlink="http://www.w3.org/1999/xlink" x="0px" y="0px"
	 width="130px" height="130px" viewBox="0 0 130 130" enable-background="new 0 0 130 130" xml:space="preserve">
<rect fill="none" width="130" height="130"/>
<g>
	<g>
		<path fill="#4D4D4D" d="M65.976,65.348c-0.615,0-1.222-0.106-1.806-0.314c-1.349-0.479-2.428-1.46-3.043-2.755
			c-0.612-1.294-0.685-2.75-0.202-4.096l16.669-46.667c0.755-2.125,2.781-3.554,5.04-3.554c0.229,0,0.454,0.029,0.68,0.06
			c-0.08-0.034-0.15-0.083-0.233-0.111c-3.05-1.084-6.417,0.498-7.502,3.554L58.909,58.125c-1.09,3.056,0.503,6.413,3.559,7.507
			c0.649,0.228,1.313,0.337,1.972,0.337c1.046,0,2.039-0.327,2.927-0.841C66.914,65.251,66.455,65.348,65.976,65.348z"/>
		<g>
			<polygon fill="#4D4D4D" points="76.126,47.495 116.554,47.495 125.384,53.892 73.841,53.892 73.42,55.07 128.315,55.07 
				128.211,54.494 116.933,46.317 76.546,46.317 			"/>
			<polygon fill="#4D4D4D" points="62.458,53.892 4.616,53.892 13.451,47.495 64.743,47.495 65.163,46.317 13.067,46.317 
				1.57,54.649 2.173,55.07 62.038,55.07 			"/>
		</g>
		<path fill="#4D4D4D" d="M127.34,54.25H73.713l-2.692,7.538c-0.76,2.13-2.786,3.56-5.045,3.56c-0.615,0-1.222-0.106-1.806-0.314
			c-1.349-0.479-2.428-1.46-3.043-2.755c-0.612-1.294-0.685-2.75-0.202-4.096l1.403-3.933H2.665C1.747,54.25,1,54.997,1,55.916
			v9.624c0,0.913,0.747,1.66,1.665,1.66H127.34c0.913,0,1.66-0.747,1.66-1.66v-9.624C129,54.997,128.253,54.25,127.34,54.25z"/>
		<path fill="#4D4D4D" d="M65.976,64.684c-0.529,0-1.059-0.089-1.583-0.275c-2.443-0.872-3.714-3.564-2.843-6.002l16.669-46.667
			c0.867-2.438,3.549-3.709,5.998-2.838c2.443,0.872,3.715,3.554,2.843,6.003L70.396,61.565
			C69.711,63.485,67.9,64.684,65.976,64.684z"/>
	</g>
	<g>
		<path fill="#4D4D4D" d="M88.398,115.316c-0.366,0.23-0.776,0.396-1.235,0.396c-0.062,0-0.135-0.005-0.207-0.011
			c-1.292-0.113-2.246-1.25-2.133-2.542l1.11-12.783c0.119-1.292,1.225-2.262,2.542-2.138c0.354,0.031,0.67,0.148,0.958,0.312
			c1.776-3.183,4.417-5.815,7.605-7.59c-0.34-0.465-0.524-1.048-0.449-1.666l1.723-14.101c0.155-1.287,1.328-2.194,2.615-2.05
			c1.286,0.161,2.204,1.334,2.044,2.615l-1.64,13.458c1.572-0.434,3.217-0.683,4.918-0.708l2.102-13.398
			c0.202-1.276,1.411-2.148,2.688-1.951c1.281,0.202,2.153,1.401,1.95,2.683l-2.064,13.17c2.724,0.628,5.225,1.826,7.385,3.46
			l4.148-26.409c0.296-1.811-0.955-3.284-2.781-3.284H70.481c-0.963,1.551-2.631,2.568-4.506,2.568
			c-0.615,0-1.222-0.106-1.806-0.314c-1.162-0.415-2.106-1.216-2.742-2.254H11.329c-1.836,0-3.087,1.474-2.78,3.284l8.296,52.855
			c0.301,1.811,2.044,3.284,3.875,3.284h72.41C91.091,120.286,89.464,117.946,88.398,115.316z M88.273,75.272
			c0.114-1.287,1.235-2.263,2.542-2.133c1.292,0.109,2.247,1.25,2.138,2.542l-1.229,14.102c-0.108,1.219-1.131,2.143-2.335,2.143
			c-0.072,0-0.135-0.005-0.207-0.011c-1.297-0.114-2.252-1.25-2.138-2.542L88.273,75.272z M20.294,89.938l-2.215-14.096
			c-0.197-1.281,0.675-2.48,1.956-2.683c1.276-0.202,2.485,0.675,2.682,1.951l2.216,14.101c0.197,1.276-0.675,2.48-1.956,2.683
			c-0.124,0.021-0.249,0.031-0.368,0.031C21.472,91.926,20.471,91.096,20.294,89.938z M26.977,115.688
			c-0.124,0.015-0.249,0.025-0.368,0.025c-1.137,0-2.133-0.825-2.314-1.987l-2.008-12.778c-0.202-1.286,0.675-2.484,1.956-2.687
			c1.282-0.197,2.48,0.674,2.683,1.955L28.933,113C29.135,114.281,28.258,115.484,26.977,115.688z M29.819,89.86L28.098,75.76
			c-0.156-1.287,0.757-2.454,2.049-2.615c1.271-0.145,2.454,0.763,2.609,2.05l1.723,14.096c0.161,1.292-0.758,2.454-2.044,2.62
			c-0.099,0.005-0.192,0.016-0.285,0.016C30.977,91.926,29.97,91.049,29.819,89.86z M35.547,115.697
			c-0.098,0.011-0.191,0.016-0.29,0.016c-1.167,0-2.185-0.871-2.324-2.064l-1.562-12.784c-0.161-1.286,0.757-2.459,2.044-2.614
			c1.276-0.15,2.459,0.758,2.615,2.044l1.562,12.789C37.747,114.369,36.834,115.542,35.547,115.697z M39.351,89.783l-1.23-14.102
			c-0.108-1.292,0.846-2.433,2.133-2.542c1.328-0.13,2.434,0.846,2.542,2.133l1.229,14.101c0.114,1.292-0.84,2.428-2.132,2.542
			c-0.067,0.006-0.135,0.011-0.202,0.011C40.481,91.926,39.459,91.002,39.351,89.783z M44.118,115.702
			c-0.073,0.006-0.141,0.011-0.208,0.011c-1.203,0-2.23-0.924-2.334-2.143l-1.116-12.789c-0.113-1.291,0.841-2.428,2.133-2.542
			c1.317-0.124,2.428,0.846,2.542,2.138l1.115,12.783C46.364,114.452,45.404,115.589,44.118,115.702z M48.149,75.599
			c-0.073-1.292,0.923-2.402,2.221-2.464c1.266-0.067,2.396,0.923,2.464,2.226l0.736,14.091c0.073,1.297-0.923,2.402-2.22,2.47
			c-0.042,0.005-0.083,0.005-0.125,0.005c-1.24,0-2.277-0.976-2.345-2.226L48.149,75.599z M52.684,115.708
			c-0.036,0.005-0.083,0.005-0.125,0.005c-1.239,0-2.272-0.97-2.34-2.226l-0.669-12.783c-0.067-1.292,0.924-2.402,2.221-2.47
			c1.286-0.067,2.396,0.929,2.464,2.226l0.67,12.783C54.977,114.535,53.98,115.641,52.684,115.708z M58.173,75.521
			c-0.021-1.298,1.012-2.366,2.303-2.393c1.298-0.041,2.371,1.012,2.393,2.31l0.249,14.096c0.021,1.297-1.012,2.365-2.31,2.392
			c-0.016,0-0.03,0-0.041,0c-1.276,0-2.324-1.027-2.345-2.309L58.173,75.521z M61.254,115.713c-0.016,0-0.031,0-0.046,0
			c-1.276,0-2.319-1.027-2.34-2.309l-0.229-12.783c-0.021-1.297,1.012-2.366,2.309-2.387c0.01,0,0.031,0,0.041,0
			c1.276,0,2.324,1.022,2.346,2.309l0.228,12.783C63.584,114.618,62.546,115.688,61.254,115.713z M72.211,113.404
			c-0.025,1.281-1.068,2.309-2.345,2.309c-0.016,0-0.031,0-0.047,0c-1.297-0.025-2.324-1.095-2.303-2.387l0.223-12.783
			c0.021-1.286,1.068-2.309,2.345-2.309c0.016,0,0.026,0,0.042,0c1.297,0.021,2.329,1.09,2.304,2.387L72.211,113.404z
			 M72.652,89.617c-0.021,1.281-1.068,2.309-2.345,2.309c-0.011,0-0.031,0-0.047,0c-1.292-0.026-2.329-1.095-2.304-2.392
			l0.249-14.096c0.021-1.298,1.079-2.366,2.387-2.31c1.297,0.026,2.329,1.095,2.309,2.393L72.652,89.617z M80.86,113.487
			c-0.073,1.256-1.105,2.226-2.346,2.226c-0.041,0-0.083,0-0.124-0.005c-1.297-0.067-2.288-1.173-2.221-2.465l0.664-12.783
			c0.072-1.297,1.146-2.288,2.47-2.226c1.292,0.067,2.288,1.178,2.221,2.47L80.86,113.487z M82.188,89.7
			c-0.068,1.25-1.101,2.226-2.34,2.226c-0.042,0-0.083,0-0.125-0.005c-1.292-0.067-2.288-1.173-2.221-2.47L78.24,75.36
			c0.062-1.303,1.131-2.293,2.464-2.226c1.297,0.062,2.288,1.172,2.221,2.464L82.188,89.7z"/>
		<path fill="#4D4D4D" d="M106.53,93.606c-7.964,0-14.443,6.465-14.443,14.413c0,7.942,6.479,14.412,14.443,14.412
			c7.959,0,14.434-6.47,14.434-14.412C120.964,100.071,114.489,93.606,106.53,93.606z M112.007,109.01h-4.504v4.504
			c0,0.57-0.555,1.115-1.125,1.115c-0.571,0-1.126-0.545-1.126-1.115v-4.504h-4.498c-0.571,0-1.126-0.555-1.126-1.126
			c0-0.57,0.555-1.125,1.126-1.125h4.498v-4.498c0-0.576,0.555-1.126,1.126-1.126c0.57,0,1.125,0.55,1.125,1.126v4.498h4.504
			c0.57,0,1.12,0.555,1.12,1.125C113.127,108.455,112.577,109.01,112.007,109.01z"/>
	</g>
</g>
</svg>
