<?xml version="1.0" encoding="utf-8"?>
<!-- Generator: Adobe Illustrator 16.0.0, SVG Export Plug-In . SVG Version: 6.00 Build 0)  -->
<!DOCTYPE svg PUBLIC "-//W3C//DTD SVG 1.1//EN" "http://www.w3.org/Graphics/SVG/1.1/DTD/svg11.dtd">
<svg version="1.1" id="Layer_1" xmlns="http://www.w3.org/2000/svg" xmlns:xlink="http://www.w3.org/1999/xlink" x="0px" y="0px"
	 width="130px" height="130px" viewBox="0 0 130 130" enable-background="new 0 0 130 130" xml:space="preserve">
<rect fill="none" width="130" height="130"/>
<g>
	<path fill="#4D4D4D" d="M122.793,44.016h-7.552v-5.446c0-6.771-5.572-12.306-12.392-12.306H13.408C6.59,26.264,1,31.799,1,38.569
		v52.861c0,6.777,5.59,12.306,12.408,12.306h89.441c6.819,0,12.392-5.528,12.392-12.306v-5.443h7.552
		c3.401,0,6.207-2.768,6.207-6.152V50.167C129,46.791,126.194,44.016,122.793,44.016z M101.565,88.082
		c0,3.42-2.778,6.229-6.168,6.229H17.669c-3.379,0-6.146-2.809-6.146-6.229V41.928c0-3.426,2.768-6.231,6.146-6.231h77.729
		c3.39,0,6.168,2.806,6.168,6.231V88.082z"/>
	<path fill="#4D4D4D" d="M56.276,46.188H45.716c-2.046,0-3.71,1.656-3.71,3.694v30.236c0,2.034,1.664,3.698,3.71,3.698h10.561
		c2.051,0,3.727-1.664,3.727-3.698V49.883C60.003,47.845,58.327,46.188,56.276,46.188z"/>
	<path fill="#4D4D4D" d="M78.216,46.188H67.654c-2.045,0-3.71,1.656-3.71,3.694v30.236c0,2.034,1.665,3.698,3.71,3.698h10.562
		c2.051,0,3.727-1.664,3.727-3.698V49.883C81.942,47.845,80.267,46.188,78.216,46.188z"/>
	<path fill="#4D4D4D" d="M34.338,46.188H23.771c-2.046,0-3.705,1.656-3.705,3.694v30.236c0,2.034,1.659,3.698,3.705,3.698h10.566
		c2.051,0,3.727-1.664,3.727-3.698V49.883C38.064,47.845,36.389,46.188,34.338,46.188z"/>
</g>
</svg>
