<?xml version="1.0" encoding="utf-8"?>
<!-- Generator: Adobe Illustrator 16.0.0, SVG Export Plug-In . SVG Version: 6.00 Build 0)  -->
<!DOCTYPE svg PUBLIC "-//W3C//DTD SVG 1.1//EN" "http://www.w3.org/Graphics/SVG/1.1/DTD/svg11.dtd">
<svg version="1.1" id="Layer_1" xmlns="http://www.w3.org/2000/svg" xmlns:xlink="http://www.w3.org/1999/xlink" x="0px" y="0px"
	 width="130px" height="130px" viewBox="0 0 130 130" enable-background="new 0 0 130 130" xml:space="preserve">
<rect fill="none" width="130" height="130"/>
<g>
	<g>
		<path fill="#4D4D4D" d="M63.52,87.707c-4.403,0-7.983-3.582-7.983-7.984s3.58-7.984,7.983-7.984c4.403,0,7.985,3.582,7.985,7.984
			S67.923,87.707,63.52,87.707z M63.52,74.033c-3.136,0-5.688,2.552-5.688,5.689s2.553,5.69,5.688,5.69
			c3.137,0,5.69-2.553,5.69-5.69S66.657,74.033,63.52,74.033z"/>
	</g>
	<g>
		<path fill="#4D4D4D" d="M63.398,80.914c-0.11,0.026-0.228,0.022-0.346-0.01c-0.36-0.104-0.567-0.482-0.463-0.843l3.229-11.096
			c0.104-0.363,0.483-0.566,0.843-0.464c0.361,0.104,0.568,0.484,0.464,0.844L63.896,80.44
			C63.824,80.686,63.629,80.858,63.398,80.914z"/>
	</g>
	<path fill="#4D4D4D" d="M70.722,69.587c0.132,0.271-0.005,0.467-0.308,0.438l-7.624-0.77c-0.301-0.032-0.396-0.25-0.213-0.493
		l0.448-0.581c0.187-0.239,0.583-0.411,0.885-0.378l5.697,0.575c0.302,0.028,0.657,0.275,0.792,0.549L70.722,69.587z"/>
	<path fill="#4D4D4D" d="M128.947,71.279c-2.32-8.44-10.721-14.334-20.43-14.334c-3.688,0-7.186,0.854-10.233,2.374l-4.946-9.071
		l1.939-1.001l2.881,5.425c0.166,0.418,0.492,0.752,0.906,0.923c0.203,0.087,0.418,0.129,0.637,0.129
		c0.222,0,0.446-0.046,0.655-0.137c0,0,2.039-0.881,4.079-1.777c1.189-0.524,2.139-0.95,2.822-1.262
		c1.563-0.714,2.148-0.979,2.239-1.986c0.014-0.163,0.004-0.326-0.028-0.482c-0.038-0.722,0.006-4.147,0.074-7.198
		c0.01-0.444-0.16-0.873-0.472-1.192c-0.311-0.319-0.738-0.498-1.183-0.498H93.737c-0.549,0-1.06,0.27-1.367,0.722
		c-0.31,0.452-0.375,1.029-0.173,1.539l2.349,4.419l-1.954,1.007l-1.701-3.122c-3.451-6.328-1.67-10.39-1.586-10.571
		c0.085-0.181,0.125-0.369,0.129-0.555c0.151-0.277,0.26-0.579,0.26-0.917c0-1.075-0.869-1.945-1.944-1.945H77.053
		c-1.075,0-1.945,0.87-1.945,1.945c0,1.074,0.87,1.944,1.945,1.944h9.217c-0.44,2.062-0.633,5.906,1.869,10.826
		c-18.427-5.267-41.974,0.171-44.239,0.716l-3.661-6.611h6.767c1.61,0,2.917-1.307,2.917-2.917c0-1.611-1.307-2.918-2.917-2.918
		H29.016c-1.61,0-2.918,1.307-2.918,2.918c0,1.61,1.308,2.917,2.918,2.917h8.037l4.812,8.688l-8.129,11.201
		c-3.479-2.231-7.719-3.53-12.254-3.53c-9.706,0-18.106,5.894-20.429,14.332C0.836,72.065,1.3,72.88,2.086,73.097
		c0.359,0.099,0.708,0.042,1.014-0.099c-0.604,1.865-0.936,3.852-0.936,5.916c0,10.652,8.666,19.319,19.317,19.319
		c9.989,0,18.232-7.622,19.22-17.357H56.8c-0.064-0.376-0.116-0.758-0.116-1.153c0-0.565,0.088-1.105,0.217-1.631H40.759
		c-0.076-1.771-0.373-3.481-0.895-5.098c0.193,0.091,0.4,0.155,0.621,0.155c0.129,0,0.26-0.017,0.393-0.053
		c0.786-0.217,1.25-1.031,1.033-1.819c-0.991-3.604-3.098-6.735-5.933-9.149l7.374-10.163l13.884,25.067
		c0.41-0.958,1.049-1.782,1.825-2.456L45.306,49.735c4.772-1.056,27.797-5.629,44.346,0.135c0.109,0.04,0.222,0.036,0.334,0.048
		l1.905,3.496L67.415,74.11c0.773,0.538,1.415,1.234,1.909,2.036l23.929-20.234l2.625,4.814c-3.774,2.537-6.593,6.201-7.789,10.551
		c-0.217,0.788,0.247,1.603,1.033,1.819c0.133,0.036,0.264,0.053,0.394,0.053c0.248,0,0.48-0.079,0.692-0.193
		c-0.611,1.878-0.951,3.878-0.951,5.958c0,10.652,8.666,19.319,19.317,19.319c10.653,0,19.319-8.667,19.319-19.319
		c0-2.057-0.331-4.038-0.929-5.899c0.294,0.122,0.619,0.173,0.947,0.082C128.7,72.88,129.164,72.065,128.947,71.279z M21.482,94.344
		c-8.507,0-15.428-6.921-15.428-15.43s6.921-15.43,15.428-15.43c3.056,0,5.898,0.904,8.298,2.442l-6.551,9.027
		c-0.536-0.237-1.126-0.374-1.749-0.374c-2.396,0-4.334,1.94-4.334,4.334c0,2.393,1.938,4.334,4.334,4.334
		c1.685,0,3.128-0.971,3.846-2.372h11.446C35.804,88.46,29.324,94.344,21.482,94.344z M36.87,78.092H25.732
		c-0.083-0.438-0.247-0.842-0.45-1.222l6.699-9.232C34.816,70.282,36.651,73.97,36.87,78.092z M108.574,94.344
		c-8.507,0-15.428-6.921-15.428-15.43c0-4.957,2.359-9.363,6.002-12.188l8.905,16.341c0.253,0.464,0.731,0.728,1.225,0.728
		c0.225-0.002,0.454-0.055,0.665-0.171c0.677-0.368,0.925-1.214,0.557-1.89l-9.003-16.516c2.124-1.102,4.526-1.734,7.077-1.734
		c8.509,0,15.43,6.921,15.43,15.43S117.083,94.344,108.574,94.344z"/>
</g>
</svg>
