<?xml version="1.0" encoding="utf-8"?>
<!-- Generator: Adobe Illustrator 16.0.0, SVG Export Plug-In . SVG Version: 6.00 Build 0)  -->
<!DOCTYPE svg PUBLIC "-//W3C//DTD SVG 1.1//EN" "http://www.w3.org/Graphics/SVG/1.1/DTD/svg11.dtd">
<svg version="1.1" id="Layer_1" xmlns="http://www.w3.org/2000/svg" xmlns:xlink="http://www.w3.org/1999/xlink" x="0px" y="0px"
	 width="130px" height="130px" viewBox="0 0 130 130" enable-background="new 0 0 130 130" xml:space="preserve">
<rect fill="none" width="130" height="130"/>
<path fill="#4D4D4D" d="M70.593,65l23.574-23.56c0.696-0.701,1.094-1.652,1.094-2.646c0-0.992-0.397-1.946-1.094-2.645l-24.906-24.9
	V4.742C69.261,2.675,67.588,1,65.521,1c-2.069,0-3.742,1.674-3.742,3.741v52.324L41.124,36.418c-1.458-1.462-3.824-1.462-5.289,0
	c-1.461,1.462-1.461,3.832,0,5.292l23.31,23.303l-23.31,23.277c-1.461,1.461-1.461,3.828,0,5.291
	c0.724,0.736,1.682,1.098,2.644,1.098c0.958,0,1.91-0.361,2.646-1.094l20.655-20.623v52.299c0,2.064,1.673,3.74,3.742,3.74
	c2.066,0,3.739-1.676,3.739-3.74v-6.508l24.906-24.895c0.696-0.699,1.094-1.652,1.094-2.646c0-0.99-0.397-1.939-1.094-2.646
	L70.593,65z M69.261,21.831l16.966,16.964L69.261,55.754V21.831z M69.261,108.17V74.248l16.966,16.963L69.261,108.17z"/>
</svg>
