<?xml version="1.0" encoding="utf-8"?>
<!-- Generator: Adobe Illustrator 16.0.0, SVG Export Plug-In . SVG Version: 6.00 Build 0)  -->
<!DOCTYPE svg PUBLIC "-//W3C//DTD SVG 1.1//EN" "http://www.w3.org/Graphics/SVG/1.1/DTD/svg11.dtd">
<svg version="1.1" id="Layer_1" xmlns="http://www.w3.org/2000/svg" xmlns:xlink="http://www.w3.org/1999/xlink" x="0px" y="0px"
	 width="130px" height="130px" viewBox="0 0 130 130" enable-background="new 0 0 130 130" xml:space="preserve">
<rect fill="none" width="130" height="130"/>
<g>
	<path fill="#4D4D4D" d="M113.189,67.05H16.821c-0.919,0-1.667,0.742-1.667,1.662v58.626c0,0.919,0.748,1.662,1.667,1.662h96.368
		c0.924,0,1.662-0.743,1.662-1.662V68.712C114.852,67.792,114.113,67.05,113.189,67.05z"/>
	<path fill="#4D4D4D" d="M121.505,39.671H8.501c-0.931,0-1.673,0.743-1.673,1.662v22.205c0,0.92,0.742,1.657,1.673,1.657h113.004
		c0.919,0,1.667-0.737,1.667-1.657V41.333C123.172,40.414,122.424,39.671,121.505,39.671z"/>
	<g>
		<path fill="#4D4D4D" d="M88.236,7.825c-1.587-1.016-3.232-1.529-4.873-1.529c-8.781,0-14.146,14.756-16.798,24.835
			C61.916,19.849,52.489,1,41.442,1c-2.153,0-4.238,0.695-6.193,2.052c-4.735,3.297-6.408,8.081-4.725,13.478
			c2.849,9.091,15.21,18.94,26.021,23.381h14.59c0.348-0.257,0.722-0.524,1.112-0.818c10.111-7.444,20.874-16.054,20.602-23.996
			C92.774,13.073,91.919,10.166,88.236,7.825z M35.302,15.029c-1.031-3.308-0.149-5.804,2.801-7.851
			c1.122-0.785,2.212-1.16,3.34-1.16c7.766,0,17.054,17.668,22.045,30.927C53.553,34.824,38.146,24.103,35.302,15.029z
			 M71.093,33.717c2.741-10.667,7.535-22.403,12.271-22.403c0.688,0,1.405,0.24,2.19,0.743c1.988,1.267,2.256,2.442,2.287,3.217
			C88.028,20.656,77.303,29.089,71.093,33.717z"/>
	</g>
	<g>
		<rect x="54.616" y="39.698" fill="#FFFFFF" width="18.694" height="89.302"/>
	</g>
</g>
</svg>
