<?xml version="1.0" encoding="utf-8"?>
<!-- Generator: Adobe Illustrator 16.0.0, SVG Export Plug-In . SVG Version: 6.00 Build 0)  -->
<!DOCTYPE svg PUBLIC "-//W3C//DTD SVG 1.1//EN" "http://www.w3.org/Graphics/SVG/1.1/DTD/svg11.dtd">
<svg version="1.1" id="Layer_1" xmlns="http://www.w3.org/2000/svg" xmlns:xlink="http://www.w3.org/1999/xlink" x="0px" y="0px"
	 width="130px" height="130px" viewBox="0 0 130 130" enable-background="new 0 0 130 130" xml:space="preserve">
<rect fill="none" width="130" height="130"/>
<g>
	<path fill="#4D4D4D" d="M8.662,45.208v72.238h112.671V45.208H8.662z M79.354,65.428h-28.71c-1.657,0-2.996-1.34-2.996-2.988
		c0-1.654,1.339-2.999,2.996-2.999h28.71c1.654,0,2.996,1.345,2.996,2.999C82.35,64.088,81.008,65.428,79.354,65.428z"/>
	<path fill="#4D4D4D" d="M4.199,12.554C2.438,12.554,1,13.992,1,15.756V38.66c0,1.758,1.438,3.197,3.199,3.197h121.602
		c1.761,0,3.199-1.438,3.199-3.197V15.756c0-1.764-1.438-3.203-3.199-3.203H4.199z"/>
</g>
</svg>
