<?xml version="1.0" encoding="utf-8"?>
<!-- Generator: Adobe Illustrator 16.0.0, SVG Export Plug-In . SVG Version: 6.00 Build 0)  -->
<!DOCTYPE svg PUBLIC "-//W3C//DTD SVG 1.1//EN" "http://www.w3.org/Graphics/SVG/1.1/DTD/svg11.dtd">
<svg version="1.1" id="Layer_1" xmlns="http://www.w3.org/2000/svg" xmlns:xlink="http://www.w3.org/1999/xlink" x="0px" y="0px"
	 width="130px" height="130px" viewBox="0 0 130 130" enable-background="new 0 0 130 130" xml:space="preserve">
<rect fill="none" width="130" height="130"/>
<g>
	<path fill="#4D4D4D" d="M121.915,97.176H8.085c-0.755,0-1.47-0.132-2.161-0.32v4.851h117.412v-4.665
		C122.875,97.12,122.399,97.176,121.915,97.176z"/>
	<g>
		<path fill="#4D4D4D" d="M122.831,81.2c-0.559,2.629-2.327,5.833-5.375,9.702c-0.995,1.264-2.142,1.905-3.4,1.905
			c-2.352,0-4.527-2.259-6.276-4.076c-0.372-0.387-0.73-0.757-1.068-1.08c-0.72-0.701-1.294-1.318-1.788-1.848
			c-1.362-1.468-1.843-1.933-2.881-1.933c-0.706,0-1.715,0.24-3.259,0.779c-2.166,0.754-3.498,2.493-4.904,4.336
			c-1.51,1.975-3.072,4.018-5.748,4.826c-0.734,0.223-1.475,0.336-2.194,0.336c-3.509,0-6.159-2.546-8.722-5.006
			c-0.755-0.728-1.47-1.413-2.2-2.03c-3.616-3.061-6.942-4.61-9.888-4.61c-1.298,0-2.543,0.309-3.704,0.913
			c-1.577,0.826-2.528,2.387-3.449,3.896c-1.362,2.234-2.773,4.545-6.12,4.545c-0.313,0-0.642-0.021-0.989-0.064
			c-2.536-0.32-5.419-2.241-8.472-4.274c-3.381-2.254-6.875-4.581-9.76-4.581c-2.119,0-3.689,1.261-4.939,3.971
			c-1.681,3.633-3.533,5.882-7.558,5.882c-1.027,0-2.21-0.14-3.619-0.429c-5.64-1.163-6.629-5.734-7.589-10.159
			c-0.079-0.36-0.172-0.726-0.25-1.088H8.085c-3.9,0-7.085,2.994-7.085,6.654v2.009c0,3.655,3.185,6.648,7.085,6.648h113.83
			c3.9,0,7.085-2.993,7.085-6.648v-2.009C129,84.402,126.295,81.629,122.831,81.2z"/>
	</g>
	<g>
		<path fill="#4D4D4D" d="M121.964,77.668c-0.348-0.899-0.682-1.715-1.024-2.481h-0.059H9.119H8.825
			C8.273,76.975,8.8,78.43,9.109,79.633c1.313,5.154,1.455,10.73,7.56,11.989c1.333,0.274,2.472,0.414,3.467,0.414
			c3.442,0,5.137-1.69,6.876-5.446c1.487-3.226,3.432-4.409,5.62-4.409c5.76,0.002,13.19,8.214,18.325,8.863
			c0.313,0.039,0.612,0.059,0.896,0.059c5.096,0,5.086-6.19,9.222-8.354c1.343-0.701,2.704-1,4.052-1
			c3.837,0,7.556,2.406,10.373,4.787c3.219,2.72,6.257,6.859,10.437,6.859c0.632,0,1.288-0.095,1.979-0.304
			c4.821-1.46,5.806-7.477,10.617-9.152c1.593-0.554,2.676-0.82,3.509-0.82c1.935,0,2.553,1.431,5.193,3.99
			c1.861,1.799,4.331,4.946,6.82,4.946c0.945,0,1.892-0.458,2.812-1.619C119.852,86.645,123.375,81.289,121.964,77.668z"/>
	</g>
	<g>
		<rect x="8.741" y="65.181" fill="#4D4D4D" width="112.512" height="9.233"/>
	</g>
	<g>
		<path fill="#4D4D4D" d="M6.301,102.331H6.296v3.816c0,4.23,3.464,7.695,7.692,7.695h101.272c4.229,0,7.692-3.465,7.692-7.695
			v-3.816H6.301z"/>
	</g>
	<path fill="#4D4D4D" d="M65,16.157c-30.535,0-55.744,20.971-60.076,48.271H125.07C120.744,37.128,95.54,16.157,65,16.157z
		 M18.467,51.861c-0.985,0-1.784-0.804-1.784-1.793c0-0.98,0.799-1.779,1.784-1.779s1.783,0.799,1.783,1.779
		C20.25,51.058,19.452,51.861,18.467,51.861z M26.513,39.773c0-0.984,0.803-1.783,1.788-1.783s1.784,0.799,1.784,1.783
		c0,0.99-0.799,1.784-1.784,1.784S26.513,40.764,26.513,39.773z M31.246,58.412c-0.99,0-1.789-0.804-1.789-1.788
		c0-0.985,0.799-1.784,1.789-1.784c0.985,0,1.784,0.799,1.784,1.784C33.029,57.608,32.23,58.412,31.246,58.412z M41.397,50.401
		c-0.989,0-1.788-0.799-1.788-1.788c0-0.985,0.799-1.784,1.788-1.784c0.985,0,1.784,0.799,1.784,1.784
		C43.182,49.603,42.383,50.401,41.397,50.401z M42.378,32.062c-0.99,0-1.783-0.799-1.783-1.788c0-0.985,0.793-1.783,1.783-1.783
		c0.989,0,1.783,0.798,1.783,1.783C44.161,31.263,43.367,32.062,42.378,32.062z M56.465,21.101c0-0.984,0.798-1.778,1.788-1.778
		c0.984,0,1.783,0.794,1.783,1.778c0,0.99-0.799,1.789-1.783,1.789C57.263,22.89,56.465,22.091,56.465,21.101z M59.086,38.427
		c-0.99,0-1.788-0.794-1.788-1.784c0-0.984,0.798-1.783,1.788-1.783c0.979,0,1.783,0.799,1.783,1.783
		C60.869,37.633,60.065,38.427,59.086,38.427z M64,56.771c-0.989,0-1.788-0.799-1.788-1.788c0-0.98,0.799-1.783,1.788-1.783
		c0.98,0,1.784,0.803,1.784,1.783C65.784,55.972,64.98,56.771,64,56.771z M70.551,27.804c-0.989,0-1.788-0.799-1.788-1.788
		c0-0.985,0.799-1.784,1.788-1.784c0.985,0,1.784,0.799,1.784,1.784C72.335,27.005,71.536,27.804,70.551,27.804z M75.461,43.669
		c-0.99,0-1.789-0.794-1.789-1.783c0-0.985,0.799-1.783,1.789-1.783c0.984,0,1.783,0.798,1.783,1.783
		C77.244,42.875,76.445,43.669,75.461,43.669z M83.648,30.092c-0.99,0-1.789-0.799-1.789-1.783c0-0.985,0.799-1.783,1.789-1.783
		c0.984,0,1.783,0.798,1.783,1.783C85.432,29.293,84.633,30.092,83.648,30.092z M90.346,57.608c-0.984,0-1.783-0.799-1.783-1.788
		c0-0.985,0.799-1.784,1.783-1.784c0.99,0,1.784,0.799,1.784,1.784C92.13,56.81,91.336,57.608,90.346,57.608z M93.81,45.492
		c-0.989,0-1.788-0.804-1.788-1.789c0-0.984,0.799-1.783,1.788-1.783c0.98,0,1.779,0.799,1.779,1.783
		C95.589,44.688,94.79,45.492,93.81,45.492z M96.094,33.047c-0.99,0-1.789-0.799-1.789-1.789c0-0.984,0.799-1.783,1.789-1.783
		c0.984,0,1.783,0.799,1.783,1.783C97.877,32.248,97.078,33.047,96.094,33.047z M103.957,44.835c-0.989,0-1.788-0.794-1.788-1.783
		c0-0.99,0.799-1.783,1.788-1.783c0.985,0,1.784,0.793,1.784,1.783C105.741,44.041,104.942,44.835,103.957,44.835z M114.442,52.038
		c-0.989,0-1.788-0.799-1.788-1.784c0-0.989,0.799-1.788,1.788-1.788c0.985,0,1.784,0.799,1.784,1.788
		C116.227,51.239,115.428,52.038,114.442,52.038z"/>
</g>
</svg>
