<?xml version="1.0" encoding="utf-8"?>
<!-- Generator: Adobe Illustrator 16.0.0, SVG Export Plug-In . SVG Version: 6.00 Build 0)  -->
<!DOCTYPE svg PUBLIC "-//W3C//DTD SVG 1.1//EN" "http://www.w3.org/Graphics/SVG/1.1/DTD/svg11.dtd">
<svg version="1.1" id="Layer_1" xmlns="http://www.w3.org/2000/svg" xmlns:xlink="http://www.w3.org/1999/xlink" x="0px" y="0px"
	 width="130px" height="130px" viewBox="0 0 130 130" enable-background="new 0 0 130 130" xml:space="preserve">
<rect fill="none" width="130" height="130"/>
<path fill="#4D4D4D" d="M107.292,27.622c-0.648,0-1.285,0.035-1.914,0.098c0.849-2.069,1.323-4.323,1.323-6.697
	c0-9.752-7.91-17.666-17.669-17.666c-7.703,0-14.233,4.939-16.654,11.81C69.348,6.908,61.436,1,52.128,1
	c-11.925,0-21.596,9.671-21.596,21.597c0,0.893,0.072,1.764,0.173,2.628c-1.695-0.421-3.458-0.668-5.276-0.668
	c-12.796,0-23.167,10.997-23.167,24.559c0,9.216,4.792,17.233,11.87,21.438L25.82,129h8.859L24.145,70.101h7.49L42.162,129h4.516
	l-5.264-58.899h7.4L54.079,129h4.576V70.101h7.367V129h4.576l5.265-58.899h7.397L77.999,129h4.513l10.526-58.899h7.49L90.003,129
	h8.845l11.772-58.862c9.701-1.668,17.119-10.466,17.119-21.103C127.739,37.208,118.577,27.622,107.292,27.622z M17.522,61.138
	c-3.118,0-5.651-2.53-5.651-5.654c0-3.124,2.533-5.649,5.651-5.649c3.125,0,5.655,2.525,5.655,5.649
	C23.177,58.608,20.647,61.138,17.522,61.138z M48.831,39.398c-4.08,0-7.391-3.309-7.391-7.389s3.311-7.395,7.391-7.395
	c4.082,0,7.393,3.314,7.393,7.395S52.912,39.398,48.831,39.398z M72.938,28.285c0.032,0.069,0.066,0.133,0.099,0.208h-0.15
	C72.902,28.423,72.92,28.354,72.938,28.285z M70.136,57.657c-3.844,0-6.957-3.112-6.957-6.951c0-3.844,3.113-6.962,6.957-6.962
	c3.842,0,6.957,3.118,6.957,6.962C77.093,54.545,73.978,57.657,70.136,57.657z M90.572,28.095c-3.122,0-5.655-2.536-5.655-5.654
	c0-3.124,2.533-5.654,5.655-5.654c3.121,0,5.653,2.53,5.653,5.654C96.226,25.559,93.693,28.095,90.572,28.095z M109.269,63.75
	c-2.882,0-5.216-2.334-5.216-5.222c0-2.881,2.334-5.216,5.216-5.216c2.883,0,5.217,2.335,5.217,5.216
	C114.485,61.415,112.151,63.75,109.269,63.75z"/>
</svg>
