<?xml version="1.0" encoding="utf-8"?>
<!-- Generator: Adobe Illustrator 16.0.0, SVG Export Plug-In . SVG Version: 6.00 Build 0)  -->
<!DOCTYPE svg PUBLIC "-//W3C//DTD SVG 1.1//EN" "http://www.w3.org/Graphics/SVG/1.1/DTD/svg11.dtd">
<svg version="1.1" id="Layer_1" xmlns="http://www.w3.org/2000/svg" xmlns:xlink="http://www.w3.org/1999/xlink" x="0px" y="0px"
	 width="130px" height="130px" viewBox="0 0 130 130" enable-background="new 0 0 130 130" xml:space="preserve">
<rect fill="none" width="130" height="130"/>
<path fill="#4D4D4D" d="M16.987,1v128h96.027V1H16.987z M27.444,11.337h75.113v23.824H27.444V11.337z M40.971,120.363H27.436V106.83
	h13.535V120.363z M40.971,99.979H27.436V86.447h13.535V99.979z M40.971,79.464H27.436V65.927h13.535V79.464z M40.971,58.949H27.436
	V45.416h13.535V58.949z M61.502,120.363H47.964V106.83h13.538V120.363z M61.502,99.979H47.964V86.447h13.538V99.979z M61.502,79.464
	H47.964V65.927h13.538V79.464z M61.502,58.949H47.964V45.416h13.538V58.949z M82.041,120.363H68.502V106.83h13.539V120.363z
	 M82.041,99.979H68.502V86.447h13.539V99.979z M82.041,79.464H68.502V65.927h13.539V79.464z M82.041,58.949H68.502V45.416h13.539
	V58.949z M102.566,120.363H89.029V86.314h13.537V120.363z M102.566,79.464H89.029V65.932h13.537V79.464z M102.566,58.949H89.029
	V45.416h13.537V58.949z"/>
</svg>
