<?xml version="1.0" encoding="utf-8"?>
<!-- Generator: Adobe Illustrator 16.0.0, SVG Export Plug-In . SVG Version: 6.00 Build 0)  -->
<!DOCTYPE svg PUBLIC "-//W3C//DTD SVG 1.1//EN" "http://www.w3.org/Graphics/SVG/1.1/DTD/svg11.dtd">
<svg version="1.1" id="Layer_1" xmlns="http://www.w3.org/2000/svg" xmlns:xlink="http://www.w3.org/1999/xlink" x="0px" y="0px"
	 width="130px" height="130px" viewBox="0 0 130 130" enable-background="new 0 0 130 130" xml:space="preserve">
<rect fill="none" width="130" height="130"/>
<g>
	<path fill="#4D4D4D" d="M30.867,1l-0.089,0.005h0.033c-2.093,0.145-3.732,1.445-3.732,3.058v15.932c0,1.606,1.64,2.901,3.732,3.041
		l-0.289,0.033l0.345,0.022c2.273,0,4.108-1.373,4.108-3.074V4.063C34.975,2.378,33.14,1,30.867,1z M52.986,1L52.9,1.005h0.047
		C50.851,1.15,49.2,2.451,49.2,4.063v15.932c0,1.606,1.651,2.901,3.747,3.041l-0.292,0.033l0.331,0.022
		c2.282,0,4.11-1.373,4.11-3.074V4.063C57.096,2.378,55.268,1,52.986,1z M76.689,1l-0.1,0.005h0.061
		c-2.102,0.145-3.742,1.445-3.742,3.058v15.932c0,1.606,1.641,2.901,3.742,3.041l-0.297,0.033l0.336,0.022
		c2.275,0,4.111-1.373,4.111-3.074V4.063C80.801,2.378,78.965,1,76.689,1z M98.818,1l-0.1,0.005h0.061
		c-2.105,0.145-3.746,1.445-3.746,3.058v15.932c0,1.606,1.641,2.901,3.746,3.041l-0.305,0.033l0.344,0.022
		c2.27,0,4.111-1.373,4.111-3.074V4.063C102.93,2.378,101.088,1,98.818,1z"/>
	<path fill="#4D4D4D" d="M104.506,8.883v8.972c0.789,1.134,1.918,2.19,1.918,3.636c0,3.719-3.049,6.754-6.82,6.754
		c-3.764,0-6.822-3.035-6.822-6.754c0-1.618-0.363-3.035,0.646-4.203V8.96L82.375,8.894v8.755c0.805,1.095,1.031,2.396,1.031,3.841
		c0,3.719-3.043,6.754-6.807,6.754c-3.771,0-6.832-3.035-6.832-6.754c0-1.618,0.602-3.074,1.541-4.236V8.933L58.678,8.86v8.789
		c0.806,1.101,1.721,2.396,1.721,3.83c0,3.73-3.05,6.765-6.821,6.765c-3.764,0-6.82-3.035-6.82-6.765
		c0-1.606-0.137-3.024,0.858-4.191V8.888L36.548,8.872v8.789c0.75,1.101,0.839,2.385,0.839,3.83c0,3.719-3.055,6.754-6.826,6.754
		s-6.826-3.035-6.826-6.754c0-1.618,0.605-3.074,1.548-4.236V8.855h-0.211C14.882,8.844,6.629,16.977,6.608,27.005l-0.072,83.679
		c-0.022,10.089,8.229,18.188,18.405,18.199L104.945,129c10.168,0.017,18.43-8.149,18.445-18.233l0.074-83.5
		C123.486,17.232,115.006,8.966,104.506,8.883z M110.898,110.705c-0.006,3.369-2.742,6.109-6.104,6.109l-79.663-0.122
		c-2.215,0-3.654-1.134-4.327-1.807c-0.659-0.667-1.779-2.118-1.779-4.325l0.075-63.549c0.014-3.352,2.755-6.098,6.112-6.098
		l79.654,0.111c2.207,0.017,3.65,1.134,4.322,1.812c0.672,0.656,1.793,2.124,1.785,4.314L110.898,110.705z"/>
	<path fill="#4D4D4D" d="M78.555,80.638c-1.656-2.058-3.879-3.392-6.641-3.975c4.637-2.524,6.945-5.909,6.945-10.151
		c0-2.984-1.125-5.664-3.383-8.021c-2.74-2.908-6.389-4.358-10.939-4.358c-2.646,0-5.051,0.511-7.196,1.506
		c-2.132,1-3.797,2.368-5,4.108c-1.195,1.757-2.091,4.081-2.683,6.999l8.53,1.445c0.244-2.106,0.917-3.713,2.043-4.803
		c1.109-1.101,2.465-1.645,4.041-1.645c1.609,0,2.893,0.478,3.85,1.451c0.965,0.967,1.453,2.263,1.453,3.886
		c0,1.906-0.658,3.436-1.971,4.592c-1.322,1.15-3.224,1.695-5.728,1.629l-1.028,7.537c1.646-0.45,3.071-0.684,4.252-0.684
		c1.793,0,3.323,0.679,4.573,2.035c1.248,1.367,1.879,3.213,1.879,5.531c0,2.457-0.65,4.413-1.963,5.864
		c-1.303,1.445-2.912,2.168-4.819,2.168c-1.773,0-3.294-0.601-4.539-1.807c-1.265-1.223-2.023-2.957-2.307-5.236l-8.959,1.078
		c0.462,4.069,2.127,7.354,5.003,9.861c2.88,2.519,6.496,3.774,10.859,3.774c4.621,0,8.478-1.495,11.56-4.469
		c3.096-3.002,4.645-6.599,4.645-10.84C81.033,85.195,80.203,82.705,78.555,80.638z"/>
</g>
</svg>
