<?xml version="1.0" encoding="utf-8"?>
<!-- Generator: Adobe Illustrator 16.0.0, SVG Export Plug-In . SVG Version: 6.00 Build 0)  -->
<!DOCTYPE svg PUBLIC "-//W3C//DTD SVG 1.1//EN" "http://www.w3.org/Graphics/SVG/1.1/DTD/svg11.dtd">
<svg version="1.1" id="Layer_1" xmlns="http://www.w3.org/2000/svg" xmlns:xlink="http://www.w3.org/1999/xlink" x="0px" y="0px"
	 width="130px" height="130px" viewBox="0 0 130 130" enable-background="new 0 0 130 130" xml:space="preserve">
<rect fill="none" width="130" height="130"/>
<path fill="#4D4D4D" d="M72.561,20.283V4.107c0-1.633,1.648-2.954,3.764-3.104c-0.02,0-0.027,0-0.062,0
	C76.305,1.003,76.33,1,76.363,1c2.283,0,4.133,1.401,4.133,3.111v16.193c0,1.728-1.85,3.119-4.133,3.119
	c-0.107,0-0.217-0.021-0.34-0.021c0.096-0.009,0.199-0.02,0.301-0.029C74.209,23.229,72.561,21.91,72.561,20.283z M99.229,23.373
	c-0.098,0.01-0.201,0.021-0.301,0.029c0.109,0,0.229,0.021,0.34,0.021c2.277,0,4.133-1.392,4.133-3.119V4.111
	c0-1.71-1.855-3.111-4.133-3.111c-0.027,0-0.064,0.003-0.098,0.003c0.008,0,0.033,0,0.059,0c-2.115,0.15-3.764,1.472-3.764,3.104
	v16.176C95.465,21.91,97.113,23.229,99.229,23.373z M30.506,23.373c-0.087,0.01-0.19,0.021-0.291,0.029
	c0.123,0,0.218,0.021,0.341,0.021c2.291,0,4.133-1.392,4.133-3.119V4.111c0-1.71-1.842-3.111-4.133-3.111
	c-0.045,0-0.064,0.003-0.089,0.003c0.005,0,0.024,0,0.039,0c-2.104,0.15-3.754,1.472-3.754,3.104v16.176
	C26.752,21.91,28.402,23.229,30.506,23.373z M53.421,23.373c-0.101,0.01-0.204,0.021-0.29,0.029c0.108,0,0.206,0.021,0.323,0.021
	c2.302,0,4.136-1.392,4.136-3.119V4.111C57.59,2.401,55.756,1,53.455,1c-0.028,0-0.045,0.003-0.087,0.003c0.02,0,0.042,0,0.054,0
	c-2.11,0.15-3.768,1.472-3.768,3.104v16.176C49.654,21.91,51.311,23.229,53.421,23.373z M123.15,76.39h0.039v33.993
	c0,5.018-1.961,9.733-5.51,13.279c-3.541,3.536-8.254,5.338-13.25,5.338c-0.01,0-0.016,0-0.029,0H77.227h-0.238h-0.354h-0.428
	h-0.385l0,0l-50.691-0.03c-10.129-0.011-18.341-8.246-18.321-18.375l0.011-6.187h81.666c-1.309,6.694-4.365,16.353-11.199,23.415
	c5.076-3.977,10.568-9.642,16.367-15.702l0.875-0.918c7.602-7.941,20.666-22.329,26.654-32.983
	c-2.615,3.215-8.314,9.477-15.455,12.75c-10.141,4.648-16.225,5.734-16.225,5.734s-0.074,1.819-0.488,4.644H6.821l0.059-74.661
	C6.899,16.556,15.12,8.346,25.26,8.357h0.209v8.439c-0.94,1.171-1.54,2.632-1.54,4.258c0,3.739,3.041,6.784,6.795,6.784
	c3.753,0,6.789-3.045,6.789-6.784c0-1.452-0.449-2.781-1.226-3.883V8.375l12.1,0.018v8.404c-0.951,1.171-1.543,2.632-1.543,4.248
	c0,3.749,3.044,6.794,6.789,6.794c3.753,0,6.78-3.045,6.78-6.794c0-1.442-0.446-2.771-1.216-3.873V8.413l12.074,0.02v8.364
	c-0.936,1.171-1.523,2.632-1.523,4.258c0,3.739,3.045,6.784,6.801,6.784c3.738,0,6.771-3.045,6.771-6.784
	c0-1.452-0.461-2.789-1.223-3.883V8.445l12.084,0.022v8.329c-0.949,1.171-1.527,2.632-1.527,4.258c0,3.739,3.041,6.784,6.781,6.784
	c3.752,0,6.789-3.045,6.789-6.784c0-1.452-0.463-2.781-1.217-3.883V8.487c10.064,0.079,18.201,8.29,18.182,18.37L123.15,76.39z
	 M81.027,78.257c0-2.916-0.826-5.405-2.484-7.471c-1.648-2.057-3.869-3.39-6.639-3.974c4.645-2.522,6.949-5.903,6.949-10.147
	c0-2.98-1.123-5.654-3.379-8.02c-2.74-2.903-6.395-4.348-10.936-4.348c-2.651,0-5.057,0.504-7.194,1.501
	c-2.132,1.001-3.795,2.368-4.995,4.11c-1.196,1.751-2.09,4.073-2.682,6.995l8.525,1.437c0.24-2.103,0.915-3.708,2.042-4.794
	c1.103-1.104,2.467-1.643,4.041-1.643c1.61,0,2.89,0.477,3.847,1.447c0.957,0.966,1.451,2.259,1.451,3.879
	c0,1.905-0.658,3.439-1.973,4.593c-1.316,1.152-3.225,1.696-5.72,1.624l-1.026,7.537c1.641-0.449,3.063-0.684,4.241-0.684
	c1.8,0,3.326,0.681,4.576,2.037c1.25,1.364,1.881,3.209,1.881,5.528c0,2.452-0.652,4.405-1.961,5.856
	c-1.307,1.448-2.92,2.171-4.822,2.171c-1.772,0-3.293-0.605-4.535-1.808c-1.261-1.22-2.022-2.955-2.312-5.232l-8.943,1.074
	c0.457,4.071,2.115,7.353,4.997,9.856c2.883,2.522,6.493,3.775,10.857,3.775c4.614,0,8.461-1.49,11.549-4.474
	C79.473,86.095,81.027,82.498,81.027,78.257z M122.322,110.383V78.008c-5.865,10.799-19.371,25.678-27.156,33.81l-0.877,0.912
	c-5.686,5.943-11.062,11.475-16.1,15.47H104.4c0.014,0,0.02,0,0.029,0c4.766,0,9.254-1.782,12.635-5.159
	C120.449,119.664,122.314,115.166,122.322,110.383z"/>
</svg>
