<?xml version="1.0" encoding="utf-8"?>
<!-- Generator: Adobe Illustrator 16.0.0, SVG Export Plug-In . SVG Version: 6.00 Build 0)  -->
<!DOCTYPE svg PUBLIC "-//W3C//DTD SVG 1.1//EN" "http://www.w3.org/Graphics/SVG/1.1/DTD/svg11.dtd">
<svg version="1.1" id="Layer_1" xmlns="http://www.w3.org/2000/svg" xmlns:xlink="http://www.w3.org/1999/xlink" x="0px" y="0px"
	 width="130px" height="130px" viewBox="0 0 130 130" enable-background="new 0 0 130 130" xml:space="preserve">
<rect fill="none" width="130" height="130"/>
<g>
	<path fill="#4D4D4D" d="M41.951,14.841h-24.41c-1.738,0-3.164,1.409-3.164,3.144v8.235H45.1v-8.235
		C45.1,16.25,43.68,14.841,41.951,14.841z"/>
	<path fill="#4D4D4D" d="M125.166,28.536H4.834C2.723,28.536,1,30.254,1,32.354v78.976c0,2.106,1.723,3.829,3.834,3.829h120.332
		c2.111,0,3.834-1.723,3.834-3.829V32.354C129,30.254,127.277,28.536,125.166,28.536z M65.006,105.532
		c-18.205,0-32.97-14.71-32.97-32.858c0-18.152,14.765-32.863,32.97-32.863c18.204,0,32.964,14.711,32.964,32.863
		C97.97,90.822,83.21,105.532,65.006,105.532z"/>
	<path fill="#4D4D4D" d="M65.006,51.396c-11.784,0-21.343,9.526-21.343,21.277c0,11.746,9.559,21.267,21.343,21.267
		c11.783,0,21.337-9.521,21.337-21.267C86.343,60.923,76.789,51.396,65.006,51.396z"/>
</g>
</svg>
