<?xml version="1.0" encoding="utf-8"?>
<!-- Generator: Adobe Illustrator 16.0.0, SVG Export Plug-In . SVG Version: 6.00 Build 0)  -->
<!DOCTYPE svg PUBLIC "-//W3C//DTD SVG 1.1//EN" "http://www.w3.org/Graphics/SVG/1.1/DTD/svg11.dtd">
<svg version="1.1" id="Layer_1" xmlns="http://www.w3.org/2000/svg" xmlns:xlink="http://www.w3.org/1999/xlink" x="0px" y="0px"
	 width="130px" height="130px" viewBox="0 0 130 130" enable-background="new 0 0 130 130" xml:space="preserve">
<rect fill="none" width="130" height="130"/>
<path fill="#4D4D4D" d="M64.998,1.198C29.647,1.198,1,29.761,1,65.003c0,35.236,28.647,63.799,63.998,63.799
	c35.348,0,64.002-28.562,64.002-63.799C129,29.761,100.346,1.198,64.998,1.198z M64.998,20.219c7.772,0,14.066,6.279,14.066,14.028
	c0,7.75-6.294,14.035-14.066,14.035c-7.784,0-14.087-6.285-14.087-14.035C50.911,26.498,57.214,20.219,64.998,20.219z
	 M19.923,54.749c1.214-7.649,8.419-12.888,16.089-11.671c7.679,1.211,12.915,8.402,11.712,16.057
	c-1.22,7.655-8.428,12.876-16.112,11.67C23.941,69.583,18.686,62.41,19.923,54.749z M58.366,98.687
	c-4.239,6.479-12.95,8.343-19.482,4.116c-6.505-4.216-8.372-12.918-4.118-19.402c4.225-6.503,12.946-8.35,19.449-4.128
	C60.747,83.5,62.597,92.178,58.366,98.687z M57.531,64.762c0-4.116,3.327-7.449,7.467-7.449c4.13,0,7.479,3.333,7.479,7.449
	c0,4.116-3.349,7.443-7.479,7.443C60.858,72.205,57.531,68.878,57.531,64.762z M93.896,100.421
	c-5.209,5.774-14.099,6.227-19.875,1.053c-5.777-5.191-6.247-14.069-1.038-19.832c5.191-5.75,14.075-6.22,19.873-1.034
	C98.632,85.793,99.105,94.665,93.896,100.421z M101.892,69.76c-7.09,3.157-15.416-0.035-18.588-7.108
	c-3.137-7.073,0.041-15.381,7.152-18.521c7.085-3.164,15.416,0.023,18.582,7.108C112.196,58.318,108.994,66.603,101.892,69.76z"/>
</svg>
