<?xml version="1.0" encoding="utf-8"?>
<!-- Generator: Adobe Illustrator 16.0.0, SVG Export Plug-In . SVG Version: 6.00 Build 0)  -->
<!DOCTYPE svg PUBLIC "-//W3C//DTD SVG 1.1//EN" "http://www.w3.org/Graphics/SVG/1.1/DTD/svg11.dtd">
<svg version="1.1" id="Layer_1" xmlns="http://www.w3.org/2000/svg" xmlns:xlink="http://www.w3.org/1999/xlink" x="0px" y="0px"
	 width="130px" height="130px" viewBox="0 0 130 130" enable-background="new 0 0 130 130" xml:space="preserve">
<rect fill="none" width="130" height="130"/>
<g>
	<g>
		<path fill="#4D4D4D" d="M17.206,110.061c1.317,0.843,2.783,1.303,4.349,1.303c1.548,0,3.052-0.46,4.343-1.303
			c2.553-1.603,4.501-4.542,5.3-8.129H11.938C12.723,105.519,14.658,108.458,17.206,110.061z M98.811,101.932
			c0.799,3.587,2.744,6.526,5.292,8.129c1.298,0.843,2.782,1.303,4.348,1.303c1.563,0,3.056-0.46,4.354-1.303
			c2.538-1.603,4.479-4.542,5.272-8.129H98.811z"/>
	</g>
	<path fill="#4D4D4D" d="M119.867,53.978l-10.846-25.591c-2.462-5.923-8.241-9.75-14.717-9.75H35.695
		c-6.476,0-12.247,3.827-14.697,9.716l-10.885,25.63C4.736,56.413,1,61.778,1,68.045v32.691h128V68.045
		C129,61.773,125.281,56.403,119.867,53.978z M30.246,32.968c0.934-2.278,3.141-3.753,5.615-3.753h58.277
		c2.475,0,4.682,1.475,5.635,3.783l8.525,20.324H21.687L30.246,32.968z M21.295,79.324c-3.548,0-6.446-2.866-6.446-6.434
		c0-3.557,2.898-6.428,6.446-6.428c3.56,0,6.452,2.871,6.452,6.428C27.747,76.458,24.854,79.324,21.295,79.324z M108.698,79.334
		c-3.569,0-6.456-2.871-6.456-6.443c0-3.566,2.887-6.433,6.456-6.433c3.566,0,6.44,2.866,6.44,6.433
		C115.139,76.463,112.265,79.334,108.698,79.334z"/>
</g>
</svg>
