<?xml version="1.0" encoding="utf-8"?>
<!-- Generator: Adobe Illustrator 16.0.0, SVG Export Plug-In . SVG Version: 6.00 Build 0)  -->
<!DOCTYPE svg PUBLIC "-//W3C//DTD SVG 1.1//EN" "http://www.w3.org/Graphics/SVG/1.1/DTD/svg11.dtd">
<svg version="1.1" id="Layer_1" xmlns="http://www.w3.org/2000/svg" xmlns:xlink="http://www.w3.org/1999/xlink" x="0px" y="0px"
	 width="130px" height="130px" viewBox="0 0 130 130" enable-background="new 0 0 130 130" xml:space="preserve">
<rect fill="none" width="130" height="130"/>
<g>
	<g>
		<path fill="#4D4D4D" d="M56.95,87.973c-3.959,0-7.153,3.206-7.153,7.149c0,3.959,3.194,7.153,7.153,7.153
			c3.951,0,7.152-3.194,7.152-7.153C64.103,91.179,60.901,87.973,56.95,87.973z M98.301,87.973c-3.949,0-7.151,3.206-7.151,7.149
			c0,3.959,3.202,7.153,7.151,7.153c3.95,0,7.154-3.194,7.154-7.153C105.455,91.179,102.251,87.973,98.301,87.973z"/>
	</g>
	<g>
		<path fill="#4D4D4D" d="M118.028,57.891c-8.2,0-14.87-6.66-14.87-14.843c0-1.895,0.371-3.7,1.021-5.366H32.802l-6.279-9.957H5.495
			C3.024,27.725,1,29.76,1,32.235v1.685c0,2.483,2.024,4.511,4.495,4.511h13.713c-0.327,0.489-0.3,1.179,0.149,1.948l23.768,39.637
			c0.88,1.494,3.028,2.709,4.764,2.709h56.149c1.744,0,3.749-1.285,4.495-2.854l10.287-22.02
			C118.557,57.864,118.296,57.891,118.028,57.891z M93.888,48.533c0-1.735,1.408-3.159,3.143-3.159h1.201
			c1.745,0,3.156,1.424,3.156,3.159v0.689c0,1.731-1.411,3.155-3.156,3.155H97.03c-1.734,0-3.143-1.424-3.143-3.155V48.533z
			 M82.423,48.533c0-1.735,1.418-3.159,3.143-3.159h1.211c1.735,0,3.158,1.424,3.158,3.159v0.689c0,1.731-1.423,3.155-3.158,3.155
			h-1.211c-1.725,0-3.143-1.424-3.143-3.155V48.533z M70.96,48.533c0-1.735,1.418-3.159,3.148-3.159h1.199
			c1.735,0,3.158,1.424,3.158,3.159v0.689c0,1.731-1.423,3.155-3.158,3.155h-1.199c-1.73,0-3.148-1.424-3.148-3.155V48.533z
			 M59.487,48.533c0-1.735,1.422-3.159,3.156-3.159h1.197c1.735,0,3.156,1.424,3.156,3.159v0.689c0,1.731-1.421,3.155-3.156,3.155
			h-1.197c-1.734,0-3.156-1.424-3.156-3.155V48.533z M48.024,48.533c0-1.735,1.432-3.159,3.156-3.159h1.191
			c1.737,0,3.162,1.424,3.162,3.159v0.689c0,1.731-1.425,3.155-3.162,3.155h-1.191c-1.725,0-3.156-1.424-3.156-3.155V48.533z
			 M39.721,52.378c-1.739,0-3.159-1.424-3.159-3.155v-0.689c0-1.735,1.42-3.159,3.159-3.159h1.194c1.726,0,3.143,1.424,3.143,3.159
			v0.689c0,1.731-1.417,3.155-3.143,3.155H39.721z M46.733,63.474h-1.201c-1.734,0-3.158-1.424-3.158-3.162v-0.694
			c0-1.735,1.424-3.154,3.158-3.154h1.201c1.729,0,3.156,1.419,3.156,3.154v0.694C49.89,62.05,48.462,63.474,46.733,63.474z
			 M55.534,71.933c0,1.738-1.425,3.15-3.162,3.15h-1.191c-1.725,0-3.156-1.412-3.156-3.15v-0.687c0-1.739,1.432-3.154,3.156-3.154
			h1.191c1.737,0,3.162,1.415,3.162,3.154V71.933z M56.999,63.474c-1.734,0-3.15-1.424-3.15-3.162v-0.694
			c0-1.735,1.416-3.154,3.15-3.154h1.197c1.738,0,3.152,1.419,3.152,3.154v0.694c0,1.738-1.414,3.162-3.152,3.162H56.999z
			 M66.997,71.933c0,1.738-1.421,3.15-3.156,3.15h-1.197c-1.734,0-3.156-1.412-3.156-3.15v-0.687c0-1.739,1.422-3.154,3.156-3.154
			h1.197c1.735,0,3.156,1.415,3.156,3.154V71.933z M68.464,63.474c-1.745,0-3.152-1.424-3.152-3.162v-0.694
			c0-1.735,1.407-3.154,3.152-3.154h1.195c1.744,0,3.152,1.419,3.152,3.154v0.694c0,1.738-1.408,3.162-3.152,3.162H68.464z
			 M78.466,71.933c0,1.738-1.423,3.15-3.158,3.15h-1.199c-1.73,0-3.148-1.412-3.148-3.15v-0.687c0-1.739,1.418-3.154,3.148-3.154
			h1.199c1.735,0,3.158,1.415,3.158,3.154V71.933z M79.925,63.474c-1.736,0-3.16-1.424-3.16-3.162v-0.694
			c0-1.735,1.424-3.154,3.16-3.154h1.199c1.734,0,3.154,1.419,3.154,3.154v0.694c0,1.738-1.42,3.162-3.154,3.162H79.925z
			 M89.935,71.933c0,1.738-1.423,3.15-3.158,3.15h-1.211c-1.725,0-3.143-1.412-3.143-3.15v-0.687c0-1.739,1.418-3.154,3.143-3.154
			h1.211c1.735,0,3.158,1.415,3.158,3.154V71.933z M91.394,63.474c-1.734,0-3.158-1.424-3.158-3.162v-0.694
			c0-1.735,1.424-3.154,3.158-3.154h1.201c1.734,0,3.152,1.419,3.152,3.154v0.694c0,1.738-1.418,3.162-3.152,3.162H91.394z
			 M101.388,71.933c0,1.738-1.411,3.15-3.156,3.15H97.03c-1.734,0-3.143-1.412-3.143-3.15v-0.687c0-1.739,1.408-3.154,3.143-3.154
			h1.201c1.745,0,3.156,1.415,3.156,3.154V71.933z M107.2,60.312c0,1.738-1.408,3.162-3.143,3.162h-1.195
			c-1.74,0-3.158-1.424-3.158-3.162v-0.694c0-1.735,1.418-3.154,3.158-3.154h1.195c1.734,0,3.143,1.419,3.143,3.154V60.312z"/>
		<path fill="#4D4D4D" d="M118.028,32.098c-6.053,0-10.977,4.913-10.977,10.95c0,6.041,4.924,10.954,10.977,10.954
			c6.049,0,10.972-4.913,10.972-10.954C129,37.011,124.077,32.098,118.028,32.098z M122.2,43.805h-3.421v3.419
			c0,0.434-0.422,0.852-0.855,0.852s-0.855-0.418-0.855-0.852v-3.419h-3.421c-0.434,0-0.856-0.426-0.856-0.859
			s0.423-0.852,0.856-0.852h3.421v-3.423c0-0.434,0.422-0.852,0.855-0.852s0.855,0.418,0.855,0.852v3.423h3.421
			c0.434,0,0.852,0.418,0.852,0.852S122.634,43.805,122.2,43.805z"/>
	</g>
</g>
</svg>
