<?xml version="1.0" encoding="utf-8"?>
<!-- Generator: Adobe Illustrator 16.0.0, SVG Export Plug-In . SVG Version: 6.00 Build 0)  -->
<!DOCTYPE svg PUBLIC "-//W3C//DTD SVG 1.1//EN" "http://www.w3.org/Graphics/SVG/1.1/DTD/svg11.dtd">
<svg version="1.1" id="Layer_1" xmlns="http://www.w3.org/2000/svg" xmlns:xlink="http://www.w3.org/1999/xlink" x="0px" y="0px"
	 width="130px" height="130px" viewBox="0 0 130 130" enable-background="new 0 0 130 130" xml:space="preserve">
<rect fill="none" width="130" height="130"/>
<g>
	<path fill="#4D4D4D" d="M80.026,10.483H49.973c-5.19,0-9.402,4.226-9.402,9.416v9.695h9.037v-9.695
		c0-0.195,0.175-0.378,0.365-0.378h30.054c0.191,0,0.365,0.183,0.365,0.378v9.695h9.04v-9.695
		C89.432,14.709,85.208,10.483,80.026,10.483z"/>
	<g>
		<g>
			<path fill="#4D4D4D" d="M15.381,28.912H3.877C2.29,28.912,1,30.2,1,31.789v84.856c0,1.585,1.29,2.871,2.877,2.871h11.504V28.912z
				"/>
			<rect x="26.888" y="28.912" fill="#4D4D4D" width="76.222" height="90.604"/>
		</g>
		<path fill="#4D4D4D" d="M126.124,28.912h-11.505v90.604h11.505c1.589,0,2.876-1.286,2.876-2.871V31.789
			C129,30.2,127.713,28.912,126.124,28.912z"/>
	</g>
</g>
</svg>
