<?xml version="1.0" encoding="utf-8"?>
<!-- Generator: Adobe Illustrator 16.0.0, SVG Export Plug-In . SVG Version: 6.00 Build 0)  -->
<!DOCTYPE svg PUBLIC "-//W3C//DTD SVG 1.1//EN" "http://www.w3.org/Graphics/SVG/1.1/DTD/svg11.dtd">
<svg version="1.1" id="Layer_1" xmlns="http://www.w3.org/2000/svg" xmlns:xlink="http://www.w3.org/1999/xlink" x="0px" y="0px"
	 width="130px" height="130px" viewBox="0 0 130 130" enable-background="new 0 0 130 130" xml:space="preserve">
<rect fill="none" width="130" height="130"/>
<g>
	<g>
		<g>
			<path fill="#4D4D4D" d="M46.768,22.364l-2.341,4.741c-0.123,0.24,0.011,0.55,0.299,0.695c0.286,0.144,0.615,0.064,0.735-0.176
				l2.598-5.26H46.768z"/>
			<path fill="#4D4D4D" d="M47.562,22.364l-2.499,5.062c-0.011,0.016,0.019,0.102,0.12,0.149c0.102,0.054,0.188,0.021,0.195,0.005
				l2.574-5.217H47.562z"/>
		</g>
		<g>
			<path fill="#4D4D4D" d="M85.573,27.105l-2.53-5.126h-1.291l2.787,5.645c0.12,0.24,0.449,0.32,0.735,0.176
				C85.562,27.655,85.696,27.345,85.573,27.105z"/>
			<path fill="#4D4D4D" d="M82.249,21.979h-0.391l2.764,5.602c0.008,0.016,0.094,0.048,0.195-0.005
				c0.102-0.048,0.131-0.134,0.12-0.149L82.249,21.979z"/>
		</g>
		<path fill="#4D4D4D" d="M84.462,21.626c0.021,2.074-8.716-1.261-19.448-1.138c-10.73,0.117-19.396,3.645-19.419,1.566
			c-0.038-3.474,8.635-5.949,19.37-6.067C75.695,15.87,84.422,18.152,84.462,21.626z"/>
	</g>
	<g>
		<g>
			<path fill="#4D4D4D" d="M17.204,26.015H7.283C3.814,26.015,1,28.826,1,32.3v75.426c0,3.474,2.814,6.291,6.283,6.291h9.921V26.015
				z"/>
			<path fill="#4D4D4D" d="M122.717,26.015h-9.921v88.003h9.921c3.472,0,6.283-2.817,6.283-6.291V32.3
				C129,28.826,126.188,26.015,122.717,26.015z"/>
		</g>
		<path fill="#4D4D4D" d="M29.041,26.015v88.003h71.916V26.015H29.041z M81.557,36.964l0.476,0.257
			c0.401,0.214,0.839,0.331,1.272,0.331c0.112,0,0.219-0.005,0.326-0.021c0.31-0.043,0.588-0.15,0.828-0.315l0.128-0.085
			c0.145-0.091,0.283-0.182,0.396-0.278l0.3-0.246l0.358,0.149c0.128,0.059,0.272,0.102,0.406,0.145l0.203,0.064
			c0.187,0.064,0.39,0.096,0.593,0.096c0.097,0,0.192-0.005,0.294-0.021c0.529-0.075,1.048-0.336,1.459-0.737l0.386-0.374
			l3.789,2.763l-0.262,0.486c-0.257,0.481-0.62,1.39-0.583,1.801c0.043,0.631,0.315,1.032,0.663,1.54
			c0.235,0.353,0.471,0.7,0.674,1.155c0.662,1.625,0.48,3.421-0.455,4.586c-0.785,1.01-1.978,1.347-3.025,1.641
			c-0.304,0.091-0.588,0.166-0.854,0.262c-0.385,0.134-0.732,0.412-1.005,0.796l-0.049,0.064c-0.133,0.171-0.314,0.284-0.518,0.31
			l-0.027,0.005l-0.085,0.005c-0.246,0-0.423-0.118-0.492-0.166l-0.032-0.021l-0.059-0.053c-0.337-0.273-0.743-0.438-1.154-0.465
			c-0.203-0.011-0.417-0.016-0.631-0.016l-0.471,0.005c-1.117,0-2.202-0.059-3.148-0.759c-1.234-0.866-1.902-2.544-1.694-4.271
			c0.06-0.476,0.198-0.909,0.326-1.288c0.192-0.577,0.363-1.08,0.225-1.651c-0.102-0.422-0.689-1.192-1.074-1.604l-0.369-0.396
			L81.557,36.964z M50.309,94.069l-2.438,3.17l-0.47,0.609l-2.796,3.64l-0.47,0.614l-2.438,3.17
			c-0.46,0.599-1.348,0.689-1.988,0.203l-5.105-3.929c-0.636-0.486-0.78-1.373-0.32-1.972l2.438-3.17l0.235-0.305l0.235-0.305
			l2.795-3.641l0.235-0.31l0.235-0.305l2.438-3.17c0.454-0.593,1.342-0.684,1.982-0.208l5.115,3.939
			C50.624,92.589,50.764,93.471,50.309,94.069z M46.183,72.707c-3.71,1.46-7.905-0.363-9.365-4.078
			c-1.464-3.709,0.364-7.9,4.073-9.36c3.71-1.464,7.9,0.364,9.365,4.073C51.715,67.053,49.892,71.248,46.183,72.707z M55.28,37.603
			c0-3.079,2.501-5.58,5.58-5.58c3.084,0,5.583,2.501,5.583,5.58c0,3.084-2.499,5.586-5.583,5.586
			C57.781,43.183,55.28,40.687,55.28,37.603z M64.754,69.001c-0.094-0.406,0.078-0.834,0.463-1.177l8.504-8.782l0.016-0.011
			c0.385-0.336,0.848-0.454,1.267-0.342c0.423,0.118,0.754,0.465,0.912,0.946l0.005,0.021l2.761,11.91
			c0.152,0.491,0.08,0.946-0.205,1.24c-0.289,0.305-0.752,0.396-1.257,0.256l-11.521-3.201
			C65.189,69.722,64.843,69.407,64.754,69.001z M78.82,106.071l-13.094-6.499l4.02-8.098l12.722,6.312l0.372,0.182L78.82,106.071z
			 M94.609,86.375c0,1.272-1.154,2.314-2.565,2.314h-5.361c-1.417,0-2.571-1.042-2.571-2.314v-7.548
			c0-1.277,1.154-2.319,2.571-2.319h5.361c1.411,0,2.565,1.042,2.565,2.319V86.375z"/>
	</g>
</g>
</svg>
