<?xml version="1.0" encoding="utf-8"?>
<!-- Generator: Adobe Illustrator 16.0.0, SVG Export Plug-In . SVG Version: 6.00 Build 0)  -->
<!DOCTYPE svg PUBLIC "-//W3C//DTD SVG 1.1//EN" "http://www.w3.org/Graphics/SVG/1.1/DTD/svg11.dtd">
<svg version="1.1" id="Layer_1" xmlns="http://www.w3.org/2000/svg" xmlns:xlink="http://www.w3.org/1999/xlink" x="0px" y="0px"
	 width="130px" height="130px" viewBox="0 0 130 130" enable-background="new 0 0 130 130" xml:space="preserve">
<rect fill="none" width="130" height="130"/>
<g>
	<g>
		<g>
			<path fill="#4D4D4D" d="M93.254,35.413H39.497c-1.434,0-2.601-1.166-2.601-2.6V7.624c0-1.435,1.167-2.601,2.601-2.601h53.757
				c1.435,0,2.604,1.166,2.604,2.601v25.189C95.857,34.247,94.688,35.413,93.254,35.413z M40.218,32.092h52.318V8.345H40.218V32.092
				z"/>
		</g>
	</g>
	<rect x="61.154" y="34.577" fill="#4D4D4D" width="10.87" height="10.451"/>
	<path fill="#4D4D4D" d="M109.64,44.296H22.504L1.123,102.645v9.053h127.669v-8.61L109.64,44.296z M60.387,55.44
		c0.044-1.033,0.926-1.88,1.964-1.88H102.5c1.035,0,2.128,0.809,2.428,1.804l3.885,12.804c0.3,0.995-0.298,1.804-1.333,1.804H61.643
		c-1.038,0-1.847-0.847-1.803-1.879L60.387,55.44z M59.548,74.86c0.025-0.52,0.467-0.939,0.983-0.939h5.788
		c0.517,0,0.942,0.42,0.95,0.939l0.038,4.726c0.009,0.519-0.415,0.94-0.932,0.94h-6.128c-0.516,0-0.923-0.422-0.899-0.94
		L59.548,74.86z M51.171,78.357c-0.101,1.026-1.027,1.873-2.062,1.873H20.874c-1.038,0-1.636-0.813-1.333-1.803l6.987-22.835
		c0.303-0.988,1.398-1.803,2.431-1.803h22.723c1.035,0,1.8,0.848,1.698,1.88L51.171,78.357z M66.503,93.746h-6.827
		c-0.516,0-0.92-0.422-0.898-0.94l0.202-4.725c0.022-0.52,0.464-0.94,0.98-0.94h6.479c0.517,0,0.942,0.421,0.951,0.94l0.04,4.725
		C67.438,93.319,67.017,93.746,66.503,93.746z M74.336,79.586l-0.259-4.726c-0.03-0.52,0.371-0.939,0.888-0.939h5.787
		c0.517,0,0.986,0.42,1.041,0.934l0.509,4.737c0.054,0.513-0.323,0.935-0.84,0.935h-6.134
		C74.812,80.526,74.363,80.104,74.336,79.586z M82.88,93.746h-6.825c-0.517,0-0.965-0.422-0.992-0.94l-0.259-4.725
		c-0.03-0.52,0.371-0.94,0.888-0.94h6.479c0.513,0,0.986,0.421,1.04,0.935l0.508,4.736C83.773,93.324,83.394,93.746,82.88,93.746z
		 M89.326,79.597L88.6,74.85c-0.08-0.514,0.281-0.929,0.798-0.929h5.788c0.516,0,1.023,0.415,1.128,0.918l0.978,4.77
		c0.109,0.502-0.232,0.918-0.749,0.918h-6.134C89.892,80.526,89.402,80.11,89.326,79.597z M99.258,93.746h-6.823
		c-0.517,0-1.005-0.416-1.082-0.93l-0.726-4.747c-0.08-0.513,0.28-0.929,0.797-0.929h6.479c0.514,0,1.024,0.416,1.128,0.918
		l0.978,4.77C100.112,93.33,99.771,93.746,99.258,93.746z M104.318,79.619l-1.198-4.791c-0.129-0.498,0.193-0.907,0.71-0.907h5.791
		c0.514,0,1.062,0.404,1.213,0.901l1.458,4.802c0.147,0.497-0.153,0.902-0.669,0.902h-6.135
		C104.975,80.526,104.445,80.116,104.318,79.619z M115.639,93.746h-6.826c-0.517,0-1.044-0.41-1.169-0.913l-1.202-4.779
		c-0.126-0.503,0.196-0.913,0.71-0.913h6.479c0.516,0,1.065,0.404,1.212,0.901l1.465,4.802
		C116.455,93.341,116.154,93.746,115.639,93.746z"/>
	<path fill="#4D4D4D" d="M128.965,102.858H1v17.41c0,2.589,2.117,4.708,4.703,4.708h118.594c2.586,0,4.703-2.119,4.703-4.708
		L128.965,102.858z M74.14,115.969H51.315c-0.918,0-1.658-0.737-1.658-1.655s0.74-1.661,1.658-1.661H74.14
		c0.917,0,1.66,0.743,1.66,1.661S75.057,115.969,74.14,115.969z"/>
</g>
</svg>
