<?xml version="1.0" encoding="utf-8"?>
<!-- Generator: Adobe Illustrator 16.0.0, SVG Export Plug-In . SVG Version: 6.00 Build 0)  -->
<!DOCTYPE svg PUBLIC "-//W3C//DTD SVG 1.1//EN" "http://www.w3.org/Graphics/SVG/1.1/DTD/svg11.dtd">
<svg version="1.1" id="Layer_1" xmlns="http://www.w3.org/2000/svg" xmlns:xlink="http://www.w3.org/1999/xlink" x="0px" y="0px"
	 width="130px" height="130px" viewBox="0 0 130 130" enable-background="new 0 0 130 130" xml:space="preserve">
<rect fill="none" width="130" height="130"/>
<g>
	<g>
		<path fill="#4D4D4D" d="M113.798,11.869H16.202h-4.345v4.345v63.705v4.345h4.345h97.596h4.345v-4.345V16.214v-4.345H113.798z
			 M113.798,79.919H16.202V16.214h97.596V79.919z"/>
	</g>
	<path fill="#4D4D4D" d="M4.923,17.546l120.122,0.02c2.168,0,3.927-1.812,3.927-4.048c0-2.234-1.759-4.046-3.924-4.046L4.925,9.451
		C2.752,9.451,1,11.263,1,13.497C0.998,15.732,2.752,17.546,4.923,17.546z M125.075,79.928L4.955,79.904
		c-2.175,0-3.927,1.822-3.927,4.071c0,2.247,1.752,4.068,3.927,4.068l120.12,0.021c2.165,0,3.925-1.824,3.925-4.071
		C129.002,81.748,127.245,79.928,125.075,79.928z"/>
	<g>
		<path fill="#4D4D4D" d="M48.825,93.273l-20.68,20.535c-1.536,1.532-1.555,4.025-0.03,5.575c0.773,0.777,1.78,1.165,2.795,1.165
			c0.995,0.005,1.998-0.376,2.762-1.137l20.68-20.536c1.543-1.529,1.558-4.026,0.03-5.572C52.856,91.76,50.364,91.737,48.825,93.273
			z"/>
		<path fill="#4D4D4D" d="M80.548,93.273l20.68,20.535c1.536,1.532,1.555,4.025,0.03,5.575c-0.772,0.777-1.78,1.165-2.795,1.165
			c-0.995,0.005-1.998-0.376-2.762-1.137l-20.68-20.536c-1.543-1.529-1.557-4.026-0.03-5.572
			C76.517,91.76,79.009,91.737,80.548,93.273z"/>
	</g>
	<path fill="#4D4D4D" d="M88.119,34.773c-1.04,0.103-1.959-0.854-1.966-1.935l-0.019-1.614l-14.622,16.16
		c-0.355,0.395-0.856,0.625-1.388,0.641c-0.518,0.01-1.04-0.187-1.418-0.558L51.516,30.559L34.552,46.138
		c-0.789,0.73-2.024,0.677-2.751-0.122c-0.724-0.796-0.67-2.034,0.123-2.763L50.25,26.421c0.764-0.702,1.938-0.68,2.679,0.045
		L69.99,43.252l13.26-14.656l-1.604,0.136c-1.062,0.092-2.015-0.709-2.103-1.784c-0.091-1.077,0.701-2.022,1.778-2.116l6.54-0.555
		l0.162-0.007c0.485,0,0.949,0.179,1.314,0.507c0.396,0.365,0.629,0.884,0.636,1.427l0.071,6.589
		C90.06,33.875,89.196,34.759,88.119,34.773z"/>
	<path fill="#4D4D4D" d="M37.831,72.299c0,0.55-0.45,1.001-1,1.001h-4.236c-0.55,0-1-0.451-1-1.001V58.399
		c0-0.548,0.45-0.999,1-0.999h4.236c0.55,0,1,0.451,1,0.999V72.299z"/>
	<path fill="#4D4D4D" d="M46.925,72.299c0,0.55-0.453,1.001-1.003,1.001h-4.233c-0.553,0-1.003-0.451-1.003-1.001V51.646
		c0-0.551,0.45-1.001,1.003-1.001h4.233c0.55,0,1.003,0.45,1.003,1.001V72.299z"/>
	<path fill="#4D4D4D" d="M56.014,72.299c0,0.55-0.45,1.001-0.998,1.001h-4.238c-0.548,0-0.998-0.451-0.998-1.001V43.331
		c0-0.55,0.45-1,0.998-1h4.238c0.548,0,0.998,0.45,0.998,1V72.299z"/>
	<path fill="#4D4D4D" d="M65.109,72.299c0,0.55-0.453,1.001-1.003,1.001h-4.233c-0.553,0-1.003-0.451-1.003-1.001V52.424
		c0-0.55,0.45-1,1.003-1h4.233c0.55,0,1.003,0.45,1.003,1V72.299z"/>
	<path fill="#4D4D4D" d="M74.2,72.299c0,0.55-0.45,1.001-1,1.001h-4.236c-0.55,0-1-0.451-1-1.001V58.399c0-0.548,0.45-0.999,1-0.999
		H73.2c0.55,0,1,0.451,1,0.999V72.299z"/>
	<path fill="#4D4D4D" d="M83.294,72.299c0,0.55-0.453,1.001-1.003,1.001h-4.233c-0.55,0-1-0.451-1-1.001V51.387
		c0-0.55,0.45-1.001,1-1.001h4.233c0.55,0,1.003,0.451,1.003,1.001V72.299z"/>
	<path fill="#4D4D4D" d="M92.383,72.299c0,0.55-0.448,1.001-0.998,1.001h-4.236c-0.548,0-0.998-0.451-0.998-1.001V46.19
		c0-0.55,0.45-1,0.998-1h4.236c0.55,0,0.998,0.45,0.998,1V72.299z"/>
</g>
</svg>
