<?xml version="1.0" encoding="utf-8"?>
<!-- Generator: Adobe Illustrator 16.0.0, SVG Export Plug-In . SVG Version: 6.00 Build 0)  -->
<!DOCTYPE svg PUBLIC "-//W3C//DTD SVG 1.1//EN" "http://www.w3.org/Graphics/SVG/1.1/DTD/svg11.dtd">
<svg version="1.1" id="Layer_1" xmlns="http://www.w3.org/2000/svg" xmlns:xlink="http://www.w3.org/1999/xlink" x="0px" y="0px"
	 width="130px" height="130px" viewBox="0 0 130 130" enable-background="new 0 0 130 130" xml:space="preserve">
<rect fill="none" width="130" height="130"/>
<g>
	<g>
		<path fill="#4D4D4D" d="M12.035,56.876H2.899C1.854,56.876,1,57.604,1,58.508c0,0.898,0.854,1.626,1.899,1.626h9.136
			c1.045,0,1.899-0.728,1.899-1.626C13.935,57.604,13.08,56.876,12.035,56.876z M12.035,30.973H2.899
			C1.854,30.973,1,31.693,1,32.581c0,0.886,0.854,1.608,1.899,1.608h9.136c1.045,0,1.899-0.722,1.899-1.608
			C13.935,31.693,13.08,30.973,12.035,30.973z M12.035,81.196H2.899C1.854,81.196,1,81.93,1,82.831s0.854,1.629,1.899,1.629h9.136
			c1.045,0,1.899-0.728,1.899-1.629S13.08,81.196,12.035,81.196z M12.035,105.533H2.899c-1.045,0-1.899,0.717-1.899,1.604
			c0,0.888,0.854,1.609,1.899,1.609h9.136c1.045,0,1.899-0.722,1.899-1.609C13.935,106.25,13.08,105.533,12.035,105.533z
			 M20.423,116.866c-0.888,0-1.602,0.75-1.602,1.673v8.021c0,0.923,0.714,1.673,1.602,1.673c0.885,0,1.606-0.75,1.606-1.673v-8.021
			C22.029,117.616,21.308,116.866,20.423,116.866z M12.035,5.024H2.899C1.854,5.024,1,5.753,1,6.653c0,0.901,0.854,1.63,1.899,1.63
			h9.136c1.045,0,1.899-0.729,1.899-1.63C13.935,5.753,13.08,5.024,12.035,5.024z M46.347,116.866c-0.901,0-1.626,0.75-1.626,1.673
			v8.021c0,0.923,0.725,1.673,1.626,1.673c0.898,0,1.629-0.75,1.629-1.673v-8.021C47.976,117.616,47.245,116.866,46.347,116.866z
			 M120.928,116.866c-0.891,0-1.607,0.75-1.607,1.673v8.021c0,0.923,0.717,1.673,1.607,1.673c0.885,0,1.604-0.75,1.604-1.673v-8.021
			C122.531,117.616,121.812,116.866,120.928,116.866z M123.882,103.885H25.565L25.312,6.913c0-2.841-1.805-5.146-4.636-5.146
			c-2.825,0-5.109,2.292-5.109,5.121v101.615c0,2.828,2.284,5.118,5.109,5.118h103.217c2.822,0,5.107-2.29,5.107-5.118
			C129,105.674,126.713,103.885,123.882,103.885z M70.672,116.866c-0.898,0-1.629,0.75-1.629,1.673v8.021
			c0,0.923,0.73,1.673,1.629,1.673c0.901,0,1.629-0.75,1.629-1.673v-8.021C72.301,117.616,71.573,116.866,70.672,116.866z
			 M96.599,116.866c-0.89,0-1.601,0.75-1.601,1.673v8.021c0,0.923,0.711,1.673,1.601,1.673c0.888,0,1.61-0.75,1.61-1.673v-8.021
			C98.209,117.616,97.486,116.866,96.599,116.866z"/>
	</g>
	<path fill="#4D4D4D" d="M124.337,31.203L113.602,19.59c-0.954-1.038-2.299-1.626-3.699-1.626c-1.581,0.074-2.756,0.597-3.712,1.648
		L95.526,31.29c-1.901,2.08-1.771,5.322,0.281,7.243c0.976,0.913,2.205,1.364,3.44,1.364c1.351,0,2.717-0.555,3.715-1.648
		l0.824-0.904c-3.288,11.819-12.626,11.92-26.299,12.001c-7.437,0.045-15.126,0.092-21.887,2.39
		C36.609,56.54,36.609,75.854,36.609,87.393c0,2.827,2.273,5.12,5.068,5.12c2.798,0,5.061-2.293,5.061-5.12
		c0-13.379,0.815-23.053,11.699-25.82c5.593-1.891,12.464-1.935,19.114-1.974c14.927-0.088,33.076-0.267,36.907-24.069l2.472,2.677
		c1.919,2.071,5.124,2.175,7.161,0.243C126.131,36.517,126.238,33.274,124.337,31.203z"/>
</g>
</svg>
