<?xml version="1.0" encoding="utf-8"?>
<!-- Generator: Adobe Illustrator 16.0.0, SVG Export Plug-In . SVG Version: 6.00 Build 0)  -->
<!DOCTYPE svg PUBLIC "-//W3C//DTD SVG 1.1//EN" "http://www.w3.org/Graphics/SVG/1.1/DTD/svg11.dtd">
<svg version="1.1" id="Layer_1" xmlns="http://www.w3.org/2000/svg" xmlns:xlink="http://www.w3.org/1999/xlink" x="0px" y="0px"
	 width="130px" height="130px" viewBox="0 0 130 130" enable-background="new 0 0 130 130" xml:space="preserve">
<rect fill="none" width="130" height="130"/>
<g>
	<g>
		<path fill="#4D4D4D" d="M113.796,11.862H16.204h-4.345v4.345v63.705v4.345h4.345h97.592h4.345v-4.345V16.207v-4.345H113.796z
			 M113.796,79.912H16.204V16.207h97.592V79.912z"/>
	</g>
	<path fill="#4D4D4D" d="M4.925,17.539l120.118,0.02c2.17,0,3.927-1.812,3.927-4.047c0-2.233-1.757-4.047-3.925-4.047L4.925,9.443
		C2.752,9.443,1,11.256,1,13.49C0.998,15.725,2.752,17.539,4.925,17.539z M125.075,79.919L4.957,79.898
		c-2.177,0-3.927,1.821-3.927,4.07c0,2.247,1.75,4.069,3.927,4.069l120.118,0.021c2.163,0,3.925-1.824,3.925-4.071
		C129.002,81.741,127.243,79.919,125.075,79.919z"/>
	<g>
		<path fill="#4D4D4D" d="M48.828,93.267l-20.68,20.536c-1.539,1.529-1.558,4.024-0.033,5.574c0.773,0.775,1.783,1.165,2.795,1.165
			c0.998,0.003,2.001-0.376,2.762-1.137l20.68-20.536c1.543-1.529,1.558-4.026,0.03-5.574C52.856,91.754,50.364,91.73,48.828,93.267
			z"/>
		<path fill="#4D4D4D" d="M81.19,93.276c-1.543-1.539-4.033-1.519-5.565,0.022c-1.524,1.546-1.509,4.044,0.03,5.575l20.659,20.54
			c0.768,0.764,1.772,1.143,2.771,1.143c1.02,0,2.026-0.391,2.795-1.168c1.527-1.543,1.513-4.04-0.028-5.572L81.19,93.276z"/>
	</g>
	<g>
		<path fill="#4D4D4D" d="M27.449,69.619l-2.413-2.191l23.769-26.157c0.383-0.42,0.954-0.615,1.513-0.505l23.521,4.502L99.607,28
			l1.815,2.706L75.096,48.346c-0.357,0.238-0.793,0.326-1.214,0.247l-23.278-4.455L27.449,69.619z"/>
	</g>
	<path fill="#4D4D4D" d="M30.859,68.521c0,2.554-2.068,4.619-4.617,4.619c-2.551,0-4.618-2.065-4.618-4.619
		c0-2.548,2.067-4.616,4.618-4.616C28.791,63.904,30.859,65.973,30.859,68.521z"/>
	<circle fill="#4D4D4D" cx="50.052" cy="42.408" r="4.618"/>
	<circle fill="#4D4D4D" cx="75.281" cy="45.672" r="4.618"/>
	<circle fill="#4D4D4D" cx="100.353" cy="29.847" r="4.619"/>
</g>
</svg>
