<?xml version="1.0" encoding="utf-8"?>
<!-- Generator: Adobe Illustrator 16.0.0, SVG Export Plug-In . SVG Version: 6.00 Build 0)  -->
<!DOCTYPE svg PUBLIC "-//W3C//DTD SVG 1.1//EN" "http://www.w3.org/Graphics/SVG/1.1/DTD/svg11.dtd">
<svg version="1.1" id="Layer_1" xmlns="http://www.w3.org/2000/svg" xmlns:xlink="http://www.w3.org/1999/xlink" x="0px" y="0px"
	 width="130px" height="130px" viewBox="0 0 130 130" enable-background="new 0 0 130 130" xml:space="preserve">
<rect fill="none" width="130" height="130"/>
<g>
	<path fill="#4D4D4D" d="M104.823,44.086c-1.472,0.146-2.781-1.214-2.786-2.744l-0.03-2.292L81.268,61.973
		c-0.505,0.562-1.219,0.891-1.971,0.91c-0.733,0.017-1.472-0.265-2.01-0.789L52.899,38.105L28.833,60.209
		c-1.116,1.031-2.869,0.959-3.899-0.176c-1.028-1.13-0.951-2.886,0.176-3.919l25.995-23.877c1.083-0.995,2.751-0.963,3.798,0.066
		l24.204,23.811l18.811-20.792l-2.274,0.193c-1.51,0.129-2.857-1.004-2.984-2.53c-0.127-1.528,0.997-2.871,2.521-3.001l9.277-0.787
		l0.231-0.008c0.688,0,1.348,0.252,1.865,0.72c0.56,0.517,0.894,1.252,0.901,2.023l0.103,9.347
		C107.574,42.812,106.351,44.065,104.823,44.086z"/>
	<path fill="#4D4D4D" d="M33.488,110.243c0,0.782-0.64,1.419-1.422,1.419h-6.006c-0.783,0-1.422-0.637-1.422-1.419V77.6
		c0-0.777,0.639-1.416,1.422-1.416h6.006c0.782,0,1.422,0.639,1.422,1.416V110.243z"/>
	<path fill="#4D4D4D" d="M46.384,110.243c0,0.782-0.643,1.419-1.42,1.419h-6.005c-0.785,0-1.42-0.637-1.42-1.419V68.02
		c0-0.782,0.635-1.422,1.42-1.422h6.005c0.777,0,1.42,0.64,1.42,1.422V110.243z"/>
	<path fill="#4D4D4D" d="M59.276,110.243c0,0.782-0.634,1.419-1.411,1.419h-6.014c-0.777,0-1.416-0.637-1.416-1.419v-54.02
		c0-0.78,0.639-1.42,1.416-1.42h6.014c0.777,0,1.411,0.641,1.411,1.42V110.243z"/>
	<path fill="#4D4D4D" d="M72.184,110.243c0,0.782-0.643,1.419-1.423,1.419h-6.008c-0.78,0-1.42-0.637-1.42-1.419V69.122
		c0-0.777,0.64-1.417,1.42-1.417h6.008c0.78,0,1.423,0.64,1.423,1.417V110.243z"/>
	<path fill="#4D4D4D" d="M85.079,110.243c0,0.782-0.634,1.419-1.42,1.419h-6.008c-0.78,0-1.417-0.637-1.417-1.419V77.6
		c0-0.777,0.637-1.416,1.417-1.416h6.008c0.786,0,1.42,0.639,1.42,1.416V110.243z"/>
	<path fill="#4D4D4D" d="M97.98,110.243c0,0.782-0.643,1.419-1.423,1.419h-6.005c-0.78,0-1.42-0.637-1.42-1.419V67.65
		c0-0.777,0.64-1.419,1.42-1.419h6.005c0.78,0,1.423,0.642,1.423,1.419V110.243z"/>
	<path fill="#4D4D4D" d="M110.873,110.243c0,0.782-0.64,1.419-1.42,1.419h-6.002c-0.783,0-1.42-0.637-1.42-1.419V60.281
		c0-0.78,0.637-1.419,1.42-1.419h6.002c0.78,0,1.42,0.64,1.42,1.419V110.243z"/>
	<path fill="#4D4D4D" d="M9.667,110.397V15.269c0-2.392-1.939-4.331-4.332-4.331C2.939,10.938,1,12.876,1,15.269v99.461
		c0,2.397,1.939,4.333,4.335,4.333h119.332c2.396,0,4.333-1.936,4.333-4.333c0-2.387-1.938-4.332-4.333-4.332H9.667z"/>
</g>
</svg>
