<?xml version="1.0" encoding="utf-8"?>
<!-- Generator: Adobe Illustrator 16.0.0, SVG Export Plug-In . SVG Version: 6.00 Build 0)  -->
<!DOCTYPE svg PUBLIC "-//W3C//DTD SVG 1.1//EN" "http://www.w3.org/Graphics/SVG/1.1/DTD/svg11.dtd">
<svg version="1.1" id="Layer_1" xmlns="http://www.w3.org/2000/svg" xmlns:xlink="http://www.w3.org/1999/xlink" x="0px" y="0px"
	 width="130px" height="130px" viewBox="0 0 130 130" enable-background="new 0 0 130 130" xml:space="preserve">
<rect fill="none" width="130" height="130"/>
<g>
	<path fill="#4D4D4D" d="M124.588,35.167c-2.264-0.224-4.264,1.859-4.283,4.207l-0.041,3.511L88.469,7.739
		c-0.774-0.857-1.863-1.359-3.013-1.392c-1.126-0.021-2.264,0.406-3.088,1.213L44.986,44.332L8.092,10.45
		C6.374,8.864,3.687,8.98,2.11,10.717c-1.582,1.731-1.457,4.421,0.27,6.008l39.849,36.605c1.66,1.525,4.215,1.476,5.828-0.1
		l37.098-36.502l28.835,31.873l-3.48-0.296c-2.315-0.2-4.382,1.54-4.577,3.88c-0.194,2.339,1.53,4.398,3.866,4.599l14.225,1.208
		l0.354,0.012c1.057,0,2.066-0.389,2.856-1.103c0.864-0.794,1.373-1.92,1.384-3.101l0.16-14.33
		C128.8,37.118,126.925,35.195,124.588,35.167z"/>
	<path fill="#4D4D4D" d="M54.001,121.479c0,1.196-0.981,2.174-2.177,2.174h-9.209c-1.196,0-2.177-0.978-2.177-2.174v-48.03
		c0-1.195,0.98-2.177,2.177-2.177h9.209c1.195,0,2.177,0.981,2.177,2.177V121.479z"/>
	<path fill="#4D4D4D" d="M91.502,121.479c0,1.196-0.981,2.174-2.177,2.174h-9.209c-1.196,0-2.177-0.978-2.177-2.174V43.854
		c0-1.197,0.98-2.177,2.177-2.177h9.209c1.195,0,2.177,0.979,2.177,2.177V121.479z"/>
	<path fill="#4D4D4D" d="M16.5,121.479c0,1.196-0.979,2.174-2.177,2.174H5.117c-1.199,0-2.177-0.978-2.177-2.174V47.693
		c0-1.197,0.978-2.177,2.177-2.177h9.206c1.198,0,2.177,0.979,2.177,2.177V121.479z"/>
	<path fill="#4D4D4D" d="M129,121.479c0,1.196-0.979,2.174-2.177,2.174h-9.209c-1.196,0-2.174-0.978-2.174-2.174V78
		c0-1.195,0.978-2.177,2.174-2.177h9.209c1.198,0,2.177,0.981,2.177,2.177V121.479z"/>
	<path fill="#4D4D4D" d="M110.251,121.479c0,1.196-0.981,2.174-2.177,2.174h-9.209c-1.196,0-2.177-0.978-2.177-2.174V73.652
		c0-1.195,0.98-2.177,2.177-2.177h9.209c1.195,0,2.177,0.981,2.177,2.177V121.479z"/>
	<path fill="#4D4D4D" d="M35.249,121.479c0,1.196-0.979,2.174-2.174,2.174h-9.209c-1.199,0-2.177-0.978-2.177-2.174V65.21
		c0-1.199,0.978-2.177,2.177-2.177h9.209c1.195,0,2.174,0.978,2.174,2.177V121.479z"/>
	<path fill="#4D4D4D" d="M72.75,121.479c0,1.196-0.979,2.174-2.177,2.174h-9.209c-1.193,0-2.174-0.978-2.174-2.174V60.815
		c0-1.196,0.98-2.174,2.174-2.174h9.209c1.198,0,2.177,0.978,2.177,2.174V121.479z"/>
</g>
</svg>
