<?xml version="1.0" encoding="utf-8"?>
<!-- Generator: Adobe Illustrator 16.0.0, SVG Export Plug-In . SVG Version: 6.00 Build 0)  -->
<!DOCTYPE svg PUBLIC "-//W3C//DTD SVG 1.1//EN" "http://www.w3.org/Graphics/SVG/1.1/DTD/svg11.dtd">
<svg version="1.1" id="Layer_1" xmlns="http://www.w3.org/2000/svg" xmlns:xlink="http://www.w3.org/1999/xlink" x="0px" y="0px"
	 width="130px" height="130px" viewBox="0 0 130 130" enable-background="new 0 0 130 130" xml:space="preserve">
<rect fill="none" width="130" height="130"/>
<g>
	<path fill="#4D4D4D" d="M120.065,29.05c-2.179,0.215-4.109-1.792-4.118-4.054l-0.043-3.384L85.272,55.473
		c-0.746,0.824-1.798,1.309-2.911,1.343c-1.08,0.017-2.176-0.392-2.969-1.17L43.372,20.218L7.83,52.86
		c-1.654,1.529-4.24,1.418-5.762-0.255c-1.519-1.669-1.406-4.264,0.26-5.789l38.393-35.269c1.6-1.47,4.063-1.424,5.611,0.098
		l35.747,35.167l27.784-30.707l-3.358,0.284c-2.23,0.191-4.222-1.484-4.412-3.737c-0.185-2.257,1.476-4.24,3.729-4.433l13.701-1.163
		l0.341-0.013c1.017,0,1.991,0.373,2.755,1.063c0.83,0.762,1.32,1.85,1.332,2.987l0.149,13.807
		C124.127,27.167,122.319,29.02,120.065,29.05z"/>
	<path fill="#4D4D4D" d="M14.701,120.86c0,1.155-0.945,2.095-2.102,2.095H3.731c-1.155,0-2.101-0.939-2.101-2.095V75.599
		c0-1.149,0.945-2.095,2.101-2.095H12.6c1.156,0,2.102,0.945,2.102,2.095V120.86z"/>
	<path fill="#4D4D4D" d="M33.749,120.86c0,1.155-0.948,2.095-2.096,2.095h-8.874c-1.155,0-2.095-0.939-2.095-2.095V61.445
		c0-1.15,0.939-2.095,2.095-2.095h8.874c1.147,0,2.096,0.945,2.096,2.095V120.86z"/>
	<path fill="#4D4D4D" d="M52.794,120.86c0,1.155-0.939,2.095-2.09,2.095h-8.88c-1.149,0-2.092-0.939-2.092-2.095V44.025
		c0-1.151,0.942-2.097,2.092-2.097h8.88c1.15,0,2.09,0.945,2.09,2.097V120.86z"/>
	<path fill="#4D4D4D" d="M71.854,120.86c0,1.155-0.945,2.095-2.099,2.095h-8.874c-1.152,0-2.095-0.939-2.095-2.095V63.076
		c0-1.147,0.942-2.092,2.095-2.092h8.874c1.153,0,2.099,0.945,2.099,2.092V120.86z"/>
	<path fill="#4D4D4D" d="M90.904,120.86c0,1.155-0.939,2.095-2.099,2.095h-8.877c-1.152,0-2.092-0.939-2.092-2.095V75.599
		c0-1.149,0.939-2.095,2.092-2.095h8.877c1.159,0,2.099,0.945,2.099,2.095V120.86z"/>
	<path fill="#4D4D4D" d="M109.955,120.86c0,1.155-0.948,2.095-2.101,2.095h-8.869c-1.152,0-2.095-0.939-2.095-2.095V60.903
		c0-1.153,0.942-2.099,2.095-2.099h8.869c1.152,0,2.101,0.945,2.101,2.099V120.86z"/>
	<path fill="#4D4D4D" d="M129,120.86c0,1.155-0.945,2.095-2.098,2.095h-8.866c-1.152,0-2.098-0.939-2.098-2.095V50.016
		c0-1.15,0.945-2.094,2.098-2.094h8.866c1.152,0,2.098,0.944,2.098,2.094V120.86z"/>
</g>
</svg>
