<?xml version="1.0" encoding="utf-8"?>
<!-- Generator: Adobe Illustrator 16.0.0, SVG Export Plug-In . SVG Version: 6.00 Build 0)  -->
<!DOCTYPE svg PUBLIC "-//W3C//DTD SVG 1.1//EN" "http://www.w3.org/Graphics/SVG/1.1/DTD/svg11.dtd">
<svg version="1.1" id="Layer_1" xmlns="http://www.w3.org/2000/svg" xmlns:xlink="http://www.w3.org/1999/xlink" x="0px" y="0px"
	 width="130px" height="130px" viewBox="0 0 130 130" enable-background="new 0 0 130 130" xml:space="preserve">
<rect fill="none" width="130" height="130"/>
<g>
	<path fill="#4D4D4D" d="M12.035,30.976H2.901C1.849,30.976,1,31.696,1,32.581c0,0.887,0.849,1.609,1.901,1.609h9.134
		c1.048,0,1.896-0.722,1.896-1.609C13.932,31.696,13.083,30.976,12.035,30.976z M12.035,56.875H2.901
		C1.849,56.875,1,57.605,1,58.506c0,0.898,0.849,1.626,1.901,1.626h9.134c1.048,0,1.896-0.728,1.896-1.626
		C13.932,57.605,13.083,56.875,12.035,56.875z M12.035,81.201H2.901C1.849,81.201,1,81.932,1,82.832
		c0,0.898,0.849,1.629,1.901,1.629h9.134c1.048,0,1.896-0.73,1.896-1.629C13.932,81.932,13.083,81.201,12.035,81.201z M12.035,5.022
		H2.901C1.849,5.022,1,5.753,1,6.656c0,0.899,0.849,1.628,1.901,1.628h9.134c1.048,0,1.896-0.729,1.896-1.628
		C13.932,5.753,13.083,5.022,12.035,5.022z M12.035,105.529H2.901c-1.053,0-1.901,0.721-1.901,1.605
		c0,0.889,0.849,1.611,1.901,1.611h9.134c1.048,0,1.896-0.723,1.896-1.611C13.932,106.25,13.083,105.529,12.035,105.529z
		 M120.925,116.865c-0.894,0-1.604,0.75-1.604,1.676v8.02c0,0.92,0.711,1.67,1.604,1.67c0.882,0,1.604-0.75,1.604-1.67v-8.02
		C122.528,117.615,121.807,116.865,120.925,116.865z M20.425,116.865c-0.893,0-1.609,0.75-1.609,1.676v8.02
		c0,0.92,0.717,1.67,1.609,1.67c0.883,0,1.604-0.75,1.604-1.67v-8.02C22.029,117.615,21.308,116.865,20.425,116.865z
		 M123.879,103.889H25.568L25.314,6.916c0-2.842-1.808-5.147-4.636-5.147c-2.833,0-5.109,2.293-5.109,5.121v101.612
		c0,2.828,2.276,5.121,5.109,5.121h103.217c2.817,0,5.104-2.293,5.104-5.121C129,105.676,126.707,103.889,123.879,103.889z
		 M96.599,116.865c-0.893,0-1.604,0.75-1.604,1.676v8.02c0,0.92,0.711,1.67,1.604,1.67c0.888,0,1.61-0.75,1.61-1.67v-8.02
		C98.209,117.615,97.486,116.865,96.599,116.865z M70.669,116.865c-0.898,0-1.626,0.75-1.626,1.676v8.02
		c0,0.92,0.728,1.67,1.626,1.67s1.632-0.75,1.632-1.67v-8.02C72.301,117.615,71.567,116.865,70.669,116.865z M46.344,116.865
		c-0.904,0-1.626,0.75-1.626,1.676v8.02c0,0.92,0.722,1.67,1.626,1.67c0.898,0,1.632-0.75,1.632-1.67v-8.02
		C47.976,117.615,47.242,116.865,46.344,116.865z"/>
	<g>
		<polygon fill="#4D4D4D" points="44.588,88.648 39.07,83.504 68.773,51.625 104.931,50.406 115.404,10.817 122.696,12.747 
			110.79,57.757 72.157,59.061 		"/>
	</g>
	<path fill="#4D4D4D" d="M49.883,83.971c1.295,4.539-1.334,9.279-5.871,10.58c-4.542,1.295-9.282-1.334-10.577-5.875
		c-1.296-4.543,1.334-9.277,5.87-10.576C43.853,76.801,48.587,79.432,49.883,83.971z"/>
	<path fill="#4D4D4D" d="M78.85,53.12c1.295,4.541-1.334,9.278-5.871,10.574c-4.542,1.295-9.276-1.331-10.577-5.876
		c-1.29-4.535,1.334-9.27,5.876-10.568C72.819,45.951,77.549,48.581,78.85,53.12z"/>
	<path fill="#4D4D4D" d="M115.875,51.422c1.301,4.541-1.328,9.276-5.87,10.574c-4.537,1.296-9.277-1.334-10.572-5.87
		c-1.301-4.546,1.334-9.277,5.876-10.578C109.845,44.249,114.58,46.881,115.875,51.422z"/>
	<path fill="#4D4D4D" d="M127.341,9.427c1.295,4.541-1.34,9.271-5.876,10.573c-4.542,1.295-9.271-1.33-10.572-5.874
		c-1.296-4.541,1.328-9.276,5.87-10.574C121.305,2.257,126.034,4.883,127.341,9.427z"/>
</g>
</svg>
