<?xml version="1.0" encoding="utf-8"?>
<!-- Generator: Adobe Illustrator 16.0.0, SVG Export Plug-In . SVG Version: 6.00 Build 0)  -->
<!DOCTYPE svg PUBLIC "-//W3C//DTD SVG 1.1//EN" "http://www.w3.org/Graphics/SVG/1.1/DTD/svg11.dtd">
<svg version="1.1" id="Layer_1" xmlns="http://www.w3.org/2000/svg" xmlns:xlink="http://www.w3.org/1999/xlink" x="0px" y="0px"
	 width="130px" height="130px" viewBox="0 0 130 130" enable-background="new 0 0 130 130" xml:space="preserve">
<rect fill="none" width="130" height="130"/>
<g>
	<g>
		<path fill="#4D4D4D" d="M7.576,41.202L127.933,18.26l-2.684-14.635L63.065,15.47l16.381,11.31l-11.415,2.093L51.765,17.623
			L40,19.863l16.178,11.173l-11.412,2.093L28.682,22.02l-11.589,2.208l16.001,11.036l-11.409,2.104L5.78,26.382l-2.705,0.515
			L1,27.114l2.393,14.94L3.34,120.501c0,3.245,2.632,5.874,5.883,5.874h113.9c3.24,0,5.877-2.629,5.877-5.874V41.202H7.576z
			 M108.953,7.035l16.41,11.33l-11.418,2.087L97.547,9.134L108.953,7.035z M74.816,13.297l11.406-2.093l16.401,11.33l-11.409,2.087
			L74.816,13.297z M104.12,41.978L90.026,55.948H78.426L92.52,41.978H104.12z M80.47,41.978l-14.1,13.971H54.775l14.088-13.971
			H80.47z M56.903,41.978L42.805,55.948H31.207L45.3,41.978H56.903z M22.188,41.978h11.606l-14.1,13.971H8.097L22.188,41.978z
			 M127.56,106.148H5.554v-0.611H127.56V106.148z M127.56,69.725H73.887v17.339h53.673v0.617H5.554v-0.617h30.26V69.725H5.56v-0.617
			h122V69.725z M113.501,55.948H101.9l14.088-13.971h11.598L113.501,55.948z"/>
		<rect x="36.425" y="69.725" fill="#4D4D4D" width="36.854" height="17.339"/>
	</g>
	<g>
		<path fill="#4D4D4D" d="M7.576,41.202L127.933,18.26l-2.684-14.635L63.065,15.47l16.381,11.31l-11.415,2.093L51.765,17.623
			L40,19.863l16.178,11.173l-11.412,2.093L28.682,22.02l-11.589,2.208l16.001,11.036l-11.409,2.104L5.78,26.382l-2.705,0.515
			L1,27.114l2.393,14.94L3.34,120.501c0,3.245,2.632,5.874,5.883,5.874h113.9c3.24,0,5.877-2.629,5.877-5.874V41.202H7.576z
			 M108.953,7.035l16.41,11.33l-11.418,2.087L97.547,9.134L108.953,7.035z M74.816,13.297l11.406-2.093l16.401,11.33l-11.409,2.087
			L74.816,13.297z M104.12,41.978L90.026,55.948H78.426L92.52,41.978H104.12z M80.47,41.978l-14.1,13.971H54.775l14.088-13.971
			H80.47z M56.903,41.978L42.805,55.948H31.207L45.3,41.978H56.903z M22.188,41.978h11.606l-14.1,13.971H8.097L22.188,41.978z
			 M127.56,106.148H5.554v-0.611H127.56V106.148z M127.56,69.725H73.887v17.339h53.673v0.617H5.554v-0.617h30.26V69.725H5.56v-0.617
			h122V69.725z M113.501,55.948H101.9l14.088-13.971h11.598L113.501,55.948z"/>
		<rect x="36.425" y="69.725" fill="#4D4D4D" width="36.854" height="17.339"/>
	</g>
</g>
</svg>
