<?xml version="1.0" encoding="utf-8"?>
<!-- Generator: Adobe Illustrator 16.0.0, SVG Export Plug-In . SVG Version: 6.00 Build 0)  -->
<!DOCTYPE svg PUBLIC "-//W3C//DTD SVG 1.1//EN" "http://www.w3.org/Graphics/SVG/1.1/DTD/svg11.dtd">
<svg version="1.1" id="Layer_1" xmlns="http://www.w3.org/2000/svg" xmlns:xlink="http://www.w3.org/1999/xlink" x="0px" y="0px"
	 width="130px" height="130px" viewBox="0 0 130 130" enable-background="new 0 0 130 130" xml:space="preserve">
<rect fill="none" width="130" height="130"/>
<g>
	<path fill="#4D4D4D" d="M65,1.001c-35.293,0-64.006,28.71-64.006,63.998c0,35.293,28.713,64,64.006,64s64.006-28.707,64.006-64
		C129.006,29.711,100.293,1.001,65,1.001z M65,121.319c-31.06,0-56.326-25.267-56.326-56.32C8.674,33.943,33.94,8.678,65,8.678
		s56.326,25.266,56.326,56.321C121.326,96.053,96.06,121.319,65,121.319z"/>
	<path fill="#4D4D4D" d="M58.021,63.37H37.052c-0.889,0-1.611,0.721-1.611,1.611c0,0.888,0.723,1.614,1.611,1.614h20.969
		c0.888,0,1.611-0.727,1.611-1.614C59.632,64.091,58.908,63.37,58.021,63.37z"/>
	<path fill="#4D4D4D" d="M64.994,23.058c-0.888,0-1.605,0.723-1.605,1.611v37.09c0,0.888,0.718,1.611,1.605,1.611
		c0.894,0,1.617-0.724,1.617-1.611v-37.09C66.611,23.78,65.888,23.058,64.994,23.058z"/>
	<path fill="#4D4D4D" d="M65,55.727c-4.657,0-8.45,3.792-8.45,8.449S60.343,72.62,65,72.62s8.45-3.787,8.45-8.444
		S69.657,55.727,65,55.727z"/>
	<rect x="63.389" y="8.545" fill="#4D4D4D" width="3.223" height="9.675"/>
	<rect x="63.389" y="111.746" fill="#4D4D4D" width="3.223" height="9.674"/>
	<rect x="111.747" y="63.37" fill="#4D4D4D" width="9.674" height="3.226"/>
	<rect x="8.397" y="63.37" fill="#4D4D4D" width="9.679" height="3.226"/>
</g>
</svg>
