<?xml version="1.0" encoding="utf-8"?>
<!-- Generator: Adobe Illustrator 16.0.0, SVG Export Plug-In . SVG Version: 6.00 Build 0)  -->
<!DOCTYPE svg PUBLIC "-//W3C//DTD SVG 1.1//EN" "http://www.w3.org/Graphics/SVG/1.1/DTD/svg11.dtd">
<svg version="1.1" id="Layer_1" xmlns="http://www.w3.org/2000/svg" xmlns:xlink="http://www.w3.org/1999/xlink" x="0px" y="0px"
	 width="130px" height="130px" viewBox="0 0 130 130" enable-background="new 0 0 130 130" xml:space="preserve">
<rect fill="none" width="130" height="130"/>
<g>
	<path fill="#4D4D4D" d="M25.994,122.973c-1.195,1.768-0.732,4.169,1.031,5.364c0.667,0.451,1.424,0.662,2.161,0.662
		c1.24,0,2.461-0.593,3.203-1.693l5.255-7.76c-2.271-1.245-4.408-2.683-6.48-4.22L25.994,122.973z M104.011,122.973l-5.18-7.644
		c-2.062,1.534-4.204,2.972-6.471,4.217l5.25,7.76c0.747,1.101,1.968,1.693,3.203,1.693c0.742,0,1.499-0.211,2.161-0.662
		C104.738,127.142,105.206,124.74,104.011,122.973z"/>
	<path fill="#4D4D4D" d="M65,13.558c-29.896,0-54.218,24.317-54.218,54.21S35.104,121.981,65,121.981s54.218-24.319,54.218-54.213
		S94.896,13.558,65,13.558z M65,115.471c-26.305,0-47.713-21.397-47.713-47.702C17.287,41.461,38.695,20.06,65,20.06
		c26.31,0,47.713,21.402,47.713,47.709C112.713,94.073,91.31,115.471,65,115.471z"/>
	<path fill="#4D4D4D" d="M88.884,66.386H71.127c-0.758,0-1.37,0.613-1.37,1.368c0,0.752,0.612,1.364,1.37,1.364h17.757
		c0.752,0,1.364-0.612,1.364-1.364C90.248,66.999,89.636,66.386,88.884,66.386z"/>
	<path fill="#4D4D4D" d="M65,32.24c-0.757,0-1.365,0.613-1.365,1.365v31.417c0,0.755,0.608,1.364,1.365,1.364
		c0.752,0,1.365-0.609,1.365-1.364V33.605C66.365,32.853,65.752,32.24,65,32.24z"/>
	<path fill="#4D4D4D" d="M65,59.914c-3.945,0-7.157,3.21-7.157,7.155c0,3.947,3.212,7.155,7.157,7.155s7.157-3.208,7.157-7.155
		C72.157,63.124,68.945,59.914,65,59.914z"/>
	<rect x="63.635" y="19.947" fill="#4D4D4D" width="2.73" height="8.195"/>
	<rect x="63.635" y="107.362" fill="#4D4D4D" width="2.73" height="8.198"/>
	<rect x="60.905" y="66.386" fill="#4D4D4D" width="8.194" height="2.732"/>
	<rect x="17.287" y="66.386" fill="#4D4D4D" width="8.194" height="2.732"/>
	<rect x="104.544" y="66.386" fill="#4D4D4D" width="8.193" height="2.732"/>
	<path fill="#4D4D4D" d="M102.965,3.754c-8.129-4.54-18.245-3.27-26.912,2.374l39.021,21.78
		C115.333,17.562,111.108,8.294,102.965,3.754z M27.03,3.754c-8.124,4.54-12.358,13.807-12.099,24.154l39.016-21.78
		C45.271,0.484,35.169-0.786,27.03,3.754z"/>
</g>
</svg>
