<?xml version="1.0" encoding="utf-8"?>
<!-- Generator: Adobe Illustrator 16.0.0, SVG Export Plug-In . SVG Version: 6.00 Build 0)  -->
<!DOCTYPE svg PUBLIC "-//W3C//DTD SVG 1.1//EN" "http://www.w3.org/Graphics/SVG/1.1/DTD/svg11.dtd">
<svg version="1.1" id="Layer_1" xmlns="http://www.w3.org/2000/svg" xmlns:xlink="http://www.w3.org/1999/xlink" x="0px" y="0px"
	 width="130px" height="130px" viewBox="0 0 130 130" enable-background="new 0 0 130 130" xml:space="preserve">
<rect fill="none" width="130" height="130"/>
<g>
	<polygon fill="#4D4D4D" points="53.606,71.212 52.734,70.336 52.734,70.356 53.601,71.22 53.601,129 76.399,129 76.399,71.22 
		77.266,70.356 77.266,70.336 76.394,71.212 	"/>
	<path fill="#4D4D4D" d="M75.298,41.932c0-0.438,0-0.791,0-0.987c-3.545-2.064-4.746-9.714-4.762-9.817v-0.004v-0.012v-7.487h-0.653
		c0,0,0,0,0-1.371C66.547,18.502,65,1,65,1s-1.547,17.502-4.883,21.254c0,1.371,0,1.371,0,1.371h-0.653v7.487v0.012v0.004
		c-0.016,0.103-1.215,7.753-4.762,9.817c0,0.196,0,0.549,0,0.987H65H75.298z M67.262,25.768c0-0.321,0.256-0.579,0.577-0.579
		c0.316,0,0.572,0.258,0.572,0.579v4.869h-1.149V25.768z M65.846,25.768c0-0.321,0.256-0.579,0.57-0.579
		c0.323,0,0.579,0.258,0.579,0.579v4.869h-1.149V25.768z M62.74,30.637h-1.151v-4.869c0-0.321,0.256-0.579,0.578-0.579
		c0.315,0,0.573,0.258,0.573,0.579V30.637z M64.156,30.637h-1.151v-4.869c0-0.321,0.262-0.579,0.579-0.579
		c0.316,0,0.572,0.258,0.572,0.579V30.637z M64.424,25.768c0-0.321,0.261-0.579,0.576-0.579c0.317,0,0.578,0.258,0.578,0.579v4.869
		h-1.154V25.768z"/>
	<path fill="#4D4D4D" d="M75.298,48.21c0,0,0-3.405,0-5.609H65H54.702c0,2.205,0,5.609,0,5.609h-1.968v22.125h24.531V48.21H75.298z
		 M68.155,45.069c0-0.439,0.354-0.796,0.797-0.796c0.439,0,0.794,0.356,0.794,0.796v3.098h-1.591V45.069z M66.183,45.069
		c0-0.439,0.354-0.796,0.79-0.796c0.442,0,0.797,0.356,0.797,0.796v3.098h-1.587V45.069z M64.206,45.069
		c0-0.439,0.353-0.796,0.794-0.796s0.796,0.356,0.796,0.796v3.098h-1.59V45.069z M62.232,45.069c0-0.439,0.354-0.796,0.795-0.796
		c0.438,0,0.796,0.356,0.796,0.796v3.098h-1.591V45.069z M60.254,45.069c0-0.439,0.36-0.796,0.796-0.796
		c0.442,0,0.795,0.356,0.795,0.796v3.098h-1.591V45.069z M58.281,45.069c0-0.439,0.354-0.796,0.796-0.796
		c0.436,0,0.797,0.356,0.797,0.796v3.098h-1.593V45.069z M65,65.899c-3.263,0-5.907-2.646-5.907-5.907
		c0-3.265,2.645-5.911,5.907-5.911c3.265,0,5.907,2.646,5.907,5.911C70.907,63.253,68.265,65.899,65,65.899z M71.719,48.167h-1.591
		v-3.098c0-0.439,0.354-0.796,0.795-0.796c0.441,0,0.796,0.356,0.796,0.796V48.167z"/>
</g>
</svg>
