<?xml version="1.0" encoding="utf-8"?>
<!-- Generator: Adobe Illustrator 16.0.0, SVG Export Plug-In . SVG Version: 6.00 Build 0)  -->
<!DOCTYPE svg PUBLIC "-//W3C//DTD SVG 1.1//EN" "http://www.w3.org/Graphics/SVG/1.1/DTD/svg11.dtd">
<svg version="1.1" id="Layer_1" xmlns="http://www.w3.org/2000/svg" xmlns:xlink="http://www.w3.org/1999/xlink" x="0px" y="0px"
	 width="130px" height="130px" viewBox="0 0 130 130" enable-background="new 0 0 130 130" xml:space="preserve">
<rect fill="none" width="130" height="130"/>
<path fill="#4D4D4D" d="M112.931,57.504c0.07-0.821,0.116-1.649,0.116-2.493c0-17.303-14.028-31.327-31.336-31.327
	c-11.647,0-21.804,6.372-27.199,15.814c-4.049-3.326-9.225-5.328-14.881-5.328c-12.931,0-23.427,10.491-23.427,23.429l0.008,0.236
	C7.322,61.469,1,70.571,1,81.233c0,13.854,10.662,25.083,23.8,25.083h80.413c13.138,0,23.787-11.229,23.787-25.083
	C129,70.231,122.284,60.885,112.931,57.504z M60.748,93.369l-7.362,1.867c-1.163,0.294-1.644-0.323-1.06-1.368l1.95-3.575
	c-6.323-4.047-10.165-10.938-10.165-18.585c0-8.669,5.101-16.582,13.005-20.154c0.253-0.116,0.526-0.17,0.783-0.17
	c0.732,0,1.428,0.419,1.747,1.123c0.438,0.963,0.013,2.098-0.957,2.532c-6.529,2.957-10.753,9.501-10.753,16.669
	c0,6.234,3.085,11.87,8.174,15.238l1.941-3.542c0.572-1.048,1.351-0.976,1.723,0.157l2.394,7.216
	C62.545,91.911,61.907,93.079,60.748,93.369z M74.154,92.924c-0.256,0.118-0.525,0.172-0.786,0.172
	c-0.733,0-1.429-0.418-1.747-1.122c-0.436-0.967-0.005-2.1,0.956-2.534c6.534-2.957,10.757-9.499,10.757-16.669
	c0-6.235-3.089-11.87-8.173-15.234l-1.942,3.539c-0.571,1.046-1.35,0.975-1.727-0.156L69.1,53.701
	c-0.373-1.133,0.265-2.298,1.424-2.592l7.362-1.866c1.159-0.297,1.64,0.322,1.063,1.369l-1.954,3.576
	c6.318,4.043,10.165,10.937,10.165,18.582C87.16,81.439,82.059,89.351,74.154,92.924z"/>
</svg>
