<?xml version="1.0" encoding="utf-8"?>
<!-- Generator: Adobe Illustrator 16.0.0, SVG Export Plug-In . SVG Version: 6.00 Build 0)  -->
<!DOCTYPE svg PUBLIC "-//W3C//DTD SVG 1.1//EN" "http://www.w3.org/Graphics/SVG/1.1/DTD/svg11.dtd">
<svg version="1.1" id="Layer_1" xmlns="http://www.w3.org/2000/svg" xmlns:xlink="http://www.w3.org/1999/xlink" x="0px" y="0px"
	 width="130px" height="130px" viewBox="0 0 130 130" enable-background="new 0 0 130 130" xml:space="preserve">
<rect fill="none" width="130" height="130"/>
<g>
	<path fill="#4D4D4D" d="M112.938,57.504c0.066-0.822,0.108-1.65,0.108-2.494c0-17.303-14.025-31.33-31.329-31.33
		c-11.648,0-21.81,6.373-27.205,15.817c-4.054-3.326-9.234-5.328-14.878-5.328c-12.937,0-23.429,10.492-23.429,23.429l0.004,0.236
		C7.318,61.469,1,70.57,1,81.232C1,95.09,11.654,106.32,24.797,106.32h29.508c3.636,0,6.616-2.982,6.616-6.627V74.162L48.81,86.139
		c-0.799,0.797-1.847,1.191-2.886,1.191c-1.061,0-2.12-0.408-2.924-1.217c-1.594-1.613-1.578-4.213,0.033-5.807l19.093-18.903
		c1.603-1.588,4.179-1.58,5.781,0l19.085,18.903c1.61,1.596,1.623,4.197,0.028,5.807c-1.599,1.607-4.194,1.627-5.806,0.025
		L69.12,74.16v25.533c0,3.645,3.015,6.627,6.65,6.627h29.449c13.135,0,23.78-11.23,23.78-25.088
		C129,70.232,122.292,60.885,112.938,57.504z"/>
</g>
</svg>
