<?xml version="1.0" encoding="utf-8"?>
<!-- Generator: Adobe Illustrator 16.0.0, SVG Export Plug-In . SVG Version: 6.00 Build 0)  -->
<!DOCTYPE svg PUBLIC "-//W3C//DTD SVG 1.1//EN" "http://www.w3.org/Graphics/SVG/1.1/DTD/svg11.dtd">
<svg version="1.1" id="Layer_1" xmlns="http://www.w3.org/2000/svg" xmlns:xlink="http://www.w3.org/1999/xlink" x="0px" y="0px"
	 width="130px" height="130px" viewBox="0 0 130 130" enable-background="new 0 0 130 130" xml:space="preserve">
<rect fill="none" width="130" height="130"/>
<g>
	<path fill="#4D4D4D" d="M112.931,57.502c0.069-0.822,0.116-1.65,0.116-2.495c0-17.301-14.029-31.325-31.335-31.325
		c-11.649,0-21.806,6.371-27.197,15.815c-4.054-3.327-9.232-5.33-14.886-5.33C26.7,34.167,16.2,44.66,16.2,57.597l0.012,0.239
		C7.32,61.469,1,70.57,1,81.232c0,13.855,10.66,25.085,23.798,25.085h80.415c13.14,0,23.787-11.229,23.787-25.085
		C129,70.23,122.281,60.885,112.931,57.502z"/>
</g>
</svg>
