<?xml version="1.0" encoding="utf-8"?>
<!-- Generator: Adobe Illustrator 16.0.0, SVG Export Plug-In . SVG Version: 6.00 Build 0)  -->
<!DOCTYPE svg PUBLIC "-//W3C//DTD SVG 1.1//EN" "http://www.w3.org/Graphics/SVG/1.1/DTD/svg11.dtd">
<svg version="1.1" id="Layer_1" xmlns="http://www.w3.org/2000/svg" xmlns:xlink="http://www.w3.org/1999/xlink" x="0px" y="0px"
	 width="130px" height="130px" viewBox="0 0 130 130" enable-background="new 0 0 130 130" xml:space="preserve">
<rect fill="none" width="130" height="130"/>
<g>
	<g>
		<g>
			<path fill="#4D4D4D" d="M4.124,16.677v87.943c0,3.45,2.807,6.257,6.256,6.257h29.668c3.447,0,6.253-2.807,6.253-6.257V16.677
				h3.129v93.573c0,5.159-4.223,9.382-9.382,9.382H10.38c-5.157,0-9.38-4.223-9.38-9.382V16.677H4.124z"/>
			<path fill="#4D4D4D" d="M40.048,109.31c2.586,0,4.69-2.098,4.69-4.689V49.368H5.691v55.252c0,2.592,2.102,4.689,4.689,4.689
				H40.048z"/>
		</g>
		<g>
			<path fill="#4D4D4D" d="M128.924,31.283c-1.019-12.529-12.002-21.858-24.535-20.839c-12.527,1.02-21.859,12.004-20.838,24.533
				c1.02,12.529,12.001,21.862,24.532,20.843C120.611,54.796,129.943,43.816,128.924,31.283z M119.475,19.896
				c0.637-0.049,1.284,0.235,1.75,0.853l3.812,7.438c0.414,1.323-0.38,2.494-1.762,2.612l-12.325,1
				c-1.384,0.112-1.775-0.662-0.882-1.715l8.006-9.422C118.468,20.19,118.968,19.936,119.475,19.896z M93.854,18.142l7.436-3.812
				c0.174-0.054,0.348-0.088,0.517-0.103c1.1-0.088,1.997,0.671,2.095,1.867l1.002,12.322c0.068,0.848-0.196,1.323-0.649,1.362
				c-0.289,0.024-0.656-0.133-1.068-0.48l-9.424-8.006C92.705,20.396,92.747,18.98,93.854,18.142z M89.442,23.335
				c0.36-0.686,0.955-1.073,1.593-1.122c0.502-0.044,1.036,0.122,1.502,0.524l9.424,8.001c1.059,0.901,0.791,1.725-0.59,1.837
				l-12.325,1.005c-1.382,0.112-2.354-0.921-2.161-2.293L89.442,23.335z M93,46.364c-0.638,0.054-1.286-0.235-1.752-0.853
				l-3.81-7.433c-0.416-1.323,0.38-2.499,1.759-2.612l12.325-1.004c1.384-0.113,1.781,0.662,0.882,1.72l-8.006,9.422
				C94.004,46.07,93.504,46.325,93,46.364z M104.921,52.498c-0.17,0.015-0.346,0.015-0.527-0.014l-7.954-2.563
				c-1.228-0.642-1.497-2.033-0.601-3.092l8.006-9.421c0.348-0.412,0.687-0.623,0.979-0.647c0.457-0.034,0.791,0.392,0.859,1.24
				l1.004,12.322C106.784,51.519,106.021,52.41,104.921,52.498z M106.789,28.265l-1.002-12.323c-0.1-1.201,0.665-2.092,1.767-2.18
				c0.167-0.015,0.344-0.01,0.524,0.014l7.952,2.562c1.23,0.646,1.5,2.039,0.603,3.097l-8.006,9.422
				c-0.351,0.407-0.688,0.623-0.978,0.647C107.196,29.539,106.858,29.112,106.789,28.265z M118.618,48.123l-7.433,3.807
				c-0.177,0.054-0.352,0.088-0.52,0.103c-1.101,0.088-1.995-0.666-2.095-1.867l-1.002-12.322c-0.071-0.843,0.19-1.323,0.651-1.357
				c0.288-0.024,0.653,0.127,1.065,0.475l9.422,8.006C119.764,45.869,119.728,47.285,118.618,48.123z M123.027,42.929
				c-0.358,0.681-0.953,1.073-1.588,1.122c-0.504,0.044-1.039-0.127-1.506-0.524l-9.423-8.006c-1.058-0.896-0.791-1.725,0.594-1.837
				l12.324-1.005c1.382-0.112,2.354,0.921,2.16,2.293L123.027,42.929z"/>
			<path fill="#4D4D4D" d="M72.568,74.075l33.668-40.989H31.385L65.05,74.075l1.315,39.124l-16.747,6.433h38.383l-16.749-6.433
				L72.568,74.075z M48.021,46.266h41.576c0,0-15.669,20.387-20.786,20.387C63.696,66.653,48.021,46.266,48.021,46.266z"/>
		</g>
	</g>
</g>
</svg>
