<?xml version="1.0" encoding="utf-8"?>
<!-- Generator: Adobe Illustrator 16.0.0, SVG Export Plug-In . SVG Version: 6.00 Build 0)  -->
<!DOCTYPE svg PUBLIC "-//W3C//DTD SVG 1.1//EN" "http://www.w3.org/Graphics/SVG/1.1/DTD/svg11.dtd">
<svg version="1.1" id="Layer_1" xmlns="http://www.w3.org/2000/svg" xmlns:xlink="http://www.w3.org/1999/xlink" x="0px" y="0px"
	 width="130px" height="130px" viewBox="0 0 130 130" enable-background="new 0 0 130 130" xml:space="preserve">
<rect fill="none" width="130" height="130"/>
<g>
	<path fill="#4D4D4D" d="M65.327,1.001C29.981,0.819,1.183,29.327,1.001,64.673s28.326,64.15,63.672,64.326
		c35.344,0.182,64.145-28.326,64.326-63.667C129.181,29.981,100.673,1.183,65.327,1.001z M65.298,117.191
		c-28.824,0.161-52.323-23.066-52.489-51.896C12.646,36.471,35.877,12.97,64.704,12.809c28.825-0.161,52.321,23.071,52.487,51.896
		C117.354,93.528,94.123,117.025,65.298,117.191z"/>
	<g>
		<g>
			<g>
				<path fill="#4D4D4D" d="M67.407,102.416l-0.218,0.005c-0.141-1.079-1.115-2.205-2.27-2.199
					c-0.667,0.005-1.344,0.337-1.339,1.073c0.005,1.64,4.353,1.687,4.368,4.368c0.008,1.521-1.31,2.485-2.744,2.496
					c-0.628,0-1.027-0.119-1.59-0.358c-0.12-0.047-0.316-0.108-0.446-0.108c-0.283,0.005-0.524,0.238-0.604,0.482h-0.224
					l-0.013-3.035h0.218c0.189,1.297,1.217,2.614,2.612,2.604c0.692-0.006,1.453-0.421,1.45-1.183
					c-0.013-1.863-4.296-1.759-4.309-4.478c-0.011-1.359,1.151-2.314,2.451-2.324c0.581,0,0.957,0.108,1.468,0.363
					c0.169,0.077,0.351,0.176,0.545,0.176c0.33,0,0.354-0.296,0.413-0.55h0.218L67.407,102.416z"/>
			</g>
		</g>
		<g>
			<g>
				<path fill="#4D4D4D" d="M22.002,59.506c0.003,0.555,0.644,0.747,1.242,0.97l7.181,2.698v0.233l-5.432,2.127l5.457,2.283
					l0.003,0.228l-7.11,2.905c-0.674,0.275-1.271,0.483-1.271,1.069h-0.229l-0.021-3.663h0.23c0,0.322,0.058,0.742,0.475,0.742
					c0.205,0,0.548-0.146,0.742-0.224l4.309-1.769l-3.209-1.312l-1.142,0.446c-0.791,0.306-1.186,0.523-1.18,1.317H21.82
					l-0.023-4.093h0.229c0.002,0.374,0.018,0.892,0.451,0.892c0.205-0.005,0.498-0.145,0.675-0.207l4.199-1.629l-3.491-1.307
					c-0.343-0.13-0.905-0.369-1.264-0.363c-0.523,0-0.581,0.425-0.578,0.846h-0.233l-0.008-2.189H22.002z"/>
			</g>
		</g>
		<g>
			<g>
				<path fill="#4D4D4D" d="M66.958,26.484h0.023l-0.021-3.668c-0.003-0.659-0.329-0.976-1.131-0.976l-0.003-0.212l2.698-0.021
					v0.218c-0.805,0.005-1.123,0.332-1.121,0.991l0.042,6.91h-0.194l-5.38-6.547h-0.023l0.028,5.204
					c0.005,0.659,0.329,0.98,1.131,0.975l0.003,0.213l-2.698,0.016v-0.218c0.805-0.005,1.123-0.327,1.121-0.985l-0.031-5.785
					c-0.387-0.488-0.579-0.731-1.157-0.727V21.66l2.807-0.016L66.958,26.484z"/>
			</g>
		</g>
		<g>
			<g>
				<path fill="#4D4D4D" d="M104.805,64.663c0.014,1.665,0.968,1.811,2.291,2.033v0.254l-5.074,0.031l-0.003-0.259
					c1.32-0.239,2.275-0.39,2.268-2.055l-2.578,0.011c-1.225,0.01-1.484,0.01-1.479,1.006c0.008,1.364,0.016,3.082,2.516,3.787
					l0.003,0.265l-3.048-0.42l-0.047-8.291l0.265-0.005c0.005,1.364,0.384,1.359,1.557,1.354l5.971-0.037
					c1.176-0.005,1.552-0.005,1.544-1.37h0.262L109.298,69l-2.843,0.016v-0.26c2.143-0.431,2.279-1.421,2.27-3.32l-0.005-0.794
					L104.805,64.663z"/>
			</g>
		</g>
		<g>
			<path fill="#4D4D4D" d="M48.928,65.519c-0.047-8.851,7.092-16.062,15.94-16.114l0,0c8.851-0.052,16.066,7.082,16.118,15.932l0,0
				c0.05,8.856-7.084,16.067-15.938,16.119l0,0C56.201,81.508,48.982,74.375,48.928,65.519L48.928,65.519z M49.755,65.514
				c0.06,8.399,6.893,15.154,15.292,15.123l0,0c8.399-0.067,15.148-6.895,15.117-15.294l0,0c-0.062-8.4-6.895-15.149-15.291-15.118
				l0,0C56.479,50.287,49.719,57.114,49.755,65.514L49.755,65.514z"/>
			<path fill="#4D4D4D" d="M64.751,49.415c2.116-0.01,4.138,0.41,5.987,1.162l-5.982-18.832l-5.74,18.812
				C60.787,49.841,62.72,49.431,64.751,49.415z"/>
			<path fill="#4D4D4D" d="M53.973,54.24c0.753-0.763,1.619-1.333,2.553-1.723l-8.854-4.581l4.664,8.752
				C52.712,55.802,53.254,54.966,53.973,54.24z"/>
			<path fill="#4D4D4D" d="M76.422,76.242c-0.75,0.758-1.624,1.328-2.553,1.723l8.854,4.581l-4.664-8.752
				C77.68,74.681,77.138,75.511,76.422,76.242z"/>
			<path fill="#4D4D4D" d="M53.926,76.74c-0.762-0.752-1.336-1.618-1.725-2.547l-4.581,8.846l8.755-4.659
				C55.488,78.001,54.655,77.462,53.926,76.74z"/>
			<path fill="#4D4D4D" d="M75.924,54.292c0.762,0.752,1.335,1.624,1.728,2.552l4.578-8.851l-8.755,4.659
				C74.364,53.031,75.197,53.576,75.924,54.292z"/>
			<path fill="#4D4D4D" d="M65.174,81.431c-2.119,0.01-4.146-0.405-5.992-1.162l5.987,18.837l5.737-18.812
				C69.132,81.01,67.202,81.415,65.174,81.431z"/>
			<path fill="#4D4D4D" d="M49.428,65.638c-0.013-2.116,0.402-4.14,1.155-5.992l-18.83,5.987l18.809,5.743
				C49.849,69.597,49.438,67.672,49.428,65.638z"/>
			<path fill="#4D4D4D" d="M80.616,65.218c0.016,2.122-0.402,4.146-1.157,5.992l18.83-5.981l-18.81-5.743
				C80.193,61.259,80.605,63.189,80.616,65.218z"/>
		</g>
		<polygon fill="#4D4D4D" points="63.27,117.264 65.272,110.275 67.355,117.243 		"/>
		<polygon fill="#4D4D4D" points="66.77,12.736 64.77,19.724 62.684,12.762 		"/>
		<polygon fill="#4D4D4D" points="12.594,63.677 19.582,65.68 12.619,67.76 		"/>
		<polygon fill="#4D4D4D" points="117.489,66.894 110.504,64.891 117.469,62.811 		"/>
	</g>
	<g>
		<path fill="#4D4D4D" d="M61.628,67.796c-1.596-1.82-1.414-4.596,0.407-6.189c1.818-1.598,4.591-1.416,6.187,0.405
			c1.593,1.821,1.414,4.589-0.402,6.187l1.03,1.175l32.694-36.59L61,60.429v0.003L28.298,97.015L68.85,69.379l-1.032-1.178
			C65.996,69.794,63.223,69.612,61.628,67.796z"/>
		<polygon fill="#4D4D4D" points="67.819,68.198 67.365,67.685 67.365,67.685 67.365,67.685 67.817,68.201 67.817,68.201 		"/>
		<path fill="#4D4D4D" d="M67.088,63.01c-0.547-0.625-1.336-0.985-2.166-0.985c-0.697,0-1.369,0.254-1.894,0.716
			c-0.581,0.508-0.926,1.211-0.976,1.976c-0.049,0.766,0.203,1.505,0.711,2.081c1.002,1.146,2.905,1.276,4.06,0.27l-2.973-3.391
			l2.976,3.388c0.573-0.508,0.918-1.206,0.97-1.974C67.846,64.323,67.594,63.584,67.088,63.01z"/>
		<polygon fill="#4D4D4D" points="66.826,67.064 66.823,67.067 66.823,67.067 67.094,67.376 67.096,67.373 		"/>
	</g>
</g>
</svg>
