<?xml version="1.0" encoding="utf-8"?>
<!-- Generator: Adobe Illustrator 16.0.0, SVG Export Plug-In . SVG Version: 6.00 Build 0)  -->
<!DOCTYPE svg PUBLIC "-//W3C//DTD SVG 1.1//EN" "http://www.w3.org/Graphics/SVG/1.1/DTD/svg11.dtd">
<svg version="1.1" id="Layer_1" xmlns="http://www.w3.org/2000/svg" xmlns:xlink="http://www.w3.org/1999/xlink" x="0px" y="0px"
	 width="130px" height="130px" viewBox="0 0 130 130" enable-background="new 0 0 130 130" xml:space="preserve">
<rect fill="none" width="130" height="130"/>
<g>
	<path fill="#4D4D4D" d="M123.791,102.646h-14.946V26.922l6.861-6.896c2.034-2.047,2.034-5.362,0-7.41
		c-2.04-2.046-5.333-2.046-7.373,0l-6.721,6.762H26.958V8.163c0-2.892-2.333-5.236-5.215-5.236s-5.209,2.345-5.209,5.236v11.215
		H6.216C3.34,19.378,1,21.724,1,24.616c0,2.894,2.34,5.24,5.216,5.24h10.318v78.028c0,2.896,2.328,5.242,5.209,5.242h76.675v8.701
		c0,2.896,2.335,5.245,5.217,5.245c2.874,0,5.209-2.349,5.209-5.245v-8.701h14.946c2.874,0,5.209-2.347,5.209-5.242
		C129,104.992,126.665,102.646,123.791,102.646z M26.958,29.856h64.229L26.958,94.468V29.856z M98.419,102.646H33.556l64.863-65.24
		V102.646z"/>
</g>
</svg>
