<?xml version="1.0" encoding="utf-8"?>
<!-- Generator: Adobe Illustrator 16.0.0, SVG Export Plug-In . SVG Version: 6.00 Build 0)  -->
<!DOCTYPE svg PUBLIC "-//W3C//DTD SVG 1.1//EN" "http://www.w3.org/Graphics/SVG/1.1/DTD/svg11.dtd">
<svg version="1.1" id="Layer_1" xmlns="http://www.w3.org/2000/svg" xmlns:xlink="http://www.w3.org/1999/xlink" x="0px" y="0px"
	 width="130px" height="130px" viewBox="0 0 130 130" enable-background="new 0 0 130 130" xml:space="preserve">
<rect fill="none" width="130" height="130"/>
<g>
	<path fill="#4D4D4D" d="M107.17,94.799c-9.693,5.952-24.813,9.733-42.126,9.733c-17.171,0-32.173-3.71-41.871-9.572l-0.506,0.005
		c-3.611,2.559-7.712,6.596-7.712,11.742C14.955,118.79,37.897,129,65.044,129s50.075-10.21,50.075-22.293
		C115.119,101.509,110.982,97.448,107.17,94.799z"/>
	<path fill="#4D4D4D" d="M107.178,66.991c-9.694,5.956-24.812,9.737-42.134,9.737c-17.164,0-32.162-3.705-41.871-9.563h-0.511
		c-3.606,2.561-7.707,6.596-7.707,11.738c0,12.086,22.942,22.301,50.089,22.301s50.075-10.215,50.075-22.301
		C115.119,73.672,110.908,69.583,107.178,66.991z"/>
	<path fill="#4D4D4D" d="M107.17,39.196c-9.701,5.956-24.813,9.733-42.126,9.733c-17.318,0-32.437-3.777-42.141-9.733
		c-3.743,2.604-7.948,6.681-7.948,11.908c0,12.085,22.942,22.296,50.089,22.296s50.075-10.211,50.075-22.296
		C115.119,45.905,110.982,41.848,107.17,39.196z"/>
	<path fill="#4D4D4D" d="M65.044,1C37.897,1,14.955,11.211,14.955,23.301s22.942,22.3,50.089,22.3s50.075-10.21,50.075-22.3
		S92.19,1,65.044,1z"/>
	<path fill="#4D4D4D" d="M12.027,75.871c0.667-2.827,2.263-5.551,4.753-8.077v-5.601c-2.425-2.474-4.074-5.17-4.753-8.037V75.871z
		 M12.027,48.075c0.667-2.83,2.271-5.547,4.753-8.074v-5.603c-2.425-2.478-4.074-5.174-4.753-8.041V48.075z M12.027,103.674
		c0.667-2.829,2.263-5.552,4.753-8.079v-5.598c-2.425-2.478-4.074-5.171-4.753-8.037V103.674z M113.216,67.708
		c2.431,2.449,4.031,5.077,4.757,7.811V54.428c-0.726,2.798-2.364,5.434-4.757,7.851V67.708z M113.216,95.52
		c2.431,2.449,4.031,5.073,4.757,7.811V82.231c-0.726,2.793-2.364,5.43-4.757,7.851V95.52z M113.216,34.479v5.442
		c2.431,2.45,4.031,5.073,4.757,7.81V26.629C117.247,29.427,115.608,32.059,113.216,34.479z"/>
</g>
</svg>
