<?xml version="1.0" encoding="utf-8"?>
<!-- Generator: Adobe Illustrator 16.0.0, SVG Export Plug-In . SVG Version: 6.00 Build 0)  -->
<!DOCTYPE svg PUBLIC "-//W3C//DTD SVG 1.1//EN" "http://www.w3.org/Graphics/SVG/1.1/DTD/svg11.dtd">
<svg version="1.1" id="Layer_1" xmlns="http://www.w3.org/2000/svg" xmlns:xlink="http://www.w3.org/1999/xlink" x="0px" y="0px"
	 width="130px" height="130px" viewBox="0 0 130 130" enable-background="new 0 0 130 130" xml:space="preserve">
<rect fill="none" width="130" height="130"/>
<g>
	<path fill="#4D4D4D" d="M124.811,30.532H5.194C2.885,30.532,1,32.424,1,34.743v86.746c0,2.32,1.885,4.219,4.194,4.219h119.616
		c2.31,0,4.189-1.898,4.189-4.219V34.743C129,32.424,127.12,30.532,124.811,30.532z"/>
	<path fill="#4D4D4D" d="M21.14,12.487h91.012c2.065,0,3.739-1.835,3.739-4.096c0-2.267-1.674-4.098-3.739-4.098H21.14
		c-2.071,0-3.75,1.831-3.75,4.098C17.39,10.652,19.068,12.487,21.14,12.487z M120.382,17.393H11.272
		c-2.047,0-3.706,1.835-3.706,4.092c0,2.266,1.659,4.101,3.706,4.101h109.109c2.042,0,3.697-1.835,3.697-4.101
		C124.079,19.228,122.424,17.393,120.382,17.393z"/>
</g>
</svg>
