<?xml version="1.0" encoding="utf-8"?>
<!-- Generator: Adobe Illustrator 16.0.0, SVG Export Plug-In . SVG Version: 6.00 Build 0)  -->
<!DOCTYPE svg PUBLIC "-//W3C//DTD SVG 1.1//EN" "http://www.w3.org/Graphics/SVG/1.1/DTD/svg11.dtd">
<svg version="1.1" id="Layer_1" xmlns="http://www.w3.org/2000/svg" xmlns:xlink="http://www.w3.org/1999/xlink" x="0px" y="0px"
	 width="130px" height="130px" viewBox="0 0 130 130" enable-background="new 0 0 130 130" xml:space="preserve">
<rect fill="none" width="130" height="130"/>
<g>
	<polygon fill="#4C4C4C" points="127.17,46.477 90.872,46.477 67.118,114.811 	"/>
	<polygon fill="#4C4C4C" points="91.751,45.477 128.049,45.477 128.367,45.114 112.47,22.082 	"/>
	<polygon fill="#4C4C4C" points="111.577,21.58 67.501,12.062 90.854,44.925 	"/>
	<polygon fill="#4C4C4C" points="64.738,118.269 64.937,118.042 89.853,46.477 39.345,46.477 	"/>
	<polygon fill="#4C4C4C" points="38.285,46.477 2.264,46.477 63.01,116.385 	"/>
	<path fill="#4C4C4C" d="M16.888,22.473c-0.01-0.009-0.018-0.017-0.027-0.027c-0.094-0.093-0.182-0.178-0.262-0.254
		c-0.024-0.023-0.045-0.042-0.068-0.063c-0.049-0.046-0.095-0.089-0.139-0.128l-0.288,0.57l-0.13-0.393
		c-1.999,2.695-9.393,15.06-14.215,23.299h35.876c-0.348-0.396-0.701-0.799-1.062-1.209C29.367,36.072,19.851,25.405,16.888,22.473z
		"/>
	<polygon fill="#4C4C4C" points="39.402,45.477 90.02,45.477 65.951,11.607 64.474,11.301 63.563,11.489 	"/>
	<path fill="#4C4C4C" d="M17.316,21.545c0.506,0.481,1.189,1.177,1.997,2.025c2.766,2.888,8.108,8.752,18.546,20.646
		c0.23,0.262,0.455,0.518,0.669,0.763l23.403-32.922L17.316,21.545z"/>
</g>
</svg>
