<?xml version="1.0" encoding="utf-8"?>
<!-- Generator: Adobe Illustrator 16.0.0, SVG Export Plug-In . SVG Version: 6.00 Build 0)  -->
<!DOCTYPE svg PUBLIC "-//W3C//DTD SVG 1.1//EN" "http://www.w3.org/Graphics/SVG/1.1/DTD/svg11.dtd">
<svg version="1.1" id="Layer_1" xmlns="http://www.w3.org/2000/svg" xmlns:xlink="http://www.w3.org/1999/xlink" x="0px" y="0px"
	 width="130px" height="130px" viewBox="0 0 130 130" enable-background="new 0 0 130 130" xml:space="preserve">
<rect fill="none" width="130" height="130"/>
<g>
	<g>
		<rect x="60.213" y="13.997" fill="#4D4D4D" width="7.827" height="18.016"/>
		<rect x="31.208" y="13.997" fill="#4D4D4D" width="7.828" height="18.016"/>
		<rect x="16.709" y="13.997" fill="#4D4D4D" width="7.828" height="18.016"/>
		<rect x="45.713" y="13.997" fill="#4D4D4D" width="7.828" height="18.016"/>
		<path fill="#4D4D4D" d="M94.851,13.997h-5.634v18.016h5.634c1.403,0,2.554-1.146,2.554-2.549V16.545
			C97.404,15.147,96.254,13.997,94.851,13.997z"/>
		<path fill="#4D4D4D" d="M10.032,13.997H4.403c-1.403,0-2.549,1.15-2.549,2.548v12.919c0,1.403,1.146,2.549,2.549,2.549h5.629
			V13.997z"/>
		<rect x="74.718" y="13.997" fill="#4D4D4D" width="7.827" height="18.016"/>
	</g>
	<g>
		<path fill="#4D4D4D" d="M72.733,42.979v-8.333h-7.827v13.914C67.296,46.423,69.9,44.528,72.733,42.979z"/>
		<path fill="#4D4D4D" d="M102.098,38.915v-1.72c0-1.398-1.15-2.549-2.554-2.549H93.91v3.264
			C96.717,37.982,99.453,38.318,102.098,38.915z"/>
		<path fill="#4D4D4D" d="M87.238,38.272v-3.626h-7.827v5.443C81.921,39.24,84.539,38.633,87.238,38.272z"/>
		<path fill="#4D4D4D" d="M6.548,37.195v12.918c0,1.403,1.146,2.549,2.549,2.549h5.629V34.646H9.097
			C7.693,34.646,6.548,35.797,6.548,37.195z"/>
		<rect x="50.406" y="34.646" fill="#4D4D4D" width="7.828" height="18.016"/>
		<rect x="35.901" y="34.646" fill="#4D4D4D" width="7.828" height="18.016"/>
		<rect x="21.402" y="34.646" fill="#4D4D4D" width="7.828" height="18.016"/>
	</g>
	<g>
		<rect x="17.134" y="55.291" fill="#4D4D4D" width="7.827" height="18.015"/>
		<path fill="#4D4D4D" d="M2.279,57.839v12.919c0,1.403,1.146,2.548,2.549,2.548h5.629V55.291H4.828
			C3.425,55.291,2.279,56.441,2.279,57.839z"/>
		<rect x="31.633" y="55.291" fill="#4D4D4D" width="7.828" height="18.015"/>
		<path fill="#4D4D4D" d="M53.966,64.011v-8.72h-7.828v18.015h5.274C51.92,70.072,52.767,66.954,53.966,64.011z"/>
	</g>
	<g>
		<path fill="#4D4D4D" d="M8.933,78.488v12.919c0,1.403,1.145,2.549,2.548,2.549h5.629V75.94H11.48
			C10.077,75.94,8.933,77.091,8.933,78.488z"/>
		<rect x="23.787" y="75.94" fill="#4D4D4D" width="7.827" height="18.016"/>
		<rect x="38.286" y="75.94" fill="#4D4D4D" width="7.827" height="18.016"/>
	</g>
	<g>
		<rect x="30.354" y="96.585" fill="#4D4D4D" width="7.828" height="18.015"/>
		<path fill="#4D4D4D" d="M1,99.133v12.919c0,1.403,1.146,2.548,2.548,2.548h5.629V96.585H3.548C2.146,96.585,1,97.735,1,99.133z"/>
		<rect x="15.854" y="96.585" fill="#4D4D4D" width="7.827" height="18.015"/>
		<rect x="44.858" y="96.585" fill="#4D4D4D" width="7.827" height="18.015"/>
		<path fill="#4D4D4D" d="M59.357,105.101v9.499h7.828v-1.572C64.234,110.743,61.607,108.079,59.357,105.101z"/>
	</g>
	<g>
		<path fill="#4D4D4D" d="M92.835,51.09c-15.854,0-28.752,12.899-28.752,28.754c0,15.854,12.897,28.754,28.752,28.754
			c15.859,0,28.757-12.9,28.757-28.754C121.592,63.989,108.694,51.09,92.835,51.09z M99.216,96.047
			c-1.091,1.021-2.445,1.672-4.059,1.963v2.532h-4.612v-2.651c-2.167-0.554-3.839-1.844-5.011-3.859
			c-1-1.731-1.57-3.747-1.699-6.049l5.215-0.376c0.231,2.135,0.774,3.65,1.64,4.554c0.656,0.71,1.403,1.043,2.247,1.005
			c1.194-0.037,2.141-0.618,2.855-1.758c0.36-0.554,0.548-1.354,0.548-2.387c0-1.483-0.672-2.968-2.021-4.468
			c-1.091-1.016-2.715-2.543-4.87-4.58c-1.667-1.597-2.877-3.054-3.624-4.382c-0.946-1.65-1.414-3.446-1.414-5.387
			c0-1.865,0.441-3.564,1.323-5.102c1.075-1.897,2.683-3.107,4.812-3.624v-2.338h4.612v2.338c1.457,0.323,2.667,0.941,3.629,1.839
			c1.688,1.58,2.635,3.645,2.822,6.198l-5.247,0.946c-0.15-1.457-0.569-2.618-1.263-3.483c-0.463-0.575-1.173-0.865-2.129-0.865
			c-1.006,0-1.759,0.445-2.28,1.322c-0.425,0.715-0.634,1.602-0.634,2.655c0,1.65,0.709,3.339,2.134,5.07
			c0.517,0.612,1.312,1.371,2.388,2.273c1.273,1.038,2.118,1.78,2.537,2.221c1.344,1.382,2.371,2.71,3.08,3.973
			c1.06,1.888,1.607,3.603,1.646,5.161C101.915,91.902,101.044,94.321,99.216,96.047z"/>
		<path fill="#4D4D4D" d="M92.835,43.679c-19.967,0-36.16,16.192-36.16,36.165c0,19.972,16.193,36.159,36.16,36.159
			c19.978,0,36.165-16.188,36.165-36.159C129,59.871,112.812,43.679,92.835,43.679z M92.835,110.937
			c-17.145,0-31.09-13.948-31.09-31.093s13.945-31.093,31.09-31.093c17.149,0,31.096,13.948,31.096,31.093
			S109.984,110.937,92.835,110.937z"/>
	</g>
</g>
</svg>
