<?xml version="1.0" encoding="utf-8"?>
<!-- Generator: Adobe Illustrator 16.0.0, SVG Export Plug-In . SVG Version: 6.00 Build 0)  -->
<!DOCTYPE svg PUBLIC "-//W3C//DTD SVG 1.1//EN" "http://www.w3.org/Graphics/SVG/1.1/DTD/svg11.dtd">
<svg version="1.1" id="Layer_1" xmlns="http://www.w3.org/2000/svg" xmlns:xlink="http://www.w3.org/1999/xlink" x="0px" y="0px"
	 width="130px" height="130px" viewBox="0 0 130 130" enable-background="new 0 0 130 130" xml:space="preserve">
<rect fill="none" width="130" height="130"/>
<path fill="#4D4D4D" d="M64.997,14.113c-28.057,0-50.881,22.83-50.881,50.89c0,28.057,22.824,50.884,50.881,50.884
	c28.06,0,50.887-22.827,50.887-50.884C115.884,36.943,93.057,14.113,64.997,14.113z M73.891,87.579
	c-1.527,1.417-3.412,2.328-5.66,2.731v3.533h-6.427v-3.694c-3.025-0.778-5.349-2.57-6.985-5.383
	c-1.389-2.409-2.179-5.217-2.362-8.427l7.262-0.524c0.322,2.974,1.083,5.089,2.288,6.346c0.91,0.985,1.954,1.458,3.13,1.4
	c1.659-0.052,2.985-0.864,3.977-2.443c0.507-0.778,0.761-1.891,0.761-3.332c0-2.063-0.934-4.138-2.807-6.225
	c-1.527-1.418-3.787-3.544-6.784-6.38c-2.328-2.225-4.017-4.253-5.061-6.104c-1.313-2.3-1.965-4.801-1.965-7.504
	c0-2.594,0.616-4.963,1.845-7.106c1.498-2.651,3.734-4.334,6.702-5.055v-3.257h6.427v3.257c2.034,0.449,3.718,1.309,5.055,2.564
	c2.357,2.196,3.666,5.072,3.937,8.634l-7.309,1.32c-0.213-2.029-0.801-3.648-1.764-4.854c-0.646-0.801-1.637-1.204-2.974-1.204
	c-1.389,0-2.443,0.616-3.17,1.844c-0.588,0.992-0.882,2.226-0.882,3.695c0,2.299,0.991,4.656,2.968,7.065
	c0.721,0.854,1.833,1.914,3.332,3.17c1.77,1.447,2.945,2.473,3.533,3.089c1.873,1.932,3.308,3.775,4.294,5.539
	c1.475,2.628,2.235,5.021,2.293,7.188C77.648,81.798,76.432,85.17,73.891,87.579z M64.997,0.999
	c-35.342,0-63.998,28.656-63.998,64.004c0,35.342,28.656,63.998,63.998,63.998c35.348,0,64.004-28.656,64.004-63.998
	C129.001,29.655,100.345,0.999,64.997,0.999z M64.997,120.03c-30.339,0-55.024-24.686-55.024-55.027
	c0-30.345,24.686-55.033,55.024-55.033c30.345,0,55.03,24.688,55.03,55.033C120.027,95.345,95.342,120.03,64.997,120.03z"/>
</svg>
