<?xml version="1.0" encoding="utf-8"?>
<!-- Generator: Adobe Illustrator 16.0.0, SVG Export Plug-In . SVG Version: 6.00 Build 0)  -->
<!DOCTYPE svg PUBLIC "-//W3C//DTD SVG 1.1//EN" "http://www.w3.org/Graphics/SVG/1.1/DTD/svg11.dtd">
<svg version="1.1" id="Layer_1" xmlns="http://www.w3.org/2000/svg" xmlns:xlink="http://www.w3.org/1999/xlink" x="0px" y="0px"
	 width="130px" height="130px" viewBox="0 0 130 130" enable-background="new 0 0 130 130" xml:space="preserve">
<rect fill="none" width="130" height="130"/>
<path fill="#4D4D4D" d="M57.185,83.008v7.27c0,0.957-0.421,1.324-1.091,1.324c-0.669,0-1.096-0.367-1.096-1.324v-7.27
	c0-0.962,0.427-1.324,1.096-1.324C56.764,81.684,57.185,82.046,57.185,83.008z M44.704,104.915h-1.19v9.615h1.19
	c0.674,0,1.081-0.347,1.081-1.309v-6.992C45.785,105.263,45.378,104.915,44.704,104.915z M48.518,81.832h-1.195v9.615h1.195
	c0.669,0,1.075-0.347,1.075-1.309v-6.992C49.593,82.18,49.187,81.832,48.518,81.832z M74.907,91.602
	c0.675,0,1.097-0.367,1.097-1.324v-7.27c0-0.962-0.422-1.324-1.097-1.324c-0.674,0-1.096,0.362-1.096,1.324v7.27
	C73.812,91.234,74.233,91.602,74.907,91.602z M48.442,62.042v-2.018c0-0.967-0.361-1.274-1.036-1.274H46.41v4.562h0.996
	C48.081,63.312,48.442,62.999,48.442,62.042z M68.184,59.21l-1.021,6.808H69.2L68.184,59.21z M77.734,104.915h-1.021v4.136h0.828
	c0.788,0,1.27-0.347,1.27-1.423v-1.329C78.811,105.342,78.482,104.915,77.734,104.915z M97.613,52.938v68.515
	c0,4.165-3.377,7.547-7.547,7.547H39.938c-4.17,0-7.552-3.382-7.552-7.547V45.167V33.614C32.387,15.604,46.99,1,65,1
	c13.875,0,25.701,8.688,30.412,20.901c0.114,0.298,0.223,0.6,0.332,0.903c0.353,1.041,0.585,2.132,0.585,3.292
	c0,5.643-4.571,10.22-10.22,10.22c-4.2,0-7.805-2.544-9.377-6.174c-0.134-0.561-0.308-1.106-0.521-1.626
	c-1.8-4.428-6.134-7.552-11.212-7.552c-6.685,0-12.1,5.415-12.1,12.099c0,6.689,5.415,12.104,12.1,12.104h24.844
	C94.133,45.167,97.613,48.648,97.613,52.938z M80.169,70.283h5.767v-1.919h-3.649v-3.942h2.896v-1.918h-2.896V58.75h3.649v-1.919
	h-5.767V70.283z M81.081,81.832v11.534h2.112V81.832h2.212v-1.919h-6.536v1.919H81.081z M72.646,67.056
	c0,2.151,1.076,3.387,3.158,3.387c2.073,0,3.149-1.235,3.149-3.387c0-3.843-4.136-4.364-4.136-7.131
	c0-0.962,0.387-1.329,1.057-1.329c0.679,0,1.061,0.367,1.061,1.329v0.555h1.993v-0.421c0-2.152-1.051-3.377-3.108-3.377
	c-2.059,0-3.114,1.225-3.114,3.377c0,3.848,4.131,4.363,4.131,7.131c0,0.962-0.422,1.304-1.097,1.304
	c-0.669,0-1.091-0.342-1.091-1.304v-0.962h-2.003V67.056z M71.699,83.146v6.992c0,2.156,1.131,3.382,3.208,3.382
	c2.073,0,3.209-1.226,3.209-3.382v-6.992c0-2.157-1.136-3.387-3.209-3.387C72.83,79.76,71.699,80.989,71.699,83.146z M64.589,70.283
	h1.938l0.367-2.439h2.593l0.367,2.439h2.138L69.84,56.831h-3.1L64.589,70.283z M68.461,79.913v8.059l-2.172-8.059h-2.652v13.453
	h1.903v-9.743l2.634,9.743h2.172V79.913H68.461z M58.067,70.283h5.763v-1.919h-3.65v-3.942h2.901v-1.918H60.18V58.75h3.65v-1.919
	h-5.763V70.283z M51.542,70.283h5.599v-1.919h-3.481V56.831h-2.117V70.283z M44.292,70.283h2.118V65.23h0.996
	c2.117,0,3.154-1.17,3.154-3.327v-1.746c0-2.152-1.037-3.327-3.154-3.327h-3.114V70.283z M47.897,106.323
	c0-2.156-1.042-3.327-3.154-3.327h-3.342v13.458h3.342c2.112,0,3.154-1.175,3.154-3.327V106.323z M51.358,102.996h-2.112v13.458
	h2.112V102.996z M51.706,83.241c0-2.157-1.042-3.328-3.154-3.328H45.21v13.453h3.342c2.112,0,3.154-1.17,3.154-3.322V83.241z
	 M58.881,113.222c0-3.844-4.136-4.364-4.136-7.131c0-0.962,0.387-1.329,1.062-1.329c0.669,0,1.056,0.367,1.056,1.329v0.561h1.999
	v-0.422c0-2.157-1.062-3.387-3.114-3.387c-2.058,0-3.114,1.229-3.114,3.387c0,3.838,4.131,4.358,4.131,7.126
	c0,0.962-0.422,1.309-1.096,1.309c-0.67,0-1.097-0.347-1.097-1.309v-0.957h-1.998v0.823c0,2.156,1.081,3.382,3.154,3.382
	C57.8,116.604,58.881,115.378,58.881,113.222z M59.308,83.146c0-2.157-1.141-3.387-3.214-3.387c-2.077,0-3.208,1.229-3.208,3.387
	v6.992c0,2.156,1.131,3.382,3.208,3.382c2.073,0,3.214-1.226,3.214-3.382V83.146z M66.017,102.996H59.48v1.919h2.207v11.539h2.117
	v-11.539h2.212V102.996z M73.152,102.996h-1.999v10.379c0,0.962-0.421,1.304-1.096,1.304c-0.669,0-1.096-0.342-1.096-1.304v-10.379
	H66.85v10.245c0,2.152,1.076,3.382,3.148,3.382c2.078,0,3.154-1.229,3.154-3.382V102.996z M81.171,116.454
	c-0.209-0.501-0.229-0.981-0.229-1.636v-2.078c0-1.403-0.342-2.425-1.403-2.861c0.942-0.446,1.384-1.349,1.384-2.728v-1.061
	c0-2.078-0.938-3.095-3.134-3.095h-3.188v13.458h2.112v-5.484h0.733c0.957,0,1.384,0.467,1.384,1.716v2.112
	c0,1.097,0.074,1.305,0.188,1.656H81.171z M88.866,112.16c0-1.418-0.441-2.435-1.571-2.881c0.937-0.441,1.363-1.324,1.363-2.708
	v-0.48c0-2.078-0.947-3.095-3.134-3.095h-3.193v13.458h3.327c2.117,0,3.208-1.12,3.208-3.193V112.16z M86.546,107.053v-0.754
	c0-0.957-0.332-1.384-1.081-1.384h-1.017v3.561h0.828C86.06,108.476,86.546,108.129,86.546,107.053z M85.391,110.399h-0.942v4.131
	h1.21c0.714,0,1.096-0.332,1.096-1.329v-1.17C86.754,110.781,86.348,110.399,85.391,110.399z"/>
</svg>
