<?xml version="1.0" encoding="utf-8"?>
<!-- Generator: Adobe Illustrator 16.0.0, SVG Export Plug-In . SVG Version: 6.00 Build 0)  -->
<!DOCTYPE svg PUBLIC "-//W3C//DTD SVG 1.1//EN" "http://www.w3.org/Graphics/SVG/1.1/DTD/svg11.dtd">
<svg version="1.1" id="Layer_1" xmlns="http://www.w3.org/2000/svg" xmlns:xlink="http://www.w3.org/1999/xlink" x="0px" y="0px"
	 width="130px" height="130px" viewBox="0 0 130 130" enable-background="new 0 0 130 130" xml:space="preserve">
<rect fill="none" width="130" height="130"/>
<g>
	<g>
		<path fill="#4D4D4D" d="M92.332,128.235c-0.064,0.424-0.471,0.765-0.898,0.765h-52.88c-0.424,0-0.831-0.341-0.899-0.765
			l-0.299-3.186h0.654H91.98h0.65L92.332,128.235z"/>
	</g>
	<path fill="#4D4D4D" d="M24.367,23.691l12.396,98.69h56.514l12.395-98.69H24.367z M65,91.433c-11.267,0-20.397-9.137-20.397-20.4
		c0-11.265,9.131-20.395,20.397-20.395c11.267,0,20.398,9.13,20.398,20.395C85.398,82.296,76.268,91.433,65,91.433z"/>
	<g>
		<path fill="#4D4D4D" d="M108.744,7.158l-0.258-3.117c0-1.673-1.371-3.041-3.037-3.041H24.553c-1.67,0-3.039,1.368-3.039,3.041
			l-0.257,3.117H108.744z"/>
	</g>
	<path fill="#4D4D4D" d="M111.148,8.075c1.906,0,3.469,1.56,3.469,3.472v11.18h-3.469H18.852h-3.469v-11.18
		c0-1.912,1.562-3.472,3.469-3.472H111.148"/>
</g>
</svg>
