<?xml version="1.0" encoding="utf-8"?>
<!-- Generator: Adobe Illustrator 16.0.0, SVG Export Plug-In . SVG Version: 6.00 Build 0)  -->
<!DOCTYPE svg PUBLIC "-//W3C//DTD SVG 1.1//EN" "http://www.w3.org/Graphics/SVG/1.1/DTD/svg11.dtd">
<svg version="1.1" id="Layer_1" xmlns="http://www.w3.org/2000/svg" xmlns:xlink="http://www.w3.org/1999/xlink" x="0px" y="0px"
	 width="130px" height="130px" viewBox="0 0 130 130" enable-background="new 0 0 130 130" xml:space="preserve">
<rect fill="none" width="130" height="130"/>
<g>
	<g>
		<path fill="#4D4D4D" d="M30.082,50.338l8.637,68.764l0.222,1.776h1.793h41.199h1.791l0.224-1.776l8.638-68.764H30.082z
			 M37.928,96.516l-3.481-27.722H88.22l-3.48,27.722H37.928z"/>
	</g>
	<path fill="#4D4D4D" d="M81.463,122.13h-0.477H41.64h-0.476h-2.192l0.207,2.182l0.218,2.322l0.004,0.062l0.01,0.062
		c0.201,1.279,1.331,2.243,2.628,2.243H80.59c1.295,0,2.424-0.964,2.626-2.243l0.01-0.062l0.006-0.062l0.218-2.322l0.205-2.182
		H81.463z"/>
	<path fill="#4D4D4D" d="M96.408,40.686c1.448,0,2.636,1.186,2.636,2.64v3.768c0,1.45-1.188,2.636-2.636,2.636H26.256
		c-1.448,0-2.636-1.186-2.636-2.636v-3.768c0-1.454,1.188-2.64,2.636-2.64H96.408"/>
	<path fill="#4D4D4D" d="M106.142,2.605c-0.612-1.368-2.219-1.979-3.583-1.368L66.536,17.388l-9.797,28.5h5.735l8.425-24.513
		l33.876-15.188C106.142,5.576,106.755,3.97,106.142,2.605z"/>
</g>
</svg>
