<?xml version="1.0" encoding="utf-8"?>
<!-- Generator: Adobe Illustrator 16.0.0, SVG Export Plug-In . SVG Version: 6.00 Build 0)  -->
<!DOCTYPE svg PUBLIC "-//W3C//DTD SVG 1.1//EN" "http://www.w3.org/Graphics/SVG/1.1/DTD/svg11.dtd">
<svg version="1.1" id="Layer_1" xmlns="http://www.w3.org/2000/svg" xmlns:xlink="http://www.w3.org/1999/xlink" x="0px" y="0px"
	 width="130px" height="130px" viewBox="0 0 130 130" enable-background="new 0 0 130 130" xml:space="preserve">
<rect fill="none" width="130" height="130"/>
<g>
	<path fill="#4D4D4D" d="M99.602,1.747c-1.316-1.119-3.286-0.962-4.404,0.345l-19.79,23.157c-0.9,0.173-1.758,0.453-2.55,0.856
		c-1.486-1.468-3.525-2.375-5.775-2.375c-1.71,0-3.298,0.52-4.609,1.413c-1.649-0.874-3.518-1.376-5.515-1.376
		c-3.392,0-6.447,1.431-8.61,3.719c-0.831-0.286-1.705-0.474-2.63-0.474c-3.442,0-6.384,2.126-7.605,5.131
		c-3.005,1.224-5.129,4.165-5.129,7.607c0,0.386,0.064,0.759,0.115,1.132c-2.188,2.421-3.539,5.702-3.539,9.319
		c0,0.315,0.023,0.626,0.046,0.935c-0.364,0.872-0.41,1.854-0.092,2.764l3.647,10.48l7.689,61.229
		c0.242,1.938,1.89,3.392,3.843,3.392h39.294c1.953,0,3.601-1.457,3.845-3.395l7.644-61.13L99.1,54.101
		c0.187-0.456,0.29-0.952,0.29-1.475c0-0.934-0.343-1.776-0.89-2.446c0-0.007,0.002-0.014,0.002-0.021
		c0-3.286-1.289-6.25-3.357-8.385c0.168-0.649,0.283-1.321,0.283-2.025c0-3.249-1.898-6.029-4.632-7.363
		c-1.316-2.011-3.49-3.373-6.001-3.645c-0.66-0.826-1.447-1.542-2.333-2.122L99.949,6.155C101.069,4.843,100.918,2.869,99.602,1.747
		z M95.511,52.625l-3.827,10.962l-7.696,61.537H44.693l-7.74-61.634l-3.781-10.866H95.511z"/>
	<polygon fill="#4D4D4D" points="39.949,71.13 46.426,122.677 82.252,122.677 88.699,71.13 	"/>
</g>
</svg>
