<?xml version="1.0" encoding="utf-8"?>
<!-- Generator: Adobe Illustrator 16.0.0, SVG Export Plug-In . SVG Version: 6.00 Build 0)  -->
<!DOCTYPE svg PUBLIC "-//W3C//DTD SVG 1.1//EN" "http://www.w3.org/Graphics/SVG/1.1/DTD/svg11.dtd">
<svg version="1.1" id="Layer_1" xmlns="http://www.w3.org/2000/svg" xmlns:xlink="http://www.w3.org/1999/xlink" x="0px" y="0px"
	 width="130px" height="130px" viewBox="0 0 130 130" enable-background="new 0 0 130 130" xml:space="preserve">
<rect fill="none" width="130" height="130"/>
<g>
	<g>
		<path fill="#4D4D4D" d="M67.633,22.222c-0.039-1.587,1.09-2.631,1.09-2.631v-3.29l-0.645-0.87v-1.954l-2.391-2.819l-0.164-7.234
			l0.528-0.47V2.195L65,1l-1.052,1.195v0.758l0.529,0.47l-0.164,7.234l-2.385,2.819v1.954l-0.651,0.87v3.29
			c0,0,1.13,1.043,1.09,2.631C62.332,23.813,65,98.046,34.075,129h12.371c0,0,3.254-15.408,18.554-15.408
			c15.301,0,18.555,15.408,18.555,15.408h12.371C65,98.046,67.668,23.813,67.633,22.222z M65,103.934c0,0-1.445,0-7.453,0
			c1.739-2.531,3.836-19.098,3.836-19.098h7.235c0,0,2.098,16.566,3.836,19.098C66.445,103.934,65,103.934,65,103.934z"/>
		<rect x="47.35" y="101.547" fill="#4D4D4D" width="35.3" height="0.433"/>
		<g>
			<path fill="#FFFFFF" d="M58.33,101.979c0.04-0.141,0.083-0.283,0.125-0.433h-7.709c-0.054,0.145-0.109,0.289-0.165,0.433H58.33z"
				/>
			<path fill="#FFFFFF" d="M79.254,101.547h-7.709c0.043,0.149,0.084,0.292,0.125,0.433h7.75
				C79.363,101.836,79.309,101.691,79.254,101.547z"/>
		</g>
		<path fill="#4D4D4D" d="M46.986,105.344c0,0,0.923,0.366,0.879,1.531h34.27c-0.043-1.165,0.879-1.531,0.879-1.531H46.986z"/>
		<path fill="#FFFFFF" d="M80.783,105.344H49.215c-0.217,0.512-0.434,1.024-0.657,1.531h32.883
			C81.217,106.368,81.002,105.855,80.783,105.344z"/>
		<rect x="47.881" y="101.979" fill="#4D4D4D" width="0.408" height="3.364"/>
		<rect x="51.641" y="101.979" fill="#FFFFFF" width="0.408" height="3.364"/>
		<rect x="55.4" y="101.979" fill="#FFFFFF" width="0.403" height="3.364"/>
		<rect x="74.195" y="101.979" fill="#FFFFFF" width="0.402" height="3.364"/>
		<rect x="77.951" y="101.979" fill="#FFFFFF" width="0.408" height="3.364"/>
		<rect x="81.711" y="101.979" fill="#4D4D4D" width="0.408" height="3.364"/>
		<g>
			<path fill="#4D4D4D" d="M73.193,76.861H56.806l-1.628,0.54v0.378c0.977,0.066,1.313,1.551,1.313,1.551h17.016
				c0,0,0.338-1.484,1.312-1.551v-0.378L73.193,76.861z"/>
			<path fill="#FFFFFF" d="M57.067,77.779v1.551h0.324v-1.551C57.278,77.779,57.174,77.779,57.067,77.779z"/>
			<path fill="#FFFFFF" d="M72.469,77.779c-3.898,0-11.039,0-14.939,0c-0.105,0.517-0.226,1.034-0.337,1.551h15.612
				C72.693,78.813,72.576,78.296,72.469,77.779z"/>
			<g>
				<path fill="#4D4D4D" d="M57.193,79.33h0.198v-0.912C57.325,78.723,57.258,79.026,57.193,79.33z"/>
				<g>
					<rect x="58.62" y="77.779" fill="#4D4D4D" width="0.329" height="1.551"/>
					<rect x="60.175" y="77.779" fill="#4D4D4D" width="0.324" height="1.551"/>
					<rect x="61.728" y="77.779" fill="#4D4D4D" width="0.327" height="1.551"/>
					<rect x="63.284" y="77.779" fill="#4D4D4D" width="0.324" height="1.551"/>
					<rect x="64.836" y="77.779" fill="#4D4D4D" width="0.327" height="1.551"/>
					<rect x="66.393" y="77.779" fill="#4D4D4D" width="0.324" height="1.551"/>
					<rect x="67.945" y="77.779" fill="#4D4D4D" width="0.326" height="1.551"/>
					<rect x="69.5" y="77.779" fill="#4D4D4D" width="0.324" height="1.551"/>
					<rect x="71.057" y="77.779" fill="#4D4D4D" width="0.324" height="1.551"/>
				</g>
			</g>
		</g>
	</g>
	<path fill="#4D4D4D" d="M59.16,101.979h0.403v3.364H59.16V101.979z M62.916,105.344h0.409v-3.364h-0.409V105.344z M66.676,105.344
		h0.408v-3.364h-0.408V105.344z M70.436,101.979v3.364h0.402v-3.364H70.436z"/>
	<g>
		<path fill="#FFFFFF" d="M70.838,103.934c-0.127,0-0.283,0-0.402,0v1.41h0.402V103.934z"/>
		<path fill="#FFFFFF" d="M67.084,103.934c-0.141,0-0.285,0-0.408,0v1.41h0.408V103.934z"/>
		<path fill="#FFFFFF" d="M62.916,103.934v1.41h0.409v-1.41C63.201,103.934,63.056,103.934,62.916,103.934z"/>
		<path fill="#FFFFFF" d="M59.563,103.934c-0.122,0-0.275,0-0.403,0v1.41h0.403V103.934z"/>
	</g>
	<path fill="#FFFFFF" d="M72.287,76.861H57.711c-0.062,0.308-0.119,0.61-0.182,0.918h14.939
		C72.406,77.472,72.35,77.169,72.287,76.861z"/>
	<rect x="55.178" y="77.401" fill="#4D4D4D" width="19.642" height="0.378"/>
	<rect x="72.607" y="77.779" fill="#FFFFFF" width="0.328" height="1.551"/>
	<path fill="#4D4D4D" d="M72.607,79.33h0.197c-0.064-0.304-0.131-0.607-0.197-0.912V79.33z"/>
</g>
</svg>
