<?xml version="1.0" encoding="utf-8"?>
<!-- Generator: Adobe Illustrator 16.0.0, SVG Export Plug-In . SVG Version: 6.00 Build 0)  -->
<!DOCTYPE svg PUBLIC "-//W3C//DTD SVG 1.1//EN" "http://www.w3.org/Graphics/SVG/1.1/DTD/svg11.dtd">
<svg version="1.1" id="Layer_1" xmlns="http://www.w3.org/2000/svg" xmlns:xlink="http://www.w3.org/1999/xlink" x="0px" y="0px"
	 width="130px" height="130px" viewBox="0 0 130 130" enable-background="new 0 0 130 130" xml:space="preserve">
<rect fill="none" width="130" height="130"/>
<g>
	<path fill="#4D4D4D" d="M121.794,49.011c-8.246-10.461-30.859-36.866-56.791-45.34C36.22,13.075,11.824,43.967,5.972,51.93h118.055
		C123.45,51.144,122.701,50.156,121.794,49.011z"/>
	<g>
		<path fill="#4D4D4D" d="M121.822,126.492c-7.407-9.395-25.137-29.925-46.214-41.242c0.442-0.479,0.882-0.955,1.341-1.444
			c21.207,11.553,38.935,32.073,46.369,41.504c0.425,0.544,0.811,1.041,1.165,1.505V53.199c0-0.076-0.043-0.139-0.053-0.206
			c-0.015-0.13-0.039-0.249-0.083-0.371c-0.043-0.11-0.102-0.207-0.165-0.307c-0.072-0.1-0.141-0.193-0.228-0.278
			c-0.093-0.099-0.204-0.181-0.326-0.26c-0.062-0.043-0.106-0.098-0.174-0.137c-0.044-0.019-0.088-0.019-0.127-0.04
			c-0.126-0.057-0.263-0.089-0.408-0.124c-0.135-0.03-0.267-0.058-0.397-0.069c-0.054-0.005-0.098-0.023-0.146-0.023H7.624
			c-0.058,0-0.103,0.019-0.151,0.023c-0.131,0.012-0.252,0.039-0.383,0.067c-0.151,0.037-0.287,0.069-0.422,0.126
			c-0.035,0.021-0.079,0.021-0.122,0.04c-0.068,0.039-0.111,0.094-0.174,0.137c-0.122,0.079-0.238,0.161-0.326,0.26
			c-0.087,0.085-0.155,0.179-0.223,0.278c-0.064,0.1-0.127,0.196-0.17,0.307c-0.043,0.122-0.068,0.241-0.087,0.371
			c-0.005,0.067-0.048,0.13-0.048,0.206v73.985c0,0.14,0.058,0.261,0.092,0.393c4.71-6.35,23.646-30.537,47.637-43.5
			c0.449,0.479,0.887,0.951,1.318,1.42c-24.059,12.817-43.128,37.36-47.584,43.391C7.186,128.944,7.395,129,7.624,129h114.752
			c0.425,0,0.797-0.137,1.127-0.32C123.016,128.028,122.476,127.319,121.822,126.492z"/>
		<path fill="#FFFFFF" d="M53.904,85.887c3.693-1.947,7.488-3.636,11.375-4.905c3.871,1.266,7.649,2.966,11.334,4.919
			c9.945-10.771,24.629-24.258,41.067-31.315c0-8.847,0-15.866,0-16.247c0-0.738,0.058-0.945-0.116-1.378L82.548,2.274L18.666,2.243
			c-3.336,0-6.055,2.726-6.055,6.061v45.838C29.177,61.322,43.957,75.032,53.904,85.887z"/>
		<g>
			<g>
				<path fill="#4D4D4D" d="M13.854,72.556h-2.487V8.304C11.367,4.276,14.642,1,18.666,1L83.06,1.031l35.562,35.226l0.097,0.238
					c0.229,0.571,0.222,0.975,0.212,1.44l-0.006,0.402v34.109h-2.486l0.006-34.564c0.003-0.137,0.004-0.223,0.003-0.281
					L82.035,3.518l-63.37-0.031c-2.653,0-4.812,2.161-4.812,4.817V72.556z"/>
			</g>
		</g>
	</g>
	<path fill="#4D4D4D" d="M82.61,2.124l0.612,25.223c0,5.465,4.55,9.871,10.145,9.871l24.313-0.142L82.61,2.124z"/>
	<path fill="#4D4D4D" d="M75.006,26.519H25.158c-1.029,0-1.864-0.835-1.864-1.865c0-1.028,0.835-1.864,1.864-1.864h49.848
		c1.03,0,1.864,0.836,1.864,1.864C76.87,25.684,76.036,26.519,75.006,26.519z"/>
	<path fill="#4D4D4D" d="M75.006,41.8H25.158c-1.029,0-1.864-0.836-1.864-1.864c0-1.03,0.835-1.865,1.864-1.865h49.848
		c1.03,0,1.864,0.835,1.864,1.865C76.87,40.964,76.036,41.8,75.006,41.8z"/>
	<path fill="#4D4D4D" d="M101.315,57.079H28.811c-1.03,0-1.865-0.836-1.865-1.864c0-1.03,0.835-1.866,1.865-1.866h72.505
		c1.029,0,1.865,0.836,1.865,1.866C103.181,56.243,102.345,57.079,101.315,57.079z"/>
	<path fill="#4D4D4D" d="M81.936,72.36H48.191c-1.03,0-1.865-0.835-1.865-1.865c0-1.029,0.835-1.864,1.865-1.864h33.744
		c1.029,0,1.864,0.835,1.864,1.864C83.8,71.525,82.965,72.36,81.936,72.36z"/>
</g>
</svg>
