<?xml version="1.0" encoding="utf-8"?>
<!-- Generator: Adobe Illustrator 16.0.0, SVG Export Plug-In . SVG Version: 6.00 Build 0)  -->
<!DOCTYPE svg PUBLIC "-//W3C//DTD SVG 1.1//EN" "http://www.w3.org/Graphics/SVG/1.1/DTD/svg11.dtd">
<svg version="1.1" id="Layer_1" xmlns="http://www.w3.org/2000/svg" xmlns:xlink="http://www.w3.org/1999/xlink" x="0px" y="0px"
	 width="130px" height="130px" viewBox="0 0 130 130" enable-background="new 0 0 130 130" xml:space="preserve">
<rect fill="none" width="130" height="130"/>
<g>
	<g>
		<path fill="#4D4D4D" d="M60.86,68.568c26.317-8.476,49.117-32.734,58.705-44.398c-0.009-0.003-0.02-0.004-0.028-0.01
			c-0.128-0.055-0.269-0.088-0.409-0.123c-0.141-0.031-0.268-0.06-0.409-0.069c-0.048-0.006-0.092-0.024-0.141-0.024H3.115
			c-0.053,0-0.097,0.018-0.146,0.024c-0.132,0.01-0.255,0.039-0.387,0.067c-0.149,0.038-0.286,0.071-0.427,0.125
			c-0.004,0.002-0.011,0.003-0.016,0.005C11.589,35.678,34.586,60.104,60.86,68.568z"/>
		<path fill="#4D4D4D" d="M1.431,24.726c-0.039,0.052-0.083,0.099-0.118,0.155c-0.07,0.099-0.132,0.199-0.176,0.309
			c-0.044,0.124-0.066,0.241-0.088,0.373C1.044,25.63,1,25.692,1,25.77v73.487c5.556-9.535,16.969-27.39,32.166-42.151
			C18.58,46.242,7.62,32.842,1.431,24.726z"/>
		<path fill="#4D4D4D" d="M99.842,72.021c-3.841-4.724-8.056-9.473-12.64-13.925c-7.68,5.551-16.312,10.356-25.767,13.316
			l-0.575,0.184l-0.581-0.184c-9.423-2.951-18.042-7.74-25.706-13.272C18.657,73.534,6.863,92.468,1.677,101.535
			c0.379,0.304,0.88,0.501,1.438,0.501h92.888c-3.041-3.581-4.886-8.205-4.886-13.258C91.117,81.861,94.574,75.744,99.842,72.021z"
			/>
		<path fill="#4D4D4D" d="M120.558,25.189c-0.04-0.11-0.097-0.21-0.167-0.309c-0.033-0.052-0.075-0.095-0.115-0.142
			c-6.183,8.107-17.118,21.474-31.662,32.327c4.602,4.49,8.834,9.27,12.688,14.019c3.054-1.794,6.601-2.843,10.395-2.843
			c3.23,0,6.277,0.769,9.002,2.1V25.77c0-0.078-0.044-0.14-0.049-0.208C120.628,25.43,120.602,25.313,120.558,25.189z"/>
	</g>
	<path fill="#4D4D4D" d="M111.696,71.502c-9.551,0-17.312,7.75-17.312,17.276c0,9.527,7.761,17.277,17.312,17.277
		c9.538,0,17.304-7.75,17.304-17.277C129,79.252,121.234,71.502,111.696,71.502z M118.275,89.967h-5.396v5.396
		c0,0.684-0.664,1.341-1.351,1.341c-0.682,0-1.345-0.657-1.345-1.341v-5.396h-5.396c-0.687,0-1.354-0.667-1.354-1.351
		c0-0.685,0.668-1.349,1.354-1.349h5.396v-5.395c0-0.686,0.663-1.345,1.345-1.345c0.687,0,1.351,0.659,1.351,1.345v5.395h5.396
		c0.686,0,1.346,0.664,1.346,1.349C119.621,89.3,118.961,89.967,118.275,89.967z"/>
</g>
</svg>
