<?xml version="1.0" encoding="utf-8"?>
<!-- Generator: Adobe Illustrator 16.0.0, SVG Export Plug-In . SVG Version: 6.00 Build 0)  -->
<!DOCTYPE svg PUBLIC "-//W3C//DTD SVG 1.1//EN" "http://www.w3.org/Graphics/SVG/1.1/DTD/svg11.dtd">
<svg version="1.1" id="Layer_1" xmlns="http://www.w3.org/2000/svg" xmlns:xlink="http://www.w3.org/1999/xlink" x="0px" y="0px"
	 width="130px" height="130px" viewBox="0 0 130 130" enable-background="new 0 0 130 130" xml:space="preserve">
<rect fill="none" width="130" height="130"/>
<g>
	<path fill="#4D4D4D" d="M110.043,96.555c-1.224,0-2.393-0.159-3.537-0.409v20.9c0,1.809,1.544,3.277,3.452,3.277
		c1.899,0,3.443-1.469,3.443-3.277V96.2C112.312,96.425,111.202,96.555,110.043,96.555z"/>
	<path fill="#4D4D4D" d="M126.467,66.706H93.475c-1.398,0-2.537,1.159-2.537,2.578v13.865c0,1.425,1.139,2.589,2.537,2.589h32.992
		c1.395,0,2.533-1.164,2.533-2.589V69.284C129,67.865,127.861,66.706,126.467,66.706z"/>
	<path fill="#4D4D4D" d="M109.958,9.677c-1.908,0-3.452,1.469-3.452,3.277v41.661c1.145-0.255,2.313-0.415,3.537-0.415
		c1.159,0,2.269,0.135,3.358,0.359V12.954C113.401,11.146,111.857,9.677,109.958,9.677z"/>
	<path fill="#4D4D4D" d="M65.06,72.308c-1.229,0-2.403-0.165-3.547-0.42v45.144c0,1.813,1.553,3.292,3.462,3.292
		c1.919,0,3.468-1.479,3.468-3.292V71.938C67.354,72.168,66.224,72.308,65.06,72.308z"/>
	<path fill="#4D4D4D" d="M20.107,80.946c-1.215,0-2.394-0.146-3.538-0.39v36.46c0,1.823,1.544,3.307,3.453,3.307
		c1.899,0,3.453-1.483,3.453-3.307v-36.41C22.385,80.826,21.256,80.946,20.107,80.946z"/>
	<path fill="#4D4D4D" d="M36.535,52.866H3.539C2.14,52.866,1,54.03,1,55.449v13.865c0,1.424,1.14,2.583,2.539,2.583h32.997
		c1.389,0,2.528-1.159,2.528-2.583V55.449C39.063,54.03,37.924,52.866,36.535,52.866z"/>
	<path fill="#4D4D4D" d="M20.021,9.677c-1.908,0-3.453,1.499-3.453,3.348V40.77c1.144-0.245,2.323-0.395,3.538-0.395
		c1.149,0,2.278,0.12,3.368,0.345V13.024C23.475,11.176,21.92,9.677,20.021,9.677z"/>
	<path fill="#4D4D4D" d="M63.976,9.677c-1.909,0-3.453,1.499-3.453,3.348v21.72c1.144-0.25,2.323-0.4,3.537-0.4
		c1.149,0,2.278,0.125,3.368,0.346V13.024C67.429,11.176,65.875,9.677,63.976,9.677z"/>
	<path fill="#4D4D4D" d="M81.408,42.483H48.412c-1.4,0-2.539,1.164-2.539,2.583v13.865c0,1.419,1.139,2.583,2.539,2.583h32.996
		c1.395,0,2.528-1.164,2.528-2.583V45.066C83.937,43.647,82.803,42.483,81.408,42.483z"/>
</g>
</svg>
