<?xml version="1.0" encoding="utf-8"?>
<!-- Generator: Adobe Illustrator 16.0.0, SVG Export Plug-In . SVG Version: 6.00 Build 0)  -->
<!DOCTYPE svg PUBLIC "-//W3C//DTD SVG 1.1//EN" "http://www.w3.org/Graphics/SVG/1.1/DTD/svg11.dtd">
<svg version="1.1" id="Layer_1" xmlns="http://www.w3.org/2000/svg" xmlns:xlink="http://www.w3.org/1999/xlink" x="0px" y="0px"
	 width="130px" height="130px" viewBox="0 0 130 130" enable-background="new 0 0 130 130" xml:space="preserve">
<rect fill="none" width="130" height="130"/>
<g>
	<path fill="#4D4D4D" d="M126.129,99.086h-16.288c-1.577,0-2.865,1.276-2.865,2.859v16.219c0,1.583,1.288,2.859,2.865,2.859h16.288
		c1.589,0,2.871-1.276,2.871-2.859v-16.219C129,100.362,127.718,99.086,126.129,99.086z M126.129,68.978h-16.288
		c-1.577,0-2.865,1.283-2.865,2.866v16.259c0,1.583,1.288,2.871,2.865,2.871h16.288c1.589,0,2.871-1.288,2.871-2.871V71.844
		C129,70.261,127.718,68.978,126.129,68.978z M126.129,39.65h-16.288c-1.577,0-2.865,1.242-2.865,2.785v15.768
		c0,1.536,1.288,2.784,2.865,2.784h16.288c1.589,0,2.871-1.248,2.871-2.784V42.436C129,40.893,127.718,39.65,126.129,39.65z"/>
	<path fill="#4D4D4D" d="M90.11,98.9H73.863c-1.577,0-2.86,1.301-2.86,2.89v16.345c0,1.601,1.283,2.889,2.86,2.889H90.11
		c1.583,0,2.865-1.288,2.865-2.889V101.79C92.976,100.201,91.693,98.9,90.11,98.9z M90.11,68.983H73.863
		c-1.577,0-2.86,1.283-2.86,2.878v16.293c0,1.583,1.283,2.877,2.86,2.877H90.11c1.583,0,2.865-1.294,2.865-2.877V71.861
		C92.976,70.267,91.693,68.983,90.11,68.983z M90.11,8.977H73.863c-1.577,0-2.86,1.294-2.86,2.889v16.351
		c0,1.595,1.283,2.89,2.86,2.89H90.11c1.583,0,2.865-1.295,2.865-2.89V11.865C92.976,10.271,91.693,8.977,90.11,8.977z M90.11,38.98
		H73.863c-1.577,0-2.86,1.254-2.86,2.802v15.906c0,1.549,1.283,2.802,2.86,2.802H90.11c1.583,0,2.865-1.253,2.865-2.802V41.782
		C92.976,40.234,91.693,38.98,90.11,38.98z"/>
	<path fill="#4D4D4D" d="M56.125,68.983H39.85c-1.589,0-2.877,1.277-2.877,2.866v16.259c0,1.583,1.288,2.865,2.877,2.865h16.275
		c1.589,0,2.878-1.282,2.878-2.865V71.85C59.003,70.261,57.714,68.983,56.125,68.983z M56.125,99.022H39.85
		c-1.589,0-2.877,1.282-2.877,2.865v16.265c0,1.595,1.288,2.871,2.877,2.871h16.275c1.589,0,2.878-1.276,2.878-2.871v-16.265
		C59.003,100.305,57.714,99.022,56.125,99.022z"/>
	<path fill="#4D4D4D" d="M20.118,98.9H3.866C2.282,98.9,1,100.201,1,101.79v16.345c0,1.601,1.282,2.889,2.866,2.889h16.252
		c1.572,0,2.854-1.288,2.854-2.889V101.79C22.973,100.201,21.69,98.9,20.118,98.9z M20.118,8.977H3.866
		C2.282,8.977,1,10.271,1,11.865v16.351c0,1.595,1.282,2.89,2.866,2.89h16.252c1.572,0,2.854-1.295,2.854-2.89V11.865
		C22.973,10.271,21.69,8.977,20.118,8.977z M20.118,68.983H3.866C2.282,68.983,1,70.267,1,71.861v16.293
		c0,1.583,1.282,2.877,2.866,2.877h16.252c1.572,0,2.854-1.294,2.854-2.877V71.861C22.973,70.267,21.69,68.983,20.118,68.983z
		 M20.118,38.98H3.866C2.282,38.98,1,40.263,1,41.852v16.271c0,1.589,1.282,2.871,2.866,2.871h16.252
		c1.572,0,2.854-1.282,2.854-2.871V41.852C22.973,40.263,21.69,38.98,20.118,38.98z"/>
</g>
</svg>
