<?xml version="1.0" encoding="utf-8"?>
<!-- Generator: Adobe Illustrator 16.0.0, SVG Export Plug-In . SVG Version: 6.00 Build 0)  -->
<!DOCTYPE svg PUBLIC "-//W3C//DTD SVG 1.1//EN" "http://www.w3.org/Graphics/SVG/1.1/DTD/svg11.dtd">
<svg version="1.1" id="Layer_1" xmlns="http://www.w3.org/2000/svg" xmlns:xlink="http://www.w3.org/1999/xlink" x="0px" y="0px"
	 width="130px" height="130px" viewBox="0 0 130 130" enable-background="new 0 0 130 130" xml:space="preserve">
<rect fill="none" width="130" height="130"/>
<g>
	<path fill="#4D4D4D" d="M65,14.112c-28.058,0-50.888,22.83-50.888,50.891c0,28.058,22.83,50.885,50.888,50.885
		s50.888-22.827,50.888-50.885C115.888,36.942,93.058,14.112,65,14.112z M66.32,91.539c-6.277,0-11.856-2.403-15.729-6.894
		c-2.939-3.257-4.876-7.746-5.573-13.325h-4.802v-3.793h4.409c0-0.392,0-0.772,0-1.164c0-1.239,0.081-2.397,0.156-3.487h-4.565
		v-3.867h5.106c0.935-5.424,3.257-9.919,6.357-13.095c3.948-4.104,8.98-6.427,15.338-6.427c4.564,0,8.132,1.32,10.294,2.484
		l-1.545,5.106c-1.937-1.164-5.193-2.167-8.675-2.167c-4.184,0-7.591,1.47-10.225,4.259c-2.322,2.242-3.873,5.729-4.651,9.839H73.83
		v3.867H51.524c-0.081,1.009-0.155,2.173-0.155,3.257c0,0.467,0,0.847,0,1.395H73.83v3.793H51.905
		c0.622,4.495,2.173,7.826,4.259,10.149c2.87,3.021,6.744,4.49,10.928,4.49c4.104,0,7.666-1.545,9.447-2.554l1.319,4.876
		C75.455,89.913,71.427,91.539,66.32,91.539z"/>
	<path fill="#4D4D4D" d="M65,0.997c-35.349,0-64,28.657-64,64.006c0,35.343,28.651,64,64,64s64-28.657,64-64
		C129,29.654,100.349,0.997,65,0.997z M65,120.031c-30.346,0-55.031-24.686-55.031-55.028C9.969,34.657,34.654,9.968,65,9.968
		c30.34,0,55.031,24.689,55.031,55.035C120.031,95.346,95.34,120.031,65,120.031z"/>
</g>
</svg>
