<?xml version="1.0" encoding="utf-8"?>
<!-- Generator: Adobe Illustrator 16.0.0, SVG Export Plug-In . SVG Version: 6.00 Build 0)  -->
<!DOCTYPE svg PUBLIC "-//W3C//DTD SVG 1.1//EN" "http://www.w3.org/Graphics/SVG/1.1/DTD/svg11.dtd">
<svg version="1.1" id="Layer_1" xmlns="http://www.w3.org/2000/svg" xmlns:xlink="http://www.w3.org/1999/xlink" x="0px" y="0px"
	 width="130px" height="130px" viewBox="0 0 130 130" enable-background="new 0 0 130 130" xml:space="preserve">
<rect fill="none" width="130" height="130"/>
<path fill="#4D4D4D" d="M64.983,21.542c-23.39,0-41.634,16.57-63.983,43.441c19.275,22.975,35.434,43.475,63.983,43.475
	c28.57,0,49.566-25.945,64.017-42.995C114.213,45.515,93.213,21.542,64.983,21.542z M64.998,85.104
	c-11.105,0-20.109-8.999-20.109-20.104s9.004-20.106,20.109-20.106c11.1,0,20.102,9.001,20.102,20.106S76.098,85.104,64.998,85.104z
	 M70.756,65c0,3.181-2.577,5.759-5.758,5.759c-3.188,0-5.761-2.578-5.761-5.759c0-3.18,2.572-5.76,5.761-5.76
	C68.179,59.24,70.756,61.82,70.756,65z"/>
</svg>
