<?xml version="1.0" encoding="utf-8"?>
<!-- Generator: Adobe Illustrator 16.0.0, SVG Export Plug-In . SVG Version: 6.00 Build 0)  -->
<!DOCTYPE svg PUBLIC "-//W3C//DTD SVG 1.1//EN" "http://www.w3.org/Graphics/SVG/1.1/DTD/svg11.dtd">
<svg version="1.1" id="Layer_1" xmlns="http://www.w3.org/2000/svg" xmlns:xlink="http://www.w3.org/1999/xlink" x="0px" y="0px"
	 width="130px" height="130px" viewBox="0 0 130 130" enable-background="new 0 0 130 130" xml:space="preserve">
<rect fill="none" width="130" height="130"/>
<g>
	<path fill="#4D4D4D" d="M1.208,92.934C0.535,92.934,1.757,93.262,1.208,92.934L1.208,92.934z"/>
	<path fill="#4D4D4D" d="M125.452,21.662H38.567c-1.945,0-3.553,1.597-3.553,3.538V38.84H8.737l-0.049-0.083L8.532,38.84H3.027
		c-0.458,0-0.896,0.098-1.315,0.26l4.115,6.62l11.968,20.182L6.417,85.108l-0.243-0.044l-4.966,7.869l33.806,0.568v11.289
		c0,1.949,1.607,3.547,3.553,3.547h86.885c1.95,0,3.548-1.598,3.548-3.547V25.2C129,23.259,127.402,21.662,125.452,21.662z
		 M35.014,85.334H13.248l11.416-19.271l0.152-0.089l-0.055-0.073l0.055-0.078l-0.147-0.093L13.686,47.194h21.328V85.334z
		 M51.703,99.356c0,1.945-1.609,3.548-3.564,3.548h-2.66c-1.955,0-3.561-1.603-3.561-3.548v-3.42c0-1.95,1.605-3.542,3.561-3.542
		h2.66c1.955,0,3.564,1.592,3.564,3.542V99.356z M53.197,35.362c0,2.122-1.751,3.866-3.893,3.866h-2.894
		c-2.134,0-3.893-1.744-3.893-3.866v-3.744c0-2.122,1.759-3.861,3.893-3.861h2.894c2.142,0,3.893,1.739,3.893,3.861V35.362z
		 M68.807,99.356c0,1.945-1.597,3.548-3.544,3.548h-2.66c-1.955,0-3.562-1.603-3.562-3.548v-3.42c0-1.95,1.607-3.542,3.562-3.542
		h2.66c1.948,0,3.544,1.592,3.544,3.542V99.356z M69.812,35.362c0,2.122-1.747,3.866-3.887,3.866h-2.894
		c-2.121,0-3.878-1.744-3.878-3.866v-3.744c0-2.122,1.757-3.861,3.878-3.861h2.894c2.14,0,3.887,1.739,3.887,3.861V35.362z
		 M85.934,99.356c0,1.945-1.604,3.548-3.557,3.548h-2.648c-1.962,0-3.558-1.603-3.558-3.548v-3.42c0-1.95,1.596-3.542,3.558-3.542
		h2.648c1.952,0,3.557,1.592,3.557,3.542V99.356z M86.438,35.362c0,2.122-1.751,3.866-3.896,3.866h-2.886
		c-2.141,0-3.88-1.744-3.88-3.866v-3.744c0-2.122,1.739-3.861,3.88-3.861h2.886c2.145,0,3.896,1.739,3.896,3.861V35.362z
		 M103.059,99.356c0,1.945-1.595,3.548-3.558,3.548h-2.665c-1.945,0-3.553-1.603-3.553-3.548v-3.42c0-1.95,1.607-3.542,3.553-3.542
		h2.665c1.963,0,3.558,1.592,3.558,3.542V99.356z M103.059,35.362c0,2.122-1.744,3.866-3.871,3.866h-2.915
		c-2.124,0-3.876-1.744-3.876-3.866v-3.744c0-2.122,1.752-3.861,3.876-3.861h2.915c2.127,0,3.871,1.739,3.871,3.861V35.362z
		 M119.443,99.356c0,1.945-1.598,3.548-3.56,3.548h-2.663c-1.948,0-3.553-1.603-3.553-3.548v-3.42c0-1.95,1.604-3.542,3.553-3.542
		h2.663c1.962,0,3.56,1.592,3.56,3.542V99.356z M119.443,35.362c0,2.122-1.752,3.866-3.873,3.866h-2.918
		c-2.124,0-3.871-1.744-3.871-3.866v-3.744c0-2.122,1.747-3.861,3.871-3.861h2.918c2.121,0,3.873,1.739,3.873,3.861V35.362z"/>
</g>
</svg>
