<?xml version="1.0" encoding="utf-8"?>
<!-- Generator: Adobe Illustrator 16.0.0, SVG Export Plug-In . SVG Version: 6.00 Build 0)  -->
<!DOCTYPE svg PUBLIC "-//W3C//DTD SVG 1.1//EN" "http://www.w3.org/Graphics/SVG/1.1/DTD/svg11.dtd">
<svg version="1.1" id="Layer_1" xmlns="http://www.w3.org/2000/svg" xmlns:xlink="http://www.w3.org/1999/xlink" x="0px" y="0px"
	 width="130px" height="130px" viewBox="0 0 130 130" enable-background="new 0 0 130 130" xml:space="preserve">
<rect fill="none" width="130" height="130"/>
<g>
	<g>
		<g>
			<g>
				<path fill="#4D4D4D" d="M40.117,65.363c-2.664-5.903-1.959-11.789,2.157-17.992c1.739-2.624,4.423-5.855,7.02-8.979
					c1.863-2.244,3.745-4.516,5.154-6.43c-0.437-3.531-3.271-7.32-7.405-8.587l0.117,0.092c2.015,1.596,2.721,5.437,2.366,7.593
					c-0.941,4.963-6.253,9.365-9.55,13.483c-3.418,4.406-6.009,8.908-5.538,14.06c0.354,4.498,2.517,8.215,6.244,11.806
					c4.51,4.335,11.059,6.804,17.654,8.059C49.019,75.736,42.777,71.261,40.117,65.363z"/>
				<path fill="#4D4D4D" d="M93.223,51.298c-1.662-2.438-2.829-3.752-5.421-6.563c-1.634-1.769-4.006-4.213-4.711-6.559
					c-0.584-1.926-0.588-4.218,0.705-5.901c-0.971,0.698-4.842,3.254-5.326,7.226c0.909,1.177,1.892,2.353,2.956,3.58
					c4.444,5.13,9.482,10.943,7.878,19.176c-1.809,9.298-9.98,14.023-16.394,16.342c6.005-1.246,11.737-3.654,16.068-7.255
					C94.334,66.896,98.403,58.887,93.223,51.298z"/>
			</g>
		</g>
		<path fill="#4D4D4D" d="M97.825,84.196c-1.199-2.257-4.004-3.114-6.261-1.915l-55.002,29.23c-0.384,0.211-0.809,0.473-1.17,0.738
			c-4.122,3.057-4.986,8.873-1.931,12.994c3.053,4.118,8.87,4.982,12.989,1.931l50.042-37.089
			C98.306,88.748,98.913,86.249,97.825,84.196z M41.712,127.644c-2.293,1.388-5.81-0.227-7.856-3.606
			c-2.047-3.379-1.848-7.239,0.44-8.631c2.293-1.388,5.809,0.227,7.856,3.606C44.2,122.392,44.001,126.256,41.712,127.644z"/>
		<path fill="#4D4D4D" d="M94.609,112.25c-0.365-0.266-0.788-0.527-1.173-0.738l-55.003-29.23c-2.257-1.199-5.06-0.342-6.256,1.915
			c-1.092,2.053-0.484,4.552,1.327,5.89l50.043,37.089c4.122,3.052,9.938,2.188,12.991-1.931
			C99.592,121.123,98.727,115.307,94.609,112.25z M95.344,123.718c-2.011,3.318-5.464,4.906-7.709,3.541
			c-2.253-1.364-2.449-5.155-0.438-8.474c2.011-3.317,5.464-4.901,7.713-3.54C97.162,116.609,97.354,120.404,95.344,123.718z"/>
	</g>
	<path fill="#4D4D4D" d="M80.682,43.726c-1.42-1.64-2.762-3.189-3.885-4.786c-2.426-3.449-1.624-6.822-0.917-9.8
		c0.446-1.882,0.867-3.66,0.523-5.352c-0.529-2.515-1.997-4.652-4.033-5.95c1.167,3.035,0.475,7.042-2.745,9.252l-2.733,1.876
		l2.07-2.589c1.747-2.186,1.79-4.331,0.135-6.955c-1.086-1.782-2.987-3.322-5-4.95c-2.481-2.009-5.048-4.085-6.046-6.724
		c-0.897-2.37-0.49-4.702,1.104-6.749c-3.343,2.412-5.447,5.818-5.336,9.056c0.063,2.491,1.036,4.884,2.068,7.416
		c1.465,3.599,2.981,7.318,1.632,11.309c-0.746,2.147-4.012,6.078-7.468,10.24c-2.58,3.104-5.248,6.315-6.959,8.895
		c-3.966,5.98-4.627,11.397-2.08,17.045c2.191,4.852,6.982,8.702,14.002,11.366c-2.664-1.967-4.665-4.589-4.996-7.493
		c-0.417-3.671,0.673-7.024,3.976-9.277c-1.415,1.115-2.076,3.172-1.561,4.921c0.519,1.753,2.231,3.194,4.74,2.575
		c2.851-0.703,3.422-3.637,1.534-5.809c-1.846-2.115-4.478-3.933-4.948-6.559c-0.473-2.718,1.298-5.555,3.887-7.028
		c-2.005,2.249,1.177,8.624,4.948,8.997c-2.828-2.626-3.735-5.344-3.65-8.339c0.117-4.268,4.119-11.107,10.362-14.052
		c-4.593,4.963-1.765,10.023,2.238,14.521c2.829,3.091,6.916,7.974,8.838,11.576c3.124,5.869,0.315,12.114-4.467,15.93
		c5.396-2.561,11.003-6.921,12.424-14.221C89.852,54.307,85.189,48.928,80.682,43.726z"/>
</g>
</svg>
