<?xml version="1.0" encoding="utf-8"?>
<!-- Generator: Adobe Illustrator 16.0.0, SVG Export Plug-In . SVG Version: 6.00 Build 0)  -->
<!DOCTYPE svg PUBLIC "-//W3C//DTD SVG 1.1//EN" "http://www.w3.org/Graphics/SVG/1.1/DTD/svg11.dtd">
<svg version="1.1" id="Layer_1" xmlns="http://www.w3.org/2000/svg" xmlns:xlink="http://www.w3.org/1999/xlink" x="0px" y="0px"
	 width="130px" height="130px" viewBox="0 0 130 130" enable-background="new 0 0 130 130" xml:space="preserve">
<rect fill="none" width="130" height="130"/>
<g>
	<g>
		<path fill="#4D4D4D" d="M18.955,1c-1.853,0-3.354,1.497-3.354,3.349v121.303c0,1.853,1.501,3.349,3.354,3.349
			c1.847,0,3.348-1.496,3.348-3.349V4.349C22.303,2.497,20.802,1,18.955,1z"/>
	</g>
	<g>
		<path fill="#4D4D4D" d="M76.82,16.745c0,0,5.601-24.432-50.398-1.842v58.943c0,0,50.398-27.914,50.398,1.984
			c0,0,31.109-10.494,37.578-9.027V8.739C114.398,8.739,85.908,12.062,76.82,16.745z"/>
	</g>
</g>
</svg>
