<?xml version="1.0" encoding="utf-8"?>
<!-- Generator: Adobe Illustrator 16.0.0, SVG Export Plug-In . SVG Version: 6.00 Build 0)  -->
<!DOCTYPE svg PUBLIC "-//W3C//DTD SVG 1.1//EN" "http://www.w3.org/Graphics/SVG/1.1/DTD/svg11.dtd">
<svg version="1.1" id="Layer_1" xmlns="http://www.w3.org/2000/svg" xmlns:xlink="http://www.w3.org/1999/xlink" x="0px" y="0px"
	 width="130px" height="130px" viewBox="0 0 130 130" enable-background="new 0 0 130 130" xml:space="preserve">
<rect fill="none" width="130" height="130"/>
<g>
	<path fill="#4D4D4D" d="M107.897,28.6c0,0-46.346,0-59.249,0c-4.656,0-2.567-10.646-8.804-10.646c-5.17,0-22.696,0-22.696,0
		c-2.157,0-3.927,1.734-3.991,3.915v19.069h98.736v-8.311C111.894,30.409,110.099,28.6,107.897,28.6z"/>
	<path fill="#4D4D4D" d="M87.1,93.286c0-12.718,10.363-23.066,23.111-23.066c4.293,0,8.303,1.197,11.751,3.242l3.442-28.46H1
		l6.971,57.646c0.371,2.374,2.014,4.579,4.473,4.579h79.395C88.878,103.349,87.1,98.525,87.1,93.286z"/>
	<path fill="#4D4D4D" d="M110.211,74.527c-10.368,0-18.797,8.416-18.797,18.759c0,10.345,8.429,18.76,18.797,18.76
		c10.358,0,18.789-8.415,18.789-18.76C129,82.943,120.569,74.527,110.211,74.527z M117.355,94.577h-14.647
		c-0.743,0-1.466-0.726-1.466-1.466c0-0.745,0.723-1.462,1.466-1.462h14.647c0.743,0,1.458,0.717,1.458,1.462
		C118.813,93.852,118.099,94.577,117.355,94.577z"/>
</g>
</svg>
