<?xml version="1.0" encoding="utf-8"?>
<!-- Generator: Adobe Illustrator 16.0.0, SVG Export Plug-In . SVG Version: 6.00 Build 0)  -->
<!DOCTYPE svg PUBLIC "-//W3C//DTD SVG 1.1//EN" "http://www.w3.org/Graphics/SVG/1.1/DTD/svg11.dtd">
<svg version="1.1" id="Layer_1" xmlns="http://www.w3.org/2000/svg" xmlns:xlink="http://www.w3.org/1999/xlink" x="0px" y="0px"
	 width="130px" height="130px" viewBox="0 0 130 130" enable-background="new 0 0 130 130" xml:space="preserve">
<rect fill="none" width="130" height="130"/>
<g>
	<path fill="#4D4D4D" d="M107.931,28.584c0,0-46.36,0-59.27,0c-4.655,0-2.566-10.648-8.807-10.648c-5.171,0-22.701,0-22.701,0
		c-2.16,0-3.93,1.734-3.993,3.916v19.074h98.768v-8.313C111.928,30.394,110.13,28.584,107.931,28.584z"/>
	<path fill="#4D4D4D" d="M87.126,93.289c0-12.721,10.367-23.072,23.119-23.072c4.292,0,8.305,1.197,11.754,3.243l3.441-28.469H1
		l6.973,57.664c0.371,2.373,2.015,4.578,4.475,4.578h79.416C88.903,103.355,87.126,98.532,87.126,93.289z"/>
	<path fill="#4D4D4D" d="M110.205,74.535c-10.371,0-18.803,8.418-18.803,18.765s8.432,18.765,18.803,18.765
		c10.359,0,18.795-8.418,18.795-18.765S120.564,74.535,110.205,74.535z M118.526,93.439c-0.3,0.308-0.689,0.461-1.08,0.461
		c-0.395,0-0.788-0.153-1.084-0.461l-4.612-4.719l-0.008,13.927c0,0.867-0.67,1.573-1.514,1.573c-0.847,0-1.549-0.706-1.549-1.573
		l0.004-13.966l-4.647,4.75c-0.599,0.614-1.568,0.614-2.164-0.004c-0.595-0.611-0.595-1.608,0.004-2.224l7.253-7.405
		c0.596-0.611,1.562-0.609,2.16,0.004l7.237,7.417C119.126,91.831,119.126,92.828,118.526,93.439z"/>
</g>
</svg>
