<?xml version="1.0" encoding="utf-8"?>
<!-- Generator: Adobe Illustrator 16.0.0, SVG Export Plug-In . SVG Version: 6.00 Build 0)  -->
<!DOCTYPE svg PUBLIC "-//W3C//DTD SVG 1.1//EN" "http://www.w3.org/Graphics/SVG/1.1/DTD/svg11.dtd">
<svg version="1.1" id="Layer_1" xmlns="http://www.w3.org/2000/svg" xmlns:xlink="http://www.w3.org/1999/xlink" x="0px" y="0px"
	 width="130px" height="130px" viewBox="0 0 130 130" enable-background="new 0 0 130 130" xml:space="preserve">
<rect fill="none" width="130" height="130"/>
<g>
	<path fill="#4D4D4D" d="M112.308,40.779h0.081l-0.271-0.283c-0.084-0.114-0.163-0.228-0.272-0.342l-0.922-0.904L74.36,1.122
		L74.312,1h-1.23H22.838c-3.032,0-5.519,2.474-5.519,5.498v117.004c0,3.024,2.486,5.498,5.519,5.498h84.332
		c3.033,0,5.511-2.474,5.511-5.498c0,0,0-80.38,0-81.346C112.681,41.694,112.575,41.238,112.308,40.779z M34.645,20.926
		c0-0.667,0.506-1.216,1.129-1.216h23.761c0.614,0,1.129,0.549,1.129,1.216v2.704c0,0.665-0.515,1.214-1.129,1.214H35.773
		c-0.623,0-1.129-0.549-1.129-1.214V20.926z M34.645,42.584c0-0.674,0.506-1.229,1.129-1.229h23.761
		c0.614,0,1.129,0.555,1.129,1.229v2.751c0,0.675-0.515,1.23-1.129,1.23H35.773c-0.623,0-1.129-0.555-1.129-1.23V42.584z
		 M93.188,112.552c0,0.676-0.5,1.23-1.1,1.23H35.743c-0.607,0-1.099-0.555-1.099-1.23v-2.751c0-0.674,0.491-1.229,1.099-1.229
		h56.345c0.6,0,1.1,0.555,1.1,1.229V112.552z M93.188,88.685c0,0.667-0.5,1.216-1.1,1.216H35.743c-0.607,0-1.099-0.549-1.099-1.216
		v-2.702c0-0.667,0.491-1.216,1.099-1.216h56.345c0.6,0,1.1,0.549,1.1,1.216V88.685z M93.188,67.043c0,0.676-0.5,1.23-1.1,1.23
		H35.743c-0.607,0-1.099-0.555-1.099-1.23v-2.75c0-0.675,0.491-1.23,1.099-1.23h56.345c0.6,0,1.1,0.555,1.1,1.23V67.043z"/>
	<path fill="#FFFFFF" d="M76.417,6.4l30.887,32.21H87.721c-5.325,0-11.283-3.868-11.283-9.046L76.417,6.4"/>
</g>
</svg>
