<?xml version="1.0" encoding="utf-8"?>
<!-- Generator: Adobe Illustrator 16.0.0, SVG Export Plug-In . SVG Version: 6.00 Build 0)  -->
<!DOCTYPE svg PUBLIC "-//W3C//DTD SVG 1.1//EN" "http://www.w3.org/Graphics/SVG/1.1/DTD/svg11.dtd">
<svg version="1.1" id="Layer_1" xmlns="http://www.w3.org/2000/svg" xmlns:xlink="http://www.w3.org/1999/xlink" x="0px" y="0px"
	 width="130px" height="130px" viewBox="0 0 130 130" enable-background="new 0 0 130 130" xml:space="preserve">
<rect fill="none" width="130" height="130"/>
<g>
	<path fill="#4D4D4D" d="M96.973,1H46.729h-1.23L45.45,1.122L8.887,39.25l-0.921,0.904c-0.11,0.114-0.188,0.228-0.273,0.342
		l-0.271,0.283h0.08c-0.267,0.458-0.373,0.915-0.373,1.377c0,0.965,0,81.346,0,81.346c0,3.024,2.478,5.498,5.511,5.498h84.333
		c3.033,0,5.519-2.474,5.519-5.498V6.498C102.491,3.474,100.006,1,96.973,1z M58.883,19.354c0-0.667,0.514-1.216,1.128-1.216h17.256
		c0.622,0,1.129,0.549,1.129,1.216v4.007c0,0.665-0.507,1.213-1.129,1.213H60.011c-0.614,0-1.128-0.549-1.128-1.213V19.354z
		 M58.883,41.012c0-0.673,0.514-1.228,1.128-1.228h4.244c0.623,0,1.129,0.555,1.129,1.228v4.054c0,0.675-0.506,1.23-1.129,1.23
		h-4.244c-0.614,0-1.128-0.555-1.128-1.23V41.012z M26.359,62.721c0-0.675,0.5-1.23,1.099-1.23h28.153c0.607,0,1.1,0.555,1.1,1.23
		v4.053c0,0.676-0.492,1.23-1.1,1.23H27.458c-0.599,0-1.099-0.555-1.099-1.23V62.721z M26.359,84.411c0-0.667,0.5-1.216,1.099-1.216
		h28.153c0.607,0,1.1,0.549,1.1,1.216v4.005c0,0.667-0.492,1.216-1.1,1.216H27.458c-0.599,0-1.099-0.549-1.099-1.216V84.411z
		 M84.901,112.282c0,0.676-0.491,1.23-1.099,1.23H27.458c-0.599,0-1.099-0.555-1.099-1.23v-4.053c0-0.674,0.5-1.229,1.099-1.229
		h56.345c0.607,0,1.099,0.555,1.099,1.229V112.282z"/>
	<path fill="#FFFFFF" d="M43.394,6.4l-0.021,23.167c0,5.175-5.957,9.043-11.283,9.043H12.506L43.394,6.4"/>
	<g>
		<g>
			<path fill="#A1A1A1" d="M105.109,15.938c-6.491-3.773-12.863-5.743-16.955-5.447L61.374,56.727l30.403,17.218L118.22,27.91
				C116.427,24.21,111.583,19.691,105.109,15.938z"/>
		</g>
		<g>
			<path fill="#C3C3C3" d="M106.358,16.659c-3.511-2.04-6.976-3.533-10.071-4.444L67.286,62.906l13.137,7.585l29.498-51.562
				C108.794,18.154,107.619,17.389,106.358,16.659z"/>
		</g>
		<g>
			<path fill="#ECECEC" d="M88.154,10.491L61.517,56.479l2.747,1.067l7.114,5.498l28.688-49.688
				C95.434,11.294,91.173,10.271,88.154,10.491z"/>
		</g>
		<g>
			<path fill="#F7F7F7" d="M81.685,68.318c-2.882-6.16-9.826-6.107-9.826-6.107c-1.941-4.448-5.947-6.839-10.336-5.69
				c-0.064,0.529-0.433,32.124,0.12,32.321l30.193-15.006C87.087,67.087,81.685,68.318,81.685,68.318z"/>
		</g>
		<g>
			<path fill="#6D6D6D" d="M61.642,88.842l7.258-3.606c-1.538-1.562-4.073-3.491-7.546-4.131
				C61.381,85.522,61.464,88.778,61.642,88.842z"/>
		</g>
		<g>
			<path fill="#6D6D6D" d="M110.637,5.93C100.568,0.097,94.936-0.511,91.844,4.81c-0.17,0.302-1.537,2.286-3.073,4.743
				c4.094-0.259,10.435,1.604,16.89,5.351c6.49,3.771,11.349,8.396,13.125,12.111c1.58-2.697,2.696-4.542,2.887-4.872
				C124.988,16.428,121.462,12.213,110.637,5.93z"/>
		</g>
	</g>
</g>
</svg>
