<?xml version="1.0" encoding="utf-8"?>
<!-- Generator: Adobe Illustrator 16.0.0, SVG Export Plug-In . SVG Version: 6.00 Build 0)  -->
<!DOCTYPE svg PUBLIC "-//W3C//DTD SVG 1.1//EN" "http://www.w3.org/Graphics/SVG/1.1/DTD/svg11.dtd">
<svg version="1.1" id="Layer_1" xmlns="http://www.w3.org/2000/svg" xmlns:xlink="http://www.w3.org/1999/xlink" x="0px" y="0px"
	 width="130px" height="130px" viewBox="0 0 130 130" enable-background="new 0 0 130 130" xml:space="preserve">
<rect fill="none" width="130" height="130"/>
<g>
	<g>
		<path fill="#4D4D4D" d="M99.379,89.23c-10.99,0-19.926,8.922-19.926,19.885c0,10.965,8.936,19.885,19.926,19.885
			c10.979,0,19.916-8.92,19.916-19.885C119.295,98.152,110.357,89.23,99.379,89.23z M108.195,111.846l-7.686,7.848
			c-0.631,0.648-1.656,0.646-2.289-0.004l-7.67-7.861c-0.637-0.646-0.637-1.701,0-2.352c0.318-0.326,0.73-0.488,1.145-0.488
			c0.418,0,0.834,0.162,1.15,0.488l4.885,5l0.01-14.758c0-0.918,0.709-1.666,1.604-1.666c0.898,0,1.643,0.748,1.643,1.666
			l-0.006,14.799l4.924-5.033c0.635-0.648,1.664-0.648,2.295,0.006C108.83,110.137,108.83,111.193,108.195,111.846z"/>
		<path fill="#4D4D4D" d="M103.639,41.542L65.143,1.26c-0.031-0.059-0.071-0.091-0.11-0.115l-0.057-0.06v0.021
			c-0.004,0-0.004-0.005-0.009-0.005L16.094,1c-2.962,0-5.389,2.414-5.389,5.365v114.239c0,2.951,2.427,5.367,5.389,5.367h66.404
			c-4.33-4.32-7.012-10.285-7.012-16.863c0-13.152,10.717-23.85,23.895-23.85c1.516,0,2.992,0.156,4.432,0.428
			c0-20.833,0-43.355,0-43.861C103.812,41.72,103.738,41.628,103.639,41.542z M28.356,20.65c0-0.658,0.497-1.199,1.111-1.199H52.9
			c0.605,0,1.115,0.541,1.115,1.199v2.667c0,0.656-0.51,1.196-1.115,1.196H29.467c-0.614,0-1.111-0.541-1.111-1.196V20.65z
			 M28.356,42.009c0-0.664,0.497-1.211,1.111-1.211H52.9c0.605,0,1.115,0.547,1.115,1.211v2.713c0,0.667-0.51,1.214-1.115,1.214
			H29.467c-0.614,0-1.111-0.547-1.111-1.214V42.009z M66.844,111.012c0,0.666-0.494,1.213-1.086,1.213H29.438
			c-0.598,0-1.082-0.547-1.082-1.213v-2.713c0-0.664,0.484-1.211,1.082-1.211h36.319c0.592,0,1.086,0.547,1.086,1.211V111.012z
			 M75.398,87.475c0,0.658-0.494,1.199-1.086,1.199H29.438c-0.598,0-1.082-0.541-1.082-1.199v-2.666
			c0-0.656,0.484-1.197,1.082-1.197h44.875c0.592,0,1.086,0.541,1.086,1.197V87.475z M86.092,66.132
			c0,0.666-0.494,1.214-1.088,1.214H29.438c-0.598,0-1.082-0.548-1.082-1.214v-2.713c0-0.667,0.484-1.213,1.082-1.213h55.566
			c0.594,0,1.088,0.547,1.088,1.213V66.132z"/>
	</g>
	<path fill="#FFFFFF" d="M67.119,6.424l31.609,33.075H78.67c-5.441,0-11.529-3.957-11.529-9.253L67.119,6.424"/>
</g>
</svg>
