<?xml version="1.0" encoding="utf-8"?>
<!-- Generator: Adobe Illustrator 16.0.0, SVG Export Plug-In . SVG Version: 6.00 Build 0)  -->
<!DOCTYPE svg PUBLIC "-//W3C//DTD SVG 1.1//EN" "http://www.w3.org/Graphics/SVG/1.1/DTD/svg11.dtd">
<svg version="1.1" id="Layer_1" xmlns="http://www.w3.org/2000/svg" xmlns:xlink="http://www.w3.org/1999/xlink" x="0px" y="0px"
	 width="130px" height="130px" viewBox="0 0 130 130" enable-background="new 0 0 130 130" xml:space="preserve">
<rect fill="none" width="130" height="130"/>
<g>
	<path fill="#4D4D4D" d="M104.285,41.21L66.104,1.26c-0.029-0.058-0.066-0.09-0.108-0.114l-0.057-0.059v0.021
		c-0.002,0-0.006-0.005-0.008-0.005L17.458,1c-2.938,0-5.344,2.395-5.344,5.322v113.303c0,2.926,2.406,5.32,5.344,5.32h61.383
		c-0.049-0.354-0.109-0.701-0.109-1.068v-17.408c0-3.188,1.959-6.025,4.832-7.291c1.211-6.957,7.586-13.941,16.203-13.941
		c1.652,0,3.223,0.262,4.689,0.727c0-20.927,0-43.963,0-44.472C104.457,41.388,104.385,41.296,104.285,41.21z M29.961,20.49
		c0-0.652,0.493-1.189,1.103-1.189h23.24c0.601,0,1.106,0.537,1.106,1.189v2.646c0,0.65-0.506,1.187-1.106,1.187h-23.24
		c-0.609,0-1.103-0.536-1.103-1.187V20.49z M29.961,41.674c0-0.659,0.493-1.201,1.103-1.201h23.24c0.601,0,1.106,0.542,1.106,1.201
		v2.691c0,0.661-0.506,1.203-1.106,1.203h-23.24c-0.609,0-1.103-0.542-1.103-1.203V41.674z M68.133,110.111
		c0,0.66-0.488,1.203-1.076,1.203H31.035c-0.593,0-1.073-0.543-1.073-1.203v-2.691c0-0.658,0.48-1.201,1.073-1.201h36.022
		c0.588,0,1.076,0.543,1.076,1.201V110.111z M76.617,86.766c0,0.652-0.488,1.189-1.076,1.189H31.035
		c-0.593,0-1.073-0.537-1.073-1.189v-2.643c0-0.652,0.48-1.189,1.073-1.189h44.506c0.588,0,1.076,0.537,1.076,1.189V86.766z
		 M87.223,65.599c0,0.661-0.488,1.204-1.076,1.204H31.035c-0.593,0-1.073-0.543-1.073-1.204v-2.69c0-0.661,0.48-1.204,1.073-1.204
		h55.112c0.588,0,1.076,0.543,1.076,1.204V65.599z"/>
	<path fill="#FFFFFF" d="M68.064,6.381l31.35,32.803H79.521c-5.398,0-11.436-3.924-11.436-9.177L68.064,6.381"/>
	<path fill="#4D4D4D" d="M113.332,101.412h-0.064c-0.141-6.227-5.93-13.125-13.5-13.125c-7.568,0-13.361,6.904-13.504,13.131
		c0,0.008,0.072,0.012,0.131,0.018c-0.348,0.02-0.59,0.039-0.588,0.061c-2.357,0.48-4.156,2.51-4.156,4.973v17.408
		c0,2.82,2.336,5.123,5.199,5.123h25.834c2.859,0,5.201-2.303,5.201-5.123v-17.408C117.885,103.869,115.889,101.732,113.332,101.412
		z M99.768,92.361c4.971,0,8.889,4.709,8.998,9.035l-17.99-0.059C90.92,97.027,94.82,92.361,99.768,92.361z M101,115.668v4.645
		c0,0.666-0.555,1.209-1.236,1.209c-0.68,0-1.227-0.543-1.227-1.209v-4.645c-1.266-0.488-2.154-1.686-2.154-3.1
		c0-1.844,1.512-3.338,3.381-3.338c1.871,0,3.389,1.494,3.389,3.338C103.152,113.982,102.26,115.18,101,115.668z"/>
</g>
</svg>
