<?xml version="1.0" encoding="utf-8"?>
<!-- Generator: Adobe Illustrator 16.0.0, SVG Export Plug-In . SVG Version: 6.00 Build 0)  -->
<!DOCTYPE svg PUBLIC "-//W3C//DTD SVG 1.1//EN" "http://www.w3.org/Graphics/SVG/1.1/DTD/svg11.dtd">
<svg version="1.1" id="Layer_1" xmlns="http://www.w3.org/2000/svg" xmlns:xlink="http://www.w3.org/1999/xlink" x="0px" y="0px"
	 width="130px" height="130px" viewBox="0 0 130 130" enable-background="new 0 0 130 130" xml:space="preserve">
<rect fill="none" width="130" height="130"/>
<g>
	<g>
		<path fill="#4D4D4D" d="M103.639,41.542L65.141,1.261c-0.029-0.059-0.067-0.091-0.108-0.115l-0.057-0.06v0.021
			c-0.002,0-0.006-0.005-0.009-0.005L16.094,1c-2.962,0-5.389,2.414-5.389,5.365v114.24c0,2.951,2.427,5.365,5.389,5.365h66.404
			c-4.33-4.318-7.012-10.283-7.012-16.863c0-13.148,10.717-23.85,23.895-23.85c1.516,0,2.992,0.156,4.432,0.428
			c0-20.832,0-43.354,0-43.86C103.812,41.721,103.738,41.629,103.639,41.542z"/>
		<path fill="#4D4D4D" d="M99.379,89.234c-10.99,0-19.926,8.918-19.926,19.883S88.389,129,99.379,129
			c10.979,0,19.916-8.918,19.916-19.883S110.357,89.234,99.379,89.234z M108.195,111.844l-7.686,7.85
			c-0.631,0.648-1.656,0.646-2.289-0.002l-7.67-7.859c-0.637-0.652-0.637-1.705,0-2.352c0.318-0.328,0.73-0.492,1.145-0.492
			c0.418,0,0.834,0.164,1.15,0.492l4.885,4.998l0.01-14.76c0-0.92,0.709-1.668,1.604-1.668c0.898,0,1.643,0.748,1.643,1.668
			l-0.006,14.801l4.924-5.033c0.635-0.65,1.664-0.65,2.295,0.004C108.83,110.141,108.83,111.193,108.195,111.844z"/>
	</g>
	<path fill="#FFFFFF" d="M67.119,6.425L98.729,39.5H78.67c-5.441,0-11.529-3.957-11.529-9.253L67.119,6.425"/>
</g>
</svg>
