<?xml version="1.0" encoding="utf-8"?>
<!-- Generator: Adobe Illustrator 16.0.0, SVG Export Plug-In . SVG Version: 6.00 Build 0)  -->
<!DOCTYPE svg PUBLIC "-//W3C//DTD SVG 1.1//EN" "http://www.w3.org/Graphics/SVG/1.1/DTD/svg11.dtd">
<svg version="1.1" id="Layer_1" xmlns="http://www.w3.org/2000/svg" xmlns:xlink="http://www.w3.org/1999/xlink" x="0px" y="0px"
	 width="130px" height="130px" viewBox="0 0 130 130" enable-background="new 0 0 130 130" xml:space="preserve">
<rect fill="none" width="130" height="130"/>
<g>
	<g>
		<path fill="#4D4D4D" d="M104.295,41.237L66.09,1.259c-0.031-0.058-0.07-0.09-0.111-0.114l-0.056-0.059v0.021
			c-0.004,0-0.004-0.005-0.008-0.005L17.41,1c-2.939,0-5.348,2.396-5.348,5.325v113.38c0,2.93,2.408,5.325,5.348,5.325h61.438
			c-0.051-0.371-0.115-0.737-0.115-1.123V106.6c0-2.989,1.617-5.646,4.137-7.094c1.236-7.702,7.979-15.411,17.059-15.411
			c1.547,0,3.07,0.235,4.539,0.681c0-20.598,0-42.758,0-43.257C104.467,41.415,104.395,41.323,104.295,41.237z"/>
		<path fill="#4D4D4D" d="M113.416,101.574l-22.891-0.078c0.189-4.655,4.201-9.801,9.402-9.801c2.801,0,4.859,1.438,6.09,2.649
			c0.877,0.86,2.299,0.856,3.172-0.011c0.875-0.864,0.873-2.263-0.008-3.121c-2.586-2.537-5.873-3.935-9.254-3.935
			c-8,0-13.926,7.657-14.076,14.406c0,0.004,0.055,0.006,0.072,0.011c-2.277,0.526-4.006,2.504-4.006,4.904v17.308
			c0,2.798,2.324,5.093,5.172,5.093h25.682c2.84,0,5.166-2.295,5.166-5.093V106.6C117.938,104.017,115.955,101.89,113.416,101.574z
			 M101.152,115.744v4.614c0,0.668-0.549,1.206-1.225,1.206s-1.221-0.538-1.221-1.206v-4.614c-1.258-0.484-2.145-1.677-2.145-3.082
			c0-1.832,1.506-3.318,3.365-3.318c1.861,0,3.367,1.486,3.367,3.318C103.295,114.067,102.406,115.26,101.152,115.744z"/>
	</g>
	<path fill="#FFFFFF" d="M68.051,6.384L99.422,39.21H79.516c-5.402,0-11.445-3.927-11.445-9.184L68.051,6.384"/>
</g>
</svg>
