<?xml version="1.0" encoding="utf-8"?>
<!-- Generator: Adobe Illustrator 16.0.0, SVG Export Plug-In . SVG Version: 6.00 Build 0)  -->
<!DOCTYPE svg PUBLIC "-//W3C//DTD SVG 1.1//EN" "http://www.w3.org/Graphics/SVG/1.1/DTD/svg11.dtd">
<svg version="1.1" id="Layer_1" xmlns="http://www.w3.org/2000/svg" xmlns:xlink="http://www.w3.org/1999/xlink" x="0px" y="0px"
	 width="130px" height="130px" viewBox="0 0 130 130" enable-background="new 0 0 130 130" xml:space="preserve">
<rect fill="none" width="130" height="130"/>
<g>
	<g>
		<path fill="#4D4D4D" d="M96.122,1H47.215h-1.197L45.97,1.119L10.38,38.233l-0.896,0.88c-0.107,0.111-0.184,0.222-0.266,0.333
			l-0.264,0.275h0.078c-0.26,0.446-0.363,0.891-0.363,1.34c0,0.94,0,79.181,0,79.181c0,2.945,2.412,5.352,5.364,5.352h64.22
			c-4.279-4.068-6.965-9.795-6.965-16.148c0-12.307,10.028-22.318,22.357-22.318c2.764,0,5.402,0.527,7.848,1.449V6.352
			C101.494,3.408,99.074,1,96.122,1z M59.045,39.948c0-0.655,0.501-1.195,1.099-1.195h4.131c0.606,0,1.099,0.54,1.099,1.195v3.946
			c0,0.657-0.492,1.197-1.099,1.197h-4.131c-0.598,0-1.099-0.54-1.099-1.197V39.948z M27.387,61.08c0-0.658,0.486-1.198,1.069-1.198
			h27.404c0.592,0,1.069,0.54,1.069,1.198v3.945c0,0.658-0.478,1.198-1.069,1.198H28.457c-0.583,0-1.069-0.54-1.069-1.198V61.08z
			 M27.387,82.191c0-0.648,0.486-1.182,1.069-1.182h27.404c0.592,0,1.069,0.533,1.069,1.182v3.898c0,0.65-0.478,1.184-1.069,1.184
			H28.457c-0.583,0-1.069-0.533-1.069-1.184V82.191z M65.448,109.322c0,0.656-0.478,1.197-1.069,1.197H28.457
			c-0.583,0-1.069-0.541-1.069-1.197v-3.945c0-0.656,0.486-1.195,1.069-1.195h35.922c0.592,0,1.069,0.539,1.069,1.195V109.322z
			 M78.04,22.767c0,0.647-0.493,1.181-1.1,1.181H60.144c-0.598,0-1.099-0.534-1.099-1.181v-3.9c0-0.649,0.501-1.183,1.099-1.183
			H76.94c0.606,0,1.1,0.534,1.1,1.183V22.767z"/>
		<g>
			<g>
				<path fill="#A1A1A1" d="M104.042,15.541c-6.318-3.672-12.521-5.59-16.504-5.302L61.47,55.245l29.593,16.76l25.74-44.81
					C115.058,23.593,110.344,19.194,104.042,15.541z"/>
			</g>
			<g>
				<path fill="#C3C3C3" d="M105.258,16.243c-3.418-1.985-6.79-3.438-9.804-4.326L67.226,61.259l12.787,7.384l28.713-50.189
					C107.629,17.698,106.484,16.954,105.258,16.243z"/>
			</g>
			<g>
				<path fill="#ECECEC" d="M87.538,10.239L61.61,55.003l2.674,1.039l6.924,5.352l27.926-48.366
					C94.623,11.021,90.476,10.025,87.538,10.239z"/>
			</g>
			<g>
				<path fill="#F7F7F7" d="M81.241,66.527c-2.806-5.996-9.565-5.945-9.565-5.945c-1.89-4.33-5.789-6.657-10.062-5.539
					c-0.062,0.515-0.42,31.269,0.118,31.46l29.389-14.605C86.499,65.329,81.241,66.527,81.241,66.527z"/>
			</g>
			<g>
				<path fill="#6D6D6D" d="M61.732,86.504l7.064-3.51c-1.496-1.52-3.964-3.398-7.344-4.021
					C61.478,83.273,61.558,86.443,61.732,86.504z"/>
			</g>
			<g>
				<path fill="#6D6D6D" d="M109.422,5.8c-9.8-5.678-15.283-6.27-18.293-1.091c-0.164,0.294-1.496,2.226-2.99,4.617
					c3.984-0.252,10.156,1.561,16.439,5.208c6.317,3.67,11.047,8.172,12.776,11.789c1.537-2.625,2.624-4.421,2.81-4.742
					C123.392,16.018,119.96,11.916,109.422,5.8z"/>
			</g>
		</g>
		<path fill="#4D4D4D" d="M93.646,89.891c-10.808,0-19.596,8.773-19.596,19.555c0,10.785,8.788,19.555,19.596,19.555
			c10.8,0,19.587-8.77,19.587-19.555C113.233,98.664,104.446,89.891,93.646,89.891z M101.094,110.791h-6.107v6.109
			c0,0.773-0.753,1.516-1.525,1.516c-0.775,0-1.527-0.742-1.527-1.516v-6.109h-6.108c-0.774,0-1.529-0.756-1.529-1.529
			s0.755-1.523,1.529-1.523h6.108v-6.107c0-0.775,0.752-1.523,1.527-1.523c0.772,0,1.525,0.748,1.525,1.523v6.107h6.107
			c0.773,0,1.52,0.75,1.52,1.523S101.867,110.791,101.094,110.791z"/>
	</g>
	<path fill="#FFFFFF" d="M43.968,6.257l-0.021,22.55c0,5.038-5.798,8.803-10.982,8.803H13.904L43.968,6.257"/>
</g>
</svg>
