<?xml version="1.0" encoding="utf-8"?>
<!-- Generator: Adobe Illustrator 16.0.0, SVG Export Plug-In . SVG Version: 6.00 Build 0)  -->
<!DOCTYPE svg PUBLIC "-//W3C//DTD SVG 1.1//EN" "http://www.w3.org/Graphics/SVG/1.1/DTD/svg11.dtd">
<svg version="1.1" id="Layer_1" xmlns="http://www.w3.org/2000/svg" xmlns:xlink="http://www.w3.org/1999/xlink" x="0px" y="0px"
	 width="130px" height="130px" viewBox="0 0 130 130" enable-background="new 0 0 130 130" xml:space="preserve">
<rect fill="none" width="130" height="130"/>
<g>
	<g>
		<path fill="#4D4D4D" d="M102.948,39.387L66.499,1.247c-0.029-0.055-0.067-0.086-0.104-0.109l-0.054-0.056v0.02
			c-0.004,0-0.004-0.005-0.008-0.005L20.058,1c-2.805,0-5.103,2.286-5.103,5.08v108.168c0,2.794,2.298,5.08,5.103,5.08h56.564
			l7.027-7.028c-1.364-2.562-2.076-5.398-2.076-8.329c0-9.855,8.017-17.873,17.873-17.873c1.258,0,2.481,0.134,3.666,0.382
			c0-20.994,0-46.302,0-46.824C103.112,39.557,103.043,39.469,102.948,39.387z"/>
		<path fill="#4D4D4D" d="M99.446,88.372c-8.601,0-15.599,6.996-15.599,15.599c0,3.108,0.92,6.099,2.666,8.682l-10.939,10.941
			c-0.6,0.597-0.93,1.392-0.93,2.236c0,0.847,0.33,1.644,0.925,2.238C76.165,128.67,76.96,129,77.809,129
			c0.848,0,1.643-0.33,2.24-0.93l10.985-10.984c2.517,1.625,5.41,2.483,8.412,2.483c8.6,0,15.599-6.998,15.599-15.599
			C115.045,95.368,108.046,88.372,99.446,88.372z M99.446,113.233c-5.108,0-9.265-4.155-9.265-9.263c0-5.11,4.156-9.265,9.265-9.265
			c5.107,0,9.263,4.154,9.263,9.265C108.709,109.078,104.554,113.233,99.446,113.233z"/>
	</g>
	<path fill="#FFFFFF" d="M68.37,6.137l29.929,31.316H79.308c-5.153,0-10.918-3.746-10.918-8.761L68.37,6.137"/>
</g>
</svg>
