<?xml version="1.0" encoding="utf-8"?>
<!-- Generator: Adobe Illustrator 16.0.0, SVG Export Plug-In . SVG Version: 6.00 Build 0)  -->
<!DOCTYPE svg PUBLIC "-//W3C//DTD SVG 1.1//EN" "http://www.w3.org/Graphics/SVG/1.1/DTD/svg11.dtd">
<svg version="1.1" id="Layer_1" xmlns="http://www.w3.org/2000/svg" xmlns:xlink="http://www.w3.org/1999/xlink" x="0px" y="0px"
	 width="130px" height="130px" viewBox="0 0 130 130" enable-background="new 0 0 130 130" xml:space="preserve">
<rect fill="none" width="130" height="130"/>
<g>
	<g>
		<path fill="#4D4D4D" d="M103.64,41.546L65.14,1.262c-0.029-0.059-0.066-0.091-0.108-0.115l-0.057-0.06v0.021
			c-0.002,0-0.006-0.006-0.008-0.006L16.09,1c-2.962,0-5.389,2.415-5.389,5.366v114.247c0,2.952,2.427,5.366,5.389,5.366h66.409
			c-4.332-4.319-7.014-10.284-7.014-16.864c0-13.149,10.719-23.851,23.896-23.851c1.517,0,2.993,0.156,4.433,0.428
			c0-20.834,0-43.358,0-43.864C103.813,41.724,103.74,41.632,103.64,41.546z"/>
		<path fill="#4D4D4D" d="M99.381,89.231c-10.99,0-19.925,8.919-19.925,19.884c0,10.966,8.935,19.885,19.925,19.885
			c10.98,0,19.918-8.919,19.918-19.885C119.299,98.15,110.361,89.231,99.381,89.231z M109.653,110.77H87.771
			c-1.109,0-2.188-0.929-2.188-1.88c0-0.948,1.079-1.871,2.188-1.871h21.883c1.109,0,2.179,0.923,2.179,1.871
			C111.832,109.841,110.763,110.77,109.653,110.77z"/>
	</g>
	<path fill="#FFFFFF" d="M67.118,6.426l31.611,33.077H78.67c-5.442,0-11.531-3.957-11.531-9.254L67.118,6.426"/>
</g>
</svg>
