<?xml version="1.0" encoding="utf-8"?>
<!-- Generator: Adobe Illustrator 16.0.0, SVG Export Plug-In . SVG Version: 6.00 Build 0)  -->
<!DOCTYPE svg PUBLIC "-//W3C//DTD SVG 1.1//EN" "http://www.w3.org/Graphics/SVG/1.1/DTD/svg11.dtd">
<svg version="1.1" id="Layer_1" xmlns="http://www.w3.org/2000/svg" xmlns:xlink="http://www.w3.org/1999/xlink" x="0px" y="0px"
	 width="130px" height="130px" viewBox="0 0 130 130" enable-background="new 0 0 130 130" xml:space="preserve">
<rect fill="none" width="130" height="130"/>
<g>
	<path fill="#4D4D4D" d="M102.948,39.387L66.497,1.247c-0.027-0.055-0.063-0.086-0.103-0.109l-0.054-0.056v0.02
		c-0.002,0-0.006-0.005-0.008-0.005L20.058,1c-2.805,0-5.103,2.286-5.103,5.08v108.168c0,2.794,2.298,5.08,5.103,5.08h56.564
		l7.027-7.03c-1.364-2.559-2.076-5.395-2.076-8.327c0-9.854,8.017-17.873,17.873-17.873c1.258,0,2.481,0.134,3.666,0.382
		c0-20.994,0-46.302,0-46.824C103.112,39.557,103.043,39.469,102.948,39.387z M32.167,19.606c0-0.623,0.471-1.135,1.053-1.135
		h22.188c0.573,0,1.056,0.512,1.056,1.135v2.525c0,0.621-0.482,1.133-1.056,1.133H33.22c-0.582,0-1.053-0.512-1.053-1.133V19.606z
		 M32.167,39.83c0-0.628,0.471-1.146,1.053-1.146h22.188c0.573,0,1.056,0.518,1.056,1.146v2.569c0,0.631-0.482,1.149-1.056,1.149
		H33.22c-0.582,0-1.053-0.518-1.053-1.149V39.83z M68.609,105.165c0,0.631-0.467,1.149-1.028,1.149h-34.39
		c-0.565,0-1.024-0.519-1.024-1.149v-2.568c0-0.629,0.459-1.147,1.024-1.147h34.39c0.562,0,1.028,0.519,1.028,1.147V105.165z
		 M76.709,82.879c0,0.623-0.467,1.135-1.028,1.135H33.191c-0.565,0-1.024-0.512-1.024-1.135v-2.523c0-0.623,0.459-1.135,1.024-1.135
		h42.489c0.562,0,1.028,0.512,1.028,1.135V82.879z M86.834,62.67c0,0.631-0.467,1.149-1.028,1.149H33.191
		c-0.565,0-1.024-0.518-1.024-1.149v-2.569c0-0.631,0.459-1.149,1.024-1.149h52.614c0.562,0,1.028,0.518,1.028,1.149V62.67z"/>
	<path fill="#FFFFFF" d="M68.37,6.137l29.929,31.316H79.308c-5.153,0-10.918-3.746-10.918-8.761L68.37,6.137"/>
	<g>
		<g>
			<path fill="#4D4D4D" d="M76.111,124.136l11.396-11.398c-1.813-2.46-2.896-5.486-2.896-8.767c0-8.181,6.656-14.835,14.835-14.835
				s14.835,6.654,14.835,14.835c0,8.179-6.656,14.833-14.835,14.833c-3.166,0-6.099-1.004-8.508-2.701l-11.43,11.428
				c-0.469,0.471-1.086,0.706-1.7,0.706c-0.613,0-1.23-0.235-1.697-0.706C75.172,126.594,75.172,125.07,76.111,124.136z
				 M99.446,113.997c5.529,0,10.025-4.499,10.025-10.026c0-5.531-4.496-10.028-10.025-10.028c-5.527,0-10.028,4.497-10.028,10.028
				C89.418,109.498,93.919,113.997,99.446,113.997z"/>
			<path fill="#4D4D4D" d="M77.809,129c-0.849,0-1.644-0.332-2.239-0.934c-0.595-0.593-0.925-1.388-0.925-2.234
				s0.33-1.642,0.929-2.238l10.94-10.943c-1.746-2.583-2.666-5.569-2.666-8.68c0-8.601,6.998-15.599,15.599-15.599
				c8.6,0,15.599,6.998,15.599,15.599s-6.999,15.597-15.599,15.597c-3.002,0-5.896-0.854-8.412-2.479L80.049,128.07
				C79.451,128.668,78.656,129,77.809,129z M99.446,89.898c-7.76,0-14.072,6.312-14.072,14.072c0,3,0.949,5.875,2.749,8.312
				l0.388,0.53l-11.859,11.86c-0.311,0.311-0.48,0.72-0.48,1.159s0.17,0.851,0.48,1.159c0.619,0.625,1.699,0.62,2.317,0
				l11.885-11.881l0.524,0.367c2.379,1.677,5.169,2.563,8.068,2.563c7.76,0,14.072-6.312,14.072-14.07
				C113.519,96.211,107.206,89.898,99.446,89.898z M99.446,114.76c-5.95,0-10.791-4.839-10.791-10.789S93.496,93.18,99.446,93.18
				c5.948,0,10.789,4.841,10.789,10.791S105.395,114.76,99.446,114.76z M99.446,94.706c-5.108,0-9.265,4.157-9.265,9.265
				s4.156,9.263,9.265,9.263c5.107,0,9.263-4.155,9.263-9.263S104.554,94.706,99.446,94.706z"/>
		</g>
	</g>
</g>
</svg>
