<?xml version="1.0" encoding="utf-8"?>
<!-- Generator: Adobe Illustrator 16.0.0, SVG Export Plug-In . SVG Version: 6.00 Build 0)  -->
<!DOCTYPE svg PUBLIC "-//W3C//DTD SVG 1.1//EN" "http://www.w3.org/Graphics/SVG/1.1/DTD/svg11.dtd">
<svg version="1.1" id="Layer_1" xmlns="http://www.w3.org/2000/svg" xmlns:xlink="http://www.w3.org/1999/xlink" x="0px" y="0px"
	 width="130px" height="130px" viewBox="0 0 130 130" enable-background="new 0 0 130 130" xml:space="preserve">
<rect fill="none" width="130" height="130"/>
<g>
	<g>
		<path fill="#4D4D4D" d="M104.285,41.209l-38.18-39.95c-0.031-0.059-0.07-0.091-0.11-0.114l-0.057-0.059v0.021
			c-0.004,0-0.004-0.006-0.008-0.006L17.458,1c-2.938,0-5.344,2.394-5.344,5.321v113.302c0,2.927,2.406,5.321,5.344,5.321h61.383
			c-0.049-0.352-0.109-0.704-0.109-1.068v-17.408c0-3.189,1.959-6.023,4.832-7.291c1.211-6.956,7.586-13.941,16.203-13.941
			c1.652,0,3.223,0.261,4.689,0.726c0-20.927,0-43.963,0-44.471C104.457,41.387,104.385,41.295,104.285,41.209z"/>
		<path fill="#4D4D4D" d="M113.332,101.411h-0.064c-0.143-6.227-5.93-13.126-13.5-13.126c-7.568,0-13.361,6.906-13.504,13.131
			c0,0.008,0.07,0.015,0.131,0.019c-0.346,0.019-0.59,0.037-0.588,0.06c-2.357,0.479-4.156,2.509-4.156,4.974v17.408
			c0,2.816,2.338,5.124,5.199,5.124h25.834c2.859,0,5.201-2.308,5.201-5.124v-17.408
			C117.885,103.87,115.889,101.729,113.332,101.411z M101,115.665v4.644c0,0.671-0.555,1.212-1.236,1.212
			c-0.68,0-1.227-0.541-1.227-1.212v-4.642c-1.266-0.487-2.154-1.688-2.154-3.101c0-1.844,1.512-3.34,3.381-3.34
			c1.871,0,3.389,1.496,3.389,3.34C103.152,113.979,102.26,115.18,101,115.665z M90.775,101.337
			c0.145-4.311,4.047-8.976,8.992-8.976c4.969,0,8.889,4.707,8.998,9.036L90.775,101.337z"/>
	</g>
	<path fill="#FFFFFF" d="M68.064,6.38l31.35,32.804H79.521c-5.398,0-11.436-3.925-11.436-9.178L68.064,6.38"/>
</g>
</svg>
