<?xml version="1.0" encoding="utf-8"?>
<!-- Generator: Adobe Illustrator 16.0.0, SVG Export Plug-In . SVG Version: 6.00 Build 0)  -->
<!DOCTYPE svg PUBLIC "-//W3C//DTD SVG 1.1//EN" "http://www.w3.org/Graphics/SVG/1.1/DTD/svg11.dtd">
<svg version="1.1" id="Layer_1" xmlns="http://www.w3.org/2000/svg" xmlns:xlink="http://www.w3.org/1999/xlink" x="0px" y="0px"
	 width="130px" height="130px" viewBox="0 0 130 130" enable-background="new 0 0 130 130" xml:space="preserve">
<rect fill="none" width="130" height="130"/>
<g>
	<g>
		<path fill="#4D4D4D" d="M99.389,89.23c-10.99,0-19.924,8.922-19.924,19.885c0,10.965,8.934,19.885,19.924,19.885
			c10.979,0,19.916-8.92,19.916-19.885C119.305,98.152,110.367,89.23,99.389,89.23z M96.354,122.211l-4.561,1.154
			c-0.721,0.184-1.018-0.201-0.658-0.848l1.211-2.213c-3.92-2.51-6.301-6.781-6.301-11.52c0-5.371,3.162-10.275,8.061-12.488
			c0.156-0.074,0.322-0.107,0.486-0.107c0.453,0,0.883,0.262,1.082,0.697c0.27,0.598,0.008,1.299-0.594,1.568
			c-4.047,1.832-6.664,5.889-6.664,10.33c0,3.863,1.912,7.357,5.064,9.443l1.205-2.193c0.352-0.65,0.832-0.605,1.066,0.096
			l1.482,4.473C97.469,121.307,97.072,122.029,96.354,122.211z M104.664,121.934c-0.16,0.074-0.326,0.107-0.488,0.107
			c-0.453,0-0.887-0.26-1.082-0.697c-0.27-0.598-0.004-1.299,0.594-1.57c4.047-1.832,6.664-5.885,6.664-10.33
			c0-3.863-1.914-7.355-5.064-9.439l-1.201,2.191c-0.355,0.648-0.84,0.605-1.072-0.096l-1.482-4.473
			c-0.232-0.701,0.162-1.424,0.881-1.605l4.562-1.158c0.721-0.182,1.016,0.201,0.662,0.848l-1.215,2.219
			c3.916,2.504,6.303,6.777,6.303,11.514C112.725,114.814,109.562,119.719,104.664,121.934z"/>
		<path fill="#4D4D4D" d="M103.629,41.542L65.13,1.26c-0.029-0.059-0.066-0.091-0.108-0.115l-0.057-0.06v0.021
			c-0.002,0-0.006-0.005-0.008-0.005L16.083,1c-2.961,0-5.388,2.414-5.388,5.365v114.239c0,2.951,2.427,5.367,5.388,5.367h66.405
			c-4.332-4.32-7.014-10.285-7.014-16.863c0-13.152,10.719-23.85,23.895-23.85c1.518,0,2.994,0.156,4.432,0.428
			c0-20.833,0-43.355,0-43.861C103.801,41.72,103.729,41.628,103.629,41.542z M28.619,20.65c0-0.658,0.497-1.199,1.111-1.199h23.434
			c0.605,0,1.115,0.541,1.115,1.199v2.667c0,0.656-0.51,1.196-1.115,1.196H29.73c-0.614,0-1.111-0.541-1.111-1.196V20.65z
			 M28.619,42.009c0-0.664,0.497-1.211,1.111-1.211h23.434c0.605,0,1.115,0.547,1.115,1.211v2.713c0,0.667-0.51,1.214-1.115,1.214
			H29.73c-0.614,0-1.111-0.547-1.111-1.214V42.009z M67.105,111.012c0,0.666-0.492,1.213-1.086,1.213H29.701
			c-0.597,0-1.082-0.547-1.082-1.213v-2.713c0-0.664,0.485-1.211,1.082-1.211H66.02c0.594,0,1.086,0.547,1.086,1.211V111.012z
			 M75.66,87.475c0,0.658-0.492,1.199-1.086,1.199H29.701c-0.597,0-1.082-0.541-1.082-1.199v-2.666c0-0.656,0.485-1.197,1.082-1.197
			h44.874c0.594,0,1.086,0.541,1.086,1.197V87.475z M86.354,66.132c0,0.666-0.492,1.214-1.086,1.214H29.701
			c-0.597,0-1.082-0.548-1.082-1.214v-2.713c0-0.667,0.485-1.213,1.082-1.213h55.567c0.594,0,1.086,0.547,1.086,1.213V66.132z"/>
	</g>
	<path fill="#FFFFFF" d="M67.107,6.424l31.611,33.075H78.66c-5.443,0-11.531-3.957-11.531-9.253L67.107,6.424"/>
</g>
</svg>
