<?xml version="1.0" encoding="utf-8"?>
<!-- Generator: Adobe Illustrator 16.0.0, SVG Export Plug-In . SVG Version: 6.00 Build 0)  -->
<!DOCTYPE svg PUBLIC "-//W3C//DTD SVG 1.1//EN" "http://www.w3.org/Graphics/SVG/1.1/DTD/svg11.dtd">
<svg version="1.1" id="Layer_1" xmlns="http://www.w3.org/2000/svg" xmlns:xlink="http://www.w3.org/1999/xlink" x="0px" y="0px"
	 width="130px" height="130px" viewBox="0 0 130 130" enable-background="new 0 0 130 130" xml:space="preserve">
<rect fill="none" width="130" height="130"/>
<g>
	<g>
		<g>
			<path fill="#4D4D4D" d="M117.361,35.199L84.715,1.04v0.062c-0.01-0.002-0.016-0.014-0.023-0.014V1H42.557
				c-2.545,0-4.627,2.074-4.627,4.609v6.125h21.93c1.302,0,2.464,0.595,3.23,1.528l33.316,34.861
				c1.293,1.033,1.947,2.272,1.947,3.69V87.07c0.223-0.006,0.441-0.031,0.666-0.031c7.891,0,14.842,4.072,18.879,10.215
				c0-16.85,0-60.857,0-61.513C117.898,35.631,117.691,35.43,117.361,35.199z"/>
			<path fill="#4D4D4D" d="M94.178,87.574c0-17.564,0-35.339,0-35.761c0-0.114-0.213-0.323-0.557-0.563L59.884,15.953v0.064
				c-0.008-0.002-0.016-0.015-0.024-0.015V15.91H16.319c-2.631,0-4.784,2.143-4.784,4.763v101.401c0,2.619,2.153,4.764,4.784,4.764
				h68.189c-4.93-4.139-8.074-10.334-8.074-17.252C76.434,98.812,84.045,89.795,94.178,87.574z"/>
		</g>
		<path fill="#4D4D4D" d="M99.02,90.17c-10.73,0-19.455,8.711-19.455,19.416S88.289,129,99.02,129
			c10.719,0,19.445-8.709,19.445-19.414S109.738,90.17,99.02,90.17z M106.631,111.963l-6.711,6.852
			c-0.551,0.566-1.445,0.564-1.996-0.002l-6.697-6.861c-0.555-0.568-0.555-1.486,0-2.055c0.277-0.285,0.637-0.428,0.998-0.428
			c0.367,0,0.73,0.143,1.006,0.428l4.264,4.365l0.01-12.885c0-0.803,0.617-1.455,1.398-1.455c0.785,0,1.434,0.652,1.434,1.455
			l-0.004,12.92l4.299-4.395c0.555-0.566,1.453-0.566,2.004,0.004C107.186,110.473,107.186,111.395,106.631,111.963z"/>
	</g>
	<path fill="#FFFFFF" d="M61.977,21.165l27.287,28.549H71.99c-4.719,0-9.995-3.414-9.995-7.984L61.977,21.165"/>
	<path fill="#FFFFFF" d="M86.807,6.252l26.18,27.39H96.43c-4.533,0-9.605-3.274-9.605-7.659L86.807,6.252"/>
</g>
</svg>
