<?xml version="1.0" encoding="utf-8"?>
<!-- Generator: Adobe Illustrator 16.0.0, SVG Export Plug-In . SVG Version: 6.00 Build 0)  -->
<!DOCTYPE svg PUBLIC "-//W3C//DTD SVG 1.1//EN" "http://www.w3.org/Graphics/SVG/1.1/DTD/svg11.dtd">
<svg version="1.1" id="Layer_1" xmlns="http://www.w3.org/2000/svg" xmlns:xlink="http://www.w3.org/1999/xlink" x="0px" y="0px"
	 width="130px" height="130px" viewBox="0 0 130 130" enable-background="new 0 0 130 130" xml:space="preserve">
<rect fill="none" width="130" height="130"/>
<g>
	<g>
		<path fill="#4D4D4D" d="M104.295,41.237L66.088,1.259c-0.029-0.058-0.066-0.09-0.109-0.114l-0.056-0.059v0.021
			c-0.002,0-0.006-0.005-0.008-0.005L17.41,1c-2.939,0-5.348,2.396-5.348,5.325v113.38c0,2.93,2.408,5.325,5.348,5.325h61.438
			c-0.051-0.371-0.115-0.739-0.115-1.125V106.6c0-2.987,1.617-5.648,4.137-7.092c1.236-7.706,7.979-15.413,17.059-15.413
			c1.547,0,3.07,0.235,4.539,0.681c0-20.598,0-42.758,0-43.257C104.467,41.415,104.395,41.323,104.295,41.237z M30.079,20.503
			c0-0.653,0.493-1.189,1.103-1.189h23.257c0.602,0,1.106,0.537,1.106,1.189v2.647c0,0.651-0.505,1.188-1.106,1.188H31.181
			c-0.609,0-1.103-0.537-1.103-1.188V20.503z M30.079,41.702c0-0.659,0.493-1.202,1.103-1.202h23.257
			c0.602,0,1.106,0.543,1.106,1.202v2.692c0,0.662-0.505,1.205-1.106,1.205H31.181c-0.609,0-1.103-0.543-1.103-1.205V41.702z
			 M68.275,110.186c0,0.661-0.488,1.204-1.078,1.204H31.152c-0.593,0-1.073-0.543-1.073-1.204v-2.693
			c0-0.659,0.48-1.202,1.073-1.202h36.045c0.59,0,1.078,0.543,1.078,1.202V110.186z M76.766,86.824c0,0.653-0.488,1.19-1.078,1.19
			H31.152c-0.593,0-1.073-0.537-1.073-1.19V84.18c0-0.653,0.48-1.189,1.073-1.189h44.536c0.59,0,1.078,0.536,1.078,1.189V86.824z
			 M87.379,65.643c0,0.661-0.488,1.204-1.078,1.204H31.152c-0.593,0-1.073-0.543-1.073-1.204V62.95c0-0.662,0.48-1.205,1.073-1.205
			h55.149c0.59,0,1.078,0.543,1.078,1.205V65.643z"/>
		<path fill="#4D4D4D" d="M113.416,101.574l-22.891-0.076c0.188-4.66,4.201-9.803,9.402-9.803c2.801,0,4.859,1.441,6.09,2.647
			c0.877,0.862,2.299,0.858,3.172-0.009c0.875-0.864,0.873-2.263-0.008-3.121c-2.586-2.537-5.873-3.935-9.254-3.935
			c-8,0-13.926,7.657-14.076,14.406c0,0.004,0.055,0.006,0.072,0.011c-2.277,0.524-4.006,2.504-4.006,4.904v17.306
			c0,2.802,2.324,5.095,5.17,5.095h25.684c2.84,0,5.166-2.293,5.166-5.095V106.6C117.938,104.019,115.955,101.89,113.416,101.574z
			 M101.152,115.744v4.616c0,0.666-0.549,1.204-1.225,1.204s-1.221-0.538-1.221-1.204v-4.616c-1.258-0.484-2.145-1.677-2.145-3.082
			c0-1.832,1.506-3.318,3.365-3.318c1.861,0,3.367,1.486,3.367,3.318C103.295,114.067,102.406,115.26,101.152,115.744z"/>
	</g>
	<path fill="#FFFFFF" d="M68.051,6.384L99.422,39.21H79.516c-5.402,0-11.445-3.927-11.445-9.184L68.051,6.384"/>
</g>
</svg>
