<?xml version="1.0" encoding="utf-8"?>
<!-- Generator: Adobe Illustrator 16.0.0, SVG Export Plug-In . SVG Version: 6.00 Build 0)  -->
<!DOCTYPE svg PUBLIC "-//W3C//DTD SVG 1.1//EN" "http://www.w3.org/Graphics/SVG/1.1/DTD/svg11.dtd">
<svg version="1.1" id="Layer_1" xmlns="http://www.w3.org/2000/svg" xmlns:xlink="http://www.w3.org/1999/xlink" x="0px" y="0px"
	 width="130px" height="130px" viewBox="0 0 130 130" enable-background="new 0 0 130 130" xml:space="preserve">
<rect fill="none" width="130" height="130"/>
<g>
	<g>
		<path fill="#4D4D4D" d="M103.629,41.542L65.132,1.261c-0.031-0.059-0.07-0.091-0.11-0.115l-0.057-0.06v0.021
			c-0.004,0-0.004-0.005-0.008-0.005L16.083,1c-2.961,0-5.388,2.414-5.388,5.365v114.24c0,2.951,2.427,5.365,5.388,5.365h66.405
			c-4.332-4.318-7.014-10.283-7.014-16.863c0-13.148,10.719-23.85,23.895-23.85c1.518,0,2.994,0.156,4.432,0.428
			c0-20.832,0-43.354,0-43.86C103.801,41.721,103.729,41.629,103.629,41.542z"/>
		<path fill="#4D4D4D" d="M99.389,89.234c-10.99,0-19.924,8.918-19.924,19.883S88.398,129,99.389,129
			c10.979,0,19.916-8.918,19.916-19.883S110.367,89.234,99.389,89.234z M96.354,122.211l-4.561,1.158
			c-0.721,0.182-1.018-0.201-0.658-0.848l1.211-2.219c-3.92-2.506-6.301-6.775-6.301-11.516c0-5.373,3.162-10.275,8.061-12.49
			c0.156-0.07,0.322-0.104,0.486-0.104c0.453,0,0.883,0.258,1.082,0.695c0.27,0.596,0.008,1.299-0.594,1.568
			c-4.047,1.834-6.664,5.887-6.664,10.33c0,3.863,1.912,7.355,5.064,9.443l1.205-2.197c0.354-0.646,0.832-0.604,1.066,0.1
			l1.482,4.473C97.469,121.307,97.072,122.029,96.354,122.211z M104.664,121.936c-0.16,0.072-0.326,0.105-0.488,0.105
			c-0.453,0-0.887-0.26-1.082-0.695c-0.27-0.598-0.004-1.303,0.594-1.57c4.047-1.832,6.664-5.889,6.664-10.33
			c0-3.863-1.914-7.357-5.064-9.441l-1.201,2.195c-0.355,0.648-0.84,0.602-1.072-0.098l-1.482-4.475
			c-0.232-0.701,0.162-1.424,0.881-1.605l4.562-1.156c0.721-0.184,1.016,0.199,0.662,0.848l-1.215,2.217
			c3.916,2.508,6.303,6.777,6.303,11.516C112.725,114.818,109.562,119.721,104.664,121.936z"/>
	</g>
	<path fill="#FFFFFF" d="M67.107,6.425L98.719,39.5H78.66c-5.443,0-11.531-3.957-11.531-9.253L67.107,6.425"/>
</g>
</svg>
