<?xml version="1.0" encoding="utf-8"?>
<!-- Generator: Adobe Illustrator 16.0.0, SVG Export Plug-In . SVG Version: 6.00 Build 0)  -->
<!DOCTYPE svg PUBLIC "-//W3C//DTD SVG 1.1//EN" "http://www.w3.org/Graphics/SVG/1.1/DTD/svg11.dtd">
<svg version="1.1" id="Layer_1" xmlns="http://www.w3.org/2000/svg" xmlns:xlink="http://www.w3.org/1999/xlink" x="0px" y="0px"
	 width="130px" height="130px" viewBox="0 0 130 130" enable-background="new 0 0 130 130" xml:space="preserve">
<rect fill="none" width="130" height="130"/>
<g>
	<path fill="#4D4D4D" d="M99.381,89.229c-10.99,0-19.926,8.923-19.926,19.886c0,10.966,8.936,19.887,19.926,19.887
		c10.98,0,19.918-8.921,19.918-19.887C119.299,98.151,110.361,89.229,99.381,89.229z M106.955,110.482h-6.21v6.212
		c0,0.785-0.767,1.542-1.554,1.542s-1.552-0.757-1.552-1.542v-6.212h-6.212c-0.787,0-1.554-0.769-1.554-1.554
		c0-0.789,0.767-1.55,1.554-1.55h6.212v-6.212c0-0.789,0.765-1.55,1.552-1.55s1.554,0.761,1.554,1.55v6.212h6.21
		c0.787,0,1.545,0.761,1.545,1.55C108.5,109.714,107.742,110.482,106.955,110.482z"/>
	<path fill="#4D4D4D" d="M103.64,41.545L65.142,1.261c-0.031-0.059-0.07-0.091-0.11-0.115l-0.057-0.06v0.021
		c-0.004,0-0.004-0.006-0.008-0.006L16.09,0.999c-2.962,0-5.389,2.415-5.389,5.366v114.247c0,2.952,2.427,5.366,5.389,5.366h66.409
		c-4.332-4.319-7.014-10.284-7.014-16.864c0-13.151,10.719-23.851,23.896-23.851c1.517,0,2.993,0.156,4.433,0.428
		c0-20.834,0-43.358,0-43.864C103.813,41.723,103.74,41.631,103.64,41.545z M28.171,20.651c0-0.657,0.499-1.198,1.113-1.198h23.435
		c0.605,0,1.113,0.541,1.113,1.198v2.668c0,0.655-0.508,1.196-1.113,1.196H29.284c-0.614,0-1.113-0.541-1.113-1.196V20.651z
		 M28.171,42.013c0-0.665,0.499-1.212,1.113-1.212h23.435c0.605,0,1.113,0.547,1.113,1.212v2.713c0,0.666-0.508,1.214-1.113,1.214
		H29.284c-0.614,0-1.113-0.548-1.113-1.214V42.013z M66.66,111.02c0,0.666-0.492,1.214-1.084,1.214H29.255
		c-0.6,0-1.084-0.548-1.084-1.214v-2.713c0-0.664,0.484-1.212,1.084-1.212h36.321c0.592,0,1.084,0.548,1.084,1.212V111.02z
		 M75.216,87.48c0,0.658-0.493,1.199-1.084,1.199H29.255c-0.6,0-1.084-0.541-1.084-1.199v-2.665c0-0.658,0.484-1.199,1.084-1.199
		h44.877c0.591,0,1.084,0.541,1.084,1.199V87.48z M85.909,66.137c0,0.666-0.492,1.213-1.084,1.213h-55.57
		c-0.6,0-1.084-0.547-1.084-1.213v-2.714c0-0.666,0.484-1.213,1.084-1.213h55.57c0.592,0,1.084,0.547,1.084,1.213V66.137z"/>
	<path fill="#FFFFFF" d="M67.118,6.425l31.611,33.077H78.67c-5.442,0-11.531-3.957-11.531-9.254L67.118,6.425"/>
</g>
</svg>
