<?xml version="1.0" encoding="utf-8"?>
<!-- Generator: Adobe Illustrator 16.0.0, SVG Export Plug-In . SVG Version: 6.00 Build 0)  -->
<!DOCTYPE svg PUBLIC "-//W3C//DTD SVG 1.1//EN" "http://www.w3.org/Graphics/SVG/1.1/DTD/svg11.dtd">
<svg version="1.1" id="Layer_1" xmlns="http://www.w3.org/2000/svg" xmlns:xlink="http://www.w3.org/1999/xlink" x="0px" y="0px"
	 width="130px" height="130px" viewBox="0 0 130 130" enable-background="new 0 0 130 130" xml:space="preserve">
<rect fill="none" width="130" height="130"/>
<g>
	<g>
		<path fill="#4D4D4D" d="M117.361,35.199L84.715,1.04v0.062c-0.01-0.002-0.016-0.015-0.023-0.015V0.999H42.557
			c-2.545,0-4.627,2.074-4.627,4.61v6.125h21.93c1.302,0,2.464,0.595,3.23,1.528l33.316,34.861c1.293,1.032,1.947,2.272,1.947,3.689
			v35.258c0.223-0.006,0.441-0.032,0.666-0.032c7.891,0,14.842,4.073,18.879,10.216c0-16.85,0-60.857,0-61.514
			C117.898,35.632,117.689,35.431,117.361,35.199z"/>
		<path fill="#4D4D4D" d="M99.02,90.17c-10.73,0-19.455,8.712-19.455,19.416c0,10.705,8.725,19.415,19.455,19.415
			c10.719,0,19.445-8.71,19.445-19.415C118.465,98.882,109.738,90.17,99.02,90.17z M105.266,105.113l-4.287,4.287l4.287,4.288
			c0.545,0.544,0.537,1.595-0.006,2.139c-0.545,0.543-1.594,0.549-2.139,0.005l-4.287-4.287l-4.287,4.287
			c-0.545,0.546-1.605,0.542-2.146,0c-0.545-0.543-0.541-1.6,0.002-2.142l4.287-4.29l-4.287-4.287
			c-0.543-0.544-0.541-1.597,0.004-2.141c0.543-0.543,1.596-0.547,2.141-0.005l4.289,4.291l4.285-4.288
			c0.545-0.545,1.594-0.541,2.139,0.002C105.801,103.515,105.811,104.571,105.266,105.113z"/>
		<path fill="#4D4D4D" d="M94.178,87.574c0-17.564,0-35.339,0-35.761c0-0.114-0.217-0.323-0.559-0.562L59.884,15.953v0.064
			c-0.008-0.002-0.016-0.016-0.024-0.016V15.91H16.319c-2.631,0-4.784,2.144-4.784,4.764v101.401c0,2.619,2.153,4.764,4.784,4.764
			h68.189c-4.93-4.14-8.074-10.334-8.074-17.253C76.434,98.812,84.045,89.795,94.178,87.574z M25.893,32.857
			c0-0.578,0.437-1.056,0.979-1.056h20.631c0.532,0,0.981,0.478,0.981,1.056v2.349c0,0.577-0.449,1.054-0.981,1.054H26.872
			c-0.542,0-0.979-0.477-0.979-1.054V32.857z M25.893,51.661c0-0.584,0.437-1.065,0.979-1.065h20.631
			c0.532,0,0.981,0.481,0.981,1.065v2.391c0,0.585-0.449,1.067-0.981,1.067H26.872c-0.542,0-0.979-0.482-0.979-1.067V51.661z
			 M70.457,112.41c0,0.587-0.434,1.068-0.953,1.068H26.847c-0.53,0-0.954-0.481-0.954-1.068v-2.387c0-0.585,0.424-1.068,0.954-1.068
			h42.657c0.52,0,0.953,0.483,0.953,1.068V112.41z M76.723,91.689c0,0.577-0.436,1.055-0.955,1.055h-48.92
			c-0.53,0-0.954-0.478-0.954-1.055v-2.348c0-0.579,0.424-1.054,0.954-1.054h48.92c0.52,0,0.955,0.475,0.955,1.054V91.689z
			 M76.723,72.898c0,0.587-0.436,1.069-0.955,1.069h-48.92c-0.53,0-0.954-0.482-0.954-1.069V70.51c0-0.585,0.424-1.067,0.954-1.067
			h48.92c0.52,0,0.955,0.482,0.955,1.067V72.898z"/>
		<path fill="#FFFFFF" d="M61.977,21.165l27.287,28.549H71.99c-4.717,0-9.995-3.413-9.995-7.984L61.977,21.165"/>
	</g>
	<path fill="#FFFFFF" d="M86.807,6.253l26.18,27.39H96.43c-4.533,0-9.605-3.274-9.605-7.659L86.807,6.253"/>
</g>
</svg>
