<?xml version="1.0" encoding="utf-8"?>
<!-- Generator: Adobe Illustrator 16.0.0, SVG Export Plug-In . SVG Version: 6.00 Build 0)  -->
<!DOCTYPE svg PUBLIC "-//W3C//DTD SVG 1.1//EN" "http://www.w3.org/Graphics/SVG/1.1/DTD/svg11.dtd">
<svg version="1.1" id="Layer_1" xmlns="http://www.w3.org/2000/svg" xmlns:xlink="http://www.w3.org/1999/xlink" x="0px" y="0px"
	 width="130px" height="130px" viewBox="0 0 130 130" enable-background="new 0 0 130 130" xml:space="preserve">
<rect fill="none" width="130" height="130"/>
<g>
	<path fill="#4D4D4D" d="M112.695,40.062L75.785,1.278c-0.016-0.041-0.059-0.064-0.088-0.091l-0.014-0.016v0.007
		c-0.039-0.027-0.062-0.067-0.137-0.071L73.068,1H22.825c-3.033,0-5.52,2.474-5.52,5.498v117.004c0,3.024,2.486,5.498,5.52,5.498
		h84.332c3.033,0,5.512-2.474,5.512-5.498c0,0,0-82.348,0-83.313c0-0.045-0.041-0.084-0.064-0.127H112.695z"/>
	<path fill="#FFFFFF" d="M77.879,6.626l29.758,31.267H88.84c-5.117,0-10.842-3.709-10.842-8.686L77.879,6.626"/>
</g>
</svg>
