<?xml version="1.0" encoding="utf-8"?>
<!-- Generator: Adobe Illustrator 16.0.0, SVG Export Plug-In . SVG Version: 6.00 Build 0)  -->
<!DOCTYPE svg PUBLIC "-//W3C//DTD SVG 1.1//EN" "http://www.w3.org/Graphics/SVG/1.1/DTD/svg11.dtd">
<svg version="1.1" id="Layer_1" xmlns="http://www.w3.org/2000/svg" xmlns:xlink="http://www.w3.org/1999/xlink" x="0px" y="0px"
	 width="130px" height="130px" viewBox="0 0 130 130" enable-background="new 0 0 130 130" xml:space="preserve">
<rect fill="none" width="130" height="130"/>
<g>
	<g>
		<path fill="#4D4D4D" d="M117.361,35.199L84.715,1.04v0.062c-0.01-0.002-0.016-0.014-0.023-0.014V1H42.557
			c-2.545,0-4.627,2.074-4.627,4.609v6.125h21.93c1.302,0,2.464,0.595,3.23,1.528l33.316,34.861c1.293,1.033,1.947,2.272,1.947,3.69
			V87.07c0.223-0.006,0.441-0.031,0.666-0.031c7.891,0,14.842,4.072,18.879,10.215c0-16.85,0-60.857,0-61.513
			C117.898,35.631,117.691,35.43,117.361,35.199z"/>
		<path fill="#4D4D4D" d="M99.02,90.17c-10.73,0-19.455,8.711-19.455,19.416S88.289,129,99.02,129
			c10.719,0,19.445-8.709,19.445-19.414S109.738,90.17,99.02,90.17z M106.414,110.92h-6.062v6.064c0,0.768-0.75,1.506-1.518,1.506
			c-0.77,0-1.516-0.738-1.516-1.506v-6.064h-6.064c-0.77,0-1.518-0.75-1.518-1.516c0-0.771,0.748-1.514,1.518-1.514h6.064v-6.064
			c0-0.771,0.746-1.514,1.516-1.514c0.768,0,1.518,0.742,1.518,1.514v6.064h6.062c0.768,0,1.508,0.742,1.508,1.514
			C107.922,110.17,107.182,110.92,106.414,110.92z"/>
		<path fill="#4D4D4D" d="M94.178,87.574c0-17.564,0-35.339,0-35.761c0-0.114-0.213-0.323-0.557-0.563L59.884,15.953v0.064
			c-0.008-0.002-0.016-0.015-0.024-0.015V15.91H16.319c-2.631,0-4.784,2.143-4.784,4.763v101.401c0,2.619,2.153,4.764,4.784,4.764
			h68.189c-4.93-4.139-8.074-10.334-8.074-17.252C76.434,98.812,84.045,89.795,94.178,87.574z"/>
	</g>
	<path fill="#FFFFFF" d="M61.977,21.165l27.287,28.549H71.99c-4.719,0-9.995-3.414-9.995-7.984L61.977,21.165"/>
	<path fill="#FFFFFF" d="M86.807,6.252l26.18,27.39H96.43c-4.533,0-9.605-3.274-9.605-7.659L86.807,6.252"/>
</g>
</svg>
