<?xml version="1.0" encoding="utf-8"?>
<!-- Generator: Adobe Illustrator 16.0.0, SVG Export Plug-In . SVG Version: 6.00 Build 0)  -->
<!DOCTYPE svg PUBLIC "-//W3C//DTD SVG 1.1//EN" "http://www.w3.org/Graphics/SVG/1.1/DTD/svg11.dtd">
<svg version="1.1" id="Layer_1" xmlns="http://www.w3.org/2000/svg" xmlns:xlink="http://www.w3.org/1999/xlink" x="0px" y="0px"
	 width="130px" height="130px" viewBox="0 0 130 130" enable-background="new 0 0 130 130" xml:space="preserve">
<rect fill="none" width="130" height="130"/>
<g>
	<g>
		<path fill="#4D4D4D" d="M127.246,30.597c0-7.94-6.371-14.396-14.19-14.396c-7.826,0-14.189,6.455-14.189,14.396
			c0,1.455,1.166,2.638,2.599,2.638c1.436,0,2.602-1.183,2.602-2.638c0-5.03,4.034-9.119,8.989-9.119s8.992,4.089,8.992,9.119
			c0,9.321-8.186,10.044-8.992,10.093H3.602C2.166,40.69,1,41.868,1,43.329c0,1.455,1.166,2.638,2.602,2.638l109.563-0.005
			C118.038,45.749,127.246,42.259,127.246,30.597z M114.709,53.026H17.628c-1.445,0-2.618,1.183-2.618,2.638
			c0,1.46,1.173,2.639,2.618,2.639h96.965c0.376,0.015,9.173,0.505,9.173,10.089c0,5.029-4.064,9.123-9.057,9.123
			c-4.989,0-9.054-4.094-9.054-9.123c0-1.461-1.173-2.639-2.618-2.639c-1.446,0-2.616,1.178-2.616,2.639
			c0,7.939,6.407,14.399,14.288,14.399c7.876,0,14.291-6.46,14.291-14.399C129,56.724,119.722,53.239,114.709,53.026z"/>
	</g>
	<g>
		<path fill="#4D4D4D" d="M48.978,80.158c0.824,0.312,1.711,0.416,2.564,0.302c0.52-0.069,1.029-0.218,1.503-0.436
			c1.294-0.584,2.276-1.653,2.779-3c0.564-1.529-0.022-4.905-0.73-8.52l-0.074-0.396c-0.087-0.461-0.176-0.901-0.247-1.317
			c-0.062-0.321-0.282-0.589-0.585-0.702c-0.302-0.119-0.646-0.06-0.893,0.139c-0.419,0.336-0.874,0.692-1.356,1.073
			c-2.993,2.342-5.515,4.406-6.079,5.931c-0.5,1.342-0.448,2.802,0.144,4.114C46.592,78.653,47.651,79.653,48.978,80.158z
			 M39.922,81.192c-0.058-0.321-0.28-0.589-0.582-0.703c-0.302-0.118-0.641-0.064-0.896,0.134l-0.993,0.787
			c-2.225,1.742-4.102,3.282-4.539,4.46c-0.8,2.158,0.292,4.579,2.436,5.396c0.639,0.242,1.331,0.321,1.997,0.232
			c0.403-0.055,0.802-0.169,1.174-0.342c1.005-0.455,1.774-1.287,2.16-2.336c0.438-1.193,0.003-3.698-0.522-6.381L39.922,81.192z
			 M80.033,75.99c-0.156-0.792-0.297-1.53-0.424-2.218c-0.062-0.322-0.284-0.59-0.586-0.703c-0.3-0.114-0.642-0.055-0.896,0.144
			c-0.534,0.431-1.118,0.896-1.782,1.405c-3.695,2.901-7.068,5.653-7.773,7.56c-1.275,3.45,0.468,7.321,3.891,8.628
			c1.024,0.387,2.128,0.515,3.197,0.376c0.644-0.089,1.272-0.271,1.869-0.544c1.611-0.732,2.836-2.06,3.463-3.737
			C81.696,84.989,80.938,80.653,80.033,75.99z M74.813,98.187c-0.064-0.321-0.285-0.589-0.59-0.703
			c-0.302-0.108-0.644-0.054-0.894,0.148c-0.245,0.203-0.507,0.406-0.789,0.629l-0.195,0.153c-2.226,1.737-4.102,3.277-4.537,4.455
			c-0.8,2.158,0.289,4.579,2.431,5.396c0.639,0.242,1.329,0.321,2,0.232c0.4-0.05,0.797-0.163,1.173-0.337
			c1.01-0.46,1.777-1.292,2.163-2.342c0.438-1.188,0.003-3.697-0.522-6.375L74.813,98.187z M60.7,83.152
			c-0.052-0.331-0.28-0.604-0.584-0.723c-0.312-0.113-0.659-0.059-0.914,0.154c-1.249,1.049-2.695,2.192-4.623,3.702
			c-5.21,4.084-11.118,8.708-12.397,12.168c-2.166,5.851,0.792,12.41,6.588,14.613c1.733,0.658,3.602,0.876,5.411,0.638
			c1.094-0.148,2.163-0.455,3.178-0.925c2.73-1.243,4.814-3.49,5.861-6.327c1.277-3.45-0.161-10.855-1.44-17.43
			C61.304,86.588,60.96,84.757,60.7,83.152z"/>
	</g>
	<g>
		<path fill="#4D4D4D" d="M86.085,24.963H10.597c-1.436,0-2.599,1.183-2.599,2.634c0,1.45,1.163,2.633,2.599,2.633h75.488
			c1.433,0,2.596-1.183,2.596-2.633C88.681,26.146,87.518,24.963,86.085,24.963z"/>
	</g>
</g>
</svg>
