<?xml version="1.0" encoding="utf-8"?>
<!-- Generator: Adobe Illustrator 16.0.0, SVG Export Plug-In . SVG Version: 6.00 Build 0)  -->
<!DOCTYPE svg PUBLIC "-//W3C//DTD SVG 1.1//EN" "http://www.w3.org/Graphics/SVG/1.1/DTD/svg11.dtd">
<svg version="1.1" id="Layer_1" xmlns="http://www.w3.org/2000/svg" xmlns:xlink="http://www.w3.org/1999/xlink" x="0px" y="0px"
	 width="130px" height="130px" viewBox="0 0 130 130" enable-background="new 0 0 130 130" xml:space="preserve">
<rect fill="none" width="130" height="130"/>
<g>
	<path fill="#4D4D4D" d="M122.621,42.405l0.01-0.02c-0.586-1.083-1.208-2.146-1.869-3.191c-0.279-0.438-0.584-0.859-0.874-1.289
		c-0.533-0.79-1.081-1.569-1.659-2.334c-0.345-0.455-0.693-0.904-1.055-1.351c-0.666-0.825-1.364-1.628-2.085-2.417
		c-0.271-0.297-0.523-0.602-0.803-0.893c-0.996-1.043-2.046-2.044-3.139-3.012c-0.318-0.283-0.654-0.55-0.985-0.828
		c-0.866-0.731-1.761-1.44-2.686-2.122c-0.363-0.27-0.725-0.538-1.095-0.801c-1.228-0.858-2.488-1.685-3.808-2.452
		c-0.031-0.019-0.06-0.04-0.092-0.059l0,0c-0.013-0.005-0.024-0.012-0.033-0.02l-0.003-0.002l0.068-0.12v-0.005
		c-1.366-0.788-2.759-1.484-4.161-2.137c-0.399-0.187-0.803-0.358-1.204-0.535c-1.06-0.461-2.127-0.884-3.203-1.271
		c-0.395-0.144-0.786-0.297-1.185-0.43c-1.384-0.46-2.776-0.871-4.176-1.211c-0.373-0.092-0.746-0.153-1.119-0.235
		c-1.064-0.236-2.129-0.441-3.198-0.609c-0.538-0.085-1.079-0.158-1.62-0.227c-0.995-0.125-1.991-0.215-2.988-0.281
		c-0.467-0.033-0.935-0.082-1.399-0.102c-1.243-0.049-2.488-0.062-3.727-0.025L74.52,14.45c-16.49,0.493-32.374,8.655-42.045,23.059
		c4.15-1.52,8.918-1.241,13.053,1.152c4.962,2.86,7.724,8.087,7.714,13.445c0,0,0,0,0-0.002c0.004,0.115,0.016,0.23,0.014,0.347
		c4.684-2.847,10.745-3.125,15.825-0.193c3.224,1.862,6.223,5.349,7.577,9.548l-26.754,46.344c-1.529,2.644-4.65,3.733-7.303,2.204
		c-1.058-0.608-2.413-0.245-3.026,0.812c-0.609,1.062-0.246,2.417,0.812,3.031c4.768,2.752,10.418,1.341,13.167-3.424l26.983-46.732
		c3.93-0.477,8.788,0.203,11.97,2.04c5.098,2.945,7.897,8.351,7.775,13.847c0.099-0.06,0.203-0.106,0.302-0.158v0.002
		c4.655-2.695,10.58-2.917,15.561-0.042c4.154,2.403,6.789,6.4,7.554,10.768C131.357,74.876,130.475,56.981,122.621,42.405z
		 M80.728,59.232l-2.019,3.496l0,0L80.728,59.232z"/>
	<path fill="#4D4D4D" d="M13.015,65.269h33.874c1.175,0,2.134-0.953,2.134-2.129c0-1.181-0.959-2.134-2.134-2.134H13.015
		c-1.18,0-2.133,0.953-2.133,2.134C10.881,64.315,11.834,65.269,13.015,65.269z"/>
	<path fill="#4D4D4D" d="M44.15,84.737c0-1.175-0.954-2.129-2.134-2.129H3.134C1.953,82.608,1,83.562,1,84.737
		c0,1.181,0.953,2.135,2.134,2.135h38.882C43.196,86.872,44.15,85.918,44.15,84.737z"/>
	<path fill="#4D4D4D" d="M25.115,73.941c0,1.175,0.953,2.129,2.134,2.129h27.16c1.175,0,2.134-0.954,2.134-2.129
		c0-1.181-0.959-2.134-2.134-2.134h-27.16C26.068,71.808,25.115,72.761,25.115,73.941z"/>
</g>
</svg>
