<?xml version="1.0" encoding="utf-8"?>
<!-- Generator: Adobe Illustrator 16.0.0, SVG Export Plug-In . SVG Version: 6.00 Build 0)  -->
<!DOCTYPE svg PUBLIC "-//W3C//DTD SVG 1.1//EN" "http://www.w3.org/Graphics/SVG/1.1/DTD/svg11.dtd">
<svg version="1.1" id="Layer_1" xmlns="http://www.w3.org/2000/svg" xmlns:xlink="http://www.w3.org/1999/xlink" x="0px" y="0px"
	 width="130px" height="130px" viewBox="0 0 130 130" enable-background="new 0 0 130 130" xml:space="preserve">
<rect fill="none" width="130" height="130"/>
<g>
	<path fill="#4D4D4D" d="M21.47,62.768c1.874,0.996,4.023,1.213,6.052,0.599c2.028-0.614,3.705-1.986,4.702-3.855
		c1.262-2.369,0.828-9.604,0.531-14.394c-0.07-1.115-0.129-2.152-0.17-3.117c-0.842,0.5-1.737,1.021-2.702,1.589
		c-4.145,2.41-10.407,6.069-11.669,8.428C16.148,55.878,17.609,60.698,21.47,62.768z M64.415,59.599
		c-3.543,2.224-7.716,4.681-12.555,7.493c-13.116,7.644-29.428,17.161-33.371,24.531c-6.601,12.351-1.933,27.761,10.417,34.372
		c5.976,3.189,12.852,3.871,19.336,1.895c6.495-1.962,11.834-6.333,15.024-12.314c3.948-7.381,2.803-26.239,1.879-41.376
		C64.807,68.609,64.528,63.779,64.415,59.599z M99.363,21.769c1.882,1.001,4.026,1.213,6.055,0.599
		c2.035-0.614,3.702-1.987,4.698-3.85c1.265-2.369,0.831-9.6,0.54-14.395c-0.075-1.12-0.137-2.152-0.184-3.123
		c-0.828,0.501-1.724,1.033-2.694,1.595c-4.145,2.411-10.41,6.065-11.671,8.423C94.045,14.883,95.503,19.704,99.363,21.769z
		 M113.945,48.57c-0.115-1.977-0.224-3.814-0.312-5.522c-1.466,0.883-3.053,1.817-4.77,2.808
		c-7.336,4.278-18.417,10.74-20.648,14.92c-3.657,6.837-1.071,15.364,5.767,19.028c3.313,1.76,7.112,2.147,10.702,1.058
		c3.603-1.089,6.552-3.52,8.324-6.833C115.241,69.853,114.459,57.044,113.945,48.57z M73.512,11.978
		c-1.133,0.676-2.361,1.394-3.669,2.168c-5.661,3.288-14.197,8.273-15.92,11.494c-2.824,5.264-0.821,11.85,4.446,14.663
		c2.549,1.362,5.481,1.657,8.25,0.815c2.773-0.836,5.048-2.709,6.412-5.259c1.725-3.22,1.128-13.093,0.726-19.627
		C73.661,14.703,73.579,13.299,73.512,11.978z M93.991,100.521c-0.829,0.501-1.724,1.027-2.687,1.589
		c-4.154,2.411-10.41,6.06-11.672,8.423c-2.07,3.86-0.612,8.687,3.257,10.756c1.873,1.001,4.022,1.213,6.054,0.594
		c2.028-0.614,3.703-1.982,4.702-3.851c1.261-2.368,0.827-9.604,0.528-14.394C94.104,102.522,94.045,101.485,93.991,100.521z"/>
</g>
</svg>
