<?xml version="1.0" encoding="utf-8"?>
<!-- Generator: Adobe Illustrator 16.0.0, SVG Export Plug-In . SVG Version: 6.00 Build 0)  -->
<!DOCTYPE svg PUBLIC "-//W3C//DTD SVG 1.1//EN" "http://www.w3.org/Graphics/SVG/1.1/DTD/svg11.dtd">
<svg version="1.1" id="Layer_1" xmlns="http://www.w3.org/2000/svg" xmlns:xlink="http://www.w3.org/1999/xlink" x="0px" y="0px"
	 width="130px" height="130px" viewBox="0 0 130 130" enable-background="new 0 0 130 130" xml:space="preserve">
<rect fill="none" width="130" height="130"/>
<g>
	<g>
		<path fill="#4D4D4D" d="M113.928,41.299v-0.064c0-18.266-14.866-33.128-33.135-33.128c-10.563,0-20.43,5.017-26.672,13.496
			c-3.966-2.353-8.455-3.585-13.091-3.585c-13.356,0-24.416,10.291-25.558,23.588C6.518,46.219,1,55.487,1,66.013
			c0,15.019,11.666,27.239,26.015,27.239h1.339c1.948,0,3.533-1.587,3.533-3.538c0-1.945-1.584-3.532-3.533-3.532h-1.339
			c-10.45,0-18.952-9.047-18.952-20.169c0-8.286,4.888-15.859,12.172-18.839c1.438-0.584,2.195-2.197,2.195-3.495
			c0-10.253,8.342-18.598,18.601-18.598c4.304,0,8.503,1.5,11.821,4.233c0.812,0.654,1.97,0.911,2.873,0.735
			c1.031-0.183,1.914-0.815,2.431-1.721c4.641-8.12,13.308-13.158,22.639-13.158c14.371,0,26.064,11.689,26.064,26.064
			c0,0.702-0.034,1.388-0.088,2.063c-0.134,1.587,0.815,3.071,2.315,3.612c7.684,2.782,12.853,10.457,12.853,19.102
			c0,11.122-8.503,20.169-18.946,20.169h-1.346c-1.948,0-3.531,1.587-3.531,3.532c0,1.951,1.583,3.538,3.531,3.538h1.346
			c14.34,0,26.009-12.221,26.009-27.239C129,55.336,123.111,45.748,113.928,41.299z"/>
	</g>
	<g>
		<polygon fill="#4D4D4D" points="88.515,59.013 59.655,59.013 49.788,89.585 57.085,89.585 45.283,121.894 77.532,84.487 
			70.234,84.487 		"/>
	</g>
</g>
</svg>
