<?xml version="1.0" encoding="utf-8"?>
<!-- Generator: Adobe Illustrator 16.0.0, SVG Export Plug-In . SVG Version: 6.00 Build 0)  -->
<!DOCTYPE svg PUBLIC "-//W3C//DTD SVG 1.1//EN" "http://www.w3.org/Graphics/SVG/1.1/DTD/svg11.dtd">
<svg version="1.1" id="Layer_1" xmlns="http://www.w3.org/2000/svg" xmlns:xlink="http://www.w3.org/1999/xlink" x="0px" y="0px"
	 width="130px" height="130px" viewBox="0 0 130 130" enable-background="new 0 0 130 130" xml:space="preserve">
<rect fill="none" width="130" height="130"/>
<g>
	<path fill="#4D4D4D" d="M11.555,35.649l19.471,12.022c0.509,0.316,1.069,0.463,1.628,0.463c1.045,0,2.061-0.517,2.646-1.472
		c0.904-1.462,0.451-3.377-1.009-4.279L14.819,30.362c-1.462-0.906-3.379-0.453-4.278,1.009
		C9.645,32.833,10.093,34.748,11.555,35.649z M44.107,33.096c0.562,1.033,1.63,1.623,2.729,1.623c0.505,0,1.014-0.122,1.481-0.38
		c1.514-0.819,2.071-2.705,1.253-4.215L38.637,10.021c-0.825-1.506-2.707-2.062-4.218-1.248c-1.505,0.824-2.063,2.709-1.245,4.22
		L44.107,33.096z M30.097,65.005c0-1.72-1.389-3.109-3.106-3.109H4.108C2.391,61.896,1,63.285,1,65.005
		c0,1.715,1.391,3.109,3.108,3.109H26.99C28.708,68.114,30.097,66.72,30.097,65.005z M34.342,81.681
		c-0.826-1.511-2.71-2.062-4.221-1.247L10.02,91.363c-1.506,0.819-2.063,2.705-1.245,4.211c0.565,1.043,1.635,1.627,2.731,1.627
		c0.505,0,1.017-0.121,1.481-0.38l20.102-10.926C34.6,85.077,35.16,83.187,34.342,81.681z M95.66,48.324
		c0.565,1.038,1.633,1.623,2.731,1.623c0.504,0,1.014-0.122,1.479-0.375l20.104-10.931c1.511-0.823,2.071-2.709,1.25-4.22
		c-0.819-1.505-2.715-2.061-4.218-1.242l-20.104,10.93C95.399,44.933,94.842,46.818,95.66,48.324z M83.333,35.308
		c0.51,0.312,1.075,0.463,1.636,0.463c1.035,0,2.056-0.521,2.644-1.477l12.024-19.468c0.903-1.457,0.448-3.372-1.009-4.273
		c-1.462-0.907-3.38-0.458-4.278,1.009L82.327,31.029C81.421,32.491,81.876,34.407,83.333,35.308z M64.998,30.099
		c1.716,0,3.106-1.389,3.106-3.109V4.11c0-1.72-1.391-3.109-3.106-3.109c-1.72,0-3.108,1.389-3.108,3.109V26.99
		C61.89,28.71,63.278,30.099,64.998,30.099z M118.446,94.355L98.969,82.334c-1.462-0.911-3.382-0.448-4.273,1.009
		c-0.904,1.462-0.448,3.377,1.009,4.278l19.476,12.017c0.509,0.317,1.074,0.469,1.627,0.469c1.043,0,2.064-0.526,2.644-1.477
		C120.357,97.168,119.901,95.252,118.446,94.355z M125.893,61.896h-22.882c-1.718,0-3.106,1.389-3.106,3.109
		c0,1.715,1.389,3.109,3.106,3.109h22.882c1.718,0,3.107-1.395,3.107-3.109C129,63.285,127.61,61.896,125.893,61.896z
		 M85.887,96.909c-0.823-1.511-2.709-2.066-4.218-1.247c-1.503,0.823-2.063,2.704-1.245,4.215l10.934,20.106
		c0.564,1.038,1.632,1.623,2.731,1.623c0.504,0,1.016-0.122,1.479-0.38c1.513-0.819,2.071-2.705,1.253-4.216L85.887,96.909z
		 M46.656,94.702c-1.465-0.907-3.378-0.459-4.274,1.008l-12.024,19.469c-0.898,1.457-0.448,3.372,1.017,4.273
		c0.509,0.317,1.067,0.468,1.625,0.468c1.043,0,2.063-0.526,2.646-1.477L47.67,98.976C48.566,97.514,48.118,95.604,46.656,94.702z
		 M87.814,65c0-12.602-10.217-22.811-22.812-22.811c-12.6,0-22.815,10.209-22.815,22.811c0,12.597,10.216,22.812,22.815,22.812
		C77.598,87.812,87.814,77.597,87.814,65z M64.998,99.906c-1.72,0-3.108,1.389-3.108,3.104v22.884c0,1.716,1.389,3.104,3.108,3.104
		c1.716,0,3.106-1.389,3.106-3.104v-22.884C68.104,101.295,66.714,99.906,64.998,99.906z"/>
</g>
</svg>
