<?xml version="1.0" encoding="utf-8"?>
<!-- Generator: Adobe Illustrator 16.0.0, SVG Export Plug-In . SVG Version: 6.00 Build 0)  -->
<!DOCTYPE svg PUBLIC "-//W3C//DTD SVG 1.1//EN" "http://www.w3.org/Graphics/SVG/1.1/DTD/svg11.dtd">
<svg version="1.1" id="Layer_1" xmlns="http://www.w3.org/2000/svg" xmlns:xlink="http://www.w3.org/1999/xlink" x="0px" y="0px"
	 width="130px" height="130px" viewBox="0 0 130 130" enable-background="new 0 0 130 130" xml:space="preserve">
<rect fill="none" width="130" height="130"/>
<g>
	<g>
		<path fill="#4D4D4D" d="M127.248,46.1c0-7.94-6.371-14.396-14.193-14.396c-7.826,0-14.189,6.456-14.189,14.396
			c0,1.456,1.166,2.639,2.602,2.639s2.599-1.183,2.599-2.639c0-5.029,4.037-9.118,8.989-9.118c4.958,0,8.992,4.089,8.992,9.118
			c0,9.322-8.185,10.044-8.992,10.094H3.599C2.163,56.193,1,57.372,1,58.832c0,1.455,1.163,2.638,2.599,2.638l109.567-0.005
			C118.04,61.252,127.248,57.763,127.248,46.1z M114.711,68.529H17.626c-1.446,0-2.619,1.184-2.619,2.639
			c0,1.46,1.173,2.639,2.619,2.639h96.969c0.374,0.015,9.17,0.505,9.17,10.089c0,5.029-4.063,9.123-9.054,9.123
			c-4.992,0-9.057-4.094-9.057-9.123c0-1.461-1.171-2.639-2.616-2.639c-1.448,0-2.618,1.178-2.618,2.639
			c0,7.94,6.407,14.4,14.291,14.4c7.873,0,14.289-6.46,14.289-14.4C129,72.228,119.721,68.742,114.711,68.529z"/>
	</g>
	<g>
		<path fill="#4D4D4D" d="M72.027,82.529H35.189c-1.45,0-2.629,1.178-2.629,2.628c0,1.456,1.179,2.634,2.629,2.634h36.838
			c1.45,0,2.626-1.178,2.626-2.634C74.653,83.707,73.478,82.529,72.027,82.529z"/>
	</g>
	<g>
		<path fill="#4D4D4D" d="M86.083,40.466H10.594c-1.434,0-2.599,1.183-2.599,2.633c0,1.451,1.165,2.634,2.599,2.634h75.489
			c1.436,0,2.6-1.183,2.6-2.634C88.683,41.649,87.519,40.466,86.083,40.466z"/>
	</g>
</g>
</svg>
