<?xml version="1.0" encoding="utf-8"?>
<!-- Generator: Adobe Illustrator 16.0.0, SVG Export Plug-In . SVG Version: 6.00 Build 0)  -->
<!DOCTYPE svg PUBLIC "-//W3C//DTD SVG 1.1//EN" "http://www.w3.org/Graphics/SVG/1.1/DTD/svg11.dtd">
<svg version="1.1" id="Layer_1" xmlns="http://www.w3.org/2000/svg" xmlns:xlink="http://www.w3.org/1999/xlink" x="0px" y="0px"
	 width="130px" height="130px" viewBox="0 0 130 130" enable-background="new 0 0 130 130" xml:space="preserve">
<rect fill="none" width="130" height="130"/>
<g>
	<path fill="#4D4D4D" d="M112.932,44.216c0.071-0.823,0.116-1.651,0.116-2.495c0-17.301-14.027-31.328-31.333-31.328
		c-11.648,0-21.802,6.375-27.201,15.815c-4.052-3.323-9.229-5.329-14.881-5.329c-12.932,0-23.429,10.492-23.429,23.428
		c0,0.076,0.016,0.162,0.016,0.238C7.324,48.182,1,57.279,1,67.942c0,13.855,10.663,25.085,23.802,25.085h10.461
		c3.726-3.802,10.398-7.87,18.49-12.58c2.385-1.39,5.13-3.001,7.413-4.433l3.831-2.399l0.129,4.519
		c0.071,2.497,0.237,5.385,0.435,8.625c0.134,2.187,0.245,4.261,0.339,6.269H80.03c-0.364-0.146-0.723-0.304-1.071-0.487
		c-5.334-2.852-7.354-9.515-4.5-14.852c1.548-2.894,6.912-6.188,13.31-9.92c1.011-0.584,1.942-1.132,2.801-1.649l3.683-2.213
		l0.232,4.289c0.056,1.018,0.116,2.104,0.194,3.392c0.438,7.294,0.675,13.565-0.871,16.455c-1.248,2.323-3.258,4.041-5.668,4.985
		h17.074c13.143,0,23.786-11.229,23.786-25.085C129,56.94,122.282,47.596,112.932,44.216z M45.621,79.373
		c-0.917,1.723-2.458,2.983-4.334,3.554c-0.692,0.213-1.407,0.318-2.127,0.318c-1.194,0-2.39-0.301-3.455-0.868
		c-1.726-0.925-2.988-2.466-3.557-4.342c-0.562-1.872-0.366-3.852,0.551-5.562c0.927-1.745,3.402-3.407,7.953-6.062
		c0.568-0.326,1.086-0.632,1.576-0.925l3.718-2.215l0.189,4.324c0.025,0.562,0.059,1.164,0.099,1.813
		C46.558,74.646,46.553,77.623,45.621,79.373z M69.966,65.26c-1.142,2.14-3.046,3.703-5.357,4.4
		c-0.858,0.26-1.742,0.392-2.632,0.392c-1.478,0-2.952-0.374-4.261-1.076c-2.132-1.137-3.692-3.038-4.395-5.357
		c-0.699-2.316-0.46-4.764,0.68-6.888c1.28-2.392,5.503-4.98,10.466-7.867l0.73-0.43l1.447-0.855l3.715-2.218l0.194,4.321
		c0.035,0.771,0.084,1.591,0.145,2.495C71.062,58.14,71.238,62.889,69.966,65.26z M92.085,54.93
		c-0.927,1.721-2.465,2.979-4.339,3.549c-0.692,0.207-1.404,0.313-2.119,0.313c-1.192,0-2.384-0.301-3.455-0.869
		c-3.554-1.901-4.902-6.347-3.006-9.913c1.008-1.89,3.882-3.67,7.832-5.98l0.114-0.066l0.008-0.005
		c0.565-0.323,1.086-0.634,1.565-0.922l3.728-2.245l0.189,4.35c0.018,0.437,0.048,0.894,0.079,1.384l0.024,0.432
		C93.029,50.187,93.024,53.165,92.085,54.93z"/>
	<path fill="#4D4D4D" d="M90.02,43.251c0.024,0.581,0.065,1.192,0.105,1.864c0.177,2.859,0.435,7.173-0.318,8.587
		c-0.596,1.106-1.591,1.93-2.803,2.299c-0.455,0.137-0.917,0.204-1.377,0.204c-0.771,0-1.533-0.189-2.235-0.562
		c-2.303-1.232-3.172-4.107-1.944-6.415c0.752-1.41,4.49-3.582,6.961-5.026C88.988,43.867,89.524,43.55,90.02,43.251"/>
	<path fill="#4D4D4D" d="M67.97,49.798c0.036,0.788,0.086,1.627,0.146,2.536c0.238,3.899,0.597,9.789-0.434,11.709
		c-0.813,1.525-2.167,2.642-3.824,3.142c-0.619,0.187-1.253,0.28-1.882,0.28c-1.048,0-2.089-0.258-3.043-0.771
		c-3.143-1.677-4.334-5.606-2.652-8.744c1.03-1.924,6.122-4.895,9.502-6.859C66.561,50.631,67.293,50.202,67.97,49.798"/>
	<path fill="#4D4D4D" d="M43.552,67.71c0.025,0.576,0.062,1.192,0.102,1.859c0.177,2.854,0.439,7.173-0.313,8.587
		c-0.596,1.116-1.596,1.93-2.809,2.298c-0.452,0.14-0.911,0.205-1.371,0.205c-0.771,0-1.536-0.189-2.235-0.563
		c-2.304-1.232-3.177-4.106-1.939-6.41c0.747-1.409,4.485-3.592,6.955-5.031C42.521,68.321,43.052,68.008,43.552,67.71"/>
	<path fill="#4D4D4D" d="M91.903,68.336c0.056,1.021,0.116,2.112,0.187,3.289c0.304,5.056,0.773,12.699-0.561,15.194
		c-1.056,1.97-2.813,3.425-4.965,4.071c-0.801,0.242-1.617,0.363-2.43,0.363c-1.364,0-2.716-0.336-3.956-0.995
		c-4.081-2.182-5.622-7.269-3.439-11.35c1.334-2.496,7.94-6.345,12.32-8.9C90.085,69.417,91.029,68.861,91.903,68.336"/>
	<path fill="#4D4D4D" d="M62.54,78.207c0.07,2.49,0.237,5.374,0.439,8.708c0.551,9.032,1.232,20.281-1.121,24.686
		c-1.904,3.566-5.087,6.178-8.961,7.345c-1.455,0.442-2.94,0.662-4.42,0.662c-2.458,0-4.893-0.604-7.117-1.794
		c-7.37-3.939-10.148-13.138-6.214-20.503c2.354-4.395,12.083-10.072,19.907-14.629C57.943,81,60.429,79.53,62.54,78.207"/>
	<path fill="#4D4D4D" d="M80.185,102.619c0.035,0.576,0.07,1.192,0.11,1.859c0.177,2.854,0.439,7.173-0.317,8.587
		c-0.597,1.111-1.597,1.93-2.804,2.294c-0.455,0.139-0.922,0.207-1.384,0.207c-0.769,0-1.528-0.189-2.229-0.561
		c-2.308-1.233-3.177-4.112-1.939-6.41c0.753-1.41,4.48-3.592,6.961-5.031C79.153,103.23,79.694,102.918,80.185,102.619"/>
</g>
</svg>
