<?xml version="1.0" encoding="utf-8"?>
<!-- Generator: Adobe Illustrator 16.0.0, SVG Export Plug-In . SVG Version: 6.00 Build 0)  -->
<!DOCTYPE svg PUBLIC "-//W3C//DTD SVG 1.1//EN" "http://www.w3.org/Graphics/SVG/1.1/DTD/svg11.dtd">
<svg version="1.1" id="Layer_1" xmlns="http://www.w3.org/2000/svg" xmlns:xlink="http://www.w3.org/1999/xlink" x="0px" y="0px"
	 width="130px" height="130px" viewBox="0 0 130 130" enable-background="new 0 0 130 130" xml:space="preserve">
<rect fill="none" width="130" height="130"/>
<g>
	<g>
		<path fill="#4D4D4D" d="M113.929,40.418v-0.064c0-18.266-14.862-33.128-33.134-33.128c-10.563,0-20.431,5.017-26.675,13.496
			c-3.961-2.354-8.452-3.586-13.089-3.586c-13.356,0-24.419,10.29-25.561,23.588C6.521,45.338,1,54.605,1,65.131
			c0,15.019,11.668,27.238,26.016,27.238h1.34c1.946,0,3.532-1.586,3.532-3.537c0-1.945-1.586-3.532-3.532-3.532h-1.34
			c-10.451,0-18.951-9.047-18.951-20.169c0-8.285,4.888-15.858,12.172-18.839c1.436-0.584,2.191-2.197,2.191-3.494
			c0-10.253,8.346-18.599,18.604-18.599c4.304,0,8.501,1.501,11.818,4.234c0.814,0.654,1.973,0.911,2.873,0.734
			c1.034-0.183,1.919-0.814,2.433-1.721c4.642-8.119,13.309-13.157,22.64-13.157c14.369,0,26.064,11.689,26.064,26.063
			c0,0.702-0.038,1.389-0.092,2.063c-0.134,1.587,0.815,3.071,2.321,3.612c7.681,2.782,12.847,10.457,12.847,19.102
			c0,11.122-8.5,20.169-18.946,20.169h-1.345c-1.946,0-3.532,1.587-3.532,3.532c0,1.951,1.586,3.537,3.532,3.537h1.345
			c14.343,0,26.011-12.22,26.011-27.238C129,54.455,123.109,44.866,113.929,40.418z"/>
	</g>
	<g>
		<path fill="#4D4D4D" d="M47.822,84.024c-0.52-0.772-0.997-1.501-1.437-2.176c-0.359-0.563-1.019-0.906-1.721-0.906
			c-0.707,0-1.361,0.343-1.726,0.906c-0.434,0.675-0.922,1.409-1.441,2.187c-3.248,4.877-5.928,9.122-5.928,11.668
			c0,4.652,4.078,8.436,9.101,8.436c0,0,0,0,0.005,0c2.434-0.011,4.717-0.89,6.438-2.476c1.71-1.592,2.658-3.709,2.658-5.96
			C53.771,93.157,51.075,88.907,47.822,84.024z M65.123,88.591c2.375,0,4.615-0.863,6.309-2.423c1.688-1.56,2.626-3.645,2.626-5.863
			c0-2.46-2.621-6.593-5.89-11.534l-1.351-2.026c-0.365-0.546-1.008-0.884-1.71-0.884h-0.017c-0.696,0.005-1.351,0.354-1.709,0.916
			c-0.424,0.654-0.885,1.356-1.394,2.117c-3.179,4.781-5.805,8.935-5.805,11.427C56.184,84.882,60.192,88.591,65.123,88.591z
			 M77.14,114.725l-1.902-0.896l1.05-0.321c0.493-0.15,0.756-0.644,0.601-1.094c-0.166-0.455-0.686-0.707-1.189-0.552l-2.809,0.863
			l-0.863-0.407l2.52-0.772c0.493-0.149,0.761-0.643,0.595-1.099c-0.161-0.444-0.676-0.707-1.185-0.547l-4.282,1.313l-2.369-1.115
			l2.214-1.351l4.416,0.858c0.064,0.016,0.129,0.021,0.193,0.021c0.434,0,0.825-0.283,0.916-0.691
			c0.107-0.466-0.22-0.927-0.718-1.028l-2.595-0.504l0.799-0.493l2.905,0.562c0.064,0.017,0.129,0.021,0.192,0.021
			c0.435,0,0.826-0.278,0.922-0.686c0.103-0.472-0.225-0.933-0.729-1.035l-1.083-0.209l1.769-1.082
			c0.439-0.263,0.558-0.799,0.269-1.201c-0.284-0.401-0.857-0.509-1.297-0.246l-1.785,1.088l0.22-1.013
			c0.102-0.467-0.225-0.928-0.734-1.024c-0.504-0.102-0.997,0.215-1.099,0.687l-0.579,2.69l-0.814,0.498l0.525-2.422
			c0.102-0.467-0.23-0.928-0.739-1.019c-0.226-0.048-0.45,0-0.644,0.107c-0.021-0.198-0.075-0.396-0.235-0.547
			c-0.37-0.343-0.96-0.343-1.33-0.011l-1.887,1.736v-0.895l2.106-1.936c0.37-0.343,0.376-0.89,0.006-1.227
			c-0.364-0.344-0.954-0.344-1.324-0.011l-0.788,0.729v-1.973c0-0.482-0.418-0.868-0.938-0.868s-0.933,0.386-0.933,0.868v1.973
			l-0.793-0.729c-0.37-0.333-0.954-0.333-1.329,0.011c-0.359,0.337-0.359,0.884,0.016,1.227l2.106,1.936v0.895l-1.897-1.736
			c-0.364-0.332-0.959-0.332-1.323,0.011c-0.37,0.338-0.359,0.89,0.005,1.222l3.216,2.942v2.541l-2.455-1.152l-1.383-3.978
			c-0.155-0.45-0.675-0.712-1.179-0.562c-0.493,0.145-0.761,0.638-0.605,1.099l0.814,2.337l-0.857-0.407l-0.906-2.61
			c-0.16-0.455-0.681-0.713-1.189-0.562c-0.487,0.15-0.761,0.638-0.601,1.099l0.344,0.976l-1.903-0.896
			c-0.455-0.214-1.019-0.048-1.254,0.381c-0.236,0.429-0.054,0.949,0.407,1.169l1.902,0.89l-1.056,0.326
			c-0.487,0.15-0.756,0.639-0.59,1.094c0.129,0.364,0.499,0.601,0.891,0.601c0.091,0,0.192-0.021,0.294-0.049l2.814-0.862
			l0.857,0.401l-2.524,0.777c-0.488,0.15-0.75,0.638-0.59,1.094c0.129,0.364,0.499,0.6,0.885,0.6c0.097,0,0.198-0.016,0.3-0.042
			l4.288-1.319l2.363,1.11l-2.219,1.355l-4.416-0.857c-0.515-0.107-1.003,0.203-1.115,0.67c-0.102,0.466,0.226,0.927,0.729,1.029
			l2.595,0.509l-0.799,0.488l-2.899-0.568c-0.521-0.097-1.002,0.203-1.109,0.67c-0.107,0.477,0.214,0.933,0.724,1.029l1.077,0.214
			l-1.769,1.083c-0.435,0.263-0.553,0.804-0.269,1.2c0.177,0.252,0.478,0.392,0.783,0.392c0.177,0,0.354-0.049,0.514-0.145
			l1.774-1.089l-0.22,1.014c-0.097,0.472,0.23,0.927,0.734,1.019c0.064,0.016,0.123,0.021,0.183,0.021
			c0.439,0,0.83-0.29,0.922-0.697l0.584-2.696l0.814-0.493l-0.525,2.418c-0.102,0.472,0.226,0.927,0.734,1.018
			c0.059,0.017,0.129,0.021,0.188,0.021c0.161,0,0.306-0.074,0.439-0.149c0.011,0.203,0.086,0.412,0.258,0.573
			c0.182,0.166,0.423,0.252,0.664,0.252s0.478-0.08,0.659-0.246l1.897-1.731v0.895l-2.106,1.93
			c-0.375,0.338-0.375,0.885-0.016,1.232c0.369,0.338,0.959,0.338,1.329,0l0.793-0.718v1.967c0,0.482,0.413,0.868,0.933,0.868
			s0.938-0.386,0.938-0.868v-1.967l0.788,0.718c0.183,0.172,0.418,0.252,0.665,0.252c0.235,0,0.477-0.085,0.659-0.252
			c0.37-0.348,0.364-0.895-0.006-1.232l-2.106-1.93v-0.895l1.887,1.731c0.37,0.337,0.96,0.332,1.33-0.006
			c0.358-0.343,0.358-0.896-0.011-1.232l-3.206-2.932v-2.552l2.45,1.152l1.383,3.982c0.128,0.37,0.487,0.601,0.895,0.601
			c0.086,0,0.188-0.011,0.284-0.043c0.488-0.145,0.761-0.633,0.601-1.094l-0.81-2.337l0.857,0.402l0.906,2.61
			c0.128,0.375,0.493,0.605,0.895,0.605c0.092,0,0.188-0.011,0.284-0.043c0.493-0.145,0.761-0.633,0.605-1.088l-0.337-0.981
			l1.902,0.9c0.14,0.06,0.278,0.092,0.423,0.092c0.344,0,0.671-0.177,0.842-0.478C77.788,115.464,77.601,114.944,77.14,114.725z
			 M64.507,114.162l-2.921,2.669l0.804-3.736l2.117-1.286V114.162z M66.377,106.245l2.922-2.68l-0.81,3.736l-2.112,1.291V106.245z
			 M88.84,84.49l-1.361-2.053c-0.364-0.562-1.013-0.905-1.721-0.905c-0.707,0-1.355,0.337-1.726,0.9
			c-0.413,0.643-0.857,1.318-1.351,2.047c-3.061,4.604-5.596,8.613-5.596,11.036c0,4.427,3.892,8.028,8.678,8.028
			c2.315,0,4.491-0.836,6.126-2.353c1.64-1.506,2.54-3.521,2.54-5.682C94.43,93.114,91.911,89.132,88.84,84.49z"/>
	</g>
</g>
</svg>
