<?xml version="1.0" encoding="utf-8"?>
<!-- Generator: Adobe Illustrator 16.0.0, SVG Export Plug-In . SVG Version: 6.00 Build 0)  -->
<!DOCTYPE svg PUBLIC "-//W3C//DTD SVG 1.1//EN" "http://www.w3.org/Graphics/SVG/1.1/DTD/svg11.dtd">
<svg version="1.1" id="Layer_1" xmlns="http://www.w3.org/2000/svg" xmlns:xlink="http://www.w3.org/1999/xlink" x="0px" y="0px"
	 width="130px" height="130px" viewBox="0 0 130 130" enable-background="new 0 0 130 130" xml:space="preserve">
<rect fill="none" width="130" height="130"/>
<g>
	<g>
		<path fill="#4D4D4D" d="M96.024,88.397l-1.852-0.938l1.157-0.392c0.352-0.112,0.539-0.498,0.421-0.847
			c-0.117-0.354-0.493-0.541-0.85-0.424l-2.414,0.805l-1.013-0.51l2.388-0.798c0.356-0.118,0.541-0.493,0.429-0.853
			c-0.118-0.349-0.499-0.53-0.85-0.424l-3.653,1.217l-2.221-1.125l2.076-1.378l3.763,0.793c0.048,0.017,0.097,0.021,0.14,0.021
			c0.311,0,0.584-0.225,0.656-0.541c0.078-0.359-0.161-0.718-0.522-0.799l-2.457-0.509l0.951-0.627l2.489,0.52
			c0.049,0.011,0.097,0.021,0.14,0.021c0.313,0,0.587-0.225,0.656-0.541c0.078-0.359-0.158-0.719-0.52-0.794l-1.188-0.246
			l1.731-1.147c0.308-0.198,0.396-0.621,0.198-0.932c-0.217-0.306-0.633-0.387-0.936-0.188l-1.736,1.147l0.238-1.195
			c0.07-0.364-0.16-0.718-0.527-0.788c-0.381-0.069-0.719,0.166-0.791,0.531l-0.49,2.486l-0.96,0.627l0.499-2.465
			c0.075-0.365-0.163-0.719-0.528-0.794c-0.386-0.069-0.715,0.172-0.787,0.531l-0.759,3.773l-1.994,1.312V80.54l2.729-2.706
			c0.263-0.263,0.263-0.687,0.005-0.949c-0.26-0.268-0.686-0.268-0.948-0.005l-1.785,1.774v-1.147l1.804-1.785
			c0.268-0.263,0.268-0.686,0.006-0.948c-0.255-0.268-0.684-0.268-0.949-0.006l-0.86,0.858v-2.08c0-0.37-0.303-0.67-0.673-0.67
			c-0.372,0-0.675,0.3-0.675,0.67v2.08l-0.86-0.858c-0.266-0.262-0.688-0.262-0.948,0.006c-0.263,0.263-0.263,0.686,0.005,0.948
			l1.804,1.785v1.147L83.77,76.88c-0.26-0.263-0.686-0.263-0.948,0.005c-0.255,0.263-0.255,0.687,0.005,0.949l2.736,2.706v2.546
			l-2.272-1.152l-1.177-3.655c-0.109-0.354-0.484-0.536-0.841-0.434c-0.356,0.107-0.545,0.493-0.435,0.841l0.767,2.396l-1.019-0.515
			l-0.777-2.423c-0.109-0.354-0.493-0.541-0.844-0.429c-0.352,0.107-0.547,0.482-0.432,0.842l0.364,1.152l-1.838-0.933
			c-0.327-0.166-0.737-0.043-0.9,0.295c-0.172,0.332-0.038,0.733,0.289,0.9l1.847,0.933l-1.152,0.386
			c-0.352,0.117-0.539,0.498-0.421,0.847c0.097,0.284,0.356,0.461,0.635,0.461c0.07,0,0.143-0.011,0.212-0.038l2.409-0.798
			l1.021,0.515l-2.391,0.793c-0.352,0.118-0.547,0.498-0.426,0.847c0.094,0.284,0.355,0.466,0.64,0.466
			c0.064,0,0.137-0.01,0.207-0.037l3.649-1.217l2.225,1.126l-2.077,1.366l-3.76-0.787c-0.375-0.064-0.727,0.16-0.801,0.52
			c-0.073,0.364,0.157,0.713,0.52,0.799l2.463,0.515l-0.96,0.632l-2.481-0.525c-0.372-0.086-0.718,0.15-0.787,0.51
			c-0.083,0.364,0.147,0.724,0.514,0.798l1.183,0.252l-1.727,1.147c-0.311,0.198-0.398,0.616-0.192,0.922
			c0.126,0.198,0.34,0.306,0.56,0.306c0.129,0,0.255-0.038,0.367-0.107l1.729-1.142l-0.238,1.189
			c-0.072,0.359,0.166,0.708,0.528,0.783c0.048,0.011,0.088,0.016,0.131,0.016c0.313,0,0.593-0.22,0.656-0.541l0.502-2.492
			l0.954-0.627l-0.493,2.471c-0.075,0.358,0.16,0.713,0.522,0.787c0.048,0.006,0.088,0.017,0.128,0.017
			c0.322,0,0.604-0.22,0.662-0.541l0.759-3.769l1.999-1.323v2.401l-2.736,2.695c-0.26,0.263-0.268,0.687-0.005,0.954
			c0.263,0.263,0.688,0.263,0.948,0.006l1.793-1.77v1.142l-1.804,1.785c-0.263,0.257-0.268,0.681-0.005,0.948
			c0.26,0.263,0.683,0.263,0.948,0.006l0.86-0.853v2.074c0,0.37,0.303,0.67,0.675,0.67c0.37,0,0.673-0.3,0.673-0.67v-2.074
			l0.86,0.853c0.129,0.129,0.303,0.192,0.475,0.192c0.171,0,0.346-0.069,0.475-0.198c0.262-0.268,0.262-0.691-0.006-0.948
			l-1.804-1.785v-1.142l1.785,1.77c0.131,0.123,0.303,0.192,0.469,0.192c0.18,0,0.352-0.069,0.479-0.198
			c0.258-0.268,0.258-0.691-0.005-0.954L86.91,87.83v-2.552l2.272,1.152l1.169,3.655c0.088,0.289,0.356,0.472,0.641,0.472
			c0.066,0,0.137-0.011,0.2-0.032c0.356-0.118,0.553-0.493,0.439-0.847l-0.771-2.396l1.016,0.515l0.782,2.422
			c0.092,0.284,0.356,0.472,0.636,0.472c0.072,0,0.137-0.016,0.209-0.037c0.354-0.112,0.547-0.493,0.434-0.847l-0.375-1.152
			l1.852,0.938c0.1,0.043,0.201,0.075,0.309,0.075c0.241,0,0.475-0.14,0.592-0.37C96.488,88.971,96.354,88.563,96.024,88.397z
			 M56.237,70.448l1.216,0.616l-0.64,0.215c-0.349,0.117-0.542,0.498-0.421,0.847c0.097,0.284,0.354,0.461,0.635,0.461
			c0.069,0,0.143-0.011,0.215-0.038l1.897-0.627l0.498,0.252L58,72.71c-0.348,0.123-0.538,0.498-0.423,0.853
			c0.091,0.283,0.356,0.461,0.638,0.461c0.069,0,0.142-0.011,0.212-0.038l2.896-0.959l1.544,0.788l-1.442,0.948l-2.99-0.627
			c-0.375-0.06-0.719,0.16-0.796,0.52c-0.078,0.359,0.16,0.713,0.522,0.793l1.691,0.359l-0.475,0.306L57.424,75.7
			c-0.351-0.069-0.718,0.156-0.796,0.515c-0.075,0.359,0.155,0.719,0.518,0.799l0.659,0.14l-1.139,0.756
			c-0.312,0.203-0.399,0.616-0.19,0.927c0.131,0.198,0.338,0.306,0.558,0.306c0.131,0,0.257-0.037,0.367-0.112l1.136-0.751
			l-0.134,0.648c-0.069,0.365,0.169,0.719,0.525,0.788c0.045,0.011,0.088,0.017,0.134,0.017c0.316,0,0.595-0.22,0.659-0.536
			l0.396-1.956l0.472-0.312l-0.34,1.694c-0.07,0.358,0.16,0.718,0.527,0.782c0.043,0.011,0.089,0.016,0.132,0.016
			c0.106,0,0.195-0.059,0.289-0.102c0.014,0.145,0.048,0.289,0.161,0.402c0.131,0.134,0.303,0.198,0.474,0.198
			c0.175,0,0.344-0.064,0.478-0.193l1.222-1.211v0.562l-1.426,1.404c-0.26,0.257-0.265,0.681-0.005,0.948
			c0.268,0.263,0.688,0.263,0.948,0.006l0.482-0.472v1.366c0,0.365,0.295,0.665,0.67,0.665c0.367,0,0.67-0.3,0.67-0.665v-1.366
			l0.475,0.472c0.131,0.129,0.303,0.193,0.475,0.193c0.174,0,0.346-0.064,0.474-0.199c0.263-0.268,0.258-0.691-0.005-0.948
			l-1.418-1.404v-0.562l1.23,1.211c0.266,0.263,0.694,0.252,0.948-0.005c0.26-0.269,0.26-0.691-0.008-0.949l-2.171-2.144v-1.807
			l1.598,0.815l0.938,2.91c0.094,0.284,0.356,0.466,0.638,0.466c0.075,0,0.14-0.011,0.209-0.032
			c0.352-0.112,0.547-0.493,0.435-0.847l-0.528-1.64l0.493,0.252l0.614,1.908c0.096,0.278,0.356,0.466,0.643,0.466
			c0.064,0,0.137-0.011,0.209-0.032c0.349-0.118,0.544-0.493,0.432-0.847l-0.206-0.638l1.217,0.616
			c0.094,0.048,0.198,0.075,0.303,0.075c0.241,0,0.479-0.134,0.598-0.364c0.166-0.333,0.034-0.734-0.298-0.906l-1.214-0.616
			l0.633-0.215c0.356-0.112,0.546-0.493,0.429-0.841c-0.113-0.359-0.504-0.547-0.845-0.435l-1.905,0.633l-0.498-0.252l1.64-0.547
			c0.349-0.112,0.547-0.498,0.427-0.853c-0.118-0.348-0.499-0.535-0.85-0.423l-2.9,0.965l-1.543-0.777l1.441-0.954l2.991,0.622
			c0.048,0.011,0.094,0.016,0.137,0.016c0.313,0,0.595-0.22,0.659-0.536c0.075-0.358-0.153-0.718-0.522-0.799l-1.678-0.348
			l0.469-0.312l1.951,0.413c0.048,0.016,0.094,0.016,0.142,0.016c0.309,0,0.587-0.22,0.651-0.535
			c0.078-0.359-0.152-0.713-0.515-0.788l-0.659-0.14l1.139-0.75c0.313-0.204,0.396-0.627,0.196-0.938
			c-0.207-0.305-0.63-0.386-0.931-0.188l-1.146,0.751l0.131-0.648c0.078-0.359-0.16-0.719-0.522-0.788
			c-0.38-0.075-0.718,0.155-0.787,0.525l-0.395,1.956l-0.466,0.306l0.337-1.688c0.078-0.364-0.16-0.719-0.527-0.793
			c-0.155-0.027-0.292,0.021-0.418,0.085c-0.017-0.145-0.06-0.289-0.164-0.401c-0.254-0.269-0.683-0.258-0.948-0.006l-1.23,1.217
			v-0.552l1.418-1.41c0.268-0.263,0.268-0.691,0.005-0.948c-0.26-0.268-0.681-0.263-0.948-0.006l-0.475,0.467v-1.361
			c0-0.37-0.303-0.67-0.67-0.67c-0.375,0-0.67,0.3-0.67,0.67v1.361l-0.482-0.467c-0.26-0.257-0.681-0.262-0.948,0.006
			c-0.255,0.257-0.255,0.686,0.005,0.948l1.426,1.41v0.547l-1.222-1.212c-0.263-0.252-0.688-0.263-0.951,0.006
			c-0.26,0.263-0.26,0.691,0.008,0.948l2.165,2.149v1.801l-1.603-0.814l-0.927-2.899c-0.113-0.359-0.488-0.547-0.842-0.439
			c-0.356,0.112-0.552,0.487-0.439,0.841l0.528,1.646l-0.504-0.252l-0.611-1.902c-0.112-0.359-0.493-0.541-0.844-0.435
			c-0.349,0.113-0.544,0.493-0.432,0.842l0.206,0.644l-1.222-0.622c-0.324-0.172-0.729-0.037-0.9,0.295
			C55.776,69.875,55.904,70.276,56.237,70.448z M64.871,70.845l1.897-1.87l-0.527,2.609l-1.37,0.911V70.845z M63.531,76.628
			l-1.889,1.865l0.517-2.604l1.372-0.901V76.628z M48.388,87.283l1.016,0.515l0.782,2.422c0.089,0.284,0.356,0.472,0.636,0.472
			c0.069,0,0.137-0.016,0.209-0.037c0.348-0.112,0.544-0.493,0.432-0.847l-0.373-1.152l1.844,0.938
			c0.1,0.043,0.204,0.075,0.309,0.075c0.243,0,0.474-0.14,0.595-0.37c0.171-0.327,0.035-0.734-0.292-0.9l-1.852-0.938l1.157-0.392
			c0.351-0.112,0.539-0.498,0.421-0.847c-0.118-0.354-0.499-0.541-0.847-0.424l-2.412,0.805l-1.019-0.51l2.391-0.798
			c0.351-0.118,0.547-0.493,0.429-0.853c-0.12-0.349-0.501-0.53-0.85-0.424l-3.655,1.212l-2.219-1.12l2.082-1.378l3.755,0.793
			c0.048,0.017,0.096,0.021,0.145,0.021c0.308,0,0.587-0.225,0.656-0.541c0.072-0.359-0.158-0.718-0.52-0.799l-2.463-0.509
			l0.954-0.627l2.486,0.52c0.043,0.011,0.092,0.021,0.137,0.021c0.313,0,0.587-0.225,0.651-0.541
			c0.086-0.359-0.152-0.719-0.515-0.788l-1.187-0.252l1.733-1.147c0.309-0.198,0.396-0.621,0.19-0.932
			c-0.204-0.306-0.624-0.387-0.927-0.188l-1.727,1.142l0.236-1.189c0.072-0.359-0.164-0.718-0.528-0.788
			c-0.383-0.069-0.718,0.166-0.788,0.531l-0.498,2.486l-0.957,0.627l0.496-2.465c0.075-0.365-0.163-0.719-0.525-0.794
			c-0.386-0.069-0.718,0.172-0.788,0.531l-0.761,3.768l-1.999,1.318V80.54l2.733-2.706c0.263-0.263,0.263-0.687,0.008-0.949
			c-0.26-0.268-0.688-0.268-0.948-0.005l-1.793,1.774v-1.147l1.804-1.785c0.268-0.263,0.268-0.686,0.005-0.948
			c-0.26-0.268-0.681-0.268-0.948-0.006l-0.86,0.858v-2.08c0-0.37-0.303-0.67-0.676-0.67c-0.369,0-0.67,0.3-0.67,0.67v2.08
			l-0.862-0.858c-0.266-0.262-0.694-0.262-0.949,0.006c-0.26,0.263-0.26,0.686,0.006,0.948l1.806,1.785v1.147l-1.787-1.774
			c-0.26-0.263-0.688-0.263-0.948,0.005c-0.255,0.263-0.255,0.687,0.005,0.949l2.73,2.706v2.546l-2.27-1.146l-1.179-3.666
			c-0.113-0.349-0.475-0.531-0.85-0.429c-0.349,0.118-0.539,0.493-0.427,0.841l0.772,2.396l-1.016-0.51l-0.783-2.428
			c-0.112-0.354-0.479-0.541-0.841-0.429c-0.356,0.112-0.547,0.487-0.435,0.842l0.375,1.157l-1.854-0.938
			c-0.332-0.166-0.734-0.043-0.9,0.295c-0.171,0.332-0.04,0.733,0.292,0.9l1.85,0.933l-1.155,0.386
			c-0.351,0.117-0.541,0.498-0.423,0.847c0.096,0.284,0.356,0.461,0.635,0.461c0.072,0,0.142-0.011,0.214-0.038l2.415-0.798
			l1.016,0.515l-2.394,0.793c-0.356,0.118-0.544,0.498-0.426,0.847c0.094,0.284,0.356,0.466,0.636,0.466
			c0.072,0,0.142-0.01,0.214-0.037l3.655-1.217l2.225,1.126l-2.082,1.366l-3.763-0.787c-0.375-0.064-0.727,0.16-0.802,0.52
			c-0.077,0.364,0.161,0.713,0.521,0.799l2.462,0.515l-0.953,0.627l-2.487-0.521c-0.372-0.086-0.718,0.15-0.788,0.51
			c-0.083,0.364,0.147,0.724,0.518,0.798l1.185,0.252l-1.731,1.147c-0.311,0.198-0.399,0.616-0.195,0.922
			c0.131,0.198,0.343,0.306,0.562,0.306c0.131,0,0.255-0.038,0.37-0.107l1.73-1.147l-0.238,1.195
			c-0.069,0.359,0.161,0.708,0.53,0.783c0.041,0.011,0.089,0.016,0.129,0.016c0.316,0,0.595-0.22,0.659-0.541l0.499-2.492
			l0.954-0.627l-0.496,2.471c-0.072,0.358,0.163,0.713,0.525,0.787c0.048,0.006,0.088,0.017,0.131,0.017
			c0.313,0,0.601-0.22,0.659-0.541l0.762-3.773l1.993-1.318v2.401l-2.73,2.695c-0.26,0.263-0.26,0.687-0.005,0.954
			c0.128,0.129,0.303,0.198,0.479,0.198c0.166,0,0.337-0.069,0.469-0.192l1.787-1.77v1.142l-1.806,1.785
			c-0.266,0.257-0.266,0.681-0.006,0.948c0.255,0.263,0.684,0.263,0.949,0.006l0.862-0.853v2.074c0,0.37,0.301,0.67,0.67,0.67
			c0.373,0,0.676-0.3,0.676-0.67v-2.074l0.86,0.853c0.131,0.129,0.303,0.192,0.474,0.192c0.172,0,0.346-0.069,0.475-0.198
			c0.263-0.268,0.258-0.691-0.005-0.948l-1.804-1.785v-1.142l1.793,1.77c0.26,0.257,0.688,0.257,0.948-0.006
			c0.26-0.268,0.255-0.691-0.008-0.954L44.43,87.83v-2.557l2.272,1.157l1.174,3.655c0.091,0.289,0.356,0.472,0.643,0.472
			c0.064,0,0.137-0.011,0.201-0.032c0.356-0.118,0.544-0.493,0.432-0.847L48.388,87.283z M79.782,112.902l-3.031-1.544l1.976-0.653
			c0.493-0.161,0.761-0.697,0.595-1.19c-0.161-0.482-0.699-0.767-1.188-0.589l-3.738,1.243l-1.787-0.911l3.869-1.286
			c0.493-0.156,0.759-0.691,0.593-1.185c-0.158-0.488-0.681-0.767-1.188-0.596l-5.628,1.871l-3.585-1.817l3.347-2.202l5.815,1.217
			c0.064,0.016,0.129,0.021,0.195,0.021c0.435,0,0.825-0.305,0.919-0.744c0.103-0.51-0.22-1.008-0.729-1.115l-3.993-0.842
			l1.673-1.099l3.855,0.81c0.067,0.016,0.132,0.016,0.196,0.016c0.434,0,0.825-0.3,0.919-0.739c0.11-0.509-0.217-1.013-0.721-1.12
			l-2.037-0.424l2.83-1.87c0.439-0.284,0.552-0.863,0.266-1.303c-0.281-0.434-0.871-0.546-1.297-0.268l-2.838,1.876l0.409-2.042
			c0.103-0.51-0.225-1.003-0.729-1.104c-0.53-0.112-1.011,0.23-1.109,0.734l-0.777,3.864l-1.675,1.109l0.802-4.004
			c0.102-0.509-0.233-1.007-0.737-1.109c-0.504-0.106-1,0.226-1.102,0.74l-1.163,5.826l-3.253,2.138v-3.886l4.226-4.186
			c0.367-0.359,0.367-0.954,0.006-1.324c-0.362-0.364-0.96-0.369-1.329-0.011l-2.902,2.873v-1.993l2.809-2.782
			c0.367-0.364,0.372-0.959,0.005-1.324c-0.361-0.375-0.957-0.375-1.329-0.011l-1.484,1.475v-3.403c0-0.521-0.416-0.938-0.936-0.938
			c-0.518,0-0.938,0.418-0.938,0.938v3.397l-1.479-1.469c-0.367-0.364-0.96-0.364-1.327,0.011c-0.364,0.365-0.364,0.96,0.006,1.324
			l2.801,2.782v1.993l-2.897-2.873c-0.372-0.358-0.968-0.354-1.329,0.011c-0.367,0.37-0.361,0.965,0.005,1.324l4.222,4.186v4.101
			l-3.656-1.854l-1.822-5.66c-0.155-0.493-0.67-0.771-1.182-0.605c-0.493,0.155-0.764,0.687-0.605,1.185l1.254,3.881l-1.798-0.906
			l-1.206-3.752c-0.155-0.487-0.67-0.771-1.179-0.605c-0.493,0.155-0.767,0.687-0.605,1.185l0.635,1.973l-3.025-1.533
			c-0.464-0.23-1.029-0.054-1.265,0.413c-0.239,0.466-0.054,1.028,0.415,1.265l3.03,1.538l-1.975,0.659
			c-0.493,0.161-0.764,0.691-0.601,1.18c0.132,0.396,0.499,0.648,0.89,0.648c0.103,0,0.204-0.017,0.298-0.043l3.738-1.255
			l1.793,0.917l-3.87,1.281c-0.493,0.16-0.764,0.691-0.6,1.185c0.134,0.391,0.498,0.643,0.89,0.643c0.102,0,0.203-0.011,0.297-0.043
			l5.639-1.876l3.578,1.817l-3.342,2.208l-5.815-1.222c-0.521-0.113-1.008,0.22-1.112,0.729c-0.11,0.51,0.217,1.008,0.721,1.109
			l3.996,0.842l-1.675,1.104l-3.856-0.809c-0.522-0.107-1.005,0.22-1.109,0.724c-0.107,0.509,0.22,1.007,0.724,1.114l2.036,0.429
			l-2.838,1.865c-0.432,0.29-0.552,0.868-0.268,1.303c0.185,0.278,0.479,0.423,0.785,0.423c0.177,0,0.361-0.053,0.515-0.155
			l2.843-1.876l-0.415,2.037c-0.103,0.515,0.225,1.013,0.736,1.115c0.064,0.011,0.124,0.016,0.183,0.016
			c0.444,0,0.831-0.311,0.919-0.756l0.783-3.864l1.666-1.104l-0.793,4.004c-0.102,0.51,0.226,1.003,0.734,1.104
			c0.059,0.016,0.126,0.021,0.188,0.021c0.437,0,0.831-0.312,0.919-0.756l1.163-5.82l3.246-2.149v3.891l-4.222,4.176
			c-0.366,0.369-0.372,0.965-0.005,1.334c0.361,0.37,0.957,0.37,1.329,0.006l2.897-2.867v1.999l-2.801,2.771
			c-0.37,0.364-0.37,0.96-0.006,1.329c0.183,0.188,0.427,0.279,0.668,0.279c0.238,0,0.477-0.092,0.659-0.273l1.479-1.464v3.398
			c0,0.52,0.42,0.938,0.938,0.938c0.52,0,0.936-0.419,0.936-0.938v-3.398l1.484,1.464c0.372,0.369,0.968,0.369,1.329-0.006
			c0.367-0.369,0.362-0.965-0.005-1.329l-2.809-2.771v-1.999l2.902,2.867c0.182,0.182,0.42,0.268,0.659,0.268
			c0.243,0,0.487-0.091,0.67-0.273c0.361-0.369,0.361-0.965-0.006-1.334l-4.226-4.176v-4.105l3.657,1.854l1.82,5.66
			c0.131,0.402,0.498,0.653,0.895,0.653c0.097,0,0.193-0.016,0.287-0.048c0.49-0.161,0.767-0.686,0.603-1.179l-1.246-3.881
			l1.796,0.9l1.203,3.757c0.131,0.397,0.498,0.649,0.896,0.649c0.096,0,0.189-0.017,0.292-0.049
			c0.493-0.155,0.764-0.686,0.605-1.179l-0.638-1.973l3.028,1.533c0.137,0.069,0.278,0.096,0.429,0.096
			c0.335,0,0.667-0.188,0.836-0.509C80.431,113.706,80.246,113.138,79.782,112.902z"/>
	</g>
	<g>
		<path fill="#4D4D4D" d="M113.926,39.581v-0.063c0-18.267-14.862-33.129-33.134-33.129c-10.561,0-20.431,5.017-26.672,13.496
			c-3.964-2.354-8.455-3.586-13.089-3.586c-13.358,0-24.419,10.291-25.561,23.588C6.518,44.502,1,53.769,1,64.295
			c0,15.019,11.668,27.238,26.014,27.238h1.342c1.946,0,3.529-1.587,3.529-3.537c0-1.946-1.583-3.532-3.529-3.532h-1.342
			c-10.449,0-18.952-9.047-18.952-20.169c0-8.286,4.891-15.859,12.172-18.839c1.438-0.585,2.194-2.198,2.194-3.495
			c0-10.253,8.343-18.598,18.604-18.598c4.302,0,8.501,1.5,11.818,4.234c0.812,0.653,1.97,0.911,2.873,0.733
			c1.031-0.182,1.916-0.814,2.433-1.72c4.64-8.12,13.309-13.158,22.637-13.158c14.372,0,26.067,11.689,26.067,26.064
			c0,0.702-0.038,1.388-0.092,2.063c-0.134,1.586,0.815,3.07,2.318,3.612c7.681,2.781,12.85,10.456,12.85,19.102
			c0,11.122-8.503,20.169-18.946,20.169h-1.345c-1.948,0-3.532,1.586-3.532,3.532c0,1.95,1.584,3.537,3.532,3.537h1.345
			c14.343,0,26.011-12.22,26.011-27.238C129,53.618,123.109,44.03,113.926,39.581z"/>
	</g>
</g>
</svg>
