<?xml version="1.0" encoding="utf-8"?>
<!-- Generator: Adobe Illustrator 16.0.0, SVG Export Plug-In . SVG Version: 6.00 Build 0)  -->
<!DOCTYPE svg PUBLIC "-//W3C//DTD SVG 1.1//EN" "http://www.w3.org/Graphics/SVG/1.1/DTD/svg11.dtd">
<svg version="1.1" id="Layer_1" xmlns="http://www.w3.org/2000/svg" xmlns:xlink="http://www.w3.org/1999/xlink" x="0px" y="0px"
	 width="130px" height="130px" viewBox="0 0 130 130" enable-background="new 0 0 130 130" xml:space="preserve">
<rect fill="none" width="130" height="130"/>
<g>
	<path fill="#4D4D4D" d="M101.795,3.785c-22.646,0-41.071,18.42-41.071,41.068v18.939H46.728c-3.481,0-6.307,2.822-6.307,6.3
		c0,3.484,2.825,6.307,6.307,6.307h13.996v46.295c0,3.484,2.822,6.307,6.303,6.307c3.482,0,6.307-2.822,6.307-6.307V76.398h13.988
		c3.48,0,6.307-2.822,6.307-6.307c0-3.478-2.826-6.3-6.307-6.3H73.334V44.853c0-15.692,12.764-28.461,28.461-28.461
		c3.482,0,6.305-2.829,6.305-6.307S105.277,3.785,101.795,3.785z M55.158,17.628C55.158,8.462,47.706,1,38.536,1
		c-9.173,0-16.635,7.462-16.635,16.628c0,9.173,7.462,16.628,16.635,16.628C47.706,34.257,55.158,26.801,55.158,17.628z
		 M38.536,27.956c-5.698,0-10.328-4.633-10.328-10.328c0-5.688,4.63-10.322,10.328-10.322c5.688,0,10.318,4.633,10.318,10.322
		C48.854,23.323,44.224,27.956,38.536,27.956z"/>
</g>
</svg>
