<?xml version="1.0" encoding="utf-8"?>
<!-- Generator: Adobe Illustrator 16.0.0, SVG Export Plug-In . SVG Version: 6.00 Build 0)  -->
<!DOCTYPE svg PUBLIC "-//W3C//DTD SVG 1.1//EN" "http://www.w3.org/Graphics/SVG/1.1/DTD/svg11.dtd">
<svg version="1.1" id="Layer_1" xmlns="http://www.w3.org/2000/svg" xmlns:xlink="http://www.w3.org/1999/xlink" x="0px" y="0px"
	 width="130px" height="130px" viewBox="0 0 130 130" enable-background="new 0 0 130 130" xml:space="preserve">
<rect fill="none" width="130" height="130"/>
<g>
	<g>
		<path fill="#4D4D4D" d="M108.153,15.139c0.47,0.302,0,108.624,0,108.624H97.645c-1.197,0-1.766,1.811-1.766,3.031
			c0,1.217,0.959,2.206,2.151,2.206h23.723c1.187,0,2.156-0.989,2.156-2.206c0-1.221-0.55-3.031-1.741-3.031h-10.509V15.139H108.153
			z"/>
	</g>
	<path fill="#4D4D4D" d="M109.924,1c-3.922,0-7.122,3.195-7.122,7.151c0,3.932,3.2,7.131,7.122,7.131c3.946,0,7.146-3.2,7.146-7.131
		C117.069,4.195,113.87,1,109.924,1z"/>
	<path fill="#4D4D4D" d="M99.039,13.932c-0.03-0.055-0.079-0.079-0.119-0.124c-1.612-4.07-3.822-6.706-6.681-6.706
		c-0.44,0-0.855,0.06-1.257,0.168l-64.773,5.346C15.116,13.719,6.091,23.699,6.091,34.851v3.333
		c0,11.137,9.025,21.122,20.157,22.254l64.734,5.326c0.401,0.109,0.816,0.174,1.257,0.174c3.065,0,5.395-3.012,7.027-7.596
		l9.129-12.512V28.244L99.039,13.932z M91.888,11.623l0.563-0.044c0.915,0.356,2.364,2.928,3.541,7.551l-5.559-5.559
		C90.968,12.538,91.478,11.87,91.888,11.623z M26.501,56.046C17.594,55.142,10.35,47.13,10.35,38.184v-3.333
		c0-8.951,7.244-16.958,16.106-17.848l7.319-0.603c-7.705,15.775-4.743,30.067-0.005,40.245L26.501,56.046z M38.894,57.065
		c-5.113-9.752-9.079-24.544-0.084-40.849c0.045-0.084,0.084-0.158,0.124-0.242l18.396-1.519
		c-8.017,17.284-5.064,32.971-0.307,44.103L38.894,57.065z M86.166,60.952l-24.123-1.983c-5.064-10.682-8.872-26.72,0.084-44.379
		c0.094-0.183,0.178-0.366,0.262-0.544l23.777-1.963c-2.818,5.643-4.149,15.256-4.149,24.44
		C82.017,45.696,83.348,55.305,86.166,60.952z M95.404,57.392c-0.016,0.06-0.055,0.109-0.06,0.173
		c-0.96,2.76-1.964,4.308-2.666,4.575l-0.563-0.044c-0.613-0.361-1.429-1.622-2.24-3.724l6.711-5.341
		C96.22,54.701,95.819,56.17,95.404,57.392z M97.392,45.894l-9.109,7.25c-0.969-4.114-1.701-9.678-1.701-16.621
		c0-8.017,0.975-14.193,2.156-18.412l8.605,8.605c0.336,2.883,0.544,6.142,0.544,9.807C97.887,39.994,97.698,43.114,97.392,45.894z
		 M102.13,42.121c0.113-1.865,0.173-3.739,0.173-5.598c0-1.657-0.045-3.328-0.139-4.985l5.88,5.875L102.13,42.121z"/>
</g>
</svg>
