<?xml version="1.0" encoding="utf-8"?>
<!-- Generator: Adobe Illustrator 16.0.0, SVG Export Plug-In . SVG Version: 6.00 Build 0)  -->
<!DOCTYPE svg PUBLIC "-//W3C//DTD SVG 1.1//EN" "http://www.w3.org/Graphics/SVG/1.1/DTD/svg11.dtd">
<svg version="1.1" id="Layer_1" xmlns="http://www.w3.org/2000/svg" xmlns:xlink="http://www.w3.org/1999/xlink" x="0px" y="0px"
	 width="130px" height="130px" viewBox="0 0 130 130" enable-background="new 0 0 130 130" xml:space="preserve">
<rect fill="none" width="130" height="130"/>
<g>
	<path fill="#4D4D4D" d="M122.366,41.501l0.012-0.02c-0.61-1.132-1.264-2.244-1.956-3.336c-0.275-0.432-0.577-0.85-0.864-1.274
		c-0.569-0.847-1.156-1.682-1.775-2.5c-0.348-0.459-0.701-0.913-1.065-1.362c-0.707-0.876-1.445-1.73-2.212-2.565
		c-0.27-0.294-0.52-0.602-0.798-0.889c-1.04-1.09-2.138-2.136-3.277-3.145c-0.328-0.29-0.673-0.565-1.006-0.847
		c-0.908-0.766-1.844-1.507-2.808-2.219c-0.379-0.28-0.752-0.557-1.138-0.827c-1.276-0.894-2.587-1.755-3.959-2.553
		c-0.035-0.02-0.064-0.042-0.097-0.061h-0.002c-0.01-0.005-0.02-0.013-0.031-0.02l-0.003-0.002l0.07-0.125l-0.002-0.005
		c-0.012-0.007-0.024-0.012-0.037-0.02l0,0c-0.002,0-0.002-0.002-0.005-0.002c-1.404-0.808-2.836-1.524-4.275-2.197
		c-0.423-0.196-0.848-0.378-1.27-0.562c-1.098-0.479-2.202-0.916-3.314-1.316c-0.415-0.15-0.825-0.312-1.242-0.45
		c-1.438-0.479-2.885-0.906-4.341-1.259c-0.388-0.096-0.775-0.159-1.163-0.245c-1.107-0.246-2.215-0.459-3.326-0.634
		c-0.562-0.088-1.123-0.165-1.687-0.235c-1.036-0.13-2.072-0.224-3.108-0.292c-0.485-0.034-0.968-0.086-1.453-0.105
		c-1.294-0.051-2.588-0.064-3.876-0.027l-0.013,0.022C55.19,12.94,38.673,21.429,28.616,36.409
		c4.315-1.581,9.272-1.292,13.575,1.198c5.161,2.976,8.033,8.411,8.023,13.983l0.002-0.002c0.005,0.121,0.017,0.241,0.015,0.361
		c4.868-2.96,11.172-3.25,16.455-0.201c3.352,1.937,6.47,5.56,7.879,9.93L46.74,109.875c-1.59,2.75-4.836,3.884-7.592,2.293
		c-1.1-0.633-2.512-0.255-3.147,0.845c-0.636,1.104-0.258,2.514,0.842,3.152c4.961,2.862,10.836,1.395,13.696-3.56L78.601,64
		c4.087-0.493,9.136,0.213,12.445,2.124c5.303,3.063,8.218,8.686,8.09,14.4c0.101-0.062,0.211-0.11,0.316-0.164l-0.003,0.002
		c4.839-2.804,11.003-3.034,16.184-0.044c4.32,2.499,7.06,6.657,7.853,11.199C131.452,75.271,130.533,56.662,122.366,41.501z"/>
	<path fill="#4D4D4D" d="M11.571,69.296h45.17c1.225,0,2.217-0.992,2.217-2.22c0-1.222-0.992-2.215-2.217-2.215H11.682
		c-1.046-0.059-6.243-0.667-6.243-6.819c0-3.383,2.747-6.137,6.132-6.137c3.38,0,6.132,2.754,6.132,6.137
		c0,1.222,0.995,2.214,2.219,2.214c1.225,0,2.22-0.992,2.22-2.214c0-5.828-4.743-10.571-10.571-10.571
		C5.743,47.471,1,52.214,1,58.042C1,66.581,7.852,69.139,11.571,69.296z"/>
	<path fill="#4D4D4D" d="M19.922,83.112c-1.224,0-2.219,0.996-2.219,2.219c0,3.383-2.752,6.138-6.132,6.138
		c-3.386,0-6.132-2.755-6.132-6.138c0-6.156,5.197-6.761,6.132-6.815h25.096c1.223,0,2.214-0.996,2.214-2.219
		c0-1.228-0.992-2.219-2.214-2.219l-25.194,0.005C7.852,74.235,1,76.788,1,85.331c0,5.833,4.743,10.57,10.571,10.57
		c5.828,0,10.571-4.737,10.571-10.57C22.142,84.108,21.147,83.112,19.922,83.112z"/>
</g>
</svg>
