<?xml version="1.0" encoding="utf-8"?>
<!-- Generator: Adobe Illustrator 16.0.0, SVG Export Plug-In . SVG Version: 6.00 Build 0)  -->
<!DOCTYPE svg PUBLIC "-//W3C//DTD SVG 1.1//EN" "http://www.w3.org/Graphics/SVG/1.1/DTD/svg11.dtd">
<svg version="1.1" id="Layer_1" xmlns="http://www.w3.org/2000/svg" xmlns:xlink="http://www.w3.org/1999/xlink" x="0px" y="0px"
	 width="130px" height="130px" viewBox="0 0 130 130" enable-background="new 0 0 130 130" xml:space="preserve">
<rect fill="none" width="130" height="130"/>
<g>
	<path fill="#4D4D4D" d="M82.957,69.052V19.465C82.957,9.284,74.646,1,64.427,1C54.214,1,45.904,9.284,45.904,19.465v49.906
		C37.429,75.617,32.21,85.805,32.21,96.269C32.21,114.315,47.105,129,65.413,129c18.156,0,32.377-14.378,32.377-32.731
		C97.79,84.186,92.537,74.578,82.957,69.052z M65.413,126.625c-17.002,0-30.828-13.622-30.828-30.356
		c0-10.186,5.221-19.926,13.694-25.668V19.465c0-8.873,7.242-16.09,16.147-16.09c8.903,0,16.155,7.217,16.155,16.09v50.992
		c9.58,4.972,14.833,14.096,14.833,25.812C95.415,113.29,82.235,126.625,65.413,126.625z"/>
	<g>
		<path fill="#4D4D4D" d="M78.087,73.188c-0.624-0.301-1.021-0.928-1.021-1.623V52.451c-1.855,0.779-3.704,1.123-5.524,1.123
			c-3.02,0-5.962-0.816-8.713-1.582c-3.747-1.043-7.3-2.004-10.721-1.03v20.603c0,0.617-0.313,1.188-0.833,1.517
			c-7.89,5-12.787,13.878-12.787,23.158c0,14.75,12.147,26.739,27.075,26.739c14.722,0,26.255-11.744,26.255-26.739
			C91.818,88.703,89.437,78.583,78.087,73.188z"/>
	</g>
	<path fill="#4D4D4D" d="M34.532,60.202h5.515c1.009,0,1.825-0.733,1.825-1.637c0-0.909-0.816-1.646-1.825-1.646h-5.515
		c-1.005,0-1.821,0.737-1.821,1.646C32.711,59.469,33.527,60.202,34.532,60.202z"/>
	<path fill="#4D4D4D" d="M40.047,68.402c1.009,0,1.825-0.737,1.825-1.646c0-0.904-0.816-1.643-1.825-1.643h-5.515
		c-1.005,0-1.821,0.738-1.821,1.643c0,0.909,0.816,1.646,1.821,1.646H40.047z"/>
	<path fill="#4D4D4D" d="M34.532,35.518h5.515c1.009,0,1.825-0.733,1.825-1.642c0-0.904-0.816-1.642-1.825-1.642h-5.515
		c-1.005,0-1.821,0.738-1.821,1.642C32.711,34.785,33.527,35.518,34.532,35.518z"/>
	<path fill="#4D4D4D" d="M34.532,27.326h5.515c1.009,0,1.825-0.737,1.825-1.642c0-0.909-0.816-1.642-1.825-1.642h-5.515
		c-1.005,0-1.821,0.733-1.821,1.642C32.711,26.589,33.527,27.326,34.532,27.326z"/>
	<path fill="#4D4D4D" d="M34.532,19.089h5.515c1.009,0,1.825-0.737,1.825-1.646c0-0.904-0.816-1.642-1.825-1.642h-5.515
		c-1.005,0-1.821,0.738-1.821,1.642C32.711,18.352,33.527,19.089,34.532,19.089z"/>
	<path fill="#4D4D4D" d="M34.532,43.769h5.515c1.009,0,1.825-0.737,1.825-1.646c0-0.904-0.816-1.642-1.825-1.642h-5.515
		c-1.005,0-1.821,0.737-1.821,1.642C32.711,43.031,33.527,43.769,34.532,43.769z"/>
	<path fill="#4D4D4D" d="M34.532,51.96h5.515c1.009,0,1.825-0.738,1.825-1.642c0-0.909-0.816-1.642-1.825-1.642h-5.515
		c-1.005,0-1.821,0.733-1.821,1.642C32.711,51.222,33.527,51.96,34.532,51.96z"/>
</g>
</svg>
