<?xml version="1.0" encoding="utf-8"?>
<!-- Generator: Adobe Illustrator 16.0.0, SVG Export Plug-In . SVG Version: 6.00 Build 0)  -->
<!DOCTYPE svg PUBLIC "-//W3C//DTD SVG 1.1//EN" "http://www.w3.org/Graphics/SVG/1.1/DTD/svg11.dtd">
<svg version="1.1" id="Layer_1" xmlns="http://www.w3.org/2000/svg" xmlns:xlink="http://www.w3.org/1999/xlink" x="0px" y="0px"
	 width="130px" height="130px" viewBox="0 0 130 130" enable-background="new 0 0 130 130" xml:space="preserve">
<rect fill="none" width="130" height="130"/>
<path fill="#4D4D4D" d="M96.926,10.261v-0.023c-1.206-0.745-2.443-1.444-3.704-2.105c-0.522-0.275-1.06-0.514-1.589-0.773
	c-0.991-0.482-1.992-0.946-3.012-1.376c-0.604-0.257-1.209-0.501-1.822-0.737c-1.132-0.438-2.283-0.833-3.447-1.203
	c-0.448-0.142-0.886-0.304-1.339-0.435c-1.586-0.464-3.201-0.854-4.834-1.188c-0.495-0.103-0.999-0.178-1.497-0.268
	c-1.269-0.228-2.548-0.414-3.843-0.563c-0.529-0.058-1.057-0.121-1.588-0.168c-1.715-0.149-3.439-0.249-5.188-0.254
	c-0.042,0-0.081-0.005-0.123-0.005v0.002c-0.016,0-0.031-0.002-0.047-0.002h-0.005V1h-0.006c-1.829,0-3.636,0.11-5.426,0.268
	C59,1.309,58.549,1.364,58.096,1.414c-1.382,0.155-2.75,0.354-4.103,0.601c-0.428,0.076-0.86,0.142-1.284,0.228
	c-1.668,0.341-3.312,0.739-4.923,1.211c-0.389,0.113-0.764,0.254-1.146,0.375c-1.225,0.385-2.436,0.805-3.626,1.263
	c-0.582,0.226-1.158,0.459-1.732,0.703c-1.046,0.44-2.073,0.917-3.091,1.416c-0.503,0.247-1.02,0.477-1.518,0.737
	c-1.261,0.663-2.498,1.363-3.704,2.107v0.023C16.833,20.047,5.708,37.306,4.36,57.207c3.261-3.9,8.163-6.364,13.663-6.364
	c6.574,0,12.317,3.607,15.392,8.936c0.076,0.118,0.157,0.23,0.226,0.354c3.03-5.525,8.902-9.29,15.645-9.29
	c4.28,0,9.264,1.749,13.028,5.151v61.521c0,3.513-2.48,6.391-5.998,6.391c-1.405,0-2.548,1.143-2.548,2.548
	c0,1.41,1.143,2.548,2.548,2.548c6.333,0,11.146-4.65,11.146-10.973V55.993c3.638-2.734,8.865-4.847,13.091-4.847
	c6.768,0,12.661,3.77,15.696,9.311c0.065-0.118,0.145-0.223,0.215-0.335l0,0c3.083-5.353,8.854-8.976,15.466-8.976
	c5.516,0,10.438,2.464,13.71,6.375C124.287,37.565,113.123,20.259,96.926,10.261z"/>
</svg>
