<?xml version="1.0" encoding="utf-8"?>
<!-- Generator: Adobe Illustrator 16.0.0, SVG Export Plug-In . SVG Version: 6.00 Build 0)  -->
<!DOCTYPE svg PUBLIC "-//W3C//DTD SVG 1.1//EN" "http://www.w3.org/Graphics/SVG/1.1/DTD/svg11.dtd">
<svg version="1.1" id="Layer_1" xmlns="http://www.w3.org/2000/svg" xmlns:xlink="http://www.w3.org/1999/xlink" x="0px" y="0px"
	 width="130px" height="130px" viewBox="0 0 130 130" enable-background="new 0 0 130 130" xml:space="preserve">
<rect fill="none" width="130" height="130"/>
<g>
	<g>
		<path fill="#4D4D4D" d="M105.875,57.399v-0.058c0-15.26-12.419-27.676-27.68-27.676c-8.826,0-17.069,4.191-22.284,11.279
			c-3.312-1.966-7.064-2.996-10.936-2.996c-11.16,0-20.397,8.597-21.352,19.706c-7.479,3.851-12.09,11.593-12.09,20.392
			c0,12.546,9.746,22.75,21.732,22.75h1.12c1.627,0,2.948-1.321,2.948-2.951c0-1.625-1.321-2.95-2.948-2.95h-1.12
			c-8.729,0-15.835-7.559-15.835-16.849c0-6.928,4.086-13.254,10.169-15.739c1.204-0.488,1.835-1.84,1.835-2.919
			c0-8.565,6.97-15.537,15.54-15.537c3.593,0,7.104,1.253,9.875,3.537c0.679,0.547,1.644,0.762,2.399,0.614
			c0.862-0.157,1.602-0.681,2.031-1.442c3.876-6.779,11.118-10.992,18.914-10.992c12.004,0,21.773,9.77,21.773,21.774
			c0,0.591-0.029,1.164-0.074,1.724c-0.111,1.33,0.681,2.57,1.935,3.022c6.419,2.324,10.737,8.736,10.737,15.958
			c0,9.29-7.104,16.849-15.828,16.849h-1.124c-1.628,0-2.951,1.325-2.951,2.95c0,1.63,1.323,2.951,2.951,2.951h1.124
			c11.979,0,21.728-10.204,21.728-22.75C118.466,69.126,113.547,61.116,105.875,57.399z"/>
	</g>
	<g>
		<path fill="#4D4D4D" d="M65.796,92.073c1.601-0.009,3.11-0.631,4.242-1.769c1.138-1.128,1.765-2.642,1.765-4.235
			c0-2.037-2.884-6.703-4.791-9.788c-0.44-0.717-0.844-1.393-1.223-2.016c-0.378,0.623-0.785,1.299-1.229,2.016
			c-1.904,3.095-4.774,7.76-4.774,9.788C59.785,89.373,62.484,92.073,65.796,92.073z M52.635,90.358
			c-0.444-0.716-0.854-1.388-1.229-2.011c-0.379,0.623-0.788,1.304-1.225,2.021c-1.907,3.089-4.775,7.755-4.775,9.778
			c0,3.313,2.693,6.009,6.006,6.009c1.608,0,3.117-0.626,4.247-1.765c1.134-1.132,1.758-2.642,1.758-4.244
			C57.416,98.123,54.539,93.457,52.635,90.358z M81.691,90.78c-0.416-0.682-0.801-1.309-1.16-1.895
			c-0.351,0.596-0.734,1.218-1.15,1.895c-1.789,2.909-4.481,7.28-4.481,9.191c0,3.116,2.529,5.643,5.64,5.643
			c1.511,0,2.928-0.592,3.989-1.652c1.067-1.062,1.652-2.485,1.652-3.994C86.181,98.061,83.48,93.686,81.691,90.78z M65.789,102.152
			c-0.748,1.299-1.646,2.772-2.687,4.473c-2.836,4.604-6.369,10.344-6.369,13.321c0,5.006,4.065,9.054,9.062,9.054
			c2.421,0,4.69-0.94,6.403-2.655c1.71-1.71,2.646-3.98,2.646-6.398c0-2.982-3.53-8.727-6.367-13.325
			C67.429,104.915,66.526,103.451,65.789,102.152z"/>
	</g>
	<g>
		<path fill="#4D4D4D" d="M43.854,16.179c0.284,0.555,0.845,0.877,1.432,0.877c0.241,0,0.491-0.058,0.725-0.179
			c0.792-0.403,1.105-1.375,0.701-2.163l-4.957-9.663c-0.4-0.788-1.368-1.11-2.158-0.698c-0.793,0.403-1.104,1.375-0.699,2.163
			L43.854,16.179z M53.913,15.073h0.042c0.869,0,1.585-0.694,1.605-1.567l0.264-10.862C55.845,1.761,55.142,1.022,54.256,1h-0.039
			c-0.871,0-1.582,0.694-1.605,1.567l-0.264,10.858C52.328,14.312,53.023,15.051,53.913,15.073z M35.517,29.464L24.658,29.2h-0.04
			c-0.871,0-1.585,0.694-1.607,1.567c-0.02,0.887,0.681,1.621,1.569,1.648l10.857,0.265h0.044c0.867,0,1.582-0.694,1.604-1.567
			C37.106,30.221,36.405,29.486,35.517,29.464z M62.489,17.733c0.273,0.174,0.578,0.255,0.876,0.255c0.525,0,1.041-0.255,1.352-0.73
			l5.926-9.098c0.486-0.743,0.276-1.737-0.47-2.225c-0.743-0.484-1.739-0.273-2.223,0.47l-5.929,9.103
			C61.538,16.25,61.746,17.245,62.489,17.733z M39.745,22.528c0.481-0.743,0.273-1.737-0.472-2.221l-9.101-5.933
			c-0.746-0.483-1.737-0.269-2.226,0.47c-0.481,0.743-0.271,1.742,0.472,2.225l9.104,5.929c0.271,0.174,0.576,0.259,0.873,0.259
			C38.921,23.258,39.437,23.002,39.745,22.528z M80.669,17.576c-0.406-0.788-1.368-1.102-2.163-0.694l-9.665,4.961
			c-0.79,0.403-1.102,1.37-0.693,2.163c0.284,0.55,0.844,0.873,1.428,0.873c0.249,0,0.495-0.058,0.732-0.179l9.667-4.961
			C80.76,19.335,81.075,18.368,80.669,17.576z M53.859,17.464c-3.796-0.067-7.312,1.285-10.027,3.873
			c-2.719,2.584-4.263,6.076-4.353,9.824c-0.043,1.778,1.36,3.247,3.136,3.291h0.078c1.738,0,3.167-1.388,3.209-3.134
			c0.052-2.038,0.889-3.927,2.359-5.333c1.476-1.402,3.405-2.181,5.443-2.096c2.862,0.067,5.41,1.729,6.637,4.33
			c0.758,1.607,2.676,2.292,4.274,1.536c1.605-0.756,2.293-2.669,1.534-4.276C63.88,20.666,59.172,17.594,53.859,17.464z"/>
	</g>
</g>
</svg>
