<?xml version="1.0" encoding="utf-8"?>
<!-- Generator: Adobe Illustrator 16.0.0, SVG Export Plug-In . SVG Version: 6.00 Build 0)  -->
<!DOCTYPE svg PUBLIC "-//W3C//DTD SVG 1.1//EN" "http://www.w3.org/Graphics/SVG/1.1/DTD/svg11.dtd">
<svg version="1.1" id="Layer_1" xmlns="http://www.w3.org/2000/svg" xmlns:xlink="http://www.w3.org/1999/xlink" x="0px" y="0px"
	 width="130px" height="130px" viewBox="0 0 130 130" enable-background="new 0 0 130 130" xml:space="preserve">
<rect fill="none" width="130" height="130"/>
<g>
	<path fill="#4D4D4D" d="M87.194,46.446v-0.018c-0.838-0.517-1.695-1.002-2.571-1.461c-0.365-0.192-0.744-0.361-1.115-0.541
		c-0.684-0.335-1.377-0.656-2.082-0.955c-0.421-0.178-0.844-0.349-1.273-0.515c-0.785-0.303-1.585-0.577-2.392-0.834
		c-0.312-0.098-0.617-0.212-0.932-0.305c-1.104-0.32-2.228-0.593-3.366-0.826c-0.341-0.07-0.688-0.122-1.032-0.185
		c-0.884-0.158-1.777-0.289-2.682-0.393c-0.365-0.04-0.729-0.084-1.097-0.116c-1.192-0.104-2.394-0.172-3.612-0.177
		c-0.028,0-0.056-0.004-0.084-0.004v0.002c-0.012,0-0.022-0.002-0.032-0.002v-0.112H64.92c-1.273,0-2.528,0.076-3.772,0.187
		c-0.319,0.028-0.636,0.066-0.952,0.102c-0.958,0.106-1.906,0.245-2.845,0.415c-0.299,0.054-0.6,0.1-0.896,0.161
		c-1.158,0.236-2.301,0.513-3.421,0.842c-0.271,0.078-0.534,0.176-0.801,0.261c-0.852,0.269-1.693,0.559-2.52,0.878
		c-0.404,0.156-0.802,0.318-1.198,0.485c-0.734,0.309-1.451,0.642-2.161,0.99c-0.349,0.17-0.701,0.329-1.045,0.507
		c-0.878,0.461-1.739,0.948-2.579,1.467v0.018c-11.22,6.93-18.951,18.929-19.89,32.765c2.266-2.71,5.677-4.422,9.498-4.422
		c4.572,0,8.567,2.508,10.704,6.212c0.052,0.082,0.108,0.16,0.156,0.247c2.104-3.845,6.187-6.459,10.873-6.459
		c2.979,0,6.442,1.215,9.061,3.58v42.77c0,2.445-1.724,4.446-4.17,4.446c-0.978,0-1.771,0.794-1.771,1.771
		c0,0.979,0.794,1.772,1.771,1.772c4.402,0,7.75-3.235,7.75-7.63V78.242c2.529-1.902,6.162-3.374,9.101-3.374
		c4.703,0,8.805,2.622,10.913,6.479c0.058-0.106,0.128-0.205,0.194-0.307c2.155-3.681,6.143-6.173,10.711-6.173
		c3.832,0,7.256,1.716,9.529,4.438C106.218,65.431,98.456,53.397,87.194,46.446z"/>
	<path fill="#4D4D4D" d="M66.9,14.206c1.19,0,2.31-0.461,3.159-1.303c0.834-0.846,1.299-1.96,1.299-3.155
		c0-1.5-2.133-4.963-3.548-7.252C67.481,1.954,67.173,1.461,66.893,1c-0.277,0.465-0.582,0.962-0.91,1.496
		c-1.411,2.293-3.544,5.753-3.544,7.256C62.442,12.209,64.442,14.206,66.9,14.206z"/>
	<path fill="#4D4D4D" d="M75.757,34.785c1.19-0.004,2.313-0.465,3.146-1.307c0.847-0.842,1.312-1.96,1.312-3.155
		c0-1.5-2.137-4.963-3.553-7.252c-0.328-0.537-0.629-1.034-0.909-1.496c-0.281,0.461-0.586,0.962-0.914,1.496
		c-1.407,2.293-3.545,5.757-3.545,7.261C71.294,32.785,73.299,34.785,75.757,34.785z"/>
	<path fill="#4D4D4D" d="M58.602,34.785c1.19-0.004,2.313-0.465,3.151-1.307c0.842-0.842,1.307-1.96,1.307-3.155
		c0-1.5-2.141-4.963-3.548-7.252c-0.333-0.537-0.634-1.034-0.91-1.496c-0.285,0.461-0.59,0.962-0.914,1.496
		c-1.419,2.293-3.548,5.757-3.548,7.261C54.14,32.785,56.144,34.785,58.602,34.785z"/>
	<path fill="#4D4D4D" d="M89.708,41.749c2.458,0,4.459-2,4.463-4.454c0-1.503-2.133-4.963-3.544-7.257
		c-0.325-0.537-0.63-1.034-0.91-1.499c-0.285,0.465-0.586,0.962-0.914,1.495c-1.416,2.289-3.557,5.753-3.557,7.261
		c0,1.19,0.465,2.305,1.312,3.147C87.399,41.284,88.521,41.749,89.708,41.749z"/>
	<path fill="#4D4D4D" d="M105.793,46.075c-0.324-0.529-0.634-1.03-0.906-1.491c-0.28,0.461-0.585,0.962-0.914,1.491
		c-1.415,2.29-3.548,5.753-3.548,7.257c0,1.194,0.457,2.309,1.303,3.151c0.842,0.842,1.961,1.303,3.151,1.307
		c2.462,0,4.458-2,4.458-4.454C109.337,51.836,107.208,48.372,105.793,46.075z"/>
	<path fill="#4D4D4D" d="M41.126,41.749c1.187,0,2.309-0.465,3.15-1.307c0.838-0.842,1.304-1.957,1.312-3.147
		c-0.008-1.507-2.141-4.972-3.557-7.261c-0.328-0.533-0.633-1.03-0.905-1.495c-0.289,0.465-0.59,0.962-0.923,1.499
		c-1.411,2.293-3.54,5.753-3.54,7.257C36.667,39.749,38.664,41.749,41.126,41.749z"/>
	<path fill="#4D4D4D" d="M28.28,56.482c0.842-0.842,1.299-1.957,1.299-3.151c0-1.503-2.133-4.967-3.548-7.257
		c-0.329-0.529-0.63-1.03-0.91-1.491c-0.276,0.461-0.585,0.962-0.91,1.491c-1.411,2.297-3.548,5.761-3.548,7.261
		c0.004,2.454,2.004,4.454,4.466,4.454C26.319,57.786,27.438,57.325,28.28,56.482z"/>
</g>
</svg>
