<?xml version="1.0" encoding="utf-8"?>
<!-- Generator: Adobe Illustrator 16.0.0, SVG Export Plug-In . SVG Version: 6.00 Build 0)  -->
<!DOCTYPE svg PUBLIC "-//W3C//DTD SVG 1.1//EN" "http://www.w3.org/Graphics/SVG/1.1/DTD/svg11.dtd">
<svg version="1.1" id="Layer_1" xmlns="http://www.w3.org/2000/svg" xmlns:xlink="http://www.w3.org/1999/xlink" x="0px" y="0px"
	 width="130px" height="130px" viewBox="0 0 130 130" enable-background="new 0 0 130 130" xml:space="preserve">
<rect fill="none" width="130" height="130"/>
<g>
	<g>
		<path fill="#4D4D4D" d="M59.539,89.302h3.999c0.169-0.548,0.419-1.068,0.833-1.487c0.629-0.637,1.452-1.011,2.339-1.061
			c0.368-1.587,1.796-2.771,3.493-2.771s3.121,1.185,3.487,2.771c0.887,0.05,1.735,0.434,2.331,1.048
			c0.435,0.432,0.723,0.952,0.887,1.5h3.877c-0.444-0.72-0.616-1.594-0.439-2.422c0.081-0.382,0.228-0.74,0.425-1.061
			c-0.188-0.559-0.22-1.149-0.091-1.685c0.166-0.852,0.656-1.571,1.323-2.046c0.005-0.018,0.008-0.036,0.01-0.056
			c0.008-0.025,0.013-0.048,0.018-0.073c-0.008-0.025-0.018-0.051-0.025-0.073c-0.007-0.023-0.015-0.048-0.022-0.071
			c-0.697-0.389-1.253-1.027-1.533-1.828c-0.194-0.568-0.229-1.164-0.108-1.737c-0.242-0.309-0.435-0.662-0.553-1.041
			c-0.025-0.081-0.049-0.159-0.068-0.24c-0.523,0.396-1.162,0.64-1.829,0.675c-0.33,0.308-0.729,0.553-1.187,0.71l-0.104,0.035
			l-0.108,0.025c-0.283,0.073-0.571,0.108-0.849,0.108c-0.379,0-0.745-0.063-1.089-0.185c-0.099,0.707-0.422,1.371-0.904,1.854
			c-0.352,0.361-0.768,0.635-1.228,0.804c-0.568,0.99-1.639,1.659-2.861,1.659s-2.294-0.669-2.861-1.659
			c-0.45-0.164-0.864-0.43-1.221-0.786c-0.317-0.323-0.561-0.696-0.72-1.105c-0.22,0.045-0.444,0.07-0.674,0.07
			c-0.237,0-0.473-0.025-0.649-0.065c-0.482-0.096-0.917-0.296-1.29-0.568c-0.076,0.005-0.149,0.008-0.223,0.008
			c-0.616,0-1.21-0.172-1.718-0.482c-0.01,0.151-0.032,0.301-0.068,0.444c-0.164,0.856-0.656,1.584-1.328,2.061
			c-0.003,0.013-0.005,0.025-0.008,0.036c-0.005,0.03-0.013,0.061-0.02,0.091c0.013,0.035,0.024,0.067,0.037,0.104
			c0.003,0.013,0.008,0.025,0.011,0.035c0.709,0.392,1.268,1.035,1.538,1.839c0.189,0.558,0.222,1.159,0.104,1.732
			c0.78,0.987,0.962,2.371,0.361,3.525C60.537,88.521,60.08,88.986,59.539,89.302z"/>
		<path fill="#4D4D4D" d="M112.932,40.491c0.071-0.823,0.116-1.651,0.116-2.495c0-17.301-14.027-31.328-31.333-31.328
			c-11.648,0-21.802,6.375-27.201,15.815c-4.052-3.324-9.229-5.329-14.881-5.329c-12.932,0-23.429,10.491-23.429,23.428
			c0,0.076,0.016,0.162,0.016,0.237C7.324,44.457,1,53.554,1,64.217c0,13.856,10.663,25.085,23.802,25.085H35.53
			c-0.449-0.723-0.616-1.571-0.439-2.407c0.081-0.392,0.228-0.755,0.43-1.081c-0.185-0.556-0.217-1.144-0.099-1.646
			c0.159-0.866,0.649-1.602,1.326-2.081c0.005-0.018,0.008-0.035,0.01-0.053c0.008-0.028,0.016-0.056,0.021-0.084
			c-0.008-0.02-0.015-0.043-0.022-0.062c-0.008-0.023-0.013-0.043-0.021-0.063c-0.71-0.392-1.268-1.038-1.535-1.836
			c-0.194-0.565-0.23-1.159-0.109-1.73c-0.239-0.3-0.424-0.646-0.548-1.021c-0.275-0.843-0.204-1.742,0.185-2.495
			c0.556-1.131,1.688-1.833,2.95-1.833c0.043,0,0.086,0,0.131,0.002c0.39-0.432,0.896-0.758,1.488-0.944
			c0.315-0.096,0.644-0.144,0.972-0.144c0.498,0,0.976,0.11,1.402,0.311c0.04-0.016,0.08-0.028,0.121-0.041
			c0.088-0.025,0.179-0.048,0.268-0.062c0.078-0.099,0.159-0.195,0.25-0.286c0.01-0.013,0.025-0.025,0.035-0.037
			c0.028-0.831,0.371-1.632,0.899-2.157c0.419-0.449,0.955-0.771,1.541-0.927c0.52-1.137,1.666-1.925,2.995-1.925
			c1.328,0,2.478,0.79,3,1.925c0.566,0.151,1.084,0.452,1.476,0.858c0.495,0.495,0.818,1.139,0.924,1.826
			c0.425-0.194,0.892-0.303,1.382-0.303c0.189,0,0.384,0.018,0.634,0.061c0.576,0.11,1.114,0.381,1.551,0.765
			c0.164-0.022,0.328-0.035,0.495-0.035c0.621,0,1.218,0.172,1.73,0.487c0.128-0.583,0.409-1.101,0.798-1.521
			c-0.432-0.374-0.775-0.866-0.975-1.437c-0.165-0.48-0.21-0.976-0.152-1.45c-0.621-0.954-0.732-2.215-0.174-3.334
			c0.551-1.053,1.611-1.725,2.791-1.772c0.349-0.318,0.775-0.573,1.265-0.742c0.309-0.091,0.629-0.137,0.95-0.137
			c0.381,0,0.75,0.063,1.094,0.182c0.093-0.689,0.401-1.354,0.927-1.889c0.349-0.349,0.76-0.609,1.207-0.773
			c0.571-0.984,1.64-1.651,2.859-1.651s2.288,0.667,2.858,1.654c0.447,0.161,0.852,0.419,1.183,0.753
			c0.328,0.323,0.583,0.712,0.753,1.136c0.214-0.045,0.439-0.067,0.666-0.067c0.215,0,0.435,0.02,0.652,0.062
			c0.475,0.094,0.922,0.293,1.308,0.576c0.073-0.005,0.146-0.008,0.22-0.008c1.114,0,2.145,0.553,2.756,1.478
			c0.49,0.737,0.659,1.624,0.478,2.492c-0.059,0.288-0.154,0.563-0.286,0.821c0.111,0.462,0.116,0.947,0.016,1.425
			c-0.124,0.599-0.409,1.131-0.803,1.558c0.444,0.382,0.785,0.879,0.97,1.455c0.159,0.473,0.209,0.962,0.151,1.442
			c0.156,0.24,0.283,0.5,0.374,0.777c0.03,0.091,0.056,0.183,0.078,0.273c0.563-0.43,1.263-0.677,1.995-0.677
			c0.04,0,0.081,0,0.118,0.002c0.392-0.437,0.895-0.76,1.471-0.939c0.318-0.099,0.651-0.148,0.984-0.148
			c0.506,0,0.985,0.11,1.415,0.311c0.032-0.013,0.065-0.023,0.101-0.033c0.094-0.027,0.189-0.051,0.285-0.07
			c0.081-0.104,0.167-0.205,0.261-0.301c0.01-0.011,0.02-0.021,0.03-0.033c0.03-0.826,0.376-1.626,0.932-2.182
			c0.414-0.43,0.938-0.735,1.505-0.892c0.523-1.135,1.675-1.925,3.004-1.925c1.328,0,2.478,0.788,3,1.922
			c0.576,0.154,1.094,0.455,1.455,0.844c0.502,0.495,0.833,1.142,0.941,1.831c0.42-0.187,0.882-0.29,1.372-0.29
			c0.189,0,0.384,0.018,0.631,0.061c0.586,0.113,1.122,0.379,1.556,0.768c0.165-0.025,0.331-0.038,0.498-0.038
			c1.081,0,2.099,0.528,2.786,1.511c0.702,1.104,0.664,2.485,0.013,3.535c0.179,0.543,0.225,1.14,0.096,1.743
			c-0.188,0.839-0.675,1.541-1.331,2.003c-0.003,0.018-0.008,0.038-0.013,0.058c-0.003,0.016-0.008,0.033-0.01,0.048
			c0.018,0.046,0.032,0.092,0.048,0.14c0.002,0,0.002,0.002,0.002,0.005c0.71,0.389,1.269,1.035,1.538,1.839
			c0.189,0.558,0.223,1.159,0.104,1.729c0.253,0.321,0.447,0.688,0.568,1.079c0.263,0.846,0.177,1.737-0.207,2.449
			c-0.295,0.589-0.752,1.054-1.293,1.369h0.425c13.143,0,23.786-11.229,23.786-25.085C129,53.216,122.282,43.871,112.932,40.491z"/>
	</g>
	<g>
		<path fill="#4D4D4D" d="M69.562,60.343c0.389,0,0.712,0.313,0.712,0.712v1.45l0.505-0.5c0.145-0.137,0.329-0.205,0.511-0.205
			s0.361,0.068,0.5,0.21c0.283,0.278,0.283,0.732-0.005,1.011l-1.511,1.505v0.591l1.313-1.298c0.142-0.137,0.326-0.205,0.51-0.205
			c0.183,0,0.364,0.068,0.501,0.21c0.11,0.116,0.156,0.272,0.171,0.424c0.109-0.053,0.223-0.096,0.349-0.096
			c0.03,0,0.063,0.005,0.097,0.01c0.394,0.076,0.646,0.455,0.565,0.844l-0.364,1.799l0.501-0.329l0.419-2.081
			c0.065-0.343,0.349-0.575,0.687-0.575c0.051,0,0.102,0.005,0.152,0.015c0.384,0.076,0.641,0.455,0.555,0.839l-0.141,0.691
			l1.222-0.798c0.119-0.078,0.256-0.116,0.392-0.116c0.232,0,0.463,0.111,0.599,0.318c0.218,0.328,0.127,0.778-0.207,0.995
			l-1.212,0.798l0.702,0.151c0.384,0.076,0.631,0.455,0.551,0.839c-0.071,0.339-0.369,0.571-0.697,0.571
			c-0.051,0-0.102,0-0.151-0.016l-2.076-0.439l-0.5,0.328l1.788,0.374c0.394,0.086,0.636,0.465,0.556,0.849
			c-0.071,0.333-0.369,0.571-0.702,0.571c-0.046,0-0.097-0.006-0.146-0.016l-3.188-0.662l-1.536,1.011l1.647,0.833l3.086-1.03
			c0.073-0.022,0.149-0.035,0.223-0.035c0.3,0,0.586,0.189,0.682,0.49c0.131,0.374-0.081,0.782-0.45,0.904l-1.747,0.58l0.53,0.269
			l2.03-0.672c0.071-0.023,0.145-0.036,0.215-0.036c0.296,0,0.589,0.189,0.685,0.495c0.126,0.374-0.081,0.778-0.46,0.899
			l-0.672,0.232l1.294,0.656c0.354,0.177,0.494,0.611,0.317,0.96c-0.126,0.248-0.384,0.395-0.636,0.395
			c-0.111,0-0.223-0.03-0.323-0.081l-1.299-0.657l0.223,0.678c0.116,0.379-0.091,0.777-0.46,0.904
			c-0.081,0.02-0.156,0.03-0.222,0.03c-0.309,0-0.586-0.197-0.688-0.495l-0.651-2.036l-0.525-0.268l0.561,1.748
			c0.121,0.379-0.091,0.782-0.465,0.904c-0.07,0.02-0.142,0.035-0.222,0.035c-0.299,0-0.576-0.197-0.678-0.495l-1-3.102
			l-1.702-0.869v1.925l2.313,2.283c0.283,0.272,0.283,0.723,0.011,1.01c-0.14,0.14-0.324,0.213-0.511,0.213
			c-0.182,0-0.361-0.068-0.5-0.207l-1.313-1.288v0.596l1.511,1.5c0.282,0.268,0.288,0.723,0.005,1.006
			c-0.137,0.141-0.318,0.212-0.505,0.212c-0.183,0-0.364-0.071-0.506-0.207l-0.505-0.5v1.454c0,0.39-0.323,0.713-0.712,0.713
			c-0.399,0-0.713-0.323-0.713-0.713v-1.454l-0.515,0.5c-0.139,0.139-0.318,0.207-0.5,0.207c-0.185,0-0.369-0.071-0.511-0.212
			c-0.277-0.283-0.272-0.738,0.006-1.006l1.52-1.5v-0.596l-1.303,1.288c-0.142,0.136-0.323,0.207-0.51,0.207
			c-0.183,0-0.364-0.071-0.506-0.213c-0.116-0.121-0.156-0.272-0.172-0.429c-0.096,0.045-0.191,0.111-0.308,0.111
			c-0.046,0-0.091-0.006-0.137-0.021c-0.394-0.071-0.637-0.449-0.565-0.834l0.363-1.803l-0.5,0.328l-0.424,2.086
			c-0.071,0.339-0.364,0.571-0.702,0.571c-0.051,0-0.096-0.005-0.142-0.016c-0.379-0.075-0.637-0.454-0.561-0.844l0.142-0.687
			l-1.208,0.798c-0.121,0.081-0.252,0.121-0.394,0.121c-0.232,0-0.455-0.116-0.591-0.323c-0.223-0.333-0.132-0.772,0.202-0.989
			l1.212-0.809l-0.702-0.146c-0.384-0.086-0.631-0.465-0.551-0.849c0.071-0.336,0.384-0.563,0.71-0.563
			c0.048,0,0.094,0.003,0.139,0.013l2.081,0.444l0.506-0.328l-1.804-0.384c-0.384-0.086-0.637-0.46-0.556-0.844
			c0.07-0.341,0.371-0.565,0.718-0.565c0.042,0,0.085,0.002,0.131,0.01l3.183,0.672l1.54-1.016l-1.646-0.838l-3.086,1.025
			c-0.076,0.025-0.151,0.035-0.228,0.035c-0.298,0-0.581-0.187-0.677-0.484c-0.121-0.379,0.081-0.778,0.449-0.91l1.748-0.575
			l-0.535-0.268l-2.021,0.666c-0.076,0.036-0.152,0.046-0.228,0.046c-0.298,0-0.571-0.192-0.677-0.495
			c-0.127-0.369,0.075-0.772,0.449-0.904l0.682-0.222l-1.298-0.662c-0.354-0.177-0.49-0.606-0.313-0.96
			c0.127-0.245,0.379-0.387,0.64-0.387c0.108,0,0.22,0.025,0.32,0.079l1.304,0.656l-0.223-0.682
			c-0.116-0.374,0.091-0.773,0.46-0.899c0.07-0.021,0.142-0.03,0.212-0.03c0.306,0,0.591,0.187,0.687,0.495L64.813,67l0.535,0.263
			l-0.561-1.747c-0.121-0.379,0.091-0.783,0.47-0.899c0.07-0.022,0.144-0.033,0.215-0.033c0.3,0,0.58,0.192,0.679,0.498l0.99,3.091
			l1.707,0.869v-1.92l-2.308-2.288c-0.283-0.277-0.283-0.728-0.011-1.01c0.142-0.142,0.326-0.21,0.511-0.21
			c0.182,0,0.366,0.068,0.505,0.205l1.303,1.293v-0.586l-1.52-1.505c-0.278-0.278-0.278-0.732-0.006-1.011
			c0.142-0.142,0.323-0.21,0.508-0.21c0.182,0,0.364,0.068,0.503,0.205l0.515,0.5v-1.45C68.849,60.656,69.162,60.343,69.562,60.343
			 M70.273,68.879l1.46-0.97l0.561-2.783l-2.021,1.995V68.879 M66.834,75.27l2.015-1.985v-1.748l-1.465,0.96L66.834,75.27
			 M93.035,69.283c0.394,0,0.717,0.323,0.717,0.718v2.212l0.914-0.909c0.142-0.142,0.326-0.212,0.508-0.212
			c0.185,0,0.369,0.073,0.503,0.217c0.282,0.278,0.282,0.732-0.005,1.006l-1.92,1.904v1.223l1.899-1.89
			c0.142-0.139,0.323-0.207,0.505-0.207s0.366,0.07,0.505,0.212c0.183,0.188,0.243,0.45,0.18,0.689
			c-0.065,0.078-0.116,0.172-0.146,0.278c-0.013,0.015-0.025,0.03-0.038,0.043l-2.904,2.884v2.546l2.122-1.399l0.808-4.016
			c0.005-0.02,0.008-0.037,0.013-0.058c0.071-0.081,0.121-0.177,0.146-0.278c0.129-0.151,0.315-0.245,0.53-0.245
			c0.048,0,0.099,0.006,0.149,0.016c0.389,0.076,0.642,0.454,0.565,0.839l-0.53,2.631l1.021-0.666l0.521-2.652
			c0.07-0.344,0.36-0.578,0.707-0.578c0.045,0,0.091,0.005,0.136,0.013c0.39,0.075,0.637,0.454,0.562,0.838l-0.253,1.273
			l1.849-1.218c0.119-0.078,0.255-0.116,0.392-0.116c0.229,0,0.46,0.109,0.604,0.313c0.212,0.333,0.121,0.778-0.207,0.995
			l-1.844,1.218l1.263,0.263c0.384,0.086,0.637,0.464,0.556,0.849c-0.075,0.338-0.368,0.575-0.702,0.575
			c-0.045,0-0.096-0.01-0.146-0.02l-2.651-0.562l-1.016,0.672l2.616,0.546c0.39,0.086,0.642,0.465,0.556,0.849
			c-0.075,0.339-0.363,0.576-0.697,0.576c-0.045,0-0.096-0.011-0.146-0.021l-4.011-0.849l-2.212,1.465l2.369,1.202l3.89-1.293
			c0.075-0.025,0.151-0.035,0.225-0.035c0.301,0,0.578,0.185,0.68,0.484c0.121,0.384-0.076,0.783-0.455,0.909l-2.546,0.844
			l1.081,0.546l2.571-0.859c0.075-0.022,0.148-0.035,0.222-0.035c0.304,0,0.581,0.189,0.683,0.49
			c0.126,0.374-0.076,0.783-0.45,0.904l-1.232,0.414l1.976,0.995c0.349,0.182,0.495,0.611,0.308,0.96
			c-0.126,0.252-0.374,0.394-0.631,0.394c-0.116,0-0.223-0.03-0.329-0.075l-1.975-1.001l0.404,1.228
			c0.116,0.379-0.086,0.783-0.465,0.904c-0.076,0.021-0.146,0.036-0.223,0.036c-0.298,0-0.581-0.197-0.677-0.501l-0.833-2.581
			l-1.081-0.545l0.823,2.551c0.116,0.379-0.091,0.777-0.47,0.904c-0.071,0.02-0.142,0.03-0.218,0.03c-0.298,0-0.586-0.192-0.682-0.5
			l-1.242-3.895l-2.42-1.228v2.717l2.904,2.875c0.278,0.277,0.278,0.727,0.005,1.01c-0.136,0.142-0.317,0.218-0.51,0.218
			c-0.177,0-0.358-0.076-0.5-0.213l-1.899-1.879v1.218l1.92,1.899c0.287,0.272,0.287,0.722,0.005,1.01
			c-0.137,0.137-0.323,0.212-0.505,0.212c-0.183,0-0.369-0.07-0.506-0.207l-0.914-0.909v2.213c0,0.389-0.323,0.712-0.717,0.712
			c-0.399,0-0.718-0.323-0.718-0.712v-2.213l-0.919,0.909c-0.142,0.14-0.323,0.207-0.506,0.207c-0.182,0-0.366-0.07-0.505-0.212
			c-0.277-0.288-0.272-0.737,0.005-1.01l1.925-1.899v-1.218l-1.914,1.879c-0.137,0.14-0.316,0.207-0.5,0.207
			c-0.183,0-0.369-0.07-0.511-0.212c-0.185-0.187-0.242-0.447-0.179-0.682c0.073-0.081,0.126-0.18,0.153-0.291
			c0.011-0.012,0.023-0.024,0.036-0.037l2.914-2.875v-2.556l-2.132,1.404l-0.808,4.016c-0.003,0.016-0.005,0.033-0.011,0.048
			c-0.075,0.086-0.126,0.185-0.153,0.291c-0.135,0.148-0.331,0.237-0.544,0.237c-0.04,0-0.085-0.005-0.136-0.016
			c-0.384-0.075-0.637-0.454-0.556-0.838l0.525-2.632l-1.016,0.667l-0.535,2.656c-0.065,0.344-0.364,0.576-0.697,0.576
			c-0.046,0-0.091-0.005-0.142-0.021c-0.384-0.075-0.637-0.449-0.561-0.833l0.253-1.263l-1.839,1.212
			c-0.121,0.076-0.258,0.116-0.395,0.116c-0.232,0-0.459-0.111-0.596-0.323c-0.217-0.328-0.126-0.772,0.207-0.984l1.839-1.223
			l-1.263-0.268c-0.39-0.081-0.637-0.46-0.546-0.849c0.065-0.331,0.349-0.563,0.677-0.563c0.054,0,0.106,0.005,0.162,0.018
			l2.642,0.561l1.025-0.677l-2.627-0.546c-0.384-0.091-0.631-0.464-0.55-0.854c0.07-0.336,0.373-0.561,0.722-0.561
			c0.043,0,0.086,0.003,0.132,0.01l4.006,0.844l2.212-1.46l-2.374-1.197l-3.885,1.299c-0.075,0.025-0.151,0.035-0.222,0.035
			c-0.304,0-0.581-0.192-0.683-0.495c-0.126-0.368,0.081-0.777,0.455-0.904l2.546-0.844l-1.086-0.55l-2.566,0.854
			c-0.075,0.03-0.151,0.04-0.228,0.04c-0.298,0-0.57-0.191-0.677-0.495c-0.126-0.368,0.076-0.772,0.45-0.898l1.228-0.409
			l-1.966-0.995c-0.348-0.177-0.494-0.606-0.308-0.96c0.121-0.253,0.369-0.392,0.629-0.392c0.108,0,0.223,0.025,0.326,0.078
			l1.959,0.995l-0.389-1.232c-0.121-0.379,0.086-0.778,0.46-0.895c0.07-0.022,0.146-0.032,0.217-0.032
			c0.304,0,0.589,0.187,0.683,0.492l0.828,2.576l1.086,0.551l-0.818-2.551c-0.116-0.369,0.086-0.783,0.465-0.895
			c0.07-0.02,0.144-0.03,0.217-0.03c0.304,0,0.584,0.185,0.677,0.49l1.253,3.89l2.425,1.232v-2.713l-2.914-2.884
			c-0.278-0.278-0.278-0.732-0.011-1.011c0.142-0.142,0.328-0.212,0.511-0.212c0.184,0,0.363,0.068,0.5,0.207l1.914,1.89v-1.223
			l-1.925-1.904c-0.282-0.273-0.282-0.728-0.005-1.006c0.139-0.144,0.323-0.217,0.505-0.217c0.183,0,0.364,0.07,0.506,0.212
			l0.919,0.909v-2.212C92.317,69.606,92.636,69.283,93.035,69.283 M47.78,69.283c0.398,0,0.717,0.323,0.717,0.718v2.212l0.92-0.909
			c0.142-0.142,0.323-0.212,0.505-0.212s0.366,0.073,0.505,0.217c0.278,0.278,0.278,0.732-0.005,1.006l-1.925,1.904v1.223
			l1.915-1.89c0.136-0.139,0.318-0.207,0.5-0.207c0.185,0,0.371,0.07,0.51,0.212c0.18,0.188,0.237,0.452,0.175,0.692
			c-0.063,0.075-0.111,0.167-0.14,0.268c-0.015,0.018-0.03,0.035-0.045,0.051l-2.915,2.884v2.546l2.132-1.404l0.813-4.011
			c0.005-0.022,0.01-0.043,0.015-0.065c0.066-0.078,0.114-0.172,0.14-0.268c0.129-0.154,0.315-0.248,0.532-0.248
			c0.051,0,0.102,0.006,0.152,0.016c0.384,0.076,0.636,0.454,0.556,0.839l-0.525,2.631l1.02-0.666l0.531-2.652
			c0.062-0.344,0.351-0.578,0.699-0.578c0.046,0,0.094,0.005,0.139,0.013c0.39,0.075,0.642,0.454,0.561,0.838l-0.247,1.269
			l1.834-1.213c0.118-0.078,0.257-0.116,0.391-0.116c0.232,0,0.463,0.109,0.599,0.313c0.223,0.333,0.127,0.778-0.202,0.995
			l-1.849,1.218l1.269,0.268c0.384,0.081,0.636,0.459,0.545,0.844c-0.065,0.338-0.358,0.575-0.691,0.575
			c-0.051,0-0.102-0.01-0.146-0.02l-2.647-0.562l-1.021,0.672l2.627,0.546c0.384,0.086,0.632,0.465,0.551,0.849
			c-0.071,0.339-0.369,0.576-0.697,0.576c-0.051,0-0.101-0.011-0.156-0.021l-3.996-0.849l-2.223,1.465l2.364,1.197l3.895-1.288
			c0.076-0.025,0.151-0.035,0.225-0.035c0.301,0,0.579,0.185,0.68,0.484c0.126,0.384-0.081,0.783-0.455,0.909l-2.546,0.844
			l1.087,0.546l2.565-0.859c0.073-0.022,0.149-0.035,0.223-0.035c0.301,0,0.581,0.189,0.682,0.49
			c0.126,0.374-0.075,0.783-0.449,0.904l-1.232,0.414l1.97,0.995c0.349,0.182,0.495,0.611,0.313,0.96
			c-0.127,0.252-0.374,0.394-0.632,0.394c-0.111,0-0.222-0.03-0.328-0.075l-1.965-1.001l0.394,1.228
			c0.121,0.379-0.086,0.783-0.459,0.904c-0.076,0.021-0.146,0.036-0.223,0.036c-0.293,0-0.581-0.197-0.677-0.501l-0.834-2.581
			l-1.081-0.545l0.813,2.551c0.121,0.379-0.081,0.777-0.46,0.904c-0.065,0.02-0.146,0.03-0.212,0.03c-0.308,0-0.591-0.192-0.687-0.5
			l-1.248-3.895l-2.425-1.233v2.723l2.915,2.875c0.277,0.277,0.283,0.727,0.01,1.01c-0.139,0.142-0.325,0.212-0.51,0.212
			c-0.182,0-0.364-0.067-0.5-0.207l-1.915-1.879v1.218l1.925,1.899c0.278,0.272,0.283,0.722,0.005,1.01
			c-0.136,0.137-0.323,0.212-0.505,0.212s-0.363-0.07-0.505-0.207l-0.92-0.909v2.213c0,0.389-0.318,0.712-0.717,0.712
			c-0.395,0-0.712-0.323-0.712-0.712v-2.213l-0.92,0.909c-0.142,0.14-0.326,0.207-0.508,0.207c-0.185,0-0.368-0.07-0.502-0.212
			c-0.278-0.288-0.278-0.737,0.005-1.01l1.925-1.899v-1.218l-1.905,1.879c-0.141,0.137-0.323,0.213-0.5,0.213
			c-0.187,0-0.373-0.076-0.51-0.218c-0.182-0.189-0.242-0.454-0.18-0.691c0.068-0.079,0.119-0.172,0.149-0.278
			c0.01-0.015,0.022-0.027,0.035-0.04l2.91-2.875v-2.556l-2.127,1.399l-0.809,4.021c-0.002,0.018-0.007,0.033-0.01,0.051
			c-0.073,0.081-0.121,0.177-0.149,0.278c-0.134,0.153-0.333,0.247-0.543,0.247c-0.045,0-0.091-0.005-0.142-0.016
			c-0.384-0.075-0.636-0.454-0.561-0.838l0.53-2.632l-1.015,0.667l-0.53,2.656c-0.071,0.344-0.369,0.576-0.702,0.576
			c-0.046,0-0.097-0.005-0.142-0.021c-0.395-0.075-0.637-0.449-0.561-0.833l0.252-1.268l-1.844,1.217
			c-0.126,0.076-0.257,0.116-0.394,0.116c-0.237,0-0.46-0.111-0.602-0.323c-0.217-0.328-0.121-0.772,0.207-0.984l1.844-1.223
			l-1.258-0.268c-0.394-0.081-0.641-0.46-0.55-0.849c0.061-0.331,0.343-0.563,0.677-0.563c0.05,0,0.105,0.005,0.161,0.018
			l2.647,0.556l1.015-0.672l-2.621-0.546c-0.384-0.091-0.637-0.464-0.556-0.854c0.07-0.336,0.374-0.561,0.723-0.561
			c0.042,0,0.085,0.003,0.131,0.01l4.011,0.844l2.218-1.46l-2.369-1.197l-3.895,1.299c-0.076,0.025-0.151,0.035-0.228,0.035
			c-0.298,0-0.576-0.192-0.677-0.495c-0.126-0.368,0.075-0.777,0.454-0.904l2.546-0.844l-1.081-0.55l-2.57,0.854
			c-0.076,0.03-0.152,0.04-0.228,0.04c-0.298,0-0.576-0.191-0.677-0.495c-0.127-0.368,0.075-0.772,0.449-0.898l1.232-0.409
			l-1.97-0.995c-0.354-0.177-0.495-0.606-0.313-0.96c0.124-0.253,0.374-0.392,0.632-0.392c0.111,0,0.222,0.025,0.328,0.078l1.975,1
			l-0.398-1.237c-0.121-0.374,0.081-0.772,0.465-0.895c0.075-0.022,0.148-0.032,0.222-0.032c0.304,0,0.573,0.187,0.672,0.492
			l0.834,2.581l1.081,0.546l-0.824-2.551c-0.115-0.369,0.086-0.773,0.455-0.895c0.076-0.02,0.151-0.03,0.225-0.03
			c0.313,0,0.586,0.182,0.68,0.485l1.258,3.904l2.42,1.223v-2.713l-2.91-2.884c-0.277-0.278-0.277-0.732-0.005-1.011
			c0.139-0.142,0.323-0.212,0.508-0.212c0.182,0,0.363,0.068,0.502,0.207l1.905,1.89v-1.223l-1.925-1.904
			c-0.283-0.273-0.283-0.728-0.005-1.006c0.134-0.144,0.317-0.217,0.502-0.217c0.182,0,0.366,0.07,0.508,0.212l0.92,0.909v-2.212
			C47.068,69.606,47.386,69.283,47.78,69.283 M70.203,86.569c0.551,0,0.995,0.444,0.995,0.995v3.627l1.581-1.571
			c0.196-0.189,0.452-0.285,0.707-0.285c0.258,0,0.515,0.096,0.707,0.295c0.394,0.395,0.384,1.025-0.005,1.415l-2.99,2.96v2.126
			l3.091-3.061c0.194-0.189,0.447-0.285,0.702-0.285c0.258,0,0.518,0.101,0.713,0.3c0.384,0.39,0.384,1.025-0.006,1.409l-4.5,4.456
			v4.137l3.465-2.278l1.237-6.203c0.097-0.475,0.506-0.806,0.963-0.806c0.068,0,0.139,0.008,0.209,0.022
			c0.541,0.102,0.895,0.637,0.788,1.178l-0.854,4.268l1.783-1.182l0.828-4.122c0.094-0.465,0.495-0.806,0.973-0.806
			c0.068,0,0.139,0.008,0.21,0.023c0.535,0.116,0.884,0.641,0.777,1.182l-0.439,2.172l3.026-1.995
			c0.166-0.108,0.355-0.162,0.545-0.162c0.323,0,0.646,0.154,0.834,0.445c0.308,0.47,0.187,1.086-0.283,1.389l-3.016,1.99
			l2.172,0.455c0.536,0.11,0.884,0.646,0.768,1.187c-0.101,0.47-0.515,0.793-0.979,0.793c-0.07,0-0.137-0.005-0.207-0.02
			l-4.106-0.859l-1.783,1.167l4.253,0.899c0.54,0.116,0.884,0.646,0.778,1.187c-0.102,0.47-0.521,0.793-0.98,0.793
			c-0.07,0-0.142-0.005-0.207-0.024l-6.198-1.294l-3.565,2.35l3.823,1.935l5.991-1.995c0.108-0.038,0.22-0.054,0.325-0.054
			c0.425,0,0.806,0.271,0.942,0.685c0.177,0.53-0.106,1.097-0.632,1.268l-4.121,1.369l1.904,0.97l3.98-1.328
			c0.104-0.035,0.212-0.053,0.315-0.053c0.417,0,0.811,0.272,0.947,0.684c0.177,0.525-0.106,1.097-0.632,1.269l-2.106,0.697
			l3.233,1.646c0.49,0.247,0.687,0.849,0.444,1.344c-0.182,0.343-0.535,0.545-0.895,0.545c-0.156,0-0.308-0.035-0.454-0.105
			l-3.228-1.637l0.682,2.106c0.167,0.525-0.121,1.091-0.646,1.253c-0.106,0.035-0.207,0.05-0.309,0.05
			c-0.424,0-0.812-0.263-0.954-0.687l-1.283-4.001l-1.915-0.965l1.329,4.138c0.177,0.524-0.116,1.086-0.642,1.257
			c-0.101,0.036-0.202,0.046-0.303,0.046c-0.425,0-0.813-0.268-0.955-0.692l-1.939-6.025l-3.895-1.98v4.374l4.5,4.45
			c0.39,0.395,0.39,1.025,0.006,1.42c-0.192,0.197-0.455,0.293-0.713,0.293c-0.252,0-0.51-0.096-0.702-0.288l-3.091-3.056v2.131
			l2.99,2.95c0.389,0.389,0.398,1.025,0.005,1.42c-0.192,0.196-0.449,0.295-0.707,0.295c-0.255,0-0.511-0.096-0.707-0.29
			l-1.581-1.561v3.616c0,0.561-0.444,1.005-0.995,1.005c-0.556,0-1-0.444-1-1.005v-3.616l-1.576,1.561
			c-0.197,0.191-0.45,0.288-0.702,0.288c-0.258,0-0.521-0.097-0.713-0.293c-0.389-0.395-0.389-1.031,0.006-1.42l2.985-2.95v-2.131
			l-3.087,3.056c-0.199,0.194-0.454,0.29-0.71,0.29c-0.257,0-0.513-0.098-0.704-0.295c-0.395-0.395-0.389-1.025,0.005-1.42
			l4.496-4.45v-4.142l-3.461,2.283l-1.237,6.203c-0.096,0.475-0.515,0.803-0.979,0.803c-0.066,0-0.137-0.005-0.197-0.021
			c-0.546-0.11-0.895-0.631-0.783-1.177l0.844-4.263l-1.773,1.172l-0.833,4.121c-0.096,0.476-0.505,0.804-0.98,0.804
			c-0.065,0-0.126-0.005-0.196-0.021c-0.546-0.105-0.895-0.637-0.783-1.182l0.444-2.172l-3.03,1.995
			c-0.162,0.111-0.359,0.172-0.551,0.172c-0.323,0-0.637-0.162-0.834-0.455c-0.303-0.46-0.177-1.081,0.283-1.384l3.025-1.99
			l-2.172-0.46c-0.535-0.111-0.884-0.642-0.768-1.182c0.096-0.47,0.5-0.796,0.968-0.796c0.07,0,0.144,0.008,0.214,0.022l4.107,0.864
			l1.783-1.182l-4.254-0.89c-0.54-0.111-0.889-0.646-0.768-1.182c0.096-0.475,0.5-0.806,0.97-0.806c0.071,0,0.142,0.008,0.212,0.022
			l6.193,1.309l3.562-2.354l-3.81-1.935l-6.006,1.995c-0.101,0.036-0.212,0.046-0.318,0.046c-0.419,0-0.803-0.268-0.949-0.682
			c-0.172-0.525,0.116-1.092,0.642-1.269l4.122-1.363l-1.91-0.97l-3.985,1.333c-0.096,0.03-0.207,0.046-0.312,0.046
			c-0.42,0-0.809-0.268-0.95-0.692c-0.172-0.521,0.116-1.081,0.642-1.258l2.102-0.702l-3.228-1.637
			c-0.5-0.252-0.697-0.854-0.445-1.344c0.178-0.354,0.531-0.55,0.897-0.55c0.151,0,0.306,0.035,0.452,0.105l3.223,1.637
			l-0.677-2.106c-0.172-0.53,0.121-1.091,0.646-1.258c0.105-0.035,0.212-0.051,0.315-0.051c0.427,0,0.809,0.275,0.942,0.697
			l1.282,3.991l1.915,0.97l-1.334-4.132c-0.172-0.536,0.116-1.097,0.642-1.269c0.106-0.032,0.212-0.048,0.315-0.048
			c0.43,0,0.813,0.272,0.947,0.7l1.94,6.025l3.895,1.976V98.95l-4.496-4.456c-0.394-0.384-0.399-1.02-0.005-1.409
			c0.194-0.199,0.452-0.3,0.712-0.3c0.253,0,0.505,0.096,0.702,0.285l3.087,3.061v-2.126l-2.985-2.96
			c-0.395-0.39-0.395-1.021-0.006-1.415c0.197-0.199,0.452-0.295,0.71-0.295c0.255,0,0.508,0.096,0.705,0.285l1.576,1.565v-3.621
			C69.203,87.014,69.647,86.569,70.203,86.569"/>
	</g>
</g>
</svg>
