<?xml version="1.0" encoding="utf-8"?>
<!-- Generator: Adobe Illustrator 16.0.0, SVG Export Plug-In . SVG Version: 6.00 Build 0)  -->
<!DOCTYPE svg PUBLIC "-//W3C//DTD SVG 1.1//EN" "http://www.w3.org/Graphics/SVG/1.1/DTD/svg11.dtd">
<svg version="1.1" id="Layer_1" xmlns="http://www.w3.org/2000/svg" xmlns:xlink="http://www.w3.org/1999/xlink" x="0px" y="0px"
	 width="130px" height="130px" viewBox="0 0 130 130" enable-background="new 0 0 130 130" xml:space="preserve">
<rect fill="none" width="130" height="130"/>
<g>
	<g>
		<g>
			<path fill="#4D4D4D" d="M127.248,27.944c0-7.94-6.371-14.396-14.193-14.396c-7.826,0-14.192,6.456-14.192,14.396
				c0,1.456,1.169,2.639,2.604,2.639s2.599-1.183,2.599-2.639c0-5.029,4.034-9.118,8.989-9.118c4.956,0,8.99,4.089,8.99,9.118
				c0,9.322-8.183,10.044-8.99,10.094H3.599C2.163,38.038,1,39.216,1,40.677c0,1.455,1.163,2.639,2.599,2.639l109.565-0.005
				C118.04,43.097,127.248,39.607,127.248,27.944z M114.708,50.375H17.623c-1.445,0-2.618,1.183-2.618,2.638
				c0,1.46,1.173,2.639,2.618,2.639h96.972c0.371,0.015,9.168,0.505,9.168,10.089c0,5.029-4.064,9.123-9.055,9.123
				c-4.989,0-9.054-4.094-9.054-9.123c0-1.46-1.173-2.639-2.618-2.639c-1.446,0-2.619,1.178-2.619,2.639
				c0,7.94,6.41,14.4,14.291,14.4c7.876,0,14.292-6.46,14.292-14.4C129,54.072,119.718,50.587,114.708,50.375z"/>
		</g>
		<g>
			<path fill="#4D4D4D" d="M86.081,22.311H10.594c-1.436,0-2.599,1.183-2.599,2.634c0,1.45,1.163,2.633,2.599,2.633h75.487
				c1.436,0,2.599-1.183,2.599-2.633C88.68,23.494,87.517,22.311,86.081,22.311z"/>
		</g>
	</g>
	<g>
		<path fill="#4D4D4D" d="M92.635,83.923l-1.713-0.866l1.069-0.356c0.327-0.104,0.5-0.461,0.392-0.787
			c-0.109-0.322-0.456-0.495-0.787-0.392l-2.228,0.748l-0.936-0.476l2.202-0.732c0.332-0.109,0.5-0.456,0.396-0.787
			c-0.109-0.327-0.461-0.495-0.782-0.392l-3.376,1.124l-2.05-1.045l1.916-1.267l3.475,0.732c0.045,0.01,0.09,0.015,0.129,0.015
			c0.287,0,0.54-0.203,0.609-0.495c0.069-0.336-0.148-0.663-0.485-0.737l-2.268-0.471l0.877-0.584l2.302,0.485
			c0.044,0.01,0.089,0.015,0.129,0.015c0.287,0,0.539-0.203,0.604-0.495c0.074-0.336-0.144-0.663-0.48-0.737l-1.094-0.228
			l1.599-1.055c0.282-0.188,0.366-0.574,0.184-0.861c-0.203-0.282-0.584-0.356-0.866-0.173l-1.604,1.054l0.224-1.099
			c0.063-0.337-0.149-0.663-0.49-0.728c-0.352-0.064-0.664,0.148-0.729,0.485l-0.455,2.302L87.512,76.7l0.46-2.282
			c0.069-0.332-0.148-0.663-0.485-0.728c-0.356-0.069-0.663,0.153-0.728,0.49l-0.703,3.484l-1.841,1.213v-2.213l2.52-2.5
			c0.242-0.237,0.242-0.633,0.005-0.871c-0.237-0.247-0.634-0.247-0.876-0.005l-1.648,1.634v-1.055l1.668-1.653
			c0.247-0.237,0.247-0.634,0.005-0.871c-0.237-0.247-0.634-0.247-0.876-0.005l-0.797,0.787V70.21c0-0.347-0.277-0.623-0.619-0.623
			c-0.347,0-0.624,0.276-0.624,0.623v1.916l-0.797-0.787c-0.242-0.242-0.634-0.242-0.876,0.005
			c-0.242,0.237-0.242,0.634,0.005,0.871l1.668,1.653v1.055l-1.658-1.634c-0.237-0.242-0.634-0.242-0.876,0.005
			c-0.232,0.238-0.232,0.634,0.005,0.871l2.529,2.5v2.356l-2.099-1.069l-1.089-3.371c-0.1-0.331-0.445-0.5-0.777-0.4
			c-0.327,0.099-0.5,0.455-0.401,0.777l0.708,2.212l-0.94-0.479l-0.718-2.232c-0.099-0.327-0.455-0.5-0.777-0.401
			c-0.326,0.104-0.505,0.45-0.4,0.777l0.336,1.069l-1.697-0.861c-0.303-0.159-0.679-0.04-0.832,0.267
			c-0.158,0.308-0.034,0.684,0.268,0.832l1.708,0.866l-1.064,0.352c-0.327,0.109-0.5,0.46-0.392,0.782
			c0.09,0.263,0.332,0.426,0.59,0.426c0.064,0,0.128-0.005,0.192-0.03l2.228-0.742l0.941,0.476l-2.208,0.732
			c-0.322,0.114-0.505,0.465-0.392,0.787c0.084,0.263,0.327,0.426,0.589,0.426c0.06,0,0.129-0.01,0.193-0.03l3.371-1.123
			l2.055,1.039l-1.921,1.263l-3.47-0.732c-0.347-0.055-0.674,0.153-0.743,0.479c-0.064,0.337,0.148,0.664,0.48,0.738l2.277,0.475
			l-0.887,0.59l-2.292-0.49c-0.346-0.074-0.663,0.139-0.728,0.475c-0.079,0.337,0.134,0.664,0.476,0.738l1.089,0.228l-1.594,1.06
			c-0.287,0.188-0.366,0.569-0.179,0.856c0.119,0.183,0.317,0.276,0.521,0.276c0.118,0,0.232-0.029,0.336-0.099l1.6-1.05
			l-0.223,1.095c-0.064,0.331,0.153,0.658,0.489,0.723c0.045,0.015,0.079,0.02,0.119,0.02c0.292,0,0.55-0.203,0.608-0.5l0.461-2.302
			l0.881-0.579l-0.455,2.282c-0.069,0.331,0.148,0.658,0.485,0.728c0.044,0.005,0.079,0.01,0.118,0.01
			c0.297,0,0.555-0.203,0.609-0.5l0.703-3.48l1.846-1.218v2.218l-2.529,2.49c-0.237,0.238-0.247,0.629-0.005,0.876
			c0.242,0.248,0.639,0.248,0.876,0.005l1.658-1.628v1.054l-1.668,1.644c-0.242,0.238-0.247,0.629-0.005,0.877
			c0.242,0.247,0.634,0.247,0.876,0.01l0.797-0.792v1.921c0,0.336,0.277,0.613,0.624,0.613c0.342,0,0.619-0.277,0.619-0.613v-1.921
			l0.797,0.792c0.119,0.118,0.277,0.178,0.436,0.178s0.321-0.064,0.44-0.188c0.242-0.248,0.242-0.639-0.005-0.877l-1.668-1.644
			v-1.054l1.648,1.628c0.123,0.119,0.282,0.184,0.436,0.184c0.163,0,0.321-0.064,0.44-0.188c0.237-0.247,0.237-0.638-0.005-0.876
			l-2.52-2.49v-2.361l2.099,1.069l1.079,3.377c0.084,0.262,0.332,0.431,0.594,0.431c0.06,0,0.124-0.011,0.184-0.025
			c0.332-0.108,0.51-0.455,0.406-0.782l-0.713-2.213l0.94,0.476l0.723,2.237c0.084,0.258,0.326,0.431,0.584,0.431
			c0.069,0,0.129-0.01,0.193-0.029c0.326-0.109,0.505-0.456,0.4-0.787l-0.346-1.064l1.712,0.866c0.09,0.045,0.184,0.069,0.282,0.069
			c0.223,0,0.441-0.124,0.55-0.342C93.061,84.452,92.937,84.081,92.635,83.923z M55.884,67.344l1.124,0.574l-0.589,0.193
			c-0.322,0.114-0.5,0.46-0.392,0.782c0.089,0.263,0.327,0.431,0.589,0.431c0.064,0,0.129-0.01,0.198-0.04l1.753-0.579l0.46,0.232
			l-1.515,0.5c-0.322,0.114-0.495,0.461-0.391,0.787c0.084,0.258,0.331,0.421,0.589,0.421c0.064,0,0.134-0.01,0.198-0.029
			l2.673-0.886l1.426,0.723l-1.332,0.881l-2.762-0.584c-0.347-0.055-0.664,0.153-0.733,0.479c-0.074,0.337,0.148,0.664,0.48,0.738
			l1.564,0.326l-0.44,0.287l-1.802-0.386c-0.327-0.064-0.664,0.144-0.738,0.48c-0.069,0.331,0.144,0.663,0.48,0.732l0.608,0.129
			l-1.054,0.697c-0.287,0.188-0.366,0.574-0.174,0.861c0.119,0.184,0.312,0.277,0.516,0.277c0.118,0,0.237-0.034,0.336-0.099
			l1.05-0.693l-0.124,0.595c-0.064,0.336,0.158,0.663,0.485,0.732c0.045,0.01,0.084,0.015,0.124,0.015
			c0.292,0,0.549-0.203,0.608-0.5l0.366-1.807l0.436-0.282l-0.312,1.56c-0.064,0.336,0.148,0.663,0.485,0.728
			c0.039,0.01,0.084,0.015,0.123,0.015c0.1,0,0.179-0.055,0.268-0.099c0.01,0.139,0.045,0.271,0.148,0.376
			c0.119,0.118,0.277,0.183,0.436,0.183c0.164,0,0.317-0.064,0.441-0.178l1.128-1.119v0.515l-1.316,1.303
			c-0.237,0.232-0.243,0.623-0.005,0.871c0.247,0.242,0.639,0.242,0.876,0.005l0.445-0.436v1.262c0,0.337,0.272,0.619,0.619,0.619
			c0.342,0,0.619-0.282,0.619-0.619v-1.262l0.44,0.436c0.118,0.119,0.277,0.178,0.436,0.178c0.163,0,0.321-0.059,0.44-0.183
			c0.242-0.248,0.237-0.639-0.005-0.871l-1.312-1.303v-0.515l1.138,1.119c0.243,0.242,0.639,0.232,0.877-0.005
			c0.237-0.253,0.237-0.639-0.01-0.876l-2.005-1.98v-1.668l1.475,0.752l0.866,2.688c0.09,0.257,0.332,0.431,0.589,0.431
			c0.069,0,0.129-0.015,0.193-0.03c0.327-0.104,0.505-0.455,0.401-0.787l-0.485-1.515l0.455,0.232l0.564,1.763
			c0.089,0.263,0.332,0.431,0.595,0.431c0.059,0,0.128-0.01,0.192-0.024c0.322-0.109,0.505-0.456,0.401-0.787l-0.193-0.584
			l1.124,0.569c0.089,0.044,0.183,0.068,0.282,0.068c0.223,0,0.44-0.128,0.549-0.341c0.154-0.303,0.035-0.679-0.271-0.832
			l-1.124-0.569l0.584-0.203c0.332-0.104,0.505-0.455,0.396-0.777c-0.104-0.326-0.466-0.505-0.777-0.396l-1.763,0.579l-0.46-0.232
			l1.515-0.505c0.321-0.104,0.505-0.461,0.396-0.782c-0.108-0.322-0.46-0.5-0.787-0.392l-2.678,0.892l-1.426-0.723l1.332-0.877
			l2.762,0.574c0.045,0.006,0.09,0.016,0.129,0.016c0.287,0,0.55-0.208,0.609-0.495c0.069-0.337-0.144-0.663-0.485-0.738
			l-1.55-0.326l0.436-0.282l1.802,0.381c0.045,0.01,0.085,0.016,0.129,0.016c0.287,0,0.545-0.203,0.604-0.495
			c0.069-0.337-0.144-0.664-0.476-0.729l-0.609-0.133l1.05-0.693c0.292-0.188,0.366-0.574,0.184-0.861
			c-0.193-0.287-0.584-0.356-0.861-0.174l-1.06,0.693l0.124-0.604c0.069-0.332-0.148-0.664-0.485-0.728
			c-0.352-0.069-0.663,0.148-0.728,0.484l-0.361,1.808l-0.431,0.281l0.312-1.559c0.069-0.332-0.148-0.664-0.49-0.728
			c-0.144-0.025-0.268,0.015-0.386,0.074c-0.015-0.134-0.055-0.268-0.148-0.367c-0.238-0.247-0.634-0.242-0.877-0.005l-1.138,1.124
			v-0.515l1.312-1.302c0.247-0.242,0.247-0.633,0.005-0.876c-0.242-0.248-0.629-0.243-0.876-0.005l-0.44,0.436v-1.257
			c0-0.347-0.277-0.619-0.619-0.619c-0.347,0-0.619,0.272-0.619,0.619v1.257l-0.445-0.436c-0.237-0.238-0.629-0.243-0.876,0.005
			c-0.232,0.243-0.232,0.634,0.005,0.876l1.316,1.302v0.51l-1.128-1.119c-0.243-0.237-0.634-0.242-0.877,0.005
			c-0.242,0.243-0.242,0.634,0.005,0.877l2,1.984v1.659l-1.479-0.748l-0.856-2.683c-0.104-0.327-0.451-0.505-0.777-0.401
			c-0.327,0.099-0.51,0.445-0.406,0.777l0.49,1.515l-0.466-0.228l-0.563-1.763c-0.104-0.326-0.456-0.5-0.782-0.4
			c-0.322,0.108-0.5,0.455-0.396,0.777l0.188,0.594l-1.129-0.569c-0.297-0.158-0.673-0.035-0.832,0.268
			C55.458,66.819,55.577,67.19,55.884,67.344z M63.859,67.715l1.752-1.732l-0.485,2.416l-1.267,0.837V67.715z M62.621,73.057
			l-1.742,1.723l0.476-2.406l1.267-0.836V73.057z M48.637,82.897l0.936,0.476l0.723,2.237c0.084,0.258,0.332,0.431,0.589,0.431
			c0.064,0,0.124-0.01,0.193-0.029c0.322-0.109,0.5-0.456,0.396-0.787l-0.342-1.064l1.703,0.866
			c0.089,0.045,0.188,0.069,0.282,0.069c0.228,0,0.44-0.124,0.549-0.342c0.158-0.302,0.035-0.673-0.267-0.831l-1.713-0.866
			l1.069-0.356c0.326-0.104,0.5-0.461,0.391-0.787c-0.109-0.322-0.46-0.495-0.782-0.392l-2.228,0.748l-0.94-0.476l2.208-0.732
			c0.321-0.109,0.505-0.456,0.396-0.787c-0.113-0.327-0.465-0.495-0.787-0.392l-3.376,1.119l-2.05-1.04l1.926-1.267l3.466,0.732
			c0.044,0.01,0.089,0.015,0.134,0.015c0.287,0,0.544-0.203,0.608-0.495c0.064-0.336-0.148-0.663-0.48-0.737l-2.276-0.471
			l0.881-0.584l2.297,0.485c0.04,0.01,0.084,0.015,0.129,0.015c0.287,0,0.539-0.203,0.599-0.495
			c0.079-0.336-0.139-0.663-0.476-0.732L51.3,76.195l1.6-1.055c0.287-0.188,0.366-0.574,0.178-0.861
			c-0.188-0.282-0.579-0.356-0.856-0.173l-1.594,1.049l0.218-1.094c0.064-0.337-0.153-0.663-0.49-0.728
			c-0.352-0.064-0.663,0.148-0.728,0.485l-0.461,2.302L48.285,76.7l0.456-2.282c0.068-0.332-0.149-0.663-0.485-0.728
			c-0.356-0.069-0.664,0.153-0.728,0.49l-0.703,3.479l-1.847,1.218v-2.213l2.524-2.5c0.243-0.237,0.243-0.633,0.01-0.871
			c-0.242-0.247-0.639-0.247-0.876-0.005l-1.658,1.634v-1.055l1.668-1.653c0.248-0.237,0.248-0.634,0.005-0.871
			c-0.242-0.247-0.628-0.247-0.876-0.005l-0.797,0.787V70.21c0-0.347-0.277-0.623-0.624-0.623c-0.342,0-0.618,0.276-0.618,0.623
			v1.916l-0.798-0.787c-0.242-0.242-0.638-0.242-0.876,0.005c-0.237,0.237-0.237,0.634,0.005,0.871l1.669,1.653v1.055l-1.648-1.634
			c-0.243-0.242-0.639-0.242-0.877,0.005c-0.237,0.238-0.237,0.634,0.005,0.871l2.521,2.5v2.356l-2.095-1.064l-1.089-3.381
			c-0.104-0.326-0.44-0.495-0.787-0.396c-0.321,0.104-0.495,0.455-0.391,0.777l0.713,2.212l-0.94-0.475l-0.724-2.237
			c-0.104-0.327-0.44-0.5-0.776-0.401c-0.327,0.108-0.505,0.455-0.401,0.777l0.347,1.074l-1.713-0.866
			c-0.307-0.159-0.679-0.04-0.832,0.267c-0.158,0.308-0.034,0.684,0.272,0.832l1.708,0.866l-1.069,0.352
			c-0.321,0.109-0.5,0.46-0.391,0.782c0.089,0.263,0.331,0.426,0.589,0.426c0.064,0,0.129-0.005,0.198-0.03l2.228-0.742l0.94,0.476
			l-2.213,0.732c-0.327,0.114-0.5,0.465-0.392,0.787c0.085,0.263,0.327,0.426,0.585,0.426c0.069,0,0.133-0.01,0.197-0.03
			l3.376-1.123l2.055,1.039l-1.921,1.263l-3.475-0.732c-0.347-0.055-0.674,0.153-0.743,0.479c-0.068,0.337,0.149,0.664,0.48,0.738
			l2.277,0.475l-0.881,0.585l-2.297-0.485c-0.347-0.074-0.664,0.139-0.729,0.475c-0.079,0.337,0.134,0.664,0.476,0.738l1.094,0.228
			l-1.599,1.06c-0.287,0.188-0.366,0.569-0.178,0.856c0.118,0.183,0.316,0.276,0.52,0.276c0.118,0,0.232-0.029,0.342-0.099
			l1.599-1.055l-0.223,1.1c-0.064,0.331,0.148,0.658,0.49,0.723c0.039,0.015,0.084,0.02,0.118,0.02c0.292,0,0.55-0.203,0.609-0.5
			l0.46-2.302l0.882-0.579l-0.456,2.282c-0.069,0.331,0.148,0.658,0.485,0.728c0.045,0.005,0.079,0.01,0.119,0.01
			c0.292,0,0.554-0.203,0.608-0.5l0.703-3.485l1.842-1.213v2.218l-2.521,2.49c-0.242,0.238-0.242,0.629-0.005,0.876
			c0.119,0.124,0.277,0.188,0.441,0.188c0.153,0,0.312-0.064,0.436-0.184l1.648-1.628v1.054l-1.669,1.644
			c-0.242,0.238-0.242,0.629-0.005,0.877c0.238,0.247,0.634,0.247,0.876,0.01l0.798-0.792v1.921c0,0.336,0.276,0.613,0.618,0.613
			c0.347,0,0.624-0.277,0.624-0.613v-1.921l0.797,0.792c0.119,0.118,0.277,0.178,0.436,0.178s0.322-0.064,0.44-0.188
			c0.243-0.248,0.238-0.639-0.005-0.877l-1.668-1.644v-1.054l1.658,1.628c0.237,0.243,0.634,0.243,0.876-0.005
			c0.238-0.247,0.233-0.638-0.01-0.876l-2.524-2.49v-2.366l2.099,1.074l1.084,3.377c0.085,0.262,0.332,0.431,0.595,0.431
			c0.06,0,0.128-0.011,0.188-0.025c0.327-0.108,0.5-0.455,0.396-0.782L48.637,82.897z M77.631,106.561l-2.797-1.426l1.821-0.604
			c0.456-0.153,0.703-0.644,0.55-1.099c-0.148-0.45-0.644-0.708-1.094-0.55l-3.456,1.148l-1.648-0.836l3.574-1.188
			c0.456-0.148,0.698-0.639,0.545-1.099c-0.144-0.45-0.629-0.703-1.094-0.545l-5.198,1.728l-3.312-1.678l3.089-2.04l5.371,1.124
			c0.06,0.015,0.119,0.02,0.183,0.02c0.401,0,0.763-0.277,0.847-0.683c0.095-0.471-0.203-0.931-0.673-1.035l-3.688-0.776
			l1.545-1.011l3.564,0.743c0.06,0.015,0.118,0.02,0.178,0.02c0.401,0,0.763-0.282,0.852-0.688c0.099-0.47-0.203-0.931-0.668-1.029
			l-1.882-0.396l2.614-1.723c0.406-0.263,0.51-0.803,0.247-1.203c-0.262-0.401-0.807-0.51-1.197-0.248l-2.624,1.728l0.381-1.881
			c0.095-0.47-0.208-0.926-0.673-1.024c-0.49-0.1-0.936,0.218-1.024,0.678l-0.718,3.574l-1.55,1.025l0.742-3.703
			c0.095-0.471-0.218-0.931-0.683-1.02c-0.466-0.104-0.921,0.207-1.015,0.678l-1.074,5.381l-3.005,1.976v-3.589l3.9-3.861
			c0.342-0.337,0.342-0.887,0.005-1.223c-0.331-0.342-0.886-0.347-1.228-0.01l-2.678,2.653v-1.847l2.594-2.564
			c0.337-0.342,0.342-0.886,0.005-1.228s-0.886-0.342-1.228-0.01l-1.371,1.361v-3.144c0-0.476-0.387-0.866-0.866-0.866
			c-0.476,0-0.866,0.391-0.866,0.866v3.139l-1.367-1.356c-0.336-0.332-0.886-0.332-1.223,0.01c-0.336,0.342-0.336,0.886,0.006,1.228
			l2.584,2.564v1.847l-2.674-2.653c-0.347-0.337-0.896-0.332-1.228,0.01c-0.342,0.336-0.337,0.886,0.005,1.223l3.896,3.861v3.787
			l-3.377-1.713l-1.683-5.223c-0.144-0.461-0.619-0.713-1.089-0.564c-0.456,0.148-0.708,0.634-0.56,1.099l1.158,3.584l-1.663-0.842
			l-1.114-3.46c-0.144-0.455-0.618-0.713-1.089-0.564c-0.455,0.148-0.708,0.634-0.56,1.094l0.59,1.827l-2.798-1.421
			c-0.425-0.208-0.95-0.044-1.168,0.387c-0.218,0.426-0.05,0.945,0.387,1.168l2.797,1.416l-1.822,0.608
			c-0.455,0.153-0.708,0.639-0.555,1.094c0.119,0.367,0.461,0.6,0.822,0.6c0.094,0,0.188-0.015,0.272-0.045l3.455-1.153l1.653,0.842
			l-3.574,1.183c-0.455,0.153-0.703,0.644-0.555,1.1c0.124,0.361,0.461,0.594,0.822,0.594c0.094,0,0.188-0.015,0.277-0.045
			l5.207-1.728l3.303,1.679l-3.085,2.039l-5.37-1.134c-0.48-0.099-0.932,0.203-1.03,0.679c-0.099,0.465,0.203,0.926,0.668,1.024
			l3.688,0.772l-1.545,1.024l-3.563-0.752c-0.48-0.1-0.926,0.202-1.025,0.673c-0.099,0.471,0.203,0.926,0.669,1.024l1.881,0.401
			l-2.619,1.723c-0.4,0.263-0.51,0.802-0.247,1.198c0.168,0.257,0.44,0.396,0.723,0.396c0.163,0,0.337-0.049,0.476-0.148
			l2.628-1.728l-0.386,1.881c-0.094,0.471,0.208,0.931,0.683,1.025c0.06,0.015,0.114,0.015,0.169,0.015
			c0.411,0,0.768-0.282,0.847-0.693l0.723-3.574l1.539-1.015l-0.732,3.698c-0.094,0.47,0.208,0.921,0.678,1.015
			c0.055,0.015,0.119,0.02,0.174,0.02c0.406,0,0.768-0.287,0.852-0.698l1.074-5.376l2.995-1.979v3.589l-3.896,3.861
			c-0.342,0.342-0.347,0.891-0.005,1.228c0.332,0.347,0.881,0.347,1.228,0.01l2.674-2.653v1.852l-2.584,2.554
			c-0.342,0.342-0.342,0.892-0.006,1.233c0.169,0.168,0.392,0.252,0.614,0.252s0.44-0.079,0.608-0.247l1.367-1.352v3.134
			c0,0.484,0.391,0.871,0.866,0.871c0.479,0,0.866-0.387,0.866-0.871v-3.134l1.371,1.352c0.342,0.336,0.891,0.336,1.228-0.005
			c0.337-0.342,0.332-0.892-0.005-1.233l-2.594-2.554v-1.852l2.678,2.653c0.168,0.163,0.392,0.247,0.609,0.247
			c0.228,0,0.45-0.084,0.618-0.257c0.337-0.337,0.337-0.886-0.005-1.228l-3.9-3.861v-3.787l3.376,1.713l1.683,5.228
			c0.119,0.366,0.461,0.599,0.827,0.599c0.089,0,0.178-0.01,0.263-0.039c0.455-0.148,0.707-0.634,0.559-1.09l-1.153-3.589
			l1.658,0.837l1.114,3.47c0.119,0.367,0.46,0.595,0.827,0.595c0.089,0,0.173-0.01,0.267-0.045c0.456-0.139,0.708-0.629,0.56-1.084
			l-0.589-1.826l2.797,1.42c0.129,0.06,0.258,0.09,0.396,0.09c0.312,0,0.619-0.174,0.772-0.476
			C78.229,107.298,78.062,106.778,77.631,106.561z"/>
	</g>
</g>
</svg>
