<?xml version="1.0" encoding="utf-8"?>
<!-- Generator: Adobe Illustrator 16.0.0, SVG Export Plug-In . SVG Version: 6.00 Build 0)  -->
<!DOCTYPE svg PUBLIC "-//W3C//DTD SVG 1.1//EN" "http://www.w3.org/Graphics/SVG/1.1/DTD/svg11.dtd">
<svg version="1.1" id="Layer_1" xmlns="http://www.w3.org/2000/svg" xmlns:xlink="http://www.w3.org/1999/xlink" x="0px" y="0px"
	 width="130px" height="130px" viewBox="0 0 130 130" enable-background="new 0 0 130 130" xml:space="preserve">
<rect fill="none" width="130" height="130"/>
<g>
	<path fill="#4D4D4D" d="M58.525,51.228L52.131,1L42.008,2.172l6.537,48.114C51.715,50.708,55.044,51.031,58.525,51.228z"/>
	<path fill="#4D4D4D" d="M39.204,48.726c1.988,0.399,4.058,0.783,6.22,1.117l-2.71-19.184L39.204,48.726z"/>
	<polygon fill="#4D4D4D" points="58.329,23.716 61.581,51.321 69.016,15.651 69.52,7.012 59.336,6.628 	"/>
	<path fill="#4D4D4D" d="M75.536,4.553l-7.73,31.717l-3.159,15.16c0.46,0.005,0.915,0.017,1.38,0.017
		c3.061,0,6.028-0.115,8.897-0.307L85.452,6.913L75.536,4.553z"/>
	<path fill="#4D4D4D" d="M78.603,50.844c3.569-0.339,6.959-0.799,10.146-1.347l-5.562-18.133L78.603,50.844z"/>
	<path fill="#4D4D4D" d="M87.751,11.758l-3.147,13.994l6.805,23.203c3.614-0.663,5.646-1.117,8.679-1.905L87.751,11.758z"/>
	<path fill="#4D4D4D" d="M102.906,35.421l-1.703,5.595l1.796,5.212l0.115-0.017c2.896-0.827,5.447-1.67,7.621-2.453l9.888-27.326
		l-9.592-3.471L102.906,35.421z"/>
	<path fill="#4D4D4D" d="M36.243,48.09l5.076-26.094l-9.023-1.949l-5.508,25.53C29.58,46.432,32.75,47.296,36.243,48.09z"/>
	<path fill="#4D4D4D" d="M23.311,44.521l2.984-13.436l-5.99-21.527l-9.822,2.732L19.002,42.9
		C19.861,43.229,23.311,44.521,23.311,44.521z"/>
	<polygon fill="#4D4D4D" points="100.984,31.348 103.333,5.008 93.183,4.088 92.219,14.917 99.528,36.139 	"/>
	<path fill="#4D4D4D" d="M9.377,41.893L23.573,129h82.284l14.196-86.352c-2.151,1.051-23.783,11.322-54.027,11.322
		C35.783,53.971,11.534,42.949,9.377,41.893z"/>
</g>
</svg>
