<?xml version="1.0" encoding="utf-8"?>
<!-- Generator: Adobe Illustrator 16.0.0, SVG Export Plug-In . SVG Version: 6.00 Build 0)  -->
<!DOCTYPE svg PUBLIC "-//W3C//DTD SVG 1.1//EN" "http://www.w3.org/Graphics/SVG/1.1/DTD/svg11.dtd">
<svg version="1.1" id="Layer_1" xmlns="http://www.w3.org/2000/svg" xmlns:xlink="http://www.w3.org/1999/xlink" x="0px" y="0px"
	 width="130px" height="130px" viewBox="0 0 130 130" enable-background="new 0 0 130 130" xml:space="preserve">
<rect fill="none" width="130" height="130"/>
<g>
	<g id="Shape_2_copy_2_2_">
		<path fill="#4D4D4D" d="M21.535,44.551c0,0-1.741-0.279-2.637-0.188c-0.896,0.094-3.086,0.805-5.469,1.442
			c-2.38,0.638-6.361,2.052-8.413,3.229c-2.048,1.181-1.627,2.874-1.627,2.874l1.32,6.511c0,0,0.851,4.309,2.902,0.498
			c2.048-3.811-3.55-2.299-2.501-4.699c2.163-4.939,10.478-8.378,15.937-8.855c0.278-0.024,0.487-0.254,0.487-0.533V44.551z"/>
	</g>
	<g id="Shape_2_copy_3_2_">
		<path fill="#4D4D4D" d="M125.244,49.034c-2.048-1.177-6.033-2.591-8.412-3.229c-2.38-0.638-4.57-1.348-5.469-1.442
			c-0.896-0.09-2.638,0.188-2.638,0.188v0.278c0,0.279,0.213,0.509,0.488,0.533c5.462,0.477,13.773,3.916,15.937,8.855
			c1.052,2.4-4.546,0.888-2.498,4.699c2.049,3.811,2.898-0.498,2.898-0.498l1.32-6.511
			C126.871,51.908,127.296,50.215,125.244,49.034z"/>
	</g>
	<path fill="#4D4D4D" d="M128.992,64.016v-9.621c0-2.31-0.282-4.104-3.204-5.661c-2.191-1.167-6.504-2.602-9.936-3.483
		c-1.947-0.502-4.511-1.258-6.469-0.575c2.275-0.314,4.16,0.275,6.316,0.895c3.553,1.024,8.67,2.693,9.781,3.87
		c1.634,1.731,1.003,2.713-2.167,5.117c-3.173,2.403-9.803,2.787-9.803,2.787s-32.591,0.077-36.019,0.077
		c-3.431,0-5.058,0.746-7.367,1.972c-2.167,1.153-3.641,1.717-5.128,1.693c-1.483,0.024-2.957-0.54-5.124-1.693
		c-2.31-1.226-3.939-1.972-7.364-1.972c-3.431,0-36.021-0.077-36.021-0.077s-6.63-0.383-9.803-2.787
		c-3.17-2.404-3.801-3.386-2.167-5.117c1.107-1.177,6.232-2.846,9.781-3.87c2.153-0.62,4.041-1.209,6.312-0.895
		c-1.954-0.683-4.519,0.073-6.466,0.575c-3.431,0.881-7.743,2.316-9.935,3.483c-2.922,1.557-3.204,3.351-3.204,5.661v9.621
		c0,0.568-0.53,5.601,7.385,13.516c7.91,7.914,11.516,8.123,20.88,8.123h19.824c6.047,0,6.656-0.394,9.317-6.9
		c1.697-4.146,2.261-5.65,3.676-6.595c0.741-0.494,1.828-0.734,2.908-0.721c1.084-0.014,2.17,0.227,2.912,0.721
		c1.414,0.944,1.979,2.449,3.675,6.595c2.662,6.507,3.268,6.9,9.322,6.9h19.824c9.36,0,12.965-0.209,20.88-8.123
		C129.525,69.617,128.992,64.584,128.992,64.016z M55.23,77.535c-1.637,4.003-1.689,4.679-6.009,4.679H29.394
		c-7.621,0-10.575-0.224-15.219-4.156c-0.623-0.525-0.947-1.229-0.947-2.045V63.671c0-1.55,1.285-2.766,2.828-2.679
		c1.031,0.056,2.062,0.066,3.194,0.066c6.828,0.018,25.102,0.07,33.386,0.07C60.612,61.128,57.871,71.084,55.23,77.535z
		 M116.776,76.013c0,0.815-0.328,1.52-0.951,2.045c-4.64,3.933-7.598,4.156-15.223,4.156H80.778c-4.319,0-4.372-0.676-6.009-4.679
		c-2.641-6.451-5.382-16.407,2.595-16.407c8.28,0,26.555-0.052,33.386-0.07c1.132,0,2.163-0.01,3.194-0.066
		c1.547-0.087,2.832,1.128,2.832,2.679V76.013z"/>
</g>
</svg>
