<?xml version="1.0" encoding="utf-8"?>
<!-- Generator: Adobe Illustrator 16.0.0, SVG Export Plug-In . SVG Version: 6.00 Build 0)  -->
<!DOCTYPE svg PUBLIC "-//W3C//DTD SVG 1.1//EN" "http://www.w3.org/Graphics/SVG/1.1/DTD/svg11.dtd">
<svg version="1.1" id="Layer_1" xmlns="http://www.w3.org/2000/svg" xmlns:xlink="http://www.w3.org/1999/xlink" x="0px" y="0px"
	 width="130px" height="130px" viewBox="0 0 130 130" enable-background="new 0 0 130 130" xml:space="preserve">
<rect fill="none" width="130" height="130"/>
<g>
	<g>
		<path fill="#4D4D4D" d="M102.632,90.821l-4.039-5.838l-4.754,3.344l2.338,3.368c-22.624,14.17-52.757,8.337-68.368-13.723
			c-15.534-21.967-11.113-52.132,9.533-68.8l1.986,3.623l4.737-3.45l-3.253-5.915C40.417,2.706,39.728,2.187,38.925,2
			c-0.81-0.178-1.655-0.015-2.328,0.457C11.119,20.474,5.049,55.852,23.066,81.327c8.795,12.43,21.732,20.223,35.63,22.865
			c0,2.336-0.005,6.593-0.019,6.891c0,1.177-0.793,1.682-5.291,3.388l-2.138,0.826c-1.958,0.769-3.983,1.557-5.876,2.6
			c-0.37,0.196-0.74,0.408-1.165,0.653l-0.788,0.495c-1.521,1.1-1.841,2.325-1.841,3.166c0,3.354,4.767,4.646,6.34,5.064
			c2.081,0.562,4.712,1.019,7.587,1.307c2.29,0.226,4.709,0.365,7.2,0.403L64.097,129l1.384-0.015
			c2.501-0.038,4.93-0.178,7.21-0.403c2.95-0.308,5.502-0.745,7.604-1.307c1.562-0.418,6.321-1.711,6.321-5.064
			c0-0.841-0.315-2.066-1.562-2.936c-0.124-0.125-0.262-0.23-0.408-0.327l-1.807-1.047c-1.927-1.062-3.964-1.841-5.924-2.614
			c-0.661-0.265-1.336-0.51-1.989-0.754c-3.265-1.197-5.405-2.081-5.405-3.383v-0.178c-0.005-0.395-0.005-3.465-0.01-5.771
			c11.229-0.039,22.565-3.393,32.413-10.359C103.223,93.925,103.54,92.128,102.632,90.821z"/>
	</g>
	<g>
		<path fill="#4D4D4D" d="M70.12,1c-26.06,0-47.184,21.127-47.184,47.183S44.061,95.361,70.12,95.361
			c26.059,0,47.181-21.122,47.181-47.178S96.179,1,70.12,1z"/>
	</g>
	<g>
		<path fill="#FFFFFF" d="M91.775,64.549c-1.473-1.701-4.024-1.447-5.963-2.278c-2.085-0.898-2.713-2.34-3.938-4.065
			c-2.578-3.604-7.313-3.834-11.176-5.016c-2.064-0.639-3.522,0.677-5.305,1.576c-0.702,0.346-1.769,0.735-2.57,0.485
			c-1.389-0.447-0.829-1.413-0.837-2.455c-0.026-1.417-0.423-1.417-1.588-1.821c-0.886-0.307-1.953-0.745-1.3-1.912
			c0.418-0.754,1.596-0.875,0.363-1.869c-0.941-0.759-1.612-0.067-2.465,0.485c-1.693,1.1-4.105,1.273-3.753-1.519
			c0.222-1.763,2.364-4.122,3.875-4.881c1.762-0.875,4.327-0.793,5.677,0.605c0.567,0.586,1.146,1.907,1.879,2.272
			c1.435,0.726,0.872-0.865,0.36-1.663c-0.517-0.792-1.506-1.489-1.035-2.551c0.344-0.778,1.542-1.163,2.218-1.538
			c1.18-0.653,1.809-1.22,2.212-2.575c0.231-0.802-0.053-2.066,0.538-2.695c0.512-0.548,2.109-0.808,2.82-1.307
			c0.942-0.648,1.456-1.571,2.295-2.301c1.201-1.038,1.456,0.096,2.791,0c1.492-0.096,1.209-1.144,0.464-2.033
			c-0.055-0.067-0.607-0.058-0.689-0.043c0.008-0.543,1.045-1.413,0.574-2.014c-0.418-0.533-1.856,0.116-2.391,0.082
			c0.125-1.259,1.632-1.211,2.525-1.047c1.353,0.254,1.67,0.355,2.945-0.269c0.61-0.298,0.543-0.38,1.305-0.466
			c0.545-0.053,0.867,0.495,1.362-0.13c0.951-1.225-0.738-1.802-1.596-1.725c0.036-0.591,0.324-1.456-0.043-2.023
			c-0.421-0.634-1.148-0.447-1.432-1.35c-0.104-0.332,0.094-0.754,0-1.091c-0.077-0.322-0.375-0.476-0.447-0.754
			c-0.204-0.797,0-1.451-0.053-2.253c-2.093-0.711-1.994,1.11-2.734,2.273c-0.814-1.744,0.024-4.3-2.455-5.05
			c-2.608-0.797-2.695,3.719-2.995,5.329c-0.192,1.014,0.11,1.744-0.668,2.729c-0.204,0.25-0.562,0.437-0.73,0.721
			c-0.27,0.466-0.13,0.975-0.355,1.393c-0.186,0.351-0.73,1.038-1.192,1.038c-0.93,0-0.742-1.245-0.97-1.927
			c-0.26-0.783-1.165-2.566-1.91-3.027c-0.685-0.427-1.267-0.014-2.066-0.004c-0.185-1.038,0.438-2.499,0.584-3.584
			c0.202-1.441,0.976-2.571,2.187-3.339c1.004-0.629,2.044-1.014,2.426-2.263c0.173-0.553-0.221-2.148-0.668-3.805
			C57.108,5.233,47.359,9.428,39.914,16.159c0.271,2.249,0.526,4.483,0.618,5.036c0.084,0.514,0.405,0.845,0.487,1.302
			c0.142,0.707-0.151,0.99-0.247,1.59c-0.582,3.686-2.554,7.678-0.875,11.263c0.435,0.917,1.06,1.523,1.634,2.272
			c0.617,0.803,0.714,1.797,1.093,2.782c0.567,1.48,1.226,4.67,2.979,5.348c0.112-1.235-0.959-2.143-1.199-3.258
			c-0.209-1.004-0.485-2.499-0.339-3.498c0.049,0.009,0.271,0.014,0.325,0.004c0.612,1.687,1.525,3.498,2.409,5.074
			c0.425,0.75,1.101,1.403,1.456,2.181c0.375,0.846-0.104,1.788,0.423,2.508c0.891,1.215,3.992,1.643,5.297,1.96
			c1.698,0.427,3.421,0.956,5.096,1.585c0.754,0.283,0.584,0.029,1.117,0.721c0.283,0.375,0.454,0.956,0.665,1.365
			c0.439,0.841,0.697,1.609,1.581,1.931c0.901,0.341,2.052-0.226,2.926-0.019c1.199,0.274,1.096,1.345,0.733,2.421
			c-0.579,1.744-2.389,2.801-2.297,4.723c0.105,2.413,2.729,4.209,3.726,6.299c0.419,0.879,0.431,1.984,1.105,2.787
			c0.793,0.917,1.578,0.807,1.828,2.052c0.612,3.104-0.495,6.559-0.49,9.657c0.008,2.225-0.504,5.435-0.617,8.23
			c2.15,0,4.245-0.211,6.313-0.514c1.247-2.407,3.854-4.041,5.355-6.708c1.244-2.195,1.802-4.464,3.857-6.054
			c1.413-1.105,3.289-1.845,4.38-3.368c1.175-1.614,0.778-3.771,1.886-5.507C92.123,68.791,93.166,66.158,91.775,64.549z"/>
	</g>
</g>
</svg>
