<?xml version="1.0" encoding="utf-8"?>
<!-- Generator: Adobe Illustrator 16.0.0, SVG Export Plug-In . SVG Version: 6.00 Build 0)  -->
<!DOCTYPE svg PUBLIC "-//W3C//DTD SVG 1.1//EN" "http://www.w3.org/Graphics/SVG/1.1/DTD/svg11.dtd">
<svg version="1.1" id="Layer_1" xmlns="http://www.w3.org/2000/svg" xmlns:xlink="http://www.w3.org/1999/xlink" x="0px" y="0px"
	 width="130px" height="130px" viewBox="0 0 130 130" enable-background="new 0 0 130 130" xml:space="preserve">
<rect fill="none" width="130" height="130"/>
<g id="g_1_">
	<path fill="#4C4C4C" d="M74.874,10.034H44.489c-4.031,0-8.352,0.446-12.958,1.332c-4.659,1.035-9.144,3.24-13.466,6.617
		c-6.288,5.773-9.429,12.198-9.429,19.279c0,5.867,2.221,11.003,6.669,15.414c4.244,4.74,10.42,7.155,18.524,7.249
		c1.531,0,3.16-0.094,4.888-0.278c-0.284,0.761-0.594,1.592-0.929,2.496c-0.381,0.861-0.573,1.933-0.573,3.222
		c0,2.15,0.501,3.99,1.505,5.514c0.858,1.58,1.837,3.055,2.938,4.442c-3.557,0.093-8.027,0.508-13.408,1.258
		c-5.43,0.893-10.616,2.664-15.55,5.328c-4.396,2.478-7.431,5.353-9.11,8.624C1.865,93.796,1,96.764,1,99.428
		c0,5.471,2.652,10.166,7.952,14.088c5.254,4.207,13.203,6.356,23.855,6.45c12.722-0.187,22.459-3.073,29.206-8.662
		c6.505-5.396,9.761-11.598,9.761-18.585c-0.096-4.932-1.273-8.922-3.538-11.977c-2.403-3.005-5.2-5.749-8.388-8.233l-5.133-4.015
		c-0.74-0.706-1.503-1.524-2.29-2.466c-0.926-0.985-1.385-2.23-1.385-3.736c0-1.549,0.446-2.905,1.348-4.082
		c0.762-1.128,1.595-2.132,2.494-3.029c1.573-1.313,3.055-2.603,4.451-3.873c1.258-1.264,2.451-2.651,3.575-4.15
		c2.289-3.098,3.479-7.23,3.571-12.397c0-2.812-0.335-5.278-1-7.391c-0.809-2.112-1.741-3.946-2.788-5.496
		c-1.096-1.642-2.217-3.022-3.358-4.15c-1.193-1.078-2.265-1.901-3.215-2.466h9.333L74.874,10.034z M58.16,88.846
		c2.515,2.721,3.772,5.911,3.772,9.572c0,4.504-1.84,8.19-5.517,11.053c-3.772,2.905-9.24,4.411-16.403,4.504
		c-7.982-0.093-14.274-1.784-18.871-5.068c-4.838-3.282-7.258-7.459-7.258-12.527c0-2.583,0.558-4.788,1.67-6.616
		c0.966-1.734,2.153-3.19,3.556-4.361c1.453-1.128,2.881-1.995,4.284-2.603c1.4-0.563,2.491-0.984,3.265-1.27
		c3.289-0.936,6.508-1.617,9.655-2.038c3.191-0.285,5.173-0.378,5.948-0.285c1.308,0,2.444,0.05,3.414,0.143
		C51.335,83.103,55.499,86.269,58.16,88.846z M53.296,46.302c-0.356,1.933-1.156,3.816-2.4,5.65
		c-2.674,2.59-6.016,3.953-10.025,4.096c-3.181,0-6.003-0.917-8.475-2.751c-2.472-1.84-4.492-4.07-6.053-6.71
		c-3.23-5.65-4.844-11.083-4.844-16.312c-0.099-3.952,1.003-7.527,3.305-10.73c2.729-3.061,6.154-4.64,10.275-4.733
		c3.113,0.094,5.867,0.967,8.261,2.615c2.349,1.74,4.242,4.002,5.678,6.777c3.064,5.793,4.597,11.536,4.597,17.229
		C53.615,42.752,53.51,44.375,53.296,46.302z M109.048,31.854V11.446h-6.304v20.408h-20.15v6.48h20.15v20.778h6.304V38.335H129
		v-6.48H109.048z"/>
</g>
</svg>
