<?xml version="1.0" encoding="utf-8"?>
<!-- Generator: Adobe Illustrator 16.0.0, SVG Export Plug-In . SVG Version: 6.00 Build 0)  -->
<!DOCTYPE svg PUBLIC "-//W3C//DTD SVG 1.1//EN" "http://www.w3.org/Graphics/SVG/1.1/DTD/svg11.dtd">
<svg version="1.1" id="Layer_1" xmlns="http://www.w3.org/2000/svg" xmlns:xlink="http://www.w3.org/1999/xlink" x="0px" y="0px"
	 width="130px" height="130px" viewBox="0 0 130 130" enable-background="new 0 0 130 130" xml:space="preserve">
<rect fill="none" width="130" height="130"/>
<g>
	<path fill="#4D4D4D" d="M110.926,13.234H19.074C9.108,13.234,1,21.343,1,31.308v67.39c0,9.966,8.108,18.068,18.074,18.068h91.852
		c9.966,0,18.074-8.103,18.074-18.068v-67.39C129,21.343,120.892,13.234,110.926,13.234z M65.027,111.745
		c-3.444,0-6.239-2.795-6.239-6.245c0-3.445,2.795-6.245,6.239-6.245c3.451,0,6.245,2.8,6.245,6.245
		C71.272,108.95,68.479,111.745,65.027,111.745z M118.924,81.07c0,7.402-6.052,13.46-13.455,13.46H87.506H42.494H24.531
		c-7.397,0-13.455-6.058-13.455-13.46V34.853c0-7.397,6.058-13.455,13.455-13.455h80.938c7.403,0,13.455,6.058,13.455,13.455V81.07z
		"/>
	<path fill="#4D4D4D" d="M105.125,20.77h-1.001l0.022,0.76l-0.033,0.141l-0.35,0.557l-0.006,0.237l0.16,0.245v0.11l-0.372-0.038
		l-0.045,0.038l0.077,0.301l-0.518-0.077l-0.342,0.256l-0.135,0.105l-0.516,0.189l-0.13,0.221l-0.099,0.791l-4.553,1.1l-4.126,0.918
		l-1.39,1.535l-0.289,1.154l-0.829,0.841l-0.133,0.234l0.104,0.237l0.345-0.066l0.174,0.141l0.017,0.209l-0.146,0.151h-0.182
		l-0.027,0.122l0.055,0.146l0.278,0.237L91.32,32l-0.028,0.339l-0.761,0.301l-0.655,0.755l-0.408,0.223l-0.932,0.21l-0.179-0.022
		l-0.477,0.268l-0.464-0.245l-0.854,0.006l-2.536,1.03l0.728,1.356l-0.513,0.661l-0.127,0.312l-0.159,0.148l-0.168,0.061
		l-1.139,1.251l-0.006,0.006l-0.38,0.355l-0.526,0.141l-0.935,0.871l0,0l-0.694,0.229l-2.441,1.874l-0.8,0.116l-0.873,0.424
		l-0.94-0.033l-0.144-0.146l-0.363,0.055l-0.242-0.038l-0.387-0.262l-0.76-0.188l0.738-1.113l0,0l0.006-0.006l-0.045-0.57
		l0.163-0.59l0.229-0.301l-0.047-0.333l0.063-0.273l0.254-0.327l0.584-0.072v-1.753l-0.11-0.182l-0.185-0.295l-0.383-1.546
		l-0.968-1.373l-1.133,0.526l-0.068,0.092l-0.221,0.799l-0.59,0.416l-0.339-0.077l-0.141-0.188l0.251-0.939l0.595-0.617l0.144-0.485
		l0.245-0.355l0.08-0.301l-0.386-1.443l-0.182-0.301l-0.066-0.361l0.11-0.218l0.077-0.027l-0.378-0.584l-0.339-0.245l-0.744-0.193
		l-0.309-0.195l-0.231-0.056l-0.64-0.41l-0.272-0.072l-0.301,0.089l-0.099-0.083l-0.546-0.102l-0.523,0.112l-0.221,0.328l0.11,0.499
		l0.256,0.278l-0.071,0.151l-1.006,0.449l0.005,1.174l-0.217,0.105l-0.146,0.3l-0.071-0.141l-0.116-0.622l-0.138-0.237l-0.207,0.16
		l-0.234,0.316l-0.584,0.446l-0.05,0.433l-0.22,0.345l-0.012,1.405l0.072,0.169l-0.246,0.229l-0.195,1.968l0.968,1.968l0.074,1.679
		l-0.852,2.813l-0.606,0.477l-0.033,0.033l-0.611,0.485H62.68l-0.552-0.174l-0.017-0.006l-0.917-1.973l-0.05-0.695v-0.011
		l-0.405-2.701l0.667-2.981l0.061-1.85l0.868-2.298l-0.151-0.417l-0.585,0.791l-0.082,0.805l-0.334,0.089l-1.011,1.069l-0.017-0.229
		l0.383-1.001l0.289-0.301l0.278-0.578l1.323-2.444l0.141,0.016l0.347-0.195l0.31-0.306l0.049,0.89l0.248-0.049l0.741-0.935
		l1.34-0.416l0.272-0.408l0.543-0.171l1.219,0.345l0.218,0.234l0.372-0.042l0.011-0.339l0.088-0.204l0.246,0.11l0.223,0.229
		l1.122-0.355l0.017-0.028l-0.061-0.129l-0.246-0.11l-0.188-0.234l-0.3-0.138l-0.088-0.513l-0.141-0.218l-0.05-0.215l-0.124-0.141
		l-0.077,0.005l-0.945,0.186l-0.777-0.218l-0.055-0.494l-0.13-0.25l-0.399,0.033l-0.411,0.283l-1.786,0.234l-0.821,0.488
		l-0.272,0.377l-0.24,0.107l-1.121-0.129l-0.416,0.118l-0.868-0.885l-0.874-0.41l-0.7,0.192l-0.229-0.055l-0.333,0.377l-0.017-0.722
		l0.189-0.322l0.301-0.174l1.066-1.26l0.006-0.218l-0.601,0.044l-3.096,2.379l-1.229,0.402l-0.852,0.678l-0.585,0.089l-0.917-0.062
		l-0.183,0.199l-0.061-0.11l0.116-0.523l-0.044-0.422l-0.29-0.262l-1.646,1.124l-0.578,0.138L49.476,26l-0.201-0.295l3.825-3.553
		l0.857-0.366l0.979-0.956l0,0l-0.224,0.011l-0.18-0.071H23.489c-7.458,0-13.568,6.109-13.568,13.57v46.614
		c0,0.323,0.012,0.64,0.033,0.962l0.935,0.896l0.516,2.935l0.725,1.16l2.304,2.087l1.304,0.36l1.794-2.77l0.656-0.188l0.628,0.21
		l2.569,0.096l2.251,2.651l0.979,2.754l0.896,1.066l0.466,1.11l0.323,0.245h9.213l0.254-0.46l-0.039-0.157l-0.336,0.089l0.027-0.273
		l0.576-0.319l0.207,0.038l0.344-0.386l0.066-0.204l0.13-0.151l0.564-0.033l0.229-0.121l0.045-0.262l-0.334-0.284l0.006-0.272
		l0.097-0.171l0.292,0.127l0.179,0.179l0.05-0.033l0.006-0.256l0.071-0.11l0.135,0.044l0.154,0.275l0.083,0.014l0.185-0.091
		l0.094-0.259l0.097-0.058l0.104,0.507l0.939-0.301l0.133,0.022l-0.056,0.104l-1.306,0.568l-0.116,0.151l0.121,0.061l3.046-1.689
		l0.496-1.186l0.071-1.862l0.168-0.171l0.183-0.091l0.14,0.005l0.045,0.684l0.41,0.024l-0.11,0.237l-0.35,0.151l0.115,0.061
		l1.819-0.84l1.006-0.05l1.761-0.301l3.285,0.706l0.354-0.345l-0.028-0.322l0.166-0.188h0.551l0.926,0.422l0.397,0.399l0.366,0.068
		l0.684,0.938l0.656,0.011l0.185,0.163l0.487,0.127l0.461-0.263l0.319,0.196l0.281-0.165l0.874,0.094l0.383-0.502l0.066-0.188
		l-0.05-0.218l0.094-0.083l0.303-0.017l0.438,0.367l0.684,0.272l0.65,0.767l0.639-0.317l0.078-0.268l-0.29-0.35l-0.973-0.41
		l-0.449-0.529v-0.149l0.221-0.463l0.634-0.521l0.102-0.824l-0.135-0.116l-0.133-0.027l-0.65,0.339l-0.327,0.307L58.33,86.37
		l-0.171-0.65l-0.146-0.027l-0.234,0.038l-0.427,0.355l-0.565,0.061l-0.49-0.377l0.138-0.629l0.719-0.267l1.75,0.474l0.689-0.402
		l0.485,0.113l0.645-0.436l1.896-0.012l0.498,0.033l0.213-0.138l0.355-1.912l0.366,1.846l-0.115,0.389l0.094,0.18l1.684-0.557
		l0.438-0.508l0.303-0.077l0.271-0.262l0.077,0.006l0.021,0.141l-0.132,0.433l2.273-0.502l0.268,0.069l-0.011,0.198l-0.183,0.103
		l0.05,0.088l2.591,1.044l0.64,0.791l0.259,0.171l1.596-0.487l0.764-0.513l0.344-0.056l0.045-0.032l0.011-0.307l0.284-0.25
		l0.805-0.083l0.584,0.154l1.091,0.935l0.314,0.11l0.097,0.545l0.312,0.113l0.678,0.656l1.122,0.399l0.174,0.198l0.54,4.448
		l0.038,0.05l0.265-0.022l-0.021-0.548l0.267,0.055l0.273,0.182l-0.196,1.307l0.168,0.617l0.772,0.912h4.104h3.486l-0.077-0.528
		l-2.365-4.029l-0.231-1.497l-1.813-2.224l-2.119-4.746l0.097-0.355l-0.113-0.901l1.152-4.037l0.165-0.066l-0.099-0.29l0.049-0.121
		l0.461-0.344l0.281-0.045l0.132-0.278l-0.496-0.65l-0.05-0.146l0.044-0.11l1.731-0.257l0.242-0.121l1.075-1.251l0.121-0.017
		l0.218-0.229l0.061-0.395l0.477-0.256l0.278-0.328l0.097-0.378l-0.179-0.289l0.289-0.306l0.54-1.16l0.678-0.485l0.039-0.262
		l1.201-0.438l0.921-0.661l0.038-0.339l0.546-1.067l1.263-1.063l1.103-0.272l0.705-0.673l0.033-0.339l-0.088-0.372H96.43
		l-0.251,0.168l-0.022,0.122l-0.055-0.133l-0.027-0.301l0.201-0.283l0.05-0.245l0.203-0.295l-0.231-0.171l-0.906-0.207l0.661-0.116
		l0.29-0.363l0.187,0.331l0.218-0.025l0.218,0.207l0.526-0.116l0.278-0.234l0.361-0.749l0.257-0.257l-0.232-0.791l-0.292-0.297
		l-0.192,0.35l-0.149,0.601l-0.052,0.006l-0.144-0.195l-0.201-0.656l-1.257,0.477l-0.345-0.006l-0.306-1.177l0.083-0.162
		l0.309,0.694l0.209,0.118l0.278-0.058l0.667-0.609l0.213-0.016l-0.022-0.213l0.345,0.061l0.3-0.049l0.254,0.366v-0.05l-0.171-0.366
		l-0.245-0.273l-0.177-0.46l-0.129-0.13l-0.012-0.9l-0.198-0.689l-0.935-0.039l-0.124,0.05l-0.088,0.163l-0.322-0.044l-0.317-0.141
		l-0.005-0.273l0.513-0.11l0.204-0.143l-0.116-0.207l-0.289-0.083l-0.152-0.289l-0.032-0.207l0.185-0.143l0.195-0.028l-0.278-0.407
		l-0.272-0.11l-0.166-0.455l0.188-0.085l0.033-0.673l-0.11-0.316l-0.339-0.312l-1.263-0.237l-0.572-0.364l-0.918-0.259l-0.105-0.135
		l-0.044-0.144l0.089-0.35l0.171-0.13l-0.039,0.49l0.141,0.094l0.395,0.022l0.617,0.201l0.3-0.071l0.224,0.171l0.383,0.027
		l0.322,0.234l0.378,0.099l-0.361-0.777l-0.436-0.267l0.251-0.077v-0.056l-0.36-0.879l-0.127-1.384l-0.224-0.369l0.896-0.938
		l0.227-0.65l0.118-0.014l0.144,0.091l0.063,0.105l-0.039,0.316l-0.085,0.207L94.6,47.393l-0.138,0.311l0.044,0.278l0.16,0.251
		l0.008,0.213l-0.284,0.481l0.116,0.133l0.284-0.044l0.082,0.071l0.185,0.764l-0.189,0.212l-0.089,0.21l0.012,0.272l0.135,0.301
		l0.399,0.312l0.416-0.072l0.224,0.061l0.355,0.493l0.094,0.354l0.144,0.099l0.256,0.044l-0.027,0.323l-0.201,0.126l-0.325,1.503
		l0.303,0.956l0.136,0.104l0.262-0.077l0.138-0.174l0.711-3.329l-0.121-0.46l0.322-0.667l0.011-0.463l0.1-0.339l-2.246-2.979
		l0.017-0.372l0.829,0.656l0.433,0.038l0.381,0.24l0.51-0.086l0.135,0.675l0.094,0.144l1.022-2.273l-0.055-0.201l0.233-0.177
		l0.066-0.162l-0.044-1.022l0.061-0.144l0.121,0.017l0.083-0.066l0.017-1.042l-0.121-0.22l-0.334-0.278l-0.389-0.105l-0.071-0.091
		l-0.05-0.218l0.11-0.449l0.11-0.182l0.006-0.024l0.283-0.717l0.278-0.066l0.177-0.546l0.006,0.006l1.54-0.926l0.141-0.369
		l0.314-0.254l0.708-0.027l1.806-0.681l1.024-0.593l0.21-0.245l0.083-0.824l0.085-0.138l0.245,0.088l0.188,0.428l0.188-0.022
		l0.358-0.177l0.573-0.578l0.177-0.012l0.195,0.307l0.268-0.028l0.526-0.372l0.295-0.044l0.463-0.484l0.05-0.144l-0.257-0.64
		l-0.08-0.08l-0.138,0.053l0.163,0.554l-0.036,0.212l-0.319,0.19l-1.042-0.124l-0.339-0.482l-0.245-0.107l-0.204-0.504l-0.262-0.174
		l-0.494-0.1l-0.085-0.071l-0.022-0.272l0.069-0.207l0.138-0.11l0.061-0.449l0.207-0.185l-0.758-0.857v-0.761l0.557-0.771
		l0.457-1.257l-0.017-0.545l0.237-0.461l0.339-0.295h0.18l0.242,0.301l0.097,0.011l0.099-0.239v-0.479l0.107-0.056l0.188,0.19
		l0.121-0.039l0.186-0.135l0.077-0.378l0.141-0.218l0.333,0.022l0.077-0.071l0.11-0.472l-0.056-0.333l0.089-0.355l-0.039-0.496
		l0.18-0.257l0.138-0.099l0.099,0.005l0.124,0.317l0.174,0.218h0.231l0.201-0.163l0.526,0.207l0.18-0.135l0.061-0.26l0.256-0.386
		l0.215-0.066l0.254-0.215l0.055-0.316l0.689-0.339l0.1-0.196C110.438,21.599,107.878,20.77,105.125,20.77z"/>
</g>
</svg>
