<?xml version="1.0" encoding="utf-8"?>
<!-- Generator: Adobe Illustrator 16.0.0, SVG Export Plug-In . SVG Version: 6.00 Build 0)  -->
<!DOCTYPE svg PUBLIC "-//W3C//DTD SVG 1.1//EN" "http://www.w3.org/Graphics/SVG/1.1/DTD/svg11.dtd">
<svg version="1.1" id="Layer_1" xmlns="http://www.w3.org/2000/svg" xmlns:xlink="http://www.w3.org/1999/xlink" x="0px" y="0px"
	 width="130px" height="130px" viewBox="0 0 130 130" enable-background="new 0 0 130 130" xml:space="preserve">
<rect fill="none" width="130" height="130"/>
<g>
	
		<rect x="108.322" y="11.211" transform="matrix(0.4105 0.9119 -0.9119 0.4105 75.8473 -92.447)" fill="#4D4D4D" width="2.203" height="2.454"/>
	<path fill="#4D4D4D" d="M107.016,12.362c-0.395,0.185-0.888-0.041-1.094-0.5l-0.8-1.761c-0.206-0.456-0.054-0.979,0.347-1.157
		l4.087-1.854c0.395-0.178,0.886,0.045,1.093,0.504l0.8,1.765c0.205,0.456,0.055,0.971-0.344,1.152L107.016,12.362z"/>
	
		<rect x="99.057" y="15.567" transform="matrix(0.4097 0.9122 -0.9122 0.4097 74.4387 -81.4536)" fill="#4D4D4D" width="2.207" height="2.453"/>
	<path fill="#4D4D4D" d="M97.752,16.721c-0.396,0.178-0.883-0.044-1.094-0.5l-0.799-1.769c-0.209-0.459-0.055-0.971,0.346-1.152
		l4.086-1.854c0.396-0.182,0.889,0.044,1.096,0.504l0.797,1.761c0.212,0.46,0.057,0.975-0.342,1.157L97.752,16.721z"/>
	
		<rect x="117.585" y="6.856" transform="matrix(0.4097 0.9122 -0.9122 0.4097 77.4287 -103.4969)" fill="#4D4D4D" width="2.207" height="2.453"/>
	<path fill="#4D4D4D" d="M62.369,72.551c-1.525,2.184-2.504,7.495,0.016,9.835c2.523,2.339,5.625,2.268,7.749,0.193
		c2.508-2.439,4.697-3.207,6.886-1.02c1.479,1.482,1.479,4.059-0.691,6.172c-2.263,2.205-6.515,3.865-9.535,4.882
		c-3.018,1.008-6.719,2.802-8.612,5c-6.024,6.991-0.428,14.527-10.261,23.909c-8.467,8.081-24.755,8.423-36.337-3.447
		C-0.613,105.572-2.436,91.104,6.989,80.78c5.659-6.19,11.991-7.396,15.126-8.522c3.135-1.123,8.499-2.436,13.147-7.38
		c5.382-5.734,5.968-15.395,11.897-20.992c2.452-2.324,5.136-2.083,7.204-0.048c1.898,1.875,1.805,4.303,0.319,6.375
		c-1.018,1.427-1.965,2.209-2.944,5.004c-0.977,2.803,0.225,7.377,4.701,8.945C59.634,65.582,62.369,72.551,62.369,72.551z"/>
	<polygon fill="#4D4D4D" points="95.051,27.189 43.038,76.536 52.759,86.271 101.402,33.847 	"/>
	<path fill="#FFFFFF" d="M45.346,65.994c-2.375,4.452-7.401,10.175-14.696,12.615c-6.044,2.02-7.631,6.99-4.428,9.96
		c3.032,2.813,8.643,8.1,9.975,13.571c1.155,4.745,0.439,6.731-1.621,9.371c-2.889,3.699-1.812,7.562,1.515,9.438
		c3.577,2.014,6.509,0.441,7.981-1.205c5.956-6.643,3.97-13.044,6.876-19.241c2.265-4.823,4.53-8.252,9.885-10.117
		c2.66-0.927,3.199-3.632-0.172-4.452c-7.629-1.846-9.898-16.14-10.229-19.132C50.099,63.817,47.077,62.746,45.346,65.994z"/>
	<path fill="#4D4D4D" d="M44.504,108.441c-0.802,0.797-2.1,0.797-2.904,0c-0.801-0.801-0.801-2.105,0-2.902
		c0.805-0.805,2.102-0.805,2.904,0C45.307,106.336,45.307,107.641,44.504,108.441z"/>
	<path fill="#4D4D4D" d="M41.721,118.139c-1.173,1.175-3.077,1.175-4.248,0c-1.179-1.171-1.179-3.073,0-4.252
		c1.171-1.175,3.075-1.175,4.248,0C42.894,115.065,42.894,116.968,41.721,118.139z"/>
	<path fill="#4D4D4D" d="M95.051,27.189c0,0,1.26-4.341,1.594-5.787c0.338-1.445,0.812-2.276,2.85-3.27
		c2.26-1.101,19.962-9.319,21.974-10.116c3.035-1.201,5.604,0.493,6.88,3.095c1.203,2.465,0.939,5.464-2.467,7.514
		c-3.151,1.887-5.659,0.916-7.339,2.517c-2.692,2.58-0.688,6.895-6.02,9.349c-4.871,2.231-6.763-0.574-11.12,3.355L95.051,27.189z"
		/>
	<path fill="#FFFFFF" d="M122.128,13.378c-0.796,0.793-2.082,0.793-2.881,0c-0.795-0.798-0.791-2.084,0-2.877
		c0.799-0.797,2.085-0.797,2.881,0C122.921,11.294,122.921,12.58,122.128,13.378z"/>
	<path fill="#FFFFFF" d="M112.867,18.056c-0.795,0.797-2.081,0.797-2.882,0.007c-0.79-0.797-0.79-2.087,0-2.88
		c0.801-0.793,2.087-0.793,2.882,0C113.661,15.976,113.661,17.266,112.867,18.056z"/>
	<path fill="#FFFFFF" d="M104.225,22.011c-0.797,0.793-2.085,0.793-2.877,0c-0.799-0.794-0.799-2.087,0-2.881
		c0.792-0.793,2.08-0.793,2.877,0C105.018,19.924,105.018,21.217,104.225,22.011z"/>
	<path fill="#FFFFFF" d="M34.102,106.206c0.403-0.407,0.316-1.157-0.201-1.672l-7.114-10.179c-0.514-0.516-1.262-0.612-1.672-0.204
		l-4.145,4.147c-0.405,0.408-0.317,1.156,0.201,1.672l8.645,8.645c0.515,0.523,1.266,0.608,1.67,0.204L34.102,106.206z"/>
	<path fill="#4D4D4D" d="M116.28,8.01c-0.396,0.182-0.887-0.048-1.094-0.504l-0.799-1.761c-0.208-0.463-0.057-0.979,0.342-1.156
		l4.09-1.854c0.395-0.178,0.887,0.045,1.094,0.5L120.712,5c0.205,0.46,0.055,0.976-0.344,1.157L116.28,8.01z"/>
	<path fill="#FFFFFF" d="M96.416,28.62L23.72,99.119l-0.506-0.52l72.702-70.498L96.416,28.62z M97.378,29.617l-71.91,71.285
		l0.509,0.508l71.911-71.285L97.378,29.617z M98.602,30.915l-70.668,72.459l0.517,0.505l70.669-72.46L98.602,30.915z
		 M100.191,32.442l-69.894,73.345l0.519,0.497l69.9-73.345L100.191,32.442z"/>
	<path fill="#4D4D4D" d="M31.84,107.096c-0.441,0.438-1.151,0.438-1.588,0l-7.732-7.736c-0.441-0.434-0.441-1.146,0-1.586l0,0
		c0.438-0.438,1.147-0.438,1.586,0l7.735,7.736C32.277,105.946,32.277,106.654,31.84,107.096L31.84,107.096z"/>
	<g>
		<path fill="#4D4D4D" d="M52.296,75.318c-0.086-0.262-0.16-0.52-0.237-0.778L31.943,94.482c0.152,0.186,0.293,0.385,0.443,0.575
			L52.296,75.318z"/>
		<path fill="#4D4D4D" d="M54.478,80.413L35.563,100.26c0.105,0.254,0.171,0.514,0.26,0.77l19.028-19.966
			C54.72,80.853,54.601,80.632,54.478,80.413z"/>
		<path fill="#4D4D4D" d="M53.412,78.284c-0.105-0.241-0.196-0.488-0.295-0.73L33.93,97.225c0.134,0.207,0.277,0.409,0.402,0.621
			L53.412,78.284z"/>
		<path fill="#4D4D4D" d="M29.869,92.146c0.167,0.177,0.332,0.34,0.5,0.522l21.059-20.421c-0.07-0.284-0.127-0.551-0.189-0.825
			L29.869,92.146z"/>
	</g>
</g>
</svg>
