<?xml version="1.0" encoding="utf-8"?>
<!-- Generator: Adobe Illustrator 16.0.0, SVG Export Plug-In . SVG Version: 6.00 Build 0)  -->
<!DOCTYPE svg PUBLIC "-//W3C//DTD SVG 1.1//EN" "http://www.w3.org/Graphics/SVG/1.1/DTD/svg11.dtd">
<svg version="1.1" id="Layer_1" xmlns="http://www.w3.org/2000/svg" xmlns:xlink="http://www.w3.org/1999/xlink" x="0px" y="0px"
	 width="130px" height="130px" viewBox="0 0 130 130" enable-background="new 0 0 130 130" xml:space="preserve">
<rect fill="none" width="130" height="130"/>
<g>
	<path fill="#4D4D4D" d="M51.896,54.757v-0.024c1.271-1.444-0.705-3.595-2.619-5.495v-0.023L29.524,29.979
		c-1.572-1.487-3.664-1.373-5.127,0.176l-6.62,7.209l26.72,24.583L51.896,54.757z M115.998,110.165v-0.015L95.837,91.457
		c-1.577-1.478-4.158-1.378-5.621,0.166l-6.865,7.215l25.514,24.061l7.046-7.22C117.463,114.04,117.494,111.666,115.998,110.165z
		 M64.804,94.72c-5.78-4.436-12.481-10.439-18.331-17.265c-4.107-4.769-7.768-9.812-4.26-13.541L16.074,39.355
		c-3.56,4.711-11.113,26.93,25.101,61.848c38.155,36.822,61.798,27.998,65.782,23.6L81.47,100.809
		C78.111,104.366,73.568,101.426,64.804,94.72z"/>
	<path fill="#4D4D4D" d="M40.636,1.065c-1.43-0.323-2.845,0.579-3.173,2.009l-4.887,21.724c-0.318,1.43,0.577,2.85,2.009,3.172
		c0.608,0.133,1.214,0.057,1.736-0.199c0.703-0.337,1.246-0.988,1.435-1.81l4.877-21.719C42.961,2.812,42.065,1.388,40.636,1.065z
		 M77.309,27.196c-0.703-1.292-2.284-1.781-3.598-1.073l-19.57,10.62c-1.296,0.693-1.767,2.308-1.068,3.59
		c0.682,1.254,2.218,1.743,3.483,1.121l0.104-0.047l19.578-10.62C77.518,30.089,77.997,28.483,77.309,27.196z M60.781,11.566
		c-1.192-0.85-2.843-0.58-3.695,0.613L44.134,30.293c-0.854,1.202-0.579,2.85,0.61,3.695c0.814,0.599,1.857,0.646,2.702,0.242
		c0.388-0.19,0.725-0.479,1-0.845l12.949-18.124C62.248,14.074,61.973,12.425,60.781,11.566z"/>
</g>
</svg>
