<?xml version="1.0" encoding="utf-8"?>
<!-- Generator: Adobe Illustrator 16.0.0, SVG Export Plug-In . SVG Version: 6.00 Build 0)  -->
<!DOCTYPE svg PUBLIC "-//W3C//DTD SVG 1.1//EN" "http://www.w3.org/Graphics/SVG/1.1/DTD/svg11.dtd">
<svg version="1.1" id="Layer_1" xmlns="http://www.w3.org/2000/svg" xmlns:xlink="http://www.w3.org/1999/xlink" x="0px" y="0px"
	 width="130px" height="130px" viewBox="0 0 130 130" enable-background="new 0 0 130 130" xml:space="preserve">
<rect fill="none" width="130" height="130"/>
<g>
	<g>
		<g>
			<g>
				<path fill="#4D4D4D" d="M100.878,93.004c-11.224,0-21.553,1.736-28.389,2.882c-3.311,0.555-6.203,0.957-7.489,0.957
					c-1.289,0-4.179-0.402-7.49-0.957c-6.835-1.146-17.162-2.882-28.391-2.882c-5.604,0-10.865,0.445-15.643,1.323
					c-0.076,2.74-0.071,4.101,0.008,4.807c0.062,0.564,0.131,0.591,0.308,0.659l0.074,0.026c2.659,1.077,3.438,3.922,4.34,7.223
					c1.692,6.187,3.795,13.886,18.894,15.527c1.015,0.104,2.034,0.162,3.036,0.162c3.708,0,8.993-0.753,13.111-4.341
					c4.268-3.719,5.31-7.495,6.075-10.256c0.521-1.884,1.239-5.435,5.677-5.435c4.44,0,5.157,3.551,5.68,5.435
					c0.761,2.761,1.805,6.537,6.07,10.256c4.118,3.588,9.402,4.341,13.113,4.341c1.002,0,2.021-0.058,3.033-0.162
					c15.099-1.642,17.207-9.341,18.899-15.527c0.899-3.301,1.678-6.146,4.338-7.218l0.073-0.031
					c0.175-0.068,0.243-0.095,0.309-0.659c0.081-0.706,0.084-2.066,0.006-4.807C111.745,93.449,106.487,93.004,100.878,93.004z
					 M54.94,112.795c-1.882,3.613-6.093,7.928-15.462,7.928c-0.468,0-0.949-0.011-1.431-0.03
					c-6.101-0.272-10.698-2.323-13.674-6.094c-4.427-5.616-3.818-13.535-3.104-15.627c1.122-3.326,11.469-3.583,14.615-3.583
					c1.022,0,2.024,0.021,2.896,0.068c7.557,0.413,13.158,0.973,16.469,4.472C56.903,101.681,57.508,107.857,54.94,112.795z
					 M105.627,114.599c-2.971,3.771-7.573,5.821-13.674,6.094c-0.481,0.02-0.966,0.03-1.428,0.03
					c-9.375,0-13.583-4.314-15.466-7.928c-2.567-4.938-1.966-11.114-0.303-12.871c3.303-3.494,8.906-4.054,16.466-4.467
					c0.869-0.047,1.87-0.068,2.894-0.068c3.146,0,13.492,0.257,14.617,3.583C109.442,101.063,110.055,108.982,105.627,114.599z"/>
			</g>
		</g>
		<g>
			<g>
				<path fill="#4D4D4D" d="M100.161,13.053C98.356,9.805,83.306,7.269,65,7.269c-18.292,0-33.339,2.531-35.156,5.779h-0.003
					c0,0-10.478,15.083-11.647,35.475c0,4.707,20.957,8.524,46.806,8.524s46.807-3.818,46.807-8.524
					C110.643,28.22,100.251,13.184,100.161,13.053z"/>
				<path fill="#4D4D4D" d="M111.807,48.523H18.194c0,0-16.874,12.981-17.194,23.807c0,6.438,28.656,11.657,64,11.657
					s64-5.22,64-11.657C128.681,61.504,111.807,48.523,111.807,48.523z"/>
			</g>
			<path fill="#4D4D4D" d="M65,81.76c-33.901,0-61.641-4.802-63.853-10.873C1.074,71.367,1.016,71.854,1,72.33
				c0,6.438,28.656,11.657,64,11.657s64-5.22,64-11.657c-0.016-0.477-0.074-0.963-0.149-1.443C126.641,76.958,98.901,81.76,65,81.76
				z"/>
		</g>
	</g>
</g>
</svg>
