<?xml version="1.0" encoding="utf-8"?>
<!-- Generator: Adobe Illustrator 16.0.0, SVG Export Plug-In . SVG Version: 6.00 Build 0)  -->
<!DOCTYPE svg PUBLIC "-//W3C//DTD SVG 1.1//EN" "http://www.w3.org/Graphics/SVG/1.1/DTD/svg11.dtd">
<svg version="1.1" id="Layer_1" xmlns="http://www.w3.org/2000/svg" xmlns:xlink="http://www.w3.org/1999/xlink" x="0px" y="0px"
	 width="130px" height="130px" viewBox="0 0 130 130" enable-background="new 0 0 130 130" xml:space="preserve">
<rect fill="none" width="130" height="130"/>
<g>
	<path fill="#4D4D4D" d="M106.32,102.541c-4.472,4.769-11.852,11.576-20.682,14.088c-0.416,0.119-0.774,0.338-1.117,0.577
		c-1.259-1.29-3.021-2.096-4.967-2.096c-3.833,0-6.947,3.109-6.947,6.947c0,3.827,3.114,6.942,6.947,6.942
		c3.104,0,5.705-2.044,6.6-4.857c0.182,0.026,0.354,0.094,0.546,0.094c0.349,0,0.712-0.047,1.061-0.15
		c12.185-3.464,21.556-13.043,27.546-19.948C115.385,104.054,103.783,101.771,106.32,102.541z"/>
	<path fill="#4D4D4D" d="M65.01,1c-27.874,0-52.32,23.115-52.32,49.47c0,0.094,7.806,0.328,7.806,0
		c0-23.906,23.5-41.769,44.515-41.769c21.014,0,44.509,17.863,44.509,41.769c0,0.343,7.806,0.094,7.806,0
		C117.324,24.115,92.873,1,65.01,1z"/>
	<path fill="#4D4D4D" d="M20.391,51.573c0.078-0.307,0.192-0.936,0.192-0.936H12.84l0.053,0.26c-1.42,0.026-1.639,0.509-1.639,0.509
		c-2.221,3.323-3.968,7.343-5.117,11.836c-1.279,5.039-1.805,10.682-1.362,16.579c0.437,5.902,1.789,11.394,3.812,16.193
		c1.789,4.264,4.124,7.972,6.823,10.926l0.016,0.021c0,0,1.877-0.146,3.125-0.233c1.191-0.089,1.961-0.822,1.961-2.003l0.244,0.037
		c4.212,0.515,7.005-2.294,6.693-6.464c-0.968-13.006-2.86-38.28-3.136-42.029C24.104,53.435,22.788,51.755,20.391,51.573z
		 M123.856,62.504c-1.149-4.499-2.896-8.523-5.112-11.852l-9.449,0.203c0,0-3.411,1.95-3.614,4.665
		c-0.275,3.76-2.158,29.07-3.13,42.096c-0.229,3.12,3.807,6.256,3.807,6.256l9.631,0.416c2.309-2.771,3.832-5.18,5.429-8.96
		c2.013-4.805,3.364-10.307,3.807-16.22C125.671,73.206,125.146,67.559,123.856,62.504z"/>
	<path fill="#4D4D4D" d="M24.312,56.269c-0.208-2.834-1.524-4.514-3.922-4.696c0.078-0.307,0.192-0.936,0.192-0.936h-2.007
		c-6.609,23.292-0.036,48.847,1.742,54.973c0.114-0.261,0.192-0.546,0.192-0.885l0.244,0.037c4.212,0.515,7.005-2.294,6.693-6.464
		C26.48,85.292,24.588,60.018,24.312,56.269z"/>
	<path fill="#4D4D4D" d="M105.681,55.52c-0.275,3.76-2.158,29.07-3.13,42.096c-0.229,3.12,3.807,6.256,3.807,6.256
		s1.034,0.058,2.418,0.125c2.221-8.222,7.743-32.05,3.76-53.209l-3.24,0.067C109.295,50.855,105.884,52.805,105.681,55.52z"/>
</g>
</svg>
