<?xml version="1.0" encoding="utf-8"?>
<!-- Generator: Adobe Illustrator 16.0.0, SVG Export Plug-In . SVG Version: 6.00 Build 0)  -->
<!DOCTYPE svg PUBLIC "-//W3C//DTD SVG 1.1//EN" "http://www.w3.org/Graphics/SVG/1.1/DTD/svg11.dtd">
<svg version="1.1" id="Layer_1" xmlns="http://www.w3.org/2000/svg" xmlns:xlink="http://www.w3.org/1999/xlink" x="0px" y="0px"
	 width="130px" height="130px" viewBox="0 0 130 130" enable-background="new 0 0 130 130" xml:space="preserve">
<rect fill="none" width="130" height="130"/>
<g>
	<path fill="#4D4D4D" d="M120.59,49.468c-0.011-0.184-0.032-0.363-0.048-0.546c-0.058-0.783-0.126-1.56-0.221-2.332
		c-0.005-0.047-0.005-0.1-0.011-0.147c0,0.026,0,0.063,0.006,0.1C117.181,20.92,93.538,1,64.827,1
		C33.988,1,8.985,23.987,8.985,52.341c0,3.917,0.199,7.715,0.619,11.38c-0.042-0.31-0.094-0.62-0.131-0.935
		c0.063,0.593,0.147,1.171,0.226,1.753c0.053,0.457,0.105,0.909,0.168,1.36c0.189,1.287,0.399,2.568,0.657,3.813h3.324
		c-0.468-2.248-0.783-4.591-1.003-6.985c-0.105-1.087-0.179-2.185-0.236-3.292c-0.032-0.447-0.063-0.877-0.085-1.324
		c-0.058-1.554-0.094-3.12-0.094-4.716c0-25.781,23.459-45.175,52.396-45.175c0.877,0,1.743,0.021,2.609,0.052
		c0.289,0.016,0.578,0.037,0.867,0.053c0.572,0.031,1.14,0.063,1.706,0.11c0.342,0.026,0.678,0.063,1.014,0.094
		c0.515,0.053,1.02,0.1,1.528,0.163c0.362,0.047,0.715,0.1,1.071,0.152c0.479,0.063,0.956,0.131,1.424,0.205
		c0.372,0.063,0.735,0.131,1.098,0.194c0.456,0.089,0.913,0.173,1.365,0.268c0.362,0.073,0.735,0.157,1.103,0.241
		c0.437,0.095,0.872,0.2,1.303,0.305c0.373,0.095,0.74,0.194,1.103,0.289c0.426,0.121,0.846,0.236,1.266,0.362
		c0.362,0.105,0.725,0.215,1.087,0.331c0.41,0.131,0.819,0.268,1.224,0.404c0.362,0.126,0.72,0.247,1.077,0.373
		c0.399,0.147,0.788,0.299,1.187,0.457c0.353,0.131,0.704,0.268,1.051,0.415c0.389,0.157,0.767,0.326,1.145,0.488
		c0.352,0.158,0.698,0.305,1.045,0.462c0.368,0.173,0.73,0.357,1.093,0.536c0.341,0.168,0.683,0.331,1.024,0.504
		c0.356,0.184,0.709,0.378,1.061,0.572c0.331,0.184,0.667,0.357,0.992,0.546c0.342,0.194,0.678,0.404,1.02,0.609
		c0.32,0.199,0.646,0.389,0.966,0.588c0.252,0.158,0.494,0.331,0.74,0.494c0.725,0.478,1.434,0.972,2.127,1.481
		c0.273,0.2,0.547,0.389,0.809,0.594c0.337,0.257,0.662,0.525,0.987,0.793c0.258,0.205,0.521,0.404,0.768,0.62
		c0.325,0.273,0.635,0.551,0.955,0.835c0.242,0.215,0.488,0.425,0.725,0.651c0.311,0.284,0.609,0.578,0.909,0.872
		c0.23,0.226,0.462,0.446,0.688,0.678c0.294,0.299,0.583,0.609,0.872,0.914c0.21,0.231,0.431,0.467,0.641,0.699
		c0.278,0.315,0.557,0.635,0.83,0.956c0.194,0.242,0.399,0.478,0.594,0.725c0.262,0.326,0.53,0.662,0.782,1.003
		c0.184,0.236,0.367,0.478,0.546,0.725c0.252,0.352,0.504,0.698,0.746,1.056c0.168,0.236,0.33,0.488,0.488,0.735
		c0.236,0.362,0.478,0.73,0.703,1.103c0.147,0.242,0.295,0.488,0.437,0.735c0.226,0.383,0.446,0.767,0.661,1.155
		c0.126,0.236,0.247,0.478,0.373,0.72c0.216,0.41,0.426,0.819,0.625,1.234c0.1,0.221,0.194,0.431,0.294,0.651
		c0.205,0.452,0.41,0.898,0.599,1.355c0.063,0.163,0.121,0.32,0.189,0.483c0.94,2.379,1.67,4.858,2.158,7.421
		c0.026,0.131,0.058,0.257,0.079,0.389c0.089,0.525,0.168,1.056,0.247,1.586c0.257,1.875,0.409,3.787,0.409,5.74
		c0,5.74-0.315,11.238-1.323,16.317h3.592c0.909-5.431,1.177-11.276,1.177-17.373C120.679,51.375,120.647,50.424,120.59,49.468z"/>
	<path fill="#4D4D4D" d="M8.712,63.916c-0.272-1.843-0.698-5.96-0.604-8.051c0.084-1.843,0.935-2.138,1.896-2.327
		c0.83-0.158,1.775-0.32,2.353-0.347c1.324-0.068,1.46,0.84,1.334,1.644c-0.341,2.2-0.504,5.588-0.031,8.334L8.712,63.916z"/>
	<path fill="#4D4D4D" d="M120.679,63.916c0.273-1.843,0.698-5.96,0.604-8.051c-0.089-1.843-0.935-2.138-1.896-2.327
		c-0.83-0.158-1.775-0.32-2.353-0.347c-1.323-0.068-1.455,0.84-1.334,1.644c0.341,2.2,0.509,5.588,0.036,8.334L120.679,63.916z"/>
	<path fill="#4D4D4D" d="M99.173,69.215c-0.819,4.228-6.376,32.691-9.228,47.333c-0.919,4.706,1.901,8.271,6.796,8.251
		c4.107-0.021,7.153-0.084,7.153-0.084l11.055-56.708c0,0-3.298-1.229-7.788-2.952C102.681,63.333,99.992,65.034,99.173,69.215z"/>
	<path fill="#4D4D4D" d="M125.494,80.568c-0.703-5.257-2.169-10.067-4.27-14.138c-0.011-0.01-0.011-0.016-0.021-0.036
		c0,0-2.904-0.562-3.771-0.73c-0.856-0.173-2.248-0.078-2.537,1.444c-0.268,1.345-11.107,56.966-11.396,58.426
		c-0.283,1.47,0.525,2.494,1.943,2.772c1.429,0.278,3.556,0.693,3.556,0.693c0.011-0.005,0.016-0.016,0.026-0.021
		c3.481-2.987,6.644-6.89,9.274-11.501c2.163-3.797,3.96-8.082,5.277-12.714c0.011-0.016,0.017-0.032,0.021-0.048
		c0.021-0.047,0.026-0.095,0.042-0.142c0.042-0.146,0.073-0.299,0.115-0.446c0.205-0.751,0.404-1.507,0.589-2.279
		c-0.026,0.047-0.059,0.1-0.084,0.147c0.188-0.804,0.409-1.581,0.566-2.405C126.125,92.952,126.287,86.477,125.494,80.568z"/>
	<path fill="#4D4D4D" d="M30.822,69.215c0.829,4.228,6.381,32.691,9.232,47.333c0.919,4.706-1.901,8.271-6.796,8.251
		c-4.107-0.021-7.153-0.084-7.153-0.084L15.051,68.007c0,0,3.298-1.229,7.788-2.952C27.319,63.333,30.008,65.034,30.822,69.215z"/>
	<path fill="#4D4D4D" d="M4.506,80.568c0.703-5.257,2.163-10.067,4.27-14.138c0.011-0.01,0.011-0.016,0.021-0.036
		c0,0,2.91-0.562,3.766-0.73c0.861-0.173,2.253-0.078,2.542,1.444c0.268,1.345,11.107,56.966,11.391,58.426
		c0.289,1.47-0.52,2.494-1.942,2.772c-1.424,0.278-3.551,0.693-3.551,0.693c-0.011-0.005-0.016-0.016-0.026-0.021
		c-3.481-2.987-6.644-6.89-9.269-11.501c-2.169-3.797-3.966-8.082-5.289-12.714c-0.005-0.016-0.011-0.032-0.021-0.048
		c-0.016-0.047-0.021-0.095-0.037-0.142c-0.042-0.146-0.079-0.299-0.115-0.446c-0.205-0.751-0.41-1.507-0.589-2.279
		c0.026,0.047,0.059,0.1,0.084,0.147c-0.188-0.804-0.409-1.581-0.566-2.405C3.875,92.952,3.713,86.477,4.506,80.568z"/>
</g>
</svg>
