<?xml version="1.0" encoding="utf-8"?>
<!-- Generator: Adobe Illustrator 16.0.0, SVG Export Plug-In . SVG Version: 6.00 Build 0)  -->
<!DOCTYPE svg PUBLIC "-//W3C//DTD SVG 1.1//EN" "http://www.w3.org/Graphics/SVG/1.1/DTD/svg11.dtd">
<svg version="1.1" id="Layer_1" xmlns="http://www.w3.org/2000/svg" xmlns:xlink="http://www.w3.org/1999/xlink" x="0px" y="0px"
	 width="130px" height="130px" viewBox="0 0 130 130" enable-background="new 0 0 130 130" xml:space="preserve">
<rect fill="none" width="130" height="130"/>
<g>
	<g>
		<path fill="#4D4D4D" d="M116.021,56.344L26.987,99.463c0.007,0.014,0.009,0.024,0.016,0.035c2.277,4.704,6.98,7.443,11.88,7.443
			c1.927,0,3.887-0.428,5.739-1.321l65.292-31.627c6.556-3.175,9.297-11.067,6.121-17.621
			C116.031,56.361,116.024,56.353,116.021,56.344z"/>
	</g>
	<g>
		<path fill="#4D4D4D" d="M102.109,30.265c-3.25-6.377-11.015-9.024-17.486-5.884l-65.29,31.626
			c-6.472,3.136-9.216,10.865-6.229,17.366L102.109,30.265z"/>
	</g>
	<g>
		<path fill="#4D4D4D" d="M127.678,34.288c-2.276-4.704-6.979-7.443-11.876-7.443c-1.929,0-3.889,0.425-5.742,1.323L8.441,77.385
			c-6.556,3.176-9.295,11.063-6.12,17.619c2.277,4.703,6.981,7.443,11.878,7.443c1.929,0,3.889-0.426,5.741-1.324l101.618-49.216
			C128.114,48.731,130.854,40.843,127.678,34.288z M107.589,52.05c-2.255,1.053-4.248-0.841-6.01-2.508
			c-1.037-0.98-2.464-2.336-3.085-2.032c-1.342,0.623-1.944,1.03-2.583,1.462c-0.696,0.469-1.414,0.954-2.94,1.665
			c-0.63,0.292-0.53,2.215-0.458,3.62c0.121,2.395,0.26,5.107-1.979,6.148c-2.272,1.058-4.313-0.955-6.124-2.73
			c-1.018-1-2.572-2.511-3.164-2.224c-0.665,0.311-0.76,1.318-0.839,2.939c-0.089,1.869-0.201,4.195-2.356,5.199
			c-1.563,0.729-2.474,0.94-3.274,1.125c-0.74,0.174-1.44,0.337-2.751,0.945c-2.213,1.037-4.236-0.775-5.859-2.229
			c-1.046-0.938-2.358-2.104-2.988-1.802c-0.661,0.309-0.639,1.907-0.619,3.318c0.031,2.101,0.066,4.719-2.145,5.745
			c-2.193,1.031-4.148-0.623-5.719-1.944c-1.306-1.101-2.286-1.85-2.907-1.57c-0.557,0.258-0.123,3.425,0.042,4.616
			c0.423,3.092,0.861,6.287-1.46,7.363c-1.611,0.751-2.581,0.895-3.439,1.02c-0.775,0.115-1.444,0.214-2.706,0.8
			c-2.26,1.055-4.336-0.986-6.16-2.786c-1.03-1.017-2.585-2.567-3.202-2.274c-0.623,0.288-0.498,2.279-0.408,3.734
			c0.154,2.458,0.326,5.246-1.931,6.294c-0.178,0.084-0.368,0.123-0.555,0.123c-0.496,0-0.974-0.281-1.196-0.764
			c-0.308-0.658-0.02-1.444,0.641-1.751c0.624-0.29,0.5-2.283,0.408-3.739c-0.152-2.455-0.326-5.24,1.927-6.289
			c2.266-1.05,4.342,0.984,6.17,2.788c0.967,0.958,2.605,2.539,3.193,2.272c1.609-0.746,2.578-0.89,3.436-1.018
			c0.774-0.114,1.446-0.211,2.71-0.802c0.556-0.257,0.121-3.422-0.041-4.613c-0.426-3.092-0.863-6.289,1.46-7.365
			c2.193-1.031,4.148,0.62,5.719,1.944c1.306,1.103,2.29,1.862,2.906,1.569c0.663-0.308,0.641-1.906,0.621-3.316
			c-0.03-2.101-0.068-4.717,2.141-5.747c2.215-1.028,4.239,0.775,5.862,2.229c1.048,0.938,2.341,2.095,2.988,1.802
			c1.559-0.725,2.466-0.937,3.266-1.121c0.742-0.174,1.442-0.337,2.757-0.949c0.665-0.309,0.76-1.314,0.837-2.934
			c0.09-1.871,0.2-4.199,2.36-5.205c2.264-1.046,4.316,0.96,6.124,2.732c1.02,1,2.565,2.515,3.162,2.222
			c0.63-0.293,0.53-2.215,0.458-3.62c-0.121-2.394-0.26-5.106,1.979-6.148c1.337-0.623,1.94-1.031,2.579-1.46
			c0.695-0.469,1.416-0.956,2.944-1.667c2.246-1.046,4.245,0.841,6.012,2.506c1.039,0.984,2.485,2.314,3.083,2.035
			c0.658-0.306,1.444-0.024,1.752,0.639C108.535,50.958,108.247,51.744,107.589,52.05z"/>
	</g>
</g>
</svg>
