<?xml version="1.0" encoding="utf-8"?>
<!-- Generator: Adobe Illustrator 16.0.0, SVG Export Plug-In . SVG Version: 6.00 Build 0)  -->
<!DOCTYPE svg PUBLIC "-//W3C//DTD SVG 1.1//EN" "http://www.w3.org/Graphics/SVG/1.1/DTD/svg11.dtd">
<svg version="1.1" id="Layer_1" xmlns="http://www.w3.org/2000/svg" xmlns:xlink="http://www.w3.org/1999/xlink" x="0px" y="0px"
	 width="130px" height="130px" viewBox="0 0 130 130" enable-background="new 0 0 130 130" xml:space="preserve">
<rect fill="none" width="130" height="130"/>
<g>
	<g>
		<g>
			<path fill="#4D4D4D" d="M65.003,129c-4.154,0-7.514-3.361-7.514-7.512V87.265c0-4.15,3.359-7.512,7.514-7.512
				c4.143,0,7.512,3.361,7.512,7.512v34.224C72.516,125.639,69.146,129,65.003,129z"/>
		</g>
	</g>
	<path fill="#4D4D4D" d="M64.997,1c-18.82,0-34.22,16.771-34.22,37.267V50.84v11.49v28.246c0,5.855,4.792,10.647,10.646,10.647
		h47.151c5.857,0,10.648-4.792,10.648-10.647V62.33V50.84V38.267C99.223,17.771,83.824,1,64.997,1z M58.328,79.116
		c0,3.111-2.528,5.635-5.637,5.635c-3.111,0-5.635-2.523-5.635-5.635V35.93c0-3.106,2.523-5.635,5.635-5.635
		c3.108,0,5.637,2.528,5.637,5.635V79.116z M82.943,79.116c0,3.111-2.523,5.635-5.635,5.635s-5.635-2.523-5.635-5.635V35.93
		c0-3.106,2.523-5.635,5.635-5.635s5.635,2.528,5.635,5.635V79.116z"/>
</g>
</svg>
