<?xml version="1.0" encoding="utf-8"?>
<!-- Generator: Adobe Illustrator 16.0.0, SVG Export Plug-In . SVG Version: 6.00 Build 0)  -->
<!DOCTYPE svg PUBLIC "-//W3C//DTD SVG 1.1//EN" "http://www.w3.org/Graphics/SVG/1.1/DTD/svg11.dtd">
<svg version="1.1" id="Layer_1" xmlns="http://www.w3.org/2000/svg" xmlns:xlink="http://www.w3.org/1999/xlink" x="0px" y="0px"
	 width="130px" height="130px" viewBox="0 0 130 130" enable-background="new 0 0 130 130" xml:space="preserve">
<rect fill="none" width="130" height="130"/>
<g>
	<path fill="#4D4D4D" d="M84.413,64.956H44.931h-3.196l0.879,3.071l16.165,56.525c0.599,2.055,2.17,3.625,4.207,4.209
		c0.552,0.158,1.119,0.238,1.688,0.238c2.721,0,5.144-1.829,5.894-4.447l16.162-56.525l0.879-3.071H84.413z"/>
	<g>
		<path fill="#4D4D4D" d="M93.952,39.128h4.713h0.722v0.518c0.016-0.317,0.046-0.631,0.046-0.953c0-10.246-8.334-18.58-18.577-18.58
			c-10.244,0-18.577,8.334-18.577,18.58c0,0.146,0.018,0.289,0.022,0.436H93.952z"/>
		<g>
			<path fill="#4D4D4D" d="M64.99,28.381c3.383-5.187,9.224-8.629,15.865-8.629c0.673,0,1.336,0.038,1.989,0.106
				c0.008-0.215,0.029-0.424,0.029-0.641C82.874,9.16,74.718,1,64.657,1c-10.06,0-18.216,8.16-18.216,18.218
				c0,0.252,0.027,0.494,0.037,0.744c0.873-0.123,1.759-0.21,2.664-0.21C55.78,19.752,61.614,23.197,64.99,28.381z"/>
		</g>
	</g>
	<g>
		<path fill="#4D4D4D" d="M36.289,64.365c-2.795,0-5.073-2.275-5.073-5.073V39.488h67.808v19.804c0,2.798-2.273,5.073-5.071,5.073
			H36.289z"/>
		<g>
			<path fill="#4D4D4D" d="M30.856,39.851v-0.723h0.723h4.71h31.409c0.006-0.146,0.024-0.29,0.024-0.436
				c0-10.246-8.334-18.58-18.58-18.58c-10.241,0-18.575,8.334-18.575,18.58c0,1.078,0.112,2.127,0.289,3.153V39.851z"/>
		</g>
	</g>
</g>
</svg>
