<?xml version="1.0" encoding="utf-8"?>
<!-- Generator: Adobe Illustrator 16.0.0, SVG Export Plug-In . SVG Version: 6.00 Build 0)  -->
<!DOCTYPE svg PUBLIC "-//W3C//DTD SVG 1.1//EN" "http://www.w3.org/Graphics/SVG/1.1/DTD/svg11.dtd">
<svg version="1.1" id="Layer_1" xmlns="http://www.w3.org/2000/svg" xmlns:xlink="http://www.w3.org/1999/xlink" x="0px" y="0px"
	 width="130px" height="130px" viewBox="0 0 130 130" enable-background="new 0 0 130 130" xml:space="preserve">
<rect fill="none" width="130" height="130"/>
<path fill="#4D4D4D" d="M124.801,19.276H5.191C2.88,19.276,1,21.145,1,23.441v83.122c0,2.294,1.88,4.16,4.191,4.16h119.609
	c2.313,0,4.199-1.866,4.199-4.16V23.441C129,21.145,127.114,19.276,124.801,19.276z M33.819,38.862
	c6.521,0,11.812,5.29,11.812,11.808c0,6.531-5.292,11.816-11.812,11.816c-6.526,0-11.807-5.285-11.807-11.816
	C22.013,44.152,27.293,38.862,33.819,38.862z M49.103,91.143H18.659c-1.727,0-2.799-1.374-2.367-3.055c0,0,0.059-0.424,0.248-1.13
	c1.06-4.54,3.59-13.575,5.217-15.918c3.057-4.384,8.383-4.199,8.383-4.199h5.73c0,0,7.207-0.219,9.739,4.418
	c1.876,2.362,4.749,12.09,5.704,16.196l0.127,0.643C51.886,89.773,50.839,91.143,49.103,91.143z M112.295,81.97
	c0,0.697-0.575,1.271-1.267,1.271H74.243c-0.696,0-1.267-0.574-1.267-1.271v-1.943c0-0.701,0.57-1.271,1.267-1.271h36.785
	c0.691,0,1.267,0.569,1.267,1.271V81.97z M112.295,65.975c0,0.696-0.575,1.271-1.267,1.271H74.243c-0.696,0-1.267-0.574-1.267-1.271
	V64.03c0-0.696,0.57-1.267,1.267-1.267h36.785c0.691,0,1.267,0.57,1.267,1.267V65.975z M112.295,49.978
	c0,0.697-0.575,1.267-1.267,1.267H74.243c-0.696,0-1.267-0.569-1.267-1.267v-1.943c0-0.696,0.57-1.271,1.267-1.271h36.785
	c0.691,0,1.267,0.575,1.267,1.271V49.978z"/>
</svg>
