<?xml version="1.0" encoding="utf-8"?>
<!-- Generator: Adobe Illustrator 16.0.0, SVG Export Plug-In . SVG Version: 6.00 Build 0)  -->
<!DOCTYPE svg PUBLIC "-//W3C//DTD SVG 1.1//EN" "http://www.w3.org/Graphics/SVG/1.1/DTD/svg11.dtd">
<svg version="1.1" id="Layer_1" xmlns="http://www.w3.org/2000/svg" xmlns:xlink="http://www.w3.org/1999/xlink" x="0px" y="0px"
	 width="130px" height="130px" viewBox="0 0 130 130" enable-background="new 0 0 130 130" xml:space="preserve">
<rect fill="none" width="130" height="130"/>
<g>
	<path fill="#4D4D4D" d="M115.659,1H4.667C2.633,1,0.992,2.642,0.992,4.669v110.985c0,2.028,1.641,3.669,3.675,3.669h13.872v-7.339
		H8.331V8.34H111.99v10.207h7.339V4.669C119.329,2.642,117.688,1,115.659,1z"/>
	<path fill="#4D4D4D" d="M17.875,17.882V129h111.133V17.882H17.875z M97.648,92.788c-0.013,2.685-2.182,4.854-4.857,4.854H65.294
		c-2.682,0-4.857-2.176-4.857-4.857c0-2.69,2.176-4.86,4.857-4.86h15.742L50.869,57.768c-1.894-1.902-1.894-4.972,0-6.868
		c1.888-1.896,4.969-1.896,6.862,0l30.22,30.213l0.029-15.831c0-2.679,2.17-4.844,4.852-4.844h0.012
		c2.682,0.004,4.852,2.179,4.852,4.858L97.648,92.788z"/>
</g>
</svg>
