<?xml version="1.0" encoding="utf-8"?>
<!-- Generator: Adobe Illustrator 16.0.0, SVG Export Plug-In . SVG Version: 6.00 Build 0)  -->
<!DOCTYPE svg PUBLIC "-//W3C//DTD SVG 1.1//EN" "http://www.w3.org/Graphics/SVG/1.1/DTD/svg11.dtd">
<svg version="1.1" id="Layer_1" xmlns="http://www.w3.org/2000/svg" xmlns:xlink="http://www.w3.org/1999/xlink" x="0px" y="0px"
	 width="130px" height="130px" viewBox="0 0 130 130" enable-background="new 0 0 130 130" xml:space="preserve">
<rect fill="none" width="130" height="130"/>
<g>
	<path fill="#4D4D4D" d="M125.87,65.81l0.202-0.004c0-0.805-0.214-1.596-0.62-2.283l-19.466-33.388
		c-0.769-1.308-2.133-2.11-3.609-2.11H76.854v8.792h23.153l16.9,28.993H88.173c-2.219,0-3.729,2.319-4.288,4.584l-2.001,8.091
		c-0.559,2.26-2.831,4.107-5.048,4.107H53.15c-2.214,0-4.487-1.848-5.04-4.107l-1.999-8.091c-0.553-2.266-2.065-4.584-4.288-4.584
		H13.106l17.056-28.993h7.321h11.848h3.819v-8.792h-3.819H37.483h-9.689c-1.467,0-2.825,0.794-3.597,2.103l-19.64,33.38
		c-0.409,0.69-0.623,1.487-0.623,2.298l0.202,0.004H3.911l0.022,58.739c0,2.464,1.891,4.451,4.218,4.451h113.691
		c2.332,0,4.229-1.987,4.229-4.451l0.017-58.739H125.87z"/>
	<path fill="#4D4D4D" d="M93.797,41.006c-2.686-2.698-9.462-2.159-12.186,0.527L70.27,52.871v-46.2C70.27,2.923,68.421,1,64.602,1
		c-3.82,0-5.674,1.917-5.674,5.671v46.2L48.017,40.962c-2.713-2.681-7.088-2.659-9.771,0.044c-2.691,2.708-2.677,7.067,0.036,9.747
		l21.902,21.63c1.235,1.899,3.368,3.169,5.806,3.169c2.397,0,4.509-1.219,5.752-3.076l22.005-21.723
		C96.462,48.079,96.481,43.713,93.797,41.006z"/>
</g>
</svg>
