<?xml version="1.0" encoding="utf-8"?>
<!-- Generator: Adobe Illustrator 16.0.0, SVG Export Plug-In . SVG Version: 6.00 Build 0)  -->
<!DOCTYPE svg PUBLIC "-//W3C//DTD SVG 1.1//EN" "http://www.w3.org/Graphics/SVG/1.1/DTD/svg11.dtd">
<svg version="1.1" id="Layer_1" xmlns="http://www.w3.org/2000/svg" xmlns:xlink="http://www.w3.org/1999/xlink" x="0px" y="0px"
	 width="130px" height="130px" viewBox="0 0 130 130" enable-background="new 0 0 130 130" xml:space="preserve">
<rect fill="none" width="130" height="130"/>
<g>
	<path fill="#4D4D4D" d="M112.733,26.126H83.662c-3.49,0-6.311,2.828-6.311,6.321c0,3.485,2.82,6.313,6.311,6.313h22.756v77.617
		H23.571V38.76h22.645c3.49,0,6.311-2.828,6.311-6.313c0-3.493-2.82-6.321-6.311-6.321H17.262c-3.485,0-6.315,2.828-6.315,6.321
		v90.243c0,3.487,2.83,6.31,6.315,6.31h95.472c3.484,0,6.32-2.822,6.32-6.31V32.447C119.054,28.954,116.218,26.126,112.733,26.126z"
		/>
	<path fill="#4D4D4D" d="M85.875,71.826c-1.639-1.65-4.294-1.664-5.953-0.029L69.217,82.405V15.847C69.217,7.656,62.598,1,54.474,1
		H43.949c-2.325,0-4.208,1.88-4.208,4.208c0,2.325,1.883,4.21,4.208,4.21h10.524c3.484,0,6.32,2.882,6.32,6.43v66.591L50.036,71.797
		c-1.649-1.635-4.31-1.625-5.948,0.031c-1.639,1.646-1.623,4.316,0.026,5.954l16.994,16.812c0.628,1.546,2.122,2.645,3.895,2.645
		c1.776,0,3.282-1.114,3.905-2.675l16.94-16.782C87.503,76.145,87.52,73.474,85.875,71.826z"/>
</g>
</svg>
