<?xml version="1.0" encoding="utf-8"?>
<!-- Generator: Adobe Illustrator 16.0.0, SVG Export Plug-In . SVG Version: 6.00 Build 0)  -->
<!DOCTYPE svg PUBLIC "-//W3C//DTD SVG 1.1//EN" "http://www.w3.org/Graphics/SVG/1.1/DTD/svg11.dtd">
<svg version="1.1" id="Layer_1" xmlns="http://www.w3.org/2000/svg" xmlns:xlink="http://www.w3.org/1999/xlink" x="0px" y="0px"
	 width="130px" height="130px" viewBox="0 0 130 130" enable-background="new 0 0 130 130" xml:space="preserve">
<rect fill="none" width="130" height="130"/>
<g>
	<path fill="#4D4D4D" d="M122.271,63.685c-3.718,0-6.74,2.98-6.74,6.654v5.503H14.25v-5.463c0-3.699-2.797-6.694-6.516-6.694
		S1,66.665,1,70.339v47.42c0,3.677,3.017,6.662,6.735,6.662h114.536c3.719,0,6.729-2.985,6.729-6.662v-47.42
		C129,66.665,125.989,63.685,122.271,63.685z"/>
	<path fill="#4D4D4D" d="M86.929,37.671c-2.116-2.12-5.577-2.144-7.73-0.032l-9.71,7.962V10.918c0-2.945-1.524-5.339-4.541-5.339
		c-3.022,0-6.201,2.394-6.201,5.348v34.69l-8.013-7.979c-2.147-2.108-5.604-2.091-7.73,0.032c-2.126,2.125-2.111,5.556,0.037,7.66
		l17.314,16.992c0.979,1.494,2.666,2.489,4.593,2.489c1.896,0,3.567-0.963,4.546-2.414l17.404-17.067
		C89.044,43.227,89.056,39.796,86.929,37.671z"/>
</g>
</svg>
