<?xml version="1.0" encoding="utf-8"?>
<!-- Generator: Adobe Illustrator 16.0.0, SVG Export Plug-In . SVG Version: 6.00 Build 0)  -->
<!DOCTYPE svg PUBLIC "-//W3C//DTD SVG 1.1//EN" "http://www.w3.org/Graphics/SVG/1.1/DTD/svg11.dtd">
<svg version="1.1" id="Layer_1" xmlns="http://www.w3.org/2000/svg" xmlns:xlink="http://www.w3.org/1999/xlink" x="0px" y="0px"
	 width="130px" height="130px" viewBox="0 0 130 130" enable-background="new 0 0 130 130" xml:space="preserve">
<rect fill="none" width="130" height="130"/>
<path fill="#4D4D4D" d="M71.189,44.031c-10.661-7.288-19.602,2.745-30.149,20.487c0,0,17.512-15.659,15.587-7.121
	c-1.925,8.544-19.371,50.878-20.251,56.084c-1.502,8.871,7.746,29.835,37.389,0.251c0,0-5.795,1.77-12.083,2.392
	c-6.303,0.628-3.405-10.251,3.774-25.941C72.627,74.491,81.857,51.313,71.189,44.031z M93.697,15.434
	C92.82,6.631,84.977,0.206,76.184,1.08c-8.824,0.881-15.248,8.724-14.371,17.53c0.874,8.8,8.72,15.228,17.546,14.352
	C88.152,32.084,94.574,24.238,93.697,15.434z"/>
</svg>
