<?xml version="1.0" encoding="utf-8"?>
<!-- Generator: Adobe Illustrator 16.0.0, SVG Export Plug-In . SVG Version: 6.00 Build 0)  -->
<!DOCTYPE svg PUBLIC "-//W3C//DTD SVG 1.1//EN" "http://www.w3.org/Graphics/SVG/1.1/DTD/svg11.dtd">
<svg version="1.1" id="Layer_1" xmlns="http://www.w3.org/2000/svg" xmlns:xlink="http://www.w3.org/1999/xlink" x="0px" y="0px"
	 width="130px" height="130px" viewBox="0 0 130 130" enable-background="new 0 0 130 130" xml:space="preserve">
<rect fill="none" width="130" height="130"/>
<path fill="#4D4D4D" d="M89.792,11.264c-13.687-13.684-35.893-13.684-49.586,0c-13.651,13.65-13.651,35.899,0,49.557
	c1.394,1.39,2.877,2.656,4.663,3.923c0.496,0.277,0.991,0.583,1.429,0.926c3.829,2.905,6.018,7.293,6.018,12.082v38.589
	c0,6.976,5.686,12.659,12.671,12.659c3.154,0,6.144-1.138,8.461-3.206l0.555-0.528c2.384-2.381,3.684-5.559,3.684-8.925v-0.688
	L79.774,113c0.219-0.259,0.396-1.079,0.396-1.826v-1.744c0-0.752-0.177-1.584-0.396-1.829l-2.089-2.655v-1.323l4.062-2.894
	c0.219-0.245,0.401-1.072,0.401-1.824v-1.749c0-0.749-0.183-1.569-0.401-1.818l-4.062-2.894v-0.967l2.371-2.71
	c0.214-0.251,0.396-1.069,0.396-1.831v-1.743c0-0.748-0.182-1.57-0.396-1.829l-2.371-2.703v-2.909c0-4.758,2.221-9.209,6.015-12.082
	c0.475-0.343,0.936-0.648,1.607-1.081c1.584-1.111,3.094-2.378,4.484-3.768C103.446,47.163,103.446,24.914,89.792,11.264z
	 M73.459,32.238c-2.271,2.272-5.27,3.497-8.473,3.525c-3.169,0-6.175-1.253-8.438-3.525c-4.658-4.66-4.658-12.223,0-16.882
	c4.654-4.656,12.251-4.656,16.911,0C78.11,20.015,78.11,27.578,73.459,32.238z"/>
</svg>
