<?xml version="1.0" encoding="utf-8"?>
<!-- Generator: Adobe Illustrator 16.0.0, SVG Export Plug-In . SVG Version: 6.00 Build 0)  -->
<!DOCTYPE svg PUBLIC "-//W3C//DTD SVG 1.1//EN" "http://www.w3.org/Graphics/SVG/1.1/DTD/svg11.dtd">
<svg version="1.1" id="Layer_1" xmlns="http://www.w3.org/2000/svg" xmlns:xlink="http://www.w3.org/1999/xlink" x="0px" y="0px"
	 width="130px" height="130px" viewBox="0 0 130 130" enable-background="new 0 0 130 130" xml:space="preserve">
<rect fill="none" width="130" height="130"/>
<g>
	<path fill="#4D4D4D" d="M67.823,38.076c-4.614-13.385-19.212-20.5-32.6-15.886c-13.348,4.594-20.476,19.225-15.877,32.575
		c0.469,1.36,1.039,2.671,1.807,4.071c0.239,0.344,0.466,0.703,0.643,1.066c1.588,3.139,1.62,6.728,0.085,9.872l-19.947,41.33
		c-2.235,4.59-0.319,10.146,4.271,12.384c0.224,0.109,0.461,0.172,0.69,0.261l-0.016,0.033c0.16,0.062,0.329,0.095,0.491,0.149
		c0.234,0.077,0.466,0.154,0.705,0.214c0.291,0.072,0.583,0.117,0.877,0.162c0.231,0.035,0.458,0.077,0.688,0.092
		c0.342,0.025,0.681,0.013,1.021,0c0.188-0.007,0.374,0.003,0.559-0.017c0.53-0.053,1.059-0.145,1.577-0.292l0.533-0.169
		c2.329-0.803,4.203-2.478,5.282-4.685l0.047-0.098l0.06-0.029l-0.021,0.047l2.673-1.29c0.227-0.1,0.608-0.589,0.848-1.077
		l0.556-1.146c0.241-0.493,0.394-1.102,0.328-1.331l-0.628-2.905l-0.052,0.107l-0.015-0.067l0.179-0.363l3.939-0.658
		c0.222-0.09,0.608-0.573,0.85-1.071l0.559-1.146c0.241-0.493,0.383-1.091,0.318-1.325l-1.908-3.511l0.074-0.157l2.828-1.19
		c0.222-0.1,0.604-0.578,0.848-1.076l0.558-1.151c0.242-0.488,0.384-1.087,0.326-1.325l-0.807-2.953l0.805-1.651
		c1.524-3.13,11.994-21.309,15.41-21.981c0.421-0.069,0.822-0.124,1.403-0.194c1.395-0.225,2.795-0.573,4.153-1.036
		c1.188-0.411,2.307-0.925,3.394-1.485c0.194-0.102,0.389-0.202,0.58-0.307c1.076-0.59,2.105-1.24,3.07-1.966
		c0.005-0.002,0.01-0.007,0.015-0.01h-0.003C67.624,60.378,71.526,48.817,67.823,38.076z M50.365,46.627
		c-2.223,0.772-4.585,0.613-6.7-0.394c-2.083-1.017-3.657-2.801-4.415-5.023c-1.572-4.555,0.853-9.528,5.407-11.098
		c4.552-1.57,9.545,0.862,11.117,5.417C57.339,40.084,54.915,45.057,50.365,46.627z"/>
	<g>
		<path fill="#4D4D4D" d="M89.194,21.98c-0.027-0.109-0.067-0.214-0.098-0.324C86.585,12.407,78.132,5.585,68.103,5.585
			c-8.962,0-16.674,5.447-20.008,13.206c-1.128,2.631-1.754,5.521-1.754,8.561c0,0.249,0.013,0.498,0.022,0.752
			c0.067,1.973,0.394,3.887,0.957,5.696l5.729,2.307c-1.164-1.998-1.949-4.241-2.24-6.638c-0.085-0.692-0.132-1.4-0.132-2.118
			c0-2.701,0.615-5.257,1.714-7.54c2.815-5.845,8.801-9.892,15.712-9.892c7.569,0,14.022,4.854,16.425,11.611
			c0.01,0.035,0.02,0.07,0.032,0.104c0.623,1.794,0.97,3.712,0.97,5.716c0,0.737-0.053,1.46-0.143,2.178
			c-0.002,0.025-0.01,0.05-0.015,0.08c-0.525,4.046-2.447,7.659-5.265,10.345c0.63,1.335,1.649,2.447,2.91,3.194
			c3.269-3.09,5.596-7.156,6.463-11.75c0.082-0.434,0.149-0.872,0.204-1.315c0.115-0.897,0.183-1.809,0.183-2.731
			C89.867,25.498,89.633,23.699,89.194,21.98z"/>
		<g>
			<path fill="#4D4D4D" d="M87.934,21.841c-0.03,0-0.058-0.008-0.088-0.008c0,0,0,0.005,0.003,0.008
				C87.876,21.843,87.906,21.841,87.934,21.841z"/>
		</g>
	</g>
	<path fill="#4D4D4D" d="M126.986,62.997c-5.451-22.425-20.63-38.705-36.435-40.905c0.01,0.035,0.025,0.072,0.032,0.107
		c0.033,0.11,0.072,0.219,0.1,0.334c0.437,1.714,0.673,3.513,0.673,5.362c0,0.927-0.067,1.839-0.182,2.736
		c-0.058,0.443-0.119,0.882-0.204,1.315c-0.082,0.439-0.189,0.862-0.299,1.291c-0.04-0.058-0.09-0.105-0.13-0.16
		c0.546,0.745,0.972,1.597,1.203,2.551c0.96,3.947-1.462,7.923-5.406,8.885c-3.944,0.957-7.921-1.46-8.88-5.407
		c-0.96-3.947,1.46-7.923,5.406-8.88c0.374-0.092,0.748-0.125,1.121-0.157c0.003-0.02,0.011-0.037,0.013-0.057
		c0.027-0.175,0.067-0.344,0.09-0.519c0.087-0.703,0.137-1.415,0.137-2.143c0-1.834-0.313-3.59-0.842-5.248
		c-0.8,0.115-1.603,0.209-2.397,0.404c-18.851,4.584-28.82,30.144-22.267,57.087c6.55,26.949,27.146,45.073,45.997,40.488
		C123.568,115.505,133.54,89.941,126.986,62.997z M85.202,97.296l-6.099-30.562l-5.101,1.017l-0.835-4.181
		c1.4-0.454,2.661-1.271,3.777-2.452c1.116-1.176,1.826-2.477,2.136-3.902l4.181-0.832l7.926,39.721L85.202,97.296z M111.885,89.567
		c-1.56,2.202-3.689,3.573-6.394,4.111c-2.638,0.528-5.062,0.045-7.271-1.45c-2.21-1.49-3.57-3.533-4.091-6.13l-0.196-0.981
		l5.613-1.585l0.406,1.371c0.281,0.977,0.8,1.719,1.547,2.228c0.75,0.508,1.622,0.662,2.614,0.463
		c2.743-0.548,3.861-2.098,3.354-4.649l-0.469-2.342c-0.81-4.071-3.352-5.681-7.617-4.829l-1.021-5.122
		c2.3-0.464,3.872-1.445,4.712-2.95c0.782-1.36,0.967-3.09,0.551-5.178l-0.185-0.917c-0.519-2.591-1.918-3.663-4.198-3.209
		c-1.266,0.254-2.098,0.922-2.497,2.008c-0.299,0.822-0.328,1.819-0.092,2.995l0.204,1.042l-5.857,1.166l-0.185-0.917
		c-0.565-2.831-0.307-5.272,0.775-7.335c1.223-2.352,3.311-3.822,6.269-4.41c2.808-0.563,5.245-0.06,7.312,1.505
		c1.864,1.405,3.05,3.389,3.561,5.94l0.334,1.679c0.493,2.472,0.177,4.754-0.941,6.842c-0.481,0.887-1.092,1.679-1.832,2.372
		c1.972,0.638,3.648,1.878,5.023,3.707c0.713,0.938,1.219,2.143,1.513,3.618l0.625,3.134
		C114.038,84.684,113.515,87.29,111.885,89.567z"/>
</g>
</svg>
