<?xml version="1.0" encoding="utf-8"?>
<!-- Generator: Adobe Illustrator 16.0.0, SVG Export Plug-In . SVG Version: 6.00 Build 0)  -->
<!DOCTYPE svg PUBLIC "-//W3C//DTD SVG 1.1//EN" "http://www.w3.org/Graphics/SVG/1.1/DTD/svg11.dtd">
<svg version="1.1" id="Layer_1" xmlns="http://www.w3.org/2000/svg" xmlns:xlink="http://www.w3.org/1999/xlink" x="0px" y="0px"
	 width="130px" height="130px" viewBox="0 0 130 130" enable-background="new 0 0 130 130" xml:space="preserve">
<rect fill="none" width="130" height="130"/>
<g>
	<g>
		<path fill="#4D4D4D" d="M119.461,37.35c-1.364-1.338-2.84-2.553-4.411-3.636c-0.224,0.717-0.963,2.973-1.933,6.057
			c0.876,0.685,1.62,1.316,2.299,1.98c4.117,4.05,6.759,9.142,7.409,14.349c0.668,5.298-0.784,10.065-4.099,13.447
			c-2.822,2.866-6.818,4.448-11.244,4.448c-5.837,0-11.891-2.66-16.592-7.294c-8.6-8.435-10.094-20.9-3.331-27.785
			c1.096-1.115,2.375-2.039,3.819-2.755c-0.53-2.368-2.307-4.252-4.654-4.921c-1.527,0.908-2.83,1.933-3.982,3.106
			c-9.108,9.274-7.469,25.714,3.663,36.649c5.942,5.829,13.687,9.179,21.248,9.179c6.052,0,11.554-2.187,15.459-6.168
			C132.226,64.727,130.569,48.286,119.461,37.35z"/>
	</g>
	<path fill="#4D4D4D" d="M111.401,27.832c-1.542-1.534-15.647-15.628-17.266-17.264c-1.631-1.635-3.805-1.815-5.48-1.194
		c-1.513,0.53-41.034,12.735-41.034,12.735L7.589,62.205c-8.002,7.979-8.838,20.125-1.836,27.18l27.163,26.766
		c6.98,7.023,18.593,6.254,26.599-1.693l35.124-35.101c-3.536-1.656-6.86-3.944-9.775-6.794
		c-8.485-8.351-11.766-19.711-9.447-29.235c-1.111-1.635-1.741-3.61-1.741-5.733c0-5.643,4.562-10.229,10.22-10.229
		c5.646,0,10.241,4.587,10.241,10.229c0,5.043-3.661,9.227-8.458,10.065c-0.82,5.675,1.531,12.369,6.745,17.491
		c2.428,2.384,5.233,4.167,8.169,5.298c3.312-10.389,11.477-36.061,11.982-37.526C113.202,31.097,112.935,29.377,111.401,27.832z
		 M21.017,84.308c-0.778,0-1.553-0.298-2.145-0.893c-1.173-1.189-1.163-3.095,0.021-4.269l31.867-31.532
		c1.184-1.163,3.087-1.157,4.262,0.026c1.173,1.184,1.163,3.09-0.021,4.263L23.136,83.437
		C22.546,84.016,21.781,84.308,21.017,84.308z M32.696,92.997c-0.589,0.578-1.354,0.865-2.12,0.865
		c-0.778,0-1.553-0.297-2.145-0.892c-1.171-1.185-1.161-3.09,0.023-4.263l31.864-31.533c1.181-1.167,3.084-1.163,4.266,0.026
		c1.171,1.184,1.16,3.09-0.024,4.263L32.696,92.997z M73.812,66.423c1.168,1.183,1.159,3.095-0.024,4.268l-31.87,31.528
		c-0.589,0.578-1.354,0.87-2.121,0.87c-0.774,0-1.552-0.298-2.145-0.892c-1.171-1.185-1.16-3.096,0.024-4.264l31.871-31.532
		C70.729,65.233,72.633,65.239,73.812,66.423z"/>
</g>
</svg>
