<?xml version="1.0" encoding="utf-8"?>
<!-- Generator: Adobe Illustrator 16.0.0, SVG Export Plug-In . SVG Version: 6.00 Build 0)  -->
<!DOCTYPE svg PUBLIC "-//W3C//DTD SVG 1.1//EN" "http://www.w3.org/Graphics/SVG/1.1/DTD/svg11.dtd">
<svg version="1.1" id="Layer_1" xmlns="http://www.w3.org/2000/svg" xmlns:xlink="http://www.w3.org/1999/xlink" x="0px" y="0px"
	 width="130px" height="130px" viewBox="0 0 130 130" enable-background="new 0 0 130 130" xml:space="preserve">
<rect fill="none" width="130" height="130"/>
<path fill="#4D4D4D" d="M129,94.207c-0.006-0.318-1.219-0.506-1.536-0.506h-4.621h-0.786h-5.599V32.004
	c0-0.66-0.261-1.279-0.735-1.752c-0.469-0.477-1.092-0.733-1.754-0.733H16.031c-0.658,0-1.286,0.261-1.756,0.733
	c-0.473,0.469-0.733,1.092-0.733,1.752v61.697H2.536C2.218,93.701,1,93.889,1,94.207v4.535h0.002
	c1.667,2.082,3.034,1.638,3.906,1.739h9.4h1.404l49.303-0.004l50.678,0.004h9.4c0.872-0.102,2.238,0.343,3.907-1.743h-0.01
	c0.006-0.054,0.008-0.106,0.01-0.168V94.207z M112.056,89.366H18.032V33.964h94.024V89.366z"/>
</svg>
