<?xml version="1.0" encoding="utf-8"?>
<!-- Generator: Adobe Illustrator 16.0.0, SVG Export Plug-In . SVG Version: 6.00 Build 0)  -->
<!DOCTYPE svg PUBLIC "-//W3C//DTD SVG 1.1//EN" "http://www.w3.org/Graphics/SVG/1.1/DTD/svg11.dtd">
<svg version="1.1" id="Layer_1" xmlns="http://www.w3.org/2000/svg" xmlns:xlink="http://www.w3.org/1999/xlink" x="0px" y="0px"
	 width="130px" height="130px" viewBox="0 0 130 130" enable-background="new 0 0 130 130" xml:space="preserve">
<rect fill="none" width="130" height="130"/>
<g>
	
		<rect x="68.728" y="54.173" transform="matrix(0.5691 -0.8223 0.8223 0.5691 -37.8231 95.1059)" fill="#4D4D4D" width="6.213" height="58.939"/>
	
		<rect x="46.745" y="28.341" transform="matrix(0.9237 -0.3831 0.3831 0.9237 -6.3775 30.8715)" fill="#4D4D4D" width="55.144" height="6.212"/>
	<path fill="#4D4D4D" d="M106.622,1c-9.265,0-16.773,7.512-16.773,16.777c0,9.266,7.509,16.776,16.773,16.776
		c9.261,0,16.772-7.511,16.772-16.776C123.395,8.512,115.883,1,106.622,1z"/>
	<path fill="#4D4D4D" d="M106.622,87.991c-11.321,0-20.499,9.181-20.499,20.507c0,11.327,9.178,20.502,20.499,20.502
		s20.496-9.175,20.496-20.502C127.118,97.172,117.943,87.991,106.622,87.991z"/>
	<path fill="#4D4D4D" d="M28.349,27.098c-14.065,0-25.467,11.407-25.467,25.477c0,14.069,11.401,25.475,25.467,25.475
		c14.068,0,25.47-11.406,25.47-25.475C53.818,38.505,42.417,27.098,28.349,27.098z"/>
</g>
</svg>
