<?xml version="1.0" encoding="utf-8"?>
<!-- Generator: Adobe Illustrator 16.0.0, SVG Export Plug-In . SVG Version: 6.00 Build 0)  -->
<!DOCTYPE svg PUBLIC "-//W3C//DTD SVG 1.1//EN" "http://www.w3.org/Graphics/SVG/1.1/DTD/svg11.dtd">
<svg version="1.1" id="Layer_1" xmlns="http://www.w3.org/2000/svg" xmlns:xlink="http://www.w3.org/1999/xlink" x="0px" y="0px"
	 width="130px" height="130px" viewBox="0 0 130 130" enable-background="new 0 0 130 130" xml:space="preserve">
<rect fill="none" width="130" height="130"/>
<g>
	<path fill="#4D4D4D" d="M67.233,74.825L56.677,85.381c0.166,0.938-0.061,1.951-0.777,2.674L30.312,113.65
		c-1.157,1.16-3.125,1.16-4.283,0.006l-9.657-9.666c-1.157-1.163-1.157-3.125,0-4.28l25.594-25.618
		c0.717-0.694,1.72-0.932,2.662-0.764l10.556-10.563c-6.885-5.65-17.049-5.351-23.471,1.08L6.124,89.449
		c-6.83,6.841-6.83,17.97-0.011,24.794l9.663,9.669c6.829,6.829,17.959,6.829,24.788,0l25.588-25.61
		C72.585,91.886,72.894,81.701,67.233,74.825z"/>
	<path fill="#4D4D4D" d="M93.08,36.903c-2.524-2.517-6.615-2.517-9.14,0l-47.02,47.033c-2.519,2.524-2.524,6.629,0,9.147
		c2.52,2.536,6.62,2.536,9.14,0L93.08,46.05C95.594,43.53,95.594,39.422,93.08,36.903z"/>
	<path fill="#4D4D4D" d="M123.882,15.744l-9.657-9.654c-6.841-6.831-17.953-6.831-24.788,0L63.849,31.699
		c-6.428,6.422-6.73,16.598-1.081,23.475l10.557-10.558c-0.16-0.944,0.061-1.95,0.777-2.657l25.588-25.622
		c1.157-1.15,3.119-1.15,4.277,0l9.668,9.67c1.146,1.17,1.152,3.11,0,4.284L88.03,55.896c-0.705,0.723-1.72,0.932-2.662,0.77
		L74.812,67.227c6.885,5.655,17.049,5.353,23.471-1.075l25.599-25.601C130.706,33.709,130.706,22.582,123.882,15.744z"/>
</g>
</svg>
