<?xml version="1.0" encoding="utf-8"?>
<!-- Generator: Adobe Illustrator 16.0.0, SVG Export Plug-In . SVG Version: 6.00 Build 0)  -->
<!DOCTYPE svg PUBLIC "-//W3C//DTD SVG 1.1//EN" "http://www.w3.org/Graphics/SVG/1.1/DTD/svg11.dtd">
<svg version="1.1" id="Layer_1" xmlns="http://www.w3.org/2000/svg" xmlns:xlink="http://www.w3.org/1999/xlink" x="0px" y="0px"
	 width="130px" height="130px" viewBox="0 0 130 130" enable-background="new 0 0 130 130" xml:space="preserve">
<rect fill="none" width="130" height="130"/>
<path fill="#4D4D4D" d="M71.475,7.485c-3.037,0-5.507,2.462-5.507,5.501c0,3.04,2.47,5.506,5.507,5.506
	c25.648,0,46.512,20.86,46.512,46.503c0,25.646-20.863,46.506-46.512,46.506c-20.736,0-38.612-13.673-44.478-32.874l9.382,5.843
	c2.58,1.599,5.976,0.818,7.591-1.764c1.604-2.58,0.815-5.97-1.77-7.579L22.119,62.62c-2.568-1.588-5.931-0.833-7.557,1.717
	l-12.7,19.962c-1.632,2.563-0.882,5.967,1.687,7.596c0.921,0.584,1.935,0.86,2.954,0.86c1.813,0,3.6-0.898,4.647-2.55l5.324-8.359
	c7.254,23.755,29.357,40.669,55,40.669c31.717,0,57.525-25.803,57.525-57.52C129,33.285,103.191,7.485,71.475,7.485z"/>
</svg>
