<?xml version="1.0" encoding="utf-8"?>
<!-- Generator: Adobe Illustrator 16.0.0, SVG Export Plug-In . SVG Version: 6.00 Build 0)  -->
<!DOCTYPE svg PUBLIC "-//W3C//DTD SVG 1.1//EN" "http://www.w3.org/Graphics/SVG/1.1/DTD/svg11.dtd">
<svg version="1.1" id="Layer_1" xmlns="http://www.w3.org/2000/svg" xmlns:xlink="http://www.w3.org/1999/xlink" x="0px" y="0px"
	 width="130px" height="130px" viewBox="0 0 130 130" enable-background="new 0 0 130 130" xml:space="preserve">
<rect fill="none" width="130" height="130"/>
<g>
	<path fill="#4D4D4D" d="M93.387,13.069C85.452,5.285,75.368,1,64.995,1C40.448,1,22.277,24.491,21.806,45.193
		c-0.005,0.311,14.31,0.009,14.315-0.114c0.322-14.408,12.746-30.526,28.874-30.526c8.597,0,14.914,4.414,18.688,8.122
		c2.69,2.641,7.051,2.629,9.731-0.024C96.095,19.996,96.088,15.702,93.387,13.069z"/>
	<path fill="#4D4D4D" d="M106.38,44.856l-70.511-0.231c0,0-13.468,0.188-13.439,0.486c-7.19,1.462-12.686,7.653-12.686,15.168
		v53.091c0,8.597,7.127,15.63,15.863,15.63h78.79c8.719,0,15.858-7.033,15.858-15.63V60.279
		C120.256,52.355,114.17,45.828,106.38,44.856z M68.759,88.328v14.163c0,2.046-1.688,3.695-3.764,3.695
		c-2.071,0-3.746-1.649-3.746-3.695V88.333c-3.855-1.487-6.571-5.145-6.571-9.457c0-5.622,4.616-10.178,10.317-10.178
		c5.711,0,10.328,4.556,10.328,10.178C75.323,83.188,72.602,86.846,68.759,88.328z"/>
</g>
</svg>
