<?xml version="1.0" encoding="utf-8"?>
<!-- Generator: Adobe Illustrator 16.0.0, SVG Export Plug-In . SVG Version: 6.00 Build 0)  -->
<!DOCTYPE svg PUBLIC "-//W3C//DTD SVG 1.1//EN" "http://www.w3.org/Graphics/SVG/1.1/DTD/svg11.dtd">
<svg version="1.1" id="Layer_1" xmlns="http://www.w3.org/2000/svg" xmlns:xlink="http://www.w3.org/1999/xlink" x="0px" y="0px"
	 width="130px" height="130px" viewBox="0 0 130 130" enable-background="new 0 0 130 130" xml:space="preserve">
<rect fill="none" width="130" height="130"/>
<g>
	<path fill="#4D4D4D" d="M65.005,1C41.085,1,22.787,22.82,22.33,42.491c-0.006,0.294,14.222,0.114,14.222,0
		c0.32-13.688,12.728-28.614,28.453-28.614c15.727,0,28.134,14.924,28.438,28.614c0,0.114,14.232,0.291,14.227,0
		C107.223,22.816,88.936,1,65.005,1z"/>
	<path fill="#4D4D4D" d="M107.87,41.821l-73.055-0.24c0,0-13.953,0.196-13.922,0.505C13.441,43.601,7.751,50.015,7.751,57.8v55.006
		c0,8.907,7.384,16.194,16.436,16.194h81.632c9.031,0,16.431-7.287,16.431-16.194V57.8C122.249,49.59,115.943,42.827,107.87,41.821z
		 M68.892,86.861v14.674c0,2.119-1.746,3.829-3.896,3.829c-2.146,0-3.887-1.71-3.887-3.829V86.866
		c-3.992-1.541-6.807-5.333-6.807-9.798c0-5.822,4.786-10.546,10.693-10.546c5.917,0,10.697,4.724,10.697,10.546
		C75.692,81.533,72.873,85.325,68.892,86.861z"/>
</g>
</svg>
