<?xml version="1.0" encoding="utf-8"?>
<!-- Generator: Adobe Illustrator 16.0.0, SVG Export Plug-In . SVG Version: 6.00 Build 0)  -->
<!DOCTYPE svg PUBLIC "-//W3C//DTD SVG 1.1//EN" "http://www.w3.org/Graphics/SVG/1.1/DTD/svg11.dtd">
<svg version="1.1" id="Layer_1" xmlns="http://www.w3.org/2000/svg" xmlns:xlink="http://www.w3.org/1999/xlink" x="0px" y="0px"
	 width="130px" height="130px" viewBox="0 0 130 130" enable-background="new 0 0 130 130" xml:space="preserve">
<rect fill="none" width="130" height="130"/>
<g>
	<polygon fill="#4D4D4D" points="112.279,43.011 86.745,35.033 65,41.83 43.255,35.033 17.726,43.011 8.716,129 39.18,120.986 
		65,127.778 90.82,120.986 121.284,129 	"/>
	<g>
		<polygon fill="#FFFFFF" stroke="#4D4D4D" stroke-width="2.3262" stroke-miterlimit="10" points="108.49,46.096 86.745,39.304 
			65,46.096 43.255,39.304 21.51,46.096 13.359,123.562 39.18,116.765 65,123.562 90.82,116.765 116.641,123.562 		"/>
	</g>
	<polygon fill="#FFFFFF" stroke="#4D4D4D" stroke-width="2.3262" stroke-miterlimit="10" points="86.745,39.304 65,46.096 
		65,123.562 90.82,116.765 	"/>
	<polygon fill="#FFFFFF" stroke="#4D4D4D" stroke-width="2.3262" stroke-miterlimit="10" points="21.51,46.096 13.359,123.562 
		39.18,116.765 43.255,39.304 	"/>
	<path fill="#4D4D4D" d="M65.986,1C50.093,1,37.208,13.938,37.208,29.901c0,15.966,28.778,64.357,28.778,64.357
		s28.777-48.392,28.777-64.357C94.764,13.938,81.879,1,65.986,1z M65.986,36.657c-4.916,0-8.901-3.991-8.901-8.914
		c0-4.928,3.985-8.921,8.901-8.921s8.9,3.993,8.9,8.921C74.887,32.666,70.902,36.657,65.986,36.657z"/>
</g>
</svg>
