<?xml version="1.0" encoding="utf-8"?>
<!-- Generator: Adobe Illustrator 16.0.0, SVG Export Plug-In . SVG Version: 6.00 Build 0)  -->
<!DOCTYPE svg PUBLIC "-//W3C//DTD SVG 1.1//EN" "http://www.w3.org/Graphics/SVG/1.1/DTD/svg11.dtd">
<svg version="1.1" id="Layer_1" xmlns="http://www.w3.org/2000/svg" xmlns:xlink="http://www.w3.org/1999/xlink" x="0px" y="0px"
	 width="130px" height="130px" viewBox="0 0 130 130" enable-background="new 0 0 130 130" xml:space="preserve">
<rect fill="none" width="130" height="130"/>
<g>
	<g>
		<path fill="#4D4D4D" d="M72.885,78.761c-0.639-4.299-4.694-7.276-9.056-6.647c-4.363,0.634-7.377,4.629-6.74,8.929l7.023,47.212
			c0.054,0.375,0.351,0.684,0.746,0.736c0.484,0.072,0.933-0.259,1.004-0.736l7.023-47.212
			C72.989,80.313,72.999,79.523,72.885,78.761z"/>
	</g>
	<g>
		<path fill="#4D4D4D" d="M88.58,55.623c-4.191-3.049-9.271-7.696-9.495-14.013l-0.004-0.246c0.223-6.317,5.276-10.897,9.468-13.941
			c6.771-4.919,5.781-8.236,5.781-8.236H35.705c0,0-0.988,3.317,5.779,8.236c4.191,3.044,9.247,7.625,9.468,13.941L50.95,41.61
			c-0.223,6.316-5.306,10.964-9.497,14.013c-6.77,4.915-5.779,8.231-5.779,8.231h58.688C94.361,63.854,95.351,60.538,88.58,55.623z"
			/>
	</g>
	<g>
		<path fill="#4D4D4D" d="M89.59,1H40.381c-2.634,0-4.793,2.156-4.793,4.794V19.33c0,2.639,2.159,4.794,4.793,4.794H89.59
			c2.638,0,4.794-2.156,4.794-4.794V5.794C94.384,3.156,92.228,1,89.59,1z M89.59,58.993H40.381c-2.634,0-4.793,2.156-4.793,4.795
			v13.535c0,2.638,2.159,4.794,4.793,4.794H89.59c2.638,0,4.794-2.156,4.794-4.794V63.788C94.384,61.149,92.228,58.993,89.59,58.993
			z"/>
	</g>
</g>
</svg>
