<?xml version="1.0" encoding="utf-8"?>
<!-- Generator: Adobe Illustrator 16.0.0, SVG Export Plug-In . SVG Version: 6.00 Build 0)  -->
<!DOCTYPE svg PUBLIC "-//W3C//DTD SVG 1.1//EN" "http://www.w3.org/Graphics/SVG/1.1/DTD/svg11.dtd">
<svg version="1.1" id="Layer_1" xmlns="http://www.w3.org/2000/svg" xmlns:xlink="http://www.w3.org/1999/xlink" x="0px" y="0px"
	 width="130px" height="130px" viewBox="0 0 130 130" enable-background="new 0 0 130 130" xml:space="preserve">
<rect fill="none" width="130" height="130"/>
<g>
	<g>
		<path fill="#4D4D4D" d="M85.236,2.847L84.38,2.404l-2.368,2.675C76.294,2.484,69.961,1,63.271,1
			C38.176,1,17.84,21.341,17.84,46.431C17.84,87.587,63.271,129,63.271,129s36.104-32.395,43.923-69.079h3.675l0.182-1.024
			c0.736-4.145,1.109-8.166,1.109-11.948C112.16,28.328,101.845,11.429,85.236,2.847z"/>
	</g>
	<path fill="#FFFFFF" d="M84.951,5.5l-20.22,22.878c-0.569-0.061-1.147-0.094-1.731-0.094c-7.26,0-13.407,4.728-15.555,11.271
		H17.971c-0.077,1.826-0.131,3.661-0.131,5.52c0,1.85,0.039,3.709,0.106,5.559h29.819c2.392,6.083,8.301,10.4,15.234,10.4
		c3.866,0,7.416-1.349,10.217-3.593h35.568c0.593-3.641,0.896-7.166,0.896-10.493C109.681,29.579,100.229,13.788,84.951,5.5z
		 M63,49.094c-2.45,0-4.435-1.985-4.435-4.435c0-2.45,1.984-4.44,4.435-4.44s4.436,1.99,4.436,4.44
		C67.436,47.109,65.45,49.094,63,49.094z"/>
</g>
</svg>
