<?xml version="1.0" encoding="utf-8"?>
<!-- Generator: Adobe Illustrator 16.0.0, SVG Export Plug-In . SVG Version: 6.00 Build 0)  -->
<!DOCTYPE svg PUBLIC "-//W3C//DTD SVG 1.1//EN" "http://www.w3.org/Graphics/SVG/1.1/DTD/svg11.dtd">
<svg version="1.1" id="Layer_1" xmlns="http://www.w3.org/2000/svg" xmlns:xlink="http://www.w3.org/1999/xlink" x="0px" y="0px"
	 width="130px" height="130px" viewBox="0 0 130 130" enable-background="new 0 0 130 130" xml:space="preserve">
<rect fill="none" width="130" height="130"/>
<g>
	<g>
		<path fill="#4D4D4D" d="M87.418,69.208c-1.039-0.175-1.988,0.669-2.13,1.844c-0.138,1.185,0.59,2.263,1.627,2.422
			c22.544,3.453,38.291,12.136,38.291,21.12c0,10.979-24.196,22.738-60.212,22.738c-36.009,0-60.208-11.76-60.208-22.738
			c0-8.996,15.783-17.687,38.388-21.136c1.033-0.159,1.76-1.242,1.619-2.417c-0.137-1.18-1.089-2.023-2.129-1.849
			C17.359,73.052,1,83.029,1,94.594c0,15.163,28.112,27.043,63.994,27.043c35.892,0,64.006-11.88,64.006-27.043
			C129,83.037,112.674,73.075,87.418,69.208z M35.095,92.318c0,7.557,19.199,9.568,30.54,9.568c11.345,0,30.552-2.012,30.552-9.568
			c0-5.333-9.514-7.699-17.492-8.747c-0.945-0.108-1.816,0.661-1.929,1.752c-0.109,1.094,0.58,2.084,1.533,2.208
			c11.27,1.478,14.233,4.192,14.408,4.741c-0.529,1.965-10.29,5.631-27.072,5.631c-16.776,0-26.539-3.666-27.067-5.534
			c0.18-0.649,3.16-3.368,14.51-4.854c0.956-0.124,1.642-1.11,1.536-2.208c-0.108-1.091-0.97-1.856-1.93-1.752
			C44.663,84.604,35.095,86.975,35.095,92.318z"/>
	</g>
	<path fill="#4D4D4D" d="M65.753,8.363c-15.007,0-27.178,13.13-27.178,29.329c0,26.565,27.178,53.3,27.178,53.3
		s27.178-26.286,27.178-53.3C92.932,21.493,80.769,8.363,65.753,8.363z M65.753,39.522c-4.665,0-8.452-3.786-8.452-8.462
		c0-4.668,3.788-8.462,8.452-8.462c4.67,0,8.459,3.794,8.459,8.462C74.213,35.736,70.424,39.522,65.753,39.522z"/>
</g>
</svg>
