<?xml version="1.0" encoding="utf-8"?>
<!-- Generator: Adobe Illustrator 16.0.0, SVG Export Plug-In . SVG Version: 6.00 Build 0)  -->
<!DOCTYPE svg PUBLIC "-//W3C//DTD SVG 1.1//EN" "http://www.w3.org/Graphics/SVG/1.1/DTD/svg11.dtd">
<svg version="1.1" id="Layer_1" xmlns="http://www.w3.org/2000/svg" xmlns:xlink="http://www.w3.org/1999/xlink" x="0px" y="0px"
	 width="130px" height="130px" viewBox="0 0 130 130" enable-background="new 0 0 130 130" xml:space="preserve">
<rect fill="none" width="130" height="130"/>
<g>
	<path fill="#4D4D4D" d="M106.287,3.56C90.633,27.729,63.369,30.952,53.131,31.282v0.023c-0.681-0.011-1.064-0.03-1.064-0.03
		l0.011,0.092l-0.216-0.027l-30.465,2.83c0,0-13.148,0.572-13.148,13.224v17.425c0,0-0.281,14.596,12.581,14.613
		c0,0,15.854-0.021,15.854,5.324v39.305c0,2.716,2.225,4.94,4.952,4.94h7.235c2.727,0,4.957-2.225,4.957-4.94l0.011-46.266h-0.017
		v-2.935c38.396,3.358,53.232,27.885,53.232,27.885s3.559,4.396,3.31-0.179l0.06-99.541C110.423-1.824,106.287,3.56,106.287,3.56z"
		/>
	<path fill="#4D4D4D" d="M113.22,39.101l-0.005,27.503c5.032-2.625,8.537-7.75,8.537-13.733
		C121.768,46.876,118.279,41.757,113.22,39.101z"/>
</g>
</svg>
