<?xml version="1.0" encoding="utf-8"?>
<!-- Generator: Adobe Illustrator 16.0.0, SVG Export Plug-In . SVG Version: 6.00 Build 0)  -->
<!DOCTYPE svg PUBLIC "-//W3C//DTD SVG 1.1//EN" "http://www.w3.org/Graphics/SVG/1.1/DTD/svg11.dtd">
<svg version="1.1" id="Layer_1" xmlns="http://www.w3.org/2000/svg" xmlns:xlink="http://www.w3.org/1999/xlink" x="0px" y="0px"
	 width="130px" height="130px" viewBox="0 0 130 130" enable-background="new 0 0 130 130" xml:space="preserve">
<rect fill="none" width="130" height="130"/>
<g>
	<path fill="#4D4D4D" d="M121.103,86.697L98.405,24.592c-0.199-0.538-0.746-0.713-1.215-0.377L17.235,79.018l8.003,21.007
		l19.498-2.486l0.79,4.289c1.138,5.777,3.735,8.629,8.197,8.766l15.809-1.732c6.059-0.862,8.906-3.792,7.983-8.301l-1.309-7.066
		l44.222-5.677C121.005,87.737,121.302,87.24,121.103,86.697z M69.473,104.119l-15.812,1.729c-2.019,0.1-3.127-1.732-3.645-3.892
		l-0.912-4.974l22.735-2.917l1.181,6.369C73.382,102.606,71.405,103.958,69.473,104.119z"/>
	<path fill="#4D4D4D" d="M128.84,85.172l-23.417-64.069c-0.486-1.343-1.971-2.03-3.313-1.533c-1.336,0.489-2.026,1.973-1.531,3.312
		l23.417,64.069c0.439,1.197,1.658,1.869,2.868,1.657c0.145-0.021,0.294-0.062,0.439-0.116
		C128.646,88.003,129.333,86.515,128.84,85.172z M3.627,88.347L3.356,88.62c-0.403-0.27-0.907-0.344-1.378-0.166
		c-0.808,0.311-1.195,1.272-0.854,2.143l4.569,11.827c0.336,0.871,1.262,1.326,2.065,1.003c0.545-0.207,0.894-0.721,0.96-1.301
		l13.369-1.699l-7.475-19.614L3.627,88.347z"/>
</g>
</svg>
