<?xml version="1.0" encoding="utf-8"?>
<!-- Generator: Adobe Illustrator 16.0.0, SVG Export Plug-In . SVG Version: 6.00 Build 0)  -->
<!DOCTYPE svg PUBLIC "-//W3C//DTD SVG 1.1//EN" "http://www.w3.org/Graphics/SVG/1.1/DTD/svg11.dtd">
<svg version="1.1" id="Layer_1" xmlns="http://www.w3.org/2000/svg" xmlns:xlink="http://www.w3.org/1999/xlink" x="0px" y="0px"
	 width="130px" height="130px" viewBox="0 0 130 130" enable-background="new 0 0 130 130" xml:space="preserve">
<rect fill="none" width="130" height="130"/>
<g>
	<path fill="#4D4D4D" d="M47.314,124.727c0,2.361,11.187,4.273,24.979,4.273c13.801,0,24.984-1.912,24.984-4.273
		c0-2.364-11.184-4.277-24.984-4.277C58.501,120.449,47.314,122.362,47.314,124.727z"/>
	<path fill="#4D4D4D" d="M66.671,123.8c0,1.38,9.567,1.38,9.567,0c0-2.239,0-63.877,0-63.877h-9.567
		C66.671,59.923,66.671,122.42,66.671,123.8z"/>
	<path fill="#4D4D4D" d="M32.813,71.201c-3.026,3.678-2.271,6.643-0.093,9.008c2.396,2.584,3.761,3.924,6.095,6.141
		c2.336,2.218,5.327,2.62,8.414,0C50.257,83.774,95.78,45.2,95.78,45.2L74.218,23.633C74.218,23.633,35.834,67.528,32.813,71.201z"
		/>
	<path fill="#4D4D4D" d="M96.265,22.733c5.231,5.137,14.705,11.932,18.617,12.309c0.007,0.085-0.014,0.184-0.018,0.273
		c2.179-3.456,3.46-7.534,3.46-11.919C118.324,11.029,108.295,1,95.924,1c-4.703,0-9.062,1.456-12.665,3.933
		C86.786,12.438,91.274,17.841,96.265,22.733z"/>
	<path fill="#4D4D4D" d="M92.665,26.396c-5.863-6.06-12.053-13.885-13-18.239c-0.014-0.041,0.002-0.085-0.005-0.128
		c-3.794,4.014-6.134,9.411-6.134,15.366c0,12.367,10.03,22.4,22.397,22.4c6.132,0,11.687-2.47,15.73-6.463
		C106.352,37.559,97.633,31.527,92.665,26.396z"/>
	<path fill="#4D4D4D" d="M69.103,27.252c-0.457,0.448-0.566,1.093-0.199,1.626c2.481,6.772,12.416,17.84,21.67,21.71
		c0.464,0.35,0.82,0.3,1.485-0.363c1.129-1.08,2.546-2.45,4.438-4.466c-9.521-4.322-20.082-14.893-22.962-22.96
		C72.065,24.3,70.548,25.841,69.103,27.252z"/>
	<path fill="#4D4D4D" d="M38.949,122.219c1.895-1.577,2.99-3.87,2.981-6.343l0,0c0-2.615-1.183-5.33-3.499-7.722l0,0
		c-2.499-2.585-3.337-3.274-6.068-6.253l0,0c-1.626-1.765-3.023-4.309-3.011-6.889l0,0c0.012-1.863,0.652-3.839,2.632-5.971l0,0
		c1.512-1.617,2.815-3.051,4.508-4.775l0,0l0,0c0.569-0.568,0.578-1.509,0.029-2.101l0,0c-0.549-0.587-1.451-0.6-2.016-0.026l0,0
		c-1.74,1.769-3.07,3.233-4.562,4.824l0,0c-2.419,2.566-3.449,5.406-3.442,8.049l0,0c0.018,3.682,1.846,6.804,3.801,8.944l0,0
		c2.799,3.051,3.695,3.803,6.123,6.312l0,0c1.901,1.971,2.653,3.95,2.653,5.607l0,0c-0.011,1.577-0.641,2.943-1.915,4.031l0,0
		c-1.278,1.07-3.245,1.823-5.862,1.823l0,0c-0.067,0-0.14,0-0.2,0l0,0c-2.689-0.04-5.18-0.054-7.438-0.054l0,0
		c-4.517,0-8.12,0.049-10.563,0.054l0,0c-0.789,0-1.425,0.667-1.425,1.487l0,0c0,0.819,0.636,1.482,1.425,1.482l0,0
		c2.477,0,6.066-0.05,10.563-0.05l0,0c2.251,0,4.724,0.01,7.409,0.05l0,0c0.076,0,0.156,0,0.229,0l0,0
		C34.433,124.7,37.065,123.805,38.949,122.219L38.949,122.219z"/>
</g>
</svg>
