<?xml version="1.0" encoding="utf-8"?>
<!-- Generator: Adobe Illustrator 16.0.0, SVG Export Plug-In . SVG Version: 6.00 Build 0)  -->
<!DOCTYPE svg PUBLIC "-//W3C//DTD SVG 1.1//EN" "http://www.w3.org/Graphics/SVG/1.1/DTD/svg11.dtd">
<svg version="1.1" id="Layer_1" xmlns="http://www.w3.org/2000/svg" xmlns:xlink="http://www.w3.org/1999/xlink" x="0px" y="0px"
	 width="130px" height="130px" viewBox="0 0 130 130" enable-background="new 0 0 130 130" xml:space="preserve">
<rect fill="none" width="130" height="130"/>
<g>
	<path fill="#4D4D4D" d="M103.746,66.183V50.276c0-3.143-2.578-5.707-5.73-5.707c-3.166,0-5.734,2.563-5.734,5.707v15.907
		c-0.02,2.317-5.209,22.845-27.278,22.845c-22.66,0-27.282-21.915-27.282-22.845V50.276c0-3.143-2.568-5.707-5.736-5.707
		c-3.16,0-5.73,2.563-5.73,5.707v15.907c0,10.965,10.553,30.948,33.02,33.872v17.519H36.349c-3.163,0-5.722,2.563-5.722,5.711
		c0,3.156,2.559,5.716,5.722,5.716h57.297c3.162,0,5.73-2.56,5.73-5.716c0-3.147-2.568-5.711-5.73-5.711H70.73v-17.519
		C93.184,97.131,103.746,77.147,103.746,66.183z"/>
	<path fill="#4D4D4D" d="M87.271,34.799H76.1c-0.967,0-1.748-0.777-1.748-1.738c0-0.956,0.781-1.733,1.748-1.733h11.172l0.008-3.287
		H76.1c-0.967,0-1.748-0.776-1.748-1.733s0.781-1.738,1.748-1.738h11.18v-1.374c0-0.646-0.045-1.275-0.094-1.904H76.1
		c-0.967,0-1.748-0.781-1.748-1.737c0-0.961,0.781-1.733,1.748-1.733h10.498C84.186,8.166,75.447,1,64.997,1
		C54.531,1,45.774,8.197,43.38,17.899h10.526c0.966,0,1.74,0.772,1.74,1.733c0,0.952-0.774,1.737-1.74,1.737h-11.09
		c-0.047,0.602-0.094,1.204-0.094,1.828v1.45h11.184c0.966,0,1.74,0.777,1.74,1.737c0,0.961-0.774,1.733-1.74,1.733H42.723V31.4
		h11.184c0.966,0,1.74,0.777,1.74,1.738c0,0.956-0.774,1.733-1.74,1.733H42.723v7.525h44.542L87.271,34.799z M87.266,49.8H42.723
		v11.795c0,12.253,9.967,22.197,22.289,22.197c12.296,0,22.267-9.944,22.271-22.197L87.266,49.8z"/>
</g>
</svg>
