<?xml version="1.0" encoding="utf-8"?>
<!-- Generator: Adobe Illustrator 16.0.0, SVG Export Plug-In . SVG Version: 6.00 Build 0)  -->
<!DOCTYPE svg PUBLIC "-//W3C//DTD SVG 1.1//EN" "http://www.w3.org/Graphics/SVG/1.1/DTD/svg11.dtd">
<svg version="1.1" id="Layer_1" xmlns="http://www.w3.org/2000/svg" xmlns:xlink="http://www.w3.org/1999/xlink" x="0px" y="0px"
	 width="130px" height="130px" viewBox="0 0 130 130" enable-background="new 0 0 130 130" xml:space="preserve">
<rect fill="none" width="130" height="130"/>
<g>
	<path fill="#4D4D4D" d="M66.343,119.334V66.887l24.113-8.917c-6.032-15.75-14.192-29.273-18.442-35.817L6.958,62.346
		c-5.125,3.267-5.388,7.166-3.663,10.893c1.877,4.1,3.002,6.263,4.957,9.881c1.959,3.623,5.437,5.294,10.228,3.337
		c2.19-0.897,18.659-7.634,35.644-14.571v47.547c-9.275,0.521-16.022,1.985-16.212,3.736l-0.016-0.066c-0.01,0.558,0,1.858,0,2.153
		c0,1.845,9.031,3.745,23.41,3.745c14.448,0,23.427-1.9,23.427-3.745v-2.013C84.733,121.333,76.852,119.732,66.343,119.334z"/>
	<path fill="#4D4D4D" d="M86.683,4.408c-6.105,3.371-10.843,9.006-13.137,15.825c4.169,6.371,12.781,20.46,19.091,36.936
		c2.299,0.632,4.692,0.993,7.178,0.993c4.689,0,9.098-1.199,12.97-3.296C107.692,23.856,91.338,8.274,86.683,4.408z M99.814,1
		c-2.925,0-5.734,0.469-8.391,1.338c6.475,5.842,20.416,21.33,25.595,49.691c6.474-5.229,10.644-13.331,10.644-22.445
		C127.662,13.802,115.191,1,99.814,1z"/>
</g>
</svg>
