<?xml version="1.0" encoding="utf-8"?>
<!-- Generator: Adobe Illustrator 16.0.0, SVG Export Plug-In . SVG Version: 6.00 Build 0)  -->
<!DOCTYPE svg PUBLIC "-//W3C//DTD SVG 1.1//EN" "http://www.w3.org/Graphics/SVG/1.1/DTD/svg11.dtd">
<svg version="1.1" id="Layer_1" xmlns="http://www.w3.org/2000/svg" xmlns:xlink="http://www.w3.org/1999/xlink" x="0px" y="0px"
	 width="130px" height="130px" viewBox="0 0 130 130" enable-background="new 0 0 130 130" xml:space="preserve">
<rect fill="none" width="130" height="130"/>
<g>
	<path fill="#4D4D4D" d="M116.078,99.479c-7.151,0-12.942,5.796-12.942,12.937c0,7.146,5.791,12.938,12.942,12.938
		c7.131,0,12.922-5.791,12.922-12.938C129,105.274,123.209,99.479,116.078,99.479z"/>
	<path fill="#4D4D4D" d="M65,99.479c-7.142,0-12.933,5.796-12.933,12.937c0,7.146,5.791,12.938,12.933,12.938
		c7.146,0,12.938-5.791,12.938-12.938C77.938,105.274,72.146,99.479,65,99.479z"/>
	<path fill="#4D4D4D" d="M13.933,99.479C6.791,99.479,1,105.274,1,112.415c0,7.146,5.791,12.938,12.933,12.938
		c7.146,0,12.937-5.791,12.937-12.938C26.87,105.274,21.079,99.479,13.933,99.479z"/>
	<path fill="#4D4D4D" d="M115.67,68.03H68.149V48.716c0-1.739-1.411-3.15-3.149-3.15c-1.734,0-3.149,1.411-3.149,3.15V68.03H13.933
		c-1.734,0-3.151,1.411-3.151,3.15v18.979c0,1.74,1.417,3.15,3.151,3.15c1.738,0,3.149-1.41,3.149-3.15V74.327h44.769v16.15
		c0,1.738,1.416,3.15,3.149,3.15c1.738,0,3.149-1.412,3.149-3.15v-16.15h44.371v15.832c0,1.74,1.416,3.15,3.149,3.15
		c1.744,0,3.15-1.41,3.15-3.15V71.181C118.82,69.441,117.414,68.03,115.67,68.03z"/>
	<path fill="#4D4D4D" d="M65,4.647c-9.521,0-17.236,7.725-17.236,17.246c0,9.527,7.715,17.255,17.236,17.255
		c9.53,0,17.241-7.728,17.241-17.255C82.241,12.372,74.53,4.647,65,4.647z"/>
</g>
</svg>
