<?xml version="1.0" encoding="utf-8"?>
<!-- Generator: Adobe Illustrator 16.0.0, SVG Export Plug-In . SVG Version: 6.00 Build 0)  -->
<!DOCTYPE svg PUBLIC "-//W3C//DTD SVG 1.1//EN" "http://www.w3.org/Graphics/SVG/1.1/DTD/svg11.dtd">
<svg version="1.1" id="Layer_1" xmlns="http://www.w3.org/2000/svg" xmlns:xlink="http://www.w3.org/1999/xlink" x="0px" y="0px"
	 width="130px" height="130px" viewBox="0 0 130 130" enable-background="new 0 0 130 130" xml:space="preserve">
<rect fill="none" width="130" height="130"/>
<g>
	<path fill="#4D4D4D" d="M126.309,100.01h-19.748c-1.484,0-2.699,1.215-2.699,2.693v19.749c0,1.481,1.215,2.69,2.699,2.69h19.748
		c1.477,0,2.691-1.209,2.691-2.69v-19.749C129,101.225,127.785,100.01,126.309,100.01z"/>
	<path fill="#4D4D4D" d="M74.972,100.01H55.213c-1.481,0-2.696,1.215-2.696,2.693v19.749c0,1.481,1.215,2.69,2.696,2.69h19.759
		c1.481,0,2.686-1.209,2.686-2.69v-19.749C77.657,101.225,76.453,100.01,74.972,100.01z"/>
	<path fill="#4D4D4D" d="M23.438,100.01H3.693c-1.481,0-2.693,1.215-2.693,2.693v19.749c0,1.481,1.212,2.69,2.693,2.69h19.744
		c1.483,0,2.696-1.209,2.696-2.69v-19.749C26.134,101.225,24.921,100.01,23.438,100.01z"/>
	<path fill="#4D4D4D" d="M116.177,68.297H68.313V48.837c0-1.735-1.406-3.147-3.14-3.147c-1.744,0-3.152,1.412-3.152,3.147v19.459
		H13.756c-1.739,0-3.147,1.409-3.147,3.147V90.55c0,1.739,1.408,3.147,3.147,3.147c1.736,0,3.147-1.408,3.147-3.147V74.594h45.118
		v16.273c0,1.739,1.408,3.15,3.152,3.15c1.733,0,3.14-1.411,3.14-3.15V74.594h44.721V90.55c0,1.739,1.406,3.147,3.143,3.147
		c1.743,0,3.152-1.408,3.152-3.147V71.444C119.329,69.706,117.92,68.297,116.177,68.297z"/>
	<path fill="#4D4D4D" d="M50.332,39.502h29.269c1.481,0,2.696-1.219,2.696-2.699V7.551c0-1.48-1.215-2.694-2.696-2.694H50.332
		c-1.475,0-2.687,1.213-2.687,2.694v29.252C47.646,38.284,48.857,39.502,50.332,39.502z"/>
</g>
</svg>
