<?xml version="1.0" encoding="utf-8"?>
<!-- Generator: Adobe Illustrator 16.0.0, SVG Export Plug-In . SVG Version: 6.00 Build 0)  -->
<!DOCTYPE svg PUBLIC "-//W3C//DTD SVG 1.1//EN" "http://www.w3.org/Graphics/SVG/1.1/DTD/svg11.dtd">
<svg version="1.1" id="Layer_1" xmlns="http://www.w3.org/2000/svg" xmlns:xlink="http://www.w3.org/1999/xlink" x="0px" y="0px"
	 width="130px" height="130px" viewBox="0 0 130 130" enable-background="new 0 0 130 130" xml:space="preserve">
<rect fill="none" width="130" height="130"/>
<g>
	<path fill="#4D4D4D" d="M123.285,94.793H94.398c-1.467,0-2.66,1.195-2.66,2.658v28.889c0,1.461,1.193,2.66,2.66,2.66h28.887
		c1.465,0,2.666-1.199,2.666-2.66V97.451C125.951,95.988,124.75,94.793,123.285,94.793z"/>
	<path fill="#4D4D4D" d="M35.61,94.793H6.703c-1.453,0-2.653,1.195-2.653,2.658v28.889c0,1.461,1.2,2.66,2.653,2.66H35.61
		c1.456,0,2.657-1.199,2.657-2.66V97.451C38.267,95.988,37.066,94.793,35.61,94.793z"/>
	<path fill="#4D4D4D" d="M108.84,63.648H68.232V44.431c0-1.716-1.393-3.106-3.111-3.106c-1.713,0-3.104,1.39-3.104,3.106v19.217
		H21.024c-1.723,0-3.111,1.395-3.111,3.108v18.865c0,1.719,1.389,3.113,3.111,3.113c1.71,0,3.104-1.395,3.104-3.113V69.869h81.6
		v15.752c0,1.719,1.389,3.113,3.111,3.113c1.713,0,3.109-1.395,3.109-3.113V66.756C111.949,65.042,110.553,63.648,108.84,63.648z"/>
	<path fill="#4D4D4D" d="M50.488,35.21h28.889c1.463,0,2.658-1.195,2.658-2.658V3.662C82.035,2.196,80.84,1,79.377,1H50.488
		c-1.47,0-2.663,1.195-2.663,2.661v28.89C47.825,34.015,49.018,35.21,50.488,35.21z"/>
</g>
</svg>
