<?xml version="1.0" encoding="utf-8"?>
<!-- Generator: Adobe Illustrator 16.0.0, SVG Export Plug-In . SVG Version: 6.00 Build 0)  -->
<!DOCTYPE svg PUBLIC "-//W3C//DTD SVG 1.1//EN" "http://www.w3.org/Graphics/SVG/1.1/DTD/svg11.dtd">
<svg version="1.1" id="Layer_1" xmlns="http://www.w3.org/2000/svg" xmlns:xlink="http://www.w3.org/1999/xlink" x="0px" y="0px"
	 width="130px" height="130px" viewBox="0 0 130 130" enable-background="new 0 0 130 130" xml:space="preserve">
<rect fill="none" width="130" height="130"/>
<g>
	<g>
		<path fill="#A0A0A0" d="M104.55,17.836c-7.396-4.298-14.655-6.545-19.317-6.207L54.716,64.312L89.36,83.931l30.127-52.455
			C117.447,27.261,111.929,22.115,104.55,17.836z"/>
	</g>
	<g>
		<path fill="#B3B3B3" d="M105.973,18.66c-3.998-2.326-7.946-4.027-11.476-5.067L61.454,71.355l14.969,8.641l33.608-58.75
			C108.748,20.362,107.411,19.492,105.973,18.66z"/>
	</g>
	<g>
		<path fill="#BBBBBB" d="M85.232,11.629l-30.351,52.4l3.126,1.217l8.104,6.264l32.69-56.616
			C93.523,12.545,88.67,11.38,85.232,11.629z"/>
	</g>
	<g>
		<path fill="#F7F7F7" d="M77.857,77.522C74.574,70.5,66.663,70.56,66.663,70.56c-2.214-5.067-6.778-7.792-11.781-6.484
			c-0.07,0.604-0.49,36.608,0.141,36.831l34.403-17.099C84.018,76.118,77.857,77.522,77.857,77.522z"/>
	</g>
	<g>
		<path fill="#424242" d="M55.022,100.906l8.271-4.111c-1.752-1.777-4.642-3.979-8.599-4.705
			C54.727,97.123,54.821,100.834,55.022,100.906z"/>
	</g>
	<path fill="#4C4C4C" d="M110.845,6.432c-11.47-6.646-17.887-7.339-21.412-1.275c-0.192,0.341-1.747,2.604-3.499,5.405
		c4.667-0.299,11.889,1.825,19.245,6.094c7.395,4.295,12.928,9.569,14.954,13.801c1.804-3.075,3.072-5.174,3.289-5.552
		C127.202,18.394,123.182,13.592,110.845,6.432z"/>
	<g>
		<path fill="#4C4C4C" d="M108.971,69.703c-3.753,0-6.802,3.048-6.802,6.804v38.888H18.821V31.504h43.656
			c3.763,0,6.804-3.047,6.804-6.804c0-3.756-3.041-6.799-6.804-6.799H12.016c-3.759,0-6.804,3.043-6.804,6.799v97.5
			c0,3.755,3.044,6.801,6.804,6.801h96.955c3.763,0,6.807-3.046,6.807-6.801V76.507C115.777,72.751,112.733,69.703,108.971,69.703z"
			/>
	</g>
</g>
</svg>
