<?xml version="1.0" encoding="utf-8"?>
<!-- Generator: Adobe Illustrator 16.0.0, SVG Export Plug-In . SVG Version: 6.00 Build 0)  -->
<!DOCTYPE svg PUBLIC "-//W3C//DTD SVG 1.1//EN" "http://www.w3.org/Graphics/SVG/1.1/DTD/svg11.dtd">
<svg version="1.1" id="Layer_1" xmlns="http://www.w3.org/2000/svg" xmlns:xlink="http://www.w3.org/1999/xlink" x="0px" y="0px"
	 width="130px" height="130px" viewBox="0 0 130 130" enable-background="new 0 0 130 130" xml:space="preserve">
<rect fill="none" width="130" height="130"/>
<path fill="#4D4D4D" d="M119.619,64.994L129,58.275l-10.575-4.638l7.777-8.522l-11.303-2.331l5.832-9.96l-11.546,0.071l3.632-10.96
	l-11.268,2.466l1.271-11.468l-10.51,4.761L91.176,6.208l-9.304,6.838L78.376,2.05l-7.671,8.618l-5.708-10.02l-5.708,10.02
	L51.618,2.05l-3.502,10.996l-9.292-6.838l-1.136,11.486l-10.516-4.761l1.271,11.468l-11.273-2.466l3.632,10.96l-11.54-0.071
	l5.826,9.96L3.792,45.115l7.777,8.522L1,58.275l9.369,6.719L1,71.725l10.569,4.632l-7.777,8.528l11.297,2.331l-5.826,9.96
	l11.54-0.071l-3.632,10.954l11.273-2.466l-1.271,11.469l10.516-4.762l1.136,11.492l9.292-6.843l3.502,10.995l7.671-8.618
	l5.708,10.025l5.708-10.025l7.671,8.618l3.496-10.995l9.304,6.843l1.136-11.492l10.51,4.762l-1.271-11.469l11.268,2.466
	l-3.632-10.954l11.546,0.071l-5.832-9.96l11.303-2.331l-7.777-8.528L129,71.725L119.619,64.994z M48.832,82.472h-5.654
	l-7.245-22.381v22.381h-5.271V47.522h5.915l6.991,23.487V47.522h5.264V82.472z M68.54,52.816h-9.729v9.534h7.109v5.293h-7.109v9.535
	h9.729v5.293H53.546V47.522H68.54V52.816z M93.873,82.472h-5.016l-3.005-19.216l-2.804,19.216H78.01l-5.85-34.92h5.518l2.763,18.702
	l2.537-18.702h5.519l2.756,18.685l2.556-18.685h5.53L93.873,82.472z"/>
</svg>
