<?xml version="1.0" encoding="utf-8"?>
<!-- Generator: Adobe Illustrator 16.0.0, SVG Export Plug-In . SVG Version: 6.00 Build 0)  -->
<!DOCTYPE svg PUBLIC "-//W3C//DTD SVG 1.1//EN" "http://www.w3.org/Graphics/SVG/1.1/DTD/svg11.dtd">
<svg version="1.1" id="Layer_1" xmlns="http://www.w3.org/2000/svg" xmlns:xlink="http://www.w3.org/1999/xlink" x="0px" y="0px"
	 width="130px" height="130px" viewBox="0 0 130 130" enable-background="new 0 0 130 130" xml:space="preserve">
<rect fill="none" width="130" height="130"/>
<path fill="#4D4D4D" d="M127.217,103.519c-1.337,1.663-3.245,2.703-5.356,2.925L21.807,117.182
	c-0.274,0.033-0.571,0.056-0.858,0.056c-4.101,0-7.517-3.071-7.937-7.144l-0.156-1.39c-0.121-1.113,0.685-2.107,1.787-2.23
	c1.075-0.129,2.112,0.68,2.23,1.787l0.156,1.404c0.209,2.02,1.896,3.529,3.919,3.529c0.013,0,0.418-0.027,0.429-0.027
	l100.054-10.741c1.045-0.105,1.979-0.619,2.641-1.445c0.675-0.841,0.978-1.843,0.866-2.907l-8.126-75.624
	c-0.11-1.06-0.634-2.012-1.46-2.675c-0.811-0.648-1.817-0.963-2.88-0.825l-1.147,0.119c-1.13,0.101-2.104-0.688-2.223-1.799
	c-0.113-1.108,0.692-2.103,1.803-2.218l1.138-0.119c2.071-0.231,4.168,0.361,5.832,1.689c1.672,1.34,2.724,3.255,2.958,5.395
	l8.123,75.634C129.178,99.772,128.559,101.854,127.217,103.519z M112.317,94.041L12.264,104.787
	c-1.556,0.15-2.963-1.005-3.126-2.521L1.015,26.636c-0.159-1.549,0.972-2.95,2.517-3.122l100.06-10.732
	c0.111-0.019,0.207-0.019,0.312-0.019c1.42,0,2.65,1.108,2.807,2.53l8.128,75.634c0.065,0.745-0.141,1.485-0.624,2.082
	C113.749,93.598,113.069,93.957,112.317,94.041z M95.813,66.597l-46.021,4.939c-0.78,0.086-1.34,0.78-1.259,1.559
	c0.078,0.725,0.692,1.264,1.407,1.264c0.05,0,0.101-0.006,0.15-0.008l46.022-4.941c0.777-0.086,1.337-0.78,1.256-1.556
	C97.289,67.08,96.609,66.549,95.813,66.597z M94.054,53.274l-46.026,4.943c-0.78,0.084-1.337,0.781-1.259,1.558
	c0.078,0.726,0.692,1.264,1.407,1.264c0.045,0,0.096-0.005,0.144-0.008l46.039-4.943c0.775-0.085,1.334-0.782,1.254-1.559
	C95.526,53.758,94.895,53.222,94.054,53.274z M89.219,40.168c0.096,0.892-0.121,1.642-0.69,2.353
	c-0.563,0.706-1.248,1.081-2.145,1.181c-0.871,0.099-1.646-0.118-2.356-0.69c-0.597-0.473-0.961-1.039-1.115-1.74
	c-0.095-0.425-0.375-0.781-0.768-0.973c-0.39-0.187-0.848-0.185-1.235,0.008l-0.978,0.477c-0.599,0.298-0.908,0.978-0.739,1.627
	c0.38,1.442,1.186,2.667,2.403,3.632c1.289,1.048,2.759,1.58,4.378,1.58c0.27,0,0.551-0.017,0.833-0.05
	c1.941-0.211,3.537-1.094,4.748-2.611c1.213-1.52,1.719-3.271,1.51-5.221c-0.216-1.93-1.087-3.521-2.603-4.733
	c-1.329-1.062-2.915-1.788-4.531-2.112c-0.854-0.29-1.516-0.617-1.961-0.962c-0.353-0.288-0.526-0.615-0.576-1.065
	c-0.051-0.453,0.05-0.808,0.324-1.149c0.285-0.348,0.609-0.523,1.271-0.586c0.353,0,0.64,0.106,0.922,0.33
	c0.206,0.169,0.352,0.339,0.438,0.523c0.171,0.34,0.474,0.597,0.836,0.713c0.357,0.113,0.75,0.084,1.087-0.092l0.927-0.484
	c0.67-0.351,0.944-1.16,0.64-1.843c-0.327-0.709-0.826-1.327-1.473-1.836c-1.186-0.93-2.548-1.321-4.011-1.164
	c-1.502,0.164-2.735,0.845-3.685,2.025c-0.937,1.175-1.324,2.519-1.163,3.99c0.163,1.501,0.841,2.738,2.017,3.687
	c1.049,0.834,2.396,1.429,3.911,1.745c1.005,0.286,1.881,0.728,2.596,1.31C88.74,38.605,89.12,39.281,89.219,40.168z M52.591,30.808
	l7.215,18.467c0.209,0.545,0.74,0.898,1.312,0.898c0.055,0,0.108-0.005,0.163-0.009l1.072-0.12c0.584-0.065,1.067-0.482,1.211-1.051
	l2.326-8.947l4.224,8.229c0.27,0.52,0.858,0.812,1.413,0.759l1.079-0.118c0.632-0.071,1.15-0.558,1.244-1.192l3.013-19.593
	c0.068-0.435-0.07-0.875-0.375-1.195c-0.302-0.316-0.742-0.477-1.176-0.425l-1.09,0.119c-0.637,0.069-1.15,0.561-1.246,1.189
	L70.9,41.343l-4.096-7.879c-0.27-0.519-0.796-0.817-1.411-0.754l-0.624,0.069c-0.579,0.062-1.062,0.479-1.211,1.044l-2.261,8.578
	l-4.986-12.742c-0.227-0.596-0.831-0.952-1.468-0.891l-1.093,0.121c-0.44,0.048-0.828,0.295-1.055,0.671
	C52.47,29.938,52.435,30.397,52.591,30.808z M38.729,31.97l2.094,19.028c0.046,0.372,0.234,0.712,0.523,0.947
	c0.257,0.203,0.566,0.312,0.884,0.312c0.053,0,0.101-0.003,0.159-0.009l9.505-1.052c0.778-0.084,1.339-0.782,1.249-1.558
	l-0.111-1.078c-0.048-0.371-0.234-0.713-0.523-0.948c-0.295-0.235-0.665-0.353-1.04-0.303l-7.033,0.775l-0.559-5.09l7.025-0.777
	c0.781-0.086,1.337-0.783,1.257-1.562l-0.118-1.073c-0.041-0.374-0.234-0.711-0.524-0.945c-0.294-0.237-0.68-0.35-1.034-0.303
	l-7.031,0.774l-0.566-5.087l7.034-0.778c0.77-0.083,1.336-0.782,1.245-1.558l-0.118-1.076c-0.037-0.374-0.227-0.716-0.521-0.95
	c-0.295-0.237-0.685-0.345-1.037-0.301l-9.508,1.048C39.2,30.492,38.64,31.191,38.729,31.97z M20.012,53.297
	c0.076,0.723,0.69,1.258,1.407,1.258c0.048,0,0.101-0.003,0.148-0.009l1.08-0.116c0.37-0.041,0.71-0.229,0.949-0.523
	c0.231-0.292,0.345-0.667,0.302-1.039l-1.425-12.92L33.794,52.6c0.3,0.34,0.758,0.487,1.206,0.465l1.656-0.182
	c0.37-0.042,0.71-0.229,0.949-0.524c0.231-0.292,0.343-0.665,0.3-1.04l-2.104-19.029c-0.081-0.775-0.796-1.351-1.556-1.248
	l-1.075,0.118c-0.777,0.085-1.337,0.782-1.248,1.56l1.47,13.338l-11.668-13.04c-0.299-0.339-0.763-0.515-1.203-0.459l-1.356,0.149
	c-0.78,0.086-1.337,0.783-1.257,1.56L20.012,53.297z M22.925,82.474c0.249,0.201,0.571,0.312,0.891,0.312
	c0.051,0,0.096-0.003,0.144-0.008l19.647-2.107c0.778-0.085,1.337-0.78,1.254-1.558l-2.102-19.639
	c-0.084-0.774-0.721-1.335-1.556-1.257L21.556,60.32c-0.376,0.043-0.715,0.228-0.947,0.52c-0.239,0.293-0.347,0.664-0.31,1.038
	l2.109,19.645C22.447,81.895,22.635,82.237,22.925,82.474z M98.807,81.411c-0.083-0.775-0.732-1.349-1.551-1.259l-72.417,7.771
	c-0.775,0.085-1.337,0.782-1.254,1.558c0.076,0.726,0.692,1.264,1.407,1.264c0.043,0,0.101-0.005,0.151-0.007l72.408-7.771
	C98.331,82.882,98.89,82.187,98.807,81.411z M41.901,78.008l-1.806-16.826l-16.833,1.801l1.803,16.833L41.901,78.008z"/>
</svg>
