<?xml version="1.0" encoding="utf-8"?>
<!-- Generator: Adobe Illustrator 16.0.0, SVG Export Plug-In . SVG Version: 6.00 Build 0)  -->
<!DOCTYPE svg PUBLIC "-//W3C//DTD SVG 1.1//EN" "http://www.w3.org/Graphics/SVG/1.1/DTD/svg11.dtd">
<svg version="1.1" id="Layer_1" xmlns="http://www.w3.org/2000/svg" xmlns:xlink="http://www.w3.org/1999/xlink" x="0px" y="0px"
	 width="130px" height="130px" viewBox="0 0 130 130" enable-background="new 0 0 130 130" xml:space="preserve">
<rect fill="none" width="130" height="130"/>
<g>
	<path fill="#4D4D4D" d="M88.367,25.126v21.915c10.006,6.612,12.722,16.385,12.722,27.359c0,19.929-16.174,36.051-36.097,36.051
		c-19.931,0-36.076-16.122-36.076-36.051c0-10.974,6.088-20.757,12.761-27.359V25.126C25,33.883,10.363,52.612,10.363,74.399
		c0,30.164,24.425,54.601,54.614,54.601c30.185,0,54.659-24.437,54.659-54.601C119.637,52.612,108.378,33.883,88.367,25.126z"/>
	<path fill="#4D4D4D" d="M65.516,1h-2.845c-5.651,0-9.346,5.082-9.346,10.738v42.836c0,5.651,3.694,9.665,9.346,9.665h2.845
		c5.661,0,11.158-4.014,11.158-9.665V11.738C76.674,6.082,71.177,1,65.516,1z"/>
</g>
</svg>
