<?xml version="1.0" encoding="utf-8"?>
<!-- Generator: Adobe Illustrator 16.0.0, SVG Export Plug-In . SVG Version: 6.00 Build 0)  -->
<!DOCTYPE svg PUBLIC "-//W3C//DTD SVG 1.1//EN" "http://www.w3.org/Graphics/SVG/1.1/DTD/svg11.dtd">
<svg version="1.1" id="Layer_1" xmlns="http://www.w3.org/2000/svg" xmlns:xlink="http://www.w3.org/1999/xlink" x="0px" y="0px"
	 width="130px" height="130px" viewBox="0 0 130 130" enable-background="new 0 0 130 130" xml:space="preserve">
<rect fill="none" width="130" height="130"/>
<g>
	<g>
		<g>
			<path fill="#4D4D4D" d="M96.971,48.227L57.326,15.983c-0.132-0.107-0.294-0.157-0.436-0.23c0.543-1.314,0.714-2.799,0.411-4.298
				c-0.807-4.005-4.724-6.594-8.715-5.784c-4.016,0.816-6.604,4.729-5.793,8.729c0.322,1.588,1.147,2.941,2.262,3.962
				c-0.093,0.107-0.21,0.2-0.273,0.332l-23.96,45.018c-0.527,0.992-0.151,2.223,0.835,2.745c0.303,0.166,0.64,0.244,0.953,0.244
				c0.728,0,1.436-0.396,1.797-1.079l23.96-45.018c0.073-0.146,0.093-0.298,0.132-0.454c0.972,0.21,1.998,0.234,3.028,0.024
				c1.119-0.225,2.11-0.713,2.97-1.358c0.084,0.107,0.152,0.229,0.265,0.322l39.645,32.239c0.376,0.308,0.83,0.459,1.279,0.459
				c0.591,0,1.183-0.259,1.583-0.752C97.977,50.21,97.84,48.935,96.971,48.227z"/>
		</g>
		<g>
			<path fill="#4D4D4D" d="M49.955,5.563c-4.675,0-8.466,3.791-8.466,8.46c0,4.675,3.791,8.465,8.466,8.465s8.46-3.791,8.46-8.465
				C58.415,9.354,54.63,5.563,49.955,5.563z"/>
		</g>
	</g>
	<g>
		<path fill="#4D4D4D" d="M39.203,83.885c-0.137-0.71-0.498-1.268-1.089-1.668c-0.591-0.397-1.241-0.535-1.949-0.4
			c-0.708,0.137-1.27,0.503-1.676,1.092c-0.41,0.594-0.547,1.245-0.41,1.954l3.092,16.202c0.133,0.709,0.504,1.263,1.1,1.661
			c0.601,0.4,1.255,0.535,1.964,0.398c0.708-0.135,1.26-0.498,1.66-1.09c0.406-0.591,0.538-1.238,0.401-1.949L39.203,83.885z"/>
		<path fill="#4D4D4D" d="M57.604,80.908c-0.146-0.772-0.498-1.351-1.051-1.732c-0.557-0.383-1.221-0.503-1.992-0.356l-2.692,0.516
			l1.808,9.472l2.696-0.516c0.709-0.134,1.261-0.501,1.661-1.102c0.4-0.599,0.532-1.25,0.396-1.959L57.604,80.908z"/>
		<path fill="#4D4D4D" d="M119.206,52.247L1,76.26l9.794,48.218L129,100.469L119.206,52.247z M45.837,104.66
			c-1.123,1.644-2.657,2.649-4.611,3.023c-1.969,0.376-3.771,0-5.402-1.123c-1.637-1.121-2.643-2.662-3.014-4.616L29.727,85.79
			c-0.376-1.969-0.005-3.773,1.119-5.415c1.123-1.644,2.652-2.652,4.587-3.021c1.969-0.376,3.775-0.003,5.417,1.123
			c1.642,1.121,2.652,2.657,3.023,4.611l3.082,16.154C47.332,101.214,46.96,103.019,45.837,104.66z M61.648,89.708
			c-1.099,1.644-2.618,2.652-4.552,3.023l-2.574,0.491l2.124,11.149l-4.459,0.853L46.535,75.63l7.039-1.344
			c2.174-0.415,4.035-0.065,5.588,1.058c1.446,1.082,2.364,2.636,2.751,4.668l0.82,4.299C63.109,86.262,62.743,88.062,61.648,89.708
			z M69.782,101.863L64.13,72.245l12.706-2.426l0.854,4.489l-8.24,1.573l1.538,8.076l6.023-1.147l0.859,4.484l-6.022,1.15
			l1.543,8.077l8.24-1.573l0.855,4.489L69.782,101.863z M96.164,96.827l-9.76-17.795L90.024,98l-4.465,0.852l-5.651-29.618
			l5.012-0.957l9.721,18.774L90.84,67.146l4.465-0.853l5.656,29.618L96.164,96.827z"/>
	</g>
</g>
</svg>
