<?xml version="1.0" encoding="utf-8"?>
<!-- Generator: Adobe Illustrator 16.0.0, SVG Export Plug-In . SVG Version: 6.00 Build 0)  -->
<!DOCTYPE svg PUBLIC "-//W3C//DTD SVG 1.1//EN" "http://www.w3.org/Graphics/SVG/1.1/DTD/svg11.dtd">
<svg version="1.1" id="Layer_1" xmlns="http://www.w3.org/2000/svg" xmlns:xlink="http://www.w3.org/1999/xlink" x="0px" y="0px"
	 width="130px" height="130px" viewBox="0 0 130 130" enable-background="new 0 0 130 130" xml:space="preserve">
<rect fill="none" width="130" height="130"/>
<g>
	<g>
		<path fill="#4D4D4D" d="M66.31,52.764h-3.99c-0.133,0-0.267,0.005-0.405,0.021H21.159c-3.494,0-6.342-2.832-6.342-6.31V30.144
			c0-3.472,2.848-6.293,6.342-6.293h2.197c1.92,0,3.473-1.547,3.473-3.451s-1.553-3.451-3.473-3.451h-2.197
			c-7.318,0-13.276,5.92-13.276,13.195v16.332c0,7.281,5.958,13.212,13.276,13.212h41.16c0.139,0,0.272-0.011,0.4-0.026h3.59
			c0.837,0,1.541,0.704,1.541,1.531V73.55c0,1.91,1.547,3.451,3.467,3.451c1.921,0,3.468-1.541,3.468-3.451V61.192
			C74.785,56.546,70.987,52.764,66.31,52.764z"/>
	</g>
	<g>
		<path fill="#4D4D4D" d="M108.089,1H43.46c-7.713,0-14.028,6.315-14.028,14.033v13.495c0,7.712,6.315,14.028,14.028,14.028h64.629
			c7.713,0,14.028-6.315,14.028-14.028V15.033C122.117,7.315,115.802,1,108.089,1z"/>
	</g>
	<g>
		<path fill="#4D4D4D" d="M75.729,78.505h-8.603c-3.42,0-6.214,2.801-6.214,6.22v38.057c0,3.419,2.794,6.219,6.214,6.219h8.603
			c3.419,0,6.214-2.8,6.214-6.219V84.725C81.942,81.306,79.147,78.505,75.729,78.505z"/>
	</g>
</g>
</svg>
