<?xml version="1.0" encoding="utf-8"?>
<!-- Generator: Adobe Illustrator 16.0.0, SVG Export Plug-In . SVG Version: 6.00 Build 0)  -->
<!DOCTYPE svg PUBLIC "-//W3C//DTD SVG 1.1//EN" "http://www.w3.org/Graphics/SVG/1.1/DTD/svg11.dtd">
<svg version="1.1" id="Layer_1" xmlns="http://www.w3.org/2000/svg" xmlns:xlink="http://www.w3.org/1999/xlink" x="0px" y="0px"
	 width="130px" height="130px" viewBox="0 0 130 130" enable-background="new 0 0 130 130" xml:space="preserve">
<rect fill="none" width="130" height="130"/>
<path fill="#4D4D4D" d="M16.25,1v125.105h0.002c0,0-0.002,0.002-0.002,0.005c0.01,1.593,1.364,2.895,3.019,2.89h94.481v-5.795V1
	H16.25z M73.809,25.404c0-2.143,1.131-3.367,3.196-3.367c2.064,0,3.19,1.225,3.19,3.367v6.952c0,2.143-1.126,3.367-3.19,3.367
	c-2.065,0-3.196-1.224-3.196-3.367V25.404z M80.688,55.701c-1.137,0.908-2.402,1.712-3.767,2.413
	c-0.478-1.385-1.022-2.698-1.635-3.907c-0.534-1.063-1.104-2.028-1.712-2.89C76.211,52.35,78.618,53.844,80.688,55.701z
	 M66.151,72.084v-8.908c3.273-0.125,6.434-0.768,9.333-1.894c0.877,3.299,1.375,6.973,1.453,10.801H66.151z M76.927,74.388
	c-0.094,3.828-0.617,7.491-1.515,10.775c-2.879-1.105-6.018-1.743-9.261-1.863v-8.912H76.927z M74.815,59.062
	c-2.641,1.043-5.572,1.681-8.664,1.811V49.729c1.131,0.057,2.247,0.192,3.331,0.399c1.364,1.183,2.641,2.9,3.751,5.11
	C73.83,56.422,74.358,57.698,74.815,59.062z M57.395,31.536h1.981v0.955c0,0.96,0.426,1.297,1.095,1.297
	c0.67,0,1.085-0.337,1.085-1.297c0-2.755-4.109-3.268-4.109-7.086c0-2.143,1.054-3.367,3.098-3.367s3.097,1.225,3.097,3.367v0.415
	h-1.987v-0.55c0-0.959-0.384-1.323-1.053-1.323s-1.048,0.363-1.048,1.323c0,2.75,4.108,3.263,4.108,7.087
	c0,2.143-1.073,3.367-3.133,3.367c-2.065,0-3.134-1.224-3.134-3.367V31.536z M49.307,55.701c2.075-1.857,4.478-3.351,7.112-4.384
	c-0.606,0.861-1.178,1.826-1.712,2.89c-0.612,1.209-1.156,2.521-1.629,3.907C51.714,57.413,50.448,56.608,49.307,55.701z
	 M52.383,60.349c-0.985,3.584-1.546,7.58-1.623,11.735h-9.271c0.28-5.676,2.563-10.827,6.169-14.754
	C49.1,58.507,50.687,59.519,52.383,60.349z M49.291,31.536h1.981v0.955c0,0.96,0.421,1.297,1.095,1.297
	c0.664,0,1.085-0.337,1.085-1.297c0-2.755-4.109-3.268-4.109-7.086c0-2.143,1.054-3.367,3.098-3.367
	c2.049,0,3.097,1.225,3.097,3.367v0.415h-1.986v-0.55c0-0.959-0.384-1.323-1.054-1.323c-0.664,0-1.053,0.363-1.053,1.323
	c0,2.75,4.113,3.263,4.113,7.087c0,2.143-1.068,3.367-3.139,3.367c-2.064,0-3.128-1.224-3.128-3.367V31.536z M39.195,27.235
	c0,2.143-1.032,3.305-3.139,3.305h-0.99v5.032h-2.102V22.187h3.092c2.106,0,3.139,1.167,3.139,3.31V27.235z M42.464,22.187h3.076
	l2.143,13.385h-2.127l-0.357-2.428h-2.584l-0.363,2.428h-1.93L42.464,22.187z M41.488,74.388h9.276
	c0.104,4.15,0.68,8.135,1.691,11.698c-1.728,0.841-3.341,1.868-4.799,3.056C44.052,85.22,41.769,80.068,41.488,74.388z
	 M49.307,90.775c1.167-0.923,2.454-1.753,3.85-2.459c0.456,1.303,0.976,2.527,1.551,3.674c0.617,1.219,1.287,2.313,1.992,3.273
	C53.955,94.231,51.454,92.695,49.307,90.775z M63.849,96.747c-0.98-0.052-1.94-0.161-2.89-0.321
	c-1.536-1.178-2.957-3.024-4.192-5.479c-0.56-1.105-1.058-2.304-1.499-3.569c2.62-1.027,5.52-1.649,8.581-1.774V96.747z
	 M63.849,83.3c-3.248,0.12-6.382,0.758-9.266,1.863c-0.897-3.284-1.422-6.947-1.515-10.775h10.78V83.3z M63.849,72.084H53.062
	c0.073-3.828,0.576-7.502,1.453-10.801c2.899,1.126,6.06,1.769,9.333,1.894V72.084z M63.849,60.873
	c-3.098-0.13-6.023-0.768-8.664-1.811c0.456-1.364,0.985-2.641,1.582-3.823c1.115-2.21,2.382-3.927,3.746-5.11
	c1.089-0.208,2.199-0.342,3.336-0.399V60.873z M65.819,22.187h3.098c2.101,0,3.133,1.167,3.133,3.31v1.738
	c0,2.143-1.032,3.305-3.133,3.305h-0.991v5.032h-2.106V22.187z M69.036,96.426c-0.944,0.16-1.909,0.27-2.885,0.321V85.604
	c3.062,0.125,5.961,0.747,8.581,1.774c-0.441,1.266-0.939,2.464-1.499,3.569C71.998,93.401,70.571,95.248,69.036,96.426z
	 M73.295,95.264c0.711-0.96,1.375-2.055,1.992-3.273c0.576-1.146,1.095-2.371,1.552-3.674c1.396,0.706,2.688,1.536,3.85,2.459
	C78.54,92.695,76.045,94.231,73.295,95.264z M82.343,89.142c-1.463-1.188-3.071-2.215-4.799-3.056
	c1.007-3.563,1.588-7.548,1.691-11.698h9.271C88.231,80.068,85.943,85.22,82.343,89.142z M79.235,72.084
	c-0.072-4.155-0.638-8.15-1.624-11.735c1.702-0.83,3.289-1.842,4.731-3.02c3.601,3.927,5.889,9.079,6.163,14.754H79.235z
	 M86.903,35.572c-0.114-0.348-0.192-0.555-0.192-1.649v-2.096c0-1.245-0.42-1.707-1.375-1.707H84.61v5.452h-2.102V22.187h3.175
	c2.18,0,3.113,1.012,3.113,3.082v1.048c0,1.375-0.441,2.277-1.375,2.713c1.048,0.441,1.396,1.453,1.396,2.848v2.07
	c0,0.643,0.016,1.125,0.223,1.624H86.903z M97.035,24.102h-2.2v11.47h-2.101v-11.47h-2.2v-1.915h6.501V24.102z M37.095,25.362v2.008
	c0,0.954-0.363,1.26-1.038,1.26h-0.99v-4.529h0.99C36.731,24.102,37.095,24.408,37.095,25.362z M68.917,28.63h-0.991v-4.529h0.991
	c0.669,0,1.032,0.306,1.032,1.261v2.008C69.949,28.324,69.586,28.63,68.917,28.63z M86.695,25.477v1.317
	c0,1.074-0.477,1.417-1.266,1.417H84.61v-4.109h1.012C86.369,24.102,86.695,24.517,86.695,25.477z M44.907,31.328h-2.023l1.012-6.77
	L44.907,31.328z M75.915,32.49v-7.222c0-0.959,0.415-1.323,1.09-1.323c0.669,0,1.089,0.363,1.089,1.323v7.222
	c0,0.96-0.42,1.318-1.089,1.318C76.33,33.808,75.915,33.45,75.915,32.49z"/>
</svg>
