<?xml version="1.0" encoding="utf-8"?>
<!-- Generator: Adobe Illustrator 16.0.0, SVG Export Plug-In . SVG Version: 6.00 Build 0)  -->
<!DOCTYPE svg PUBLIC "-//W3C//DTD SVG 1.1//EN" "http://www.w3.org/Graphics/SVG/1.1/DTD/svg11.dtd">
<svg version="1.1" id="Layer_1" xmlns="http://www.w3.org/2000/svg" xmlns:xlink="http://www.w3.org/1999/xlink" x="0px" y="0px"
	 width="130px" height="130px" viewBox="0 0 130 130" enable-background="new 0 0 130 130" xml:space="preserve">
<rect fill="none" width="130" height="130"/>
<g>
	<g>
		<path fill="#4D4D4D" d="M29.701,49.579c2.676,0,5.212-0.544,7.533-1.526c-2.066-4.143-3.242-8.804-3.242-13.738
			c0-7.392,2.609-14.188,6.963-19.511c-3.17-2.301-7.04-3.695-11.254-3.695c-10.621,0-19.237,8.611-19.237,19.232
			C10.463,40.978,19.08,49.579,29.701,49.579z M48.915,63.877c-4.124-7.554-15.872-7.195-15.872-7.195h-9.321
			c0,0-8.688-0.305-13.656,6.841c-2.661,3.816-6.78,18.527-8.507,25.922c-0.306,1.15-0.402,1.846-0.402,1.846
			c-0.706,2.729,1.036,4.968,3.86,4.968h21.237c2.369-8.19,5.466-17.598,8.204-21.53c4.301-6.175,10.142-8.985,14.845-10.284
			C49.173,64.247,49.034,64.036,48.915,63.877z"/>
	</g>
	<g>
		<path fill="#4D4D4D" d="M128.833,91.305l-0.202-1.046c-1.553-6.685-6.242-22.526-9.292-26.382
			c-4.124-7.554-15.872-7.195-15.872-7.195h-9.321c0,0-8.688-0.305-13.655,6.841c-0.226,0.321-0.461,0.743-0.7,1.204
			c5.442,1.476,11.542,4.478,15.07,10.592c2.92,4.018,6.114,12.869,8.631,20.939h21.534
			C127.845,96.258,129.562,94.027,128.833,91.305z M92.55,48.02c2.325,1.001,4.886,1.56,7.575,1.56
			c10.631,0,19.243-8.602,19.243-19.238c0-10.621-8.612-19.232-19.243-19.232c-4.225,0-8.099,1.405-11.272,3.717
			C93.191,20.145,95.8,26.93,95.8,34.314C95.8,39.244,94.605,43.886,92.55,48.02z"/>
	</g>
	<g>
		<path fill="#4D4D4D" d="M64.891,59.604c13.973,0,25.29-11.306,25.29-25.29c0-13.96-11.316-25.282-25.29-25.282
			c-13.967,0-25.284,11.322-25.284,25.282C39.607,48.299,50.924,59.604,64.891,59.604z M102.623,114.452l-0.264-1.372
			c-2.043-8.791-8.209-29.615-12.218-34.679c-5.418-9.931-20.867-9.456-20.867-9.456H57.022c0,0-11.412-0.403-17.947,8.986
			c-3.491,5.02-8.909,24.357-11.187,34.07c-0.398,1.515-0.528,2.432-0.528,2.432c-0.92,3.591,1.367,6.534,5.078,6.534h65.178
			C101.329,120.968,103.582,118.034,102.623,114.452z"/>
	</g>
</g>
</svg>
