<?xml version="1.0" encoding="utf-8"?>
<!-- Generator: Adobe Illustrator 16.0.0, SVG Export Plug-In . SVG Version: 6.00 Build 0)  -->
<!DOCTYPE svg PUBLIC "-//W3C//DTD SVG 1.1//EN" "http://www.w3.org/Graphics/SVG/1.1/DTD/svg11.dtd">
<svg version="1.1" id="Layer_1" xmlns="http://www.w3.org/2000/svg" xmlns:xlink="http://www.w3.org/1999/xlink" x="0px" y="0px"
	 width="130px" height="130px" viewBox="0 0 130 130" enable-background="new 0 0 130 130" xml:space="preserve">
<rect fill="none" width="130" height="130"/>
<g>
	<g>
		<path fill="#4D4D4D" d="M41.567,60.377c15.025,0,27.198-12.158,27.198-27.193C68.765,18.173,56.592,6,41.567,6
			C26.55,6,14.386,18.173,14.386,33.184C14.386,48.219,26.55,60.377,41.567,60.377z M82.138,119.352l-0.283-1.478
			c-2.192-9.454-8.828-31.848-13.14-37.289c-5.82-10.674-22.43-10.169-22.43-10.169H33.109c0,0-12.269-0.432-19.298,9.665
			c-3.748,5.394-9.579,26.19-12.024,36.633c-0.429,1.633-0.569,2.611-0.569,2.611c-0.986,3.864,1.469,7.027,5.459,7.027h70.082
			C80.746,126.353,83.173,123.2,82.138,119.352z"/>
	</g>
	<g>
		<path fill="#4D4D4D" d="M102.151,82.822c9.884,0,17.896-7.995,17.896-17.884c0-9.884-8.013-17.892-17.896-17.892
			s-17.881,8.008-17.881,17.892C84.271,74.827,92.268,82.822,102.151,82.822z M128.841,121.629l-0.18-0.967
			c-1.445-6.222-5.81-20.955-8.647-24.534c-3.828-7.033-14.755-6.695-14.755-6.695h-8.674c0,0-8.075-0.291-12.697,6.357
			c-0.171,0.25-0.368,0.645-0.551,0.988c2.741,8.546,4.879,16.762,5.478,19.342l0.301,1.545c0.749,3.018,0.354,6.024-0.975,8.572
			h37.168C127.934,126.237,129.525,124.162,128.841,121.629z"/>
	</g>
	<path fill="#4D4D4D" d="M100.107,3.647c-9.639,0-17.161,6.602-26.37,17.3c7.942,9.151,14.602,17.312,26.37,17.312
		c11.771,0,20.427-10.333,26.38-17.122C120.396,13.194,111.741,3.647,100.107,3.647z M100.112,31.038
		c-5.769,0-10.437-4.513-10.437-10.083c0-5.571,4.668-10.086,10.437-10.086c5.761,0,10.435,4.515,10.435,10.086
		C110.547,26.524,105.873,31.038,100.112,31.038z"/>
	<g>
		<path fill="#4D4D4D" d="M100.112,16.331c-2.65,0-4.786,2.073-4.786,4.624c0,2.553,2.136,4.623,4.786,4.623
			c2.643,0,4.782-2.07,4.782-4.623C104.895,18.403,102.755,16.331,100.112,16.331z"/>
	</g>
</g>
</svg>
