<?xml version="1.0" encoding="utf-8"?>
<!-- Generator: Adobe Illustrator 16.0.0, SVG Export Plug-In . SVG Version: 6.00 Build 0)  -->
<!DOCTYPE svg PUBLIC "-//W3C//DTD SVG 1.1//EN" "http://www.w3.org/Graphics/SVG/1.1/DTD/svg11.dtd">
<svg version="1.1" id="Layer_1" xmlns="http://www.w3.org/2000/svg" xmlns:xlink="http://www.w3.org/1999/xlink" x="0px" y="0px"
	 width="130px" height="130px" viewBox="0 0 130 130" enable-background="new 0 0 130 130" xml:space="preserve">
<rect fill="none" width="130" height="130"/>
<g>
	<g>
		<path fill="#4D4D4D" d="M42.818,64.86c14.222,0,25.746-11.51,25.746-25.742c0-14.212-11.523-25.737-25.746-25.737
			c-14.223,0-25.736,11.525-25.736,25.737C17.082,53.351,28.595,64.86,42.818,64.86z M81.224,120.692l-0.271-1.394
			c-2.073-8.955-8.352-30.15-12.435-35.312c-5.515-10.101-21.239-9.618-21.239-9.618H34.806c0,0-11.617-0.413-18.266,9.15
			c-3.55,5.106-9.07,24.79-11.386,34.681c-0.409,1.541-0.536,2.468-0.536,2.468c-0.941,3.664,1.389,6.653,5.161,6.653h66.354
			C79.909,127.321,82.204,124.337,81.224,120.692z"/>
	</g>
	<g>
		<path fill="#4D4D4D" d="M100.174,87.893c9.352,0,16.94-7.569,16.94-16.931c0-9.357-7.589-16.937-16.94-16.937
			c-9.356,0-16.936,7.58-16.936,16.937C83.238,80.323,90.817,87.893,100.174,87.893z M125.441,124.633l-0.172-0.917
			c-1.369-5.89-5.501-19.839-8.186-23.227c-3.624-6.652-13.971-6.338-13.971-6.338h-8.209c0,0-7.647-0.271-12.025,6.018
			c-0.158,0.236-0.35,0.615-0.522,0.936c2.601,8.092,4.619,15.875,5.19,18.312l0.281,1.468c0.709,2.856,0.335,5.702-0.921,8.115
			h35.186C124.58,129,126.087,127.035,125.441,124.633z"/>
	</g>
	<g>
		<path fill="#4D4D4D" d="M88.286,1c-11.607,0-21.59,5.539-26.228,13.525c7.618,4.273,12.793,12.422,12.793,21.771
			c0,2.945-0.541,5.765-1.482,8.39c2.822,1.378,5.959,2.37,9.293,2.905l-7.776,9.37l15.843-9.022
			c14.872-1.007,26.559-11.103,26.559-23.418C117.287,11.53,104.306,1,88.286,1z"/>
	</g>
</g>
</svg>
