<?xml version="1.0" encoding="utf-8"?>
<!-- Generator: Adobe Illustrator 16.0.0, SVG Export Plug-In . SVG Version: 6.00 Build 0)  -->
<!DOCTYPE svg PUBLIC "-//W3C//DTD SVG 1.1//EN" "http://www.w3.org/Graphics/SVG/1.1/DTD/svg11.dtd">
<svg version="1.1" id="Layer_1" xmlns="http://www.w3.org/2000/svg" xmlns:xlink="http://www.w3.org/1999/xlink" x="0px" y="0px"
	 width="130px" height="130px" viewBox="0 0 130 130" enable-background="new 0 0 130 130" xml:space="preserve">
<rect fill="none" width="130" height="130"/>
<g>
	<g>
		<path fill="#4D4D4D" d="M44.269,67.027c14.111,0,25.544-11.42,25.544-25.541c0-14.101-11.433-25.536-25.544-25.536
			c-14.105,0-25.532,11.435-25.532,25.536C18.737,55.607,30.164,67.027,44.269,67.027z M82.376,122.424l-0.27-1.383
			c-2.057-8.886-8.286-29.915-12.34-35.036c-5.464-10.021-21.066-9.542-21.066-9.542H36.32c0,0-11.524-0.411-18.125,9.078
			c-3.523,5.066-9,24.597-11.295,34.41c-0.402,1.529-0.534,2.448-0.534,2.448c-0.927,3.635,1.38,6.601,5.13,6.601h65.828
			C81.068,129,83.348,126.039,82.376,122.424z"/>
	</g>
	<g>
		<path fill="#4D4D4D" d="M91.188,1C78.12,1,66.887,7.234,61.659,16.224c8.583,4.814,14.409,13.986,14.409,24.515
			c0,3.315-0.608,6.489-1.666,9.445c3.171,1.551,6.699,2.673,10.461,3.269L76.1,64.003l17.844-10.155
			c16.742-1.138,29.896-12.503,29.896-26.368C123.839,12.855,109.223,1,91.188,1z"/>
	</g>
</g>
</svg>
