<?xml version="1.0" encoding="utf-8"?>
<!-- Generator: Adobe Illustrator 16.0.0, SVG Export Plug-In . SVG Version: 6.00 Build 0)  -->
<!DOCTYPE svg PUBLIC "-//W3C//DTD SVG 1.1//EN" "http://www.w3.org/Graphics/SVG/1.1/DTD/svg11.dtd">
<svg version="1.1" id="Layer_1" xmlns="http://www.w3.org/2000/svg" xmlns:xlink="http://www.w3.org/1999/xlink" x="0px" y="0px"
	 width="130px" height="130px" viewBox="0 0 130 130" enable-background="new 0 0 130 130" xml:space="preserve">
<rect fill="none" width="130" height="130"/>
<g>
	<g>
		<polygon fill="#4D4D4D" points="29.282,15.001 32.584,2.673 78.602,15.001 83.875,15.001 32.277,1.178 31.62,1 27.871,15.001 		
			"/>
		<polygon fill="#4D4D4D" points="16.875,105.747 5.768,102.77 16.875,61.311 16.875,56.037 4.272,103.075 4.094,103.734 
			16.875,107.158 		"/>
		<polygon fill="#4D4D4D" points="113.12,22.835 113.12,24.248 124.232,27.225 113.12,68.696 113.12,73.973 125.728,26.919 
			125.906,26.26 		"/>
		<polygon fill="#4D4D4D" points="99.374,119.998 97.41,127.326 70.061,119.998 64.789,119.998 97.717,128.821 98.375,129 
			100.787,119.998 		"/>
	</g>
	<g>
		<polygon fill="#4D4D4D" points="113.12,28.703 113.12,51.957 118.936,30.26 		"/>
		<polygon fill="#4D4D4D" points="61.978,15.001 35.657,7.95 33.767,15.001 		"/>
	</g>
	<g>
		<g>
			<path fill="none" stroke="#4D4D4D" stroke-width="1.3644" stroke-miterlimit="10" d="M113.803,120.681h-97.61V14.319h97.61
				V120.681z"/>
		</g>
	</g>
	
		<rect x="21.89" y="19.984" fill="none" stroke="#4D4D4D" stroke-width="1.3644" stroke-miterlimit="10" width="86.214" height="77.517"/>
	<polygon fill="#4D4D4D" points="83.164,69.64 68.533,81.157 68.533,97.911 108.248,97.933 108.248,86.396 	"/>
	<polygon fill="#4D4D4D" points="46.823,57.074 21.405,82.202 21.421,97.933 87.582,97.933 	"/>
	<path fill="#4D4D4D" d="M85.011,31.252c-5.181,0-9.375,4.194-9.375,9.37c0,5.181,4.194,9.375,9.375,9.375
		c5.175,0,9.37-4.194,9.37-9.375C94.381,35.446,90.186,31.252,85.011,31.252z"/>
</g>
</svg>
