<?xml version="1.0" encoding="utf-8"?>
<!-- Generator: Adobe Illustrator 16.0.0, SVG Export Plug-In . SVG Version: 6.00 Build 0)  -->
<!DOCTYPE svg PUBLIC "-//W3C//DTD SVG 1.1//EN" "http://www.w3.org/Graphics/SVG/1.1/DTD/svg11.dtd">
<svg version="1.1" id="Layer_1" xmlns="http://www.w3.org/2000/svg" xmlns:xlink="http://www.w3.org/1999/xlink" x="0px" y="0px"
	 width="130px" height="130px" viewBox="0 0 130 130" enable-background="new 0 0 130 130" xml:space="preserve">
<rect fill="none" width="130" height="130"/>
<g>
	<g>
		<path fill="#4D4D4D" d="M9.452,67.867l-7.12-26.569c-0.381-1.438,0.476-2.918,1.909-3.302l100.154-26.837
			c0.23-0.061,0.466-0.092,0.701-0.092c1.218,0,2.287,0.823,2.605,1.997l5.793,21.62l1.046,0.082c0,0,0.106-0.008,0.255-0.021
			L108.9,12.741c-0.551-2.053-2.766-3.341-4.825-2.78L3.921,36.798c-2.096,0.556-3.348,2.72-2.787,4.82l8.318,31.042V67.867z"/>
		<g>
			<polygon fill="#4D4D4D" points="20.229,108.087 16.954,95.864 15.668,95.864 18.943,108.087 			"/>
			<path fill="#4D4D4D" d="M128.867,87.259L121.295,59c-0.043,1.214-0.082,2.22-0.082,2.22v2.265l6.456,24.094
				c0.381,1.438-0.476,2.921-1.91,3.307l-69.958,18.746v1.284l70.278-18.832C128.176,91.521,129.425,89.357,128.867,87.259z"/>
		</g>
	</g>
	<g>
		<path fill="#4D4D4D" d="M109.801,34.53l-4.436-16.546c-0.476-1.771-2.29-2.819-4.061-2.349L30.797,34.53H109.801z"/>
		<path fill="#4D4D4D" d="M123.188,84.488l-1.926-7.188v11.092C122.766,87.764,123.624,86.111,123.188,84.488z"/>
		<path fill="#4D4D4D" d="M9.695,40.185l-0.534,0.143c-1.771,0.476-2.823,2.295-2.348,4.061l2.882,10.755V40.185z"/>
	</g>
	<g>
		<g>
			<path fill="#4D4D4D" d="M117.321,33.909H13.635c-2.516,0-4.561,2.043-4.561,4.556v77.146c0,2.516,2.045,4.561,4.561,4.561
				h103.687c2.516,0,4.562-2.045,4.562-4.561V38.465C121.883,35.952,119.837,33.909,117.321,33.909z M120.641,115.61
				c0,1.834-1.485,3.318-3.319,3.318H13.635c-1.834,0-3.318-1.484-3.318-3.318V38.465c0-1.834,1.484-3.314,3.318-3.314h103.687
				c1.834,0,3.319,1.48,3.319,3.314V115.61z"/>
		</g>
	</g>
	<path fill="none" stroke="#4D4D4D" stroke-width="1.2422" stroke-miterlimit="10" d="M113.178,39.294H17.779
		c-1.83,0-3.314,1.485-3.314,3.319v54.614l0.247,13.984c0,1.834,1.485,3.318,3.314,3.318h95.151c1.834,0,3.066-1.234,3.066-3.068
		l0.247-15.146V42.613C116.491,40.779,115.012,39.294,113.178,39.294z"/>
	<path fill="#4D4D4D" d="M48.178,86.232v28.992h63.772c4.5,0,4.959-1.155,4.959-4.962V95.292L73.499,66.3L48.178,86.232z"/>
	<ellipse fill="#4D4D4D" cx="100.731" cy="54.225" rx="8.913" ry="8.918"/>
	<path fill="#4D4D4D" d="M14.048,96.902v14.979c0,1.849,1.494,3.349,3.341,3.349h73.9L43.711,67.557L14.048,96.902z"/>
</g>
</svg>
