<?xml version="1.0" encoding="utf-8"?>
<!-- Generator: Adobe Illustrator 16.0.0, SVG Export Plug-In . SVG Version: 6.00 Build 0)  -->
<!DOCTYPE svg PUBLIC "-//W3C//DTD SVG 1.1//EN" "http://www.w3.org/Graphics/SVG/1.1/DTD/svg11.dtd">
<svg version="1.1" id="Layer_1" xmlns="http://www.w3.org/2000/svg" xmlns:xlink="http://www.w3.org/1999/xlink" x="0px" y="0px"
	 width="130px" height="130px" viewBox="0 0 130 130" enable-background="new 0 0 130 130" xml:space="preserve">
<rect fill="none" width="130" height="130"/>
<g>
	<path fill="#4D4D4D" d="M105.528,115.914c0,0-3.758-10.796-8.946-25.759c-1.167,0.415-2.403,0.684-3.711,0.684
		c-6.136,0-11.11-4.978-11.11-11.11c0-4.895,3.181-9.005,7.575-10.491c-3.286-9.502-6.707-19.41-9.881-28.637
		c-0.92,1.064-2.249,1.764-3.767,1.764c-2.779,0-5.028-2.25-5.028-5.026s2.249-5.025,5.028-5.025c0.331,0,0.651,0.053,0.964,0.122
		C70.538,14.596,65.946,1,66.166,1l-6.23,17.092c3.433,1.891,5.774,5.514,5.774,9.708c0,6.138-4.975,11.115-11.11,11.115
		c-0.744,0-1.466-0.1-2.169-0.244l-3.693,10.127c1.737,0.788,2.969,2.496,2.969,4.528c0,2.776-2.249,5.025-5.028,5.025
		c-0.468,0-0.915-0.09-1.344-0.215l-6.407,17.566c3.92,1.717,6.68,5.592,6.68,10.148c0,6.134-4.975,11.11-11.111,11.11
		c-1.098,0-2.14-0.2-3.14-0.497l-7.07,19.393l-1.927,4.521C23.577,120.9,42.994,129,67.433,129c12.664,0,26.683-2.176,40.208-8.715
		L105.528,115.914z M43.406,113.147c-2.776,0-5.025-2.255-5.025-5.031s2.249-5.025,5.025-5.025s5.026,2.249,5.026,5.025
		S46.183,113.147,43.406,113.147z M66.234,46.114c6.136,0,11.11,4.972,11.11,11.11c0,6.134-4.975,11.11-11.11,11.11
		s-11.11-4.977-11.11-11.11C55.124,51.086,60.099,46.114,66.234,46.114z M51.638,75.073c0-2.776,2.25-5.025,5.026-5.025
		s5.025,2.249,5.025,5.025S59.44,80.1,56.664,80.1S51.638,77.85,51.638,75.073z M65.459,108.951c-6.136,0-11.11-4.978-11.11-11.11
		c0-6.139,4.975-11.115,11.11-11.115s11.11,4.977,11.11,11.115C76.569,103.974,71.595,108.951,65.459,108.951z M73.725,83.383
		c-2.776,0-5.026-2.249-5.026-5.025s2.25-5.026,5.026-5.026s5.025,2.25,5.025,5.026S76.501,83.383,73.725,83.383z M89.012,105.926
		c-2.776,0-5.028-2.25-5.028-5.026s2.252-5.025,5.028-5.025s5.025,2.249,5.025,5.025S91.788,105.926,89.012,105.926z"/>
</g>
</svg>
