<?xml version="1.0" encoding="utf-8"?>
<!-- Generator: Adobe Illustrator 16.0.0, SVG Export Plug-In . SVG Version: 6.00 Build 0)  -->
<!DOCTYPE svg PUBLIC "-//W3C//DTD SVG 1.1//EN" "http://www.w3.org/Graphics/SVG/1.1/DTD/svg11.dtd">
<svg version="1.1" id="Layer_1" xmlns="http://www.w3.org/2000/svg" xmlns:xlink="http://www.w3.org/1999/xlink" x="0px" y="0px"
	 width="130px" height="130px" viewBox="0 0 130 130" enable-background="new 0 0 130 130" xml:space="preserve">
<rect fill="none" width="130" height="130"/>
<g>
	<g>
		<path fill="#4D4D4D" d="M64.331,31.321c-19.122,0-34.686,15.559-34.686,34.684c0,19.124,15.564,34.684,34.686,34.684
			c19.122,0,34.683-15.56,34.683-34.684C99.014,46.88,83.452,31.321,64.331,31.321z"/>
		<path fill="#4D4D4D" d="M64.331,20.181c-25.305,0-45.819,20.517-45.819,45.824c0,25.303,20.515,45.819,45.819,45.819
			c25.309,0,45.824-20.517,45.824-45.819C110.154,40.698,89.64,20.181,64.331,20.181z M64.331,103.054
			c-20.431,0-37.051-16.62-37.051-37.049S43.9,28.951,64.331,28.951c20.43,0,37.055,16.625,37.055,37.054
			S84.761,103.054,64.331,103.054z"/>
	</g>
	<path fill="#4D4D4D" d="M9.604,52.637c2.08-2.53,2.639-7.455,2.469-10.96c-0.225-4.721-1.267-13.897-1.267-13.897
		c-0.104-0.928-0.411-1.689-0.678-1.689s-0.487,0.766-0.487,1.699v10.857v1.699c0,0.19-0.079,0.353-0.202,0.464
		c-0.1,0.093-0.223,0.153-0.367,0.153c-0.142,0-0.26-0.06-0.362-0.153c-0.121-0.111-0.202-0.274-0.202-0.464v-1.699V27.789
		c0-0.933-0.313-1.699-0.696-1.699c-0.385,0-0.696,0.766-0.696,1.699v10.857v1.699c0,0.19-0.081,0.353-0.204,0.464
		c-0.098,0.093-0.218,0.153-0.357,0.153H6.551H6.549c-0.14,0-0.265-0.06-0.36-0.153c-0.123-0.111-0.204-0.274-0.204-0.464v-1.699
		V27.789c0-0.933-0.313-1.699-0.699-1.699c-0.378,0-0.689,0.766-0.689,1.699v10.857v1.699c0,0.19-0.086,0.353-0.207,0.464
		c-0.098,0.093-0.223,0.153-0.362,0.153c-0.14,0-0.263-0.06-0.36-0.153c-0.125-0.111-0.207-0.274-0.207-0.464v-1.699V27.789
		c0-0.933-0.221-1.699-0.49-1.699c-0.267,0-0.573,0.761-0.678,1.689c0,0-1.044,9.177-1.267,13.897
		c-0.167,3.505,0.395,8.43,2.472,10.96c3.595,4.382-1.451,40.615-1.451,45.518c0,4.289,2.012,7.766,4.5,7.766h0.002h0.002
		c2.483,0,4.5-3.477,4.5-7.766C11.054,93.252,6.004,57.019,9.604,52.637z"/>
	<path fill="#4D4D4D" d="M124.502,66.293c2.49-4.141,5.061-10.389,4.391-21.459c-0.857-15.685-8.936-29.935-10.248-25.994
		c-1.309,3.945,0.311,12.737,1.01,26.528c0.477,7.357,0.445,11.173,0.553,15.978c0.023,0.961,0.059,1.848,0.111,2.641
		c0.059,0.952,0.15,1.773,0.285,2.456c0.834,11.595-2.703,27.363-2.703,31.532c0,4.423,2.082,8.016,4.643,8.016h0.004h0.004
		c2.564,0,4.645-3.593,4.645-8.016C127.195,93.786,123.631,77.818,124.502,66.293z"/>
</g>
</svg>
