<?xml version="1.0" encoding="utf-8"?>
<!-- Generator: Adobe Illustrator 16.0.0, SVG Export Plug-In . SVG Version: 6.00 Build 0)  -->
<!DOCTYPE svg PUBLIC "-//W3C//DTD SVG 1.1//EN" "http://www.w3.org/Graphics/SVG/1.1/DTD/svg11.dtd">
<svg version="1.1" id="Layer_1" xmlns="http://www.w3.org/2000/svg" xmlns:xlink="http://www.w3.org/1999/xlink" x="0px" y="0px"
	 width="130px" height="130px" viewBox="0 0 130 130" enable-background="new 0 0 130 130" xml:space="preserve">
<rect fill="none" width="130" height="130"/>
<g>
	<g>
		<path fill="#4D4D4D" d="M89.755,96.939l-1.048,4.59c-0.067,0.326-0.395,0.598-0.731,0.598H43.05c-0.334,0-0.662-0.271-0.729-0.598
			l-1.052-4.59H89.755z"/>
		<circle fill="#4D4D4D" cx="32.395" cy="112.289" r="3.638"/>
		<circle fill="#4D4D4D" cx="43.837" cy="107.386" r="3.638"/>
		<circle fill="#4D4D4D" cx="43.018" cy="118.007" r="3.638"/>
		<circle fill="#4D4D4D" cx="95.768" cy="114.74" r="3.638"/>
		<circle fill="#4D4D4D" cx="80.241" cy="110.651" r="3.638"/>
		<circle fill="#4D4D4D" cx="53.642" cy="113.922" r="3.638"/>
		<circle fill="#4D4D4D" cx="66.349" cy="125.361" r="3.638"/>
	</g>
	<g>
		<path fill="#4D4D4D" d="M66.477,24.454c4.045,0,7.205,2.961,7.023,6.578l-3.193,62.283h-9.788L59.27,31.032
			C59.19,27.415,62.434,24.454,66.477,24.454"/>
	</g>
	<path fill="#4D4D4D" d="M37.123,32.08c3.961,0,7.48,2.957,7.814,6.579l5.349,54.656h-9.784L31,38.659
		C30.407,35.037,33.159,32.08,37.123,32.08"/>
	<path fill="#4D4D4D" d="M58.653,32.268c-1.167-2.347-3.786-4.001-6.78-4.001c-4.004,0-7,2.957-6.662,6.578l5.521,58.469h9.145
		L58.653,32.268z"/>
	<path fill="#4D4D4D" d="M86.5,30.067c1.182,1.329,1.712,3.049,1.497,4.843l-0.031,0.25c1.591-2.208,4.302-3.722,7.231-3.722
		c2.036,0,3.854,0.767,5.085,2.078c0.155-0.376,0.268-0.781,0.308-1.236c0.07-0.785-0.497-1.433-0.368-2.289
		c0.097-0.63,0.662-1.282,0.811-1.946c0.326-1.449-0.006-2.965-0.451-4.327c-0.338-1.028-0.077-1.429-1.169-2.197
		c-0.502-0.347-1.489-0.259-1.859-0.568c-1.336-1.115-0.244-2.661-1.996-3.617c-0.812-0.442-2.073,0.008-2.832-0.422
		c-1.073-0.601-0.518-0.706-1.011-1.566c-0.714-1.253-0.061-0.999-1.407-1.558c-0.637-0.263-1.514-0.175-2.185-0.422
		c-0.727-2.088-0.075-3.441-2.844-3.859c-1.6-0.238-1.75,0.292-2.678-0.973c-0.735-1.002,0-1.173-1.161-1.95
		C79.717,5.441,78.53,6.114,77.4,4.059c-0.631-1.145,0.097-1.487-1.604-1.951c-0.802-0.221-1.948,0.021-2.786-0.029
		c-0.888-2.373-4.36-0.054-6.09-0.313c-2.275-0.343-3.345-0.969-5.43,0.342c-0.983,0.618-1.019,0.986-2.218,1.174
		c-0.864,0.133-1.369-0.271-2.203,0.038c-1.779,0.66-2.756,2.606-4.648,3.074c-2.161,0.535-2.689-0.083-3.575,1.992
		c-0.33,0.777-0.286,1.671-0.856,2.281c-0.837,0.902-0.653,0.338-1.66,0.643c-1.044,0.313-0.716-0.234-1.704,0.581
		c-0.565,0.468-0.848,1.249-1.416,1.754c-1.29,1.148-3.345,0.714-4.339,2.088c-1.134,1.558,0.42,2.978-2.132,3.738
		c-0.071,1.337,0.537,3.889-0.679,4.787c-1.673,1.24-3.452-0.417-3.431,2.577c0.004,0.898,0.313,1.42,0.198,2.28
		c-0.117,0.877-0.48,1.19-0.351,2.185c0.08,0.604,0.312,1.13,0.602,1.618c1.213-0.941,2.784-1.479,4.492-1.479
		c2.853,0,5.455,1.431,7.008,3.534l-0.006-0.067c-0.17-1.817,0.415-3.559,1.644-4.908c1.376-1.508,3.438-2.375,5.657-2.375
		c2.821,0,5.312,1.364,6.758,3.396c-0.031-1.779,0.662-3.486,1.961-4.814c1.486-1.522,3.634-2.393,5.885-2.393
		c2.256,0,4.379,0.873,5.828,2.397c1.274,1.338,1.926,3.063,1.836,4.855l-0.008,0.169c1.462-2.086,4.005-3.502,6.855-3.502
		C83.177,27.732,85.186,28.583,86.5,30.067z"/>
	<path fill="#4D4D4D" d="M71.202,92.844h8.045l7.382-58.523c0.167-1.378-0.24-2.702-1.148-3.721
		c-1.049-1.184-2.673-1.863-4.461-1.863c-3.562,0-6.593,2.581-6.751,5.753L71.202,92.844z"/>
	<path fill="#4D4D4D" d="M95.197,32.08c3.964,0,6.631,2.957,5.936,6.579L89.874,93.314h-9.783l7.106-54.656
		C87.634,35.037,91.238,32.08,95.197,32.08"/>
</g>
</svg>
