<?xml version="1.0" encoding="utf-8"?>
<!-- Generator: Adobe Illustrator 16.0.0, SVG Export Plug-In . SVG Version: 6.00 Build 0)  -->
<!DOCTYPE svg PUBLIC "-//W3C//DTD SVG 1.1//EN" "http://www.w3.org/Graphics/SVG/1.1/DTD/svg11.dtd">
<svg version="1.1" id="Layer_1" xmlns="http://www.w3.org/2000/svg" xmlns:xlink="http://www.w3.org/1999/xlink" x="0px" y="0px"
	 width="130px" height="130px" viewBox="0 0 130 130" enable-background="new 0 0 130 130" xml:space="preserve">
<rect fill="none" width="130" height="130"/>
<g>
	<path fill="#4D4D4D" d="M98.957,1.731H34.944c-1.525,0-2.765,1.24-2.765,2.755v17.302c0,1.51,1.24,2.749,2.765,2.749h64.013
		c1.51,0,2.755-1.239,2.755-2.749V4.486C101.712,2.972,100.467,1.731,98.957,1.731z"/>
	<path fill="#4D4D4D" d="M97.743,80.778H35.561c-2.288,0-4.161,1.837-4.161,4.089v39.312c0,2.252,1.873,4.089,4.161,4.089h51.012
		l0.109-0.104v0.104l8.975-8.83l6.236-6.06V84.867C101.894,82.615,100.03,80.778,97.743,80.778z"/>
	
		<polygon fill="#FFFFFF" stroke="#4D4D4D" stroke-width="1.045" stroke-linecap="round" stroke-linejoin="round" stroke-miterlimit="10" points="
		86.604,113.162 86.604,127.796 101.479,113.162 	"/>
	<path fill="#4D4D4D" d="M124.859,28.672H5.124C2.852,28.672,1,30.534,1,32.812v69.865c0,2.272,1.852,4.14,4.124,4.14h17.883
		c2.271,0,4.129-1.867,4.129-4.14V82.061c0-2.277,1.862-4.141,4.13-4.141h67.193c2.272,0,4.13,1.863,4.13,4.141v20.616
		c0,2.272,1.862,4.14,4.14,4.14h18.131c2.272,0,4.141-1.867,4.141-4.14V32.812C129,30.534,127.132,28.672,124.859,28.672z
		 M99.029,46.259c-1.898,0-3.444-1.546-3.444-3.444c0-1.915,1.546-3.445,3.444-3.445c1.925,0,3.466,1.53,3.466,3.445
		C102.495,44.713,100.954,46.259,99.029,46.259z M112.86,46.248c-1.909,0-3.45-1.54-3.45-3.434c0-1.909,1.541-3.445,3.45-3.445
		s3.449,1.536,3.449,3.445C116.31,44.708,114.77,46.248,112.86,46.248z"/>
</g>
</svg>
