<?xml version="1.0" encoding="utf-8"?>
<!-- Generator: Adobe Illustrator 16.0.0, SVG Export Plug-In . SVG Version: 6.00 Build 0)  -->
<!DOCTYPE svg PUBLIC "-//W3C//DTD SVG 1.1//EN" "http://www.w3.org/Graphics/SVG/1.1/DTD/svg11.dtd">
<svg version="1.1" id="Layer_1" xmlns="http://www.w3.org/2000/svg" xmlns:xlink="http://www.w3.org/1999/xlink" x="0px" y="0px"
	 width="130px" height="130px" viewBox="0 0 130 130" enable-background="new 0 0 130 130" xml:space="preserve">
<rect fill="none" width="130" height="130"/>
<g>
	<path fill="#4D4D4D" d="M122.838,39.877H7.157c-2.494,0-4.542,2.038-4.542,4.526v80.071c0,2.493,2.048,4.525,4.542,4.525h115.681
		c2.499,0,4.547-2.032,4.547-4.525V44.403C127.385,41.915,125.337,39.877,122.838,39.877z M105.321,58.087
		c3.813,0,6.893,3.085,6.893,6.872c0,3.798-3.079,6.884-6.893,6.884c-3.797,0-6.893-3.086-6.893-6.884
		C98.429,61.172,101.524,58.087,105.321,58.087z M69.073,67.255c1.902,0,3.444,1.543,3.444,3.444c0,1.887-1.542,3.423-3.444,3.423
		c-1.901,0-3.454-1.536-3.454-3.423C65.62,68.798,67.172,67.255,69.073,67.255z M59.88,58.087c1.891,0,3.439,1.543,3.439,3.439
		c0,1.901-1.548,3.438-3.439,3.438c-1.917,0-3.454-1.538-3.454-3.438C56.426,59.63,57.963,58.087,59.88,58.087z M57.574,74.122
		c1.901,0,3.449,1.548,3.449,3.45c0,1.891-1.548,3.438-3.449,3.438c-1.896,0-3.449-1.547-3.449-3.438
		C54.125,75.67,55.678,74.122,57.574,74.122z M30.079,58.087c1.907,0,3.459,1.543,3.459,3.439c0,1.901-1.552,3.438-3.459,3.438
		c-1.901,0-3.449-1.538-3.449-3.438C26.63,59.63,28.178,58.087,30.079,58.087z M12.75,84.434c0-1.896,1.553-3.424,3.454-3.424
		c1.896,0,3.449,1.527,3.449,3.424c0,1.892-1.553,3.448-3.449,3.448C14.302,87.882,12.75,86.325,12.75,84.434z M20.795,101.678
		c-1.901,0-3.434-1.532-3.434-3.434c0-1.891,1.533-3.429,3.434-3.429c1.907,0,3.454,1.538,3.454,3.429
		C24.249,100.146,22.702,101.678,20.795,101.678z M20.795,74.122c-1.901,0-3.434-1.536-3.434-3.423c0-1.901,1.533-3.444,3.434-3.444
		c1.907,0,3.454,1.543,3.454,3.444C24.249,72.586,22.702,74.122,20.795,74.122z M30.079,110.785c-1.901,0-3.449-1.537-3.449-3.434
		s1.548-3.444,3.449-3.444c1.907,0,3.459,1.548,3.459,3.444S31.986,110.785,30.079,110.785z M32.3,94.744
		c-1.912,0-3.449-1.537-3.449-3.438c0-1.886,1.537-3.424,3.449-3.424c1.891,0,3.449,1.538,3.449,3.424
		C35.749,93.207,34.19,94.744,32.3,94.744z M32.3,81.01c-1.912,0-3.449-1.547-3.449-3.438c0-1.902,1.537-3.45,3.449-3.45
		c1.891,0,3.449,1.548,3.449,3.45C35.749,79.463,34.19,81.01,32.3,81.01z M44.957,115.362c-1.901,0-3.449-1.538-3.449-3.434
		c0-1.896,1.548-3.439,3.449-3.439c1.902,0,3.449,1.543,3.449,3.439C48.405,113.824,46.858,115.362,44.957,115.362z M44.957,101.678
		c-1.901,0-3.449-1.532-3.449-3.434c0-1.891,1.548-3.429,3.449-3.429c1.902,0,3.449,1.538,3.449,3.429
		C48.405,100.146,46.858,101.678,44.957,101.678z M44.947,87.882c-1.891,0-3.439-1.557-3.439-3.448c0-1.896,1.548-3.424,3.439-3.424
		c1.912,0,3.458,1.527,3.458,3.424C48.405,86.325,46.858,87.882,44.947,87.882z M44.957,74.122c-1.901,0-3.449-1.536-3.449-3.423
		c0-1.901,1.548-3.444,3.449-3.444c1.902,0,3.449,1.543,3.449,3.444C48.405,72.586,46.858,74.122,44.957,74.122z M44.957,60.378
		c-1.901,0-3.449-1.537-3.449-3.434c0-1.896,1.548-3.434,3.449-3.434c1.902,0,3.449,1.538,3.449,3.434
		C48.405,58.841,46.858,60.378,44.957,60.378z M54.125,91.114c0-1.882,1.552-3.43,3.449-3.43c1.901,0,3.449,1.548,3.449,3.43
		c0,1.901-1.548,3.443-3.449,3.443C55.678,94.558,54.125,93.016,54.125,91.114z M60.052,110.785c-1.911,0-3.449-1.537-3.449-3.434
		s1.538-3.444,3.449-3.444c1.901,0,3.444,1.548,3.444,3.444S61.953,110.785,60.052,110.785z M69.073,101.678
		c-1.901,0-3.454-1.532-3.454-3.434c0-1.891,1.552-3.429,3.454-3.429c1.902,0,3.444,1.538,3.444,3.429
		C72.518,100.146,70.976,101.678,69.073,101.678z M73.665,87.882c-1.896,0-3.448-1.557-3.448-3.448c0-1.896,1.553-3.424,3.448-3.424
		c1.896,0,3.443,1.527,3.443,3.424C77.108,86.325,75.562,87.882,73.665,87.882z M115.254,112.682H95.486
		c-1.285,0-2.312-1.031-2.312-2.306c0-1.279,1.026-2.312,2.312-2.312h19.768c1.283,0,2.32,1.032,2.32,2.312
		C117.574,111.65,116.537,112.682,115.254,112.682z"/>
	<path fill="#4D4D4D" d="M31.152,5.908c0.121-0.446-2.696,3.347-1.811,2.67l65.704,31.489h7.398L31.152,5.908z"/>
	<ellipse fill="#4D4D4D" cx="29.432" cy="6.183" rx="5.228" ry="5.183"/>
</g>
</svg>
