<?xml version="1.0" encoding="utf-8"?>
<!-- Generator: Adobe Illustrator 16.0.0, SVG Export Plug-In . SVG Version: 6.00 Build 0)  -->
<!DOCTYPE svg PUBLIC "-//W3C//DTD SVG 1.1//EN" "http://www.w3.org/Graphics/SVG/1.1/DTD/svg11.dtd">
<svg version="1.1" id="Layer_1" xmlns="http://www.w3.org/2000/svg" xmlns:xlink="http://www.w3.org/1999/xlink" x="0px" y="0px"
	 width="130px" height="130px" viewBox="0 0 130 130" enable-background="new 0 0 130 130" xml:space="preserve">
<rect fill="none" width="130" height="130"/>
<g>
	<path fill="#4D4D4D" d="M122.27,68.09c-3.718,0-6.741,3.015-6.741,6.733v12.592c0,3.23-2.693,5.859-5.992,5.859H23.85l9.026-9.128
		c2.621-2.643,2.591-6.901-0.053-9.522c-2.643-2.609-6.912-2.599-9.522,0.059L2.947,95.251c-2.596,2.621-2.596,6.844,0,9.467
		l20.354,20.583c1.32,1.328,3.057,1.995,4.793,1.995c1.712,0,3.429-0.65,4.729-1.945c2.644-2.619,2.674-6.877,0.058-9.525
		l-8.992-9.087h85.647c10.727,0,19.464-8.671,19.464-19.323V74.823C129,71.104,125.981,68.09,122.27,68.09z"/>
	<path fill="#4D4D4D" d="M127.048,25.256L106.689,4.698c-2.616-2.638-6.88-2.666-9.522-0.042c-2.646,2.608-2.665,6.875-0.047,9.517
		l8.982,9.07H20.457c-10.729,0-19.455,8.667-19.455,19.32v12.592c0,3.717,3.012,6.732,6.73,6.732c3.718,0,6.738-3.015,6.738-6.732
		V42.564c0-3.228,2.685-5.855,5.986-5.855h85.681L97.12,45.82c-2.618,2.643-2.599,6.909,0.047,9.526
		c1.312,1.299,3.021,1.95,4.737,1.95c1.739,0,3.465-0.672,4.785-1.993l20.361-20.573C129.647,32.109,129.647,27.879,127.048,25.256z
		"/>
</g>
</svg>
