<?xml version="1.0" encoding="utf-8"?>
<!-- Generator: Adobe Illustrator 16.0.0, SVG Export Plug-In . SVG Version: 6.00 Build 0)  -->
<!DOCTYPE svg PUBLIC "-//W3C//DTD SVG 1.1//EN" "http://www.w3.org/Graphics/SVG/1.1/DTD/svg11.dtd">
<svg version="1.1" id="Layer_1" xmlns="http://www.w3.org/2000/svg" xmlns:xlink="http://www.w3.org/1999/xlink" x="0px" y="0px"
	 width="130px" height="130px" viewBox="0 0 130 130" enable-background="new 0 0 130 130" xml:space="preserve">
<rect fill="none" width="130" height="130"/>
<g>
	<path fill="#4D4D4D" d="M113.557,122.97l-2.893-1.818c-3.178-1.99-6.199-3.896-8.853-6.165
		c-8.057-6.896-13.736-16.216-18.633-25.409c-5.245-9.826-10.836-27.87-13.745-44.916c4.229-1.399,7.275-5.349,7.275-10.011
		c0-5.827-4.757-10.552-10.608-10.552c-5.868,0-10.61,4.725-10.61,10.552c0,4.64,2.999,8.553,7.178,9.975
		c-2.899,17.082-8.166,34.973-14.093,44.947c-6.232,10.453-12.136,18.433-20.259,25.374c-2.677,2.283-5.716,4.184-8.9,6.219
		l-2.812,1.787c-1.657,0.009-3.013,1.358-3.013,3.023c0,1.666,1.359,3.024,3.026,3.024h28.88c1.666,0,3.024-1.358,3.024-3.024
		c0-1.552-1.174-2.82-2.674-2.996l-0.119-0.821c-0.145-1.079-0.219-2.112-0.219-3.097c0.006-5.763,2.362-10.187,5.169-13.395
		c3.268-3.711,8.282-6.951,15.054-6.951c3.488,0,6.346,0.885,8.801,2.153c2.489,1.286,4.534,2.906,6.215,4.838
		c2.897,3.345,5.251,7.731,5.263,13.63c0,0.921-0.055,1.887-0.183,2.889l-0.091,0.727c-1.663,0.009-3.015,1.358-3.015,3.023
		c0,1.666,1.36,3.024,3.024,3.024h27.634c1.673,0,3.028-1.358,3.028-3.024C116.409,124.36,115.147,123.061,113.557,122.97z
		 M65.956,93.002c-2.241,0-4.066-1.818-4.066-4.065c0-2.248,1.826-4.066,4.066-4.066c2.238,0,4.062,1.818,4.062,4.066
		C70.018,91.184,68.194,93.002,65.956,93.002z M65.956,79.332c-2.241,0-4.066-1.818-4.066-4.066s1.826-4.075,4.066-4.075
		c2.238,0,4.062,1.827,4.062,4.075S68.194,79.332,65.956,79.332z M65.956,65.653c-2.241,0-4.066-1.819-4.066-4.062
		c0-2.252,1.826-4.071,4.066-4.071c2.238,0,4.062,1.819,4.062,4.071C70.018,63.833,68.194,65.653,65.956,65.653z"/>
	<path fill="#4D4D4D" d="M56.057,50.664c-1.246-0.776-2.406-1.684-3.456-2.713c-3.513-3.516-5.457-8.168-5.46-13.124
		c0.004-4.946,1.947-9.609,5.465-13.111c1.018-1.011,2.151-1.905,3.369-2.649c1.48-0.92,1.943-2.875,1.029-4.355
		c-0.919-1.485-2.868-1.94-4.347-1.029c-1.625,1.006-3.141,2.193-4.5,3.547c-4.726,4.708-7.33,10.954-7.33,17.597
		c0,6.652,2.604,12.899,7.33,17.606c1.397,1.386,2.94,2.595,4.608,3.615c0.51,0.312,1.079,0.46,1.643,0.46
		c1.067,0,2.099-0.537,2.696-1.512C58.013,53.516,57.543,51.571,56.057,50.664z M43.535,63.536c-1.027-0.794-2.011-1.634-2.9-2.487
		c-7.305-6.928-11.326-16.112-11.331-25.847c0.004-9.726,4.03-18.911,11.331-25.852c0.923-0.88,1.938-1.729,3.179-2.681
		c1.388-1.051,1.657-3.033,0.603-4.423c-1.054-1.39-3.028-1.656-4.42-0.6c-1.439,1.087-2.615,2.08-3.712,3.127
		c-8.571,8.138-13.289,18.947-13.289,30.428c0,11.491,4.718,22.295,13.287,30.437c1.051,0.998,2.196,1.963,3.39,2.889
		c0.577,0.451,1.246,0.663,1.925,0.663c0.948,0,1.877-0.42,2.491-1.223C45.164,66.587,44.911,64.61,43.535,63.536z M84.756,17.23
		c-1.356-1.345-2.875-2.537-4.488-3.547c-1.492-0.912-3.435-0.456-4.353,1.029c-0.921,1.48-0.456,3.435,1.02,4.355
		c1.226,0.745,2.357,1.638,3.374,2.649c3.52,3.502,5.463,8.165,5.472,13.12c-0.009,4.942-1.952,9.6-5.475,13.115
		c-1.04,1.029-2.197,1.937-3.453,2.713c-1.486,0.907-1.951,2.852-1.04,4.333c0.589,0.975,1.632,1.512,2.697,1.512
		c0.56,0,1.13-0.148,1.64-0.46c1.671-1.025,3.217-2.239,4.602-3.611c4.729-4.711,7.337-10.958,7.337-17.602
		C92.088,28.184,89.479,21.938,84.756,17.23z M96.633,4.773c-1.11-1.051-2.288-2.049-3.72-3.127c-1.383-1.056-3.371-0.786-4.422,0.6
		c-1.057,1.39-0.781,3.376,0.613,4.432c1.234,0.938,2.249,1.792,3.182,2.676c7.294,6.937,11.314,16.121,11.314,25.856
		c0,9.727-4.021,18.911-11.314,25.843c-0.898,0.848-1.873,1.688-2.897,2.482c-1.381,1.075-1.641,3.051-0.564,4.432
		c0.612,0.803,1.549,1.223,2.494,1.223c0.674,0,1.355-0.212,1.922-0.663c1.201-0.926,2.339-1.891,3.388-2.889
		c8.562-8.142,13.289-18.946,13.294-30.428C109.917,23.72,105.198,12.911,96.633,4.773z"/>
</g>
</svg>
