<?xml version="1.0" encoding="utf-8"?>
<!-- Generator: Adobe Illustrator 16.0.0, SVG Export Plug-In . SVG Version: 6.00 Build 0)  -->
<!DOCTYPE svg PUBLIC "-//W3C//DTD SVG 1.1//EN" "http://www.w3.org/Graphics/SVG/1.1/DTD/svg11.dtd">
<svg version="1.1" id="Layer_1" xmlns="http://www.w3.org/2000/svg" xmlns:xlink="http://www.w3.org/1999/xlink" x="0px" y="0px"
	 width="130px" height="130px" viewBox="0 0 130 130" enable-background="new 0 0 130 130" xml:space="preserve">
<rect fill="none" width="130" height="130"/>
<g>
	<path fill="#4D4D4D" d="M15.654,15.901c0.061,0.051,0.129,0.111,0.202,0.182l98.138,95.024c0.007,0.007,0.015,0.014,0.023,0.021
		c-0.019,0.005-0.04,0.007-0.061,0.01c-0.1,0.015-10.103,1.329-23.365,1.329c-19.626,0-45.912-2.803-59.698-16.152
		C7.696,73.859,15.529,16.712,15.611,16.136C15.624,16.047,15.637,15.97,15.654,15.901 M15.331,13.244
		c-1.053,0-1.874,0.889-2.109,2.553c0,0-8.376,58.664,15.994,82.252c14.439,13.979,41.619,16.831,61.377,16.831
		c13.603,0,23.685-1.352,23.685-1.352c2.758-0.372,3.385-2.243,1.392-4.162L17.535,14.349
		C16.764,13.602,15.998,13.244,15.331,13.244L15.331,13.244z"/>
	<path fill="#4D4D4D" d="M97.25,32.177c-3.525-3.413-9.253-3.413-12.779,0c-3.31,3.196-3.521,8.263-0.584,11.704l-34.51,21.866
		l8.503,8.226l27.42-28.743c3.517,2.683,8.678,2.475,11.949-0.688C100.772,41.119,100.772,35.581,97.25,32.177z"/>
	<path fill="#4D4D4D" d="M51.899,126.728l-5.063-11.812c-0.584-1.249-2.083-2.753-3.333-3.353c0,0-14.075-4.613-23.338-17.332
		c-0.807-1.112-2.432-0.377-2.875,0.924l-14.91,31.479C1.926,127.936,2.7,129,4.081,129h46.342
		C51.819,129,52.474,127.973,51.899,126.728z"/>
	<path fill="#4D4D4D" d="M94.035,15.452c-1.598-0.165-3.224-0.161-4.817,0.038c-1.456,0.179-2.513,1.49-2.328,2.941
		c0.179,1.447,1.513,2.479,2.965,2.3c1.202-0.141,2.423-0.15,3.629-0.033c4.163,0.452,7.906,2.475,10.518,5.699
		c2.603,3.234,3.784,7.292,3.318,11.413c-0.142,1.221-0.429,2.433-0.844,3.578c-0.505,1.372,0.207,2.885,1.603,3.375
		c0.9,0.326,1.871,0.137,2.564-0.419c0.378-0.301,0.665-0.688,0.849-1.169c0.557-1.532,0.924-3.13,1.122-4.761
		c0.631-5.539-0.948-10.979-4.45-15.315C104.646,18.766,99.641,16.046,94.035,15.452z M120.117,14.014
		c-6.066-7.49-14.877-12.072-24.813-12.911c-1.282-0.094-2.573-0.127-4.101-0.085c-1.466,0.028-2.636,1.245-2.593,2.701
		c0.032,1.457,1.263,2.612,2.729,2.569c1.325-0.028,2.438-0.005,3.512,0.089c8.462,0.707,15.962,4.591,21.095,10.937
		c5.133,6.349,7.326,14.443,6.176,22.777c-0.146,1.027-0.354,2.088-0.6,3.139c-0.349,1.424,0.533,2.852,1.961,3.187
		c0.835,0.203,1.664-0.009,2.297-0.5c0.438-0.358,0.777-0.858,0.919-1.447c0.302-1.226,0.527-2.46,0.706-3.658
		C128.744,31.027,126.161,21.505,120.117,14.014z"/>
	<path fill="#4D4D4D" d="M14.593,15.132l-1.476,1.471c-0.882,7.009-6.623,59.456,16.097,81.446
		c24.376,23.603,85.062,15.479,85.062,15.479c0.307-0.042,0.575-0.107,0.83-0.184l1.094-0.896
		C45.11,83.389,14.593,15.132,14.593,15.132z"/>
</g>
</svg>
