<?xml version="1.0" encoding="utf-8"?>
<!-- Generator: Adobe Illustrator 16.0.0, SVG Export Plug-In . SVG Version: 6.00 Build 0)  -->
<!DOCTYPE svg PUBLIC "-//W3C//DTD SVG 1.1//EN" "http://www.w3.org/Graphics/SVG/1.1/DTD/svg11.dtd">
<svg version="1.1" id="Layer_1" xmlns="http://www.w3.org/2000/svg" xmlns:xlink="http://www.w3.org/1999/xlink" x="0px" y="0px"
	 width="130px" height="130px" viewBox="0 0 130 130" enable-background="new 0 0 130 130" xml:space="preserve">
<rect fill="none" width="130" height="130"/>
<g>
	<path fill="#4D4D4D" d="M82.441,60.16c2.087,2.086,3.086,0.356,3.086,0.356c5.061-5.051,17.465-17.447,24.281-24.261
		c2.385-2.395,3.923-3.935,3.923-3.935s6.396,6.382,9.051,9.026c2.639,2.655,2.518-2.057,2.518-2.057l3.327-35.436
		c0,0,0.238-2.854-2.537-2.854c-3.8,0-35.535,4.459-35.535,4.459s-4.839-0.019-1.627,3.193c3.225,3.226,8.344,8.351,8.344,8.351
		s-1.385,1.388-3.533,3.522c-6.581,6.61-19.416,19.419-24.335,24.333c0,0-1.158,1.098,0.312,2.602
		C71.21,48.949,80.354,58.073,82.441,60.16z M47.019,69.803c-2.074-2.074-3.091-0.371-3.091-0.371
		c-5.058,5.069-17.469,17.465-24.276,24.285c-2.376,2.39-3.923,3.955-3.923,3.955s-6.41-6.419-9.045-9.057
		c-2.649-2.638-2.499,2.089-2.499,2.089l-3.34,35.432c0,0-0.241,2.865,2.523,2.865c3.808,0,35.552-4.486,35.552-4.486
		s4.818,0.023,1.604-3.212c-3.207-3.201-8.344-8.329-8.344-8.329s1.409-1.395,3.546-3.516c6.587-6.614,19.398-19.449,24.314-24.348
		c0,0,1.196-1.113-0.307-2.587C58.254,81.038,49.097,71.893,47.019,69.803z M60.688,44.229c-5.04-5.051-17.439-17.438-24.247-24.261
		c-2.408-2.378-3.958-3.942-3.958-3.942s6.387-6.406,9.039-9.039c2.635-2.623-2.081-2.48-2.081-2.48L4.028,1.139
		c0,0-2.871-0.221-2.871,2.506c0,3.83,4.48,35.557,4.48,35.557s-0.01,4.847,3.197,1.627c3.222-3.212,8.344-8.341,8.344-8.341
		s1.405,1.388,3.536,3.542c6.578,6.595,19.416,19.394,24.317,24.312c0,0,1.126,1.176,2.579-0.3c1.5-1.5,10.651-10.628,12.734-12.722
		C62.421,45.249,60.688,44.229,60.688,44.229z M124.698,90.822c0,0,0-4.833-3.197-1.621c-3.216,3.222-8.35,8.358-8.35,8.358
		s-1.412-1.402-3.531-3.539c-6.587-6.59-19.434-19.426-24.326-24.323c0,0-1.107-1.188-2.593,0.306
		c-1.492,1.474-10.637,10.628-12.727,12.718c-2.084,2.09-0.339,3.08-0.339,3.08c5.046,5.054,17.441,17.465,24.265,24.302
		c2.375,2.358,3.932,3.917,3.932,3.917s-6.393,6.404-9.033,9.033c-2.629,2.641,2.101,2.5,2.101,2.5l35.399,3.365
		c0,0,2.861,0.212,2.861-2.54C129.16,122.593,124.698,90.822,124.698,90.822z"/>
</g>
</svg>
