<?xml version="1.0" encoding="utf-8"?>
<!-- Generator: Adobe Illustrator 16.0.0, SVG Export Plug-In . SVG Version: 6.00 Build 0)  -->
<!DOCTYPE svg PUBLIC "-//W3C//DTD SVG 1.1//EN" "http://www.w3.org/Graphics/SVG/1.1/DTD/svg11.dtd">
<svg version="1.1" id="Layer_1" xmlns="http://www.w3.org/2000/svg" xmlns:xlink="http://www.w3.org/1999/xlink" x="0px" y="0px"
	 width="130px" height="130px" viewBox="0 0 130 130" enable-background="new 0 0 130 130" xml:space="preserve">
<rect fill="none" width="130" height="130"/>
<g>
	<path fill="#4D4D4D" d="M74.818,50.055c0.035,0.192,0.108,0.368,0.162,0.555c0.062,0.214,0.108,0.43,0.199,0.639
		c0.091,0.223,0.217,0.425,0.329,0.629c0.088,0.157,0.155,0.319,0.255,0.47c0.47,0.703,1.077,1.308,1.773,1.777
		c0.146,0.094,0.293,0.156,0.445,0.236c0.218,0.122,0.423,0.254,0.661,0.348c0.193,0.084,0.394,0.128,0.602,0.187
		c0.19,0.062,0.385,0.138,0.584,0.178c0.396,0.078,0.796,0.114,1.194,0.119l0.054,0.007l34.607,0.007h0.006
		c3.528,0,6.394-2.862,6.394-6.389c0-3.533-2.859-6.396-6.394-6.396l-19.174-0.003l30.517-30.507c2.495-2.495,2.495-6.54,0-9.04
		c-2.501-2.497-6.549-2.497-9.047,0L87.473,33.375V14.208c0-3.53-2.867-6.392-6.396-6.392c-3.531,0-6.394,2.862-6.394,6.392
		l0.009,34.595C74.692,49.223,74.736,49.644,74.818,50.055z M55.183,79.921c-0.038-0.188-0.103-0.37-0.161-0.552
		c-0.064-0.218-0.111-0.429-0.199-0.641c-0.095-0.22-0.215-0.416-0.332-0.625c-0.088-0.155-0.155-0.326-0.256-0.476
		c-0.47-0.701-1.077-1.303-1.775-1.772c-0.149-0.101-0.32-0.171-0.473-0.256c-0.208-0.117-0.405-0.24-0.625-0.335
		c-0.209-0.082-0.423-0.135-0.638-0.193c-0.188-0.053-0.366-0.129-0.555-0.164c-0.41-0.082-0.833-0.13-1.256-0.13l-34.603-0.002
		c-3.537,0-6.396,2.861-6.396,6.393s2.858,6.394,6.396,6.394l19.174,0.003L2.969,118.083c-2.498,2.498-2.498,6.543,0,9.041
		C4.219,128.372,5.855,129,7.493,129c1.635,0,3.27-0.628,4.521-1.876L42.52,96.611l0.006,19.174c0,3.531,2.859,6.393,6.396,6.393
		c3.525,0,6.394-2.861,6.394-6.393L55.31,81.177C55.31,80.757,55.262,80.332,55.183,79.921z M48.922,7.817
		c-3.528,0-6.396,2.862-6.396,6.392v19.167L12.013,2.872c-2.498-2.497-6.546-2.497-9.044,0c-2.498,2.5-2.498,6.547,0,9.04
		l30.516,30.507l-19.183,0.003c-3.528,0-6.387,2.863-6.387,6.396c0,3.527,2.858,6.389,6.396,6.389l34.611-0.007
		c0,0,0.038-0.007,0.053-0.007c0.402-0.004,0.799-0.041,1.194-0.119c0.2-0.04,0.394-0.116,0.594-0.178
		c0.199-0.059,0.398-0.103,0.596-0.187c0.234-0.094,0.446-0.226,0.657-0.348c0.152-0.081,0.303-0.142,0.443-0.236
		c0.698-0.47,1.306-1.074,1.775-1.777c0.101-0.148,0.165-0.307,0.247-0.458c0.123-0.213,0.246-0.417,0.341-0.641
		c0.088-0.206,0.129-0.418,0.19-0.625c0.059-0.188,0.132-0.374,0.17-0.568c0.079-0.407,0.127-0.817,0.127-1.23v-0.022l0.006-34.595
		C55.316,10.679,52.454,7.817,48.922,7.817z M96.52,87.567h19.171c3.528,0,6.394-2.862,6.394-6.391c0-3.534-2.865-6.399-6.394-6.399
		H81.086c-0.42,0-0.837,0.048-1.257,0.13c-0.188,0.035-0.367,0.111-0.549,0.164c-0.217,0.059-0.432,0.111-0.643,0.193
		c-0.221,0.095-0.417,0.218-0.625,0.335c-0.153,0.085-0.323,0.155-0.476,0.256c-0.696,0.467-1.304,1.068-1.773,1.772
		c-0.105,0.161-0.179,0.338-0.272,0.511c-0.106,0.197-0.227,0.382-0.312,0.59c-0.091,0.218-0.146,0.44-0.205,0.67
		c-0.054,0.173-0.121,0.34-0.156,0.522c-0.082,0.411-0.126,0.83-0.126,1.256l-0.009,34.608c0,3.531,2.862,6.393,6.394,6.393
		c3.528,0,6.396-2.861,6.396-6.393V96.611l30.514,30.513c1.25,1.248,2.885,1.876,4.521,1.876c1.638,0,3.275-0.628,4.526-1.876
		c2.495-2.498,2.495-6.543,0-9.041L96.52,87.567z"/>
</g>
</svg>
