<?xml version="1.0" encoding="utf-8"?>
<!-- Generator: Adobe Illustrator 16.0.0, SVG Export Plug-In . SVG Version: 6.00 Build 0)  -->
<!DOCTYPE svg PUBLIC "-//W3C//DTD SVG 1.1//EN" "http://www.w3.org/Graphics/SVG/1.1/DTD/svg11.dtd">
<svg version="1.1" id="Layer_1" xmlns="http://www.w3.org/2000/svg" xmlns:xlink="http://www.w3.org/1999/xlink" x="0px" y="0px"
	 width="130px" height="130px" viewBox="0 0 130 130" enable-background="new 0 0 130 130" xml:space="preserve">
<rect fill="none" width="130" height="130"/>
<g>
	<path fill="#4D4D4D" d="M52.915,74.116c-3.466,0-32.416,4.067-32.416,4.067s-4.403-0.023-1.471,2.93
		c2.948,2.912,7.61,7.593,7.61,7.593s-1.265,1.268-3.21,3.23c-6.027,6.013-17.714,17.702-22.185,22.164c0,0-1.082,1.032,0.274,2.388
		c1.367,1.332,9.702,9.673,11.589,11.577c1.91,1.893,2.826,0.324,2.826,0.324c4.602-4.621,15.922-15.898,22.145-22.135
		c2.148-2.169,3.572-3.572,3.572-3.572s5.833,5.801,8.247,8.229c2.407,2.416,2.275-1.898,2.275-1.898l3.056-32.304
		C55.228,76.71,55.438,74.116,52.915,74.116z M76.601,55.873c3.454,0,32.41-4.062,32.41-4.062s4.409,0.032,1.477-2.924
		c-2.938-2.938-7.613-7.607-7.613-7.607s1.273-1.282,3.23-3.215c6.001-6.019,17.705-17.699,22.176-22.176
		c0,0,1.079-1.011-0.282-2.385c-1.362-1.344-9.694-9.662-11.596-11.568c-1.886-1.893-2.817-0.324-2.817-0.324
		c-4.613,4.616-15.907,15.907-22.117,22.117c-2.179,2.178-3.597,3.593-3.597,3.593s-5.829-5.833-8.243-8.244
		c-2.408-2.408-2.29,1.892-2.29,1.892L74.293,53.27C74.293,53.27,74.093,55.873,76.601,55.873z M128.552,113.854
		c-4.604-4.616-15.907-15.904-22.12-22.142c-2.19-2.169-3.596-3.572-3.596-3.572s5.82-5.859,8.237-8.259
		c2.399-2.393-1.915-2.275-1.915-2.275l-32.283-3.047c0,0-2.611-0.201-2.611,2.311c0,3.46,4.059,32.403,4.059,32.403
		s0,4.416,2.938,1.48c2.947-2.942,7.613-7.604,7.613-7.604s1.272,1.261,3.218,3.206c6.007,6.031,17.702,17.709,22.18,22.183
		c0,0,1.008,1.073,2.361-0.277c1.367-1.344,9.702-9.685,11.606-11.612C130.123,114.767,128.552,113.854,128.552,113.854z
		 M49.053,19.304c-2.941,2.936-7.616,7.613-7.616,7.613s-1.267-1.273-3.227-3.233C32.224,17.689,20.52,5.991,16.04,1.531
		c0,0-1.014-1.088-2.358,0.262C12.32,3.144,3.997,11.47,2.081,13.397c-1.901,1.892-0.312,2.815-0.312,2.815
		c4.601,4.592,15.898,15.898,22.123,22.123c2.164,2.164,3.596,3.59,3.596,3.59s-5.841,5.827-8.246,8.232
		c-2.402,2.405,1.897,2.275,1.897,2.275l32.292,3.053c0,0,2.626,0.207,2.626-2.308c0-3.458-4.088-32.398-4.088-32.398
		S51.989,16.38,49.053,19.304z"/>
</g>
</svg>
