<?xml version="1.0" encoding="utf-8"?>
<!-- Generator: Adobe Illustrator 16.0.0, SVG Export Plug-In . SVG Version: 6.00 Build 0)  -->
<!DOCTYPE svg PUBLIC "-//W3C//DTD SVG 1.1//EN" "http://www.w3.org/Graphics/SVG/1.1/DTD/svg11.dtd">
<svg version="1.1" id="Layer_1" xmlns="http://www.w3.org/2000/svg" xmlns:xlink="http://www.w3.org/1999/xlink" x="0px" y="0px"
	 width="130px" height="130px" viewBox="0 0 130 130" enable-background="new 0 0 130 130" xml:space="preserve">
<rect fill="none" width="130" height="130"/>
<g>
	<path fill="#4D4D4D" d="M46.86,72l-30.1,30.1l-0.006-17.361c0-4.348-3.528-7.875-7.88-7.875c-4.345,0-7.879,3.527-7.879,7.875
		l0.012,36.377c0,0.516,0.053,1.035,0.153,1.543c0.047,0.232,0.141,0.453,0.2,0.68c0.076,0.266,0.135,0.529,0.246,0.789
		c0.118,0.27,0.265,0.514,0.406,0.77c0.105,0.197,0.194,0.4,0.312,0.582c0.582,0.867,1.329,1.611,2.188,2.188
		c0.183,0.123,0.394,0.211,0.582,0.318c0.259,0.141,0.5,0.293,0.776,0.41c0.259,0.1,0.523,0.162,0.788,0.242
		c0.223,0.064,0.446,0.152,0.676,0.203c0.512,0.096,1.035,0.152,1.547,0.152L45.261,129c4.346,0,7.873-3.527,7.873-7.879
		c0-4.348-3.521-7.873-7.873-7.873l-17.369-0.006l30.105-30.105c3.075-3.074,3.075-8.055,0-11.137
		C54.922,68.926,49.936,68.926,46.86,72z M8.875,53.133c4.346,0,7.88-3.528,7.88-7.876V27.903l30.094,30.091
		c1.54,1.538,3.558,2.308,5.574,2.308s4.027-0.77,5.568-2.308c3.075-3.078,3.075-8.062,0-11.138L27.897,16.771h17.352
		c4.357,0,7.879-3.53,7.879-7.878c0-4.353-3.521-7.877-7.879-7.877L8.882,1.017c-0.512,0-1.029,0.056-1.547,0.154
		C7.105,1.223,6.882,1.307,6.659,1.375C6.395,1.452,6.13,1.515,5.871,1.621C5.595,1.733,5.354,1.884,5.095,2.025
		c-0.188,0.109-0.399,0.194-0.582,0.32C3.654,2.923,2.907,3.665,2.325,4.53C2.208,4.714,2.119,4.918,2.014,5.115
		C1.872,5.37,1.726,5.614,1.607,5.884c-0.111,0.258-0.17,0.523-0.246,0.788c-0.06,0.227-0.153,0.447-0.2,0.679
		C1.061,7.861,1.008,8.38,1.008,8.895L0.996,45.256C0.996,49.605,4.524,53.133,8.875,53.133z M77.577,60.293
		c2.011,0,4.028-0.767,5.562-2.305l30.111-30.098v17.357c0,4.35,3.528,7.876,7.873,7.876c4.357,0,7.88-3.527,7.88-7.876
		l-0.012-36.365c0-0.515-0.047-1.033-0.147-1.541c-0.047-0.235-0.135-0.454-0.206-0.681c-0.076-0.268-0.135-0.532-0.246-0.788
		c-0.112-0.271-0.253-0.516-0.406-0.77c-0.105-0.195-0.188-0.398-0.312-0.586c-0.582-0.864-1.323-1.607-2.188-2.182
		c-0.183-0.129-0.394-0.213-0.582-0.319c-0.253-0.141-0.5-0.295-0.771-0.41c-0.265-0.103-0.523-0.165-0.788-0.243
		c-0.229-0.064-0.452-0.153-0.682-0.201c-0.512-0.103-1.023-0.156-1.547-0.156L84.745,1c-4.346,0-7.879,3.528-7.879,7.877
		c0,4.347,3.521,7.875,7.879,7.875l17.363,0.004L72.003,46.85c-3.075,3.075-3.075,8.062,0,11.138
		C73.544,59.526,75.561,60.293,77.577,60.293z M121.219,77.492c-4.293,0-7.779,3.484-7.779,7.781v17.146L83.692,72.688
		c-1.517-1.516-3.505-2.281-5.498-2.281s-3.986,0.766-5.503,2.281c-3.04,3.041-3.04,7.965,0,11.008l29.729,29.723l-17.146,0.004
		c-4.299,0-7.779,3.484-7.779,7.781c0,4.299,3.48,7.785,7.779,7.785l35.938-0.006c0.512,0,1.017-0.053,1.528-0.152
		c0.229-0.047,0.447-0.129,0.665-0.199c0.271-0.076,0.529-0.137,0.787-0.244c0.265-0.109,0.506-0.256,0.759-0.396
		c0.188-0.107,0.395-0.191,0.576-0.318c0.853-0.57,1.594-1.299,2.158-2.158c0.123-0.182,0.206-0.383,0.312-0.576
		c0.142-0.252,0.294-0.494,0.4-0.758c0.111-0.256,0.17-0.518,0.246-0.783c0.065-0.223,0.153-0.438,0.2-0.67
		c0.101-0.502,0.147-1.014,0.147-1.525l0.012-35.928C129.004,80.977,125.522,77.492,121.219,77.492z"/>
</g>
</svg>
