<?xml version="1.0" encoding="utf-8"?>
<!-- Generator: Adobe Illustrator 16.0.0, SVG Export Plug-In . SVG Version: 6.00 Build 0)  -->
<!DOCTYPE svg PUBLIC "-//W3C//DTD SVG 1.1//EN" "http://www.w3.org/Graphics/SVG/1.1/DTD/svg11.dtd">
<svg version="1.1" id="Layer_1" xmlns="http://www.w3.org/2000/svg" xmlns:xlink="http://www.w3.org/1999/xlink" x="0px" y="0px"
	 width="130px" height="130px" viewBox="0 0 130 130" enable-background="new 0 0 130 130" xml:space="preserve">
<rect fill="none" width="130" height="130"/>
<path fill="#4D4D4D" d="M104.982,73.65c-6.703,0-12.773,2.77-17.129,7.203l-10.35-14.61l-0.002,0.003l-0.512-0.721l27.246-39.086
	c3.774-5.42,3.196-12.405-1.273-15.515c-4.474-3.128-11.226-1.246-15,4.192L64.905,48.188L41.869,15.117
	c-3.788-5.438-10.544-8.735-15.014-5.606c-4.479,3.11-5.039,11.509-1.256,16.929l27.215,39.086l-0.455,0.652v-0.002L42.146,80.854
	C37.791,76.42,31.72,73.65,25.018,73.65C11.786,73.65,1,84.432,1,97.678c0,13.245,10.786,24.018,24.018,24.018
	c0,0,12.469,0.459,16.852-5.762l15.913-22.846l2.539-3.646l-0.022,0.027l4.606-6.61h0.19l5.475,7.861v-0.002l3.464,4.977
	l0.042-0.043l14.055,20.281c4.379,6.221,16.852,5.762,16.852,5.762c13.231,0,24.018-10.772,24.018-24.018
	C129,84.432,118.214,73.65,104.982,73.65z M25.018,107.566c-5.456,0-9.89-4.433-9.89-9.889c0-5.462,4.434-9.903,9.89-9.903
	c5.453,0,9.904,4.441,9.904,9.903C34.922,103.134,30.47,107.566,25.018,107.566z M64.646,70.859c-3.111,0-5.629-2.516-5.629-5.625
	c0-3.102,2.519-5.629,5.629-5.629c3.101,0,5.629,2.528,5.629,5.629C70.274,68.344,67.746,70.859,64.646,70.859z M105.546,107.566
	c-5.456,0-9.894-4.433-9.894-9.889c0-5.462,4.438-9.903,9.894-9.903c5.447,0,9.904,4.441,9.904,9.903
	C115.45,103.134,110.993,107.566,105.546,107.566z"/>
</svg>
