<?xml version="1.0" encoding="utf-8"?>
<!-- Generator: Adobe Illustrator 16.0.0, SVG Export Plug-In . SVG Version: 6.00 Build 0)  -->
<!DOCTYPE svg PUBLIC "-//W3C//DTD SVG 1.1//EN" "http://www.w3.org/Graphics/SVG/1.1/DTD/svg11.dtd">
<svg version="1.1" id="Layer_1" xmlns="http://www.w3.org/2000/svg" xmlns:xlink="http://www.w3.org/1999/xlink" x="0px" y="0px"
	 width="130px" height="130px" viewBox="0 0 130 130" enable-background="new 0 0 130 130" xml:space="preserve">
<rect fill="none" width="130" height="130"/>
<g>
	<g>
		<path fill="#4D4D4D" d="M109.303,70.534c-9.418,0-17.051,7.635-17.051,17.053c0,9.414,7.633,17.049,17.051,17.049
			c9.417,0,17.051-7.635,17.051-17.049C126.354,78.169,118.72,70.534,109.303,70.534z M109.132,94.575
			c-3.767,0-6.821-3.053-6.821-6.817c0-3.769,3.055-6.821,6.821-6.821s6.821,3.053,6.821,6.821
			C115.953,91.522,112.898,94.575,109.132,94.575z"/>
		<path fill="#4D4D4D" d="M109.952,89.058l18.664-2.971c1.991-5.184-3.715-21.212-18.705-18.29
			C92.156,71.26,89.61,92.619,89.61,92.619L109.952,89.058z"/>
		<path fill="#4D4D4D" d="M84.477,29.273l-2.559-0.135c-0.285-0.174-0.617-0.278-0.977-0.278c-1.032,0-1.869,0.837-1.869,1.87
			c0,1.031,0.837,1.868,1.869,1.868c0.354,0,0.678-0.102,0.962-0.272l2.573-0.141C86.555,30.869,84.477,29.273,84.477,29.273z"/>
		<path fill="#4D4D4D" d="M63.99,56.564c0,0.567-0.443,1.027-0.989,1.027H30.057c-0.547,0-0.991-0.46-0.991-1.027V51
			c0-0.57,0.444-1.03,0.991-1.03H63c0.546,0,0.989,0.46,0.989,1.03V56.564z"/>
		<path fill="#4D4D4D" d="M111.802,59.883c-0.365-0.2-11.225,0-11.225,0C98.915,48.24,86.67,34.2,86.67,34.2l-1.663-0.83
			c14.967,41.162,0.88,50.347-14.087,52.011c-14.967,1.664-25.222-2.494-22.312-12.887c2.91-10.396,13.719-14.968,13.719-14.968
			l-21.978-0.417L27.812,64.6C15.604,64.839,1,74.201,1,87.459h3.295c0.371,9.773,8.392,17.594,18.261,17.594
			c9.866,0,17.887-7.82,18.258-17.594h3.377c5.673,0.408,14.508,0.972,20.076,0.972c6.773,0,19.042-0.499,24.663-0.983
			c1.893-6.767,7.068-18.802,20.289-21.381c3.478-0.678,6.479-0.379,9.021,0.55C116.725,63.923,114.646,61.434,111.802,59.883z
			 M11.913,79.4h13.074c0.397,0,0.718,0.321,0.718,0.716c0,0.396-0.32,0.719-0.718,0.719H11.913c-0.396,0-0.717-0.322-0.717-0.719
			C11.196,79.722,11.516,79.4,11.913,79.4z M9.759,81.551h13.074c0.397,0,0.718,0.321,0.718,0.719c0,0.396-0.32,0.719-0.718,0.719
			H9.759c-0.396,0-0.717-0.322-0.717-0.719C9.042,81.872,9.363,81.551,9.759,81.551z M7.608,85.138
			c-0.396,0-0.718-0.318-0.718-0.715c0-0.397,0.322-0.719,0.718-0.719h13.074c0.397,0,0.717,0.321,0.717,0.719
			c0,0.396-0.319,0.715-0.717,0.715H7.608z M22.373,94.26c-3.863,0-6.995-3.003-7.266-6.801h14.529
			C29.366,91.257,26.236,94.26,22.373,94.26z"/>
	</g>
	<path fill="#4D4D4D" d="M95.638,26.66c-0.595-1.086-1.422-1.696-2.362-1.713c-0.135,0-0.263,0.039-0.392,0.063V25.01
		c-0.004,0.001-0.007,0.003-0.012,0.003c-0.195,0.041-0.383,0.106-0.564,0.2c-3.889,1.351-7.621,2.028-7.621,2.028
		s-0.929,1.116-0.929,3.158c0,2.045,1.116,3.345,1.116,3.345l7.639,2.045v-0.021c0.2,0.064,0.403,0.107,0.612,0.11h0.034
		c1.806,0,3.258-2.377,3.311-5.409C96.492,29.04,96.197,27.691,95.638,26.66z M93.159,35.528v0.005V35.528
		c-0.01,0-0.019,0.005-0.028,0.005c-1.606-0.029-2.868-2.341-2.819-5.167c0.048-2.829,1.387-5.101,2.992-5.074
		c1.605,0.029,2.867,2.344,2.818,5.17C96.075,33.274,94.749,35.528,93.159,35.528z"/>
</g>
</svg>
