<?xml version="1.0" encoding="utf-8"?>
<!-- Generator: Adobe Illustrator 16.0.0, SVG Export Plug-In . SVG Version: 6.00 Build 0)  -->
<!DOCTYPE svg PUBLIC "-//W3C//DTD SVG 1.1//EN" "http://www.w3.org/Graphics/SVG/1.1/DTD/svg11.dtd">
<svg version="1.1" id="Layer_1" xmlns="http://www.w3.org/2000/svg" xmlns:xlink="http://www.w3.org/1999/xlink" x="0px" y="0px"
	 width="130px" height="130px" viewBox="0 0 130 130" enable-background="new 0 0 130 130" xml:space="preserve">
<rect fill="none" width="130" height="130"/>
<path fill="#4D4D4D" d="M125.205,12.099H4.795C2.701,12.099,1,13.802,1,15.891v73.953v0.375v6.333c0,2.095,1.701,3.793,3.795,3.793
	h46.716c-0.18,3.574-0.632,10.173-1.591,11.223c-1.83,2.007-4.55,4.123-5.071,4.542c-0.121,0.097-0.154,0.201-0.151,0.304h-0.017
	c0,0-0.218,1.466,0.573,1.488h40.218c0.65,0,0.628-0.733,0.611-1.196c-0.002-0.061-0.005-0.083-0.008-0.097
	c0.038-0.168,0-0.345-0.19-0.499c-0.523-0.419-3.241-2.535-5.071-4.542c-0.962-1.05-1.416-7.648-1.596-11.223h45.986
	c2.097,0,3.795-1.698,3.795-3.793v-6.333v-0.375V15.891C129,13.802,127.302,12.099,125.205,12.099z M124.623,85.93H5.553V16.591
	h119.07V85.93z"/>
</svg>
