<?xml version="1.0" encoding="utf-8"?>
<!-- Generator: Adobe Illustrator 16.0.0, SVG Export Plug-In . SVG Version: 6.00 Build 0)  -->
<!DOCTYPE svg PUBLIC "-//W3C//DTD SVG 1.1//EN" "http://www.w3.org/Graphics/SVG/1.1/DTD/svg11.dtd">
<svg version="1.1" id="Layer_1" xmlns="http://www.w3.org/2000/svg" xmlns:xlink="http://www.w3.org/1999/xlink" x="0px" y="0px"
	 width="130px" height="130px" viewBox="0 0 130 130" enable-background="new 0 0 130 130" xml:space="preserve">
<rect fill="none" width="130" height="130"/>
<path fill="#4D4D4D" d="M127.27,11.956H2.731C1.777,11.956,1,12.738,1,13.687v84.53c0,0.954,0.777,1.736,1.731,1.736h47.951
	c-0.185,3.693-0.653,10.477-1.64,11.56c-1.888,2.066-4.69,4.25-5.231,4.686c-0.124,0.099-0.157,0.203-0.154,0.309H43.64
	c0,0-0.226,1.51,0.588,1.537h41.487c0.667,0,0.646-0.766,0.629-1.24c-0.003-0.061-0.006-0.077-0.006-0.094
	c0.036-0.171-0.003-0.355-0.198-0.512c-0.54-0.436-3.344-2.619-5.231-4.686c-0.989-1.083-1.458-7.866-1.64-11.56h48.001
	c0.953,0,1.73-0.782,1.73-1.736v-84.53C129,12.738,128.223,11.956,127.27,11.956z M125.216,95.726H4.784V16.459h120.432V95.726z"/>
</svg>
