<?xml version="1.0" encoding="utf-8"?>
<!-- Generator: Adobe Illustrator 16.0.0, SVG Export Plug-In . SVG Version: 6.00 Build 0)  -->
<!DOCTYPE svg PUBLIC "-//W3C//DTD SVG 1.1//EN" "http://www.w3.org/Graphics/SVG/1.1/DTD/svg11.dtd">
<svg version="1.1" id="Layer_1" xmlns="http://www.w3.org/2000/svg" xmlns:xlink="http://www.w3.org/1999/xlink" x="0px" y="0px"
	 width="130px" height="130px" viewBox="0 0 130 130" enable-background="new 0 0 130 130" xml:space="preserve">
<rect fill="none" width="130" height="130"/>
<path fill="#4D4D4D" d="M125.208,13.753H4.792C2.698,13.753,1,15.45,1,17.545v80.661c0,2.095,1.698,3.792,3.792,3.792h53.221
	c-0.003,2.613-0.042,5.562-0.171,5.948c-0.16,0.449-0.519,0.989-1.064,1.526c-9.724,0.151-26.558,0.653-31.166,2.276l-0.711,0.783
	c0,0,16.333,3.715,40.184,3.715c0,0,29.684-0.021,40.19-3.644l-0.634-0.997c0,0-15.658-1.48-31.128-2.013
	c-0.626-0.57-1.001-1.151-1.174-1.631c-0.133-0.381-0.171-3.344-0.177-5.965h53.045c2.094,0,3.792-1.697,3.792-3.792V17.545
	C129,15.45,127.302,13.753,125.208,13.753z M124.447,96.612H5.382V19.441h119.065V96.612z"/>
</svg>
