<?xml version="1.0" encoding="utf-8"?>
<!-- Generator: Adobe Illustrator 16.0.0, SVG Export Plug-In . SVG Version: 6.00 Build 0)  -->
<!DOCTYPE svg PUBLIC "-//W3C//DTD SVG 1.1//EN" "http://www.w3.org/Graphics/SVG/1.1/DTD/svg11.dtd">
<svg version="1.1" id="Layer_1" xmlns="http://www.w3.org/2000/svg" xmlns:xlink="http://www.w3.org/1999/xlink" x="0px" y="0px"
	 width="130px" height="130px" viewBox="0 0 130 130" enable-background="new 0 0 130 130" xml:space="preserve">
<rect fill="none" width="130" height="130"/>
<path fill="#4D4D4D" d="M128.245,96.756l-6.921-72.254c-0.193-1.819-1.163-2.811-3.018-3.269L6.443,4.217
	C4.63,3.892,3.384,4.074,2.596,4.826C2.59,4.818,2.59,4.804,2.587,4.796C1.119,5.617,1,8.362,1,8.39
	c0.044,6.389,1.819,93.608,1.987,96.039c0.209,3.038,3.213,3.418,4.939,3.385c0.011,0,0.017,0.006,0.027,0.006l35.708,0.113
	c-0.135,0.59-1.072,4.685-1.609,7.328c-0.03,0.154-1.219,6.345,1.26,7.039c2.478,0.7,7.717,2.635,8.682,2.883
	c0.965,0.254,2.13,0.755,4.908,0.755c1.698,0,24.482-1.03,27.512-1.124c2.896-0.088,3.401-0.375,3.401-0.375v-0.628
	c0,0-0.036,0-0.044,0c-0.053-0.089-0.169-0.201-0.463-0.248c-4.171-0.717-14.445-3.253-15.81-3.522
	c-3.211-0.634-3.037-4.388-3.021-5.407c0.011-0.847,0.132-2.944,0.236-4.598c0.056-0.909,0.105-1.684,0.127-2.023l57.893,0.183
	c1.733-0.166,2.266-1.009,2.266-2.261L128.245,96.756z M10.261,99.688L8.224,17.535l-0.154-6.907l108.17,15.087l7.063,75.55
	L10.261,99.688z"/>
</svg>
