<?xml version="1.0" encoding="utf-8"?>
<!-- Generator: Adobe Illustrator 16.0.0, SVG Export Plug-In . SVG Version: 6.00 Build 0)  -->
<!DOCTYPE svg PUBLIC "-//W3C//DTD SVG 1.1//EN" "http://www.w3.org/Graphics/SVG/1.1/DTD/svg11.dtd">
<svg version="1.1" id="Layer_1" xmlns="http://www.w3.org/2000/svg" xmlns:xlink="http://www.w3.org/1999/xlink" x="0px" y="0px"
	 width="130px" height="130px" viewBox="0 0 130 130" enable-background="new 0 0 130 130" xml:space="preserve">
<rect fill="none" width="130" height="130"/>
<g>
	<path fill="#4D4D4D" d="M122.27,63.685c-3.719,0-6.74,2.98-6.74,6.655v5.502H14.246v-5.463c0-3.698-2.792-6.694-6.516-6.694
		c-3.719,0-6.73,2.98-6.73,6.655v47.421c0,3.677,3.012,6.662,6.73,6.662H122.27c3.719,0,6.73-2.985,6.73-6.662V70.34
		C129,66.665,125.988,63.685,122.27,63.685z"/>
	<path fill="#4D4D4D" d="M43.038,32.719c2.116,2.12,5.578,2.144,7.73,0.033l9.711-7.962v34.683c0,2.946,1.524,5.34,4.541,5.34
		c3.021,0,6.201-2.394,6.201-5.348V24.772l8.014,7.979c2.146,2.108,5.604,2.091,7.73-0.033c2.127-2.125,2.111-5.556-0.037-7.66
		L69.613,8.066c-0.98-1.494-2.666-2.489-4.593-2.489c-1.896,0-3.567,0.962-4.547,2.415L43.069,25.06
		C40.922,27.164,40.912,30.594,43.038,32.719z"/>
</g>
</svg>
