<?xml version="1.0" encoding="utf-8"?>
<!-- Generator: Adobe Illustrator 16.0.0, SVG Export Plug-In . SVG Version: 6.00 Build 0)  -->
<!DOCTYPE svg PUBLIC "-//W3C//DTD SVG 1.1//EN" "http://www.w3.org/Graphics/SVG/1.1/DTD/svg11.dtd">
<svg version="1.1" id="Layer_1" xmlns="http://www.w3.org/2000/svg" xmlns:xlink="http://www.w3.org/1999/xlink" x="0px" y="0px"
	 width="130px" height="130px" viewBox="0 0 130 130" enable-background="new 0 0 130 130" xml:space="preserve">
<rect fill="none" width="130" height="130"/>
<g>
	<path fill="#4D4D4D" d="M111.984,111.459v10.207H8.341V18.008h10.204v-7.341H4.669C2.644,10.667,1,12.31,1,14.336v110.996
		c0,2.031,1.644,3.676,3.669,3.676h110.984c2.025,0,3.672-1.645,3.672-3.676v-13.873H111.984z"/>
	<path fill="#4D4D4D" d="M17.887,0.993v111.13H129V0.993H17.887z M97.641,64.702c0,2.687-2.172,4.863-4.856,4.863
		c-2.689,0-4.859-2.176-4.859-4.863V48.963l-30.16,30.167c-1.898,1.896-4.968,1.896-6.867,0c-1.893-1.891-1.893-4.972,0-6.868
		l30.21-30.209L65.276,42.02c-2.672,0-4.836-2.174-4.836-4.854v-0.016c0-2.678,2.179-4.842,4.854-4.842l27.496,0.041
		c2.679,0.01,4.851,2.186,4.851,4.864V64.702z"/>
</g>
</svg>
