<?xml version="1.0" encoding="utf-8"?>
<!-- Generator: Adobe Illustrator 16.0.0, SVG Export Plug-In . SVG Version: 6.00 Build 0)  -->
<!DOCTYPE svg PUBLIC "-//W3C//DTD SVG 1.1//EN" "http://www.w3.org/Graphics/SVG/1.1/DTD/svg11.dtd">
<svg version="1.1" id="Layer_1" xmlns="http://www.w3.org/2000/svg" xmlns:xlink="http://www.w3.org/1999/xlink" x="0px" y="0px"
	 width="130px" height="130px" viewBox="0 0 130 130" enable-background="new 0 0 130 130" xml:space="preserve">
<rect fill="none" width="130" height="130"/>
<g>
	<path fill="#4D4D4D" d="M107.742,58.118c-3.651,0-6.62,2.964-6.62,6.624v45.547H14.253V22.873h72.976
		c3.663,0,6.633-2.969,6.633-6.626c0-3.653-2.97-6.617-6.633-6.617H7.62C3.969,9.629,1,12.594,1,16.247V116.91
		c0,3.656,2.969,6.622,6.62,6.622h100.122c3.663,0,6.626-2.966,6.626-6.622V64.742C114.368,61.083,111.405,58.118,107.742,58.118z"
		/>
	<path fill="#4D4D4D" d="M127.703,26.262L109.2,7.759c-1.723-1.722-4.516-1.722-6.243,0c-1.724,1.727-1.724,4.522,0,6.24
		l10.959,10.956c-33.091,0.099-55.238,8.634-70.277,51.35c-0.812,2.299,0.394,4.816,2.692,5.626
		c0.488,0.171,0.988,0.251,1.476,0.251c1.817,0,3.528-1.129,4.163-2.944c13.446-38.208,31.461-45.372,61.97-45.453l-10.982,10.976
		c-1.724,1.727-1.724,4.523,0,6.243c0.864,0.864,1.998,1.294,3.121,1.294c1.135,0,2.252-0.431,3.122-1.294l18.503-18.498
		C129.432,30.776,129.432,27.987,127.703,26.262z"/>
</g>
</svg>
