<?xml version="1.0" encoding="utf-8"?>
<!-- Generator: Adobe Illustrator 16.0.0, SVG Export Plug-In . SVG Version: 6.00 Build 0)  -->
<!DOCTYPE svg PUBLIC "-//W3C//DTD SVG 1.1//EN" "http://www.w3.org/Graphics/SVG/1.1/DTD/svg11.dtd">
<svg version="1.1" id="Layer_1" xmlns="http://www.w3.org/2000/svg" xmlns:xlink="http://www.w3.org/1999/xlink" x="0px" y="0px"
	 width="130px" height="130px" viewBox="0 0 130 130" enable-background="new 0 0 130 130" xml:space="preserve">
<rect fill="none" width="130" height="130"/>
<g>
	<path fill="#4D4D4D" d="M104.447,39.566h-24.57c-2.949,0-5.338,2.386-5.338,5.335c0,2.949,2.389,5.339,5.338,5.339h19.229v68.09
		H29.09V50.24h19.139c2.948,0,5.333-2.39,5.333-5.339c0-2.949-2.385-5.335-5.333-5.335H23.753c-2.948,0-5.338,2.386-5.338,5.335
		v78.764c0,2.948,2.39,5.335,5.338,5.335h80.694c2.945,0,5.338-2.387,5.338-5.335V44.901
		C109.785,41.952,107.393,39.566,104.447,39.566z"/>
	<path fill="#4D4D4D" d="M110.57,16.206L96.506,2.031c-1.352-1.365-3.57-1.376-4.955-0.024c-1.371,1.361-1.385,3.575-0.02,4.946
		l8.047,8.111H71.09c-6.757,0-12.26,5.531-12.26,12.333v40.399c0,1.934,1.568,3.498,3.508,3.498c1.936,0,3.499-1.564,3.499-3.498
		V27.398c0-2.947,2.357-5.339,5.253-5.339h28.695l-8.254,8.325c-1.365,1.375-1.352,3.59,0.023,4.949
		c0.684,0.669,1.578,1.009,2.471,1.009c0.895,0,1.799-0.343,2.48-1.038l14.064-14.181C111.922,19.761,111.922,17.567,110.57,16.206z
		"/>
</g>
</svg>
