<?xml version="1.0" encoding="utf-8"?>
<!-- Generator: Adobe Illustrator 16.0.0, SVG Export Plug-In . SVG Version: 6.00 Build 0)  -->
<!DOCTYPE svg PUBLIC "-//W3C//DTD SVG 1.1//EN" "http://www.w3.org/Graphics/SVG/1.1/DTD/svg11.dtd">
<svg version="1.1" id="Layer_1" xmlns="http://www.w3.org/2000/svg" xmlns:xlink="http://www.w3.org/1999/xlink" x="0px" y="0px"
	 width="130px" height="130px" viewBox="0 0 130 130" enable-background="new 0 0 130 130" xml:space="preserve">
<rect fill="none" width="130" height="130"/>
<g>
	<path fill="#4D4D4D" d="M119.429,72.498l0.176-0.002c0-0.721-0.186-1.427-0.552-2.041l-17.404-29.854
		c-0.688-1.171-1.906-1.888-3.227-1.888H75.215v7.862h21.084l15.115,25.923H85.721c-1.982,0-3.332,2.075-3.834,4.1l-1.786,7.236
		c-0.502,2.02-2.535,3.672-4.517,3.672H54.406c-1.982,0-4.015-1.652-4.507-3.672l-1.786-7.236c-0.497-2.024-1.852-4.1-3.834-4.1
		H18.601l15.251-25.923h6.544h10.594h3.796v-7.862h-3.796H40.396h-8.662c-1.31,0-2.529,0.71-3.217,1.879L10.952,70.439
		c-0.361,0.619-0.552,1.331-0.552,2.057l0.176,0.002h-0.201l0.025,52.523c0,2.203,1.687,3.979,3.769,3.979h101.662
		c2.082,0,3.773-1.775,3.773-3.979l0.021-52.523H119.429z"/>
	<path fill="#4D4D4D" d="M38.744,31.889c2.398,2.411,8.461,1.931,10.895-0.471l10.138-10.141v43.881
		c0,3.353,1.655,5.072,5.073,5.072c3.412,0,5.068-1.713,5.068-5.072V21.277l9.756,10.651c2.429,2.396,6.338,2.377,8.741-0.04
		c2.399-2.421,2.39-6.318-0.034-8.714L68.794,3.833C67.695,2.134,65.783,1,63.604,1c-2.143,0-4.034,1.09-5.144,2.749L38.784,23.174
		C36.355,25.564,36.34,29.467,38.744,31.889z"/>
</g>
</svg>
