<?xml version="1.0" encoding="utf-8"?>
<!-- Generator: Adobe Illustrator 16.0.0, SVG Export Plug-In . SVG Version: 6.00 Build 0)  -->
<!DOCTYPE svg PUBLIC "-//W3C//DTD SVG 1.1//EN" "http://www.w3.org/Graphics/SVG/1.1/DTD/svg11.dtd">
<svg version="1.1" id="Layer_1" xmlns="http://www.w3.org/2000/svg" xmlns:xlink="http://www.w3.org/1999/xlink" x="0px" y="0px"
	 width="130px" height="130px" viewBox="0 0 130 130" enable-background="new 0 0 130 130" xml:space="preserve">
<rect fill="none" width="130" height="130"/>
<path fill="#4D4D4D" d="M125.306,56.307h-8.741c-2.039,0-4.166-1.589-4.742-3.533l-5.032-12.232
	c-0.976-1.762-0.607-4.387,0.83-5.813l6.174-6.176c1.432-1.432,1.432-3.764,0-5.199l-7.103-7.118c-1.432-1.41-3.767-1.41-5.193,0
	l-6.194,6.2c-1.432,1.423-4.052,1.805-5.837,0.824l-12.249-5.037c-1.925-0.569-3.512-2.704-3.512-4.726V4.754
	c0-2.028-1.666-3.682-3.689-3.682h-10.06c-2.018,0-3.662,1.654-3.662,3.682v8.742c0,2.022-1.608,4.157-3.539,4.726l-12.243,5.037
	c-1.77,0.981-4.395,0.599-5.826-0.824l-6.185-6.187c-1.432-1.423-3.777-1.423-5.204,0l-7.117,7.105
	c-1.442,1.435-1.442,3.767,0,5.199l6.179,6.176c1.442,1.427,1.815,4.052,0.835,5.813l-5.021,12.232
	c-0.587,1.944-2.724,3.533-4.737,3.533H4.668C2.66,56.307,1,57.968,1,59.989v10.039c0,2.016,1.66,3.674,3.668,3.674h8.768
	c2.014,0,4.15,1.582,4.737,3.527l5.021,12.229c0.98,1.77,0.607,4.385-0.824,5.816l-6.189,6.178c-1.442,1.428-1.442,3.771,0,5.199
	l7.112,7.115c1.432,1.408,3.777,1.408,5.209-0.016l6.185-6.184c1.432-1.424,4.057-1.793,5.826-0.818l12.243,5.027
	c1.931,0.566,3.539,2.703,3.539,4.73v8.74c0,2.021,1.645,3.682,3.662,3.682h10.06c2.023,0,3.689-1.66,3.689-3.682v-8.74
	c0-2.027,1.587-4.164,3.512-4.73l12.249-5.027c1.785-0.975,4.405-0.605,5.837,0.818l6.194,6.199c1.427,1.424,3.762,1.424,5.193,0
	l7.103-7.115c1.432-1.428,1.432-3.771,0-5.199l-6.2-6.178c-1.411-1.432-1.779-4.053-0.804-5.816l5.032-12.229
	c0.576-1.945,2.703-3.527,4.742-3.527h8.741c2.034,0,3.694-1.658,3.694-3.674V59.989C129,57.968,127.34,56.307,125.306,56.307z
	 M64.995,80.984c-8.836,0-15.99-7.156-15.99-15.984s7.154-15.982,15.99-15.982C73.83,49.019,81,56.173,81,65
	S73.83,80.984,64.995,80.984z"/>
</svg>
