<?xml version="1.0" encoding="utf-8"?>
<!-- Generator: Adobe Illustrator 16.0.0, SVG Export Plug-In . SVG Version: 6.00 Build 0)  -->
<!DOCTYPE svg PUBLIC "-//W3C//DTD SVG 1.1//EN" "http://www.w3.org/Graphics/SVG/1.1/DTD/svg11.dtd">
<svg version="1.1" id="Layer_1" xmlns="http://www.w3.org/2000/svg" xmlns:xlink="http://www.w3.org/1999/xlink" x="0px" y="0px"
	 width="130px" height="130px" viewBox="0 0 130 130" enable-background="new 0 0 130 130" xml:space="preserve">
<rect fill="none" width="130" height="130"/>
<g>
	<path fill="#4D4D4D" d="M18.137,7.09c-1.827,0-3.305,1.545-3.305,3.447v28.565c1.095-0.253,2.226-0.408,3.388-0.408
		c1.099,0,2.179,0.126,3.222,0.354V10.537C21.441,8.635,19.958,7.09,18.137,7.09z M111.863,7.09c-1.831,0-3.31,1.55-3.31,3.459
		v43.965c1.095-0.265,2.22-0.438,3.388-0.438c1.11,0,2.179,0.145,3.222,0.384v-43.91C115.163,8.64,113.68,7.09,111.863,7.09z
		 M64.445,7.09c-1.832,0-3.311,1.546-3.311,3.45v18.607c1.09-0.26,2.221-0.435,3.394-0.435c1.115,0,2.194,0.146,3.242,0.386V10.54
		C67.771,8.636,66.281,7.09,64.445,7.09z"/>
	<path fill="#4D4D4D" d="M14.832,82.096v37.422c0,1.872,1.479,3.393,3.305,3.393c1.821,0,3.305-1.521,3.305-3.393V82.148
		c-1.042,0.223-2.123,0.35-3.222,0.35C17.058,82.498,15.927,82.345,14.832,82.096z M61.135,72.166v47.294
		c0,1.907,1.479,3.45,3.311,3.45c1.836,0,3.325-1.543,3.325-3.45V72.215c-1.048,0.238-2.127,0.387-3.242,0.387
		C63.355,72.602,62.225,72.426,61.135,72.166z M111.941,97.956c-1.168,0-2.293-0.172-3.388-0.434v21.953
		c0,1.898,1.479,3.435,3.31,3.435c1.816,0,3.3-1.536,3.3-3.435V97.579C114.12,97.816,113.052,97.956,111.941,97.956z"/>
	<path fill="#4D4D4D" d="M112.087,58.949c-9.334,0-16.903,7.551-16.903,16.864c0,9.312,7.569,16.863,16.903,16.863
		c9.344,0,16.913-7.551,16.913-16.863C129,66.5,121.431,58.949,112.087,58.949z"/>
	<path fill="#4D4D4D" d="M65.005,33.864c-9.338,0-16.913,7.548-16.913,16.866c0,9.313,7.575,16.865,16.913,16.865
		c9.333,0,16.903-7.552,16.903-16.865C81.908,41.412,74.339,33.864,65.005,33.864z"/>
	<path fill="#4D4D4D" d="M17.909,43.384C8.57,43.384,1,50.937,1,60.249C1,69.566,8.57,77.12,17.909,77.12
		c9.333,0,16.902-7.554,16.902-16.871C34.811,50.937,27.242,43.384,17.909,43.384z"/>
</g>
</svg>
