<?xml version="1.0" encoding="utf-8"?>
<!-- Generator: Adobe Illustrator 16.0.0, SVG Export Plug-In . SVG Version: 6.00 Build 0)  -->
<!DOCTYPE svg PUBLIC "-//W3C//DTD SVG 1.1//EN" "http://www.w3.org/Graphics/SVG/1.1/DTD/svg11.dtd">
<svg version="1.1" id="Layer_1" xmlns="http://www.w3.org/2000/svg" xmlns:xlink="http://www.w3.org/1999/xlink" x="0px" y="0px"
	 width="130px" height="130px" viewBox="0 0 130 130" enable-background="new 0 0 130 130" xml:space="preserve">
<rect fill="none" width="130" height="130"/>
<g>
	<path fill="#4D4D4D" d="M66.69,2.692c0,0.936-0.762,1.692-1.692,1.692c-0.936,0-1.692-0.756-1.692-1.692
		C63.306,1.756,64.062,1,64.998,1C65.929,1,66.69,1.756,66.69,2.692z"/>
	<path fill="#4D4D4D" d="M64.998,15.919c0,0-5.838,0.358-5.838,0.455c0,0.101,5.838,0.459,5.838,0.459s5.842-0.358,5.842-0.459
		C70.84,16.277,64.998,15.919,64.998,15.919z"/>
	<path fill="#4D4D4D" d="M64.998,9.649c0,0-3.756,0.231-3.756,0.293c0,0.061,3.756,0.293,3.756,0.293s3.76-0.232,3.76-0.293
		C68.758,9.88,64.998,9.649,64.998,9.649z"/>
	<path fill="#4D4D4D" d="M64.998,2.535c-0.293,0-1.382,17.643-1.382,17.643h1.382h1.386C66.384,20.178,65.291,2.535,64.998,2.535z"
		/>
	<path fill="#4D4D4D" d="M56.848,19.627v11.832h16.301V19.627H56.848z M60.411,29.229h-3.017l0.354-1.985h3.021L60.411,29.229z
		 M66.506,29.229h-3.021l0.004-1.985h3.017V29.229z M69.58,29.229l-0.35-1.985h3.017l0.354,1.985H69.58z"/>
	<polygon fill="#4D4D4D" points="65.002,32.985 44.132,32.985 44.132,35.857 65.002,35.857 85.868,35.857 85.868,32.985 	"/>
	<polygon fill="#4D4D4D" points="93.161,35.678 65.002,35.678 36.835,35.678 35.676,39.242 65.002,39.242 94.319,39.242 	"/>
	<path fill="#4D4D4D" d="M95.775,39.102H65.002H34.22l-2.487,9.392l1.158,14.019l32.111-9.3l32.103,9.3l1.159-14.019L95.775,39.102z
		 M89.921,40.361l1.417,2.641h-4.022l-1.413-2.641H89.921z M82.282,40.361l0.944,2.641h-4.019l-0.944-2.641H82.282z M74.644,40.361
		l0.473,2.641h-4.019l-0.468-2.641H74.644z M62.991,40.361h4.018v2.641h-4.022L62.991,40.361z M55.353,40.361h4.018l-0.472,2.641
		H54.88L55.353,40.361z M47.718,40.361h4.019l-0.944,2.641h-4.019L47.718,40.361z M40.079,40.361h4.019l-1.417,2.641h-4.019
		L40.079,40.361z M65.002,45.792H34.237l0.394-1.67h30.371h30.367l0.389,1.67H65.002z"/>
	<path fill="#4D4D4D" d="M84.171,25.333H65.002H45.824l-2.863,5.99v1.662h22.041h22.037v-1.662L84.171,25.333z M48.221,29.229
		h-3.018l1.063-1.985h3.021L48.221,29.229z M54.315,29.229h-3.017l0.708-1.985h3.021L54.315,29.229z M60.411,29.229h-3.017
		l0.354-1.985h3.021L60.411,29.229z M66.506,29.229h-3.021l0.004-1.985h3.017V29.229z M69.58,29.229l-0.35-1.985h3.017l0.354,1.985
		H69.58z M75.676,29.229l-0.709-1.985h3.021l0.713,1.985H75.676z M81.771,29.229l-1.058-1.985h3.017l1.067,1.985H81.771z"/>
	<path fill="#4D4D4D" d="M65.002,51.025C49.2,50.815,23.157,66.601,23.157,66.601l14.723,58.831h54.24l14.723-58.831
		C106.843,66.601,80.8,50.815,65.002,51.025z"/>
	<path fill="#4D4D4D" d="M99.374,129c-3.323,0-5.059-0.94-6.589-1.771c-1.378-0.748-2.462-1.338-4.871-1.338
		c-2.4,0-3.489,0.59-4.862,1.333C81.517,128.06,79.781,129,76.458,129c-3.327,0-5.063-0.94-6.594-1.775
		c-1.377-0.743-2.462-1.333-4.866-1.333c-2.405,0-3.489,0.59-4.867,1.333C58.601,128.06,56.86,129,53.537,129
		c-3.327,0-5.059-0.94-6.593-1.771c-1.378-0.748-2.462-1.338-4.862-1.338c-2.409,0-3.494,0.59-4.867,1.333
		C35.681,128.06,33.944,129,30.621,129c-3.327,0-5.063-0.94-6.594-1.775c-1.377-0.743-2.457-1.333-4.866-1.333
		c-0.997,0-1.811-0.813-1.811-1.815c0-1.001,0.813-1.81,1.811-1.81c3.327,0,5.063,0.944,6.598,1.775
		c1.373,0.743,2.458,1.333,4.862,1.333c2.405,0,3.489-0.59,4.862-1.333c1.535-0.831,3.271-1.775,6.599-1.775
		c3.322,0,5.059,0.944,6.589,1.775c1.377,0.743,2.462,1.333,4.866,1.333c2.405,0,3.494-0.59,4.862-1.333
		c1.535-0.831,3.275-1.775,6.599-1.775s5.059,0.944,6.594,1.775c1.377,0.743,2.462,1.333,4.866,1.333
		c2.405,0,3.489-0.59,4.862-1.333c1.535-0.831,3.271-1.775,6.594-1.775c3.327,0,5.067,0.944,6.598,1.775
		c1.373,0.743,2.462,1.333,4.862,1.333c2.409,0,3.494-0.59,4.871-1.333c1.53-0.831,3.271-1.775,6.594-1.775
		c1.001,0,1.811,0.809,1.811,1.81c0,1.002-0.81,1.815-1.811,1.815c-2.405,0-3.493,0.59-4.866,1.338
		C104.438,128.06,102.702,129,99.374,129z"/>
</g>
</svg>
