<?xml version="1.0" encoding="utf-8"?>
<!-- Generator: Adobe Illustrator 16.0.0, SVG Export Plug-In . SVG Version: 6.00 Build 0)  -->
<!DOCTYPE svg PUBLIC "-//W3C//DTD SVG 1.1//EN" "http://www.w3.org/Graphics/SVG/1.1/DTD/svg11.dtd">
<svg version="1.1" id="Layer_1" xmlns="http://www.w3.org/2000/svg" xmlns:xlink="http://www.w3.org/1999/xlink" x="0px" y="0px"
	 width="130px" height="130px" viewBox="0 0 130 130" enable-background="new 0 0 130 130" xml:space="preserve">
<rect fill="none" width="130" height="130"/>
<g id="Shape_5_copy_2_">
	<path fill="#4C4C4C" d="M122.913,73.242c0.349-2.604,0.551-5.243,0.551-7.94c0-32.283-26.317-58.463-58.772-58.463
		c-3.226,0-6.393,0.268-9.466,0.771c-5.518-3.6-12.084-5.691-19.155-5.691C16.687,1.919,1,17.618,1,36.992
		c0,7.05,2.074,13.601,5.645,19.1c-0.482,3.001-0.722,6.078-0.722,9.21c0,32.296,26.299,58.471,58.769,58.471
		c3.659,0,7.233-0.355,10.699-0.979c5.384,3.338,11.729,5.287,18.539,5.287c19.374,0,35.07-15.705,35.07-35.079
		C129,85.679,126.755,78.865,122.913,73.242z M68.896,97.647C54.85,98.376,48.27,95.269,42.251,89.62
		c-6.732-6.314-4.029-13.52,1.454-13.881c5.478-0.367,8.769,6.209,11.686,8.033c2.918,1.825,14.034,5.973,19.9-0.734
		c6.393-7.299-4.254-11.079-12.047-12.225c-11.135-1.645-25.197-7.673-24.104-19.542c1.096-11.863,10.076-17.941,19.532-18.801
		c12.054-1.096,19.9,1.825,26.103,7.118c7.177,6.122,3.294,12.959-1.276,13.507c-4.559,0.549-9.672-10.062-19.714-10.219
		c-10.344-0.162-17.34,10.768-4.562,13.875C72,59.859,85.694,61.136,90.62,72.818C95.556,84.501,82.954,96.913,68.896,97.647z"/>
</g>
</svg>
