<?xml version="1.0" encoding="utf-8"?>
<!-- Generator: Adobe Illustrator 16.0.0, SVG Export Plug-In . SVG Version: 6.00 Build 0)  -->
<!DOCTYPE svg PUBLIC "-//W3C//DTD SVG 1.1//EN" "http://www.w3.org/Graphics/SVG/1.1/DTD/svg11.dtd">
<svg version="1.1" id="Layer_1" xmlns="http://www.w3.org/2000/svg" xmlns:xlink="http://www.w3.org/1999/xlink" x="0px" y="0px"
	 width="130px" height="130px" viewBox="0 0 130 130" enable-background="new 0 0 130 130" xml:space="preserve">
<rect fill="none" width="130" height="130"/>
<path fill="#4D4D4D" d="M89,1H41.551c-5.354,0-9.714,4.349-9.714,9.696v9.569h-0.255c-0.131,0.116-0.212,0.198-0.291,0.273v5.998
	c0.102,0.093,0.16,0.151,0.291,0.273h0.255v6.985h-0.255c-0.131,0.122-0.212,0.197-0.291,0.273v4.477
	c0.102,0.093,0.16,0.151,0.291,0.267h0.255v80.499c0,5.342,4.36,9.69,9.714,9.69H89c5.351,0,9.709-4.349,9.709-9.69V10.696
	C98.709,5.349,94.351,1,89,1z M64.559,8.165c0.924,0,1.67,0.749,1.67,1.672c0,0.923-0.746,1.666-1.67,1.666
	c-0.923,0-1.669-0.743-1.669-1.666C62.89,8.914,63.636,8.165,64.559,8.165z M65.656,123.473c-2.587,0-4.68-2.097-4.68-4.68
	c0-2.584,2.093-4.681,4.68-4.681s4.683,2.097,4.683,4.681C70.339,121.376,68.243,123.473,65.656,123.473z M93.599,108.654
	c0,0.11-0.087,0.198-0.191,0.198H37.051c-0.104,0-0.191-0.088-0.191-0.198V17.641c0-0.11,0.087-0.203,0.191-0.203h56.356
	c0.104,0,0.191,0.093,0.191,0.203V108.654z"/>
</svg>
