<?xml version="1.0" encoding="utf-8"?>
<!-- Generator: Adobe Illustrator 16.0.0, SVG Export Plug-In . SVG Version: 6.00 Build 0)  -->
<!DOCTYPE svg PUBLIC "-//W3C//DTD SVG 1.1//EN" "http://www.w3.org/Graphics/SVG/1.1/DTD/svg11.dtd">
<svg version="1.1" id="Layer_1" xmlns="http://www.w3.org/2000/svg" xmlns:xlink="http://www.w3.org/1999/xlink" x="0px" y="0px"
	 width="130px" height="130px" viewBox="0 0 130 130" enable-background="new 0 0 130 130" xml:space="preserve">
<rect fill="none" width="130" height="130"/>
<path fill="#4D4D4D" d="M127.84,71.925c-1.293-1.38-3.47-2.59-3.47-2.59L44.573,23.71c0,0-4.629-2.245-9.6,0.072
	c0,0-4.902,2.903-5.784,3.405c-0.89,0.498-25.25,15.117-26.146,15.659C1.829,43.586,0.989,44.755,1,45.709
	c0.016,1.111,0.134,2.993,0.134,2.993l0.137,2.048c0,0-0.042,1.788,1.43,2.926c1.476,1.134,77.958,50.598,77.958,50.598
	s4.245,2.993,8.717,2.993s7.669-2.519,9.125-3.54c1.451-1.021,27.846-19.745,27.846-19.745S129,82.095,129,80.303v-5.654
	C129,74.648,129.052,73.215,127.84,71.925z M23.147,36.529c0.95-0.511,2.303-0.654,3.159-0.273c0.86,0.381,0.717,1.062-0.213,1.582
	c-0.943,0.529-2.334,0.69-3.215,0.3C22.002,37.743,22.182,37.049,23.147,36.529z M79.832,93.444c-0.37,0.26-0.979,0.273-1.357,0.031
	L12.277,51.453c-0.381-0.242-0.374-0.623,0.014-0.851l36.018-21.21c0.39-0.229,1.02-0.229,1.411-0.004l66.229,37.995
	c0.39,0.224,0.409,0.613,0.038,0.873L79.832,93.444z M96.936,100.645c0-0.251,0.185-0.521,0.413-0.597
	c0.226-0.08,0.407,0.063,0.4,0.314c-0.002,0.251-0.186,0.52-0.412,0.596C97.113,101.034,96.93,100.896,96.936,100.645z
	 M97.474,102.387c-0.224,0.081-0.407-0.062-0.405-0.313s0.188-0.52,0.414-0.596s0.405,0.062,0.403,0.318
	C97.884,102.042,97.697,102.311,97.474,102.387z M98.296,99.689c0.002-0.25,0.186-0.52,0.412-0.596
	c0.229-0.076,0.408,0.067,0.405,0.318c-0.002,0.251-0.188,0.516-0.414,0.596C98.473,100.08,98.294,99.94,98.296,99.689z
	 M98.836,101.365c-0.227,0.076-0.405-0.062-0.403-0.313c0-0.251,0.186-0.52,0.412-0.596c0.224-0.076,0.407,0.062,0.405,0.318
	C99.246,101.025,99.062,101.289,98.836,101.365z M99.589,98.735c0.004-0.251,0.188-0.515,0.414-0.596
	c0.227-0.076,0.405,0.067,0.405,0.318c-0.004,0.251-0.188,0.515-0.417,0.596C99.768,99.13,99.589,98.986,99.589,98.735z
	 M100.128,100.416c-0.224,0.076-0.405-0.067-0.4-0.318c0-0.251,0.186-0.52,0.412-0.596s0.407,0.067,0.403,0.317
	C100.538,100.07,100.356,100.335,100.128,100.416z M100.883,97.853c0.005-0.251,0.188-0.52,0.415-0.596
	c0.224-0.08,0.405,0.062,0.403,0.313c-0.003,0.251-0.188,0.521-0.412,0.597C101.061,98.243,100.881,98.104,100.883,97.853z
	 M101.426,99.528c-0.229,0.076-0.408-0.062-0.406-0.313c0.003-0.255,0.188-0.52,0.415-0.596c0.224-0.081,0.405,0.062,0.403,0.313
	C101.835,99.184,101.649,99.448,101.426,99.528z M102.176,96.898c0.005-0.251,0.188-0.52,0.414-0.596
	c0.225-0.076,0.406,0.067,0.406,0.313c-0.003,0.251-0.19,0.52-0.415,0.596C102.355,97.288,102.174,97.149,102.176,96.898z
	 M102.718,98.574c-0.226,0.076-0.407-0.062-0.405-0.313s0.188-0.52,0.414-0.596c0.227-0.076,0.406,0.062,0.406,0.313
	C103.128,98.233,102.942,98.498,102.718,98.574z M103.403,95.944c0.003-0.251,0.188-0.52,0.412-0.596
	c0.225-0.076,0.408,0.062,0.406,0.317c-0.005,0.251-0.188,0.516-0.415,0.597C103.58,96.334,103.401,96.195,103.403,95.944z
	 M103.943,97.62c-0.224,0.08-0.407-0.062-0.403-0.313c0.002-0.251,0.188-0.521,0.412-0.597c0.225-0.076,0.408,0.067,0.405,0.318
	C104.354,97.279,104.17,97.544,103.943,97.62z M104.696,94.99c0.002-0.251,0.188-0.516,0.412-0.592
	c0.229-0.081,0.407,0.062,0.405,0.313c-0.004,0.251-0.188,0.52-0.414,0.596C104.875,95.384,104.694,95.245,104.696,94.99z
	 M105.236,96.67c-0.225,0.076-0.406-0.067-0.403-0.318c0.002-0.251,0.188-0.515,0.412-0.596c0.227-0.076,0.407,0.067,0.405,0.318
	S105.462,96.59,105.236,96.67z M105.879,87.037c-0.116,0.027-0.232,0.045-0.35,0.062c-0.078,0.014-0.161,0.022-0.239,0.027
	c-0.065,0.009-0.133,0.009-0.197,0.013c-0.114,0.01-0.233,0.019-0.35,0.027c-0.062,0-0.132,0-0.197,0v0.005
	c-0.109-0.005-0.22-0.014-0.329-0.019c-0.078-0.004-0.159-0.004-0.237-0.014c-0.088-0.004-0.18-0.013-0.267-0.026
	c-0.154-0.018-0.313-0.036-0.471-0.062c-0.271-0.054-0.54-0.121-0.8-0.202c-0.237-0.076-0.464-0.17-0.688-0.273
	c-0.192-0.089-0.377-0.192-0.556-0.309c-0.19-0.121-0.374-0.26-0.545-0.412c-0.111-0.104-0.212-0.215-0.309-0.332
	c-0.147-0.188-0.278-0.385-0.37-0.609c-0.101-0.241-0.156-0.492-0.154-0.757c0.002-0.126,0.002-0.251,0.029-0.381
	c0.038-0.175,0.092-0.345,0.177-0.507c0.043-0.094,0.095-0.174,0.152-0.26c0.074-0.103,0.148-0.206,0.233-0.3
	c0.134-0.147,0.275-0.282,0.435-0.398c0.197-0.148,0.398-0.282,0.618-0.395c0.083-0.04,0.163-0.081,0.249-0.116
	c0.174-0.072,0.349-0.148,0.53-0.206c0.184-0.063,0.377-0.112,0.569-0.152c0.204-0.045,0.412-0.081,0.618-0.108
	c0.135-0.021,0.269-0.031,0.405-0.04c0.144-0.009,0.287-0.014,0.433-0.014c0.087-0.004,0.175-0.004,0.262,0
	c0.108,0.005,0.211,0.019,0.318,0.022c0.067,0.005,0.139,0.01,0.208,0.014c0.114,0.018,0.227,0.036,0.339,0.05
	c0.199,0.026,0.396,0.071,0.594,0.116c0.101,0.026,0.204,0.062,0.305,0.09c0.244,0.066,0.481,0.152,0.712,0.26
	c0.296,0.134,0.578,0.291,0.838,0.483c0.099,0.072,0.192,0.148,0.285,0.229c0.082,0.072,0.163,0.152,0.239,0.237
	c0.081,0.086,0.159,0.175,0.229,0.27c0.146,0.201,0.258,0.421,0.336,0.658c0.045,0.148,0.078,0.296,0.088,0.448
	c0.009,0.116,0.011,0.232-0.007,0.35c-0.019,0.156-0.052,0.305-0.105,0.448c-0.105,0.305-0.278,0.564-0.493,0.802
	c-0.074,0.085-0.166,0.156-0.246,0.237c-0.119,0.116-0.256,0.211-0.393,0.3c-0.099,0.067-0.199,0.121-0.302,0.184
	c-0.161,0.099-0.334,0.175-0.514,0.242c-0.156,0.059-0.311,0.117-0.473,0.166C106.287,86.943,106.083,86.992,105.879,87.037z
	 M116.095,89.435c0,0-5.746,4.296-7.209,5.362c-1.459,1.062-1.842-0.094-1.842-0.094c-0.457-1.483,1.028-2.321,1.028-2.321
	s6.423-4.673,7.543-5.452c0.983-0.694,1.302,0.385,1.302,0.385C117.053,88.914,116.095,89.435,116.095,89.435z M118.314,85.729
	c0.005-0.251,0.19-0.515,0.414-0.596c0.225-0.076,0.408,0.062,0.406,0.318c-0.005,0.251-0.188,0.515-0.415,0.591
	C118.496,86.123,118.314,85.979,118.314,85.729z M118.856,87.404c-0.227,0.081-0.407-0.062-0.405-0.313s0.188-0.516,0.414-0.592
	c0.227-0.08,0.408,0.063,0.403,0.314C119.267,87.06,119.083,87.328,118.856,87.404z M119.473,84.774
	c0.005-0.251,0.188-0.516,0.414-0.592c0.227-0.08,0.406,0.063,0.403,0.314c-0.002,0.251-0.186,0.52-0.414,0.591
	C119.652,85.169,119.471,85.025,119.473,84.774z M120.013,86.45c-0.225,0.081-0.405-0.062-0.401-0.31
	c0.003-0.255,0.187-0.52,0.412-0.596c0.225-0.08,0.408,0.062,0.403,0.313C120.423,86.109,120.239,86.374,120.013,86.45z
	 M120.631,83.892c0.002-0.255,0.188-0.52,0.414-0.596c0.225-0.076,0.408,0.062,0.403,0.313c0,0.251-0.188,0.52-0.412,0.596
	C120.808,84.281,120.629,84.143,120.631,83.892z M121.171,85.567c-0.227,0.081-0.405-0.062-0.403-0.313s0.188-0.52,0.412-0.596
	c0.227-0.076,0.408,0.062,0.405,0.313C121.585,85.223,121.397,85.491,121.171,85.567z M121.722,83.076
	c0.002-0.255,0.184-0.52,0.412-0.596c0.227-0.081,0.408,0.062,0.403,0.313c0,0.251-0.186,0.516-0.412,0.596
	C121.898,83.466,121.72,83.327,121.722,83.076z M122.26,84.752c-0.227,0.076-0.403-0.062-0.401-0.318
	c0.002-0.251,0.184-0.515,0.412-0.591c0.227-0.081,0.408,0.062,0.405,0.313C122.672,84.407,122.488,84.676,122.26,84.752z
	 M122.878,82.189c0.002-0.251,0.19-0.52,0.414-0.596c0.225-0.076,0.405,0.062,0.403,0.313s-0.186,0.52-0.412,0.596
	C123.057,82.584,122.876,82.44,122.878,82.189z M123.42,83.865c-0.229,0.076-0.407-0.063-0.405-0.313
	c0.002-0.251,0.188-0.521,0.414-0.597c0.225-0.076,0.405,0.067,0.403,0.313C123.83,83.524,123.644,83.789,123.42,83.865z"/>
</svg>
