<?xml version="1.0" encoding="utf-8"?>
<!-- Generator: Adobe Illustrator 16.0.0, SVG Export Plug-In . SVG Version: 6.00 Build 0)  -->
<!DOCTYPE svg PUBLIC "-//W3C//DTD SVG 1.1//EN" "http://www.w3.org/Graphics/SVG/1.1/DTD/svg11.dtd">
<svg version="1.1" id="Layer_1" xmlns="http://www.w3.org/2000/svg" xmlns:xlink="http://www.w3.org/1999/xlink" x="0px" y="0px"
	 width="130px" height="130px" viewBox="0 0 130 130" enable-background="new 0 0 130 130" xml:space="preserve">
<rect fill="none" width="130" height="130"/>
<g>
	<path fill="#4D4D4D" d="M103.806,1H26.194c-5.011,0-9.108,4.1-9.108,9.108v109.785c0,5.008,4.098,9.107,9.108,9.107h77.611
		c5.011,0,9.108-4.1,9.108-9.107V10.108C112.914,5.1,108.816,1,103.806,1z M64.997,12.416c7.508,0,13.588,6.085,13.588,13.59
		c0,7.5-6.08,13.59-13.588,13.59c-7.502,0-13.587-6.09-13.587-13.59C51.41,18.501,57.495,12.416,64.997,12.416z M64.997,118.552
		c-19.16,0-34.693-15.535-34.693-34.698c0-19.159,15.533-34.694,34.693-34.694c19.161,0,34.697,15.535,34.697,34.694
		C99.694,103.017,84.158,118.552,64.997,118.552z"/>
	<circle fill="#4D4D4D" cx="64.999" cy="26.005" r="8.985"/>
	<path fill="#4D4D4D" d="M64.997,56.158C49.7,56.158,37.3,68.557,37.3,83.854c0,15.302,12.4,27.7,27.697,27.7
		c15.298,0,27.698-12.398,27.698-27.7C92.695,68.557,80.295,56.158,64.997,56.158z M64.997,96.341
		c-6.894,0-12.485-5.589-12.485-12.487c0-6.89,5.592-12.483,12.485-12.483c6.897,0,12.485,5.594,12.485,12.483
		C77.482,90.752,71.895,96.341,64.997,96.341z"/>
</g>
</svg>
