<?xml version="1.0" encoding="utf-8"?>
<!-- Generator: Adobe Illustrator 16.0.0, SVG Export Plug-In . SVG Version: 6.00 Build 0)  -->
<!DOCTYPE svg PUBLIC "-//W3C//DTD SVG 1.1//EN" "http://www.w3.org/Graphics/SVG/1.1/DTD/svg11.dtd">
<svg version="1.1" id="Layer_1" xmlns="http://www.w3.org/2000/svg" xmlns:xlink="http://www.w3.org/1999/xlink" x="0px" y="0px"
	 width="130px" height="130px" viewBox="0 0 130 130" enable-background="new 0 0 130 130" xml:space="preserve">
<rect fill="none" width="130" height="130"/>
<g>
	<path fill="#4D4D4D" d="M42.175,92.074c-8.048,0-14.566,5.266-14.566,11.77c0,6.519,6.519,11.779,14.566,11.779
		c8.049,0,14.572-5.261,14.572-11.779C56.748,97.34,50.224,92.074,42.175,92.074z M16.708,115.739c-4.533,0-8.203,2.968-8.203,6.631
		c0,3.667,3.67,6.63,8.203,6.63c4.532,0,8.205-2.963,8.205-6.63C24.913,118.707,21.24,115.739,16.708,115.739z M65.702,1
		C34.896,1,9.917,21.21,9.917,46.098c0,24.893,24.979,45.124,55.785,45.124c30.818,0,55.794-20.23,55.794-45.124
		C121.496,21.21,96.52,1,65.702,1z"/>
</g>
</svg>
