<?xml version="1.0" encoding="utf-8"?>
<!-- Generator: Adobe Illustrator 16.0.0, SVG Export Plug-In . SVG Version: 6.00 Build 0)  -->
<!DOCTYPE svg PUBLIC "-//W3C//DTD SVG 1.1//EN" "http://www.w3.org/Graphics/SVG/1.1/DTD/svg11.dtd">
<svg version="1.1" id="Layer_1" xmlns="http://www.w3.org/2000/svg" xmlns:xlink="http://www.w3.org/1999/xlink" x="0px" y="0px"
	 width="130px" height="130px" viewBox="0 0 130 130" enable-background="new 0 0 130 130" xml:space="preserve">
<rect fill="none" width="130" height="130"/>
<path fill="#4D4D4D" d="M115.483,38.055c8.969-18.168-34.644-31.801-44.515-13.229C64.933,9.248,25.512,8.714,29.101,24.7
	C16.011,14.623-5.283,31.426,5.397,49.186c-10.837,10.37-0.534,35.987,18.787,27.818C30.04,96.406,64.779,99.2,73.443,92.201
	c4.851,6.66-7.973,20.335-15.188,24.856C69.37,117.661,85.09,102.57,90.917,92.67c12.663-0.223,24.075-5.729,22.27-18.387
	C133.188,74.822,134.506,36.504,115.483,38.055z"/>
</svg>
