<?xml version="1.0" encoding="utf-8"?>
<!-- Generator: Adobe Illustrator 16.0.0, SVG Export Plug-In . SVG Version: 6.00 Build 0)  -->
<!DOCTYPE svg PUBLIC "-//W3C//DTD SVG 1.1//EN" "http://www.w3.org/Graphics/SVG/1.1/DTD/svg11.dtd">
<svg version="1.1" id="Layer_1" xmlns="http://www.w3.org/2000/svg" xmlns:xlink="http://www.w3.org/1999/xlink" x="0px" y="0px"
	 width="130px" height="130px" viewBox="0 0 130 130" enable-background="new 0 0 130 130" xml:space="preserve">
<rect fill="none" width="130" height="130"/>
<g>
	<path fill="#4D4D4D" d="M42.175,92.074c-8.048,0-14.566,5.266-14.566,11.77c0,6.519,6.519,11.779,14.566,11.779
		c8.051,0,14.572-5.261,14.572-11.779C56.748,97.34,50.226,92.074,42.175,92.074z"/>
	<path fill="#4D4D4D" d="M65.704,1C34.896,1,9.917,21.21,9.917,46.098c0,24.893,24.979,45.124,55.787,45.124
		c30.816,0,55.792-20.23,55.792-45.124C121.496,21.21,96.52,1,65.704,1z M40.428,55.818c-4.559,0-8.257-3.698-8.257-8.259
		c0-4.555,3.698-8.253,8.257-8.253c4.561,0,8.256,3.698,8.256,8.253C48.684,52.12,44.989,55.818,40.428,55.818z M67.559,55.818
		c-4.561,0-8.256-3.698-8.256-8.259c0-4.555,3.695-8.253,8.256-8.253c4.561,0,8.256,3.698,8.256,8.253
		C75.814,52.12,72.119,55.818,67.559,55.818z M94.688,55.818c-4.561,0-8.256-3.698-8.256-8.259c0-4.555,3.695-8.253,8.256-8.253
		s8.26,3.698,8.26,8.253C102.947,52.12,99.248,55.818,94.688,55.818z"/>
	<path fill="#4D4D4D" d="M16.707,115.739c-4.529,0-8.202,2.968-8.202,6.631c0,3.667,3.673,6.63,8.202,6.63
		c4.536,0,8.206-2.963,8.206-6.63C24.913,118.707,21.243,115.739,16.707,115.739z"/>
</g>
</svg>
