<?xml version="1.0" encoding="utf-8"?>
<!-- Generator: Adobe Illustrator 16.0.0, SVG Export Plug-In . SVG Version: 6.00 Build 0)  -->
<!DOCTYPE svg PUBLIC "-//W3C//DTD SVG 1.1//EN" "http://www.w3.org/Graphics/SVG/1.1/DTD/svg11.dtd">
<svg version="1.1" id="Layer_1" xmlns="http://www.w3.org/2000/svg" xmlns:xlink="http://www.w3.org/1999/xlink" x="0px" y="0px"
	 width="130px" height="130px" viewBox="0 0 130 130" enable-background="new 0 0 130 130" xml:space="preserve">
<rect fill="none" width="130" height="130"/>
<path fill="#4D4D4D" d="M68.425,7.966C30.79,7.966,1,29.941,1,57.051c0,15.355,9.212,29.054,24.533,38.06
	c3.471,2.038,3.865,17.335-15.647,26.576c0,0,27.627,4.351,45.144-17.791c4.331,0.617,8.81,1.945,13.396,1.945
	C106.06,105.842,129,84.16,129,57.051C129,29.941,106.06,7.966,68.425,7.966z M36.314,65.968c-4.938,0-8.944-4.008-8.944-8.947
	s4.006-8.947,8.944-8.947c4.941,0,8.947,4.008,8.947,8.947S41.256,65.968,36.314,65.968z M65.71,65.968
	c-4.94,0-8.946-4.008-8.946-8.947s4.006-8.947,8.946-8.947c4.939,0,8.945,4.008,8.945,8.947S70.649,65.968,65.71,65.968z
	 M95.104,65.968c-4.941,0-8.946-4.008-8.946-8.947s4.005-8.947,8.946-8.947s8.947,4.008,8.947,8.947S100.045,65.968,95.104,65.968z"
	/>
</svg>
