<?xml version="1.0" encoding="utf-8"?>
<!-- Generator: Adobe Illustrator 16.0.0, SVG Export Plug-In . SVG Version: 6.00 Build 0)  -->
<!DOCTYPE svg PUBLIC "-//W3C//DTD SVG 1.1//EN" "http://www.w3.org/Graphics/SVG/1.1/DTD/svg11.dtd">
<svg version="1.1" id="Layer_1" xmlns="http://www.w3.org/2000/svg" xmlns:xlink="http://www.w3.org/1999/xlink" x="0px" y="0px"
	 width="130px" height="130px" viewBox="0 0 130 130" enable-background="new 0 0 130 130" xml:space="preserve">
<rect fill="none" width="130" height="130"/>
<path fill="#4D4D4D" d="M121.839,4.146L7.957,4.157C4.093,4.273,1,7.415,1,11.29v76.889c0,3.869,3.093,7.022,6.957,7.138h35.23
	l21.812,30.537L86.81,95.316h35.029c3.948,0,7.161-3.197,7.161-7.138V11.29C129,7.349,125.787,4.146,121.839,4.146z M34.156,62.608
	c-5.184,0-9.388-4.2-9.388-9.382c0-5.188,4.204-9.393,9.388-9.393s9.387,4.205,9.387,9.393
	C43.542,58.408,39.34,62.608,34.156,62.608z M64.999,62.608c-5.184,0-9.387-4.2-9.387-9.382c0-5.188,4.203-9.393,9.387-9.393
	c5.185,0,9.387,4.205,9.387,9.393C74.386,58.408,70.184,62.608,64.999,62.608z M95.845,62.608c-5.187,0-9.39-4.2-9.39-9.382
	c0-5.188,4.203-9.393,9.39-9.393c5.184,0,9.388,4.205,9.388,9.393C105.232,58.408,101.028,62.608,95.845,62.608z"/>
</svg>
