<?xml version="1.0" encoding="utf-8"?>
<!-- Generator: Adobe Illustrator 16.0.0, SVG Export Plug-In . SVG Version: 6.00 Build 0)  -->
<!DOCTYPE svg PUBLIC "-//W3C//DTD SVG 1.1//EN" "http://www.w3.org/Graphics/SVG/1.1/DTD/svg11.dtd">
<svg version="1.1" id="Layer_1" xmlns="http://www.w3.org/2000/svg" xmlns:xlink="http://www.w3.org/1999/xlink" x="0px" y="0px"
	 width="130px" height="130px" viewBox="0 0 130 130" enable-background="new 0 0 130 130" xml:space="preserve">
<rect fill="none" width="130" height="130"/>
<g>
	<path fill="#4D4D4D" d="M113.76,87.844C123.273,82.249,129,73.74,129,64.204c0-16.841-18.511-30.492-41.891-30.492
		c-1.485,0-2.924,0.057-4.336,0.165C89.599,40.473,93.36,49.139,93.36,58.66c0,14.406-8.542,26.773-23.435,32.934
		c4.966,1.853,10.708,2.915,17.184,2.915c2.855,0,5.637-0.821,8.323-1.208c10.883,13.754,28.052,11.051,28.052,11.051
		C111.357,98.615,111.604,89.109,113.76,87.844z"/>
	<path fill="#4D4D4D" d="M47.127,25.434C21.381,25.434,1,40.469,1,59.012c0,10.506,6.302,19.878,16.785,26.037
		c2.372,1.399,2.645,11.864-10.705,18.184c0,0,18.899,2.979,30.885-12.171c2.964,0.422,6.025,1.334,9.162,1.334
		c25.751,0,41.443-14.836,41.443-33.383C88.57,40.469,72.878,25.434,47.127,25.434z"/>
</g>
</svg>
