<?xml version="1.0" encoding="utf-8"?>
<!-- Generator: Adobe Illustrator 16.0.0, SVG Export Plug-In . SVG Version: 6.00 Build 0)  -->
<!DOCTYPE svg PUBLIC "-//W3C//DTD SVG 1.1//EN" "http://www.w3.org/Graphics/SVG/1.1/DTD/svg11.dtd">
<svg version="1.1" id="Layer_1" xmlns="http://www.w3.org/2000/svg" xmlns:xlink="http://www.w3.org/1999/xlink" x="0px" y="0px"
	 width="130px" height="130px" viewBox="0 0 130 130" enable-background="new 0 0 130 130" xml:space="preserve">
<rect fill="none" width="130" height="130"/>
<path fill="#4D4D4D" d="M121.093,1L8.7,1.011C4.893,1.125,1.841,4.22,1.841,8.034V83.74c0,3.808,3.052,6.914,6.859,7.028h16.684V129
	l43.111-38.198l52.598-0.033c3.896,0,7.066-3.145,7.066-7.028V8.034C128.159,4.155,124.988,1,121.093,1z M35.426,58.695
	c-5.118,0-9.264-4.146-9.264-9.264c0-5.119,4.146-9.264,9.264-9.264c5.114,0,9.265,4.145,9.265,9.264
	C44.69,54.55,40.54,58.695,35.426,58.695z M65.862,58.695c-5.113,0-9.265-4.146-9.265-9.264c0-5.119,4.151-9.264,9.265-9.264
	c5.119,0,9.264,4.145,9.264,9.264C75.126,54.55,70.981,58.695,65.862,58.695z M96.304,58.695c-5.119,0-9.264-4.146-9.264-9.264
	c0-5.119,4.145-9.264,9.264-9.264c5.113,0,9.264,4.145,9.264,9.264C105.567,54.55,101.417,58.695,96.304,58.695z"/>
</svg>
