<?xml version="1.0" encoding="utf-8"?>
<!-- Generator: Adobe Illustrator 16.0.0, SVG Export Plug-In . SVG Version: 6.00 Build 0)  -->
<!DOCTYPE svg PUBLIC "-//W3C//DTD SVG 1.1//EN" "http://www.w3.org/Graphics/SVG/1.1/DTD/svg11.dtd">
<svg version="1.1" id="Layer_1" xmlns="http://www.w3.org/2000/svg" xmlns:xlink="http://www.w3.org/1999/xlink" x="0px" y="0px"
	 width="130px" height="130px" viewBox="0 0 130 130" enable-background="new 0 0 130 130" xml:space="preserve">
<rect fill="none" width="130" height="130"/>
<g>
	<path fill="#4D4D4D" d="M24.634,52.971c-0.505-3.157-1.072-5.725-1.495-7.414c3.071-2,6.497-3.921,10.347-5.629
		c1.208,3.095,2.165,6.048,2.914,8.86c1.958-0.573,4.007-1.096,6.1-1.587c0-0.002,0-0.004,0-0.004
		c0.309-1.05,1.514-2.133,2.672-2.41c0.238-0.06,1.518-0.417,3.542-0.866l0.396-1.415c0.243-0.858,1.037-1.552,1.778-1.552h0.272
		c0.737,0,1.169,0.694,0.964,1.552l-0.184,0.766c0.897-0.165,1.857-0.329,2.908-0.489l0.208-1.018
		c0.181-0.854,0.918-1.547,1.654-1.547h0.267c0.729,0,1.212,0.693,1.07,1.547l-0.101,0.593c0.898-0.104,1.851-0.205,2.816-0.297
		l0.137-1.034c0.111-0.854,0.793-1.551,1.517-1.551h0.271c0.722,0,1.249,0.697,1.169,1.551l-0.076,0.802
		c0.902-0.06,1.82-0.104,2.771-0.144l0.07-1.283c0.048-0.858,0.675-1.555,1.389-1.555h0.269c0.716,0,1.289,0.697,1.274,1.555
		l-0.02,1.207c0.899-0.008,1.82,0,2.75,0.016l-0.024-1.279c-0.008-0.858,0.56-1.555,1.279-1.555h0.265
		c0.72,0,1.345,0.697,1.391,1.555l0.08,1.379c0.91,0.048,1.826,0.088,2.767,0.16l-0.074-0.858c-0.084-0.854,0.443-1.551,1.164-1.551
		h0.273c0.717,0,1.402,0.697,1.515,1.551l0.152,1.143c0.931,0.1,1.877,0.225,2.829,0.361l-0.129-0.766
		c-0.143-0.854,0.339-1.547,1.07-1.547h0.265c0.738,0,1.478,0.693,1.654,1.547l0.252,1.227c0.973,0.172,1.956,0.381,2.94,0.589
		l-0.259-1.074c-0.208-0.858,0.227-1.552,0.965-1.552h0.272c0.737,0,1.535,0.694,1.778,1.552l0.515,1.832
		c1.068,0.269,2.133,0.521,3.209,0.833c1.156,0.317,2.375,1.54,2.706,2.734c0.014,0.054-0.002,0.092,0.008,0.146
		c1.312,0.335,2.622,0.694,3.933,1.073c-1.008-5.236-2.215-8.509-2.403-9c0.82,0.336,1.64,0.689,2.46,1.056
		c-21.574-9.709-43.515-7.743-43.515-7.743C19.371,36.625,2.968,65.437,2.968,65.437s0.19-0.32,0.479-0.773
		C7.793,61.534,14.993,56.994,24.634,52.971z"/>
	<path fill="#4D4D4D" d="M110.525,45.003c1.737,2.501,2.922,5.163,3.724,7.87c4.025,1.535,8.048,3.225,12.063,5.159
		c0.305,0.345,0.599,0.697,0.894,1.048c-6.316-7.504-13.786-12.85-21.428-16.648C107.37,43.219,108.955,44.071,110.525,45.003z"/>
	<path fill="#4D4D4D" d="M35.354,82.729c8.618,1.923,17.214,2.945,25.744,2.945c16.863-0.004,31.114-3.683,42.241-8.171
		c1.931-11.213,1.097-20.975-0.145-27.725c-1.337-0.387-2.674-0.77-4.011-1.114c-0.12,0.706-0.771,1.06-1.701,0.822
		c-1.017-0.285-2.019-0.509-3.027-0.758l0.034,0.128c0.24,0.858-0.238,1.551-1.072,1.551h-0.303c-0.836,0-1.678-0.693-1.884-1.551
		l-0.219-0.906c-1.04-0.212-2.074-0.421-3.101-0.593l0.158,0.762c0.172,0.854-0.351,1.551-1.175,1.551H86.59
		c-0.824,0-1.611-0.697-1.758-1.551l-0.206-1.247c-1.007-0.141-2.003-0.277-2.989-0.385l0.118,0.89
		c0.11,0.854-0.467,1.551-1.28,1.551h-0.299c-0.818,0-1.544-0.697-1.624-1.551l-0.11-1.187c-0.992-0.076-1.956-0.128-2.926-0.181
		l0.04,0.686c0.048,0.854-0.571,1.552-1.384,1.552h-0.296c-0.811,0-1.481-0.698-1.498-1.552l-0.014-0.813
		c-0.988-0.024-1.956-0.032-2.904-0.032l-0.022,0.902c-0.012,0.854-0.684,1.552-1.499,1.552h-0.291
		c-0.813,0-1.433-0.698-1.385-1.552l0.048-0.85c-0.994,0.028-1.97,0.06-2.914,0.108l-0.128,1.367
		c-0.081,0.854-0.811,1.551-1.628,1.551h-0.297c-0.812,0-1.391-0.697-1.278-1.551l0.154-1.163c-1.021,0.08-2.019,0.165-2.959,0.261
		l-0.272,1.644c-0.146,0.854-0.938,1.551-1.758,1.551H54.93c-0.83,0-1.354-0.697-1.179-1.551l0.263-1.263
		c-1.101,0.14-2.108,0.292-3.045,0.441l-0.377,1.56c-0.208,0.858-1.054,1.551-1.886,1.551h-0.307c-0.83,0-1.312-0.693-1.07-1.551
		l0.274-0.966c-2.095,0.405-3.338,0.722-3.397,0.733c-0.198,0.044-0.394,0.064-0.569,0.064c-0.649-0.012-1.08-0.335-1.173-0.85
		c-2.032,0.481-4.007,0.999-5.911,1.558C40.552,64.896,38.146,76.038,35.354,82.729z"/>
	<path fill="#4D4D4D" d="M127.252,59.137c-4.262-2.097-8.535-3.927-12.811-5.57c1.746,6.468,1.255,13.153,0.12,18.665
		c5.549-2.998,9.748-5.889,12.438-7.926l0.071,0.099c1.304-1.935,1.929-3.125,1.929-3.125
		C128.433,60.54,127.842,59.838,127.252,59.137z"/>
	<path fill="#4D4D4D" d="M127.02,64.484c-0.232,0.343-0.485,0.708-0.76,1.097C126.534,65.194,126.787,64.827,127.02,64.484z"/>
	<path fill="#4D4D4D" d="M112.337,80.195c-1.638,1.305-3.407,2.6-5.308,3.854C108.928,82.791,110.699,81.5,112.337,80.195z"/>
	<path fill="#4D4D4D" d="M114.405,72.993c-0.617,2.803-1.379,5.271-2.066,7.2c6.733-5.368,11.268-10.878,13.881-14.559
		C123.452,67.655,119.461,70.289,114.405,72.993z"/>
	<path fill="#4D4D4D" d="M100.882,87.698c1.03-3.254,1.792-6.431,2.351-9.51c-11.132,4.454-25.332,8.084-42.135,8.09
		c-8.607,0-17.285-1.034-25.98-2.988c-1.764,4.041-3.608,6.332-4.037,6.837c-1.207-0.479-2.419-0.996-3.636-1.545
		c19.041,8.609,36.986,8.14,36.986,8.14c18.433-0.265,32.4-5.925,42.557-12.644C105.087,85.331,103.053,86.548,100.882,87.698z"/>
	<path fill="#4D4D4D" d="M103.183,41.203c0.804,0.361,1.607,0.74,2.409,1.135C104.79,41.94,103.988,41.565,103.183,41.203z"/>
	<path fill="#4D4D4D" d="M23.46,86.655c0.557-2.04,0.992-4.083,1.337-6.111c-6.827-2.131-13.654-4.828-20.461-8.128
		c-0.387-0.4-0.78-0.798-1.157-1.211c7.222,3.59,14.468,6.519,21.716,8.779c1.609-9.974,0.894-19.522-0.163-26.396
		C14.281,57.964,6.727,62.949,2.609,66.032L1,68.695c7.731,9.379,17.07,15.611,26.176,19.767
		C25.941,87.898,24.701,87.301,23.46,86.655z"/>
</g>
</svg>
