<?xml version="1.0" encoding="utf-8"?>
<!-- Generator: Adobe Illustrator 16.0.0, SVG Export Plug-In . SVG Version: 6.00 Build 0)  -->
<!DOCTYPE svg PUBLIC "-//W3C//DTD SVG 1.1//EN" "http://www.w3.org/Graphics/SVG/1.1/DTD/svg11.dtd">
<svg version="1.1" id="Layer_1" xmlns="http://www.w3.org/2000/svg" xmlns:xlink="http://www.w3.org/1999/xlink" x="0px" y="0px"
	 width="130px" height="130px" viewBox="0 0 130 130" enable-background="new 0 0 130 130" xml:space="preserve">
<rect fill="none" width="130" height="130"/>
<g>
	<path fill="#4D4D4D" d="M14.68,33.055c6.464-4.396,13.992-6.742,22.012-7.514c5.88-11.427,13.906-20.219,22.301-24.262
		C52.157,1.924,45.4,3.629,39.017,6.477l-2.897,1.344c-4.646,2.311-8.83,5.14-12.805,8.612C20.786,20.149,17.668,25.6,14.68,33.055z
		"/>
	<path fill="#4D4D4D" d="M60.048,1.188c1.033-0.083,2.065-0.138,3.102-0.168C62.113,1.048,61.081,1.109,60.048,1.188z"/>
	<path fill="#4D4D4D" d="M5.285,41.957c2.046-2.68,4.324-4.974,6.77-6.952c2.03-5.484,4.164-10.009,6.186-13.645
		c-6.104,6.536-10.582,14.002-13.43,21.927C4.971,42.844,5.114,42.398,5.285,41.957z"/>
	<path fill="#4D4D4D" d="M62.888,27.718c9.224,2.176,18.291,5.613,26.422,9.684c16.944,8.486,34.582,28.512,36.221,48.206
		c7.321-21.782,2.89-46.3-13.589-64.054l-2.421-2.407c-3.253-3.184-6.768-5.927-10.458-8.274
		C89.791,11.635,70.913,14.811,62.888,27.718z"/>
	<path fill="#4D4D4D" d="M37.694,25.451c7.585-0.606,15.575,0.149,23.488,1.876c7.654-13.075,25.105-16.862,35.362-17.95
		c-5.941-3.399-12.29-5.798-18.823-7.125L75.83,1.888c-3.89-0.672-7.825-0.937-11.758-0.881
		C53.088,4.667,43.913,13.528,37.694,25.451z"/>
	<path fill="#4D4D4D" d="M97.892,10.148c0.333,0.204,0.672,0.402,1.003,0.612C98.561,10.55,98.228,10.352,97.892,10.148z"/>
	<path fill="#4D4D4D" d="M59.676,30.295c0.215-0.501,0.474-0.958,0.717-1.438c-7.963-1.7-15.98-2.394-23.546-1.661
		c-5.784,11.91-8.729,26.609-7.687,42.193c0.936,13.898,4.897,27.009,11.455,37.899c5.709,9.475,13.964,17.261,22.912,21.692
		c9.552,0.231,19.146-1.647,28.014-5.707l3.032-1.481c2.209-1.138,4.327-2.446,6.396-3.851
		C65.487,78.804,51.587,49.316,59.676,30.295z"/>
	<path fill="#4D4D4D" d="M88.596,38.911c-8.166-4.09-17.294-7.536-26.554-9.675c-0.3,0.573-0.619,1.129-0.879,1.738
		c-7.821,18.393,6.049,47.333,41.188,86.038c2.771-1.994,5.423-4.228,7.938-6.742c4.206-4.203,9.844-12.366,10.541-13.909
		l1.592-3.035c0.829-1.716,1.557-3.465,2.229-5.228C123.625,68.607,105.443,47.35,88.596,38.911z"/>
	<path fill="#4D4D4D" d="M61.742,128.901c-0.664-0.033-1.328-0.047-1.991-0.104C60.414,128.852,61.078,128.868,61.742,128.901z"/>
	<path fill="#4D4D4D" d="M4.128,84.4c-0.339-1.082-0.656-2.173-0.934-3.271C3.476,82.228,3.79,83.318,4.128,84.4z"/>
	<path fill="#4D4D4D" d="M10.934,38.173c-2.201,2.065-4.23,4.432-6.035,7.161l-0.65-0.449c-3.134,9.522-3.966,19.632-2.468,29.513
		l0.71,3.812c0.151,0.735,0.35,1.457,0.526,2.185C4.258,62.597,7.351,48.76,10.934,38.173z"/>
	<path fill="#4D4D4D" d="M39.234,108.176C32.539,97.054,28.49,83.679,27.531,69.5c-1.019-15.278,2.41-30.093,8.249-42.185
		c-8.208,0.947-15.837,3.633-22.213,8.61C9.259,47.584,5.431,63.661,4.359,85.145c2.76,8.455,7.288,16.341,13.747,23.295
		l2.589,2.634c9.433,9.177,20.765,14.675,32.798,16.895l1.925,0.325c1.416,0.217,2.837,0.374,4.261,0.495
		C51.678,124.062,44.426,116.794,39.234,108.176z"/>
</g>
</svg>
