<?xml version="1.0" encoding="utf-8"?>
<!-- Generator: Adobe Illustrator 16.0.0, SVG Export Plug-In . SVG Version: 6.00 Build 0)  -->
<!DOCTYPE svg PUBLIC "-//W3C//DTD SVG 1.1//EN" "http://www.w3.org/Graphics/SVG/1.1/DTD/svg11.dtd">
<svg version="1.1" id="Layer_1" xmlns="http://www.w3.org/2000/svg" xmlns:xlink="http://www.w3.org/1999/xlink" x="0px" y="0px"
	 width="130px" height="130px" viewBox="0 0 130 130" enable-background="new 0 0 130 130" xml:space="preserve">
<rect fill="none" width="130" height="130"/>
<path fill="#4D4D4D" d="M124.535,41.401c-6.312-15.89-18.437-28.37-34.144-35.143C82.306,2.768,73.775,1,65.034,1h-0.003
	C39.433,1,16.343,16.165,6.201,39.633c-6.784,15.67-7.05,33.047-0.753,48.929c6.308,15.902,18.437,28.396,34.16,35.177
	C47.691,127.229,56.223,129,64.965,129c25.598,0,48.694-15.163,58.838-38.631C130.589,74.683,130.849,57.29,124.535,41.401z
	 M33.551,117.544c-3.358-1.997-6.479-4.27-9.325-6.802c43.969,1.417-0.864-58.816-3.628-87.941c1.908-2.004,3.903-3.896,6.038-5.603
	C29.656,48.312,72.058,108.956,33.551,117.544z M109.407,107.196c-1.724,1.808-3.525,3.509-5.436,5.079
	c-12.584-15.216,5.303-49.737,14.557-77.076c1.721,3.081,3.15,6.283,4.315,9.603C113.611,68.483,99.39,96.193,109.407,107.196z"/>
</svg>
