<?xml version="1.0" encoding="utf-8"?>
<!-- Generator: Adobe Illustrator 16.0.0, SVG Export Plug-In . SVG Version: 6.00 Build 0)  -->
<!DOCTYPE svg PUBLIC "-//W3C//DTD SVG 1.1//EN" "http://www.w3.org/Graphics/SVG/1.1/DTD/svg11.dtd">
<svg version="1.1" id="Layer_1" xmlns="http://www.w3.org/2000/svg" xmlns:xlink="http://www.w3.org/1999/xlink" x="0px" y="0px"
	 width="130px" height="130px" viewBox="0 0 130 130" enable-background="new 0 0 130 130" xml:space="preserve">
<rect fill="none" width="130" height="130"/>
<g>
	<path fill="#4D4D4D" d="M119.398,31.432c0.87,1.424,1.719,2.856,2.484,4.343c-0.769-1.495-1.587-2.96-2.468-4.384
		C119.409,31.401,119.404,31.418,119.398,31.432z"/>
	<path fill="#4D4D4D" d="M112.745,107.063c-0.424,0.171-1.515,0.805-2.016,0.926c-0.495,0.121-1.14,0.044-1.112-0.567
		c0.033-0.716,0.864-1.515,1.955-1.834c0.782-0.24,1.691-0.513,2.137-0.647c0.116-0.391,0.688-0.223,1.159-0.058
		c-0.233,0.292-0.465,0.598-0.699,0.897c-0.008,0.053,0,0.104-0.024,0.157c9.238-11.095,14.802-25.365,14.802-40.935
		c0-10.514-2.551-20.428-7.039-29.179c-0.091-0.077-0.182-0.168-0.275-0.248c-0.391-0.363-1.132-1.537-1.468-1.906
		c-0.295-0.331-1.229-0.928-1.272-1.559c-0.498,0.182-1.354,0.116-1.68,0.072c-0.454-0.061-1.71-0.088-2.2-0.193
		c-0.484-0.11-0.972-0.396-0.611-0.776c0.44-0.458,1.589-0.656,2.657-0.446c0.818,0.176,1.766,0.388,2.179,0.479
		c0.011-0.005,0.03-0.027,0.038-0.033c0.009,0.016,0.02,0.033,0.027,0.049c0.017,0.003,0.025,0.005,0.036,0.008
		C108.056,13.105,87.945,1,64.998,1C49.057,1,34.489,6.852,23.293,16.509c0.209-0.08,0.418-0.163,0.539-0.132
		c0.271,0.066,0.012,0.413-0.256,0.661c-0.278,0.248-1.038,0.743-1.305,0.947c-0.185,0.148-0.681,0.504-1.006,0.6
		c0.006,0.413-0.861,1.206-1.126,1.548c-0.297,0.375-0.931,1.415-1.294,1.806c-0.348,0.391-0.73,0.821-0.769,0.364
		c-0.027-0.32,0.144-0.722,0.402-1.19C7.685,32.575,1.054,48.012,1.054,65.003c0,22.716,11.835,42.652,29.663,54.012
		c-0.322-0.28-0.843-0.82-1.058-1.013c-0.187-0.166-0.669-0.626-0.875-1.003c-0.18-0.02-0.436-0.082-0.785-0.286
		c-0.691-0.407-1.229-0.683-1.649-1.245c-0.358-0.468-0.077-0.396,0.171-0.336c0.25,0.056,0.95,0.474,1.2,0.567
		c0.239,0.088,0.805,0.039,1.112,0.573c0.039,0.068,0.033,0.085,0.063,0.143c0.262,0.201,0.771,0.595,1.223,0.942
		c0.634,0.474,1.189,1.223,1.286,1.707c0.055,0.265-0.074,0.295-0.253,0.231C40.972,125.437,52.564,129,64.998,129
		c19.461,0,36.876-8.71,48.602-22.432C113.285,106.802,112.933,106.986,112.745,107.063z M51.307,71.271
		c0.201,0.754-0.769,0.804-1.556,0.628c-0.796-0.188-2.639-1.02-3.33-1.245c-0.487-0.162-1.649-0.631-2.249-1.173
		c-0.251,0.192-1.542,1.153-3.288,1.52c-1.843,0.397-3.299,0.794-4.01,0.193c-0.584-0.484,0.259-0.876,1.038-1.25
		c0.766-0.369,2.619-0.738,3.338-1.003c0.675-0.262,2.509-1.462,2.963-0.925c0.595,0.146,2.228,0.548,3.629,0.897
		C49.58,69.343,51.064,70.373,51.307,71.271z M50.635,63.434c0.297,0.727-0.664,0.897-1.468,0.814
		c-0.807-0.082-2.734-0.683-3.453-0.814c-0.51-0.094-1.766-0.422-2.424-0.903c-0.236,0.239-1.377,1.332-3.067,1.916
		c-1.776,0.634-3.167,1.189-3.943,0.699c-0.652-0.418,0.135-0.908,0.854-1.371c0.73-0.468,2.525-1.068,3.187-1.421
		c0.652-0.342,2.385-1.837,2.875-1.253c0.619,0.069,2.282,0.262,3.698,0.433C48.677,61.748,50.287,62.574,50.635,63.434z
		 M49.511,55.304c0.348,0.688-0.575,0.937-1.398,0.926c-0.818-0.006-2.773-0.457-3.503-0.529c-0.534-0.058-1.931-0.297-2.594-0.76
		c-0.477,0.716-2.014,1.185-2.569,1.509c-0.652,0.402-2.264,1.702-3.013,2.065c-0.749,0.358-1.553,0.766-1.259-0.198
		c0.366-1.156,1.65-2.093,3.264-3.382c1.699-1.354,3.263-1.586,3.263-1.586s0.124,0.056,0.245,0.242
		c0.664,0.022,2.294,0.072,3.688,0.116C47.41,53.768,49.09,54.467,49.511,55.304z M46.468,49.499
		c-0.812,0.072-2.819-0.154-3.549-0.154c-0.54,0-1.941-0.093-2.652-0.49c-0.355,0.725-1.757,1.449-2.23,1.851
		c-0.575,0.474-1.919,1.938-2.583,2.401c-0.661,0.463-1.36,0.991-1.197,0.077c0.182-1.085,1.285-2.17,2.638-3.618
		c1.43-1.526,2.878-2.038,2.878-2.038s0.024,0.008,0.038,0.011c0.27-0.02,2.255-0.168,3.916-0.281
		c1.784-0.132,3.53,0.385,4.028,1.167C48.187,49.075,47.277,49.428,46.468,49.499z M44.466,42.764
		c-0.798,0.126-2.822,0.044-3.541,0.093c-0.573,0.044-2.096,0.044-2.786-0.358c-0.317,0.738-1.634,1.542-2.079,1.972
		c-0.529,0.518-1.773,2.082-2.398,2.588c-0.634,0.512-1.298,1.074-1.201,0.154c0.107-1.09,1.135-2.247,2.371-3.794
		c1.324-1.625,2.727-2.236,2.727-2.236s0.082,0.02,0.185,0.083c0.468-0.069,2.299-0.336,3.824-0.545
		c1.784-0.248,3.553,0.138,4.105,0.881C46.154,42.224,45.271,42.631,44.466,42.764z M43.015,35.35
		c0.529,0.545-0.278,1.036-1.035,1.25c-0.757,0.22-2.696,0.363-3.387,0.496c-0.578,0.11-2.179,0.303-2.831-0.083
		c-0.132,0.754-1.556,1.616-2.026,2.06c-0.507,0.49-1.678,1.978-2.272,2.457c-0.595,0.485-1.228,1.024-1.14,0.154
		c0.102-1.046,1.071-2.148,2.244-3.613c1.256-1.548,2.592-2.126,2.592-2.126s0.044,0.011,0.102,0.036
		c-0.006-0.014-0.006-0.014-0.006-0.014s2.041-0.551,3.721-0.997C40.646,34.524,42.393,34.7,43.015,35.35z M39.091,30.036
		c0.49,0.396-0.115,0.892-0.729,1.157c-0.604,0.253-2.206,0.578-2.762,0.76c-0.502,0.16-1.893,0.479-2.412,0.132
		c0.055,0.702-1.386,1.553-1.82,1.977c-0.46,0.44-1.507,1.768-2.035,2.203c-0.529,0.435-1.102,0.92-1.017,0.138
		c0.086-0.937,0.95-1.928,2.008-3.238c1.121-1.383,2.318-1.9,2.318-1.9s0.056,0.017,0.124,0.052c0.201-0.08,1.666-0.674,2.93-1.181
		C37.048,29.589,38.505,29.562,39.091,30.036z M19.649,23.372c-0.471,0.413-0.958,0.87-0.9,0.308
		c0.066-0.683,0.815-1.553,1.716-2.688c0.98-1.195,2.026-1.795,2.026-1.795s0.107-0.011,0.231,0.055
		c0.229-0.143,1.047-0.664,1.773-1.118c0.834-0.534,1.768-0.82,2.159-0.677c0.327,0.126-0.058,0.496-0.422,0.749
		c-0.383,0.237-1.393,0.705-1.745,0.897c-0.301,0.166-1.138,0.573-1.493,0.515c0.127,0.471-1.189,1.404-1.578,1.792
		C21.023,21.813,20.112,22.958,19.649,23.372z M21.792,25.74c-0.501,0.391-1.038,0.821-0.953,0.176
		c0.119-0.76,0.942-1.63,1.95-2.765c0.799-0.895,1.627-1.399,1.996-1.595c-0.008-0.008-0.02-0.024-0.02-0.024
		s1.286-0.826,2.341-1.493s2.226-1.024,2.716-0.837c0.413,0.154-0.059,0.623-0.537,0.931c-0.482,0.308-1.746,0.892-2.179,1.14
		c-0.316,0.179-1.132,0.579-1.66,0.664c0.011,0.033,0.027,0.052,0.038,0.091c0.144,0.578-1.313,1.404-1.745,1.79
		C23.307,24.208,22.302,25.354,21.792,25.74z M23.959,28.995c0.027-0.821,0.807-1.79,1.746-3.051
		c0.997-1.338,2.102-1.922,2.102-1.922s0.074,0.005,0.168,0.049c0.324-0.154,1.451-0.686,2.434-1.151
		c1.162-0.545,2.407-0.749,2.878-0.501c0.394,0.204-0.135,0.617-0.652,0.87c-0.537,0.259-1.9,0.683-2.38,0.875
		c-0.374,0.149-1.354,0.493-1.883,0.465c0.168,0.617-1.223,1.556-1.631,1.985c-0.41,0.435-1.333,1.713-1.82,2.154
		C24.438,29.204,23.912,29.688,23.959,28.995z M26.138,32.767c0.008-0.936,0.784-1.999,1.727-3.398
		c0.997-1.476,2.15-2.093,2.15-2.093s0.069,0.011,0.16,0.055c0.528-0.212,1.704-0.688,2.709-1.096
		c1.344-0.534,2.781-0.639,3.341-0.248c0.448,0.319-0.165,0.788-0.771,1.035c-0.611,0.253-2.194,0.617-2.762,0.804
		c-0.405,0.138-1.479,0.43-2.109,0.361c-0.05,0.686-1.22,1.567-1.595,1.991c-0.421,0.474-1.344,1.889-1.845,2.368
		C26.655,33.026,26.129,33.544,26.138,32.767z M34.035,118.514c-0.451-0.303-1.468-1.311-1.856-1.619
		c-0.283-0.229-0.978-0.859-1.271-1.377c-0.116,0.03-0.777,0.174-1.633-0.242c-0.89-0.424-1.592-0.716-1.9-1.354
		c-0.237-0.535,0.182-0.474,0.567-0.419c0.385,0.05,1.277,0.495,1.622,0.589c0.316,0.072,1.123,0.02,1.379,0.43
		c0.003-0.017,0.006-0.021,0.006-0.021s1.217,0.854,2.214,1.553c0.991,0.705,1.793,1.752,1.856,2.412
		C35.076,119.015,34.495,118.827,34.035,118.514z M36.789,116.696c-0.452-0.363-1.401-1.481-1.776-1.834
		c-0.275-0.259-0.917-0.953-1.153-1.515c-0.207,0.027-0.92,0.077-1.743-0.391c-0.92-0.513-1.652-0.87-1.873-1.559
		c-0.182-0.567,0.278-0.469,0.702-0.386c0.41,0.082,1.322,0.616,1.707,0.743c0.322,0.113,1.231,0.118,1.454,0.56
		c0.121,0.099,1.221,0.994,2.153,1.759c0.978,0.81,1.681,1.956,1.631,2.655C37.854,117.302,37.237,117.055,36.789,116.696z
		 M40.817,113.777c-0.628-0.363-1.99-1.575-2.522-1.95c-0.366-0.259-1.22-0.947-1.63-1.574c-0.396,0.071-1.192,0.148-2.123-0.215
		c-1.226-0.474-2.217-0.788-2.592-1.604c-0.306-0.666,0.289-0.622,0.838-0.589c0.545,0.033,1.784,0.528,2.274,0.622
		c0.468,0.077,1.765-0.102,2.002,0.537c0.548,0.33,1.707,1.03,2.704,1.645c1.363,0.826,2.412,2.114,2.45,2.979
		C42.249,114.345,41.448,114.146,40.817,113.777z M43.414,110.583c-0.688-0.386-2.184-1.675-2.768-2.071
		c-0.396-0.275-1.321-1.002-1.773-1.668c-0.418,0.088-1.341,0.203-2.393-0.188c-1.371-0.501-2.465-0.832-2.858-1.702
		c-0.336-0.722,0.328-0.678,0.931-0.649c0.614,0.021,1.967,0.556,2.515,0.649c0.487,0.074,1.801-0.099,2.147,0.469
		c0.551,0.316,1.917,1.112,3.081,1.795c1.493,0.876,2.644,2.258,2.672,3.184C45.003,111.178,44.105,110.974,43.414,110.583z
		 M47.047,105.632c-0.711-0.336-2.286-1.525-2.897-1.89c-0.416-0.245-1.388-0.914-1.878-1.553c-0.097,0.041-1.515,0.601-3.188,0.313
		c-1.642-0.27-2.955-0.424-3.418-1.238c-0.394-0.678,0.413-0.755,1.154-0.832c0.738-0.077,2.388,0.221,3.048,0.221
		c0.598-0.006,2.316-0.477,2.677,0.104c0.575,0.289,1.975,0.985,3.178,1.586c1.545,0.776,2.773,2.082,2.869,3.007
		C48.657,106.122,47.754,105.968,47.047,105.632z M48.495,99.634c-0.716-0.341-2.294-1.531-2.902-1.895
		c-0.413-0.239-1.366-0.893-1.862-1.522c-0.247,0.094-1.547,0.554-3.125,0.289c-1.639-0.275-2.952-0.419-3.412-1.239
		c-0.385-0.683,0.419-0.749,1.157-0.832c0.74-0.077,2.373,0.227,3.034,0.221c0.625-0.006,2.432-0.501,2.712,0.162
		c0.637,0.317,1.941,0.967,3.062,1.534c1.548,0.776,2.784,2.082,2.867,3.007C50.104,100.124,49.2,99.98,48.495,99.634z
		 M49.646,93.107c-0.776-0.27-2.503-1.305-3.178-1.597c-0.418-0.188-1.377-0.691-1.949-1.236c-0.471,0.2-1.713,0.657-3.181,0.575
		c-1.757-0.104-3.158-0.11-3.685-0.887c-0.443-0.639,0.402-0.804,1.179-0.964c0.787-0.154,2.533-0.027,3.235-0.104
		c0.672-0.069,2.627-0.796,2.902-0.086c0.744,0.273,1.997,0.728,3.093,1.127c1.68,0.622,3.06,1.795,3.194,2.721
		C51.373,93.422,50.414,93.372,49.646,93.107z M50.241,86.074c-0.777-0.231-2.553-1.184-3.233-1.448
		c-0.46-0.182-1.545-0.696-2.126-1.261c-0.289,0.198-1.625,1.057-3.362,1.315c-1.884,0.281-3.351,0.573-4.021-0.061
		c-0.556-0.528,0.306-0.864,1.102-1.184c0.807-0.325,2.669-0.578,3.398-0.799c0.68-0.209,2.539-1.27,3.001-0.766
		c0.614,0.193,2.182,0.684,3.525,1.107c1.707,0.528,3.125,1.652,3.31,2.572C51.998,86.312,51.028,86.3,50.241,86.074z
		 M50.646,79.422c-0.807-0.183-2.641-1.02-3.321-1.239c-0.504-0.163-1.713-0.647-2.299-1.212c-0.348,0.259-1.584,1.129-3.247,1.481
		c-1.842,0.391-3.302,0.782-4.012,0.182c-0.584-0.484,0.259-0.876,1.027-1.245c0.776-0.374,2.629-0.737,3.34-1.002
		c0.71-0.27,2.734-1.619,3.051-0.837c0.003,0.005,0,0.008,0.003,0.014c0.652,0.162,2.209,0.548,3.536,0.884
		c1.746,0.424,3.235,1.454,3.475,2.357C52.399,79.56,51.438,79.604,50.646,79.422z M112.109,35.339
		c0.466-0.529,1.639-0.766,2.71-0.518c1.011,0.231,2.188,0.518,2.338,0.553c0.055-0.047,0.102-0.069,0.102-0.069
		s0.953,0.27,1.851,1.366c0.834,1.057,1.525,1.845,1.595,2.709c0.063,0.727-0.386,0.347-0.81,0.022
		c-0.425-0.336-1.253-1.41-1.631-1.74c-0.344-0.325-1.476-0.868-1.432-1.526c-0.407,0.413-1.531,0.35-1.936,0.287
		c-0.443-0.072-1.719-0.088-2.206-0.209C112.206,36.088,111.721,35.769,112.109,35.339z M108.983,40.555
		c0.49-0.649,1.884-1.062,3.217-0.925c1.339,0.143,2.969,0.336,2.969,0.336s0,0.005-0.006,0.024c0.05-0.036,0.088-0.052,0.088-0.052
		s1.066,0.331,2.063,1.57c0.933,1.189,1.707,2.093,1.795,3.04c0.069,0.799-0.44,0.369-0.917-0.017
		c-0.474-0.369-1.404-1.592-1.814-1.972c-0.386-0.35-1.589-0.98-1.586-1.677c-0.455,0.498-1.804,0.573-2.283,0.553
		c-0.548-0.022-2.093,0.127-2.704,0.039C109.201,41.397,108.565,41.089,108.983,40.555z M106.863,46.172
		c0.443-0.688,1.854-1.223,3.274-1.217c1.22,0.011,2.683,0.036,3.051,0.044c0.08-0.066,0.146-0.094,0.146-0.094
		s1.12,0.38,2.17,1.702c0.988,1.283,1.81,2.236,1.889,3.227c0.086,0.826-0.446,0.369-0.952-0.055
		c-0.499-0.407-1.49-1.702-1.909-2.109c-0.371-0.355-1.435-0.961-1.641-1.605c-0.515,0.462-1.766,0.642-2.244,0.664
		c-0.579,0.027-2.184,0.308-2.823,0.286C107.183,46.988,106.48,46.734,106.863,46.172z M105.2,52.016
		c0.396-0.677,1.796-1.245,3.208-1.272c1.347-0.036,2.96-0.058,3.145-0.061c0.003,0,0.014-0.005,0.014-0.005
		s0.015,0.005,0.017,0.005h0.006v0.003c0.061,0.019,1.17,0.361,2.277,1.578c1.077,1.212,1.952,2.126,2.104,3.096
		c0.127,0.82-0.429,0.369-0.958-0.017c-0.528-0.392-1.603-1.619-2.062-2.005c-0.386-0.33-1.481-0.884-1.74-1.503
		c-0.554,0.41-1.713,0.592-2.156,0.622c-0.575,0.05-2.176,0.364-2.82,0.358C105.58,52.81,104.858,52.583,105.2,52.016z
		 M103.802,57.728c0.333-0.694,1.671-1.327,3.092-1.443c1.121-0.099,2.427-0.212,2.944-0.256c0.096-0.16,0.192-0.212,0.192-0.212
		s1.25,0.138,2.603,1.261c1.286,1.085,2.311,1.895,2.6,2.925c0.236,0.864-0.408,0.501-0.997,0.192
		c-0.605-0.313-1.887-1.426-2.409-1.768c-0.449-0.272-1.652-0.655-2.014-1.27c-0.509,0.438-1.663,0.694-2.101,0.763
		c-0.578,0.083-2.143,0.507-2.795,0.534C104.264,58.481,103.526,58.312,103.802,57.728z M102.9,64.331
		c0.281-0.699,1.567-1.35,2.985-1.515c1.121-0.135,2.429-0.281,2.938-0.339c0.374-0.528,1.781,0.785,2.308,1.088
		c0.531,0.319,1.955,0.87,2.533,1.294s1.212,0.882,0.691,1.233c-0.625,0.419-1.735-0.115-3.147-0.704
		c-1.344-0.543-2.264-1.498-2.451-1.702c-0.523,0.396-1.525,0.652-1.933,0.727c-0.567,0.094-2.104,0.557-2.751,0.601
		C103.43,65.063,102.67,64.903,102.9,64.331z M105.137,68.886c1.156-0.229,2.471-0.496,2.895-0.584
		c0.369-0.421,1.825,0.675,2.359,0.925c0.573,0.265,2.052,0.688,2.663,1.053c0.62,0.374,1.297,0.766,0.826,1.167
		c-0.567,0.479-1.732,0.044-3.197-0.413c-1.407-0.43-2.437-1.318-2.627-1.492c-0.479,0.424-1.401,0.752-1.795,0.859
		c-0.548,0.148-2.014,0.716-2.646,0.81c-0.637,0.099-1.402-0.012-1.245-0.606C102.557,69.899,103.746,69.149,105.137,68.886z
		 M101.656,76.558c0.192-0.694,1.382-1.377,2.771-1.559c1.071-0.148,2.31-0.336,2.822-0.413c0.003-0.003,0.003-0.003,0.003-0.006
		c0.256-0.628,1.869,0.688,2.435,0.986c0.564,0.286,2.037,0.782,2.659,1.184c0.617,0.402,1.289,0.826,0.821,1.201
		c-0.564,0.451-1.724-0.05-3.197-0.578c-1.327-0.477-2.318-1.339-2.591-1.589c-0.472,0.412-1.436,0.696-1.832,0.779
		c-0.542,0.109-2.005,0.6-2.646,0.66C102.268,77.279,101.496,77.136,101.656,76.558z M101.948,81.988
		c0.148-0.705,1.28-1.416,2.644-1.614c1.096-0.188,2.352-0.394,2.812-0.471c0.374-0.355,1.842,0.76,2.388,1.032
		c0.581,0.281,2.07,0.744,2.707,1.141c0.644,0.386,1.33,0.804,0.884,1.189c-0.531,0.463-1.71-0.006-3.208-0.512
		c-1.386-0.463-2.448-1.372-2.683-1.581c-0.463,0.394-1.327,0.672-1.693,0.76c-0.543,0.121-1.958,0.645-2.58,0.716
		C102.598,82.715,101.815,82.577,101.948,81.988z M102.408,87.782c0.109-0.711,1.214-1.421,2.547-1.636
		c0.893-0.146,1.881-0.317,2.47-0.416c0.21-0.554,1.771,0.383,2.308,0.554c0.562,0.182,1.961,0.368,2.584,0.627
		c0.622,0.275,1.294,0.557,0.938,1.047c-0.421,0.595-1.534,0.353-2.936,0.132c-1.182-0.192-2.173-0.804-2.539-1.052
		c-0.457,0.358-1.217,0.611-1.559,0.688c-0.528,0.127-1.911,0.655-2.522,0.728C103.085,88.52,102.317,88.377,102.408,87.782z
		 M103.391,93.449c0.066-0.738,1.058-1.531,2.286-1.845c0.972-0.257,2.09-0.557,2.536-0.678c0.333-0.347,1.6,0.309,2.07,0.43
		c0.523,0.138,1.829,0.198,2.415,0.413c0.596,0.22,1.239,0.435,0.92,0.969c-0.363,0.623-1.409,0.479-2.715,0.375
		c-1.28-0.11-2.344-0.799-2.509-0.912c-0.396,0.427-1.14,0.782-1.468,0.896c-0.484,0.176-1.743,0.804-2.315,0.925
		C104.052,94.132,103.333,94.05,103.391,93.449z M104.539,98.676c0.072-0.732,1.052-1.492,2.286-1.757
		c1.134-0.254,2.45-0.564,2.671-0.617c0.421-0.198,1.562,0.443,1.996,0.567c0.523,0.16,1.843,0.281,2.432,0.528
		c0.587,0.237,1.234,0.49,0.92,1.009c-0.369,0.616-1.421,0.429-2.718,0.275c-1.366-0.174-2.52-1.024-2.569-1.063
		c-0.391,0.421-1.148,0.755-1.481,0.864c-0.484,0.149-1.737,0.738-2.302,0.832C105.206,99.402,104.487,99.293,104.539,98.676z
		 M107.423,103.869c0.027-0.771,0.938-1.613,2.131-1.949c0.95-0.281,2.046-0.609,2.459-0.732c0.284-0.399,1.327,0.091,1.713,0.153
		c0.433,0.062,1.515-0.071,2.008,0.066c0.477,0.127,1.005,0.259,0.74,0.832c-0.319,0.677-1.189,0.688-2.279,0.766
		c-0.849,0.065-1.598-0.295-1.928-0.485c-0.361,0.46-1.08,0.846-1.396,0.97c-0.463,0.176-1.657,0.859-2.206,0.985
		C108.111,104.602,107.397,104.503,107.423,103.869z"/>
</g>
</svg>
