<?xml version="1.0" encoding="utf-8"?>
<!-- Generator: Adobe Illustrator 16.0.0, SVG Export Plug-In . SVG Version: 6.00 Build 0)  -->
<!DOCTYPE svg PUBLIC "-//W3C//DTD SVG 1.1//EN" "http://www.w3.org/Graphics/SVG/1.1/DTD/svg11.dtd">
<svg version="1.1" id="Layer_1" xmlns="http://www.w3.org/2000/svg" xmlns:xlink="http://www.w3.org/1999/xlink" x="0px" y="0px"
	 width="130px" height="130px" viewBox="0 0 130 130" enable-background="new 0 0 130 130" xml:space="preserve">
<rect fill="none" width="130" height="130"/>
<g>
	<g>
		<path fill="#4D4D4D" d="M64.997,1C29.739,1,1.053,29.712,1.053,65.003C1.053,100.29,29.739,129,64.997,129
			c35.262,0,63.95-28.71,63.95-63.997C128.947,29.712,100.259,1,64.997,1z M23.126,109.714C11.208,98.531,3.753,82.643,3.753,65.003
			c0-8.81,1.87-17.181,5.214-24.756l99.944-17.957c10.722,11.041,17.334,26.102,17.334,42.713c0,9.827-2.32,19.106-6.43,27.341
			L23.126,109.714z"/>
		<g>
			<path fill="#4D4D4D" d="M77.17,62.481c-0.826-4.283-2.388-6.22-4.658-5.782c-2.271,0.433-3.004,2.812-2.176,7.101l0.398,2.073
				c0.822,4.283,2.384,6.193,4.655,5.755c1.65-0.316,2.477-1.608,2.531-3.888c0.019-0.817-0.097-1.867-0.351-3.186L77.17,62.481z"/>
			<path fill="#4D4D4D" d="M92.401,59.591c-3.117-13.257-16.387-21.475-29.644-18.358C49.505,44.351,41.286,57.617,44.4,70.874
				c3.115,13.256,16.388,21.475,29.644,18.357C87.298,86.119,95.517,72.847,92.401,59.591z M64.802,76.724l-2.748,0.527
				c-0.364,0.069-0.596-0.089-0.667-0.453L58.24,60.461l-3.089,1.762c-0.105,0.048-0.214,0.101-0.327,0.116
				c-0.197,0.037-0.329-0.048-0.372-0.274l-0.524-2.717c-0.032-0.169,0.003-0.29,0.137-0.348l4.281-2.512
				c0.182-0.121,0.4-0.189,0.625-0.231l1.846-0.359c0.364-0.068,0.564,0.069,0.636,0.433l3.801,19.724
				C65.322,76.418,65.163,76.65,64.802,76.724z M75.999,74.793c-4.875,0.944-7.929-1.783-9.161-8.171l-0.397-2.073
				c-1.237-6.414,0.588-10.075,5.462-11.015c4.874-0.944,7.926,1.783,9.163,8.198l0.398,2.073
				C82.695,70.193,80.873,73.859,75.999,74.793z"/>
		</g>
	</g>
</g>
</svg>
