<?xml version="1.0" encoding="utf-8"?>
<!-- Generator: Adobe Illustrator 16.0.0, SVG Export Plug-In . SVG Version: 6.00 Build 0)  -->
<!DOCTYPE svg PUBLIC "-//W3C//DTD SVG 1.1//EN" "http://www.w3.org/Graphics/SVG/1.1/DTD/svg11.dtd">
<svg version="1.1" id="Layer_1" xmlns="http://www.w3.org/2000/svg" xmlns:xlink="http://www.w3.org/1999/xlink" x="0px" y="0px"
	 width="130px" height="130px" viewBox="0 0 130 130" enable-background="new 0 0 130 130" xml:space="preserve">
<rect fill="none" width="130" height="130"/>
<g>
	<polygon fill="#4D4D4D" points="120.761,1 77.936,58.229 46.354,46.756 82.334,1 	"/>
	<polygon fill="#4D4D4D" points="9.239,1 52.059,58.229 83.64,46.756 47.66,1 	"/>
	<path fill="#4D4D4D" d="M65.003,41.809c-24.075,0-43.599,19.518-43.599,43.599c0,24.075,19.523,43.593,43.599,43.593
		s43.593-19.518,43.593-43.593C108.596,61.326,89.078,41.809,65.003,41.809z M65.003,113.561c-15.525,0-28.153-12.628-28.153-28.153
		c0-15.527,12.628-28.159,28.153-28.159S93.156,69.88,93.156,85.407C93.156,100.933,80.528,113.561,65.003,113.561z"/>
	<path fill="#4D4D4D" d="M65.003,62.697c-12.52,0-22.704,10.188-22.704,22.71c0,12.52,10.185,22.704,22.704,22.704
		s22.704-10.185,22.704-22.704C87.707,72.885,77.522,62.697,65.003,62.697z"/>
</g>
</svg>
