<?xml version="1.0" encoding="utf-8"?>
<!-- Generator: Adobe Illustrator 16.0.0, SVG Export Plug-In . SVG Version: 6.00 Build 0)  -->
<!DOCTYPE svg PUBLIC "-//W3C//DTD SVG 1.1//EN" "http://www.w3.org/Graphics/SVG/1.1/DTD/svg11.dtd">
<svg version="1.1" id="Layer_1" xmlns="http://www.w3.org/2000/svg" xmlns:xlink="http://www.w3.org/1999/xlink" x="0px" y="0px"
	 width="130px" height="130px" viewBox="0 0 130 130" enable-background="new 0 0 130 130" xml:space="preserve">
<rect fill="none" width="130" height="130"/>
<g>
	<g>
		<path fill="#4D4D4D" d="M75.844,29.759c0.649,0.078,1.288,0.174,1.932,0.265C77.13,29.935,76.495,29.835,75.844,29.759z"/>
		<path fill="#4D4D4D" d="M70.051,29.266c0.445,0.026,0.89,0.05,1.331,0.08C70.938,29.315,70.496,29.29,70.051,29.266z"/>
		<path fill="#4D4D4D" d="M31.289,41.641c-1.573,11.689-2.013,29.05-1.971,39.257c10.153,4.447,22.416,7.727,35.686,7.727
			c13.876,0,26.397-3.622,36.604-8.402c-0.401-10.299-0.664-27.461-2.177-38.812C71.241,35.431,47.353,37.984,31.289,41.641z
			 M86.651,48.833c-3.369-1.352-7.351-1.308-9.429-0.79c-12.574,3.143-21.101-0.225-23.346-0.786
			c-2.247-0.561-4.891,0.397-8.867,1.464c-9.651,2.573-13.356-3.26-13.356-3.26c7.407-7.961,31.765-6.839,35.691-6.955
			c25.814-0.786,31.649,6.73,31.649,6.73C97.421,48.94,90.017,50.18,86.651,48.833z"/>
		<path fill="#4D4D4D" d="M107.824,39.544c0.882,0.459,1.739,0.926,2.573,1.399C109.563,40.468,108.704,40.005,107.824,39.544z"/>
		<path fill="#4D4D4D" d="M48.84,30.667c0.942-0.181,1.895-0.345,2.854-0.497C50.732,30.322,49.782,30.486,48.84,30.667z"/>
		<path fill="#4D4D4D" d="M111.081,44.322c1.265,9.101,0.91,22.714,0.625,30.394c9.96-6.282,16.164-12.955,16.974-15.93l0.215,0.061
			c0.002,0.016,0.006,0.023,0.012,0.04c0.022,0.1,0.078,0.204,0.094,0.305c-0.008-0.053-0.029-0.11-0.04-0.162
			c-0.132-1.401-0.729-2.54-1.619-3.73c-1.766-2.804-4.869-5.989-9.014-9.15c0.305,0.241,0.613,0.479,0.916,0.72
			C116.489,45.926,113.775,45.099,111.081,44.322z"/>
		<path fill="#4D4D4D" d="M61.725,29.176c1.084-0.043,2.177-0.066,3.279-0.066C63.901,29.109,62.809,29.133,61.725,29.176z"/>
		<path fill="#4D4D4D" d="M52.013,30.117c0.882-0.136,1.776-0.254,2.674-0.364C53.789,29.863,52.896,29.983,52.013,30.117z"/>
		<path fill="#4D4D4D" d="M58.459,29.368c0.822-0.064,1.651-0.108,2.483-0.148C60.11,29.26,59.281,29.304,58.459,29.368z"/>
		<path fill="#4D4D4D" d="M55.222,29.683c0.836-0.097,1.682-0.177,2.53-0.249C56.901,29.506,56.058,29.586,55.222,29.683z"/>
		<path fill="#4D4D4D" d="M19.962,44.024c0.126-0.984,0.263-1.935,0.425-2.801c-4.181,2.401-7.795,4.931-10.733,7.366
			c0.627-0.517,1.311-1.04,1.996-1.569C13.481,46.263,16.304,45.187,19.962,44.024z"/>
		<path fill="#4D4D4D" d="M1.333,58.847c0.307,3.407,7.166,10.591,18.176,17.052c-0.299-7.593-0.741-21.588,0.363-31.15
			c-6.09,1.954-9.718,3.636-10.319,3.924c-4.453,3.707-7.348,7.182-8.28,9.619c-0.122,0.312-0.22,0.615-0.272,0.9
			c0.021-0.101,0.089-0.225,0.118-0.325L1.333,58.847z"/>
		<path fill="#4D4D4D" d="M65.004,89.289c-33.488,0-59.672-19.863-63.759-28.574C1.122,60.174,1,59.636,1,59.191
			c0,9.637,28.663,41.699,64.004,41.699c35.346,0,63.996-32.09,63.996-41.495c0,0.141-0.065,0.329-0.078,0.478
			C125.305,67.385,99.219,89.289,65.004,89.289z"/>
		<path fill="#4D4D4D" d="M129,59.191c-0.004,0.012-0.023,0.04-0.025,0.056C128.977,59.3,129,59.344,129,59.396
			c-0.002-0.054-0.014-0.104-0.016-0.158C128.988,59.224,128.996,59.205,129,59.191z"/>
		<path fill="#4D4D4D" d="M31.383,40.947c16.104-3.632,39.906-6.144,67.948-0.246c-0.284-2.021-0.607-3.863-0.986-5.402
			c3.273,1.247,6.338,2.626,9.175,4.089c-7.631-3.95-16.939-7.284-27.391-9.006c4.155,0.695,8.14,1.634,11.91,2.772
			c2.696,2.722,5.063,6.281,4.357,6.069c-33.982-10.319-62.394,0.148-62.394,0.148c0.443-1.371,3.068-4.49,5.859-6.503
			c2.853-0.854,5.816-1.591,8.877-2.183c-10.785,2.074-20.341,5.981-28.021,10.349c3.496-1.984,7.408-3.856,11.623-5.523
			C31.982,37.085,31.668,38.935,31.383,40.947z"/>
		<path fill="#4D4D4D" d="M117.607,45.613c-2.119-1.567-4.49-3.114-7.104-4.61c0.176,0.798,0.326,1.676,0.467,2.586
			C113.164,44.217,115.372,44.876,117.607,45.613z"/>
		<path fill="#4D4D4D" d="M20.389,41.216c0,0.002,0,0.006-0.002,0.008c0.11-0.062,0.221-0.126,0.331-0.188
			C20.611,41.096,20.495,41.155,20.389,41.216z"/>
		<path fill="#4D4D4D" d="M107.52,39.388c0.102,0.052,0.204,0.104,0.305,0.156C107.724,39.492,107.621,39.439,107.52,39.388z"/>
		<path fill="#4D4D4D" d="M110.502,40.999c-0.034-0.02-0.07-0.038-0.104-0.056c0.036,0.02,0.07,0.04,0.106,0.06
			C110.502,41.003,110.502,41.001,110.502,40.999z"/>
		<path fill="#4D4D4D" d="M19.525,76.329c3.271,1.948,5.83,3.323,9.793,5.022c0-0.144,0-0.309,0-0.454
			c-3.546-1.554-6.827-3.25-9.81-4.999C19.515,76.036,19.52,76.192,19.525,76.329z"/>
		<path fill="#4D4D4D" d="M101.616,80.466c4.005-1.848,6.812-3.255,10.074-5.323c0.004-0.135,0.01-0.289,0.016-0.427
			c-3.03,1.912-6.418,3.782-10.098,5.506C101.61,80.3,101.612,80.388,101.616,80.466z"/>
		<path fill="#4D4D4D" d="M9.543,48.677c0.002,0,0.008-0.005,0.01-0.005c0.032-0.027,0.068-0.056,0.101-0.082
			C9.617,48.618,9.577,48.648,9.543,48.677z"/>
		<path fill="#4D4D4D" d="M117.672,45.634c-0.022-0.008-0.045-0.013-0.064-0.021c0.24,0.179,0.485,0.357,0.72,0.535
			C118.11,45.979,117.9,45.806,117.672,45.634z"/>
		<path fill="#4D4D4D" d="M31.383,40.947c-4.409,0.994-8.237,2.066-11.421,3.077c-0.03,0.24-0.062,0.477-0.09,0.724
			c3.163-1.017,6.989-2.101,11.417-3.107C31.319,41.406,31.352,41.174,31.383,40.947z"/>
		<path fill="#4D4D4D" d="M111.081,44.322c-0.034-0.248-0.072-0.488-0.11-0.733c-3.95-1.126-7.835-2.089-11.64-2.888
			c0.034,0.234,0.068,0.469,0.101,0.709C103.24,42.218,107.124,43.185,111.081,44.322z"/>
		<path fill="#4D4D4D" d="M51.694,30.17c0.106-0.017,0.21-0.036,0.318-0.053C51.904,30.136,51.801,30.153,51.694,30.17z"/>
		<path fill="#4D4D4D" d="M48.739,30.687c0.034-0.006,0.066-0.014,0.101-0.02C48.806,30.673,48.773,30.681,48.739,30.687z"/>
		<path fill="#4D4D4D" d="M71.382,29.346c1.505,0.104,2.994,0.24,4.462,0.413C74.376,29.584,72.885,29.452,71.382,29.346z"/>
		<path fill="#4D4D4D" d="M65.004,29.109c1.705,0,3.383,0.066,5.047,0.156C68.387,29.173,66.709,29.109,65.004,29.109z"/>
		<path fill="#4D4D4D" d="M77.775,30.023c0.79,0.11,1.573,0.232,2.354,0.358C79.352,30.254,78.565,30.136,77.775,30.023z"/>
		<path fill="#4D4D4D" d="M60.942,29.22c0.261-0.015,0.52-0.034,0.782-0.044C61.462,29.186,61.203,29.205,60.942,29.22z"/>
		<path fill="#4D4D4D" d="M54.687,29.753c0.179-0.022,0.355-0.049,0.535-0.07C55.042,29.704,54.865,29.73,54.687,29.753z"/>
		<path fill="#4D4D4D" d="M57.752,29.434c0.236-0.02,0.469-0.048,0.707-0.065C58.221,29.386,57.988,29.414,57.752,29.434z"/>
		<path fill="#4D4D4D" d="M96.868,41.34c-0.365-1.318-1.706-2.67-2.981-3.011c-1.188-0.349-2.365-0.629-3.541-0.926l-0.565-2.017
			c-0.271-0.941-1.148-1.712-1.961-1.712h-0.302c-0.814,0-1.293,0.771-1.062,1.712l0.284,1.187
			c-1.086-0.229-2.173-0.465-3.245-0.649l-0.278-1.354c-0.192-0.942-1.011-1.712-1.82-1.712h-0.293c-0.808,0-1.339,0.77-1.181,1.712
			l0.141,0.842c-1.046-0.145-2.091-0.289-3.119-0.393l-0.164-1.263c-0.128-0.946-0.88-1.712-1.676-1.712h-0.297
			c-0.795,0-1.377,0.766-1.288,1.712l0.086,0.941c-1.036-0.076-2.045-0.12-3.053-0.172l-0.088-1.527
			c-0.053-0.942-0.74-1.708-1.531-1.708h-0.291c-0.794,0-1.423,0.766-1.411,1.708l0.028,1.415c-1.03-0.021-2.045-0.032-3.037-0.021
			l0.024-1.331c0.016-0.941-0.619-1.707-1.405-1.707h-0.297c-0.788,0-1.479,0.766-1.531,1.707l-0.08,1.42
			c-1.046,0.04-2.061,0.092-3.053,0.156l0.082-0.882c0.086-0.946-0.491-1.712-1.289-1.712h-0.296c-0.796,0-1.55,0.766-1.674,1.712
			l-0.15,1.142c-1.068,0.097-2.117,0.209-3.105,0.325l0.11-0.653c0.156-0.942-0.375-1.712-1.183-1.712h-0.29
			c-0.814,0-1.628,0.77-1.822,1.712l-0.23,1.122c-1.158,0.177-2.221,0.357-3.213,0.537l0.206-0.842
			c0.23-0.941-0.246-1.712-1.064-1.712h-0.299c-0.817,0-1.691,0.771-1.96,1.712l-0.437,1.56c-2.237,0.493-3.643,0.89-3.907,0.954
			c-1.279,0.309-2.607,1.499-2.946,2.658c-0.272,0.974,0.271,1.623,1.255,1.64c0.194,0.008,0.406-0.021,0.629-0.064
			c0.064-0.016,1.436-0.36,3.74-0.813l-0.298,1.07c-0.265,0.941,0.262,1.708,1.178,1.708h0.337c0.92,0,1.853-0.767,2.081-1.708
			l0.417-1.724c1.034-0.165,2.143-0.329,3.357-0.485l-0.287,1.391c-0.194,0.946,0.383,1.712,1.295,1.712h0.333
			c0.906,0,1.777-0.766,1.938-1.712l0.303-1.808c1.036-0.108,2.137-0.204,3.261-0.293l-0.168,1.287
			c-0.125,0.942,0.513,1.712,1.411,1.712h0.328c0.9,0,1.704-0.77,1.79-1.712l0.139-1.507c1.048-0.053,2.12-0.093,3.217-0.121
			l-0.052,0.938c-0.055,0.938,0.627,1.708,1.527,1.708h0.324c0.895,0,1.636-0.77,1.649-1.708l0.021-0.998
			c1.048,0,2.116,0.012,3.205,0.036l0.016,0.897c0.019,0.942,0.76,1.708,1.65,1.708h0.328c0.898,0,1.577-0.766,1.525-1.708
			l-0.044-0.753c1.068,0.056,2.135,0.111,3.229,0.2l0.118,1.307c0.09,0.942,0.892,1.712,1.794,1.712h0.328
			c0.895,0,1.531-0.77,1.409-1.712l-0.13-0.982c1.09,0.116,2.187,0.269,3.295,0.417l0.232,1.379
			c0.158,0.946,1.028,1.712,1.937,1.712h0.331c0.914,0,1.489-0.766,1.297-1.712l-0.175-0.838c1.135,0.192,2.275,0.426,3.422,0.658
			l0.242,0.998c0.227,0.941,1.156,1.708,2.079,1.708h0.334c0.918,0,1.445-0.767,1.183-1.708l-0.042-0.141
			c1.114,0.272,2.219,0.518,3.338,0.83C96.393,43.429,97.219,42.651,96.868,41.34z"/>
	</g>
</g>
</svg>
