<?xml version="1.0" encoding="utf-8"?>
<!-- Generator: Adobe Illustrator 16.0.0, SVG Export Plug-In . SVG Version: 6.00 Build 0)  -->
<!DOCTYPE svg PUBLIC "-//W3C//DTD SVG 1.1//EN" "http://www.w3.org/Graphics/SVG/1.1/DTD/svg11.dtd">
<svg version="1.1" id="Layer_1" xmlns="http://www.w3.org/2000/svg" xmlns:xlink="http://www.w3.org/1999/xlink" x="0px" y="0px"
	 width="130px" height="130px" viewBox="0 0 130 130" enable-background="new 0 0 130 130" xml:space="preserve">
<rect fill="none" width="130" height="130"/>
<path fill="#4D4D4D" d="M64.998,1C29.678,1,1.057,29.66,1.057,65.006c0,35.34,28.621,63.994,63.941,63.994
	c35.318,0,63.945-28.654,63.945-63.994C128.943,29.66,100.316,1,64.998,1z M82.244,54.641c-2.354,3.409-7.021,4.269-10.434,1.917
	c-3.409-2.352-4.266-7.027-1.914-10.431c2.352-3.415,7.024-4.268,10.434-1.917C83.742,46.562,84.599,51.237,82.244,54.641z
	 M85.025,27.749c-1.949,2.831-5.827,3.541-8.654,1.591c-2.831-1.955-3.542-5.827-1.589-8.657c1.949-2.831,5.826-3.542,8.657-1.592
	C86.268,21.046,86.98,24.924,85.025,27.749z M108.032,41.572c-1.955,2.831-5.827,3.541-8.66,1.586
	c-2.828-1.95-3.539-5.827-1.589-8.657c1.955-2.826,5.829-3.542,8.663-1.586C109.271,34.864,109.984,38.741,108.032,41.572z"/>
</svg>
