<?xml version="1.0" encoding="utf-8"?>
<!-- Generator: Adobe Illustrator 16.0.0, SVG Export Plug-In . SVG Version: 6.00 Build 0)  -->
<!DOCTYPE svg PUBLIC "-//W3C//DTD SVG 1.1//EN" "http://www.w3.org/Graphics/SVG/1.1/DTD/svg11.dtd">
<svg version="1.1" id="Layer_1" xmlns="http://www.w3.org/2000/svg" xmlns:xlink="http://www.w3.org/1999/xlink" x="0px" y="0px"
	 width="130px" height="130px" viewBox="0 0 130 130" enable-background="new 0 0 130 130" xml:space="preserve">
<rect fill="none" width="130" height="130"/>
<g>
	<g>
		<path fill="#4D4D4D" d="M127.539,56.036c2.561-2.7,1.664-5.448-1.988-6.16l-31.805-6.065c-3.641-0.664-8.053-3.889-9.852-7.109
			L65.033,2.676l-18.91,34.026c-1.798,3.22-6.21,6.445-9.864,7.109L4.414,49.876c-3.604,0.712-4.498,3.459-1.988,6.16l22.13,23.459
			c2.563,2.701,4.222,7.917,3.795,11.566l-4.027,31.852c-0.479,3.645,1.891,5.406,5.256,3.834l29.342-13.646
			c3.367-1.566,8.808-1.566,12.171,0l29.346,13.646c3.363,1.572,5.729-0.189,5.258-3.834l-4.033-31.852
			c-0.467-3.649,1.232-8.865,3.799-11.566L127.539,56.036z"/>
	</g>
</g>
</svg>
