<?xml version="1.0" encoding="utf-8"?>
<!-- Generator: Adobe Illustrator 16.0.0, SVG Export Plug-In . SVG Version: 6.00 Build 0)  -->
<!DOCTYPE svg PUBLIC "-//W3C//DTD SVG 1.1//EN" "http://www.w3.org/Graphics/SVG/1.1/DTD/svg11.dtd">
<svg version="1.1" id="Layer_1" xmlns="http://www.w3.org/2000/svg" xmlns:xlink="http://www.w3.org/1999/xlink" x="0px" y="0px"
	 width="130px" height="130px" viewBox="0 0 130 130" enable-background="new 0 0 130 130" xml:space="preserve">
<rect fill="none" width="130" height="130"/>
<g>
	<g>
		<path fill="#4D4D4D" d="M27.876,8.92l2.146-2.142c0.828-0.826,0.828-2.159,0.008-2.983l-2.175-2.174
			c-0.825-0.827-2.164-0.827-2.984,0l-9.176,9.172c-0.828,0.825-0.828,2.164,0,2.988l2.17,2.171c0.822,0.824,2.169,0.824,2.989,0
			l2.153-2.153l0.331,0.5l7.438,7.392l6.608-3.482L28.366,9.24L27.876,8.92z"/>
		<path fill="#4D4D4D" d="M114.316,10.793l-9.174-9.172c-0.828-0.827-2.158-0.827-2.986,0L99.98,3.795
			c-0.824,0.824-0.824,2.157,0,2.983l2.145,2.142l-0.494,0.33l-8.951,8.979l6.6,3.488l7.406-7.425l0.326-0.489l2.145,2.149
			c0.828,0.824,2.168,0.824,2.996,0l2.164-2.171C115.145,12.957,115.145,11.618,114.316,10.793z"/>
	</g>
	<path fill="#4D4D4D" d="M65.009,1.815c-2.631,0-4.762,2.128-4.762,4.756v5.794l9.516-0.041V6.572
		C69.764,3.944,67.635,1.815,65.009,1.815z"/>
	<path fill="#4D4D4D" d="M64.999,8.815c-33.138,0-60.098,26.957-60.098,60.091c0,33.133,26.96,60.093,60.098,60.093
		c33.136,0,60.101-26.96,60.101-60.093C125.1,35.772,98.135,8.815,64.999,8.815z M64.999,121.788
		c-29.163,0-52.885-23.725-52.885-52.882c0-29.159,23.722-52.882,52.885-52.882c29.16,0,52.888,23.723,52.888,52.882
		C117.887,98.063,94.158,121.788,64.999,121.788z"/>
	<g>
		<path fill="#4D4D4D" d="M65.012,29.523c-0.839,0-1.513,0.679-1.513,1.516v34.825c0,0.833,0.674,1.513,1.513,1.513
			c0.837,0,1.515-0.68,1.515-1.513V31.039C66.527,30.203,65.849,29.523,65.012,29.523z"/>
		<path fill="#4D4D4D" d="M65.007,60.199c-4.373,0-7.932,3.559-7.932,7.932c0,4.375,3.559,7.931,7.932,7.931
			c4.372,0,7.93-3.556,7.93-7.931C72.938,63.758,69.379,60.199,65.007,60.199z"/>
	</g>
</g>
</svg>
