<?xml version="1.0" encoding="utf-8"?>
<!-- Generator: Adobe Illustrator 16.0.0, SVG Export Plug-In . SVG Version: 6.00 Build 0)  -->
<!DOCTYPE svg PUBLIC "-//W3C//DTD SVG 1.1//EN" "http://www.w3.org/Graphics/SVG/1.1/DTD/svg11.dtd">
<svg version="1.1" id="Layer_1" xmlns="http://www.w3.org/2000/svg" xmlns:xlink="http://www.w3.org/1999/xlink" x="0px" y="0px"
	 width="130px" height="130px" viewBox="0 0 130 130" enable-background="new 0 0 130 130" xml:space="preserve">
<rect fill="none" width="130" height="130"/>
<g>
	<g>
		<path fill="#4D4D4D" d="M107.665,30.069H28.531c-2.835,0-10.619,0.121-13.003-0.168c-0.812-0.095-2.962-0.346-3.254-1.291v80.328
			c0.235,1.559,6.758,1.459,7.778,1.459h86.199c0.993,0,8.956,0.255,9.22-1.459V28.61C114.96,30.221,108.917,30.069,107.665,30.069z
			 M45.571,109.357H19.03V49.749c0-0.729,0.531-1.326,1.183-1.326h24.179c0.648,0,1.179,0.597,1.179,1.326V109.357z M104.25,101.701
			c0,0.389-0.317,0.703-0.701,0.703H75.548c-0.389,0-0.703-0.314-0.703-0.703V61.918c0-0.384,0.314-0.699,0.703-0.699h28.001
			c0.384,0,0.701,0.315,0.701,0.699V101.701z"/>
		<g>
			<path fill="#FFFFFF" stroke="#4D4D4D" stroke-width="0.4422" stroke-miterlimit="10" d="M19.229,41.544
				c-0.84,1.781-1.717,3.639-2.623,5.558h-0.026v0.054c-0.041,0.089-0.078,0.167-0.119,0.253h0.119v0.187
				c0,3.601,2.934,6.537,6.534,6.537h0.337c3.6,0,6.534-2.937,6.534-6.537v-0.493h-0.018c0.648-1.919,1.274-3.776,1.875-5.558
				l1.207-3.584H20.917L19.229,41.544z"/>
			<path fill="#FFFFFF" stroke="#4D4D4D" stroke-width="0.4422" stroke-miterlimit="10" d="M44.453,41.544
				c-0.361,1.781-0.734,3.639-1.125,5.558H43.14v0.493c0,3.601,2.933,6.537,6.535,6.537h0.336c3.597,0,6.534-2.937,6.534-6.537
				v-0.187h0.125c0.139-2.033,0.268-3.985,0.398-5.864l0.241-3.584h-12.13L44.453,41.544z"/>
			<path fill="#FFFFFF" d="M110.281,47.408c-0.041-0.088-0.078-0.164-0.119-0.253v-0.054h-0.025
				c-0.907-1.919-1.781-3.776-2.619-5.558l-1.688-3.584H93.696l1.204,3.584c0.604,1.781,1.229,3.639,1.872,5.558h-0.015v0.493
				c0,3.601,2.937,6.537,6.534,6.537h0.337c3.599,0,6.533-2.937,6.533-6.537v-0.187H110.281z"/>
			<path fill="#FFFFFF" d="M82.291,41.544l-0.724-3.584h-12.13l0.241,3.584c0.125,1.859,0.253,3.792,0.391,5.804h-0.12v0.497
				c0,3.602,2.932,6.538,6.533,6.538h0.335c3.6,0,6.536-2.937,6.536-6.538v-0.437h0.121C83.064,45.375,82.671,43.423,82.291,41.544z
				"/>
		</g>
		<path fill="#4D4D4D" stroke="#FFFFFF" stroke-width="0.4422" stroke-miterlimit="10" d="M123.518,47.188
			c-1.173-1.933-2.302-3.79-3.384-5.58c-1.093-1.805-2.146-3.541-3.161-5.217v0.726c-0.276,1.067-8.546,0.907-9.578,0.907h-1.585
			l1.688,3.584c0.885,1.879,1.805,3.826,2.764,5.865h0.026v0.207c0,3.602,2.937,6.538,6.533,6.538h0.337
			c3.6,0,6.536-2.937,6.536-6.538v-0.492H123.518z"/>
		<path fill="#4D4D4D" stroke="#FFFFFF" stroke-width="0.4422" stroke-miterlimit="10" d="M9.771,37.117v-0.726H9.767
			c-1.01,1.676-2.066,3.412-3.161,5.217c-1.129,1.866-2.306,3.808-3.528,5.826H3.049v0.496c0,3.602,2.935,6.538,6.534,6.538h0.335
			c3.601,0,6.538-2.937,6.538-6.538v-0.485c0.955-2.023,1.872-3.967,2.753-5.837l1.691-3.584h-3.049
			C16.792,38.024,10.013,38.085,9.771,37.117z"/>
		<path fill="#4D4D4D" stroke="#FFFFFF" stroke-width="0.4422" stroke-miterlimit="10" d="M69.659,41.608l-0.241-3.584H57.287
			l-0.238,3.584c-0.129,1.879-0.263,3.831-0.397,5.865h0.016v0.457c0,3.602,2.934,6.538,6.534,6.538h0.336
			c3.6,0,6.536-2.937,6.536-6.538v-0.496h-0.023C69.916,45.416,69.782,43.475,69.659,41.608z"/>
		<path fill="#4D4D4D" stroke="#FFFFFF" stroke-width="0.4422" stroke-miterlimit="10" d="M94.884,41.608l-1.205-3.584H81.551
			l0.721,3.584c0.383,1.879,0.775,3.831,1.186,5.865h0.021v0.457c0,3.602,2.935,6.538,6.533,6.538h0.337
			c3.601,0,6.535-2.937,6.535-6.538v-0.496h-0.037C96.167,45.411,95.515,43.475,94.884,41.608z"/>
		<path fill="#4D4D4D" d="M119.451,30.914c0-0.196-0.077-0.399-0.337-0.611c-6.171-5.035-12.349-10.074-18.521-15.109
			c-0.635-0.519-3.735-0.934-6.89-0.934H33.022c-3.155,0-6.236,0.415-6.864,0.929c-6.175,5.044-12.353,10.079-18.529,15.114
			C7.338,30.54,7.26,30.77,7.294,30.987l-0.049,0.028v5.648c0.259,1.693,7.354,1.585,8.462,1.585h93.756
			c1.084,0,9.745,0.28,10.032-1.585v-5.722L119.451,30.914z"/>
		<polygon fill="#4D4D4D" points="115.395,109.443 12.338,109.568 1,115.74 129,115.74 		"/>
	</g>
	<path fill="#4D4D4D" d="M31.821,41.608c-0.6,1.788-1.229,3.651-1.881,5.58h-0.082v0.246c-0.004,0.013-0.008,0.025-0.013,0.039
		h0.013v0.207c0,3.602,2.935,6.538,6.534,6.538h0.339c3.597,0,6.534-2.937,6.534-6.538V47.39c0.406-2.004,0.797-3.931,1.17-5.781
		l0.726-3.584H33.028L31.821,41.608z"/>
</g>
</svg>
