<?xml version="1.0" encoding="utf-8"?>
<!-- Generator: Adobe Illustrator 16.0.0, SVG Export Plug-In . SVG Version: 6.00 Build 0)  -->
<!DOCTYPE svg PUBLIC "-//W3C//DTD SVG 1.1//EN" "http://www.w3.org/Graphics/SVG/1.1/DTD/svg11.dtd">
<svg version="1.1" id="Layer_1" xmlns="http://www.w3.org/2000/svg" xmlns:xlink="http://www.w3.org/1999/xlink" x="0px" y="0px"
	 width="130px" height="130px" viewBox="0 0 130 130" enable-background="new 0 0 130 130" xml:space="preserve">
<rect fill="none" width="130" height="130"/>
<g>
	<g>
		
			<rect x="3.791" y="53.549" transform="matrix(-0.0291 -0.9996 0.9996 -0.0291 3.3523 112.7011)" fill="#4D4D4D" width="105.242" height="2.347"/>
		<path fill="#4D4D4D" d="M54.849,1c0,0-39.198,7.362-51.374,40.409c8.495,4.847,35.226,6.51,52.731,6.001
			c17.503-0.513,44.092-3.735,52.285-9.062C94.412,6.063,54.849,1,54.849,1z"/>
	</g>
	<path fill="#4D4D4D" d="M118.104,68.417l7.709-5.628c0.774-0.565,0.944-1.653,0.377-2.431c-0.565-0.777-1.656-0.947-2.431-0.381
		l-3.894,2.843l-16.457-5.012l0.572-0.379c0.803-0.532,1.024-1.611,0.497-2.412c-0.532-0.805-1.608-1.022-2.414-0.495L37.235,97.27
		l-8.036-2.494c-0.499-0.153-1.003-0.059-1.413,0.191L9.002,89.138c-0.916-0.287-1.894,0.226-2.178,1.145
		c-0.285,0.918,0.228,1.898,1.146,2.181l5.127,1.592c2.084,2.409,4.204,4.449,6.347,6.147c2.102,1.759,4.239,3.254,6.385,4.59
		L9.841,115.336c-0.803,0.532-1.024,1.605-0.492,2.411c0.334,0.509,0.888,0.782,1.455,0.782c0.327,0,0.659-0.095,0.956-0.287
		l17.449-11.508c7.873,4.176,15.596,5.916,21.537,6.55l-17.211,12.564c-0.774,0.57-0.944,1.658-0.379,2.436
		c0.342,0.466,0.871,0.716,1.408,0.716c0.355,0,0.716-0.108,1.027-0.334l20.616-15.055c3.417,0.048,5.509-0.23,5.509-0.23h-0.01
		c3.066-0.259,6.111-0.979,9.114-2.037l27.451,8.523c0.175,0.047,0.347,0.075,0.519,0.075c0.739,0,1.429-0.48,1.662-1.225
		c0.283-0.919-0.23-1.894-1.146-2.181l-6.015-1.868l-1.149-16.504C104.033,87.878,113.553,75.052,118.104,68.417z M38.999,105.79
		c-0.212-0.162-0.429-0.301-0.641-0.473c-0.671-0.54-1.325-1.141-1.976-1.755c-0.155-0.146-0.32-0.271-0.474-0.424
		c-0.162-0.158-0.313-0.349-0.471-0.511l2.339-1.543l12.797,3.976c-3.172,1.133-6.396,1.896-9.642,2.136
		c-0.019-0.014-0.037-0.023-0.059-0.037C40.245,106.739,39.621,106.267,38.999,105.79z M71.005,92.571l-1.021-12.723l28.466-18.772
		C94.187,67.402,83.956,81.573,71.005,92.571z M68.005,81.153l1.046,13.026c-4.268,3.443-8.797,6.491-13.485,8.78l-14.027-4.354
		L68.005,81.153z M91.158,114.008l-15.313-4.753c5-2.424,9.816-5.723,14.331-9.435L91.158,114.008z"/>
</g>
</svg>
