<?xml version="1.0" encoding="utf-8"?>
<!-- Generator: Adobe Illustrator 16.0.0, SVG Export Plug-In . SVG Version: 6.00 Build 0)  -->
<!DOCTYPE svg PUBLIC "-//W3C//DTD SVG 1.1//EN" "http://www.w3.org/Graphics/SVG/1.1/DTD/svg11.dtd">
<svg version="1.1" id="Layer_1" xmlns="http://www.w3.org/2000/svg" xmlns:xlink="http://www.w3.org/1999/xlink" x="0px" y="0px"
	 width="130px" height="130px" viewBox="0 0 130 130" enable-background="new 0 0 130 130" xml:space="preserve">
<rect fill="none" width="130" height="130"/>
<path fill="#4D4D4D" d="M108.897,1H21.105c-2.93,0-5.312,2.388-5.312,5.321v117.363c0,2.933,2.382,5.315,5.312,5.315h87.792
	c2.928,0,5.31-2.383,5.31-5.315V6.321C114.207,3.388,111.825,1,108.897,1z M65.021,5.458c0.866,0,1.567,0.702,1.567,1.571
	c0,0.864-0.701,1.571-1.567,1.571c-0.864,0-1.568-0.707-1.568-1.571C63.452,6.159,64.156,5.458,65.021,5.458z M65.015,124.583
	c-1.487,0-2.689-1.206-2.689-2.689c0-1.49,1.202-2.695,2.689-2.695c1.483,0,2.687,1.205,2.687,2.695
	C67.701,123.377,66.498,124.583,65.015,124.583z M103.591,115.546H26.412V12.188h77.179V115.546z"/>
</svg>
