<?xml version="1.0" encoding="utf-8"?>
<!-- Generator: Adobe Illustrator 16.0.0, SVG Export Plug-In . SVG Version: 6.00 Build 0)  -->
<!DOCTYPE svg PUBLIC "-//W3C//DTD SVG 1.1//EN" "http://www.w3.org/Graphics/SVG/1.1/DTD/svg11.dtd">
<svg version="1.1" id="Layer_1" xmlns="http://www.w3.org/2000/svg" xmlns:xlink="http://www.w3.org/1999/xlink" x="0px" y="0px"
	 width="130px" height="130px" viewBox="0 0 130 130" enable-background="new 0 0 130 130" xml:space="preserve">
<rect fill="none" width="130" height="130"/>
<path fill="#4D4D4D" d="M123.682,15.793H6.318C3.385,15.793,1,18.175,1,21.103v87.795c0,2.928,2.385,5.31,5.318,5.31h117.363
	c2.933,0,5.318-2.382,5.318-5.31V21.103C129,18.175,126.614,15.793,123.682,15.793z M7.025,66.548c-0.869,0-1.571-0.701-1.571-1.565
	c0-0.869,0.702-1.57,1.571-1.57c0.867,0,1.571,0.701,1.571,1.57C8.596,65.847,7.892,66.548,7.025,66.548z M115.543,103.588H12.185
	V26.412h103.358V103.588z M121.891,67.678c-1.49,0-2.692-1.205-2.692-2.689c0-1.483,1.202-2.689,2.692-2.689
	c1.486,0,2.692,1.206,2.692,2.689C124.583,66.473,123.377,67.678,121.891,67.678z"/>
</svg>
