<?xml version="1.0" encoding="utf-8"?>
<!-- Generator: Adobe Illustrator 16.0.0, SVG Export Plug-In . SVG Version: 6.00 Build 0)  -->
<!DOCTYPE svg PUBLIC "-//W3C//DTD SVG 1.1//EN" "http://www.w3.org/Graphics/SVG/1.1/DTD/svg11.dtd">
<svg version="1.1" id="Layer_1" xmlns="http://www.w3.org/2000/svg" xmlns:xlink="http://www.w3.org/1999/xlink" x="0px" y="0px"
	 width="130px" height="130px" viewBox="0 0 130 130" enable-background="new 0 0 130 130" xml:space="preserve">
<rect fill="none" width="130" height="130"/>
<g>
	<g>
		<path fill="#4D4D4D" d="M105.025,56.651h8.457C109.955,35.327,92.924,18.58,71.487,15.4v8.417
			C88.317,26.831,101.685,39.933,105.025,56.651z M14.769,56.651h8.467c3.214-16.056,15.664-28.776,31.554-32.431v-8.584
			C34.279,19.521,18.188,35.974,14.769,56.651z M23.289,73.344h-8.481c3.532,20.535,19.569,36.842,39.981,40.707v-8.589
			C38.997,101.836,26.596,89.254,23.289,73.344z M71.487,105.863v8.457c21.338-3.155,38.315-19.795,41.951-40.977h-8.462
			C101.527,89.915,88.22,102.875,71.487,105.863z"/>
	</g>
	<g>
		<path fill="#4D4D4D" d="M63.138,1c-2.558,0-4.635,1.872-4.635,4.174v28.757c0,2.303,2.077,4.174,4.635,4.174
			c2.562,0,4.641-1.872,4.641-4.174V5.174C67.778,2.872,65.7,1,63.138,1z"/>
	</g>
	<g>
		<path fill="#4D4D4D" d="M63.138,91.895c-2.558,0-4.635,1.872-4.635,4.175v28.756c0,2.303,2.077,4.175,4.635,4.175
			c2.562,0,4.641-1.872,4.641-4.175V96.069C67.778,93.767,65.7,91.895,63.138,91.895z"/>
	</g>
	<g>
		<path fill="#4D4D4D" d="M124.825,60.36H96.074c-2.308,0-4.175,2.078-4.175,4.64c0,2.558,1.867,4.64,4.175,4.64h28.751
			c2.308,0,4.175-2.082,4.175-4.64C129,62.438,127.133,60.36,124.825,60.36z"/>
	</g>
	<g>
		<path fill="#4D4D4D" d="M33.931,60.36H5.18C2.872,60.36,1,62.438,1,65c0,2.558,1.872,4.64,4.18,4.64h28.751
			c2.308,0,4.175-2.082,4.175-4.64C38.105,62.438,36.238,60.36,33.931,60.36z"/>
	</g>
	<g>
		<circle fill="#4D4D4D" cx="63.143" cy="65" r="7.903"/>
	</g>
</g>
</svg>
