<?xml version="1.0" encoding="utf-8"?>
<!-- Generator: Adobe Illustrator 16.0.0, SVG Export Plug-In . SVG Version: 6.00 Build 0)  -->
<!DOCTYPE svg PUBLIC "-//W3C//DTD SVG 1.1//EN" "http://www.w3.org/Graphics/SVG/1.1/DTD/svg11.dtd">
<svg version="1.1" id="Layer_1" xmlns="http://www.w3.org/2000/svg" xmlns:xlink="http://www.w3.org/1999/xlink" x="0px" y="0px"
	 width="130px" height="130px" viewBox="0 0 130 130" enable-background="new 0 0 130 130" xml:space="preserve">
<rect fill="none" width="130" height="130"/>
<g>
	<g>
		<g>
			<g>
				<g>
					<g>
						<path fill="#4D4D4D" d="M127.313,102.789c0.03,0,0.056,0,0.088-0.005c0.335-0.047,0.568-0.376,0.522-0.738l-0.374-2.887
							c-3.771-29.276-17.575-48.441-28.493-59.364c-11.82-11.827-22.689-16.72-23.146-16.924l-0.708-0.311
							c-0.15-0.07-0.32-0.07-0.471,0l-0.708,0.311c-0.457,0.204-11.326,5.097-23.146,16.924
							C39.959,50.718,26.285,69.883,22.511,99.159l-0.306,2.887c-0.046,0.362,0.188,0.691,0.522,0.738
							c0.348,0.056,0.648-0.199,0.693-0.557l0.309-2.893c3.725-28.89,17.216-47.805,27.992-58.583
							c11.655-11.669,22.325-16.474,22.775-16.668l0.472-0.209l0.468,0.209c0.451,0.195,11.118,5,22.777,16.668
							c10.773,10.778,24.397,29.694,28.12,58.583l0.371,2.893C126.749,102.557,127.014,102.789,127.313,102.789z"/>
						<g>
							<path fill="#4D4D4D" d="M127.772,107.83c0.047,0,0.093-0.005,0.145-0.009c0.673-0.089,1.153-0.743,1.074-1.458l-0.499-4.461
								c-0.072-0.659-0.594-1.16-1.214-1.16c-0.051,0-0.104,0.004-0.158,0.009c-0.317,0.042-0.612,0.214-0.812,0.492
								c-0.206,0.273-0.294,0.617-0.257,0.966l0.499,4.465c0.064,0.608,0.534,1.091,1.104,1.147L127.772,107.83z"/>
							<path fill="#4D4D4D" d="M22.462,107.816c0.571-0.061,1.037-0.543,1.104-1.151l0.497-4.466
								c0.038-0.343-0.053-0.687-0.253-0.966c-0.204-0.273-0.494-0.445-0.821-0.487c-0.049-0.009-0.1-0.009-0.151-0.009
								c-0.62,0-1.142,0.492-1.214,1.156l-0.499,4.46c-0.04,0.349,0.051,0.691,0.253,0.971c0.205,0.27,0.497,0.445,0.822,0.487
								c0.046,0.01,0.098,0.01,0.144,0.01L22.462,107.816z"/>
						</g>
					</g>
					<g>
						<path fill="#4D4D4D" d="M3.851,80.457c0.237,0,0.459-0.144,0.564-0.385l0.866-2.079
							c10.788-25.846,30.963-41.972,43.895-47.704c14.127-6.262,25.679-6.471,25.793-6.471c0.341,0,0.612-0.292,0.612-0.654
							c0-0.362-0.276-0.655-0.612-0.655h-0.006c-0.111,0-11.681,0.107-26.26,6.573c-13.137,5.82-33.593,22.141-44.547,48.381
							L3.29,79.538c-0.137,0.33,0.002,0.715,0.311,0.863C3.684,80.439,3.768,80.457,3.851,80.457z"/>
						<path fill="#4D4D4D" d="M1.922,85.09c0.516,0.097,1.035-0.204,1.237-0.72l1.471-3.787c0.116-0.293,0.116-0.618,0-0.914
							c-0.113-0.298-0.327-0.525-0.605-0.65C3.986,79,3.939,78.985,3.897,78.972c-0.545-0.162-1.121,0.135-1.337,0.697l-1.474,3.787
							c-0.116,0.293-0.116,0.617,0,0.914c0.111,0.293,0.33,0.524,0.606,0.646c0.04,0.019,0.083,0.032,0.125,0.047L1.922,85.09z"/>
					</g>
				</g>
			</g>
		</g>
		<g>
			<path fill="#4D4D4D" d="M22.964,99.143l47.664-70.1c0.142-0.207,0.42-0.265,0.636-0.142l15.297,9.139
				c0.061,0.035,0.067,0.109,0.104,0.163c0.067,0.032,0.145,0.048,0.193,0.111l39.234,50.376
				C114.706,39.515,75.551,22.18,75.551,22.18S29.028,20.059,3.779,77.812c13.311,4.001,18.418,16.85,19.112,21.636
				C22.885,99.343,22.901,99.235,22.964,99.143z"/>
			<path fill="#4D4D4D" d="M106.089,68.5c2.632,4.844,5.006,10.229,6.889,16.27c-12.166-1.425-25.314-1.796-35.77-1.796h-3.312
				c-10.124,0-22.768,0.356-34.606,1.671L23.685,99.751c-0.09,0.088-0.211,0.135-0.329,0.135c-0.109,0-0.218-0.037-0.307-0.112
				c-0.085-0.071-0.13-0.171-0.151-0.273c0.026,0.172,0.058,0.36,0.07,0.509c18.043-4.879,47.253-4.675,52.583-4.675
				c5.331,0,34.539-0.204,52.584,4.675c-0.359-2.79-0.831-5.464-1.357-8.079L106.089,68.5z"/>
		</g>
	</g>
	<g>
		<polygon fill="#4D4D4D" points="86.392,39.264 83.448,41.425 122.632,85.796 		"/>
		<polygon fill="#4D4D4D" points="71.161,29.948 26.354,95.845 85.542,38.54 		"/>
	</g>
</g>
</svg>
