<?xml version="1.0" encoding="utf-8"?>
<!-- Generator: Adobe Illustrator 16.0.0, SVG Export Plug-In . SVG Version: 6.00 Build 0)  -->
<!DOCTYPE svg PUBLIC "-//W3C//DTD SVG 1.1//EN" "http://www.w3.org/Graphics/SVG/1.1/DTD/svg11.dtd">
<svg version="1.1" id="Layer_1" xmlns="http://www.w3.org/2000/svg" xmlns:xlink="http://www.w3.org/1999/xlink" x="0px" y="0px"
	 width="130px" height="130px" viewBox="0 0 130 130" enable-background="new 0 0 130 130" xml:space="preserve">
<rect fill="none" width="130" height="130"/>
<g>
	<polygon fill="#4D4D4D" points="31.628,75.752 23.05,84.312 43.694,105.071 52.372,96.421 	"/>
	<polygon fill="#4D4D4D" points="113.809,8.563 98.609,22.348 101.087,24.815 40.801,84.891 43.103,87.188 103.389,27.111 
		105.866,29.58 119.704,14.435 	"/>
	<path fill="#4D4D4D" d="M48.423,32.041c3.783-8.7,2.593-18.628-3.863-25.061c-6.411-6.399-16.335-7.605-25.038-3.892L33.81,17.346
		l-3.938,10.627l-10.7,3.949L4.874,17.69C1.17,26.368,2.362,36.235,8.772,42.635c6.466,6.432,16.425,7.627,25.153,3.854
		l17.721,17.665L66.15,49.703L48.423,32.041z"/>
	<path fill="#4D4D4D" d="M125.059,87.208c-6.461-6.438-16.415-7.622-25.147-3.858L78.416,61.927L63.917,76.378l21.495,21.425
		c-3.778,8.705-2.587,18.622,3.869,25.055c6.431,6.408,16.324,7.604,25.037,3.887l-14.298-14.243l3.984-10.643l10.659-3.941
		l14.288,14.241C132.69,103.478,131.489,93.613,125.059,87.208z"/>
	<path fill="#4D4D4D" d="M2.111,105.179c-4.224,4.204-4.224,11.08-0.01,15.284l5.41,5.383c4.214,4.206,11.125,4.206,15.334-0.003
		l19.197-19.13L21.394,85.954L2.111,105.179z"/>
	<path fill="#4D4D4D" d="M31.869,96.481l-26.91,26.824l2.553,2.54c4.214,4.206,11.125,4.206,15.334-0.003l19.197-19.13
		L31.869,96.481z"/>
</g>
</svg>
