<?xml version="1.0" encoding="utf-8"?>
<!-- Generator: Adobe Illustrator 16.0.0, SVG Export Plug-In . SVG Version: 6.00 Build 0)  -->
<!DOCTYPE svg PUBLIC "-//W3C//DTD SVG 1.1//EN" "http://www.w3.org/Graphics/SVG/1.1/DTD/svg11.dtd">
<svg version="1.1" id="Layer_1" xmlns="http://www.w3.org/2000/svg" xmlns:xlink="http://www.w3.org/1999/xlink" x="0px" y="0px"
	 width="130px" height="130px" viewBox="0 0 130 130" enable-background="new 0 0 130 130" xml:space="preserve">
<rect fill="none" width="130" height="130"/>
<g>
	<path fill="#4D4D4D" d="M23.352,24.79l3.203,90.448c0,7.566,6.185,13.762,13.735,13.762h49.428c7.551,0,13.734-6.195,13.734-13.762
		l3.204-90.448H23.352z M50.783,96.809c0,1.188-1.064,2.152-2.381,2.152c-1.312,0-2.377-0.965-2.377-2.152V52.135
		c0-1.188,1.064-2.15,2.377-2.15c1.316,0,2.381,0.963,2.381,2.15V96.809z M68.14,107.877c0,1.189-1.052,2.154-2.353,2.154
		c-1.3,0-2.352-0.965-2.352-2.154V42.654c0-1.192,1.052-2.161,2.352-2.161c1.301,0,2.353,0.968,2.353,2.161V107.877z M83.985,96.809
		c0,1.188-1.067,2.152-2.381,2.152c-1.315,0-2.38-0.965-2.38-2.152V52.135c0-1.188,1.064-2.15,2.38-2.15
		c1.313,0,2.381,0.963,2.381,2.15V96.809z"/>
	<path fill="#4D4D4D" d="M113.936,18.389H90.541V9.698c0-4.797-3.894-8.699-8.68-8.699H48.141c-4.785,0-8.674,3.901-8.674,8.699
		v8.691H16.075c-1.77,0-3.201,1.434-3.201,3.201s1.432,3.2,3.201,3.2h97.86c1.759,0,3.19-1.433,3.19-3.2
		S115.694,18.389,113.936,18.389z M84.149,18.389H45.855V9.698c0-1.268,1.028-2.299,2.285-2.299h33.721
		c1.241,0,2.288,1.053,2.288,2.299V18.389z"/>
</g>
</svg>
