<?xml version="1.0" encoding="utf-8"?>
<!-- Generator: Adobe Illustrator 16.0.0, SVG Export Plug-In . SVG Version: 6.00 Build 0)  -->
<!DOCTYPE svg PUBLIC "-//W3C//DTD SVG 1.1//EN" "http://www.w3.org/Graphics/SVG/1.1/DTD/svg11.dtd">
<svg version="1.1" id="Layer_1" xmlns="http://www.w3.org/2000/svg" xmlns:xlink="http://www.w3.org/1999/xlink" x="0px" y="0px"
	 width="130px" height="130px" viewBox="0 0 130 130" enable-background="new 0 0 130 130" xml:space="preserve">
<rect fill="none" width="130" height="130"/>
<g>
	<path fill="#4D4D4D" d="M83.341,62.469c-1.864-16.965-17.13-29.214-34.098-27.352c-16.97,1.857-29.216,17.126-27.354,34.101
		c1.865,16.965,17.131,29.214,34.098,27.351C72.957,94.706,85.204,79.438,83.341,62.469z M53.89,77.425
		c-6.405,0.706-12.169-3.917-12.872-10.323c-0.7-6.407,3.922-12.166,10.327-12.871c6.404-0.706,12.168,3.922,12.868,10.328
		C64.919,70.961,60.294,76.729,53.89,77.425z"/>
	<path fill="#4D4D4D" d="M121.192,21.012H8.809C4.492,21.012,1,24.503,1,28.819v72.361c0,4.312,3.492,7.808,7.809,7.808h112.384
		c4.309,0,7.808-3.496,7.808-7.808V28.819C129,24.503,125.501,21.012,121.192,21.012z M52.618,100.335
		c-19.037,0-34.472-15.429-34.472-34.469c0-19.039,15.435-34.469,34.472-34.469c19.034,0,34.466,15.43,34.466,34.469
		C87.084,84.906,71.652,100.335,52.618,100.335z M105.803,102.929h-1.645V27.756h1.645V102.929z M117.686,95.868
		c-1.679,0-3.04-1.359-3.04-3.04c0-1.671,1.361-3.035,3.04-3.035c1.673,0,3.037,1.364,3.037,3.035
		C120.723,94.509,119.358,95.868,117.686,95.868z M117.686,84.563c-1.679,0-3.04-1.359-3.04-3.04c0-1.676,1.361-3.035,3.04-3.035
		c1.673,0,3.037,1.359,3.037,3.035C120.723,83.204,119.358,84.563,117.686,84.563z M117.686,43.896
		c-2.924,0-5.292-2.365-5.292-5.286c0-2.927,2.368-5.292,5.292-5.292c2.921,0,5.289,2.365,5.289,5.292
		C122.975,41.53,120.606,43.896,117.686,43.896z"/>
	<path fill="#4D4D4D" d="M61.671,64.834c0.545,4.996-3.061,9.499-8.062,10.049c-5.002,0.55-9.5-3.061-10.05-8.062
		c-0.544-4.996,3.062-9.499,8.062-10.049C56.623,56.228,61.121,59.833,61.671,64.834z"/>
	<path fill="#FFFFFF" d="M94.011,37.997c0,3.574-2.896,6.464-6.467,6.464c-3.575,0-6.47-2.89-6.47-6.464s2.895-6.465,6.47-6.465
		C91.115,31.532,94.011,34.423,94.011,37.997z"/>
	<path fill="#FFFFFF" d="M70.672,77.228c0.703-0.611,1.063-1.068,1.469-1.883l23.156-46.821c0.208-0.425,0.036-0.938-0.392-1.146
		l-3.024-1.499c-0.423-0.208-0.941-0.036-1.149,0.389L67.494,73.259L53.77,84.361c-0.371,0.291-0.436,0.835-0.14,1.209l2.099,2.641
		c0.296,0.368,0.835,0.431,1.206,0.14L70.672,77.228z"/>
</g>
</svg>
