<?xml version="1.0" encoding="utf-8"?>
<!-- Generator: Adobe Illustrator 16.0.0, SVG Export Plug-In . SVG Version: 6.00 Build 0)  -->
<!DOCTYPE svg PUBLIC "-//W3C//DTD SVG 1.1//EN" "http://www.w3.org/Graphics/SVG/1.1/DTD/svg11.dtd">
<svg version="1.1" id="Layer_1" xmlns="http://www.w3.org/2000/svg" xmlns:xlink="http://www.w3.org/1999/xlink" x="0px" y="0px"
	 width="130px" height="130px" viewBox="0 0 130 130" enable-background="new 0 0 130 130" xml:space="preserve">
<rect fill="none" width="130" height="130"/>
<g id="Shape_13_copy_1_">
	<path fill="#4C4C4C" d="M74.421,39.215c14.626-8.78,22.431,3.566,14.947,17.548c-7.47,13.963-14.294,23.071-17.87,23.071
		c-3.565,0-6.312-9.347-10.396-25.679c-4.227-16.891-4.201-47.308-21.768-43.857C22.771,13.55,1,39.544,1,39.544l5.198,6.817
		c0,0,10.721-8.446,14.294-4.223c3.573,4.223,17.217,55.246,21.771,64.657c3.975,8.253,14.94,19.164,26.966,11.375
		c12.019-7.796,51.981-41.914,59.133-82.205C135.512-4.314,80.272,4.125,74.421,39.215z"/>
</g>
</svg>
