<?xml version="1.0" encoding="utf-8"?>
<!-- Generator: Adobe Illustrator 16.0.0, SVG Export Plug-In . SVG Version: 6.00 Build 0)  -->
<!DOCTYPE svg PUBLIC "-//W3C//DTD SVG 1.1//EN" "http://www.w3.org/Graphics/SVG/1.1/DTD/svg11.dtd">
<svg version="1.1" id="Layer_1" xmlns="http://www.w3.org/2000/svg" xmlns:xlink="http://www.w3.org/1999/xlink" x="0px" y="0px"
	 width="130px" height="130px" viewBox="0 0 130 130" enable-background="new 0 0 130 130" xml:space="preserve">
<rect fill="none" width="130" height="130"/>
<path fill="#4D4D4D" d="M99.266,35.259c-16.4,0-29.743,13.339-29.743,29.739c0,6.407,2.056,12.334,5.52,17.196h-20.08
	c3.464-4.862,5.521-10.789,5.521-17.196c0-16.4-13.339-29.739-29.739-29.739C14.344,35.259,1,48.598,1,64.998
	c0,16.17,12.979,29.345,29.068,29.713l0.203,0.018h0.199l0.272,0.013l0.272-0.013h67.085l0.299-0.03
	c0.29,0.008,0.571,0.043,0.866,0.043c16.399,0,29.734-13.344,29.734-29.743C129,48.598,115.665,35.259,99.266,35.259z
	 M31.016,82.194h-0.545c-9.365-0.147-16.937-7.797-16.937-17.196c0-9.486,7.719-17.206,17.209-17.206
	c9.486,0,17.205,7.72,17.205,17.206C47.948,74.397,40.376,82.047,31.016,82.194z M99.266,82.207c-9.49,0-17.21-7.724-17.21-17.209
	c0-9.486,7.72-17.206,17.21-17.206c9.485,0,17.2,7.72,17.2,17.206C116.466,74.483,108.751,82.207,99.266,82.207z"/>
</svg>
