<?xml version="1.0" encoding="utf-8"?>
<!-- Generator: Adobe Illustrator 16.0.0, SVG Export Plug-In . SVG Version: 6.00 Build 0)  -->
<!DOCTYPE svg PUBLIC "-//W3C//DTD SVG 1.1//EN" "http://www.w3.org/Graphics/SVG/1.1/DTD/svg11.dtd">
<svg version="1.1" id="Layer_1" xmlns="http://www.w3.org/2000/svg" xmlns:xlink="http://www.w3.org/1999/xlink" x="0px" y="0px"
	 width="130px" height="130px" viewBox="0 0 130 130" enable-background="new 0 0 130 130" xml:space="preserve">
<rect fill="none" width="130" height="130"/>
<g>
	<path fill="#4D4D4D" d="M56.825,15.497L31.787,38.028c-1.378,1.241-2.655,2.835-3.83,4.596H8.373C4.322,42.624,1,45.954,1,50.014
		V80c0,4.052,3.322,7.357,7.373,7.357h19.584c1.175,1.79,2.452,3.384,3.83,4.614l25.038,22.531c5.017,4.518,9.129,2.693,9.129-4.056
		V19.553C65.954,12.804,61.842,10.979,56.825,15.497z"/>
	<path fill="#4D4D4D" d="M80.965,41.48c-1.962,1.172-2.6,3.713-1.43,5.68c6.829,11.461,6.829,25.699,0,37.151
		c-1.17,1.962-0.532,4.507,1.422,5.68c0.67,0.396,1.391,0.583,2.116,0.583c1.405,0,2.771-0.721,3.546-2.016
		c8.392-14.071,8.392-31.565,0-45.651C85.447,40.946,82.907,40.304,80.965,41.48z M102.604,34.668
		c-1.173-1.967-3.708-2.6-5.663-1.427c-1.956,1.172-2.592,3.712-1.424,5.674c9.86,16.543,9.86,37.097,0,53.63
		c-1.168,1.962-0.532,4.502,1.424,5.68c0.662,0.397,1.394,0.588,2.117,0.588c1.397,0,2.773-0.726,3.546-2.011
		C114.025,77.642,114.025,53.835,102.604,34.668z M114.84,17.302c-1.229-1.923-3.784-2.482-5.699-1.246
		c-1.917,1.241-2.472,3.801-1.238,5.724c17.124,26.7,17.124,61.213,0,87.908c-1.233,1.917-0.679,4.482,1.238,5.718
		c0.691,0.441,1.462,0.657,2.231,0.657c1.354,0,2.681-0.672,3.468-1.897C133.72,84.743,133.72,46.724,114.84,17.302z"/>
</g>
</svg>
