<?xml version="1.0" encoding="utf-8"?>
<!-- Generator: Adobe Illustrator 16.0.0, SVG Export Plug-In . SVG Version: 6.00 Build 0)  -->
<!DOCTYPE svg PUBLIC "-//W3C//DTD SVG 1.1//EN" "http://www.w3.org/Graphics/SVG/1.1/DTD/svg11.dtd">
<svg version="1.1" id="Layer_1" xmlns="http://www.w3.org/2000/svg" xmlns:xlink="http://www.w3.org/1999/xlink" x="0px" y="0px"
	 width="130px" height="130px" viewBox="0 0 130 130" enable-background="new 0 0 130 130" xml:space="preserve">
<rect fill="none" width="130" height="130"/>
<g>
	<path fill="#4D4D4D" d="M54.379,17.664L30.438,39.208c-1.318,1.187-2.537,2.71-3.663,4.394H8.048C4.174,43.603,1,46.787,1,50.67
		v28.673c0,3.874,3.175,7.035,7.049,7.035h18.727c1.126,1.711,2.345,3.235,3.663,4.413l23.941,21.545
		c4.802,4.319,8.732,2.574,8.732-3.879V21.542C63.112,15.089,59.181,13.344,54.379,17.664z"/>
	<path fill="#4D4D4D" d="M110.887,65.842l16.978-16.977c1.36-1.36,1.585-3.349,0.206-4.728c-1.379-1.378-3.732-1.533-5.079-0.188
		L106.047,61.03l-17.348-17.62c-1.378-1.379-3.747-1.257-5.13,0.126c-1.389,1.388-1.886,4.146-0.502,5.529l17.465,17.53
		L83.719,83.41c-1.359,1.355-1.369,3.563,0.023,4.952c1.389,1.393,3.429,1.196,4.803-0.179l16.949-16.943l17.005,16.935
		c1.374,1.374,3.625,1.364,5.014-0.028c1.388-1.384,1.528-4.16,0.154-5.539L110.887,65.842z"/>
</g>
</svg>
