<?xml version="1.0" encoding="utf-8"?>
<!-- Generator: Adobe Illustrator 16.0.0, SVG Export Plug-In . SVG Version: 6.00 Build 0)  -->
<!DOCTYPE svg PUBLIC "-//W3C//DTD SVG 1.1//EN" "http://www.w3.org/Graphics/SVG/1.1/DTD/svg11.dtd">
<svg version="1.1" id="Layer_1" xmlns="http://www.w3.org/2000/svg" xmlns:xlink="http://www.w3.org/1999/xlink" x="0px" y="0px"
	 width="130px" height="130px" viewBox="0 0 130 130" enable-background="new 0 0 130 130" xml:space="preserve">
<rect fill="none" width="130" height="130"/>
<g>
	<g id="Shape_30_2_">
		<g>
			<path fill="#4C4C4C" d="M64.998,128.211C29.71,128.211,1,99.854,1,65C1,30.146,29.71,1.789,64.998,1.789
				C100.289,1.789,129,30.146,129,65C129,99.854,100.289,128.211,64.998,128.211z M64.998,4.753C31.343,4.753,3.964,31.779,3.964,65
				c0,33.221,27.379,60.246,61.034,60.246S126.035,98.221,126.035,65C126.035,31.779,98.653,4.753,64.998,4.753z"/>
		</g>
	</g>
	<path fill="#4C4C4C" d="M9.708,64.154c0,21.609,12.768,40.3,31.281,49.142L14.517,41.932C11.437,48.724,9.708,56.239,9.708,64.154z
		 M66.186,68.938l-16.659,47.601c4.972,1.447,10.231,2.229,15.683,2.229c6.459,0,12.66-1.101,18.428-3.104
		c-0.147-0.226-0.284-0.475-0.394-0.741L66.186,68.938z M113.901,37.954c0.249,1.743,0.386,3.607,0.386,5.623
		c0,5.535-1.057,11.765-4.225,19.553l-16.947,48.221c16.493-9.462,27.587-27.052,27.587-47.196
		C120.702,54.659,118.235,45.736,113.901,37.954z M102.678,61.398c0-6.751-2.476-11.424-4.58-15.06
		c-2.812-4.499-5.448-8.303-5.448-12.813c0-5.015,3.858-9.687,9.321-9.687c0.24,0,0.479,0.035,0.713,0.046
		C92.814,14.985,79.659,9.548,65.209,9.548c-19.388,0-36.448,9.785-46.367,24.62c1.303,0.035,2.527,0.063,3.567,0.063
		c5.808,0,14.797-0.706,14.797-0.706c2.981-0.162,3.34,4.163,0.35,4.51c0,0-3.005,0.342-6.354,0.516l20.216,59.146l12.14-35.83
		l-8.643-23.316c-2.99-0.174-5.824-0.516-5.824-0.516c-2.988-0.179-2.638-4.672,0.355-4.51c0,0,9.157,0.706,14.615,0.706
		c5.801,0,14.796-0.706,14.796-0.706c2.982-0.162,3.339,4.163,0.348,4.51c0,0-3.002,0.342-6.349,0.516l20.057,58.694l5.539-18.192
		C101.259,71.954,102.678,66.071,102.678,61.398z"/>
</g>
</svg>
