<?xml version="1.0" encoding="utf-8"?>
<!-- Generator: Adobe Illustrator 16.0.0, SVG Export Plug-In . SVG Version: 6.00 Build 0)  -->
<!DOCTYPE svg PUBLIC "-//W3C//DTD SVG 1.1//EN" "http://www.w3.org/Graphics/SVG/1.1/DTD/svg11.dtd">
<svg version="1.1" id="Layer_1" xmlns="http://www.w3.org/2000/svg" xmlns:xlink="http://www.w3.org/1999/xlink" x="0px" y="0px"
	 width="130px" height="130px" viewBox="0 0 130 130" enable-background="new 0 0 130 130" xml:space="preserve">
<rect fill="none" width="130" height="130"/>
<g id="Zerply_icon_2_">
	<path fill="#4C4C4C" d="M111.894,100.879c-24.618,18.614-44.52-14.51-68.86-15.609C50.497,74.363,68.34,58.13,79.026,45.364
		c14.761-17.63,30.428-28.33,26.368-41.778C95.467,5.613,56.507,10.658,42.673,1c-2.316,4.214-9.651,12.083-7.406,20.088
		c3.282,7.92,24.881,6.189,35.621,4.974C53.798,48.247,38.047,65.53,26.935,77.033c-7.528,7.786-10.282,12.547-9.548,26.214
		c11.955-1.563,22.687-0.489,31.818,3.307c13.112,5.463,21.046,17.103,35.202,21.298
		C103.806,133.598,116.133,116.707,111.894,100.879z"/>
</g>
</svg>
