<?xml version="1.0" encoding="utf-8"?>
<!-- Generator: Adobe Illustrator 16.0.0, SVG Export Plug-In . SVG Version: 6.00 Build 0)  -->
<!DOCTYPE svg PUBLIC "-//W3C//DTD SVG 1.1//EN" "http://www.w3.org/Graphics/SVG/1.1/DTD/svg11.dtd">
<svg version="1.1" id="Layer_1" xmlns="http://www.w3.org/2000/svg" xmlns:xlink="http://www.w3.org/1999/xlink" x="0px" y="0px"
	 width="130px" height="130px" viewBox="0 0 130 130" enable-background="new 0 0 130 130" xml:space="preserve">
<rect fill="none" width="130" height="130"/>
<g>
	<path fill="#4D4D4D" d="M124.177,106.531L94.806,75.934c-4.692,7.657-11.229,14.041-19.02,18.524l29.238,30.46
		c2.607,2.717,6.091,4.082,9.579,4.082c3.305,0,6.618-1.228,9.19-3.699C129.083,120.225,129.256,111.818,124.177,106.531z"/>
	<path fill="#4D4D4D" d="M49.196,95.154c-25.955,0-47.072-21.117-47.072-47.073C2.124,22.122,23.241,1,49.196,1
		C75.152,1,96.27,22.122,96.27,48.082C96.27,74.037,75.152,95.154,49.196,95.154z M49.196,11.521
		c-20.155,0-36.551,16.401-36.551,36.561c0,20.154,16.396,36.552,36.551,36.552c20.155,0,36.552-16.398,36.552-36.552
		C85.748,27.922,69.351,11.521,49.196,11.521z"/>
	<path fill="#4D4D4D" d="M31.84,44.529c-1.961,0-3.549,1.589-3.549,3.549s1.588,3.545,3.549,3.545h34.712
		c1.965,0,3.549-1.585,3.549-3.545s-1.584-3.549-3.549-3.549H31.84z"/>
</g>
</svg>
