<?xml version="1.0" encoding="utf-8"?>
<!-- Generator: Adobe Illustrator 16.0.0, SVG Export Plug-In . SVG Version: 6.00 Build 0)  -->
<!DOCTYPE svg PUBLIC "-//W3C//DTD SVG 1.1//EN" "http://www.w3.org/Graphics/SVG/1.1/DTD/svg11.dtd">
<svg version="1.1" id="Layer_1" xmlns="http://www.w3.org/2000/svg" xmlns:xlink="http://www.w3.org/1999/xlink" x="0px" y="0px"
	 width="130px" height="130px" viewBox="0 0 130 130" enable-background="new 0 0 130 130" xml:space="preserve">
<rect fill="none" width="130" height="130"/>
<g>
	<path fill="#4D4D4D" d="M124.175,106.531L94.807,75.933c-4.695,7.658-11.229,14.042-19.02,18.524l29.235,30.461
		c2.61,2.716,6.091,4.082,9.582,4.082c3.302,0,6.614-1.229,9.19-3.699C129.084,120.224,129.257,111.817,124.175,106.531z"/>
	<path fill="#4D4D4D" d="M49.197,95.155c-25.957,0-47.074-21.117-47.074-47.074C2.123,22.122,23.24,1,49.197,1
		s47.074,21.122,47.074,47.082C96.271,74.038,75.153,95.155,49.197,95.155z M49.197,11.521c-20.155,0-36.554,16.402-36.554,36.561
		c0,20.154,16.399,36.552,36.554,36.552c20.154,0,36.553-16.398,36.553-36.552C85.75,27.923,69.351,11.521,49.197,11.521z"/>
	<path fill="#4D4D4D" d="M66.552,44.529H52.74V30.721c0-1.961-1.59-3.55-3.543-3.55c-1.959,0-3.549,1.589-3.549,3.55v13.808H31.842
		c-1.965,0-3.55,1.589-3.55,3.549c0,1.961,1.585,3.545,3.55,3.545h13.806v13.814c0,1.962,1.589,3.547,3.549,3.547
		c1.953,0,3.543-1.585,3.543-3.547V51.624h13.812c1.964,0,3.549-1.584,3.549-3.545C70.101,46.118,68.516,44.529,66.552,44.529z"/>
</g>
</svg>
